<?xml version="1.0" standalone="no"?>
<!DOCTYPE svg PUBLIC "-//W3C//DTD SVG 20010904//EN"
 "http://www.w3.org/TR/2001/REC-SVG-20010904/DTD/svg10.dtd">
<svg version="1.0" xmlns="http://www.w3.org/2000/svg"
 width="2880.000000pt" height="1725.000000pt" viewBox="0 0 2880.000000 1725.000000"
 preserveAspectRatio="xMidYMid meet">
<metadata>
Created by potrace 1.16, written by Peter Selinger 2001-2019
</metadata>
<g transform="translate(0.000000,1725.000000) scale(0.100000,-0.100000)"
fill="#000000" stroke="none">
<path d="M12923 10763 c-139 -2 -253 -7 -253 -12 0 -4 -66 -11 -147 -15 -81
-3 -149 -10 -152 -15 -4 -5 -48 -12 -99 -16 -50 -4 -92 -11 -92 -15 0 -4 -39
-11 -87 -15 -49 -4 -90 -11 -93 -15 -3 -5 -51 -12 -108 -16 -56 -4 -102 -10
-102 -14 0 -4 -34 -11 -75 -15 -41 -4 -75 -10 -75 -15 0 -4 -25 -11 -55 -15
-30 -3 -55 -10 -55 -14 0 -5 -22 -11 -50 -15 -27 -4 -50 -11 -50 -16 0 -5 -25
-12 -55 -15 -30 -4 -55 -11 -55 -16 0 -4 -20 -11 -45 -15 -25 -3 -45 -10 -45
-15 0 -4 -20 -11 -45 -15 -25 -3 -45 -10 -45 -14 0 -4 -16 -11 -35 -14 -19 -4
-35 -11 -35 -15 0 -5 -20 -12 -45 -15 -25 -4 -45 -11 -45 -16 0 -6 -18 -13
-40 -16 -22 -4 -40 -10 -40 -14 0 -5 -13 -11 -30 -15 -16 -4 -30 -11 -30 -16
0 -5 -7 -9 -15 -9 -9 0 -18 -6 -21 -14 -3 -8 -19 -18 -35 -21 -16 -4 -29 -11
-29 -16 0 -5 -18 -12 -40 -15 -22 -4 -40 -10 -40 -14 0 -4 -16 -11 -35 -14
-19 -4 -35 -11 -35 -16 0 -4 -13 -11 -30 -15 -16 -4 -30 -11 -30 -16 0 -5 -11
-11 -25 -15 -14 -3 -25 -10 -25 -15 0 -5 -7 -9 -15 -9 -9 0 -18 -6 -21 -14 -3
-8 -16 -17 -30 -20 -13 -4 -24 -11 -24 -16 0 -6 -7 -10 -15 -10 -9 0 -18 -7
-21 -15 -3 -8 -15 -17 -26 -21 -12 -3 -31 -17 -43 -30 -12 -13 -26 -24 -32
-24 -5 0 -20 -13 -33 -30 -14 -16 -30 -29 -37 -30 -7 0 -27 -16 -46 -35 -19
-19 -37 -35 -42 -35 -4 0 -32 -25 -61 -55 -30 -30 -58 -55 -63 -55 -13 0 -281
-269 -281 -281 0 -6 -11 -20 -25 -33 -14 -13 -28 -37 -31 -55 -6 -26 -11 -31
-35 -31 -16 0 -29 -4 -29 -9 0 -4 -16 -11 -35 -14 -23 -4 -46 -17 -63 -36 -14
-17 -32 -31 -39 -31 -7 0 -13 -4 -13 -10 0 -5 -18 -13 -40 -16 -22 -4 -40 -10
-40 -15 0 -4 -16 -11 -35 -15 -19 -3 -35 -10 -35 -15 0 -5 -18 -12 -40 -15
-22 -4 -40 -10 -40 -15 0 -4 -15 -10 -32 -12 -18 -2 -8 -3 21 -2 30 1 57 7 59
13 2 6 19 14 38 18 19 3 34 10 34 14 0 5 18 11 40 15 22 4 40 11 40 16 0 5 18
12 41 15 29 5 44 13 51 29 5 12 29 32 53 44 48 24 121 27 290 11 98 -9 663
-23 1373 -35 563 -9 1090 -24 1176 -34 76 -9 81 -11 113 -49 26 -31 48 -45 96
-60 76 -24 288 -43 458 -41 69 1 131 -1 137 -5 17 -10 15 -92 -3 -151 -9 -27
-13 -59 -11 -71 11 -43 144 -58 239 -27 100 33 177 142 177 250 0 79 3 82 75
72 33 -5 127 -13 208 -19 151 -10 221 -22 241 -43 7 -7 17 -28 24 -47 l12 -35
-6 39 c-6 43 -30 86 -48 86 -6 0 -11 13 -12 29 -1 16 -8 37 -18 46 -9 9 -16
23 -16 31 0 8 -4 14 -10 14 -5 0 -13 12 -16 28 -4 15 -13 32 -19 37 -7 6 -49
66 -95 135 -46 69 -87 127 -91 128 -5 2 -9 8 -9 13 0 6 -5 15 -10 22 -22 25
-140 188 -140 193 0 2 -8 12 -17 23 -17 17 -36 41 -85 106 -12 17 -27 35 -33
41 -5 6 -23 28 -40 49 -16 21 -38 46 -47 56 -10 11 -18 21 -18 23 0 4 -57 68
-124 140 -21 22 -34 32 -28 21 6 -11 30 -41 54 -66 51 -55 116 -129 126 -145
8 -13 65 -82 100 -122 12 -13 22 -28 22 -31 0 -3 13 -20 28 -37 15 -18 34 -42
42 -54 8 -12 36 -51 63 -87 26 -35 47 -66 47 -69 0 -3 6 -12 13 -19 24 -27 34
-42 160 -231 70 -104 127 -194 127 -198 0 -4 7 -14 15 -22 21 -21 19 -44 -5
-44 -18 0 -70 46 -70 63 0 7 -37 64 -50 77 -3 3 -14 22 -25 44 -11 21 -26 40
-32 43 -7 3 -13 9 -13 14 0 12 -42 73 -52 77 -5 2 -8 8 -8 13 0 6 -5 15 -10
22 -37 43 -230 310 -230 317 0 4 -4 10 -9 12 -5 2 -32 34 -61 72 -29 37 -60
76 -69 85 -9 10 -41 48 -71 85 -30 38 -71 85 -90 105 -19 20 -66 73 -105 116
-38 44 -77 86 -85 95 -32 34 -43 66 -30 91 17 33 80 88 107 95 13 4 23 10 23
14 0 15 41 18 54 4 18 -18 27 -18 20 0 -4 10 15 15 88 20 51 3 152 10 223 15
161 12 1155 12 1325 0 69 -5 211 -13 315 -19 105 -6 199 -15 210 -20 11 -5 70
-11 130 -15 61 -3 124 -10 140 -15 17 -5 74 -12 128 -16 53 -3 97 -9 97 -13 0
-7 89 -20 150 -23 8 -1 17 -4 20 -7 6 -8 86 -26 185 -43 39 -6 72 -15 75 -18
3 -4 23 -10 45 -13 22 -3 32 -3 23 -1 -10 3 -18 9 -18 14 0 5 -22 12 -50 16
-27 4 -50 10 -50 14 0 5 -27 11 -60 15 -33 4 -60 10 -60 15 0 4 -34 11 -75 15
-41 4 -75 10 -75 15 0 4 -41 11 -90 15 -50 4 -92 11 -95 15 -3 4 -42 11 -87
15 -46 4 -85 11 -88 15 -3 4 -50 10 -105 14 -55 4 -102 11 -105 16 -3 4 -56
11 -117 15 -62 4 -113 11 -113 15 0 4 -60 11 -132 15 -73 4 -135 11 -138 15
-3 5 -84 11 -180 15 -96 4 -177 11 -180 16 -3 4 -118 11 -255 15 -138 4 -252
10 -255 14 -6 9 -791 17 -1147 13z m450 -1061 c97 -53 130 -85 197 -188 31
-50 50 -90 50 -109 0 -41 -31 -125 -51 -135 -17 -10 -430 4 -579 20 -52 5
-138 10 -190 10 -52 0 -144 7 -205 15 -60 8 -113 15 -117 15 -5 0 -8 12 -8 26
0 26 1 27 48 20 26 -4 139 -11 252 -16 113 -5 243 -14 290 -20 47 -5 119 -10
160 -10 41 0 106 -5 144 -10 45 -7 73 -7 79 -1 33 33 -78 62 -318 86 -225 22
-290 32 -338 54 -50 22 -158 43 -227 44 -28 0 -50 3 -50 5 0 16 44 71 65 82
14 7 25 17 25 22 0 4 5 8 11 8 7 0 30 8 53 19 23 10 64 24 91 31 46 12 74 17
220 39 28 5 121 9 208 10 133 1 162 -2 190 -17z"/>
<path d="M13935 10513 c-132 -7 -280 -17 -329 -23 -59 -6 -95 -6 -108 1 -10 6
-42 9 -70 7 l-51 -3 49 -52 c108 -115 131 -140 183 -203 29 -36 57 -66 62 -68
5 -2 9 -8 9 -13 0 -6 10 -20 23 -32 28 -28 97 -113 97 -121 0 -3 8 -14 18 -24
27 -29 55 -65 74 -93 9 -14 24 -33 32 -42 27 -27 86 -107 86 -116 0 -5 4 -11
9 -13 5 -1 32 -34 62 -73 29 -38 58 -75 64 -82 5 -7 15 -18 20 -25 84 -107
121 -148 130 -148 3 0 16 -11 29 -25 12 -13 33 -29 47 -35 13 -6 43 -21 67
-34 23 -14 57 -28 74 -31 18 -4 38 -13 45 -21 8 -7 19 -11 27 -8 7 3 64 6 127
7 63 2 195 8 294 15 438 30 526 35 800 43 525 17 573 21 627 53 26 15 51 32
54 38 16 26 -240 -29 -257 -55 -4 -6 -36 -7 -80 -3 -41 4 -99 10 -129 12 -30
3 -66 9 -80 14 -32 11 -280 18 -280 8 0 -4 -25 -8 -56 -8 -43 0 -60 4 -70 17
-7 10 -16 14 -20 10 -5 -4 -2 -12 6 -17 13 -8 12 -10 -2 -10 -9 0 -18 5 -20
11 -5 15 -48 -10 -48 -28 0 -38 -56 -23 -65 17 -4 17 -10 30 -15 30 -5 0 -11
14 -15 30 -4 17 -10 30 -15 30 -4 0 -11 11 -14 25 -4 14 -11 25 -16 25 -6 0
-10 9 -10 19 0 11 -4 22 -9 25 -5 4 -19 26 -31 51 -12 25 -27 51 -34 58 -6 7
-22 34 -36 60 -13 26 -28 47 -31 47 -4 0 -10 11 -13 25 -4 14 -11 25 -16 25
-6 0 -10 7 -10 15 0 9 -7 18 -15 21 -8 4 -15 12 -15 19 0 8 -7 20 -15 28 -22
22 -3 25 100 16 133 -11 357 -11 393 2 29 10 30 11 14 30 -9 10 -22 19 -29 19
-7 0 -13 7 -13 15 0 8 -8 15 -19 15 -28 0 -40 21 -43 78 -3 56 -5 58 -73 64
-16 2 -28 8 -25 13 3 6 14 9 25 8 11 -1 61 -7 110 -13 108 -14 169 -9 195 15
18 16 33 17 142 11 68 -4 143 -11 168 -16 25 -5 79 -9 122 -10 71 0 83 -3 175
-50 54 -27 104 -50 111 -50 6 0 12 -4 12 -10 0 -5 6 -10 14 -10 8 0 36 -11 63
-24 26 -13 66 -32 88 -41 76 -34 500 -246 530 -265 17 -11 42 -25 58 -31 15
-6 27 -15 27 -20 0 -5 5 -9 11 -9 13 0 232 -143 269 -176 14 -12 47 -41 75
-65 27 -24 57 -54 67 -65 14 -18 33 -23 110 -29 51 -4 104 -9 118 -11 14 -1
66 -7 115 -12 50 -6 101 -13 115 -16 14 -4 79 -11 145 -16 66 -5 157 -14 202
-21 72 -10 87 -9 115 4 20 10 26 17 16 17 -10 0 -18 5 -18 10 0 6 -11 10 -25
10 -14 0 -28 6 -31 14 -3 8 -19 18 -35 21 -16 4 -29 11 -29 16 0 5 -11 11 -24
15 -14 3 -27 12 -30 20 -3 8 -10 14 -17 14 -6 0 -9 -7 -5 -15 3 -8 3 -15 0
-15 -11 0 -179 104 -182 112 -2 4 -10 8 -17 8 -8 0 -20 6 -27 13 -15 13 -17
14 -123 78 -38 23 -72 45 -75 49 -3 4 -12 10 -20 13 -8 4 -27 15 -42 25 -15 9
-60 37 -100 61 -40 25 -74 48 -76 53 -2 4 -8 8 -12 8 -9 0 -131 69 -140 79 -3
3 -25 16 -50 29 -65 33 -154 84 -160 91 -3 3 -23 15 -45 26 -22 11 -42 23 -45
26 -3 4 -16 10 -30 14 -14 4 -27 11 -30 15 -5 7 -15 12 -107 60 -26 14 -50 28
-53 32 -3 3 -18 10 -33 13 -15 4 -27 10 -27 14 0 4 -24 18 -54 32 -35 15 -51
28 -46 34 6 7 -2 11 -25 11 -40 0 -55 11 -35 25 12 9 12 10 -3 5 -10 -3 -30
-3 -43 0 -21 5 -23 9 -12 22 11 13 9 14 -17 8 -21 -5 -26 -4 -15 3 25 17 5 23
-86 27 -48 2 -110 10 -138 18 -28 8 -76 22 -107 30 -31 9 -66 16 -78 16 -13 0
-50 7 -84 14 -458 108 -1523 163 -2292 119z m1665 -65 c74 -7 140 -16 145 -19
6 -4 56 -10 113 -14 56 -4 105 -11 108 -16 3 -5 23 -9 45 -9 21 0 39 -4 39
-10 0 -13 -21 -13 -109 4 -85 16 -117 11 -74 -11 15 -8 42 -15 58 -15 17 -1
24 -3 18 -5 -15 -5 -17 -33 -3 -33 6 0 10 -7 10 -16 0 -8 5 -12 10 -9 14 9 30
-3 24 -19 -3 -8 -29 -13 -78 -14 -65 -2 -76 0 -100 23 -15 14 -32 25 -38 25
-6 0 -41 14 -77 32 -36 17 -76 32 -88 34 -11 1 -47 9 -80 18 -81 21 -190 43
-243 51 -82 11 -115 17 -120 22 -8 8 296 -5 440 -19z m-750 -379 c0 -6 14 -28
30 -49 17 -21 30 -42 30 -47 0 -6 9 -18 20 -28 11 -10 20 -24 20 -32 0 -7 5
-13 10 -13 6 0 10 -5 10 -10 0 -10 38 -69 51 -80 4 -3 9 -15 13 -26 4 -12 17
-33 31 -48 13 -14 27 -35 31 -48 3 -12 13 -28 20 -36 8 -7 14 -22 14 -33 0
-10 4 -19 10 -19 5 0 12 -11 16 -25 3 -14 10 -25 14 -25 5 0 11 -13 15 -30 4
-16 10 -30 15 -30 5 0 11 -13 15 -29 3 -16 13 -32 21 -35 8 -3 14 -17 14 -31
0 -14 5 -25 10 -25 6 0 10 -7 10 -15 0 -7 8 -19 18 -24 14 -9 10 -10 -19 -11
-28 0 -40 6 -57 30 -13 17 -27 30 -32 30 -16 0 -51 -40 -45 -50 11 -18 -52
-10 -76 9 -13 10 -30 16 -36 14 -7 -3 -13 0 -13 6 0 6 -6 8 -14 5 -9 -3 -17 6
-24 25 -10 29 -20 35 -49 32 -6 -1 -14 12 -18 29 -5 22 -11 30 -21 26 -9 -4
-18 3 -24 17 -7 17 -9 18 -9 5 -1 -21 -16 -24 -27 -6 -4 6 -2 14 4 16 13 4 17
157 5 188 -6 16 -7 16 -15 -2 -5 -12 -6 -3 -4 26 2 25 1 35 -1 23 -6 -31 -23
-29 -23 3 0 14 -5 35 -11 46 -6 11 -13 38 -15 59 -3 33 -32 79 -50 79 -3 0
-12 7 -20 15 -9 8 -24 15 -35 15 -10 0 -19 4 -19 9 0 6 -20 13 -45 17 -44 6
-45 7 -22 19 13 7 41 15 62 19 20 4 45 11 54 16 16 8 124 36 149 39 6 0 12 -4
12 -10z m1989 -31 c25 -13 48 -26 51 -30 3 -3 18 -10 33 -13 15 -4 27 -10 27
-14 0 -4 12 -12 28 -19 32 -14 115 -62 122 -71 3 -4 16 -12 30 -19 32 -15 60
-33 78 -49 7 -7 19 -13 27 -13 7 0 15 -7 19 -15 3 -8 12 -15 21 -15 8 0 15 -4
15 -10 0 -5 11 -12 25 -16 14 -3 25 -12 25 -19 0 -8 8 -16 18 -18 13 -4 14 -5
1 -6 -8 0 -25 8 -37 19 -12 11 -24 20 -28 20 -14 0 -104 45 -104 52 0 5 -7 8
-16 8 -9 0 -30 10 -47 22 -18 13 -34 22 -37 22 -9 -2 -50 19 -50 25 0 4 -20
13 -45 20 -25 7 -45 17 -45 22 0 5 -7 9 -15 9 -8 0 -15 5 -15 10 0 6 -6 10
-13 10 -12 0 -26 9 -74 50 -7 5 -17 10 -23 10 -5 0 -10 7 -10 15 0 8 -7 15
-15 15 -8 0 -15 5 -15 10 0 15 19 12 69 -12z"/>
<path d="M8794 8985 c-3 -8 -15 -17 -26 -21 -12 -3 -31 -17 -43 -30 -12 -13
-26 -24 -30 -24 -11 0 -175 -167 -175 -179 0 -6 -4 -11 -10 -11 -5 0 -12 -11
-16 -24 -3 -14 -12 -27 -20 -30 -8 -3 -14 -12 -14 -21 0 -8 -4 -15 -9 -15 -5
0 -12 -13 -16 -30 -4 -16 -10 -30 -15 -30 -4 0 -11 -20 -14 -45 -4 -25 -11
-45 -16 -45 -4 0 -11 -27 -15 -60 -4 -33 -11 -60 -15 -60 -4 0 -11 -20 -14
-45 -4 -25 -11 -45 -16 -45 -6 0 -13 -18 -16 -40 -4 -22 -10 -40 -14 -40 -4 0
-11 -16 -14 -35 -4 -19 -11 -35 -15 -35 -5 0 -12 -20 -15 -45 -4 -25 -11 -45
-15 -45 -5 0 -11 -19 -15 -42 -4 -23 -12 -46 -19 -50 -15 -9 -15 -397 1 -407
5 -3 13 -44 17 -91 4 -47 11 -87 16 -90 5 -3 11 -56 15 -118 4 -62 10 -112 14
-112 4 0 10 -27 14 -60 4 -33 11 -60 16 -60 4 0 11 -13 15 -30 4 -16 10 -30
15 -30 5 0 11 -13 15 -30 4 -16 11 -30 16 -30 5 0 9 -5 9 -11 0 -7 23 -34 50
-61 28 -27 50 -44 50 -38 0 6 -7 13 -15 16 -8 4 -15 12 -15 18 0 7 -14 28 -30
46 -17 19 -33 45 -36 57 -4 13 -9 23 -13 23 -8 0 -45 81 -60 130 -6 19 -15 87
-21 150 -10 119 -24 222 -41 299 -11 52 -33 243 -32 286 0 41 22 157 32 170 4
5 18 45 31 88 14 42 28 77 32 77 4 0 8 8 8 18 0 9 13 49 29 88 16 38 32 84 36
102 7 35 61 96 94 107 12 3 21 15 21 26 0 10 4 19 8 19 10 0 82 96 82 109 0 5
4 11 10 13 15 5 33 117 26 165 -5 37 -2 45 25 72 17 17 36 31 42 31 7 1 23 14
37 30 13 17 30 30 37 30 7 0 13 4 13 10 0 5 11 12 25 16 14 3 25 12 25 20 0
18 -19 18 -26 -1z"/>
<path d="M11440 8799 c16 -29 5 -65 -22 -73 -13 -3 -43 -6 -68 -6 -25 0 -52
-5 -60 -10 -13 -9 -13 -10 0 -10 11 0 10 -3 -4 -11 -24 -15 -102 -6 -124 14
-11 9 -48 16 -105 20 -77 4 -88 3 -85 -11 2 -9 17 -23 33 -32 17 -8 31 -18 33
-22 7 -14 122 -68 159 -74 29 -4 53 0 91 16 29 12 52 26 52 31 0 5 6 9 13 9
14 0 45 21 83 58 19 18 24 33 24 72 0 38 -4 50 -15 50 -13 0 -14 -4 -5 -21z"/>
<path d="M17724 8325 c-5 -12 -31 -15 -143 -15 -144 -1 -274 -22 -322 -53 -38
-25 -69 -73 -69 -107 0 -54 44 -121 159 -243 44 -47 52 -60 41 -67 -11 -7 -8
-10 14 -10 18 0 42 -12 65 -32 72 -64 94 -80 155 -119 33 -21 66 -42 71 -46
11 -9 217 -110 250 -123 11 -4 38 -15 60 -23 40 -16 93 -32 195 -61 119 -33
168 -45 240 -61 41 -9 98 -23 126 -31 28 -8 59 -14 68 -14 10 0 48 -7 85 -15
190 -42 451 -90 574 -105 44 -6 98 -15 120 -20 23 -5 103 -10 177 -10 163 0
244 19 269 62 18 32 30 34 76 12 19 -8 44 -14 56 -12 21 3 22 4 6 20 -9 9 -17
19 -17 22 0 12 -108 112 -184 169 -91 70 -118 96 -151 147 -12 19 -30 41 -39
49 -9 7 -16 19 -16 26 0 7 -6 15 -12 18 -7 3 -22 22 -33 43 -11 22 -25 44 -32
49 -16 14 -83 144 -83 163 0 11 7 12 28 7 29 -8 139 -24 160 -25 33 0 -17 28
-61 34 -25 4 -49 11 -52 17 -4 5 -19 9 -35 9 -39 0 -82 18 -78 32 2 6 13 16
24 22 10 6 34 23 52 39 18 15 39 27 47 27 8 0 15 4 15 9 0 5 14 14 30 21 17 7
30 16 30 21 0 5 7 9 15 9 8 0 15 4 15 9 0 5 12 14 28 20 26 10 26 11 -7 5 -18
-3 -93 -47 -166 -96 l-134 -90 -53 15 c-52 15 -121 33 -235 61 -32 8 -85 21
-118 30 -33 8 -94 22 -135 31 -76 17 -145 33 -235 55 -27 7 -63 15 -80 17 -16
2 -59 10 -95 18 -151 32 -454 75 -530 75 -30 0 -68 7 -84 15 -36 19 -45 19
-52 0z m96 -95 c200 -15 514 -71 790 -140 55 -13 153 -38 200 -49 157 -38 274
-82 387 -145 36 -20 106 -78 158 -132 56 -57 115 -124 115 -130 0 -2 6 -12 14
-21 32 -39 136 -183 136 -189 0 -3 7 -12 15 -20 19 -20 19 -50 0 -58 -18 -6
-18 -7 -120 134 -72 97 -240 277 -275 293 -8 4 -28 16 -45 27 -68 44 -199 91
-257 92 -25 0 -38 5 -38 14 0 8 -4 14 -10 14 -5 0 -7 -7 -4 -15 4 -8 1 -15 -5
-15 -10 0 -15 14 -12 33 2 14 -22 7 -35 -10 -11 -16 -9 -19 19 -29 18 -7 31
-16 30 -22 -4 -18 36 -98 65 -130 6 -7 12 -17 12 -21 0 -4 20 -29 45 -55 25
-27 45 -53 45 -58 0 -13 -144 -1 -148 13 -2 5 -9 9 -15 9 -14 0 -90 74 -157
150 -66 76 -170 120 -170 73 0 -28 58 -112 113 -161 9 -9 17 -24 17 -33 0 -13
13 -18 57 -24 31 -4 68 -11 82 -17 14 -5 49 -14 76 -19 28 -6 68 -14 90 -18
l40 -8 -48 -2 c-27 0 -56 3 -65 8 -9 5 -50 12 -89 15 -40 4 -84 11 -97 16 -28
10 -170 26 -200 22 -11 -1 -38 5 -60 13 -23 8 -76 17 -119 18 -43 2 -81 8 -85
14 -4 6 -36 14 -72 18 -35 4 -72 12 -81 18 -13 8 -23 6 -42 -6 -22 -14 -24
-21 -17 -49 4 -18 13 -46 19 -61 14 -37 14 -47 -3 -47 -7 0 -21 21 -30 48 -28
76 -48 110 -99 167 -43 49 -46 55 -29 64 14 7 28 3 63 -19 24 -16 61 -32 83
-36 37 -6 38 -6 27 15 -7 11 -18 21 -26 21 -8 0 -31 21 -52 47 -59 72 -92 103
-111 103 -9 0 -22 10 -27 22 -6 13 -21 28 -35 36 -22 11 -18 12 35 7 33 -3 70
-6 82 -5 13 0 51 -7 85 -15 35 -8 81 -15 102 -15 37 0 39 -1 20 -15 -10 -8
-14 -15 -7 -15 7 0 15 -16 19 -36 6 -34 62 -118 121 -180 29 -31 69 -45 171
-59 l43 -5 -51 52 c-28 29 -65 71 -83 94 -35 45 -97 94 -120 94 -8 0 -17 9
-20 20 -7 26 -27 26 -27 0 0 -13 -5 -18 -15 -14 -17 7 -19 22 -6 42 7 11 25
12 102 2 52 -6 104 -13 117 -17 17 -4 21 -2 16 10 -7 19 29 57 45 48 12 -8 5
-41 -12 -52 -5 -3 -2 -9 7 -12 10 -4 16 -1 16 9 0 13 4 11 18 -6 15 -19 28
-22 108 -24 49 -1 94 -5 99 -8 6 -3 28 -9 50 -13 38 -7 39 -6 20 9 -17 13 -17
15 -4 16 9 0 19 6 22 14 6 15 -52 33 -153 46 -111 15 -140 22 -134 31 3 5 -5
9 -17 9 -13 0 -36 4 -53 9 -31 9 -106 25 -261 55 -44 9 -94 16 -110 16 -29 0
-122 16 -265 45 -36 7 -99 16 -140 20 -44 4 -82 13 -92 22 -12 10 -21 12 -35
5 -27 -14 -165 -3 -150 12 34 34 202 44 437 26z m-95 -120 c3 -5 2 -10 -2 -10
-5 0 -14 -9 -21 -21 -8 -12 -9 -18 -3 -14 6 3 11 -1 11 -9 0 -12 10 -16 40
-16 35 0 40 -3 40 -23 0 -23 28 -85 50 -112 26 -32 -13 -14 -63 28 -48 40 -74
58 -107 73 -8 4 -25 15 -36 24 l-22 16 29 13 c16 7 29 17 29 23 0 11 29 37 42
38 4 0 10 -4 13 -10z"/>
<path d="M22585 8159 c4 -13 11 -26 16 -29 4 -3 13 -17 18 -30 6 -14 15 -32
20 -40 21 -34 42 -92 37 -103 -3 -9 -5 -9 -5 1 -2 29 -38 51 -101 62 -36 6
-205 13 -377 17 -301 6 -465 1 -1313 -38 -124 -6 -319 -14 -435 -20 -115 -5
-228 -13 -250 -19 -22 -5 -56 -10 -76 -10 -26 0 -45 -9 -71 -32 -101 -92 -71
-253 97 -543 16 -27 33 -51 37 -53 4 -2 8 -8 8 -14 0 -25 177 -228 199 -228 5
0 11 -6 14 -12 5 -15 112 -69 177 -91 100 -34 360 -70 580 -82 58 -3 155 -10
215 -15 266 -22 442 -12 611 36 28 8 57 14 65 14 16 0 198 56 254 78 159 63
209 101 253 195 46 96 52 124 62 284 6 81 14 186 19 233 5 47 7 88 4 93 -8 13
8 47 23 47 9 0 14 12 14 38 l1 37 16 -40 c13 -32 16 -82 17 -255 0 -118 -3
-233 -7 -255 l-7 -40 35 39 c32 36 35 44 35 104 0 52 3 62 13 54 10 -9 12 7 9
86 -3 53 -8 99 -12 102 -4 3 -11 44 -15 93 -4 48 -11 87 -15 87 -5 0 -12 20
-16 45 -3 25 -10 45 -14 45 -5 0 -11 14 -15 30 -4 17 -11 30 -16 30 -5 0 -9 5
-9 11 0 7 -23 34 -51 62 -41 40 -50 46 -44 26z m-736 -311 c48 -23 111 -78
111 -97 0 -6 4 -11 8 -11 16 0 52 -100 57 -157 3 -46 3 -50 -4 -20 -4 21 -14
50 -21 65 -33 72 -55 112 -62 112 -5 0 -8 6 -8 13 0 17 -93 77 -119 77 -12 0
-21 -6 -22 -12 0 -10 -2 -10 -6 0 -2 6 -17 12 -32 12 -39 0 -108 -75 -153
-167 -36 -76 -37 -77 -31 -33 8 58 42 125 90 176 61 66 117 78 192 42z m7
-407 c22 -15 64 -58 93 -95 36 -47 57 -66 68 -62 13 5 14 -1 9 -39 -11 -69
-41 -128 -92 -178 -135 -134 -304 -48 -364 183 -16 60 -10 91 6 37 14 -44 17
-47 32 -35 9 7 22 20 29 28 6 8 26 31 43 50 18 19 44 52 57 73 14 20 30 37 34
37 5 0 9 7 9 15 0 24 33 18 76 -14z"/>
<path d="M21795 7345 c-11 -13 -26 -26 -35 -30 -16 -6 -27 -12 -97 -58 -24
-15 -48 -27 -54 -27 -13 0 -3 -53 12 -58 5 -2 9 -9 9 -16 0 -23 72 -96 108
-112 81 -33 184 27 244 142 26 52 24 74 -9 74 -7 0 -13 4 -13 9 0 5 -27 26
-60 47 -33 21 -60 42 -60 46 0 16 -26 6 -45 -17z"/>
<path d="M8986 8134 c-71 -19 -106 -38 -159 -84 -40 -36 -51 -41 -77 -35 -16
4 -30 10 -30 15 0 4 -12 10 -27 13 l-28 5 24 -17 c62 -41 64 -44 44 -66 -47
-53 -123 -194 -123 -228 0 -9 -4 -18 -9 -22 -6 -3 -13 -27 -16 -53 -3 -26 -10
-64 -16 -85 -13 -50 -28 -173 -39 -332 -12 -159 3 -390 29 -475 10 -32 16 -62
13 -65 -12 -12 -34 -4 -57 21 -14 15 -25 23 -25 18 0 -13 45 -54 59 -54 6 0
11 -17 11 -40 0 -22 4 -40 9 -40 4 0 12 -36 15 -80 4 -44 11 -80 15 -80 10 0
21 -78 14 -97 -5 -11 -9 -11 -24 3 -11 10 -22 14 -26 11 -3 -4 -2 -7 4 -7 6 0
13 -6 16 -12 3 -9 -6 -13 -27 -13 -21 0 -32 5 -34 18 -4 21 -22 23 -22 3 0
-24 -19 -29 -45 -12 -14 9 -25 12 -25 7 0 -5 -10 -13 -22 -17 -13 -4 -26 -12
-30 -18 -5 -7 -8 -4 -8 7 0 9 -4 17 -10 17 -5 0 -10 -8 -10 -17 0 -16 -2 -16
-10 -3 -9 13 -12 13 -20 -2 -7 -12 -20 -15 -50 -12 -33 3 -40 0 -40 -14 0 -15
-2 -15 -10 -2 -9 13 -12 13 -21 -2 -5 -10 -14 -18 -19 -18 -6 0 -10 8 -11 18
0 13 -2 14 -6 2 -8 -20 -29 -40 -42 -40 -5 0 -14 -7 -19 -16 -7 -13 -11 -14
-17 -4 -4 7 -2 16 6 21 7 4 10 11 6 16 -12 11 -28 -19 -23 -40 4 -18 4 -18
-14 -2 -18 16 -19 15 -22 -12 l-4 -28 -13 27 c-8 15 -20 29 -28 32 -8 3 -12 2
-8 -3 3 -5 1 -20 -4 -33 l-9 -23 -12 28 c-7 15 -18 27 -24 27 -6 0 -5 -5 2
-12 7 -7 12 -19 12 -27 0 -12 -3 -11 -18 2 -25 23 -32 21 -33 -5 -1 -17 -2
-19 -6 -5 -2 9 -9 17 -14 17 -5 0 -9 8 -10 18 0 13 -2 14 -6 2 -4 -8 -12 -21
-20 -28 -11 -11 -13 -11 -13 2 0 25 -20 19 -21 -6 -1 -17 -2 -19 -6 -5 -5 20
-19 22 -26 5 -3 -7 -6 -1 -6 15 -1 38 -21 34 -21 -5 l0 -31 -25 23 c-14 13
-28 20 -32 17 -3 -4 -1 -7 5 -7 22 0 12 -20 -13 -26 -14 -3 -25 -11 -25 -18 0
-6 -5 -4 -10 4 -7 11 -12 12 -17 4 -6 -9 -12 -7 -23 4 -13 14 -13 15 1 10 10
-4 15 0 15 12 0 28 -26 11 -33 -21 -7 -37 -20 -37 -28 1 -4 17 -10 30 -15 30
-5 0 -11 -13 -15 -30 -8 -35 -20 -39 -28 -9 -8 31 -32 17 -30 -17 1 -16 -1
-21 -4 -11 -4 15 -11 17 -31 12 l-27 -7 28 26 c31 29 32 32 11 40 -9 3 -12 2
-8 -5 3 -6 -3 -19 -15 -30 -12 -11 -21 -27 -21 -36 0 -14 -3 -14 -12 -5 -7 7
-13 20 -13 29 0 9 -7 18 -15 20 -13 4 -13 3 0 -6 10 -8 12 -13 4 -18 -6 -5
-14 -15 -17 -23 -4 -13 -6 -12 -6 1 -1 9 -8 22 -17 30 -13 11 -14 9 -8 -17 7
-27 7 -28 -10 -11 -23 23 -30 22 -23 -4 5 -20 5 -20 -14 -3 -10 9 -19 23 -19
31 0 7 -4 13 -10 13 -10 0 -14 -18 -12 -50 0 -10 -7 -6 -20 10 l-21 25 5 -30
c3 -16 3 -24 1 -17 -8 23 -45 11 -56 -18 -4 -12 -6 -11 -6 3 -1 20 -17 23 -24
5 -4 -10 -6 -10 -6 0 -1 19 -18 14 -24 -8 -3 -11 -11 -20 -19 -20 -9 0 -10 2
-1 8 18 11 21 64 3 69 -13 4 -13 3 0 -6 10 -8 12 -13 4 -18 -6 -5 -14 -15 -17
-23 -3 -9 -6 -4 -6 13 -1 38 -21 34 -22 -5 0 -18 -3 -26 -6 -18 -4 8 -13 20
-21 26 -8 6 -12 16 -8 22 5 8 2 10 -9 6 -12 -5 -13 -9 -4 -20 7 -9 8 -14 1
-14 -5 0 -13 -12 -16 -26 l-7 -27 -33 32 c-17 17 -35 31 -40 31 -4 0 0 -7 8
-16 9 -8 16 -21 16 -29 0 -7 6 -16 13 -18 9 -4 9 -6 -1 -6 -8 -1 -16 8 -19 19
-6 22 -23 27 -23 7 0 -7 -9 -20 -20 -30 -11 -9 -20 -12 -20 -7 0 6 7 13 15 16
15 6 22 54 7 54 -5 0 -13 -12 -18 -27 l-11 -28 -13 28 c-7 15 -18 27 -23 27
-6 0 -6 -5 0 -12 6 -7 13 -22 17 -33 6 -17 4 -17 -19 5 -28 26 -41 20 -47 -20
l-3 -25 -14 24 c-12 21 -11 26 3 36 18 13 22 35 6 35 -5 0 -10 -6 -10 -13 0
-7 -9 -20 -20 -30 -11 -9 -19 -27 -19 -39 l2 -23 4 23 c2 12 9 22 14 22 13 0
11 -29 -4 -44 -17 -17 -37 3 -37 38 0 33 -10 56 -23 56 -7 0 -7 -4 1 -12 14
-14 16 -108 2 -108 -5 0 -10 10 -10 23 0 32 -11 67 -20 67 -5 0 -11 -14 -15
-31 -7 -31 -31 -36 -29 -5 2 20 0 20 -22 -1 -17 -17 -17 -16 -10 11 6 26 6 27
-9 12 -14 -13 -14 -20 -5 -31 24 -29 4 -35 -23 -7 -26 27 -27 31 -12 46 9 9
13 16 8 16 -16 0 -43 -38 -30 -43 8 -3 6 -9 -6 -19 -10 -7 -18 -18 -17 -23 2
-6 2 -17 1 -25 -1 -12 -5 -11 -16 4 -8 11 -12 31 -10 45 3 14 2 19 -2 11 -3
-8 -12 -21 -20 -28 -7 -7 -13 -19 -13 -27 0 -7 -6 -15 -12 -18 -7 -2 0 -4 15
-4 20 0 25 3 18 10 -14 14 -14 27 -1 27 6 0 10 -7 10 -15 0 -9 7 -18 15 -21 8
-4 15 -11 15 -16 0 -7 -4 -7 -13 0 -10 8 -13 2 -13 -28 -1 -22 -9 -46 -18 -56
-16 -15 -17 -15 -10 12 4 16 11 31 16 32 14 6 9 29 -9 43 -14 12 -16 12 -11
-2 8 -20 -6 -46 -16 -30 -4 6 -2 11 5 11 8 0 6 7 -5 19 -11 13 -15 27 -11 40
8 26 -2 61 -18 61 -8 0 -8 -3 1 -12 15 -15 16 -48 2 -48 -13 0 -13 -47 0 -53
6 -3 5 -4 -2 -3 -7 1 -14 15 -16 29 -3 28 -17 36 -25 15 -5 -18 3 -48 14 -48
5 0 9 -5 9 -11 0 -8 -5 -7 -16 2 -13 11 -14 9 -9 -13 5 -19 2 -29 -12 -38 -12
-8 -14 -13 -6 -16 7 -3 15 -21 19 -40 8 -43 22 -44 26 -2 2 17 9 33 16 34 7 1
8 0 2 -3 -12 -6 -13 -30 -1 -35 4 -1 11 -14 15 -28 3 -14 3 -19 0 -12 -3 6
-10 12 -16 12 -7 0 -6 -5 2 -14 13 -17 37 -11 42 10 2 10 7 11 18 4 13 -9 13
-12 -2 -21 -10 -5 -18 -21 -18 -34 0 -13 -5 -26 -10 -28 -6 -3 -5 -4 2 -3 7 1
15 13 16 26 2 13 11 30 20 36 15 11 15 14 -2 33 -24 27 -13 28 14 1 22 -22 25
-37 10 -42 -6 -2 3 -17 20 -33 18 -17 28 -23 25 -13 -4 9 -13 19 -21 22 -20 8
-17 23 6 29 11 3 27 -1 35 -10 22 -22 18 -29 -5 -8 -11 10 -20 14 -20 9 0 -5
8 -17 18 -25 15 -13 20 -13 30 -3 15 16 15 31 2 37 -6 3 -5 4 2 3 17 -4 15
-76 -3 -87 -10 -6 -11 -11 -3 -19 9 -9 13 -4 18 15 9 34 41 69 55 60 6 -3 11
-19 11 -36 0 -16 5 -29 10 -29 6 0 10 10 10 22 0 21 0 21 14 2 8 -10 10 -20 5
-22 -12 -5 -12 -32 1 -32 6 0 10 7 10 15 0 7 6 18 14 22 7 4 15 13 17 20 3 9
9 9 19 3 11 -7 12 -12 4 -17 -9 -6 -7 -12 4 -23 14 -13 15 -12 9 2 -5 13 0 16
24 16 29 -1 40 -22 17 -31 -10 -4 -10 -6 0 -6 8 -1 16 8 19 19 8 30 21 24 26
-12 3 -29 4 -27 5 10 2 49 17 56 27 12 8 -34 24 -40 32 -10 3 11 9 20 14 20 5
0 9 -9 9 -20 0 -11 -4 -20 -9 -20 -19 0 -19 -29 0 -46 18 -16 19 -16 13 -1 -3
9 -11 17 -16 17 -6 0 -5 7 2 15 12 14 15 14 30 0 15 -14 18 -13 33 3 10 10 17
24 17 30 0 7 5 12 10 12 6 0 10 -6 10 -14 0 -7 6 -19 14 -26 8 -6 17 -19 19
-28 2 -9 3 -5 1 11 l-4 27 36 -32 c20 -19 32 -38 29 -46 -5 -12 -3 -13 10 -2
9 8 12 16 6 19 -5 4 -4 14 5 25 14 19 14 19 14 -2 0 -12 5 -22 10 -22 6 0 10
7 10 16 0 14 3 14 15 4 13 -11 13 -15 3 -22 -10 -7 -10 -9 2 -5 8 2 14 12 12
22 -3 15 0 14 19 -4 13 -12 28 -21 33 -20 6 0 6 3 -1 6 -10 3 -10 7 0 17 9 11
14 10 26 -1 8 -8 22 -13 31 -10 10 3 22 2 27 -2 15 -11 44 -61 34 -61 -5 0
-12 -8 -16 -17 -3 -10 10 -3 29 16 27 26 36 31 36 18 0 -9 5 -17 10 -17 6 0
10 7 10 16 0 14 3 14 15 4 11 -9 12 -15 5 -20 -7 -5 -6 -11 5 -20 13 -11 15
-10 10 3 -11 26 15 30 41 6 20 -19 24 -20 24 -6 0 23 7 21 35 -8 15 -17 25
-21 27 -14 5 14 41 -17 51 -42 4 -12 6 -12 6 0 1 8 -6 23 -16 33 -9 10 -11 18
-5 18 6 0 12 -5 14 -11 2 -6 16 -11 30 -11 17 0 28 -7 31 -19 3 -11 11 -19 17
-19 9 0 10 3 1 14 -9 11 -7 15 11 19 27 8 38 1 38 -24 0 -25 17 -25 25 1 8 24
25 27 25 4 0 -8 5 -12 10 -9 16 10 48 -4 53 -23 4 -16 5 -16 6 1 1 22 6 22 32
-4 17 -17 19 -23 8 -30 -8 -5 -9 -9 -4 -9 6 0 19 10 30 22 12 15 20 18 23 10
6 -20 22 -13 23 11 0 15 2 17 6 7 3 -8 11 -18 17 -22 8 -6 6 -11 -4 -18 -11
-7 -12 -10 -2 -10 8 0 16 9 19 20 9 33 23 23 24 -17 1 -22 4 -29 6 -16 5 28
33 53 33 29 0 -12 8 -15 40 -12 22 2 43 0 46 -6 3 -5 12 -7 20 -4 8 3 14 -1
14 -10 0 -10 6 -14 15 -10 10 4 15 -1 15 -14 0 -11 5 -20 10 -20 14 0 13 33
-2 48 -8 8 -8 12 -1 12 6 0 14 -7 17 -16 3 -9 12 -14 19 -11 8 3 19 -4 26 -15
12 -19 13 -19 32 -2 18 16 19 16 19 -1 0 -11 5 -15 14 -12 11 4 13 1 9 -11 -6
-14 -5 -15 9 -2 11 11 13 19 6 28 -7 8 -7 12 0 12 5 0 13 -7 16 -16 3 -9 13
-14 21 -10 8 3 21 -2 30 -10 13 -14 15 -14 15 1 0 9 6 15 13 12 6 -2 11 -17
10 -33 -2 -26 -2 -27 7 -8 11 28 30 40 30 20 0 -20 19 -21 26 -1 4 8 10 15 15
15 5 0 9 -7 9 -15 0 -8 -5 -15 -11 -15 -5 0 -7 -5 -4 -11 5 -6 12 -4 20 8 13
17 14 17 34 -1 12 -11 21 -14 21 -8 0 6 -6 13 -12 15 -10 4 -10 6 0 6 8 1 16
-8 19 -19 6 -24 23 -27 23 -4 0 14 2 14 16 3 10 -8 12 -15 5 -17 -14 -5 -15
-32 -1 -32 10 0 13 14 12 55 -1 17 0 17 4 3 6 -21 24 -24 24 -5 0 9 2 9 8 0 4
-6 20 -15 35 -18 21 -6 27 -4 27 9 0 9 5 16 10 16 6 0 10 -6 10 -14 0 -7 6
-19 14 -25 10 -9 15 -8 20 4 3 8 11 15 18 14 10 0 10 -2 1 -6 -7 -2 -13 -11
-13 -18 0 -18 40 -16 63 3 15 13 17 13 17 -1 0 -10 -4 -17 -10 -17 -5 0 -10
-7 -10 -15 0 -22 17 -18 23 5 6 24 27 27 27 4 0 -14 2 -14 15 0 17 17 41 12
49 -10 6 -17 45 -10 59 10 4 6 5 -2 1 -19 l-7 -30 23 20 23 20 -5 -22 c-4 -16
-2 -20 8 -16 8 3 14 11 14 19 0 8 6 11 16 7 11 -4 14 -13 9 -30 l-6 -25 25 27
c22 23 25 24 34 9 8 -14 11 -15 23 -1 12 13 17 12 36 -9 20 -22 23 -23 32 -6
9 15 10 15 11 1 0 -27 28 -30 46 -6 16 22 16 22 10 -11 -5 -30 -4 -32 9 -18
17 16 45 11 45 -8 0 -8 3 -8 8 0 18 27 45 25 73 -6 15 -16 30 -26 33 -21 4 5
1 11 -5 13 -7 2 -5 9 5 17 14 11 16 11 16 -3 0 -20 19 -21 26 -1 4 8 11 15 16
15 7 0 7 -4 1 -12 -6 -7 -13 -22 -16 -33 l-7 -20 17 20 c10 11 25 19 33 19 8
-1 20 -2 26 -3 7 0 14 -10 17 -21 3 -11 11 -20 19 -19 10 0 10 2 1 6 -15 5
-18 33 -4 33 5 0 12 -7 15 -16 4 -10 13 -13 26 -9 12 4 27 2 34 -4 9 -8 22 -8
38 -2 27 10 42 4 51 -19 4 -12 6 -11 6 3 1 18 21 25 21 7 0 -12 27 -13 32 -1
2 5 10 2 18 -7 13 -14 12 -15 -5 -8 -16 6 -17 5 -8 -5 10 -10 16 -9 28 1 12
10 19 10 27 2 7 -7 17 -12 23 -12 5 0 3 5 -5 10 -9 6 -10 10 -3 10 6 0 15 -5
18 -11 4 -6 13 -8 21 -5 8 3 14 -1 14 -9 0 -8 5 -15 10 -15 6 0 10 8 10 17 0
14 4 13 25 -7 17 -16 28 -20 37 -13 21 16 58 14 58 -3 0 -14 2 -14 15 0 18 18
42 12 48 -12 4 -15 5 -15 6 1 1 19 17 23 23 6 2 -6 16 -11 31 -11 17 0 27 -6
27 -15 0 -12 3 -11 16 2 14 13 19 14 25 3 7 -10 11 -10 21 0 16 16 28 15 28
-3 0 -8 6 -15 13 -16 58 -4 69 -7 79 -19 8 -13 9 -13 5 1 -4 12 1 15 20 13 14
-1 29 -8 33 -14 6 -9 9 -9 13 1 5 12 7 12 15 0 15 -22 150 -23 155 -2 4 13 5
13 6 -1 0 -10 6 -18 12 -18 8 0 8 -5 -1 -15 -9 -11 -9 -15 -1 -15 6 0 14 6 17
14 9 23 32 27 50 8 20 -20 74 -23 74 -4 0 20 17 14 23 -9 4 -16 10 -19 28 -14
14 5 25 2 30 -6 7 -11 9 -10 9 4 0 25 20 21 21 -5 1 -17 2 -19 6 -5 5 19 19
23 25 7 2 -6 14 -11 28 -12 14 -1 31 -6 38 -11 8 -6 17 -5 27 3 12 10 18 10
31 -1 13 -10 17 -10 25 2 7 11 9 11 9 0 0 -7 6 -11 14 -8 8 3 20 0 26 -8 11
-14 50 -9 50 6 0 5 5 9 12 9 6 0 4 -7 -5 -18 -20 -22 -23 -39 -3 -20 17 18 95
15 107 -3 6 -10 9 -11 9 -1 0 18 18 15 23 -5 4 -17 5 -17 6 0 1 20 17 23 24 5
4 -10 6 -10 6 0 1 17 21 15 21 -3 0 -8 6 -12 14 -9 8 3 16 -2 19 -13 4 -15 5
-15 6 -1 1 13 9 15 43 12 23 -2 48 -10 57 -17 17 -14 51 -12 51 4 0 5 5 9 10
9 6 0 10 -7 10 -16 0 -8 5 -12 10 -9 6 4 17 2 24 -4 9 -8 22 -8 38 -2 27 10
42 4 51 -19 4 -12 6 -11 6 3 1 20 17 23 24 5 4 -10 6 -10 6 0 1 18 19 15 23
-5 3 -15 5 -15 18 -1 14 13 17 13 30 0 13 -14 12 -15 -5 -8 -16 6 -18 5 -7 -5
9 -10 15 -10 24 -1 17 17 25 15 31 -8 3 -11 10 -20 17 -20 7 0 14 9 17 20 7
26 23 26 23 1 0 -24 15 -35 33 -24 21 13 64 9 63 -6 -2 -21 22 -25 27 -4 4 15
5 14 6 -3 0 -12 9 -28 18 -35 12 -10 15 -10 9 -1 -9 15 2 52 16 52 7 0 7 -4 0
-12 -7 -9 -6 -17 4 -26 12 -11 14 -10 14 3 0 31 20 14 21 -17 0 -18 3 -26 6
-18 8 18 33 44 33 33 0 -4 10 -14 21 -22 18 -11 23 -11 30 1 6 9 9 7 9 -9 0
-27 17 -31 23 -5 4 13 5 11 6 -5 1 -28 17 -30 26 -3 3 11 11 20 17 20 6 0 5
-6 -2 -16 -11 -12 -11 -17 1 -29 12 -11 16 -11 29 3 13 14 12 15 -5 8 -15 -5
-17 -4 -8 5 15 15 33 3 33 -22 0 -27 20 -24 21 4 0 13 3 16 6 8 7 -16 40 -51
50 -51 3 0 -2 9 -12 20 -10 11 -15 23 -12 27 4 3 7 1 7 -5 0 -7 5 -12 12 -12
6 0 20 -7 30 -17 11 -10 18 -12 18 -4 0 6 -7 14 -15 17 -8 4 -15 12 -15 20 0
22 17 16 23 -7 5 -18 11 -20 32 -15 22 6 28 3 32 -14 6 -23 14 -25 31 -8 9 9
15 9 24 0 17 -17 26 -15 32 6 3 9 4 3 2 -14 -1 -23 1 -31 11 -27 7 3 13 13 14
22 0 12 2 12 6 2 3 -7 14 -22 25 -33 17 -17 22 -18 29 -7 5 8 7 22 5 32 -4 15
-2 16 10 6 8 -6 14 -21 15 -33 0 -14 2 -16 6 -6 14 35 28 37 55 10 20 -20 24
-30 15 -39 -6 -6 -8 -11 -4 -11 12 0 49 41 42 48 -3 4 -11 0 -16 -8 -9 -13
-10 -13 -7 -1 7 25 27 24 37 -2 12 -31 34 -47 29 -22 -2 10 4 20 12 22 13 4
13 3 0 -6 -11 -9 -4 -10 28 -6 38 4 45 2 49 -15 7 -26 19 -26 26 1 6 23 28 22
35 -2 3 -12 2 -12 -7 1 -5 8 -13 11 -18 7 -4 -5 -3 -11 3 -15 6 -4 14 -14 17
-22 4 -11 6 -11 6 4 1 12 6 16 16 12 8 -3 15 -1 15 4 0 21 20 9 21 -12 1 -17
2 -19 6 -5 6 25 23 21 23 -5 0 -18 2 -20 9 -9 8 12 12 13 26 1 12 -10 19 -10
27 -2 17 17 26 15 31 -5 2 -10 3 -5 2 11 -2 29 -2 29 14 10 9 -12 21 -19 27
-17 6 2 14 -5 17 -17 7 -26 27 -26 34 0 7 25 14 25 36 0 13 -16 21 -18 43 -10
29 11 44 6 44 -16 0 -27 20 -14 21 14 1 18 3 21 6 9 3 -11 11 -16 19 -13 8 3
14 -1 14 -9 0 -22 18 -18 25 5 8 26 22 26 30 0 8 -24 25 -27 25 -4 0 14 3 14
15 4 13 -11 13 -15 3 -22 -8 -5 -1 -6 17 -2 27 7 29 6 16 -9 -9 -11 -10 -17
-2 -17 6 0 11 5 11 10 0 16 51 33 64 20 15 -15 24 -12 29 8 3 11 5 8 6 -9 0
-15 7 -29 15 -32 8 -3 13 1 12 10 0 9 5 18 12 20 6 3 12 -3 12 -13 0 -16 1
-16 20 1 19 18 20 17 20 -3 0 -12 5 -22 10 -22 6 0 10 8 10 18 0 10 3 13 8 6
11 -17 49 -26 57 -14 11 17 25 11 26 -12 1 -15 3 -17 6 -7 3 11 16 16 46 16
23 0 36 -2 30 -4 -15 -5 -17 -23 -4 -23 5 0 13 9 16 20 8 25 25 26 25 2 0 -11
7 -18 20 -18 11 0 19 5 17 11 -7 17 48 11 66 -7 10 -9 25 -14 37 -11 17 4 19
2 13 -13 -6 -18 -6 -18 10 -2 10 9 25 15 35 12 15 -5 15 -4 2 6 -13 10 -12 11
3 6 10 -3 22 -6 27 -6 5 0 11 -8 13 -17 4 -14 5 -12 6 5 1 21 21 33 21 12 0
-5 6 -7 14 -4 8 3 16 -3 19 -15 3 -12 11 -21 19 -21 8 0 9 3 2 8 -7 5 -6 15 3
32 l13 25 0 -27 c0 -31 16 -38 23 -10 4 16 5 16 6 0 1 -22 17 -23 25 -3 3 8
10 15 16 15 5 0 10 -7 10 -15 0 -8 -5 -15 -12 -15 -6 0 -8 -3 -5 -6 4 -4 13
-1 22 6 10 8 19 9 28 3 13 -11 60 -10 95 1 11 4 23 2 27 -4 10 -16 22 -12 28
10 3 11 11 20 19 19 10 0 10 -2 1 -6 -15 -6 -18 -53 -3 -53 6 0 10 7 10 15 0
8 6 12 14 9 8 -3 16 2 19 13 3 12 5 9 6 -9 1 -32 9 -35 26 -11 12 16 14 16 40
-1 27 -18 28 -18 22 0 -6 15 -3 14 13 -5 20 -23 20 -23 20 -2 0 12 5 21 10 21
6 0 10 -6 10 -13 0 -8 9 -22 20 -32 11 -10 20 -13 20 -7 0 6 -8 16 -17 22 -15
9 -14 10 7 4 14 -4 33 -7 43 -8 10 -1 22 -7 26 -15 7 -11 14 -9 33 11 19 21
25 23 36 12 6 -7 19 -11 27 -8 10 4 15 0 15 -11 0 -9 5 -13 10 -10 6 4 17 1
25 -5 12 -10 18 -10 30 0 12 10 18 10 30 0 12 -10 19 -10 27 -2 17 17 26 15
33 -8 3 -11 11 -20 17 -20 6 0 6 6 -2 15 -8 9 -8 15 -2 15 6 0 13 8 15 18 4
13 5 11 6 -5 1 -25 11 -29 29 -11 8 8 15 8 26 -1 8 -7 20 -10 26 -6 5 3 10 -1
10 -9 0 -9 5 -16 10 -16 9 0 14 14 11 32 0 4 6 5 14 2 8 -4 15 -16 15 -28 0
-16 2 -18 9 -7 5 8 14 10 22 6 9 -6 11 -3 6 11 -6 15 -3 14 13 -5 11 -13 20
-18 20 -11 0 7 7 10 16 6 12 -5 15 -2 10 10 -5 14 -4 15 9 4 8 -7 16 -22 16
-34 1 -17 2 -18 6 -3 2 10 10 17 16 16 25 -3 36 2 40 19 4 13 5 13 6 -4 0 -12
9 -28 18 -35 15 -12 16 -12 10 3 -4 12 -2 15 9 11 9 -3 14 1 14 13 0 12 7 7
18 -16 15 -31 17 -33 20 -12 4 26 19 29 25 5 4 -17 5 -17 6 0 1 21 19 23 27 3
9 -22 32 -27 49 -10 8 9 15 11 15 5 0 -18 18 -12 23 7 4 13 5 11 6 -5 1 -26
21 -32 21 -7 0 13 2 13 13 2 8 -7 17 -20 20 -28 4 -8 5 1 2 20 -3 19 -2 28 2
20 9 -22 26 -31 35 -17 5 8 15 4 33 -13 l27 -25 -5 25 c-2 14 -2 19 0 12 3 -8
11 -11 18 -8 7 2 21 -4 31 -15 9 -10 21 -19 26 -19 5 0 2 7 -6 16 -9 8 -15 23
-15 32 1 15 2 15 6 -1 4 -14 12 -16 44 -12 30 4 44 0 59 -15 15 -15 20 -16 20
-5 0 7 -8 19 -17 24 -10 6 -13 11 -7 11 6 0 19 -9 29 -20 10 -11 22 -17 27
-14 5 3 15 0 23 -6 12 -10 18 -10 31 1 13 10 17 10 25 -2 5 -8 9 -17 9 -21 0
-5 5 -8 11 -8 8 0 8 4 2 13 -6 6 -13 21 -17 31 -6 18 -5 19 11 4 10 -8 24 -13
31 -11 6 3 12 0 12 -5 0 -14 52 -6 61 10 6 9 9 4 9 -14 0 -33 15 -37 23 -8 4
17 11 19 31 14 17 -4 26 -2 26 6 0 7 6 6 15 -4 16 -15 45 -12 45 5 0 10 12 1
51 -34 20 -18 20 -18 17 4 -4 29 22 38 29 10 6 -25 23 -28 23 -4 0 15 2 15 19
-1 11 -10 20 -13 22 -7 6 17 51 18 56 1 4 -13 3 -13 -6 0 -5 8 -13 11 -18 7
-10 -11 17 -27 34 -20 7 3 13 12 13 21 0 13 3 12 20 -3 18 -16 20 -16 20 -2 0
24 17 21 23 -3 3 -11 11 -20 19 -20 10 0 11 2 0 9 -10 6 -10 10 3 21 12 10 15
10 15 -4 0 -19 16 -21 23 -4 4 10 6 10 6 1 1 -19 21 -16 21 3 0 14 3 14 15 4
13 -11 13 -15 3 -21 -11 -7 -10 -9 0 -9 8 0 16 9 19 20 6 24 23 27 23 4 0 -8
5 -12 11 -8 6 3 15 0 20 -7 6 -10 9 -8 9 9 0 12 5 22 10 22 6 0 10 -7 10 -16
0 -8 5 -12 10 -9 6 4 17 1 25 -5 12 -10 18 -10 30 0 12 10 18 10 30 0 12 -10
18 -10 30 0 12 10 18 10 30 0 18 -15 38 -3 30 18 -5 13 -2 13 14 -2 12 -11 17
-24 13 -34 -5 -14 -4 -15 10 -2 11 11 12 17 4 22 -16 11 -2 10 28 -2 18 -7 29
-6 38 4 11 10 16 11 25 0 15 -15 53 -7 53 12 0 8 5 14 10 14 6 0 10 -10 10
-22 0 -18 2 -20 9 -9 7 11 13 12 23 4 13 -10 75 -10 85 1 4 3 3 9 -1 13 -4 4
-11 1 -16 -7 -6 -9 -10 -10 -10 -3 0 21 23 26 36 8 17 -23 120 -28 141 -7 11
11 13 11 13 -2 0 -18 15 -21 25 -6 3 5 23 7 43 4 97 -13 104 -13 109 7 7 26
21 24 25 -3 3 -21 4 -21 21 -4 15 15 17 15 17 2 0 -9 5 -16 10 -16 6 0 10 7
10 16 0 13 6 11 25 -10 25 -27 46 -37 25 -11 -16 19 -5 34 12 17 17 -17 28
-15 28 6 0 13 2 14 9 4 12 -19 90 -22 107 -4 12 11 14 11 14 -3 0 -12 5 -15
23 -9 12 4 25 12 29 18 6 8 8 8 8 0 0 -20 44 -25 58 -7 11 16 12 16 12 0 0
-21 8 -21 32 0 10 9 18 11 18 5 0 -6 -6 -13 -12 -15 -7 -3 1 -4 17 -4 17 1 35
8 41 16 9 12 12 11 17 -3 8 -21 27 -21 27 2 0 14 2 15 10 2 8 -12 11 -13 19
-1 7 11 9 11 13 0 6 -19 156 -18 169 2 7 11 9 11 9 0 0 -9 8 -11 28 -7 15 4
22 3 15 -1 -6 -4 13 -8 43 -8 39 0 55 4 58 15 3 11 4 11 5 -2 0 -10 6 -18 11
-18 6 0 10 8 10 18 0 13 2 14 9 3 5 -8 16 -11 29 -7 11 4 23 2 27 -3 4 -7 -1
-8 -12 -4 -15 6 -16 5 -3 -9 17 -18 40 -7 40 19 0 12 3 11 16 -2 13 -12 19
-13 24 -4 4 6 13 9 19 5 26 -17 86 -13 108 6 l22 20 -6 -21 c-6 -25 0 -27 21
-5 15 14 16 14 16 0 0 -18 15 -21 25 -6 11 18 25 11 26 -12 0 -15 3 -18 6 -8
4 8 12 21 20 28 11 11 13 11 13 -2 0 -9 5 -16 10 -16 6 0 10 8 10 18 0 10 3
13 8 6 12 -18 44 -25 59 -13 10 9 17 9 25 1 17 -17 28 -15 29 6 0 10 3 12 6 5
7 -18 21 -16 26 5 4 13 5 11 6 -5 1 -27 21 -31 21 -5 0 15 2 15 11 2 8 -11 12
-12 16 -3 3 10 8 9 19 -2 15 -14 44 -10 44 6 0 13 -18 11 -23 -3 -4 -10 -6
-10 -6 -1 -2 19 21 27 33 11 21 -27 48 -30 73 -7 19 19 23 20 23 6 0 -9 5 -17
10 -17 6 0 10 5 10 11 0 6 7 4 15 -5 16 -15 45 -12 45 5 0 13 -18 11 -23 -3
-4 -10 -6 -10 -6 -1 -2 22 22 26 36 7 9 -12 16 -15 21 -8 11 17 42 25 36 10
-10 -26 17 -28 42 -5 22 21 24 21 18 4 -7 -18 -6 -19 10 -6 15 13 19 13 27 0
8 -12 10 -12 19 1 5 8 22 15 38 15 24 0 28 -4 24 -20 -4 -20 -4 -20 10 -1 19
25 89 30 80 6 -4 -12 -2 -12 14 2 19 17 21 17 37 1 15 -15 17 -16 17 -1 0 21
48 21 53 -1 4 -14 5 -14 6 0 1 11 10 16 30 15 21 -1 27 -5 23 -16 -4 -12 -1
-11 15 3 11 9 23 14 26 11 4 -4 14 -1 22 6 12 10 18 11 28 1 9 -10 8 -11 -8
-5 -17 7 -18 6 -5 -8 13 -14 17 -14 31 -2 9 8 19 11 22 8 4 -4 14 -1 23 6 16
14 23 9 38 -25 4 -9 17 4 31 30 3 6 7 5 11 -2 4 -8 13 -9 30 -2 32 11 43 12
25 0 -16 -10 44 -7 79 4 13 4 20 2 20 -7 0 -9 3 -9 8 -2 9 14 43 15 60 1 8 -6
16 -6 25 1 7 6 25 9 40 8 18 -2 27 1 27 10 0 8 5 14 10 14 6 0 10 -8 10 -17 0
-13 3 -14 12 -5 16 16 28 15 28 -3 0 -8 5 -15 10 -15 6 0 10 8 10 18 0 15 11
17 95 17 69 0 95 -3 95 -12 0 -17 17 -16 23 1 4 10 29 13 106 12 85 -2 101 0
102 13 0 11 2 12 6 4 2 -7 16 -13 29 -13 13 0 24 6 24 13 0 8 3 8 8 2 10 -15
52 -16 52 -2 0 7 4 6 10 -3 9 -13 11 -13 19 -1 7 11 13 12 23 3 10 -8 18 -8
25 -1 6 6 57 12 113 14 71 3 106 8 111 17 7 10 9 10 9 1 0 -14 46 -13 69 1 8
5 17 3 22 -5 8 -12 10 -12 18 0 8 12 90 22 194 22 9 0 17 6 17 12 0 7 4 6 10
-3 9 -13 11 -13 19 -1 8 12 12 12 25 2 13 -11 16 -11 16 0 0 11 18 14 76 14
50 -1 81 4 90 12 10 10 13 10 17 0 3 -9 9 -9 27 1 19 12 24 12 31 0 7 -10 11
-11 17 0 8 12 34 15 203 26 25 2 52 6 59 11 7 4 16 2 21 -6 8 -12 10 -12 18 0
6 9 32 14 80 15 39 1 74 5 77 9 4 4 18 4 30 1 16 -4 24 -2 24 7 0 11 3 11 10
-1 8 -12 11 -13 19 -1 5 8 31 14 70 15 33 0 61 4 61 8 0 3 18 4 40 2 27 -2 40
0 40 9 0 8 4 7 10 -3 8 -13 11 -13 19 -1 6 9 30 14 70 15 33 0 61 5 61 9 0 5
10 5 21 2 13 -5 25 -2 29 6 7 10 12 10 22 1 10 -8 18 -8 24 -2 6 6 36 12 68
14 32 2 62 9 66 16 6 9 9 9 12 -1 5 -12 9 -12 28 -1 19 12 24 12 31 0 7 -11
11 -10 18 2 7 9 28 15 61 16 30 0 55 6 60 14 6 10 9 10 13 -1 5 -12 7 -12 15
0 8 11 10 11 15 0 4 -11 7 -11 14 -2 5 7 25 14 45 17 21 2 47 7 60 11 19 5 20
4 8 -5 -12 -9 -10 -10 10 -4 14 4 28 11 32 17 4 7 11 7 21 -1 11 -10 17 -9 25
1 7 8 27 13 47 12 19 0 35 3 35 7 0 4 12 6 28 4 15 -1 33 2 40 7 7 6 31 11 54
12 22 1 44 8 48 15 6 10 9 9 13 -1 5 -11 8 -11 16 1 7 12 26 16 70 15 34 0 61
2 61 7 0 4 12 6 28 4 15 -1 32 2 39 6 6 5 26 10 43 10 17 1 33 5 36 10 3 4 16
5 30 2 16 -4 24 -2 24 7 0 11 3 11 10 -1 8 -13 11 -13 19 -1 5 7 21 14 35 14
15 0 29 3 32 8 3 5 11 9 17 9 7 0 6 -4 -3 -11 -11 -8 -9 -8 10 -3 14 5 35 8
48 9 12 0 22 6 22 13 0 6 5 12 10 12 6 0 10 -6 10 -12 0 -10 3 -9 9 1 5 8 16
11 29 7 11 -4 23 -2 27 4 4 7 18 9 31 6 17 -5 24 -2 24 8 0 10 6 13 15 10 11
-4 15 1 16 17 2 47 4 52 19 56 13 4 13 3 0 -6 -13 -10 -13 -12 0 -21 10 -6 11
-10 3 -10 -7 0 -13 -6 -13 -14 0 -10 9 -14 28 -13 21 2 28 8 30 30 2 15 7 27
12 27 5 0 11 10 13 23 4 21 4 21 6 1 1 -16 8 -21 26 -21 23 0 23 1 10 20 -8
12 -15 25 -15 30 0 14 27 -18 34 -41 8 -25 21 -29 29 -8 8 19 -3 56 -16 56 -6
0 -7 3 -4 7 9 9 57 -37 57 -54 0 -7 5 -13 10 -13 6 0 10 5 10 12 0 6 7 20 17
30 9 10 11 18 6 18 -6 0 -14 -7 -17 -16 -3 -9 -12 -14 -19 -12 -19 7 -17 51 4
71 10 10 19 13 19 8 0 -6 -8 -15 -17 -20 -15 -9 -16 -12 -4 -20 18 -12 39 -4
44 17 4 15 5 15 6 0 0 -10 3 -18 6 -18 12 0 44 41 48 62 4 19 5 18 6 -7 2 -29
2 -29 16 -11 15 19 15 19 15 -2 0 -12 4 -22 9 -22 5 0 11 -6 14 -12 2 -7 2 1
-1 17 -2 17 -11 38 -19 47 -8 9 -13 23 -10 30 4 10 6 10 6 -1 1 -7 12 -24 25
-36 13 -12 26 -28 29 -36 4 -11 6 -10 6 2 1 9 8 19 16 23 8 3 15 12 15 21 0 8
5 15 10 15 13 0 13 -37 0 -43 -6 -3 -5 -4 2 -3 7 1 14 13 16 25 2 14 9 21 17
17 18 -6 38 18 41 51 2 14 8 29 14 33 7 5 6 11 -5 20 -12 10 -15 10 -15 0 0
-10 -3 -10 -15 0 -11 9 -15 9 -15 1 0 -6 7 -14 15 -17 17 -7 20 -34 4 -34 -8
0 -8 -4 -1 -12 7 -9 6 -17 -4 -26 -12 -11 -14 -9 -14 10 -1 13 -14 34 -30 48
-17 13 -30 28 -30 33 0 5 14 -6 32 -24 37 -36 53 -22 18 16 -15 16 -20 30 -15
45 4 14 1 28 -11 41 -10 11 -12 19 -6 19 17 0 15 27 -3 34 -10 3 -15 -1 -15
-13 0 -11 -6 -21 -12 -24 -9 -3 -7 -9 6 -19 10 -8 16 -21 13 -29 -4 -11 -6
-10 -6 2 -1 9 -8 19 -16 23 -11 4 -14 13 -9 33 4 16 10 30 14 33 4 3 10 12 13
20 4 12 6 12 6 -1 1 -9 8 -19 16 -23 8 -3 15 -12 15 -21 0 -8 5 -15 10 -15 20
0 9 37 -20 65 -16 16 -30 35 -30 42 0 7 -4 13 -10 13 -5 0 -10 -10 -10 -22 0
-30 -19 -58 -27 -40 -2 7 -11 19 -19 26 -8 8 -14 21 -14 28 0 7 -9 30 -20 51
-11 20 -19 40 -19 44 3 19 -2 33 -12 33 -8 0 -8 -5 1 -15 8 -9 9 -15 2 -15 -7
0 -5 -10 4 -27 7 -16 14 -35 14 -45 0 -9 6 -19 13 -21 9 -4 9 -6 -1 -6 -8 -1
-16 8 -19 19 -7 26 -9 25 -38 -6 -14 -15 -25 -22 -25 -16 0 6 8 16 18 21 15 9
15 12 2 20 -10 7 -17 6 -22 -2 -6 -9 -10 -8 -18 3 -5 8 -10 20 -10 25 0 6 4 3
10 -5 5 -8 12 -11 17 -7 10 10 -16 27 -33 20 -7 -2 -14 1 -17 9 -2 7 -3 4 -1
-7 4 -27 -6 -65 -17 -65 -5 0 -9 7 -9 15 0 8 5 15 10 15 6 0 10 7 10 15 0 8
-4 15 -10 15 -5 0 -10 -5 -10 -11 0 -14 -31 18 -46 47 -8 15 -9 24 -2 26 6 2
3 10 -6 17 -15 12 -16 10 -11 -25 2 -21 9 -40 15 -42 13 -5 13 -42 1 -42 -5 0
-11 10 -13 22 -3 20 -4 21 -20 5 -10 -11 -18 -13 -20 -6 -2 7 -13 12 -24 13
-24 1 -50 25 -57 52 -3 14 -5 12 -6 -8 -1 -32 -21 -39 -21 -8 0 13 -5 17 -14
14 -10 -4 -16 3 -19 23 -3 18 -4 14 -4 -12 2 -29 -2 -40 -13 -40 -9 0 -15 9
-14 23 1 27 0 27 -26 0 l-20 -22 -20 22 c-22 23 -25 38 -10 45 6 3 5 4 -2 3
-7 -2 -13 -16 -13 -31 0 -17 -6 -30 -15 -32 -13 -4 -13 -3 0 6 13 10 13 13 -2
22 -10 5 -18 16 -18 23 0 8 -7 19 -14 26 -13 10 -15 7 -13 -16 1 -15 -4 -29
-10 -31 -7 -3 -13 1 -13 8 0 7 -7 20 -16 30 -15 17 -17 17 -37 -2 -25 -23 -43
-20 -39 6 3 17 3 17 -13 1 -19 -18 -40 -9 -48 22 -3 9 -3 0 0 -21 3 -37 3 -38
-14 -22 -11 12 -18 14 -21 6 -7 -22 -22 -11 -22 17 0 19 -3 23 -9 13 -5 -8
-14 -10 -22 -6 -9 6 -11 3 -6 -9 4 -10 3 -15 -4 -11 -5 4 -16 1 -24 -5 -18
-15 -35 -5 -35 19 0 10 -7 24 -14 31 -13 10 -15 7 -13 -17 2 -30 -23 -41 -30
-13 -4 13 -3 13 6 0 5 -8 13 -11 18 -7 10 11 -17 27 -34 20 -7 -3 -13 -10 -13
-16 0 -5 -11 2 -25 17 -25 27 -46 37 -25 11 16 -19 5 -34 -12 -17 -7 7 -17 12
-23 12 -5 0 -3 -5 5 -11 13 -9 13 -10 0 -6 -8 2 -16 13 -18 25 -5 34 -22 26
-23 -10 0 -18 -3 -26 -6 -18 -8 21 -34 50 -45 50 -5 0 -2 -7 6 -16 21 -20 21
-19 -16 -19 -30 0 -33 3 -31 28 l2 27 -22 -20 c-27 -26 -35 -25 -43 5 -3 14
-10 25 -15 25 -12 0 -12 -13 0 -26 6 -5 4 -14 -5 -22 -12 -11 -14 -10 -14 3 0
21 -17 19 -23 -2 -3 -11 -5 -7 -6 10 -1 27 -21 40 -21 13 0 -27 -21 -28 -47
-5 -16 15 -24 18 -21 9 8 -22 -55 -19 -80 3 -23 21 -32 21 -32 1 0 -13 -2 -13
-13 -2 -8 7 -16 20 -20 28 -4 12 -6 12 -6 -2 -1 -9 -7 -18 -13 -21 -7 -2 -9
-8 -5 -13 4 -5 12 -2 16 5 6 9 9 5 9 -12 0 -23 -2 -24 -19 -9 -11 9 -19 22
-19 29 0 7 -4 13 -10 13 -5 0 -10 -7 -10 -15 0 -13 -2 -14 -14 -3 -9 8 -11 17
-5 24 6 8 4 14 -6 18 -9 3 -14 2 -10 -3 6 -11 -4 -41 -15 -41 -5 0 -12 9 -15
20 -8 25 -25 26 -25 3 -1 -15 -4 -14 -22 7 l-21 25 6 -23 c5 -23 5 -23 -14 -6
-18 16 -19 16 -19 -4 0 -12 -4 -22 -10 -22 -5 0 -10 12 -10 28 0 19 -3 23 -9
13 -13 -20 -28 -6 -26 26 1 15 0 19 -2 8 -5 -27 -43 -52 -53 -35 -5 8 -11 8
-21 -3 -13 -12 -16 -12 -28 0 -10 12 -15 12 -21 3 -10 -17 -29 -4 -25 18 1 9
0 11 -2 5 -3 -7 -8 -13 -13 -13 -5 0 -15 -3 -24 -6 -10 -4 -16 -1 -16 9 0 8
-8 14 -17 13 -12 -1 -17 5 -15 18 3 17 1 16 -19 -3 -25 -24 -35 -26 -44 -11
-7 11 -46 3 -55 -10 -3 -4 -12 -1 -20 8 -13 14 -13 15 1 10 10 -4 15 0 15 12
0 23 -23 15 -31 -11 -9 -26 -25 -24 -26 4 0 14 -3 17 -6 7 -4 -8 -12 -21 -20
-28 -11 -11 -13 -11 -13 1 0 17 -38 53 -47 44 -3 -4 -2 -7 4 -7 6 0 13 -6 16
-12 7 -20 -46 -16 -67 4 -16 17 -46 15 -46 -3 0 -6 -6 -4 -14 3 -10 9 -11 17
-4 26 19 23 -3 12 -27 -13 -16 -18 -25 -22 -28 -13 -4 10 -8 10 -16 -2 -9 -13
-11 -13 -11 1 0 9 -8 23 -17 30 -15 12 -16 12 -10 -3 4 -12 2 -15 -9 -11 -9 3
-14 -1 -14 -12 0 -14 -2 -15 -14 -2 -9 8 -28 13 -45 11 -22 -3 -31 1 -31 11 0
20 -19 29 -35 15 -18 -15 -36 -4 -28 17 5 13 1 12 -17 -5 -27 -25 -37 -27 -42
-11 -3 8 -10 6 -21 -5 -16 -16 -17 -16 -17 8 0 14 -4 26 -10 26 -5 0 -10 -12
-10 -27 0 -20 -3 -24 -9 -14 -5 8 -16 11 -30 6 -17 -5 -24 -2 -28 13 -3 12
-11 23 -18 26 -8 3 -11 -2 -8 -12 6 -24 -77 -24 -101 0 -23 23 -25 23 -18 -4
5 -22 4 -22 -15 -5 -11 9 -23 14 -27 10 -4 -4 -11 -1 -16 7 -7 10 -10 11 -10
3 0 -13 -67 -10 -79 3 -3 4 6 4 21 0 20 -4 27 -3 24 6 -1 7 -1 9 2 5 2 -4 10
-3 17 3 7 6 37 13 66 17 30 3 57 10 60 15 10 16 189 14 199 -1 11 -19 148 -20
160 -2 5 10 22 12 54 9 26 -3 48 -2 51 2 3 4 -40 11 -96 15 -82 6 -104 11
-119 28 -19 20 -21 20 -104 4 -47 -10 -98 -17 -115 -17 -16 0 -42 -5 -57 -11
-16 -5 -58 -14 -94 -19 -36 -5 -90 -14 -120 -20 -30 -5 -98 -17 -150 -26 -52
-8 -131 -22 -175 -30 -44 -8 -100 -14 -125 -14 -25 0 -119 -6 -210 -14 -208
-19 -422 -35 -615 -46 -223 -13 -450 -37 -473 -49 -12 -6 -30 -11 -42 -11 -12
0 -36 -6 -53 -14 -135 -58 -172 -64 -467 -76 -129 -6 -242 -13 -250 -17 -8 -3
-301 -10 -650 -14 -349 -5 -660 -10 -690 -12 -30 -1 -80 1 -110 4 -30 3 -57 3
-60 0 -8 -10 -38 -11 -210 -10 -160 1 -192 2 -367 13 -72 5 -82 3 -86 -12 -4
-16 -5 -16 -6 1 -1 21 -21 23 -21 2 0 -27 -58 -18 -91 14 -16 16 -29 34 -29
40 0 5 -6 14 -13 18 -14 8 -32 178 -47 448 -14 255 -55 519 -117 750 -13 50
-28 110 -34 135 -5 24 -14 49 -19 54 -6 6 -10 17 -10 26 0 8 -7 28 -15 44 -8
15 -15 33 -15 40 0 6 -6 23 -14 38 -8 15 -17 40 -21 57 -4 17 -11 31 -16 31
-5 0 -9 6 -9 14 0 16 -69 158 -81 166 -4 3 -11 18 -14 33 -4 15 -11 27 -16 27
-5 0 -9 5 -9 10 0 12 -41 73 -52 78 -5 2 -8 8 -8 13 0 11 -42 72 -52 77 -5 2
-8 10 -8 18 0 8 -3 14 -8 14 -4 0 -28 27 -52 60 -25 33 -48 60 -52 60 -13 0
-9 28 5 34 6 3 2 3 -11 0 -18 -4 -34 4 -71 38 -79 72 -123 108 -131 108 -5 0
-10 3 -12 8 -5 10 -66 52 -77 52 -5 0 -11 4 -13 8 -1 5 -37 25 -78 44 -112 54
-146 68 -165 68 -9 0 -25 4 -35 10 -37 20 -244 41 -300 30 -29 -6 -67 -10 -85
-10 -29 0 -128 -27 -180 -48 -56 -24 -175 -88 -175 -94 0 -5 -5 -8 -11 -8 -11
0 -102 -72 -144 -115 -43 -42 -115 -133 -115 -144 0 -6 -5 -11 -10 -11 -6 0
-15 -10 -20 -22 -10 -24 -31 -59 -40 -68 -12 -12 -50 -90 -50 -104 0 -8 -3
-16 -7 -18 -10 -4 -53 -109 -53 -129 0 -8 -4 -19 -9 -25 -11 -11 -40 -120 -51
-189 -5 -27 -13 -72 -19 -100 -5 -27 -15 -122 -22 -210 -11 -149 -9 -260 7
-532 l7 -103 -45 0 c-24 0 -48 4 -53 9 -6 4 -66 18 -135 30 -69 12 -146 27
-172 32 -26 6 -80 15 -120 20 -40 4 -108 14 -150 20 l-78 12 0 228 c0 170 4
243 15 286 14 52 22 233 10 221 -9 -8 -37 -251 -40 -353 -3 -55 -6 -154 -9
-220 -2 -66 -5 -130 -5 -142 -1 -19 -4 -21 -28 -13 -16 6 -64 14 -108 19 -103
13 -208 29 -265 42 -25 5 -77 14 -115 19 -39 5 -110 16 -160 24 -49 9 -134 22
-187 30 -54 8 -102 17 -107 20 -5 4 -45 11 -88 16 -43 5 -114 16 -158 24 -44
8 -116 19 -160 26 -44 6 -94 15 -111 21 -16 5 -59 12 -95 15 -35 3 -75 10 -89
15 -14 5 -56 13 -95 19 -38 5 -108 16 -155 24 -47 8 -123 21 -170 29 -47 8
-92 17 -100 21 -8 3 -46 10 -85 15 -66 10 -123 21 -275 55 -106 23 -228 62
-240 76 -3 3 -17 11 -32 17 -16 7 -28 17 -28 23 0 5 -5 10 -11 10 -11 0 -103
92 -142 143 -12 15 -30 38 -39 49 -10 12 -18 27 -18 35 0 7 -4 13 -9 13 -5 0
-12 11 -15 25 -4 14 -11 25 -16 25 -6 0 -10 6 -10 13 0 6 -8 26 -17 42 -9 17
-20 50 -24 75 -7 40 -8 38 -4 -18 3 -56 1 -63 -13 -57 -10 4 -30 9 -47 11 -16
3 -57 11 -90 19 -33 7 -96 21 -140 30 -44 9 -107 23 -140 30 -33 7 -80 16
-105 20 -25 4 -58 10 -75 15 -16 5 -66 16 -110 25 -44 9 -108 23 -142 31 -34
8 -71 14 -83 14 -13 0 -39 5 -59 11 -35 10 -38 15 -61 91 -13 44 -28 82 -32
84 -4 3 -8 14 -8 26 0 11 -6 32 -14 46 -8 15 -31 63 -52 107 -22 44 -42 82
-46 83 -5 2 -8 9 -8 15 0 18 -88 148 -121 179 -16 15 -29 29 -29 32 0 8 -38
46 -45 46 -3 0 -16 11 -28 24 -49 52 -212 118 -285 115 -15 -1 -49 -8 -76 -15z
m7114 -634 c68 -9 151 -30 210 -52 40 -16 153 -70 160 -78 9 -9 69 -50 74 -50
11 0 147 -129 196 -186 52 -60 120 -153 120 -163 0 -6 5 -11 10 -11 6 0 10 -5
10 -11 0 -10 66 -157 90 -201 6 -10 10 -24 10 -32 0 -8 5 -27 12 -43 19 -45
39 -141 49 -238 5 -49 14 -109 19 -133 13 -54 12 -184 0 -239 -6 -24 -14 -71
-20 -105 -25 -163 -88 -319 -194 -483 -40 -62 -224 -255 -244 -255 -6 0 -12
-3 -14 -7 -11 -26 -204 -124 -290 -149 -178 -50 -409 -39 -588 28 -42 16 -163
77 -170 87 -3 3 -17 13 -32 21 -79 44 -229 191 -305 298 -13 17 -23 36 -23 42
0 5 -4 10 -9 10 -10 0 -20 16 -59 97 -22 44 -30 61 -61 133 -48 113 -79 260
-91 445 -10 136 -9 172 4 240 l16 80 -5 -170 c-4 -109 -1 -190 6 -225 6 -30
15 -75 19 -100 23 -125 75 -268 138 -380 20 -36 43 -77 50 -91 7 -15 22 -36
33 -47 10 -12 19 -26 19 -32 0 -5 4 -10 9 -10 6 0 18 -13 28 -30 24 -42 44
-37 71 18 29 59 83 155 92 162 3 3 17 25 29 50 27 53 37 70 74 127 15 24 27
47 27 53 0 5 4 10 9 10 5 0 14 14 21 30 7 17 15 30 19 30 3 0 15 19 26 42 11
22 49 73 85 112 94 102 93 101 80 125 -6 13 -21 21 -35 21 -14 0 -25 4 -25 9
0 5 -19 12 -42 16 -24 4 -54 13 -68 20 -28 14 -193 97 -350 177 -58 29 -107
56 -110 60 -3 3 -18 10 -33 13 -15 4 -27 11 -27 15 0 4 -12 11 -27 15 -15 3
-30 10 -33 15 -3 5 -17 11 -32 15 -20 5 -27 3 -31 -12 -3 -10 -3 9 0 42 3 33
9 62 13 65 4 3 11 24 15 47 4 24 10 45 15 48 5 3 11 23 15 45 4 22 11 40 15
40 5 0 11 14 15 30 4 17 10 30 15 30 4 0 11 12 14 26 4 14 11 31 16 37 6 7 28
39 50 72 21 34 50 73 64 88 15 16 26 30 26 32 0 21 231 205 256 205 8 0 14 4
14 9 0 5 14 12 30 16 17 4 30 10 30 13 0 14 156 60 240 71 77 11 184 11 260 1z
m-7041 -250 c9 -58 24 -107 48 -153 22 -42 10 -61 -32 -54 -20 3 -50 13 -67
21 -17 9 -35 16 -39 16 -11 0 -143 91 -147 101 -2 5 -8 9 -13 9 -11 0 -72 42
-77 53 -2 4 -10 7 -17 7 -17 0 -28 17 -20 30 3 6 20 -3 38 -20 18 -16 38 -30
45 -30 6 0 12 -4 12 -10 0 -5 4 -10 10 -10 5 0 33 -15 62 -32 79 -49 196 -104
204 -96 4 5 1 21 -25 123 -6 22 -10 76 -10 120 1 79 1 80 11 30 5 -27 13 -75
17 -105z m757 31 c5 -5 36 -14 69 -20 124 -22 222 -40 285 -55 36 -8 92 -20
125 -26 33 -7 85 -18 115 -25 30 -8 91 -21 135 -30 44 -10 102 -23 129 -31 27
-8 65 -14 84 -14 40 0 83 -39 117 -105 11 -22 25 -45 32 -52 6 -7 21 -28 33
-48 12 -19 26 -35 31 -35 5 0 9 -5 9 -10 0 -15 88 -97 145 -135 58 -38 190
-84 315 -109 47 -10 114 -24 150 -31 36 -8 106 -21 155 -30 50 -9 124 -22 165
-30 41 -7 93 -16 115 -20 22 -3 60 -10 85 -15 25 -5 90 -16 145 -25 55 -9 134
-22 175 -30 41 -7 120 -21 175 -30 55 -9 134 -22 175 -30 41 -8 120 -21 175
-30 55 -9 141 -22 190 -31 86 -14 162 -26 368 -59 96 -15 208 -33 387 -60 58
-9 148 -23 200 -31 52 -8 138 -22 190 -30 129 -21 246 -43 300 -56 25 -6 65
-13 90 -16 25 -2 50 -8 55 -13 9 -9 36 -278 29 -288 -2 -1 -36 3 -76 10 -61
10 -268 19 -457 18 -24 0 -47 5 -51 11 -4 6 -21 12 -39 15 -18 2 -39 9 -48 16
-14 12 -41 17 -175 35 -51 7 -91 -2 -70 -14 6 -5 -19 -6 -56 -4 -37 3 -69 8
-72 12 -3 4 -57 12 -120 19 -162 15 -355 38 -355 41 0 3 -120 17 -350 43 -60
7 -114 15 -120 18 -5 4 -59 10 -120 14 -60 4 -114 11 -120 15 -5 4 -59 11
-120 15 -60 4 -114 10 -120 14 -5 3 -62 12 -125 18 -113 13 -240 28 -475 58
-66 9 -174 22 -240 30 -66 8 -133 17 -150 20 -16 3 -73 10 -125 15 -52 6 -149
16 -215 25 -268 32 -268 32 -425 80 -25 7 -61 16 -80 20 -19 4 -39 11 -45 15
-5 4 -32 11 -59 15 -27 3 -56 11 -65 15 -9 5 -43 14 -76 20 -33 6 -79 14 -102
19 -27 5 -52 18 -70 38 -15 16 -47 38 -70 48 -35 15 -43 24 -43 44 0 33 -22
161 -70 401 -6 30 -15 79 -21 109 -5 29 -14 62 -19 72 -6 10 -10 27 -10 38 0
11 -6 40 -14 63 -8 24 -17 60 -20 81 -6 32 -4 37 12 37 10 0 22 -4 28 -9z
m-1088 -148 c57 -55 120 -106 135 -112 6 -2 20 -14 32 -27 12 -13 25 -24 29
-24 4 0 16 -9 28 -20 12 -11 32 -20 45 -20 33 0 73 -28 73 -51 0 -11 -25 -49
-56 -85 -30 -36 -60 -78 -66 -92 -25 -61 -50 -118 -59 -134 -5 -10 -9 -25 -9
-34 0 -9 -6 -28 -14 -42 -16 -31 -35 -84 -45 -127 -4 -17 -14 -41 -20 -54 -11
-19 -11 -28 0 -47 16 -31 23 -30 38 4 7 15 19 40 27 55 8 16 14 33 14 38 0 10
41 101 95 214 32 65 52 93 121 168 33 35 54 35 54 1 0 -21 -3 -24 -13 -16 -10
9 -21 4 -45 -18 -18 -16 -32 -33 -32 -38 0 -6 -6 -12 -12 -15 -17 -6 -111
-197 -159 -322 -13 -33 -26 -64 -30 -70 -3 -5 -9 -23 -13 -39 -6 -25 -1 -34
46 -80 72 -69 109 -88 183 -94 53 -4 72 -1 112 19 69 33 95 65 87 103 -4 17
-13 40 -20 51 -8 11 -14 26 -14 35 0 16 -43 126 -54 137 -3 3 -6 15 -6 26 0
10 -6 33 -14 50 -8 18 -19 50 -24 72 -6 22 -14 51 -18 65 -7 22 -6 24 9 11 9
-7 17 -20 17 -27 0 -8 16 -61 35 -119 34 -102 44 -128 71 -192 8 -17 14 -35
14 -40 0 -6 7 -24 15 -41 19 -36 45 -33 45 6 0 24 -63 230 -81 264 -5 10 -9
27 -9 38 0 11 -6 36 -14 54 -7 18 -16 57 -19 87 -6 57 -3 48 24 -51 7 -25 18
-59 25 -77 8 -17 14 -40 14 -51 0 -12 4 -23 9 -26 5 -4 12 -24 16 -46 4 -22
11 -42 15 -45 5 -3 12 -25 15 -49 10 -65 20 -75 45 -49 11 12 20 25 20 28 0 4
11 30 24 58 24 54 61 164 70 207 3 14 2 -2 -1 -35 -3 -33 -11 -72 -19 -87 -8
-15 -14 -33 -14 -40 0 -7 -21 -56 -47 -108 -34 -66 -66 -112 -108 -155 -66
-66 -108 -90 -172 -100 -46 -7 -153 11 -153 26 0 5 -6 9 -13 9 -8 0 -24 9 -36
19 -13 11 -26 21 -29 23 -13 6 -72 86 -72 97 0 6 -4 11 -10 11 -5 0 -12 11
-16 25 -3 13 -12 29 -20 36 -8 6 -14 19 -14 28 -1 9 -9 34 -20 56 -11 22 -19
49 -19 60 1 11 6 3 11 -17 6 -21 14 -38 19 -38 5 0 9 -9 9 -19 0 -11 6 -21 12
-23 13 -5 33 38 48 102 11 46 27 91 62 168 15 34 28 66 28 70 0 16 40 85 78
136 52 69 55 87 17 101 -31 10 -34 12 -74 45 -13 11 -27 20 -31 20 -3 0 -24
17 -46 39 -23 21 -50 42 -62 45 -12 4 -22 12 -22 17 0 5 -8 13 -17 16 -20 8
-53 40 -53 52 0 5 -7 11 -15 15 -13 4 -22 36 -11 36 2 0 26 -21 54 -47z"/>
<path d="M15952 7471 c-10 -6 -16 -70 -24 -262 -12 -313 -6 -575 16 -643 21
-64 20 -106 -1 -122 -21 -16 -59 -18 -68 -4 -3 6 -18 10 -33 10 -15 0 -40 7
-56 15 -15 8 -35 15 -43 15 -8 0 -29 6 -46 14 -18 7 -52 21 -77 31 -25 9 -60
23 -78 31 -18 8 -39 14 -47 14 -8 0 -15 4 -15 9 0 5 -12 12 -27 15 -16 4 -41
13 -58 20 -42 19 -71 31 -135 56 -63 25 -77 31 -142 59 -60 27 -66 26 -79 -6
-7 -16 -16 -38 -22 -50 -7 -17 -6 -27 4 -39 13 -16 109 -64 128 -64 6 0 11 -4
11 -9 0 -5 14 -12 30 -16 17 -4 30 -11 30 -16 0 -5 5 -9 12 -9 6 0 43 -15 82
-34 102 -49 278 -129 321 -145 50 -19 92 -33 113 -38 12 -3 22 -9 22 -13 0 -5
8 -11 18 -13 12 -3 9 -5 -8 -6 l-25 -2 25 -14 c14 -8 40 -14 58 -15 28 0 32
-3 32 -28 0 -29 -37 -80 -112 -154 -21 -21 -38 -42 -38 -47 0 -5 -3 -11 -7
-13 -12 -5 -53 -66 -53 -78 0 -5 -4 -10 -9 -10 -5 0 -14 -13 -21 -30 -7 -16
-16 -30 -20 -30 -4 0 -10 -8 -14 -17 -3 -10 -14 -30 -23 -45 -10 -15 -38 -60
-63 -100 -24 -40 -48 -74 -52 -76 -5 -2 -8 -7 -8 -12 0 -8 -69 -130 -80 -140
-3 -3 -12 -19 -22 -37 l-16 -31 40 -36 c46 -42 53 -40 95 31 13 24 29 43 34
43 5 0 9 5 9 11 0 6 14 28 30 49 17 21 30 41 30 44 0 3 6 14 14 23 33 40 136
184 136 189 0 8 73 98 83 102 4 2 7 8 7 13 0 4 15 24 33 42 17 19 58 64 91
100 32 37 67 69 78 73 28 9 68 -15 68 -41 0 -30 34 -122 73 -196 48 -93 90
-164 99 -167 4 -2 8 -8 8 -13 0 -5 12 -28 27 -52 35 -54 49 -77 63 -102 15
-28 29 -50 75 -120 45 -68 61 -94 71 -114 9 -17 42 -51 49 -51 3 0 13 8 24 19
10 10 27 23 36 29 17 9 17 12 -4 53 -39 76 -50 93 -63 104 -7 5 -13 15 -13 20
-1 11 -27 67 -35 75 -3 3 -11 16 -17 30 -7 14 -28 52 -47 85 -108 189 -206
411 -206 466 0 11 -4 19 -10 19 -5 0 -10 12 -10 26 0 20 -4 25 -16 20 -12 -4
-15 -2 -10 9 4 11 -9 25 -44 46 -28 17 -50 35 -50 41 0 6 -11 3 -25 -6 -13 -9
-30 -16 -37 -16 -14 -1 -58 -34 -58 -44 0 -8 31 -39 60 -59 l24 -17 -22 0
c-12 0 -25 7 -28 15 -4 8 -12 15 -19 15 -12 0 -33 58 -23 64 1 1 19 13 38 27
76 54 85 54 147 4 52 -43 73 -49 73 -22 0 16 52 47 77 47 10 0 23 4 29 9 5 5
47 21 94 36 47 16 90 32 95 35 6 4 27 10 48 14 20 4 37 11 37 16 0 6 9 10 21
10 12 0 35 6 52 14 18 8 82 30 142 51 61 20 118 40 127 45 10 6 24 10 32 10
26 0 46 30 40 58 -4 15 -11 31 -15 37 -5 5 -9 17 -9 27 0 13 -8 18 -29 18 -17
0 -33 -4 -36 -10 -3 -5 -16 -10 -28 -10 -12 0 -42 -6 -67 -14 -124 -38 -148
-45 -183 -51 -20 -4 -40 -11 -43 -16 -3 -5 -15 -9 -27 -9 -13 0 -64 -13 -115
-30 -51 -16 -99 -30 -107 -30 -15 0 -69 -22 -118 -47 -28 -15 -57 -14 -142 6
l-40 9 36 1 36 1 -8 38 c-49 217 -48 202 -49 577 -1 198 -4 372 -7 388 -4 24
-9 27 -46 27 -23 0 -48 -4 -55 -9z"/>
<path d="M15770 7454 c-19 -7 -43 -13 -52 -13 -25 -1 -149 -57 -203 -92 -16
-10 -36 -22 -43 -25 -24 -12 -65 -48 -142 -124 -85 -85 -120 -126 -120 -140 0
-6 -3 -10 -7 -10 -10 0 -34 -41 -95 -158 -52 -102 -55 -112 -33 -112 8 0 15
-4 15 -9 0 -5 14 -12 31 -16 17 -4 42 -13 57 -21 15 -8 32 -14 38 -14 7 0 25
-7 40 -15 16 -8 36 -15 45 -15 8 0 19 -4 25 -9 5 -5 25 -14 44 -19 35 -11 68
-23 170 -62 30 -12 69 -25 85 -30 17 -5 44 -13 60 -18 58 -20 200 -62 209 -62
9 0 4 59 -13 160 -5 33 -5 116 0 205 5 83 13 233 19 335 5 102 12 206 16 233
l7 47 -59 -1 c-33 -1 -75 -7 -94 -15z"/>
<path d="M16083 7179 c7 -323 20 -510 43 -578 7 -25 14 -57 14 -72 0 -56 29
-64 110 -31 28 11 156 46 315 86 164 40 193 48 236 61 26 8 54 15 63 15 8 0
33 7 55 16 37 15 39 17 31 46 -10 32 -91 200 -101 208 -3 3 -14 19 -22 37 -24
46 -109 154 -168 213 -151 151 -362 263 -543 287 l-39 5 6 -293z m254 -36 c40
-20 73 -40 73 -45 0 -4 6 -8 13 -8 19 0 49 -40 43 -56 -3 -9 -20 -14 -46 -14
-36 0 -40 2 -40 25 0 16 -6 25 -15 25 -8 0 -15 -9 -15 -20 0 -26 -24 -26 -51
1 -20 20 -20 23 -5 31 17 10 22 43 7 53 -6 3 -15 -1 -22 -8 -11 -11 -16 -10
-29 3 -9 9 -19 24 -23 33 -11 28 29 21 110 -20z"/>
<path d="M16965 6478 c-22 -5 -44 -13 -49 -18 -6 -6 -19 -10 -29 -10 -10 0
-31 -6 -45 -14 -15 -8 -56 -24 -92 -37 -36 -12 -69 -26 -74 -31 -6 -4 -19 -8
-31 -8 -12 0 -30 -7 -41 -15 -10 -8 -26 -15 -34 -15 -8 0 -28 -7 -44 -15 -15
-8 -33 -15 -38 -15 -6 0 -26 -7 -46 -16 -21 -9 -46 -20 -57 -24 -11 -5 -40
-17 -65 -28 -25 -11 -53 -22 -63 -26 -30 -10 -31 -35 -2 -124 24 -73 190 -415
268 -552 14 -25 38 -67 52 -95 76 -144 73 -142 135 -76 27 29 70 82 95 117 47
65 145 245 145 265 0 6 6 25 14 42 17 41 43 136 57 212 26 146 21 460 -8 485
-4 4 -26 3 -48 -2z"/>
<path d="M15939 5952 c-80 -87 -77 -83 -221 -276 -66 -88 -126 -169 -134 -179
-8 -9 -14 -21 -14 -26 0 -5 -3 -11 -7 -13 -14 -6 -113 -148 -113 -161 0 -14
35 -47 49 -47 5 0 11 -3 13 -7 8 -19 139 -92 223 -124 138 -52 368 -66 506
-30 103 28 210 69 242 94 18 15 22 33 10 39 -12 5 -53 66 -53 78 0 5 -4 10 -9
10 -5 0 -14 14 -21 30 -7 17 -16 30 -21 30 -5 0 -9 5 -9 11 0 5 -34 61 -75
124 -41 62 -75 118 -75 124 0 6 -4 11 -9 11 -5 0 -13 9 -16 20 -3 11 -12 26
-18 32 -16 17 -52 81 -83 148 -14 30 -32 68 -40 83 -8 16 -14 39 -14 51 0 24
-17 46 -36 46 -6 0 -40 -31 -75 -68z m328 -439 c4 -10 9 -20 13 -23 22 -19 69
-90 62 -94 -13 -8 -142 5 -142 14 0 4 -20 11 -45 14 -73 11 -51 46 23 37 6 -1
12 5 12 14 0 8 6 15 14 15 7 0 16 9 19 20 6 25 35 26 44 3z"/>
<path d="M10225 6480 c-93 -8 -107 -15 -93 -45 12 -26 25 -31 113 -40 33 -3
98 -12 145 -20 153 -25 207 -31 226 -25 11 4 -25 10 -78 15 -54 4 -98 10 -98
15 0 4 -43 11 -95 15 -52 4 -97 11 -101 16 -3 5 -25 9 -50 9 -56 0 -57 16 -1
23 23 3 69 11 102 17 33 6 121 15 195 19 l135 8 -165 0 c-91 0 -196 -3 -235
-7z"/>
<path d="M11025 6424 c17 -2 66 -10 110 -18 113 -20 244 -42 360 -61 55 -8
120 -20 145 -25 25 -6 74 -14 110 -19 36 -6 103 -16 150 -25 47 -8 126 -22
175 -30 50 -8 97 -17 105 -20 8 -3 49 -10 90 -15 41 -6 122 -20 180 -31 58
-12 130 -25 160 -29 30 -5 84 -14 120 -20 36 -7 101 -18 145 -26 74 -13 115
-20 353 -60 100 -17 224 -37 367 -59 55 -9 137 -23 181 -31 45 -8 94 -15 109
-15 16 0 62 -6 104 -14 42 -8 128 -22 191 -31 118 -17 209 -42 222 -60 18 -25
8 -37 -24 -31 -34 7 -162 26 -343 51 -55 8 -147 21 -205 30 -58 8 -148 20
-200 25 -52 6 -102 14 -111 19 -8 5 -59 12 -112 16 -54 4 -99 11 -102 15 -3 4
-50 11 -105 15 -55 4 -100 11 -100 15 0 4 -47 11 -105 15 -58 4 -105 10 -105
15 0 4 -44 10 -97 14 -54 4 -102 11 -108 16 -5 4 -55 10 -110 13 -103 6 -87 2
85 -22 47 -6 105 -16 130 -21 25 -5 74 -12 110 -15 36 -3 83 -10 105 -16 22
-5 76 -14 120 -19 117 -12 234 -29 285 -41 25 -5 81 -14 125 -19 44 -5 125
-16 180 -25 55 -8 145 -21 200 -29 540 -79 519 -78 513 -30 -6 49 -60 64 -438
129 -52 9 -131 23 -175 30 -44 8 -123 21 -175 30 -97 16 -211 36 -355 60 -44
7 -127 21 -185 30 -58 9 -141 23 -185 30 -44 7 -123 21 -175 29 -52 9 -124 21
-160 27 -36 6 -78 13 -95 15 -32 5 -162 26 -305 49 -205 34 -278 45 -320 50
-25 3 -65 10 -90 15 -61 13 -307 51 -455 70 -44 6 -93 15 -110 20 -16 5 -70
11 -120 13 -49 3 -76 3 -60 1z"/>
<path d="M22891 6773 c-71 -34 -130 -83 -182 -149 -18 -23 -98 -41 -299 -68
-417 -56 -776 -87 -1220 -106 -118 -5 -276 -14 -350 -19 -74 -6 -233 -13 -352
-16 l-216 -6 -49 34 c-125 87 -306 112 -828 112 -631 0 -855 -29 -1000 -129
-36 -25 -144 -133 -165 -166 -8 -12 -29 -41 -45 -64 -46 -62 -95 -141 -95
-154 0 -5 -3 -12 -7 -14 -16 -6 -104 -195 -118 -251 -19 -75 -19 -116 2 -158
26 -53 47 -67 153 -104 129 -45 193 -49 675 -49 565 1 1112 19 1210 40 39 9
104 28 145 44 144 55 300 74 960 119 155 11 337 28 460 42 47 6 121 14 165 19
44 4 107 13 140 19 33 5 103 17 155 25 52 9 122 20 155 26 245 42 415 52 548
33 117 -17 150 -12 160 26 4 17 1 21 -19 21 -15 0 -30 10 -41 28 -10 15 -20
29 -23 32 -3 3 -16 27 -30 53 -27 53 -32 62 -73 124 -15 24 -27 45 -27 49 0 3
-20 25 -45 49 -54 53 -85 60 -191 46 -43 -6 -128 -16 -189 -21 -60 -6 -126
-14 -145 -19 -43 -12 -217 -29 -410 -41 -80 -5 -181 -14 -225 -19 -44 -6 -154
-15 -245 -21 -294 -18 -434 -30 -460 -39 -14 -5 -42 -12 -62 -16 -21 -3 -38
-10 -38 -15 0 -6 -6 -10 -13 -10 -23 0 -124 -72 -193 -137 -25 -24 -47 -43
-50 -43 -3 0 -40 -34 -83 -75 -43 -41 -95 -90 -116 -107 -21 -18 -50 -44 -65
-58 -35 -33 -103 -65 -170 -78 -109 -23 -445 -35 -1025 -39 -611 -4 -663 -2
-797 39 -64 19 -44 31 40 24 119 -10 703 -8 932 4 113 6 295 15 405 19 290 13
387 27 461 63 33 17 74 42 91 57 17 14 60 51 96 81 37 30 67 58 67 63 0 4 4 7
10 7 5 0 24 15 42 33 18 18 67 59 108 92 41 33 77 62 80 65 3 4 29 20 58 38
85 52 145 63 467 86 121 9 306 23 410 31 105 8 231 17 280 20 50 3 126 10 170
15 44 5 143 16 220 25 77 9 192 23 255 31 170 21 189 20 235 -18 22 -18 46
-40 53 -50 7 -9 19 -24 27 -32 8 -8 15 -19 15 -24 0 -5 9 -20 20 -33 11 -13
23 -28 27 -34 5 -5 25 -44 46 -87 45 -91 56 -102 90 -89 21 8 30 5 58 -19 19
-16 39 -34 46 -40 15 -12 33 -13 33 -1 0 5 -12 14 -27 19 -16 6 -22 11 -15 11
14 1 17 51 2 51 -5 0 -10 6 -10 14 0 17 -56 76 -73 76 -7 1 -23 14 -37 30 -13
17 -28 30 -33 30 -9 0 -37 25 -37 34 0 3 9 6 20 6 25 0 58 32 66 65 3 14 10
25 14 25 5 0 11 14 15 30 4 17 10 30 15 30 4 0 10 18 14 40 3 22 10 40 15 40
5 0 12 14 16 30 4 17 10 30 15 30 5 0 11 14 15 30 4 17 10 30 15 30 4 0 11 16
14 35 4 19 11 35 16 35 4 0 11 14 15 30 4 17 10 30 15 30 5 0 11 14 15 30 4
17 11 30 16 30 15 0 10 29 -9 48 -59 59 -99 65 -181 25z"/>
</g>
</svg>
