<?xml version="1.0" standalone="no"?>
<!DOCTYPE svg PUBLIC "-//W3C//DTD SVG 20010904//EN"
 "http://www.w3.org/TR/2001/REC-SVG-20010904/DTD/svg10.dtd">
<svg version="1.0" xmlns="http://www.w3.org/2000/svg"
 width="2880.000000pt" height="1725.000000pt" viewBox="0 0 2880.000000 1725.000000"
 preserveAspectRatio="xMidYMid meet">
<metadata>
Created by potrace 1.16, written by Peter Selinger 2001-2019
</metadata>
<g transform="translate(0.000000,1725.000000) scale(0.100000,-0.100000)"
fill="#000000" stroke="none">
<path d="M12060 10961 c0 -5 -72 -12 -160 -16 -100 -5 -160 -11 -157 -18 3
-11 190 -10 234 1 55 15 841 -4 915 -22 10 -2 21 0 24 5 3 5 87 10 187 11 174
2 171 2 -88 8 -401 10 -645 22 -645 32 0 13 -38 9 -44 -4 -5 -10 -7 -10 -12 0
-7 15 -124 17 -124 2 0 -5 -25 -10 -55 -10 -30 0 -55 5 -55 10 0 6 -4 10 -10
10 -5 0 -10 -4 -10 -9z"/>
<path d="M13293 10923 c15 -14 292 -26 667 -28 303 -2 394 0 315 6 -60 5 -132
7 -158 4 -26 -3 -74 -1 -105 4 -56 10 -728 23 -719 14z"/>
<path d="M11460 10901 c0 -4 -37 -11 -82 -14 -45 -3 -84 -10 -86 -16 -5 -15
-49 -14 -55 2 -4 9 -8 9 -14 1 -4 -7 -54 -15 -110 -19 -57 -4 -103 -11 -103
-15 0 -5 -38 -11 -85 -15 -47 -4 -85 -11 -85 -15 0 -4 -28 -10 -62 -14 -34 -3
-64 -10 -67 -15 -3 -4 -37 -11 -76 -15 -38 -4 -71 -11 -73 -16 -2 -5 -30 -12
-63 -16 -32 -4 -59 -10 -59 -15 0 -4 -25 -11 -55 -14 -30 -4 -55 -11 -55 -16
0 -4 -20 -11 -45 -15 -25 -3 -45 -10 -45 -14 0 -4 -22 -10 -50 -14 -27 -4 -50
-11 -50 -15 0 -5 -20 -12 -45 -15 -25 -4 -45 -11 -45 -15 0 -5 -18 -11 -40
-15 -22 -3 -40 -10 -40 -16 0 -5 -20 -12 -45 -16 -25 -3 -45 -10 -45 -15 0 -4
-16 -11 -35 -15 -19 -3 -35 -10 -35 -14 0 -5 -13 -11 -30 -15 -16 -4 -30 -11
-30 -16 0 -13 14 -11 52 5 18 8 49 21 70 30 20 9 43 16 51 16 9 0 18 4 21 9 3
5 23 12 43 16 21 4 43 10 48 15 6 4 44 17 85 29 41 12 83 26 92 31 9 5 35 13
58 16 22 4 40 10 40 15 0 5 8 9 18 9 10 0 45 7 77 16 33 9 76 20 95 24 19 5
67 16 105 25 122 30 357 70 495 85 47 6 121 14 166 20 44 5 105 10 135 10 34
0 49 3 40 9 -18 11 43 19 84 10 50 -11 244 -9 217 2 -13 5 -55 12 -93 15 -38
4 -69 11 -69 15 0 5 -27 9 -60 9 -33 0 -60 -4 -60 -9z"/>
<path d="M14720 10875 c-41 -11 -31 -12 119 -19 90 -4 169 -10 175 -14 6 -4
61 -12 121 -19 61 -7 157 -19 215 -27 58 -8 144 -20 193 -27 48 -7 87 -15 87
-20 0 -4 32 -10 70 -14 39 -4 72 -11 75 -15 3 -4 29 -11 60 -15 30 -3 57 -11
60 -16 4 -5 18 -9 32 -9 14 0 39 -6 56 -13 61 -26 102 -40 135 -44 18 -3 35
-9 38 -14 3 -5 14 -9 26 -9 11 0 22 -8 25 -20 3 -11 13 -20 22 -20 10 0 26 -7
37 -15 10 -8 25 -15 32 -15 7 0 34 -9 60 -21 26 -11 58 -25 72 -31 14 -5 39
-16 55 -23 17 -8 48 -21 70 -30 63 -26 97 -41 146 -64 25 -11 51 -21 58 -21 6
0 11 -4 11 -10 0 -5 7 -10 15 -10 8 0 56 -22 107 -49 217 -114 254 -134 267
-144 19 -16 53 -36 74 -43 9 -3 17 -10 17 -15 0 -5 6 -9 13 -9 6 0 34 -16 61
-35 27 -19 55 -35 62 -35 7 0 14 -3 16 -7 4 -9 65 -53 73 -53 3 0 45 -26 93
-57 95 -63 119 -78 142 -89 8 -4 17 -10 20 -13 11 -13 70 -51 79 -51 5 0 11
-3 13 -7 5 -11 66 -53 77 -53 5 0 11 -3 13 -7 5 -11 66 -53 77 -53 5 0 11 -3
13 -7 4 -10 65 -53 73 -53 4 0 12 -6 19 -12 8 -7 24 -20 36 -28 12 -8 50 -35
83 -60 l62 -45 -52 -3 c-43 -2 -66 3 -120 29 -38 18 -70 35 -73 38 -11 13 -70
51 -80 51 -5 0 -10 4 -10 8 0 4 -12 13 -27 20 -16 6 -41 20 -58 31 -16 11 -50
30 -75 43 -25 13 -47 26 -50 30 -3 4 -17 12 -30 18 -14 5 -38 19 -55 30 -16
10 -41 25 -55 33 -61 34 -147 80 -192 104 -26 14 -51 29 -54 34 -3 5 -13 9
-23 9 -10 0 -30 9 -45 21 -14 11 -26 18 -26 14 0 -3 -15 5 -32 19 -18 13 -45
28 -60 31 -16 4 -28 11 -28 16 0 4 -27 20 -60 36 -33 15 -60 31 -60 35 0 4 -8
8 -19 8 -10 0 -24 7 -31 15 -7 8 -18 15 -25 15 -8 0 -26 11 -42 24 -15 13 -50
35 -78 50 -27 15 -57 31 -65 36 -8 5 -22 11 -30 14 -8 4 -28 15 -45 25 -54 35
-230 121 -247 121 -9 0 -18 3 -20 8 -1 4 -30 18 -63 30 -33 13 -69 28 -80 33
-26 11 -101 38 -145 51 -19 5 -39 14 -45 18 -5 4 -26 10 -45 14 -19 3 -48 13
-64 21 -15 8 -32 12 -38 9 -5 -3 -15 0 -21 8 -7 8 -46 25 -87 37 -41 13 -84
27 -95 31 -11 5 -31 11 -45 14 -14 2 31 3 100 1 103 -3 115 -2 70 6 -92 16
-316 38 -485 49 -88 5 -216 14 -285 20 -151 12 -1344 12 -1520 -1 -69 -4 -206
-13 -305 -18 -99 -6 -193 -13 -210 -16 -81 -17 -137 -17 -170 -1 -19 9 -51 23
-70 31 -19 8 -51 22 -69 31 -19 9 -44 14 -56 11 -12 -3 -18 -1 -14 5 5 7 -3 9
-22 5 -17 -3 -69 6 -124 20 -52 14 -117 29 -145 33 -27 4 -77 13 -110 18 -198
35 -493 57 -471 35 4 -4 49 -10 99 -14 62 -4 13 -6 -150 -7 -286 -2 -631 -35
-820 -78 -34 -8 -72 -14 -84 -14 -12 0 -45 -6 -73 -14 -50 -14 -122 -33 -241
-62 -88 -22 -242 -67 -305 -89 -19 -7 -62 -21 -95 -30 -33 -10 -68 -21 -77
-26 -10 -5 -46 -18 -80 -30 -35 -12 -76 -27 -93 -34 -16 -7 -50 -20 -75 -30
-25 -10 -73 -31 -108 -47 -35 -15 -66 -28 -69 -28 -6 0 -320 -156 -343 -170
-41 -26 -172 -100 -176 -100 -3 0 -36 -20 -74 -45 -38 -25 -74 -45 -79 -45 -6
0 -11 -4 -11 -9 0 -5 -13 -14 -30 -21 -16 -7 -30 -16 -30 -21 0 -5 -5 -9 -10
-9 -10 0 -69 -38 -80 -51 -3 -4 -15 -9 -27 -13 -13 -4 -23 -12 -23 -17 0 -5
-7 -9 -15 -9 -9 0 -18 -6 -21 -14 -3 -8 -16 -17 -30 -20 -13 -4 -24 -11 -24
-16 0 -6 -7 -10 -15 -10 -9 0 -18 -6 -21 -14 -3 -8 -16 -17 -30 -20 -13 -4
-24 -11 -24 -16 0 -6 -5 -10 -12 -10 -14 0 23 37 110 108 35 29 60 52 56 52
-12 0 -224 -143 -224 -152 0 -4 -5 -8 -11 -8 -10 0 -323 -231 -344 -254 -5 -6
-44 -38 -85 -71 -103 -82 -168 -148 -176 -179 -8 -32 25 -66 65 -66 14 0 37
-3 51 -6 19 -4 21 -3 10 4 -26 19 15 74 129 175 52 44 61 46 61 9 0 -43 56
-82 129 -89 67 -7 64 -13 -7 -13 -33 0 -64 -4 -67 -10 -3 -5 -22 -10 -41 -10
-19 0 -51 -9 -72 -21 -33 -19 -34 -20 -8 -14 53 11 251 26 278 19 19 -4 28
-12 28 -26 0 -18 1 -18 16 -3 9 9 14 24 11 36 -5 19 -2 21 25 15 17 -3 53 -6
80 -6 l49 0 -18 -30 c-9 -16 -20 -30 -23 -30 -3 0 -24 -17 -45 -38 -22 -20
-64 -56 -94 -80 -56 -44 -54 -43 -191 -48 -49 -2 -160 -17 -394 -54 -49 -7
-71 -7 -76 0 -4 6 -14 8 -23 4 -20 -7 -22 7 -5 24 26 26 -70 12 -247 -35 -70
-18 -179 -70 -202 -95 -20 -22 -27 -22 -47 -2 -15 14 -14 19 10 50 15 19 22
34 16 34 -15 0 -42 -29 -42 -45 0 -7 -7 -15 -15 -19 -8 -3 -15 -12 -15 -21 0
-8 -4 -15 -9 -15 -5 0 -12 -11 -15 -25 -4 -14 -10 -25 -15 -25 -5 0 -12 -13
-16 -30 -4 -16 -10 -30 -15 -30 -5 0 -11 -13 -15 -30 -4 -16 -10 -30 -15 -30
-4 0 -11 -16 -14 -35 -4 -19 -11 -35 -15 -35 -5 0 -11 -18 -15 -39 -3 -22 -11
-41 -16 -43 -6 -2 -13 -21 -17 -43 -3 -22 -12 -44 -20 -48 -7 -4 -13 -19 -13
-32 0 -14 -4 -25 -10 -25 -5 0 -10 -9 -10 -19 0 -11 -7 -26 -15 -34 -8 -8 -17
-33 -21 -56 -4 -23 -10 -41 -15 -41 -14 0 -11 -484 2 -497 7 -7 12 -64 12
-150 1 -76 3 -124 5 -106 4 36 25 49 43 26 10 -11 13 -50 11 -141 l-2 -125 57
-56 c73 -70 132 -121 143 -121 5 0 10 -4 12 -9 4 -12 96 -81 108 -81 6 0 10
-4 10 -8 0 -4 25 -25 55 -47 50 -36 75 -69 62 -81 -2 -3 -18 7 -35 21 -16 14
-32 25 -35 25 -3 0 -23 16 -43 36 -21 19 -51 43 -66 52 -15 9 -28 20 -28 24 0
4 -4 8 -9 8 -29 0 -230 203 -238 241 -3 16 -9 29 -14 29 -5 0 -9 25 -9 55 0
30 -4 55 -10 55 -16 0 -17 -129 -1 -140 5 -3 11 -15 15 -27 4 -13 13 -23 19
-23 7 0 6 -4 -3 -10 -11 -7 -12 -12 -4 -17 6 -5 15 -23 19 -40 3 -18 10 -33
15 -33 5 0 11 -13 15 -30 4 -17 10 -30 15 -30 4 0 11 -11 14 -25 4 -14 11 -25
16 -25 6 0 10 -7 10 -15 0 -9 7 -18 15 -21 8 -4 15 -12 15 -19 0 -14 166 -185
180 -185 4 0 29 -20 53 -45 25 -25 49 -45 53 -45 4 0 22 -16 41 -35 19 -19 38
-35 43 -35 27 0 54 -46 58 -97 2 -29 8 -53 12 -53 5 0 11 -27 15 -60 4 -33 10
-60 15 -60 4 0 10 -19 13 -41 3 -23 10 -45 15 -48 5 -3 12 -24 15 -45 4 -22
10 -42 15 -45 20 -13 19 -60 0 -78 -19 -17 -20 -17 -18 2 4 33 1 45 -11 45 -8
0 -8 -5 1 -15 9 -10 9 -15 1 -15 -6 0 -11 -8 -11 -17 -1 -15 -4 -14 -21 7
l-21 25 3 -24 c5 -30 -20 -41 -28 -12 -8 30 -23 26 -23 -6 l0 -28 -14 27 c-8
15 -17 38 -19 50 -3 18 -5 16 -6 -8 0 -18 -8 -34 -16 -38 -8 -3 -15 -12 -15
-21 0 -27 -17 -16 -23 15 -4 17 -12 30 -18 30 -8 0 -8 -4 1 -15 17 -20 5 -32
-15 -15 -12 10 -18 10 -30 0 -18 -15 -36 -4 -28 17 6 15 5 16 -9 3 -13 -12
-13 -17 -1 -28 17 -17 17 -23 -1 -16 -8 3 -16 -2 -19 -13 -3 -12 -5 -9 -6 10
-1 28 -21 39 -21 11 0 -14 -3 -14 -15 -4 -13 11 -13 15 -3 22 10 7 10 9 -2 5
-18 -5 -16 -47 3 -59 9 -6 9 -8 -1 -8 -8 0 -16 9 -19 20 -7 25 -23 26 -24 3 0
-14 -2 -15 -6 -3 -8 21 -34 50 -45 50 -5 0 -3 -7 5 -15 15 -15 12 -55 -4 -55
-5 0 -10 10 -10 23 -1 17 -2 18 -6 4 -4 -14 -8 -15 -18 -7 -8 6 -11 19 -8 28
5 12 1 11 -16 -5 -13 -12 -21 -27 -18 -35 4 -9 6 -7 6 5 1 9 6 17 11 17 15 0
12 -19 -5 -36 -8 -9 -15 -11 -15 -6 0 17 -29 22 -42 8 -15 -14 -29 -5 -41 27
-3 9 -12 17 -19 17 -10 0 -10 -2 0 -9 8 -4 12 -19 10 -32 l-4 -24 -14 28 c-17
34 -28 34 -36 2 -5 -20 -9 -23 -20 -14 -19 16 -18 36 3 48 10 5 15 12 11 16
-15 15 -52 -39 -51 -74 0 -20 -2 -29 -5 -21 -6 19 -63 80 -75 80 -5 0 5 -14
22 -30 18 -18 28 -37 24 -46 -4 -11 -9 -12 -19 -3 -8 6 -14 18 -14 25 0 8 -4
14 -10 14 -15 0 -12 -47 3 -53 8 -4 8 -6 0 -6 -15 -1 -44 56 -32 63 5 2 4 3
-3 2 -15 -3 -12 -59 3 -64 5 -2 9 -8 9 -14 0 -6 -6 -6 -15 2 -8 7 -15 21 -15
31 0 32 -17 21 -24 -16 -7 -34 -26 -49 -26 -20 0 8 5 15 10 15 6 0 10 7 10 15
0 8 -4 15 -10 15 -14 0 -12 38 3 43 6 2 8 8 4 13 -13 14 -28 -19 -22 -49 3
-18 0 -30 -9 -33 -8 -3 -17 -17 -20 -30 -4 -14 -11 -22 -17 -18 -8 4 -8 9 -1
13 6 3 13 20 16 36 3 17 3 23 0 15 -10 -20 -69 -80 -80 -80 -5 0 -2 5 6 10 13
9 13 11 0 20 -10 6 -11 10 -2 10 17 0 15 21 -5 45 -15 19 -15 19 -9 -7 7 -31
-8 -83 -17 -58 -3 8 -8 24 -10 35 -3 12 -5 7 -6 -13 -1 -20 5 -35 13 -38 8 -3
17 -13 21 -22 4 -10 -6 -5 -24 12 -16 16 -32 36 -34 45 -3 9 -3 0 -2 -19 4
-45 -8 -80 -20 -60 -5 9 -4 15 3 18 17 5 15 27 -4 43 -8 7 -13 20 -11 30 3 12
0 16 -9 12 -17 -6 -19 -30 -3 -35 6 -2 9 -15 6 -28 -4 -24 -4 -24 -18 8 -7 17
-17 32 -21 32 -11 0 -10 -3 6 -35 16 -31 11 -61 -8 -46 -8 7 -11 -16 -10 -85
1 -53 5 -98 8 -102 11 -11 26 21 23 48 -2 14 -2 19 0 13 3 -7 8 -13 13 -13 5
0 10 -7 12 -15 2 -10 7 -12 18 -5 11 7 12 12 3 18 -6 4 -14 21 -17 37 -3 17
-3 23 0 15 4 -8 11 -18 16 -21 5 -3 10 -21 13 -40 2 -18 9 -35 15 -37 5 -2 10
-11 10 -20 -1 -15 -3 -14 -16 3 l-16 20 4 -20 c2 -11 11 -19 19 -19 25 2 15
-42 -17 -71 -15 -14 -23 -25 -19 -25 4 0 23 15 41 34 24 25 30 36 21 45 -8 8
-8 11 2 11 11 0 11 3 1 15 -10 12 -10 15 0 15 9 0 7 7 -5 20 -17 18 -17 20 -2
14 9 -3 18 -11 18 -18 1 -6 2 -17 3 -25 0 -8 7 -16 14 -18 12 -5 15 10 13 52
0 14 1 16 6 5 3 -8 12 -19 19 -23 8 -4 14 -15 14 -22 0 -8 5 -15 10 -15 15 0
12 -47 -2 -53 -10 -4 -10 -6 0 -6 14 -1 16 -47 2 -54 -6 -3 -5 -4 2 -3 8 2 14
23 15 60 2 37 8 63 19 74 15 15 16 15 10 -6 -9 -28 3 -132 15 -132 5 0 9 14 9
31 0 27 2 30 15 19 17 -14 20 -50 5 -50 -5 0 -10 -7 -10 -15 0 -18 19 -20 22
-2 3 31 4 110 1 95 -3 -10 -8 -18 -13 -18 -5 0 -11 8 -13 18 -4 16 -5 16 -6 0
-1 -22 -21 -24 -21 -3 0 8 4 15 9 15 5 0 12 10 14 23 4 21 4 21 6 1 1 -16 8
-21 25 -21 24 0 24 0 8 26 -9 14 -21 29 -27 33 -7 5 -7 8 0 8 25 0 46 -43 49
-101 2 -36 10 -67 18 -75 13 -13 14 -11 10 16 -2 16 -8 30 -13 30 -14 0 -10
30 6 46 8 9 15 11 15 5 0 -18 18 -12 23 7 4 16 5 16 6 0 0 -10 6 -18 11 -18 6
0 10 -8 10 -17 -1 -16 -2 -16 -15 1 -15 20 -15 20 -15 0 -1 -19 -1 -19 -15 0
-13 17 -15 17 -15 3 0 -9 7 -20 15 -25 20 -11 23 -81 4 -93 -11 -7 -11 -9 -1
-9 8 0 16 9 19 20 3 11 10 20 16 20 7 0 7 4 -1 12 -16 16 -15 45 2 51 9 4 13
1 11 -6 -6 -15 12 -44 21 -34 4 3 1 13 -6 22 -10 12 -10 15 1 15 10 0 10 3 1
12 -16 16 -15 46 2 64 13 12 14 10 9 -20 -4 -23 1 -44 13 -65 17 -30 18 -31 0
-44 -12 -9 -16 -22 -13 -38 4 -24 4 -24 6 2 0 15 8 29 16 33 8 3 15 12 15 21
0 8 4 15 9 15 5 0 11 12 13 27 2 14 9 28 16 29 7 1 8 0 2 -3 -13 -6 -13 -53
-1 -53 5 0 12 8 14 18 4 16 5 16 6 0 0 -10 3 -18 6 -18 8 0 42 36 48 51 4 10
6 9 6 -3 1 -9 -7 -22 -16 -27 -16 -9 -16 -12 -3 -21 9 -6 10 -10 3 -10 -14 0
8 -48 29 -62 9 -6 10 -10 2 -15 -9 -6 -9 -11 0 -19 9 -9 12 5 13 60 0 58 -1
63 -6 26 -6 -41 -7 -43 -18 -24 -21 36 5 84 35 65 6 -4 13 -25 14 -48 2 -33 6
-39 17 -30 9 8 10 12 2 15 -15 5 -14 39 2 46 10 5 10 7 0 12 -15 7 -17 34 -3
34 6 0 10 -6 11 -12 0 -7 2 -34 4 -60 3 -30 -1 -52 -9 -61 -11 -10 -10 -15 2
-27 14 -13 15 -12 9 3 -3 9 0 23 8 31 18 17 19 38 4 53 -7 7 -6 12 5 16 10 4
13 1 9 -8 -3 -8 2 -18 11 -21 17 -7 22 -34 6 -34 -14 0 -12 -27 3 -33 9 -4 8
-8 -3 -17 -13 -10 -13 -11 0 -8 9 3 15 18 16 42 0 21 6 41 12 45 6 3 14 19 17
34 8 29 25 37 25 12 0 -8 -4 -15 -10 -15 -14 0 -13 -27 1 -32 6 -2 12 -15 13
-28 0 -13 8 -26 16 -28 12 -4 13 -3 2 10 -10 13 -10 17 1 21 7 3 19 -3 25 -13
6 -10 8 -20 3 -22 -5 -2 -12 -14 -16 -28 -7 -22 -6 -23 9 -8 9 9 16 20 16 24
0 4 7 16 16 26 13 14 14 21 5 32 -9 10 -8 15 3 19 11 4 13 -7 11 -56 -1 -34 0
-51 2 -37 3 14 9 28 14 31 5 3 10 24 11 46 l1 41 29 -28 c15 -16 28 -33 28
-39 0 -6 7 -11 15 -11 8 0 15 -7 15 -15 0 -9 6 -18 14 -21 8 -3 16 -14 19 -25
3 -10 11 -19 19 -19 10 0 10 2 -1 9 -8 5 -14 24 -14 43 1 24 -1 28 -6 14 -6
-15 -10 -16 -16 -7 -4 7 -3 16 3 20 5 3 12 17 15 31 4 25 4 25 6 -2 1 -30 20
-39 22 -10 0 13 2 14 6 2 4 -8 13 -20 21 -26 8 -6 12 -16 8 -22 -10 -17 -24
-15 -29 6 -2 9 -3 4 -1 -13 3 -16 10 -33 17 -37 9 -6 9 -10 1 -15 -9 -6 -8
-12 2 -21 12 -11 13 -7 9 25 -3 25 0 42 12 55 13 14 13 20 3 33 -10 12 -10 15
0 15 10 0 10 3 0 15 -21 26 0 16 25 -11 30 -32 38 -107 9 -83 -10 8 -12 15 -5
17 15 5 14 37 -2 50 -10 9 -13 3 -12 -29 1 -23 7 -44 15 -50 13 -8 13 -10 0
-19 -8 -5 -10 -10 -5 -10 15 0 45 38 45 57 0 15 2 14 14 -3 8 -10 10 -20 5
-22 -13 -5 -11 -29 4 -36 10 -5 10 -7 0 -12 -15 -7 -17 -44 -3 -44 10 0 15 27
11 64 -1 11 6 27 15 37 14 15 14 21 4 34 -7 9 -10 18 -6 22 12 13 21 -10 20
-55 0 -26 2 -39 4 -29 2 9 8 17 13 17 13 0 11 34 -3 48 -7 7 -9 12 -5 12 24 0
89 -100 70 -107 -13 -5 14 -43 30 -43 5 0 4 7 -3 15 -7 9 -14 34 -16 56 -3 27
-12 48 -30 65 -15 13 -23 24 -18 24 5 0 18 -10 29 -22 19 -22 20 -22 23 -4 2
11 9 25 16 31 9 9 11 3 11 -27 0 -22 -1 -35 -3 -29 -2 6 -8 11 -12 11 -5 0 -2
-12 6 -27 7 -16 14 -34 14 -41 0 -7 6 -19 13 -26 9 -10 12 -3 13 33 1 28 -2
38 -6 27 -5 -15 -9 -16 -15 -7 -4 7 -3 16 2 20 6 3 13 13 16 21 4 12 6 11 6
-2 1 -22 17 -24 25 -3 3 8 10 15 16 15 6 0 4 -7 -4 -16 -10 -9 -15 -30 -14
-52 l1 -37 4 33 c4 31 12 37 42 32 13 -1 13 1 2 14 -8 9 -9 16 -3 16 6 0 13 8
15 18 3 9 3 1 2 -18 -2 -19 -4 -41 -4 -47 -1 -19 -19 -16 -23 5 -3 9 -4 -1 -4
-24 0 -33 3 -38 13 -28 7 7 13 18 13 25 0 9 4 8 15 -1 13 -11 12 -16 -10 -36
-15 -13 -22 -24 -17 -24 5 0 19 11 31 24 20 21 21 25 7 39 -18 17 -21 37 -7
37 5 0 12 8 14 18 4 16 5 16 6 0 0 -10 6 -18 11 -18 6 0 10 -5 10 -11 0 -8 -6
-7 -17 2 -14 12 -16 12 -11 -1 3 -8 12 -14 20 -14 19 2 16 -45 -3 -57 -8 -4
-10 -12 -5 -16 5 -4 11 -3 13 4 5 14 50 63 58 63 3 0 5 -7 5 -15 0 -8 -4 -15
-10 -15 -5 0 -10 -9 -10 -20 0 -33 17 -23 24 14 4 19 11 36 17 38 7 2 3 10 -7
18 -16 14 -17 13 -11 -4 6 -16 5 -17 -8 -6 -18 15 -2 32 22 23 15 -6 15 -6 15
-87 0 -51 2 -55 12 -35 7 13 8 26 4 27 -11 5 -10 62 1 62 5 0 12 -12 16 -27 3
-15 12 -31 18 -35 9 -6 8 -11 -3 -19 -13 -9 -13 -10 0 -6 16 5 16 50 0 55 -6
2 -10 12 -10 22 0 10 -7 26 -16 34 -8 9 -12 16 -7 16 11 0 34 -28 53 -64 30
-58 35 -66 42 -66 5 0 8 7 8 15 0 8 -4 15 -9 15 -11 0 -41 57 -41 77 0 8 6 20
13 28 11 11 13 6 13 -27 -1 -28 4 -43 14 -46 12 -4 13 -3 2 10 -20 25 14 32
35 8 10 -11 22 -20 27 -20 6 0 5 5 -2 12 -14 14 -16 28 -3 28 5 0 11 -9 14
-20 3 -11 10 -20 16 -20 15 0 14 33 -1 48 -9 9 -9 12 0 12 6 0 15 -12 18 -27
4 -16 11 -31 16 -34 5 -3 10 -26 10 -50 1 -24 3 -37 5 -27 2 9 11 19 20 22 13
5 14 1 9 -24 -5 -28 -4 -29 9 -16 17 17 20 42 5 51 -15 9 -12 44 5 62 14 14
15 13 9 -11 -4 -17 -1 -33 8 -44 23 -26 28 -50 15 -64 -7 -7 -16 -22 -20 -33
-6 -16 -3 -15 13 5 11 14 24 30 29 36 6 7 5 16 -2 23 -19 19 2 25 23 6 21 -19
26 -41 10 -47 -15 -5 -17 -70 -2 -74 7 -1 8 0 2 3 -13 6 -13 33 0 33 6 0 10 8
10 18 0 9 7 30 15 46 17 33 19 56 5 56 -5 0 -10 -11 -10 -25 0 -22 -2 -24 -14
-13 -10 9 -11 17 -4 26 7 8 7 12 -1 12 -6 0 -11 -6 -11 -12 0 -9 -4 -8 -10 2
-9 13 -11 13 -20 0 -5 -8 -10 -10 -10 -5 0 6 9 18 20 28 11 9 20 12 20 7 0
-17 18 -11 23 8 4 15 5 15 6 1 1 -22 31 -34 31 -13 0 8 6 21 13 28 10 10 12 5
12 -26 0 -21 6 -42 12 -46 6 -4 13 -21 16 -37 l4 -30 2 33 c0 17 6 32 11 32 6
0 10 7 10 15 0 7 8 19 18 24 15 9 15 12 2 21 -9 6 -10 10 -3 10 20 0 27 -22
11 -34 -8 -6 -17 -23 -20 -38 -4 -22 4 -35 44 -74 26 -27 48 -45 48 -42 0 4
-20 26 -44 50 -39 40 -42 46 -30 63 13 18 14 18 14 -3 0 -12 5 -22 10 -22 13
0 13 33 -1 47 -7 7 -6 12 5 16 20 8 46 -18 46 -47 0 -12 5 -27 12 -34 9 -9 9
-12 -2 -12 -9 0 -8 -5 5 -20 10 -11 23 -20 28 -20 6 0 2 6 -9 14 -19 14 -19
15 4 36 12 12 19 26 16 32 -4 6 0 16 8 22 8 6 18 18 21 26 5 11 6 9 6 -5 -2
-34 1 -45 10 -45 5 0 12 8 14 18 4 16 5 16 6 0 0 -10 6 -18 11 -18 13 0 13
-57 0 -63 -6 -3 -5 -4 2 -3 9 2 13 21 13 58 0 44 2 52 12 42 16 -15 17 -104 2
-104 -5 0 -7 -5 -3 -11 9 -16 24 10 24 44 0 15 4 27 9 27 5 0 12 10 14 23 l4
22 2 -23 c0 -13 7 -22 14 -21 24 3 37 -1 37 -12 0 -8 -5 -8 -15 1 -11 9 -15 9
-15 1 0 -6 7 -14 15 -17 16 -7 20 -30 6 -36 -4 -1 -12 -14 -16 -28 -7 -22 -6
-23 8 -8 9 8 19 27 23 42 9 39 22 31 27 -16 l4 -43 1 43 c1 23 7 42 13 42 8 0
8 4 0 14 -9 10 -8 15 3 19 10 4 13 1 10 -7 -6 -15 13 -32 23 -22 3 3 5 16 6
30 0 19 2 22 12 13 7 -7 9 -13 4 -15 -12 -5 -11 -32 1 -32 6 0 10 -5 10 -11 0
-8 -5 -8 -15 1 -10 8 -15 9 -15 2 0 -6 6 -15 14 -19 22 -13 30 -52 12 -59 -9
-3 -13 -10 -11 -15 3 -4 15 1 27 13 15 15 17 22 8 28 -16 10 -16 68 -1 83 8 8
11 -1 11 -31 0 -29 5 -45 15 -48 19 -8 19 -28 0 -44 -8 -7 -15 -20 -15 -30 0
-10 7 -23 15 -30 10 -9 15 -9 15 -1 0 6 -4 11 -10 11 -5 0 -10 9 -10 20 0 11
4 20 9 20 19 0 23 41 7 59 -19 21 -21 57 -3 64 9 4 8 8 -3 17 -13 10 -13 11 0
7 10 -3 14 -14 12 -32 -2 -18 5 -36 18 -50 12 -13 21 -34 20 -47 -4 -40 0 -58
10 -58 14 0 12 27 -2 33 -10 4 -10 6 0 6 17 1 15 48 -3 55 -8 3 -15 11 -15 18
0 9 3 9 10 -2 5 -8 12 -11 17 -7 4 5 3 11 -3 15 -6 4 -14 14 -17 22 -4 12 -6
11 -6 -2 -1 -17 -21 -26 -21 -10 0 14 22 31 35 26 8 -3 12 2 12 12 -1 9 5 19
13 21 13 4 13 3 0 -6 -13 -10 -13 -12 0 -21 10 -6 11 -10 3 -10 -7 0 -13 -7
-13 -15 0 -20 16 -19 30 3 11 16 11 16 6 0 -3 -10 -1 -18 4 -18 6 0 10 -7 10
-15 0 -8 -4 -15 -10 -15 -5 0 -10 -13 -10 -30 0 -16 4 -30 9 -30 10 0 20 70
16 116 -3 30 -1 32 12 18 11 -11 12 -18 4 -28 -7 -8 -8 -17 -3 -20 5 -3 12
-24 16 -46 6 -38 26 -57 26 -25 0 8 -4 15 -10 15 -5 0 -10 16 -10 35 0 19 4
35 9 35 5 0 12 8 14 18 4 16 5 16 6 0 0 -10 5 -18 10 -18 5 0 12 -14 16 -30 6
-27 25 -43 25 -21 0 5 3 18 7 28 6 16 5 16 -10 4 -11 -9 -17 -10 -17 -2 0 11
13 15 38 12 7 -1 15 5 18 14 3 8 11 15 16 15 6 0 5 -6 -2 -15 -8 -9 -8 -15 -2
-15 6 0 4 -12 -5 -31 -9 -18 -21 -28 -29 -25 -8 3 -11 0 -7 -10 3 -7 10 -14
17 -14 6 0 4 -5 -4 -10 -13 -9 -13 -11 0 -20 10 -6 11 -10 3 -10 -7 0 -13 -5
-13 -11 0 -8 4 -8 14 0 7 6 12 24 10 40 -3 23 3 36 28 56 25 21 29 28 17 36
-8 5 -9 9 -4 9 6 0 18 -9 28 -20 14 -17 15 -24 5 -40 -9 -15 -10 -23 -2 -28 6
-4 14 -14 17 -22 4 -12 6 -12 6 2 1 9 12 25 25 35 13 11 26 30 29 44 4 23 4
23 6 -3 2 -50 25 -31 24 19 0 6 5 9 13 6 10 -4 11 -9 1 -24 -9 -15 -9 -21 0
-27 7 -4 15 -30 18 -57 4 -27 11 -55 16 -61 6 -8 6 -14 -1 -17 -6 -3 -5 -4 2
-3 15 3 12 58 -4 67 -6 4 -6 9 2 14 8 5 9 10 2 14 -17 11 -19 63 -2 68 13 4
13 3 0 -6 -11 -8 -12 -13 -3 -19 6 -4 15 -21 19 -37 4 -16 13 -35 20 -42 7 -7
14 -18 17 -25 2 -7 8 -10 12 -6 4 4 0 14 -9 23 -9 9 -16 25 -16 35 0 24 27 51
44 44 8 -3 16 3 19 15 3 12 11 21 19 20 10 0 10 -2 1 -6 -16 -6 -17 -30 -1
-35 9 -3 9 -6 0 -12 -7 -4 -12 -2 -12 5 0 8 -4 8 -15 -1 -12 -10 -15 -10 -15
0 0 10 -3 10 -15 0 -9 -7 -12 -16 -7 -19 5 -3 12 -13 15 -21 4 -12 6 -11 6 3
1 19 20 24 22 5 1 -7 2 -22 3 -32 0 -11 7 -20 14 -22 7 -1 8 0 2 3 -14 7 -13
33 3 33 8 0 7 4 -3 10 -13 9 -13 12 3 21 9 5 17 15 17 20 0 6 7 17 15 25 20
20 19 4 -1 -25 -11 -15 -13 -26 -6 -33 6 -6 12 -1 16 15 3 14 13 28 23 31 16
6 16 6 0 -12 -19 -21 -22 -42 -7 -42 6 0 10 8 11 18 0 11 2 13 6 4 3 -8 -5
-23 -18 -35 -17 -16 -21 -17 -16 -5 4 12 2 15 -9 11 -13 -5 -13 -8 2 -24 9
-11 22 -19 28 -18 6 0 5 3 -2 6 -10 4 -7 12 11 32 31 34 39 67 20 86 -8 8 -11
15 -6 15 4 0 18 -11 31 -24 18 -20 22 -34 21 -77 -2 -34 2 -54 10 -57 9 -3 9
-8 -1 -20 -11 -13 -11 -14 2 -10 17 6 16 51 -1 56 -6 3 -6 8 0 15 5 7 11 23
14 37 3 18 5 15 6 -12 1 -48 17 -49 23 -2 3 23 -1 42 -10 50 -23 23 -1 16 24
-9 13 -12 24 -28 24 -34 0 -7 5 -13 10 -13 14 0 13 -27 -1 -32 -7 -2 -6 -8 3
-16 12 -10 14 -4 14 37 -1 36 2 47 12 44 9 -4 10 -9 1 -19 -7 -9 -7 -14 -1
-14 17 0 20 -58 3 -74 -8 -9 -11 -19 -7 -23 5 -5 11 -2 13 5 3 7 11 19 20 27
8 8 10 15 4 15 -6 0 -11 11 -11 25 0 24 9 30 38 26 6 -1 13 8 13 21 1 21 2 21
6 3 3 -11 8 -22 12 -25 4 -3 1 -16 -7 -30 l-14 -25 7 29 c5 26 4 28 -9 17 -13
-11 -16 -11 -16 -1 0 8 -3 10 -6 7 -4 -4 1 -18 10 -32 9 -14 12 -25 6 -25 -5
0 -10 -9 -10 -20 0 -11 5 -20 10 -20 6 0 10 7 10 16 0 9 9 27 20 41 11 14 20
36 20 48 0 13 6 25 14 28 10 4 12 0 8 -16 -2 -12 -9 -28 -15 -34 -6 -9 -6 -13
3 -13 10 0 9 -4 -1 -16 -7 -9 -14 -34 -15 -56 l-2 -40 14 28 c12 22 12 29 2
35 -10 6 -8 12 6 22 11 8 16 19 12 25 -5 8 -2 10 9 6 12 -5 13 -9 4 -20 -9
-11 -8 -18 4 -32 11 -12 15 -30 11 -57 -4 -38 -4 -39 9 -15 7 14 9 27 5 28 -5
2 -4 10 2 17 8 9 6 14 -5 18 -10 5 -14 16 -11 39 3 18 5 36 5 39 1 4 9 10 18
13 15 6 15 4 -2 -14 -10 -11 -13 -20 -7 -20 6 0 12 -12 14 -27 2 -14 10 -28
18 -30 10 -3 11 -2 4 4 -17 12 -24 62 -8 56 8 -3 15 8 20 31 7 38 24 50 24 16
0 -11 -4 -20 -9 -20 -15 0 -19 -59 -5 -71 11 -9 11 -14 -1 -25 -15 -16 -10
-40 13 -64 13 -12 14 -11 7 10 -4 14 -12 27 -17 29 -5 2 1 15 15 30 13 14 27
41 31 59 3 18 13 40 21 48 19 20 20 4 0 -22 -16 -21 -20 -54 -6 -54 5 0 11 9
14 20 3 11 11 20 19 19 10 0 10 -2 1 -6 -15 -6 -17 -33 -3 -33 13 0 13 -27 0
-32 -16 -5 -17 -60 -2 -64 7 -1 8 0 2 3 -12 6 -13 33 -1 33 5 0 12 12 15 26 4
14 17 35 30 47 13 12 26 29 29 37 4 12 6 11 6 -2 1 -10 6 -18 13 -18 9 0 9 -3
0 -12 -15 -15 -16 -55 -1 -64 8 -5 8 -8 0 -14 -9 -5 -8 -10 2 -18 11 -10 13
-2 11 41 -1 28 0 42 3 30 7 -33 23 -28 23 6 0 37 9 61 23 61 7 0 7 -4 -1 -12
-15 -15 -16 -78 -1 -78 5 0 7 -5 3 -11 -5 -8 -9 -8 -14 1 -5 7 -7 2 -7 -13 0
-24 1 -25 16 -10 9 9 16 26 17 37 2 52 5 66 13 66 5 0 11 -10 13 -22 3 -21 4
-21 21 -3 13 13 18 14 17 4 -4 -26 0 -37 16 -43 13 -5 15 -2 11 13 -3 14 -1
18 9 14 15 -6 19 -33 5 -33 -5 0 -11 -19 -15 -42 -4 -23 -12 -46 -19 -50 -9
-6 -9 -8 1 -8 7 0 15 8 18 18 3 9 9 24 14 33 20 37 22 86 5 102 -9 10 -13 17
-8 17 13 0 43 -38 43 -54 0 -7 9 -21 20 -31 12 -10 18 -25 16 -32 -3 -7 -1
-15 5 -19 6 -3 14 -16 19 -28 7 -16 9 -17 9 -4 1 9 -6 23 -14 32 -11 10 -12
17 -4 22 8 5 7 10 -5 16 -25 14 -19 88 7 88 7 0 7 -4 -1 -12 -14 -14 -16 -68
-3 -68 5 0 12 12 14 27 l4 28 2 -27 c1 -31 17 -38 24 -10 4 16 5 16 6 0 0 -10
5 -18 10 -18 5 0 11 -10 13 -22 2 -12 9 -23 16 -24 7 -1 8 0 2 3 -14 7 -13 40
3 46 6 2 8 8 4 13 -4 5 -12 2 -16 -5 -6 -9 -8 -5 -8 13 l0 26 23 -25 c27 -30
34 -31 35 -7 0 13 2 14 6 2 3 -8 11 -18 17 -22 8 -5 7 -11 -2 -20 -9 -9 -12
-8 -12 8 -1 19 -1 19 -12 -1 -11 -19 -11 -19 -19 0 -7 18 -8 18 -8 2 -1 -10 6
-20 14 -23 12 -5 13 -10 4 -20 -9 -11 -8 -14 1 -14 9 0 9 -4 2 -12 -7 -9 -6
-17 3 -25 11 -10 13 -4 11 31 -2 49 17 55 29 9 3 -14 13 -33 22 -41 14 -15 15
-14 8 8 -4 14 -12 27 -16 28 -15 6 -10 22 14 45 13 12 26 30 30 40 3 9 12 17
19 16 10 0 10 -2 1 -6 -15 -6 -17 -33 -3 -33 6 0 10 -7 10 -15 0 -21 -18 -19
-23 2 -4 17 -5 17 -6 1 0 -10 -5 -18 -11 -18 -18 0 -10 -21 20 -52 17 -16 30
-25 30 -19 0 5 -8 15 -17 20 -15 9 -15 12 -4 20 11 7 15 25 20 84 1 4 6 7 12
7 8 0 8 -5 -1 -15 -9 -10 -9 -15 -1 -15 14 0 14 -57 0 -62 -8 -3 -7 -7 2 -15
11 -9 15 -3 17 35 5 74 19 74 24 1 2 -29 -2 -52 -11 -63 -12 -15 -12 -19 2
-33 15 -15 16 -15 11 4 -3 11 1 27 10 36 12 11 13 17 3 21 -8 3 -7 8 6 16 9 6
17 18 17 27 0 14 -2 14 -15 -3 -13 -17 -14 -17 -15 -1 0 9 4 17 9 17 5 0 12 8
14 17 4 17 5 17 6 1 2 -27 20 -22 27 7 3 14 10 25 15 25 14 0 11 -28 -3 -33
-10 -4 -9 -8 2 -16 12 -8 12 -13 2 -23 -9 -9 -12 -8 -12 7 0 18 -1 17 -16 -3
-9 -13 -13 -26 -9 -30 3 -3 9 -1 13 5 4 7 13 9 20 4 9 -5 6 -14 -12 -30 -24
-23 -24 -23 -5 -44 10 -11 22 -17 26 -14 3 4 2 7 -4 7 -21 0 -22 30 -2 49 12
11 18 24 15 29 -9 15 22 42 39 36 9 -4 15 0 15 9 0 8 -6 18 -12 20 -10 4 -10
6 0 6 8 1 16 -8 19 -19 3 -11 9 -20 14 -20 5 0 9 -7 9 -15 0 -21 -18 -19 -22
3 -2 9 -4 -5 -4 -33 0 -27 1 -40 3 -28 2 12 11 27 20 35 15 12 16 9 11 -29 -5
-36 -4 -40 8 -28 8 7 14 26 15 42 0 16 3 22 6 13 4 -8 12 -20 19 -28 7 -7 10
-20 7 -29 -5 -12 -2 -12 15 3 12 10 22 24 22 30 0 7 6 14 13 17 6 2 8 8 4 13
-4 5 -12 2 -17 -6 -7 -10 -10 -11 -10 -2 0 6 -5 12 -11 12 -8 0 -7 -5 1 -15
10 -12 10 -19 2 -27 -8 -8 -13 -4 -18 16 -3 14 -10 26 -15 26 -14 0 -10 27 5
33 10 4 12 0 9 -14 -4 -15 -2 -18 11 -13 16 6 20 17 17 43 -2 11 0 11 12 0 9
-9 11 -16 5 -20 -6 -4 -2 -15 11 -28 25 -25 28 -26 34 -3 4 16 5 16 6 0 2 -27
21 -21 21 6 0 33 10 56 23 56 7 0 7 -4 -1 -12 -14 -14 -16 -68 -2 -68 5 0 12
11 16 25 3 14 10 25 15 25 14 0 11 -28 -3 -34 -10 -5 -10 -7 0 -12 6 -3 12
-18 12 -33 0 -14 6 -35 14 -46 7 -11 16 -27 19 -35 2 -8 3 -1 0 15 -2 17 -8
32 -13 33 -15 5 -12 79 3 84 21 8 37 -3 37 -24 0 -12 16 -36 35 -55 l35 -34
-4 29 c-2 21 1 29 12 28 8 0 17 6 20 14 5 13 3 13 -11 1 -11 -9 -17 -10 -17
-2 0 11 13 15 37 12 6 -1 14 6 16 16 4 17 5 17 6 1 0 -10 6 -18 13 -18 9 0 9
-3 0 -12 -14 -14 -16 -48 -3 -48 5 0 11 14 15 31 3 16 13 37 21 45 19 20 20 4
0 -22 -16 -21 -20 -54 -6 -54 5 0 12 10 15 23 2 12 4 5 2 -15 -3 -50 22 -31
26 19 2 20 9 38 16 39 7 1 8 0 2 -3 -14 -6 -13 -36 2 -51 9 -9 8 -16 -5 -30
-24 -26 -21 -37 4 -13 14 13 19 26 15 39 -7 22 2 52 15 52 5 0 4 -10 -3 -21
-10 -17 -10 -23 0 -26 14 -5 17 -43 3 -43 -13 0 -21 -27 -15 -45 4 -8 11 -15
16 -15 6 0 5 7 -2 15 -10 13 -10 19 4 33 9 10 16 26 16 34 0 9 6 18 13 21 6 2
8 8 4 13 -4 5 -12 2 -17 -6 -6 -9 -10 -10 -10 -3 0 7 8 17 18 22 15 9 15 12 2
21 -8 5 -10 10 -5 10 6 0 22 -13 35 -30 29 -34 40 -37 41 -12 0 13 2 14 6 2 3
-8 9 -17 13 -20 4 -3 2 -11 -6 -18 -8 -7 -14 -8 -14 -2 0 5 -5 10 -11 10 -8 0
-8 -5 1 -15 9 -11 10 -18 1 -29 -9 -10 -8 -15 4 -19 8 -4 14 -3 14 1 -6 39 18
59 28 23 3 -11 11 -22 18 -25 16 -6 8 23 -11 39 -13 11 -7 85 7 85 5 0 9 -18
9 -39 0 -24 8 -48 19 -62 l20 -24 -6 23 c-4 18 -2 21 11 16 15 -6 20 -17 17
-37 -1 -4 8 -3 19 3 24 13 27 -2 5 -23 -13 -13 -12 -17 2 -29 15 -11 16 -11
10 4 -3 10 0 24 9 33 13 13 14 17 1 29 -10 10 -18 11 -24 5 -7 -7 -12 -5 -16
6 -4 9 1 22 13 32 11 10 20 23 20 30 0 7 5 13 10 13 16 0 12 -12 -16 -41 l-25
-26 25 0 c19 0 26 5 27 21 1 20 2 20 6 1 2 -11 8 -29 13 -40 5 -11 11 -32 14
-47 4 -16 12 -28 18 -28 9 0 9 3 0 12 -15 15 -16 54 -2 63 13 8 13 45 1 45 -5
0 -12 -10 -14 -22 -2 -13 -3 -8 -1 11 7 70 26 53 32 -29 5 -69 21 -81 24 -17
0 23 2 47 3 52 2 6 3 16 4 23 0 6 6 12 12 12 8 0 8 -5 -1 -15 -10 -12 -10 -15
1 -15 10 0 10 -3 1 -12 -14 -14 -16 -48 -3 -48 5 0 11 -9 14 -20 3 -11 11 -20
19 -19 10 0 10 2 1 6 -14 5 -18 33 -5 33 4 0 15 -9 24 -19 15 -17 15 -20 -1
-35 -15 -16 -15 -17 1 -11 25 10 29 31 7 51 -13 11 -19 29 -18 53 2 28 3 30 6
10 2 -15 17 -39 34 -55 16 -15 29 -36 29 -46 0 -10 5 -18 10 -18 14 0 12 37
-2 43 -10 4 -9 8 2 17 13 10 13 11 -2 7 -25 -8 -49 14 -42 41 7 25 21 29 26 7
2 -11 7 -12 18 -4 11 8 12 12 3 16 -15 6 -17 33 -3 33 6 0 11 -6 11 -12 1 -7
3 -24 4 -37 1 -13 9 -27 16 -32 10 -6 11 -9 2 -9 -7 0 -13 -7 -13 -15 0 -8 4
-15 9 -15 16 0 19 -40 4 -55 -8 -8 -11 -15 -6 -15 5 0 16 9 26 20 9 11 12 20
7 20 -15 0 -12 19 5 36 8 9 15 24 15 34 0 10 6 20 13 23 9 3 12 -5 9 -29 -2
-19 -9 -34 -14 -34 -7 0 -7 -4 0 -12 5 -7 12 -24 15 -38 2 -14 4 -3 4 23 0 27
4 52 10 55 5 4 13 14 16 22 4 12 6 11 6 -2 1 -10 6 -18 11 -18 6 0 10 -9 10
-20 0 -27 -18 -25 -23 3 -4 22 -4 22 -6 0 0 -12 5 -28 12 -35 7 -7 16 -21 20
-31 3 -9 12 -17 19 -17 10 0 10 2 -1 9 -18 12 -22 131 -3 124 9 -4 10 -9 2
-18 -8 -9 -8 -14 0 -17 6 -2 11 -14 12 -28 1 -14 9 -33 17 -43 9 -11 16 -26
16 -35 0 -8 7 -17 15 -19 13 -4 13 -3 0 6 -13 10 -13 12 0 21 8 5 10 10 4 10
-22 0 -23 30 -3 49 21 19 19 41 -3 41 -7 0 -7 -5 1 -14 15 -18 -9 -29 -30 -14
-11 8 -10 9 4 4 20 -6 23 12 3 20 -12 5 -12 9 2 25 9 10 21 19 27 19 5 0 4 -4
-4 -9 -11 -7 -8 -14 15 -34 27 -23 28 -26 13 -44 -17 -19 -15 -43 3 -43 7 0 7
4 0 13 -7 8 -6 16 4 25 12 11 14 10 14 -3 0 -29 19 -15 26 19 9 50 30 54 26 5
-2 -22 -8 -42 -13 -44 -4 -3 1 -15 11 -25 25 -25 39 -26 18 -2 -10 11 -14 28
-11 50 7 44 23 41 24 -5 2 -33 3 -34 6 -9 3 16 11 35 19 43 8 8 12 19 9 24 -4
5 1 6 10 2 14 -5 14 -8 3 -15 -10 -7 -10 -11 0 -15 6 -2 12 -10 12 -17 0 -6 9
-12 20 -12 25 0 26 11 3 26 -17 11 -17 11 0 6 11 -3 17 0 17 9 0 8 5 15 10 15
6 0 10 -5 10 -12 0 -6 7 -20 16 -29 10 -12 17 -36 17 -66 0 -26 2 -37 5 -23 2
14 9 28 16 32 8 6 8 8 -1 8 -9 0 -13 16 -13 45 0 25 5 45 10 45 6 0 10 -15 10
-34 0 -19 6 -41 14 -49 11 -10 12 -17 4 -25 -8 -8 -8 -15 2 -27 10 -12 10 -15
0 -15 -10 0 -10 -3 -1 -14 8 -10 9 -16 1 -19 -6 -3 -5 -4 2 -3 8 2 13 19 13
46 0 26 5 45 13 47 6 3 12 0 12 -5 0 -17 44 -80 59 -87 12 -5 12 -3 -1 12 -8
10 -18 26 -21 35 -4 10 -11 18 -17 18 -14 0 -13 27 3 33 6 2 8 8 4 13 -4 5
-12 2 -16 -5 -7 -11 -10 -11 -15 0 -5 11 -7 11 -12 2 -4 -10 -9 -10 -20 1 -18
19 -18 34 1 52 13 13 14 12 9 -15 -8 -37 -2 -39 26 -8 19 19 23 20 33 7 13
-16 73 -60 82 -60 3 0 6 17 7 38 1 36 1 36 5 5 2 -18 6 -33 9 -33 3 0 17 12
31 28 16 16 24 20 20 10 -3 -10 0 -24 8 -32 17 -17 20 -36 5 -36 -5 0 -10 -7
-10 -15 0 -8 5 -15 11 -15 8 0 8 -5 -1 -15 -9 -10 -9 -15 -1 -15 12 0 15 12
11 45 -2 20 -2 20 19 1 12 -11 21 -25 21 -33 0 -7 5 -13 10 -13 14 0 12 28 -2
32 -7 3 -11 20 -10 45 2 27 -3 46 -13 57 -9 9 -13 16 -8 16 17 0 43 -41 43
-69 0 -16 8 -37 18 -47 9 -10 18 -22 18 -28 1 -6 2 -17 3 -23 0 -7 6 -13 12
-13 8 0 8 5 -1 15 -10 12 -10 15 0 15 10 0 10 3 0 15 -8 9 -8 15 -2 15 6 0 4
12 -4 30 -9 17 -20 30 -26 30 -6 0 -8 3 -5 7 4 4 23 -9 42 -27 25 -24 31 -36
22 -42 -9 -6 -9 -8 0 -8 7 0 16 7 21 16 7 13 13 11 35 -16 18 -21 27 -26 27
-16 0 9 5 16 10 16 6 0 11 21 12 48 l1 47 4 -42 c2 -24 9 -43 15 -43 7 0 7 -5
-1 -14 -9 -10 -8 -15 2 -19 10 -4 13 6 11 41 -1 26 0 36 3 22 3 -14 10 -28 16
-32 5 -3 10 -24 10 -46 0 -31 3 -37 12 -28 10 8 10 13 1 19 -8 5 -7 10 4 17
10 6 11 10 3 10 -20 0 -15 21 11 45 13 12 26 28 29 36 4 10 6 10 6 -3 1 -10 5
-18 10 -18 5 0 16 -13 25 -30 8 -16 10 -30 5 -30 -5 0 -11 11 -15 25 -6 26
-24 35 -24 12 0 -7 20 -33 45 -57 25 -24 45 -39 45 -33 0 7 -7 16 -16 21 -11
6 -17 25 -18 58 -2 27 -1 37 1 21 4 -28 23 -38 23 -12 0 7 8 19 18 24 15 9 15
12 2 22 -13 9 -13 10 0 6 10 -2 16 -19 18 -47 2 -24 7 -50 13 -56 7 -8 6 -14
-1 -17 -6 -3 -5 -4 2 -3 9 2 13 19 12 49 -1 45 0 46 18 30 10 -9 18 -22 18
-30 0 -7 5 -13 10 -13 15 0 12 48 -2 53 -7 2 -9 8 -5 13 11 11 27 -15 27 -43
0 -28 16 -30 23 -3 3 11 11 20 19 19 10 0 10 -2 1 -6 -7 -2 -13 -12 -13 -21 0
-10 -9 -34 -20 -55 -24 -44 -25 -54 -5 -34 7 8 17 26 21 41 3 14 10 26 15 26
5 0 9 6 9 13 0 7 8 20 18 28 18 15 19 14 20 -19 1 -20 5 -38 10 -41 5 -3 12
-13 15 -21 3 -8 4 8 2 35 -3 28 -2 41 1 30 3 -11 12 -27 20 -36 8 -9 12 -29
10 -46 -2 -24 0 -30 11 -26 10 4 11 9 3 18 -8 9 -8 14 0 17 6 2 12 17 14 33 3
30 19 44 31 26 9 -16 23 -13 29 7 2 9 4 4 3 -12 -2 -35 -22 -46 -30 -16 -3 11
-10 20 -16 20 -7 0 -6 -9 4 -24 9 -13 15 -28 14 -32 -3 -21 2 -32 19 -38 16
-7 16 -6 0 10 -16 16 -15 19 14 47 24 24 29 36 24 59 -5 25 -4 27 8 15 8 -7
15 -22 17 -32 4 -18 5 -18 22 -1 9 10 17 12 17 6 0 -6 -7 -13 -15 -16 -8 -4
-15 -12 -15 -20 0 -17 16 -19 25 -3 4 6 14 8 22 5 11 -5 13 -2 9 10 -5 14 -4
15 8 5 8 -6 17 -27 20 -46 7 -35 26 -49 26 -19 0 14 3 14 15 4 11 -9 12 -15 5
-20 -8 -5 -7 -10 3 -18 11 -10 14 -5 14 27 0 22 7 46 15 54 13 14 15 11 15
-24 0 -24 7 -47 16 -57 21 -20 22 -4 2 25 -10 14 -11 23 -4 25 6 2 12 16 12
30 2 25 3 25 20 11 9 -9 17 -24 17 -35 0 -31 19 -20 22 14 2 17 9 33 16 34 7
1 8 0 2 -3 -14 -7 -13 -83 1 -83 8 0 8 -5 -1 -15 -9 -10 -9 -15 -1 -15 12 0
14 11 11 48 -1 13 8 33 19 43 12 11 21 15 21 10 0 -6 -8 -15 -17 -20 -15 -9
-16 -12 -4 -20 8 -5 14 -24 14 -43 -1 -18 2 -26 5 -18 3 8 12 20 20 26 10 7
13 21 9 40 l-5 29 18 -22 c12 -15 17 -36 15 -60 -1 -21 0 -27 2 -13 3 14 10
29 16 33 9 6 9 10 0 14 -15 5 -18 53 -4 53 5 0 11 -12 13 -27 l3 -28 20 23
c11 12 24 22 30 22 5 0 4 -4 -4 -9 -11 -7 -9 -13 8 -30 11 -11 23 -21 26 -21
11 0 4 29 -7 33 -10 4 -10 6 0 6 8 1 16 -8 19 -19 8 -30 21 -24 26 13 l4 32 1
-32 c2 -39 10 -41 36 -9 18 21 21 22 38 7 10 -8 18 -26 18 -38 0 -13 5 -23 11
-23 8 0 8 -5 -1 -15 -9 -10 -9 -15 -1 -15 12 0 14 9 12 50 -1 29 14 58 26 47
4 -5 1 -12 -7 -17 -12 -8 -13 -13 -2 -27 7 -10 15 -26 18 -35 8 -24 20 -22 27
4 7 24 1 38 -15 38 -7 0 -6 -6 2 -15 7 -9 8 -15 2 -15 -14 0 -23 28 -11 36 18
11 48 -29 51 -67 2 -25 7 -35 16 -32 8 3 9 10 4 17 -5 6 -12 31 -15 56 -3 25
-3 37 0 28 6 -23 31 -24 29 -2 0 9 6 19 14 21 13 4 13 3 0 -6 -13 -9 -13 -12
-1 -20 16 -10 41 -4 41 10 0 5 9 1 20 -8 11 -10 20 -28 20 -40 0 -13 5 -23 10
-23 13 0 13 77 0 83 -6 3 -5 4 2 3 7 -1 14 -15 16 -29 2 -15 8 -27 13 -27 14
0 11 -27 -5 -33 -7 -3 -13 -17 -13 -30 0 -20 2 -23 12 -14 9 9 10 14 1 20 -8
5 -6 11 7 18 10 6 17 22 17 39 0 50 20 33 22 -17 1 -44 2 -45 5 -10 5 42 20
49 29 12 3 -13 13 -30 21 -37 14 -11 15 -10 8 12 -4 14 -11 27 -15 30 -4 3 -2
11 6 18 8 7 14 8 14 2 0 -17 18 -11 23 7 3 13 5 14 6 3 1 -8 15 -23 32 -33 22
-12 30 -23 26 -36 -3 -14 -1 -18 9 -14 22 8 23 71 1 85 -9 6 -9 8 0 8 12 0 38
-47 46 -85 3 -12 5 -7 6 13 1 42 21 65 39 46 7 -7 12 -20 12 -28 0 -21 27 -9
33 15 3 10 11 19 19 18 10 0 10 -2 1 -6 -13 -5 -18 -33 -7 -33 4 0 12 7 19 17
16 22 37 7 35 -25 -3 -42 -1 -52 11 -52 8 0 8 5 -1 15 -8 9 -8 15 -2 15 6 0
13 13 17 30 4 16 10 30 15 30 5 0 11 -14 15 -30 4 -17 11 -30 17 -30 6 0 3 -9
-7 -20 -19 -21 -14 -70 7 -70 9 0 9 3 0 12 -16 16 -15 36 2 53 8 8 12 27 10
45 -3 28 -2 30 12 15 9 -8 17 -30 18 -48 4 -45 5 -47 16 -47 6 0 5 8 -2 21
-11 17 -10 22 5 30 9 6 17 15 17 20 0 6 6 17 14 24 11 12 13 7 11 -28 -1 -23
-1 -32 2 -19 5 27 20 29 28 2 3 -11 11 -20 17 -20 6 0 6 -6 -2 -15 -7 -9 -8
-15 -2 -15 16 0 22 28 7 40 -7 6 -15 20 -18 32 -5 18 -1 16 26 -10 27 -26 34
-28 45 -16 7 8 8 14 2 14 -5 0 -10 7 -10 15 0 25 17 17 24 -11 5 -20 1 -33
-15 -50 -29 -31 -19 -31 15 1 26 24 35 69 16 78 -6 3 -5 4 2 3 7 -1 14 -18 16
-37 2 -19 8 -39 13 -45 6 -8 4 -14 -6 -18 -8 -3 -15 -10 -15 -16 0 -5 8 -3 19
6 14 13 18 26 15 58 -3 30 -2 36 5 21 5 -11 21 -31 35 -44 14 -14 26 -33 26
-43 0 -10 5 -18 10 -18 14 0 12 29 -3 45 -8 7 -13 24 -12 37 2 29 30 31 29 2
-1 -28 23 -20 29 9 2 12 4 4 3 -17 -1 -27 4 -40 14 -43 13 -4 13 -3 0 6 -11 8
-12 13 -4 19 7 4 13 16 15 26 5 26 27 32 36 9 4 -10 13 -23 21 -29 8 -6 12
-16 8 -22 -5 -8 -1 -10 9 -6 14 6 14 8 0 24 -8 9 -13 25 -9 34 8 21 24 21 24
-1 0 -9 7 -25 16 -35 14 -14 14 -20 4 -33 -8 -9 -8 -15 -2 -15 6 0 14 10 18
22 4 13 14 29 23 35 15 12 14 14 -3 28 -11 8 -15 15 -9 15 5 0 18 -9 28 -20
15 -16 15 -22 5 -35 -8 -9 -8 -15 -2 -15 6 0 13 -8 15 -18 3 -9 5 -4 4 12 -2
32 19 47 26 19 4 -17 5 -17 6 0 0 9 5 17 10 17 5 0 12 8 14 18 4 16 5 16 6 0
1 -21 17 -24 24 -5 4 10 6 10 6 0 1 -7 8 -13 17 -13 11 0 14 5 10 17 -6 15 -5
16 11 1 10 -8 24 -13 31 -11 8 3 16 -4 19 -16 3 -12 10 -21 15 -21 6 0 5 -7
-2 -15 -7 -8 -9 -15 -6 -15 10 0 56 51 56 61 0 5 5 9 10 9 6 0 10 -9 10 -20 0
-11 -4 -20 -9 -20 -5 0 -11 -9 -14 -19 -3 -13 -1 -18 8 -15 7 3 16 17 20 32 4
15 12 30 18 34 9 6 8 11 -3 18 -8 5 -10 10 -5 10 12 0 45 -36 45 -50 0 -21 23
-21 46 1 19 17 24 19 24 7 0 -9 -6 -21 -14 -27 -13 -11 -12 -15 5 -32 25 -25
37 -25 15 0 -10 11 -15 25 -11 30 10 17 25 13 26 -6 0 -14 2 -15 6 -3 18 44
63 62 63 24 0 -22 18 -16 22 8 2 12 9 23 16 24 7 1 8 0 2 -3 -14 -7 -13 -33 2
-33 6 0 3 -9 -7 -20 -17 -19 -17 -20 -1 -14 9 4 20 19 23 35 3 16 9 29 14 29
13 0 11 -87 -1 -93 -6 -3 -5 -4 2 -3 7 1 14 19 16 39 3 40 17 49 27 18 3 -11
13 -22 21 -25 11 -4 14 -15 10 -38 -3 -18 -3 -26 1 -18 3 8 11 18 17 22 7 4 4
14 -8 27 -19 20 -18 21 7 47 30 30 49 24 47 -14 -3 -42 -1 -52 11 -52 8 0 8 5
-1 15 -9 10 -9 15 -1 15 6 0 11 6 11 14 0 26 21 29 45 6 15 -14 21 -28 17 -39
-5 -13 -2 -12 14 3 10 11 19 26 19 35 0 8 7 16 15 18 13 4 13 3 0 -6 -13 -9
-13 -11 2 -11 9 0 23 6 30 13 11 12 16 12 26 1 13 -15 38 -9 45 9 2 7 3 5 2
-4 -1 -9 6 -21 16 -27 11 -7 16 -18 12 -28 -5 -14 -3 -14 15 2 15 13 20 25 16
43 l-6 26 15 -27 c9 -15 17 -35 20 -45 3 -10 5 -3 6 15 0 17 5 32 10 32 5 0
12 -15 15 -32 7 -37 36 -82 36 -57 0 8 -7 24 -15 35 -18 24 -19 42 -1 60 13
12 15 11 13 -13 -1 -19 3 -28 13 -28 9 0 14 8 13 19 -1 17 0 17 15 2 13 -12
14 -19 4 -28 -14 -14 -16 -28 -2 -28 5 0 12 16 16 35 8 44 24 46 25 3 1 -25 3
-27 6 -10 3 15 10 22 19 18 11 -4 13 1 8 22 l-6 27 14 -25 c9 -16 21 -24 34
-22 16 2 17 1 4 -8 -13 -10 -13 -11 0 -7 8 2 14 12 13 22 -1 16 0 16 15 2 14
-15 14 -18 -2 -36 -10 -11 -16 -26 -13 -33 4 -10 6 -10 6 1 1 7 13 25 28 38
21 20 24 27 12 35 -12 8 -12 9 1 5 11 -2 15 -17 14 -49 0 -35 3 -45 13 -41 10
4 11 9 4 16 -15 15 -14 36 5 54 12 13 15 13 14 2 -4 -26 0 -37 17 -43 15 -6
15 -4 -2 14 -10 11 -13 20 -7 20 6 0 13 8 15 18 4 13 5 13 6 -4 2 -32 23 -45
41 -26 13 14 12 15 -3 9 -12 -4 -16 -3 -12 4 4 6 13 8 21 5 8 -3 14 1 14 9 0
8 5 15 10 15 6 0 10 -6 10 -14 0 -7 6 -19 14 -26 8 -6 16 -21 18 -32 2 -12 10
-23 18 -25 10 -3 11 -2 4 4 -6 4 -14 26 -17 48 -5 29 -4 34 2 19 13 -30 24
-34 41 -16 13 14 12 15 -2 10 -12 -5 -15 -2 -11 13 3 10 9 19 13 19 10 0 20
-40 16 -65 -2 -11 -1 -14 1 -7 3 6 9 12 14 12 5 0 9 12 9 28 l0 27 13 -25 c9
-17 10 -28 3 -33 -7 -5 -5 -7 4 -4 8 2 15 12 15 22 0 27 23 30 27 4 2 -12 9
-24 16 -25 7 -1 8 0 2 3 -7 3 -7 9 -1 16 5 7 11 21 14 32 3 13 5 9 6 -12 0
-18 6 -33 11 -33 14 0 13 -33 -2 -48 -9 -9 -9 -12 -1 -12 16 0 25 33 18 63 -4
14 -2 28 5 32 15 9 48 -21 52 -48 2 -11 10 -22 18 -24 10 -3 11 -2 4 4 -6 4
-14 26 -17 48 -3 22 -3 32 0 22 3 -11 11 -16 19 -13 9 3 14 -1 14 -13 0 -10 6
-24 14 -30 12 -10 14 -6 11 26 -1 21 -1 28 2 16 2 -12 11 -24 18 -27 17 -6 48
21 40 35 -4 5 1 6 9 3 18 -7 22 -34 6 -34 -5 0 -10 -7 -10 -15 0 -27 18 -16
25 15 11 51 30 33 28 -27 0 -6 6 -9 14 -6 10 4 11 9 4 16 -13 13 -14 57 -2 57
5 0 11 -10 13 -22 2 -12 10 -23 18 -25 12 -4 12 -2 2 5 -10 7 -10 11 3 22 12
10 15 10 15 -4 0 -9 5 -16 12 -16 9 0 9 -3 0 -12 -14 -14 -16 -48 -3 -48 5 0
11 -8 14 -17 2 -10 3 11 1 47 -1 36 0 57 3 48 6 -23 12 -23 29 -1 12 17 14 17
32 -2 10 -12 22 -27 25 -35 4 -11 6 -11 6 -2 1 7 10 22 21 34 l20 22 20 -22
c11 -12 27 -19 35 -16 11 4 15 -1 16 -17 1 -21 2 -21 6 -4 3 11 10 23 16 27 6
4 8 10 4 15 -5 4 -13 1 -18 -7 -9 -13 -10 -13 -6 0 7 26 32 17 35 -12 4 -35
22 -37 22 -4 0 32 19 44 35 23 16 -22 22 -21 28 1 4 16 5 16 6 0 0 -10 6 -18
11 -18 6 0 10 -7 10 -15 0 -8 -5 -15 -12 -15 -6 0 -3 -9 7 -20 10 -11 23 -20
29 -20 6 0 5 4 -2 9 -7 4 -15 25 -16 47 -2 21 -2 33 1 27 7 -18 33 -16 33 2 0
8 5 15 10 15 6 0 10 -7 10 -15 0 -8 -4 -15 -10 -15 -15 0 -12 -27 4 -33 10 -4
13 -1 10 8 -3 8 -1 22 5 32 6 10 11 13 11 6 0 -8 17 -11 53 -8 28 1 58 -2 65
-8 10 -8 16 -7 23 4 8 10 9 9 4 -8 -4 -15 0 -25 12 -32 16 -9 16 -12 3 -21 -9
-6 -10 -10 -3 -10 20 0 27 22 11 34 -12 9 -13 15 -4 27 6 9 17 14 24 11 10 -3
10 -7 1 -18 -7 -9 -8 -14 -1 -14 6 0 14 9 17 20 3 11 11 20 16 20 12 0 12 -37
-1 -43 -6 -3 -5 -4 2 -3 7 1 14 12 16 24 4 26 17 29 26 6 4 -9 -1 -25 -9 -34
-14 -16 -14 -18 0 -24 10 -4 14 -2 9 6 -4 6 1 17 12 25 15 11 16 16 6 22 -11
7 -11 9 1 14 21 8 35 -5 40 -38 4 -27 4 -27 6 8 1 39 20 52 22 15 0 -16 2 -18
6 -8 9 22 25 30 43 20 8 -4 22 -4 31 0 23 13 40 -3 43 -41 4 -48 5 -49 17 -49
8 0 8 5 -1 15 -10 12 -10 18 0 30 9 10 9 15 1 15 -6 0 -11 9 -11 20 0 11 5 20
10 20 6 0 10 -4 10 -10 0 -5 8 -7 18 -4 14 5 15 4 2 -5 -10 -8 -12 -13 -4 -18
6 -5 14 -15 18 -23 3 -8 4 -4 2 8 -5 27 2 52 15 52 5 0 10 -10 10 -22 1 -17 2
-19 6 -5 7 26 20 20 27 -13 3 -16 11 -30 18 -30 9 0 9 3 0 12 -15 15 -16 58
-2 58 6 0 10 -4 10 -9 0 -12 33 -9 42 4 4 5 10 6 15 2 4 -5 1 -13 -7 -18 -12
-8 -12 -12 -2 -16 10 -4 9 -9 -4 -24 -16 -18 -16 -19 -1 -13 17 6 21 16 18 41
-1 7 7 17 18 22 17 9 18 8 13 -12 -5 -21 -4 -21 14 -5 18 16 19 15 18 -25 -1
-27 0 -31 3 -13 3 17 11 39 19 50 14 20 14 20 14 -2 0 -13 7 -30 15 -38 13
-13 14 -12 11 13 -2 15 -1 23 1 16 2 -6 10 -14 17 -16 9 -4 12 3 9 21 -4 20
-2 23 5 13 9 -12 13 -12 26 -2 20 17 35 6 29 -22 -3 -16 -2 -18 5 -8 13 18 35
4 29 -19 -3 -13 0 -17 9 -13 16 6 19 33 4 33 -5 0 -10 9 -10 20 0 11 5 20 10
20 6 0 10 -4 10 -9 0 -12 33 -9 42 4 4 5 10 6 14 3 3 -4 -1 -14 -9 -22 -11
-12 -17 -13 -20 -3 -2 6 -8 9 -12 5 -4 -4 5 -18 20 -32 30 -28 49 -36 23 -10
-15 15 -15 18 0 35 20 23 32 24 32 4 0 -8 -5 -15 -12 -15 -6 0 -8 -3 -5 -7 4
-3 16 2 27 12 16 14 17 20 8 27 -9 5 -10 8 -1 8 20 0 23 -15 8 -43 -19 -38 -4
-33 20 6 28 44 50 42 48 -3 0 -19 1 -27 4 -17 2 9 9 17 14 17 5 0 9 6 9 14 0
28 23 29 47 2 l23 -27 0 25 c0 32 20 35 21 4 2 -46 4 -51 17 -54 7 -1 8 0 2 3
-7 3 -5 11 5 23 10 11 15 25 12 32 -4 8 -6 7 -6 -4 -1 -10 -5 -18 -11 -18 -15
0 -12 19 5 36 8 9 15 11 15 6 0 -15 25 -21 41 -11 12 8 12 11 -1 20 -13 9 -13
10 0 6 8 -2 15 -13 16 -24 1 -20 42 -69 50 -60 2 2 -2 10 -11 17 -19 16 -20
41 -1 34 8 -3 16 0 19 8 2 7 2 3 1 -9 -6 -32 15 -39 39 -14 13 12 16 21 9 21
-7 0 -15 -7 -18 -15 -4 -8 -11 -15 -17 -15 -5 0 -2 9 8 20 22 24 34 25 42 4 3
-8 -4 -25 -17 -40 -13 -13 -21 -24 -18 -24 10 0 54 46 61 63 9 24 17 22 58
-17 l36 -34 1 30 c0 16 4 33 7 36 9 9 26 -20 20 -35 -2 -7 2 -10 11 -6 16 6
19 20 5 25 -5 2 -4 8 3 14 8 8 15 7 24 -3 8 -8 9 -13 2 -13 -15 0 -12 -17 4
-23 10 -4 13 -1 10 7 -3 7 3 23 13 35 18 22 18 21 18 -39 -1 -47 2 -57 11 -48
7 7 14 27 16 43 3 17 3 24 1 18 -5 -16 -23 -17 -23 -3 0 6 5 17 12 24 10 10
16 10 31 -5 11 -10 16 -22 12 -28 -12 -20 3 -12 32 18 29 28 42 26 56 -9 4
-10 6 -8 6 6 1 12 7 26 14 32 17 15 16 -40 -2 -61 -20 -25 -5 -21 21 5 13 13
17 23 10 26 -9 3 -8 7 1 16 9 11 14 11 24 0 15 -15 17 -34 3 -34 -5 0 -10 -7
-10 -15 0 -8 4 -15 9 -15 12 0 21 41 16 70 -3 14 -2 18 1 10 4 -8 13 -19 20
-23 8 -4 14 -15 14 -22 0 -8 5 -15 10 -15 6 0 10 -8 11 -17 0 -11 2 -13 6 -5
3 7 -3 24 -12 38 -16 25 -16 27 0 43 10 9 15 10 11 3 -5 -8 3 -23 18 -39 25
-25 27 -25 46 -8 11 10 20 25 21 34 0 14 1 14 6 1 3 -8 11 -18 17 -22 7 -5 5
-11 -6 -20 -12 -9 -16 -21 -12 -35 7 -26 24 -31 24 -8 0 8 -5 15 -12 15 -7 0
-5 7 4 18 9 9 15 31 13 47 -1 17 0 22 2 13 6 -23 12 -23 29 -1 13 17 15 17 27
1 15 -19 67 -19 67 0 0 6 5 12 10 12 6 0 10 -7 10 -15 0 -8 -4 -15 -10 -15 -5
0 -10 -7 -10 -15 0 -8 5 -15 10 -15 6 0 10 6 10 13 0 15 41 57 56 57 5 0 1 -5
-8 -11 -10 -5 -18 -21 -18 -34 0 -13 -5 -26 -10 -28 -6 -3 -5 -4 2 -3 7 1 14
12 16 24 2 12 7 22 12 22 13 0 20 -30 14 -58 l-6 -27 17 23 c13 18 14 27 6 35
-13 13 -15 47 -2 47 5 0 11 -10 14 -21 4 -15 11 -20 21 -16 10 4 16 1 16 -8 0
-8 4 -15 9 -15 5 0 11 -6 14 -12 2 -7 2 -2 0 11 -2 13 4 32 13 42 11 12 13 19
5 19 -6 0 -14 -7 -17 -15 -4 -8 -11 -15 -17 -15 -6 0 -2 10 10 21 26 26 46 16
40 -19 -2 -15 -2 -21 0 -14 3 6 8 12 13 12 4 0 10 9 13 20 3 11 11 20 19 19
10 0 10 -2 1 -6 -7 -2 -13 -13 -13 -23 0 -10 6 -21 13 -23 9 -4 9 -8 1 -14 -9
-6 -8 -11 2 -21 12 -11 13 -6 9 27 -4 31 -1 42 12 50 16 9 16 12 3 21 -8 5
-10 10 -5 10 6 0 18 -8 26 -18 12 -14 13 -20 3 -30 -10 -9 -14 -9 -17 1 -2 7
-8 8 -13 4 -11 -10 15 -27 32 -20 7 3 16 13 19 24 4 10 11 19 16 19 15 0 10
-37 -6 -44 -8 -3 -15 -13 -15 -22 0 -13 5 -11 20 9 11 14 20 30 20 35 0 6 6
13 13 15 9 4 8 8 -3 16 -8 6 -10 11 -5 11 11 0 55 -44 55 -55 0 -3 7 -14 16
-23 15 -15 16 -14 9 8 -4 14 -13 28 -19 32 -8 5 -6 13 6 24 16 16 17 16 12 -7
-5 -18 -3 -21 5 -9 5 8 14 11 18 6 4 -5 2 -11 -4 -13 -18 -6 -16 -20 3 -27 10
-4 13 -2 8 6 -4 6 0 16 8 22 8 6 17 19 21 29 3 9 12 17 19 17 10 0 10 -2 1 -8
-6 -4 -14 -21 -17 -37 -3 -17 -3 -23 1 -15 13 30 28 38 42 23 11 -12 15 -13
22 -2 4 7 11 10 16 6 4 -5 3 -11 -3 -15 -16 -10 -24 -61 -9 -55 7 2 16 22 19
45 4 22 13 46 20 54 12 11 13 8 11 -21 -4 -43 3 -72 20 -79 9 -3 11 2 8 15 -3
10 -10 19 -15 19 -6 0 -6 6 1 14 9 11 9 15 0 18 -7 2 -6 8 5 17 14 12 16 12
10 -3 -4 -11 -2 -15 7 -13 8 2 11 2 7 0 -11 -7 -10 -33 2 -33 5 0 12 16 16 35
3 19 10 35 15 35 12 0 12 -67 0 -72 -5 -1 -2 -9 6 -17 12 -11 14 -11 12 0 -1
8 -1 29 0 47 1 35 21 45 21 10 0 -21 0 -21 14 -2 9 11 10 21 5 25 -6 3 -4 10
4 17 10 9 13 4 11 -30 -1 -22 -8 -44 -15 -49 -8 -5 -9 -9 -3 -9 15 0 48 37 37
41 -5 2 -3 15 5 29 l14 25 -7 -30 -7 -30 24 23 c14 12 28 22 32 22 4 0 -4 -10
-17 -22 -28 -26 -49 -91 -23 -69 8 7 16 22 18 33 4 30 26 34 31 6 3 -18 5 -16
6 9 0 17 7 34 14 36 9 4 9 8 1 14 -9 6 -7 12 4 23 14 13 15 12 9 -3 -3 -9 0
-23 9 -32 14 -14 17 -13 34 7 l19 23 -6 -23 c-3 -12 -9 -22 -14 -22 -14 0 -10
-17 5 -23 10 -4 13 -1 10 7 -6 15 13 32 23 22 3 -3 6 -17 6 -31 0 -25 0 -25
18 -9 11 9 18 24 18 33 -1 13 -2 13 -6 -1 -6 -25 -20 -22 -27 4 -9 36 10 44
39 16 25 -26 26 -53 1 -70 -7 -5 -7 -8 2 -8 7 0 16 8 19 18 4 9 11 22 15 27 4
6 17 21 28 35 12 16 18 18 14 7 -5 -13 -2 -16 9 -11 8 3 18 1 21 -4 3 -5 -2
-9 -12 -8 -12 1 -17 -7 -17 -28 0 -16 6 -30 13 -32 7 -1 8 0 2 3 -13 6 -13 40
0 48 6 3 10 1 10 -6 0 -7 8 -5 20 6 11 10 20 22 20 27 0 5 7 16 15 25 14 14
15 13 9 -13 -4 -16 -12 -36 -19 -44 -14 -16 -9 -40 7 -40 7 0 6 5 -1 14 -7 8
-8 16 -4 18 12 5 53 65 53 78 0 18 20 11 21 -7 3 -39 5 -44 19 -53 13 -8 12
-11 -5 -24 -11 -8 -17 -17 -14 -20 3 -3 18 8 34 24 17 18 23 30 15 30 -9 0 -6
8 9 21 15 14 25 18 30 11 8 -13 26 -3 34 18 4 12 6 11 6 -2 1 -24 18 -23 26 2
7 21 25 28 25 10 0 -5 -4 -10 -10 -10 -5 0 -10 -4 -10 -10 0 -15 21 -12 42 7
18 16 18 16 12 0 -4 -12 -2 -16 8 -12 9 4 25 -5 39 -19 13 -14 29 -26 34 -26
6 0 4 4 -2 8 -9 6 1 21 33 53 25 24 42 36 38 27 -3 -10 -10 -18 -14 -18 -5 0
-15 -13 -24 -30 -8 -16 -11 -30 -6 -30 5 0 12 9 15 20 7 24 25 27 25 5 0 -9
-12 -27 -26 -40 -15 -14 -23 -25 -17 -25 17 0 53 46 53 69 0 12 6 28 12 35 10
11 18 8 40 -15 16 -15 28 -31 28 -36 0 -5 9 -16 20 -26 11 -9 20 -12 20 -7 0
6 -7 13 -15 16 -8 4 -15 10 -15 15 0 12 32 49 42 49 11 0 10 -28 -1 -32 -5 -1
-3 -8 4 -15 10 -9 13 -6 13 14 0 14 6 29 13 34 7 4 10 11 6 16 -5 4 -12 1 -17
-7 -6 -8 -10 -10 -10 -5 0 19 20 40 28 30 4 -5 14 -10 22 -10 11 0 15 -11 14
-42 -1 -35 2 -41 13 -32 15 13 18 79 3 79 -5 0 -10 7 -10 15 0 28 18 15 25
-17 4 -17 14 -38 21 -46 8 -7 14 -20 14 -28 0 -8 5 -14 10 -14 15 0 12 19 -5
36 -8 9 -14 30 -14 47 1 25 3 27 6 9 3 -13 13 -32 24 -43 19 -19 19 -19 40 2
11 11 18 23 15 27 -4 3 -13 -3 -20 -14 -17 -23 -41 -8 -30 19 7 18 24 23 24 7
0 -21 29 4 33 28 l4 27 2 -27 c0 -16 6 -28 11 -28 18 0 11 -20 -15 -44 -25
-23 -34 -56 -15 -56 6 0 10 8 10 18 0 11 9 27 20 37 12 11 19 28 18 43 -2 15
3 27 12 29 13 4 13 3 0 -7 -11 -9 -12 -13 -2 -17 14 -5 17 -60 3 -65 -5 -1 -3
-8 3 -14 10 -9 13 -2 15 34 1 25 6 51 12 58 7 8 6 13 -2 16 -8 3 -7 8 4 16 12
10 14 8 11 -14 -4 -40 7 -92 21 -98 14 -5 9 30 -8 52 -15 19 -2 25 22 10 12
-7 24 -23 27 -35 7 -26 24 -31 24 -8 0 8 -5 15 -12 15 -7 0 2 15 20 33 18 18
32 38 32 45 0 7 5 12 10 12 6 0 10 -6 10 -14 0 -8 8 -13 18 -12 13 1 17 -7 17
-35 0 -25 4 -35 13 -32 18 7 16 79 -3 87 -8 3 -15 10 -15 16 0 5 9 2 20 -7 11
-10 20 -26 20 -37 0 -10 8 -25 17 -31 17 -12 17 -14 -1 -34 -24 -26 -13 -28
13 -2 17 17 18 21 5 32 -18 15 -15 91 4 95 7 1 8 0 2 -3 -13 -6 -13 -53 0 -53
6 0 10 -6 10 -13 0 -7 9 -20 20 -30 11 -9 20 -24 20 -32 0 -8 5 -15 10 -15 14
0 12 19 -4 36 -16 15 -10 57 8 51 6 -2 10 -11 10 -20 -1 -9 4 -13 12 -10 11 4
12 9 4 18 -8 9 -7 14 2 18 7 2 9 8 5 13 -4 5 -12 2 -16 -5 -7 -11 -10 -11 -14
0 -5 12 -7 11 -16 -1 -8 -12 -10 -10 -8 11 2 24 37 72 37 50 0 -5 -8 -15 -17
-20 -16 -9 -16 -12 -3 -20 10 -7 17 -6 22 2 6 9 10 8 18 -3 8 -12 10 -11 10 8
0 12 5 22 10 22 6 0 10 -9 10 -20 0 -13 5 -18 15 -14 18 7 20 30 3 37 -10 4
-10 6 0 6 8 1 16 -8 19 -19 3 -11 9 -20 14 -20 13 0 11 -64 -3 -78 -8 -8 -8
-12 -1 -12 14 0 23 24 23 61 0 31 19 42 21 12 0 -14 2 -15 6 -3 3 8 11 18 17
22 6 4 7 10 3 15 -5 4 -12 1 -16 -6 -7 -11 -10 -11 -14 0 -5 12 -8 11 -17 -1
-10 -13 -11 -12 -6 3 3 10 6 25 6 33 0 23 18 16 22 -8 3 -21 5 -20 36 11 17
18 32 28 32 22 0 -5 -8 -15 -17 -21 -17 -10 -17 -10 0 -20 9 -6 17 -17 17 -25
0 -7 6 -16 13 -18 9 -4 9 -8 1 -14 -9 -6 -8 -11 2 -21 12 -11 13 -6 9 30 -3
23 -10 45 -16 49 -6 3 -4 11 6 19 13 11 14 10 9 -4 -4 -11 -2 -15 8 -11 8 3
26 -6 41 -20 26 -27 47 -26 47 1 0 8 4 14 9 14 5 0 12 13 16 30 7 31 25 42 25
15 0 -8 -4 -15 -10 -15 -12 0 -14 -26 -2 -33 4 -2 2 -2 -5 -1 -7 2 -10 -3 -7
-10 3 -7 -2 -19 -11 -26 -17 -14 -20 -30 -5 -30 6 0 10 6 10 13 0 7 9 20 19
29 13 11 18 24 14 37 -4 17 -2 20 13 15 14 -4 16 -3 5 4 -10 7 -10 11 -1 17 9
6 9 10 -1 17 -12 8 -11 9 0 6 19 -5 21 -76 4 -94 -15 -15 -17 -44 -3 -44 6 0
10 8 10 18 0 10 14 31 30 47 29 28 39 55 21 55 -5 0 -12 -11 -15 -25 -4 -14
-11 -25 -16 -25 -5 0 -2 12 6 27 7 16 14 36 14 46 0 28 17 19 23 -13 7 -33 1
-57 -20 -82 -12 -14 -12 -18 0 -30 13 -11 13 -15 -1 -31 -15 -16 -15 -17 0
-12 24 9 29 32 12 46 -8 7 -11 15 -7 18 18 13 43 61 43 83 0 13 5 30 10 38 9
13 11 13 20 0 5 -8 10 -25 10 -37 0 -13 4 -23 9 -23 6 0 11 -14 13 -32 2 -17
10 -33 18 -35 10 -3 11 -2 3 4 -6 4 -13 28 -15 53 -2 38 0 45 15 44 9 -1 17 3
17 8 0 5 14 23 30 40 17 16 30 25 30 19 0 -5 -8 -15 -17 -21 -13 -8 -14 -13
-5 -16 14 -6 17 -34 3 -34 -5 0 -12 8 -14 18 -4 16 -5 16 -6 0 -1 -18 -11 -22
-41 -19 -10 1 -11 -1 -4 -6 6 -4 15 -19 19 -33 8 -25 35 -58 35 -43 0 5 -7 19
-16 31 -25 36 -5 46 24 12 15 -16 31 -30 36 -30 5 0 -3 11 -17 24 -22 21 -24
26 -12 36 8 7 15 20 15 30 0 10 6 22 13 29 11 8 13 4 9 -22 -2 -17 -9 -37 -14
-43 -14 -19 20 -25 38 -7 12 12 15 28 11 59 -4 36 -2 41 9 30 22 -23 21 -84
-1 -100 -11 -8 -17 -17 -14 -20 3 -3 18 8 34 24 16 17 23 30 17 30 -7 0 -12
15 -12 35 0 19 5 35 10 35 6 0 10 -11 10 -24 0 -14 7 -31 15 -40 8 -8 15 -19
15 -24 0 -6 -7 -12 -15 -16 -8 -3 -15 -11 -15 -17 0 -8 7 -6 19 5 12 11 18 30
18 56 0 49 29 114 48 106 8 -3 16 0 18 7 2 7 8 8 13 4 5 -4 4 -11 -2 -15 -6
-4 -14 -24 -18 -44 -7 -37 -26 -53 -26 -23 0 8 5 15 10 15 6 0 10 11 10 25 0
14 -4 25 -9 25 -14 0 -22 -47 -16 -99 4 -37 2 -53 -10 -65 -9 -9 -12 -16 -7
-16 14 0 42 35 42 53 0 9 -5 17 -12 17 -6 0 -4 7 5 18 10 10 17 24 17 30 0 15
17 16 25 1 4 -5 -1 -19 -11 -30 -22 -25 -10 -25 15 0 17 17 18 20 3 35 -14 13
-14 20 -4 34 22 31 25 44 11 52 -7 5 -10 12 -6 17 13 12 28 -20 21 -46 -4 -21
-3 -23 10 -12 8 7 16 22 18 34 2 14 10 21 20 21 14 -1 17 6 14 40 -2 22 -1 30
1 16 3 -14 9 -28 15 -31 6 -4 11 -18 11 -32 0 -17 4 -24 13 -20 18 7 30 -25
15 -40 -17 -17 -26 0 -10 19 12 15 12 17 -1 12 -8 -3 -15 -16 -15 -31 0 -15
-12 -38 -29 -56 l-29 -31 26 -24 c33 -31 33 -33 1 -67 -22 -22 -23 -27 -9 -33
10 -3 14 -2 9 5 -3 6 3 19 15 30 24 23 27 47 6 55 -8 3 -17 15 -21 26 -4 15 5
30 40 64 44 42 57 64 37 64 -5 0 -12 13 -16 30 -4 16 -11 30 -16 30 -14 0 -11
30 6 46 13 13 14 12 9 -16 -5 -25 -4 -29 9 -24 9 3 18 13 20 22 4 15 5 15 6 0
1 -22 17 -23 25 -2 10 25 7 32 -11 30 -10 0 -19 8 -21 19 -2 11 -11 28 -20 38
-15 17 -14 17 4 11 18 -7 18 -7 2 13 -10 11 -18 25 -18 31 0 7 -4 12 -10 12
-5 0 -10 7 -10 15 0 8 5 15 10 15 17 0 11 36 -8 53 -24 22 -39 22 -18 1 9 -8
16 -25 15 -37 0 -14 -3 -17 -6 -8 -3 8 -16 24 -29 36 -18 17 -21 24 -12 33 9
9 9 16 -3 27 -12 13 -14 8 -14 -42 0 -41 4 -58 15 -61 12 -4 13 -2 3 9 -16 16
-17 29 -3 29 6 0 14 -8 17 -17 4 -10 10 -21 15 -24 14 -9 20 -72 9 -89 -5 -8
-14 -11 -18 -6 -4 5 -2 11 5 13 14 5 17 53 2 53 -5 0 -10 7 -10 16 0 8 -5 12
-11 9 -6 -4 -21 3 -34 15 l-23 22 4 -41 c3 -35 1 -39 -10 -29 -8 7 -10 15 -5
16 16 6 10 25 -18 54 -21 22 -24 30 -14 41 9 12 8 16 -5 21 -9 3 -14 13 -10
21 3 8 -1 21 -8 27 -12 11 -12 16 2 31 15 16 15 17 0 12 -23 -9 -29 -31 -13
-45 12 -10 12 -14 -1 -28 -11 -11 -15 -29 -12 -63 2 -40 1 -46 -10 -35 -8 7
-14 39 -14 77 -1 35 -3 53 -6 39 -5 -28 -31 -52 -50 -45 -8 3 -12 -2 -10 -12
2 -9 -4 -18 -12 -20 -12 -4 -12 -2 -2 5 10 7 10 11 -3 22 -8 7 -15 19 -15 26
0 8 -4 14 -10 14 -13 0 -13 -47 0 -53 6 -3 5 -4 -2 -3 -7 1 -14 15 -16 29 -4
33 -7 33 -37 1 -14 -15 -25 -22 -25 -16 0 6 8 16 18 22 16 10 16 10 0 20 -10
6 -18 18 -18 25 0 8 -4 15 -10 15 -13 0 -13 -37 0 -43 6 -3 5 -4 -2 -3 -7 1
-15 16 -16 32 -2 16 -10 33 -18 37 -8 4 -14 15 -14 22 0 8 -4 15 -10 15 -14 0
-13 -13 2 -28 8 -8 8 -12 1 -12 -6 0 -13 -9 -16 -21 -7 -25 -31 -20 -36 7 -1
10 -10 26 -18 35 -7 9 -12 27 -10 40 2 13 2 18 0 12 -3 -7 -9 -13 -14 -13 -14
0 -11 -20 6 -36 8 -9 15 -21 15 -27 0 -20 -18 -42 -27 -33 -4 5 -2 11 5 13 14
5 17 33 3 33 -6 0 -13 -5 -16 -10 -3 -6 -12 -10 -18 -9 -9 0 -9 2 1 6 14 5 17
33 3 33 -5 0 -11 14 -14 30 -4 17 -12 30 -19 30 -9 0 -9 -3 0 -12 16 -16 15
-45 0 -51 -7 -2 -9 -8 -5 -13 4 -5 12 -2 17 6 6 9 10 10 10 3 0 -7 -8 -17 -17
-22 -16 -9 -16 -12 -3 -21 8 -5 10 -10 5 -10 -18 0 -45 38 -32 44 9 3 8 7 -3
15 -10 7 -17 6 -22 -2 -4 -6 -10 -8 -15 -4 -4 5 -1 13 7 18 12 8 12 12 2 16
-10 4 -10 8 -1 19 8 10 8 14 0 14 -12 0 -12 0 -15 -54 -1 -22 -8 -41 -14 -42
-7 -2 -8 0 -2 3 7 3 7 9 2 16 -17 22 -20 57 -6 71 11 12 11 16 -3 28 -15 11
-16 11 -10 -4 4 -10 -1 -24 -11 -34 -15 -16 -17 -16 -22 2 -9 32 -33 74 -41
74 -4 0 -1 -12 7 -27 7 -16 14 -36 14 -45 0 -23 -27 -23 -33 -1 -2 10 -3 5 -3
-12 1 -20 -4 -30 -14 -30 -12 0 -15 11 -13 50 1 28 -1 43 -4 35 -4 -8 -13 -20
-21 -26 -9 -7 -12 -16 -7 -25 5 -8 0 -7 -10 3 -15 13 -16 20 -6 31 9 12 8 16
-2 20 -12 4 -14 -5 -12 -46 2 -29 1 -45 -2 -37 -2 8 -8 24 -13 35 -5 11 -11
27 -13 35 -3 8 -6 0 -6 -17 -1 -40 -17 -43 -24 -5 -3 17 0 33 10 45 23 25 7
21 -19 -5 -14 -14 -17 -23 -10 -26 8 -2 8 -8 -3 -18 -8 -8 -11 -22 -8 -32 4
-9 -12 2 -35 26 -23 23 -44 42 -46 42 -2 0 -6 -9 -9 -20 -3 -11 -11 -20 -19
-19 -10 0 -10 2 0 6 14 5 17 33 3 33 -5 0 -11 -7 -15 -15 -3 -8 -11 -15 -18
-15 -9 0 -9 3 2 10 10 7 11 12 4 18 -22 15 -24 42 -4 59 11 10 20 21 20 26 0
4 -16 -7 -35 -26 -19 -19 -35 -37 -35 -40 0 -12 -34 -47 -45 -47 -5 0 -3 5 5
10 11 7 12 12 3 18 -6 4 -14 19 -18 34 -4 15 -13 29 -21 32 -8 3 -14 12 -14
19 0 8 -7 20 -15 27 -22 18 -18 -3 5 -33 11 -14 20 -30 20 -35 0 -6 3 -12 8
-15 4 -2 1 -2 -6 -1 -8 3 -10 -5 -6 -24 l6 -27 -14 25 c-9 15 -21 24 -32 22
-11 -2 -20 5 -23 17 -3 12 -9 21 -13 21 -4 0 -10 9 -13 20 -3 11 -11 20 -19
19 -10 0 -10 -2 0 -6 14 -5 17 -33 3 -33 -5 0 -12 -13 -16 -30 -4 -16 -10 -30
-15 -30 -5 0 -11 14 -15 30 -4 17 -11 30 -16 30 -14 0 -11 28 4 33 9 4 9 6 -1
6 -7 1 -16 -7 -19 -16 -4 -10 -11 -21 -17 -25 -6 -4 -7 -10 -3 -15 5 -4 13 -1
18 7 9 12 10 12 5 -3 -3 -10 -6 -21 -6 -23 0 -13 -20 -1 -25 16 -8 25 -22 26
-28 3 -4 -17 -5 -17 -6 0 0 9 -5 17 -10 17 -5 0 -11 13 -14 29 -3 16 -14 31
-23 35 -17 6 -17 6 -1 -12 18 -20 23 -62 7 -62 -5 0 -10 8 -10 18 0 11 -9 27
-20 37 -12 11 -20 13 -20 6 0 -6 7 -14 15 -17 18 -7 20 -30 3 -37 -10 -4 -9
-8 2 -16 8 -6 10 -11 5 -11 -6 0 -19 10 -29 21 -15 18 -20 19 -27 8 -8 -12
-11 -12 -19 1 -14 21 -12 36 6 54 8 9 12 16 7 16 -12 0 -40 -34 -46 -57 -3
-10 -5 4 -4 31 2 36 -2 50 -13 53 -13 4 -13 3 0 -6 11 -8 12 -13 4 -18 -7 -5
-14 -17 -16 -28 -2 -12 -11 -19 -22 -18 -12 1 -16 -4 -11 -15 3 -10 -7 -4 -24
12 -17 16 -28 32 -25 35 3 3 9 -1 14 -9 5 -8 21 -16 35 -17 20 -1 24 1 17 10
-5 7 -12 21 -15 32 -3 14 -5 12 -6 -9 l-1 -30 -30 29 -30 29 4 -44 c2 -25 2
-37 -1 -27 -3 12 -10 16 -20 13 -11 -5 -14 -1 -10 13 3 13 1 18 -8 14 -21 -8
-25 -31 -9 -48 9 -8 12 -15 7 -15 -18 1 -53 49 -53 74 0 14 -4 26 -10 26 -9 0
-14 -23 -13 -58 1 -10 -3 -10 -16 1 -9 8 -21 13 -27 10 -17 -6 -39 26 -26 39
7 7 15 4 28 -11 10 -11 23 -21 28 -21 5 0 0 10 -12 23 -28 29 -28 40 -1 32 14
-5 19 -3 15 3 -4 7 11 10 41 10 26 0 49 5 51 11 2 6 8 11 13 11 11 0 45 -33
52 -51 4 -11 6 -11 6 1 1 9 -4 21 -11 28 -6 6 -10 14 -7 16 3 3 49 8 104 11
61 4 102 10 107 18 6 9 8 9 8 -2 0 -10 3 -11 14 -2 7 6 54 14 105 18 50 3 91
9 91 13 0 4 44 10 97 14 55 4 101 13 106 19 6 9 10 9 14 0 5 -15 73 -18 73 -4
0 5 34 12 75 16 41 4 75 11 75 16 0 4 20 11 45 15 25 3 45 10 45 14 0 4 16 11
35 14 19 4 35 11 35 16 0 4 14 11 30 15 17 4 30 10 30 15 0 4 11 11 25 14 14
4 25 11 25 16 0 6 6 10 13 10 15 0 57 44 57 59 0 6 5 11 10 11 6 0 10 9 10 20
0 11 -4 20 -10 20 -5 0 -10 -9 -10 -19 0 -31 -28 -33 -46 -3 -8 15 -34 36 -57
46 -61 28 -68 35 -57 56 8 15 5 23 -13 37 -25 19 -25 43 -1 43 8 0 18 -10 23
-23 5 -13 23 -34 41 -48 17 -13 38 -30 45 -36 8 -7 16 -13 20 -13 4 0 13 -7
22 -15 8 -9 18 -14 21 -11 6 7 -63 76 -75 76 -4 0 -19 12 -32 25 -23 25 -23
29 -17 123 4 53 11 99 15 102 5 3 12 40 16 83 3 42 10 77 15 77 4 0 11 34 15
75 4 41 10 75 15 75 5 0 12 30 16 68 3 37 11 70 16 73 5 3 12 47 15 97 3 51
10 92 14 92 5 0 9 29 9 65 0 37 -4 65 -10 65 -5 0 -10 7 -10 15 0 7 -6 18 -14
22 -7 4 -16 30 -19 58 -3 27 -10 51 -16 53 -6 2 -11 10 -11 18 0 8 -6 17 -14
20 -8 3 -18 19 -21 35 -4 16 -10 29 -15 29 -5 0 -11 14 -15 30 -4 17 -10 30
-15 30 -4 0 -10 18 -14 39 -3 22 -11 41 -17 43 -7 2 -14 36 -17 81 -2 42 -8
77 -12 77 -4 0 -11 37 -15 82 -4 46 -11 85 -16 88 -4 3 -11 39 -15 80 -4 41
-10 80 -14 85 -4 6 -10 43 -13 84 -3 41 -10 77 -15 80 -5 3 -13 16 -17 29 -4
13 -31 47 -61 77 -30 29 -54 58 -54 64 0 6 -5 11 -11 11 -12 0 -12 -2 21 -69
14 -28 30 -48 37 -46 20 7 64 -60 70 -105 3 -22 10 -40 14 -40 12 0 11 -57 -1
-65 -6 -3 -10 4 -10 18 0 30 -29 117 -45 137 -7 8 -16 24 -19 35 -7 26 1 -43
10 -75 4 -19 1 -16 -14 10 -85 151 -128 204 -201 251 -53 34 -76 38 -35 7 48
-38 93 -90 116 -138 13 -25 26 -47 29 -50 3 -3 8 -15 11 -27 7 -25 -8 -22 -61
14 -19 13 -45 26 -57 29 -12 3 -53 21 -90 40 -37 19 -74 34 -81 34 -7 0 -13 5
-13 10 0 6 -10 10 -23 10 -13 0 -29 6 -35 12 -10 10 -15 10 -22 -2 -8 -13 -10
-12 -10 3 0 19 -16 23 -22 6 -2 -7 -41 -13 -92 -16 -75 -5 -101 -2 -165 18
-42 13 -77 27 -79 31 -2 5 -16 8 -30 8 -15 0 -36 7 -46 15 -11 8 -30 15 -43
15 -13 0 -31 4 -41 9 -9 4 -61 22 -116 39 l-98 31 5 -25 c3 -16 0 -24 -9 -24
-8 0 -14 5 -14 10 0 6 -7 10 -15 10 -8 0 -15 6 -15 13 0 14 -35 47 -50 47 -18
0 -10 -15 18 -32 l27 -17 -26 -1 c-15 0 -36 11 -51 28 -33 35 -66 62 -77 62
-5 0 -14 7 -21 15 -11 13 20 15 271 14 156 0 358 -5 449 -11 91 -6 219 -12
285 -14 66 -2 125 -3 131 -4 6 0 46 -34 89 -75 43 -42 80 -73 82 -71 6 6 -167
176 -178 176 -6 0 -20 11 -33 25 -13 14 -29 25 -35 25 -6 0 -14 6 -17 14 -3 8
-19 18 -35 21 -16 4 -29 11 -29 16 0 5 -11 11 -25 15 -14 3 -25 10 -25 15 0 5
-7 9 -15 9 -9 0 -18 6 -21 14 -3 8 -19 18 -35 21 -16 4 -29 10 -29 15 0 5 -13
11 -30 15 -16 4 -30 11 -30 16 0 5 -11 11 -25 15 -14 3 -25 10 -25 14 0 5 -13
11 -30 15 -16 4 -30 11 -30 15 0 5 -16 12 -35 16 -19 3 -35 10 -35 14 0 5 -13
11 -30 15 -16 4 -30 11 -30 16 0 5 -9 9 -20 9 -38 0 -20 -16 45 -41 36 -13 65
-27 65 -31 0 -5 9 -8 19 -8 11 0 26 -6 33 -12 7 -7 35 -24 61 -38 94 -49 102
-53 105 -62 2 -4 9 -8 16 -8 8 0 29 -13 47 -30 19 -16 39 -30 46 -30 6 0 13
-3 15 -7 4 -11 65 -53 77 -53 7 0 21 -22 21 -34 0 -4 -146 2 -380 14 -102 6
-349 13 -550 15 -259 4 -388 9 -445 20 -82 15 -227 34 -319 41 -28 3 -80 9
-116 13 -36 5 -72 9 -80 9 -98 1 -323 42 -345 63 -5 5 -17 9 -26 9 -10 0 -30
7 -46 15 -15 8 -46 22 -68 31 -22 9 -53 22 -70 30 -107 47 -146 64 -195 84
-30 12 -68 27 -85 34 -16 8 -50 21 -75 31 -25 9 -58 23 -75 30 -16 7 -39 15
-50 18 -11 3 -45 15 -75 27 -85 32 -352 120 -368 120 -8 0 -28 6 -45 14 -18 8
-43 16 -57 19 -14 2 -61 14 -105 27 -117 32 -307 78 -435 104 -233 48 -546 96
-626 96 -41 0 -63 -24 -36 -39 19 -10 249 -87 352 -118 30 -8 78 -23 105 -31
28 -8 68 -20 90 -27 22 -7 65 -20 95 -28 30 -9 102 -30 160 -47 58 -17 128
-37 155 -45 28 -8 95 -28 150 -45 55 -16 123 -37 150 -45 28 -7 95 -28 150
-45 55 -16 125 -37 155 -46 30 -9 71 -22 90 -29 19 -7 89 -30 155 -50 66 -21
124 -41 130 -46 5 -5 19 -9 32 -9 13 0 23 -4 23 -9 0 -5 8 -12 18 -15 31 -10
-292 4 -356 15 -74 13 -360 8 -370 -6 -4 -6 -13 -10 -19 -11 -7 -1 -22 -2 -33
-2 -11 -1 -20 -7 -20 -12 0 -6 -5 -16 -10 -23 -6 -7 -19 -23 -29 -37 -17 -22
-26 -25 -85 -24 -36 0 -76 5 -88 11 -13 6 -77 28 -143 48 -66 21 -158 50 -205
65 -47 15 -112 35 -145 45 -33 10 -78 23 -100 30 -69 21 -198 57 -320 90 -27
8 -75 21 -105 29 -30 8 -84 22 -120 31 -36 9 -88 23 -116 31 -28 8 -59 14 -69
14 -10 0 -41 6 -69 14 -28 8 -85 22 -126 31 -41 9 -102 22 -135 30 -62 14
-161 34 -287 60 -40 8 -98 19 -128 26 -30 6 -77 15 -105 19 -27 4 -77 13 -110
19 -114 22 -210 40 -310 56 -55 9 -138 23 -185 30 -47 8 -129 21 -182 30 -54
8 -140 22 -190 29 -51 8 -145 22 -208 31 -63 9 -135 20 -160 26 -25 5 -83 14
-130 19 -47 6 -132 17 -190 25 -58 8 -152 22 -210 29 -58 8 -116 17 -130 21
-14 3 -65 10 -115 15 -126 12 -308 38 -385 54 l-65 13 130 6 c72 3 330 10 575
16 245 6 513 15 595 21 382 27 2269 20 2346 -8 25 -10 -222 -21 -526 -24 -205
-2 -268 -8 -245 -23 23 -15 122 -23 150 -13 33 13 1395 19 1480 8 143 -20 207
-30 255 -40 28 -6 93 -15 145 -21 52 -5 147 -16 210 -24 63 -8 160 -20 215
-26 55 -6 102 -15 105 -19 3 -4 43 -10 89 -14 47 -4 90 -11 95 -15 6 -5 45
-12 86 -16 41 -4 80 -10 85 -14 9 -6 68 -15 245 -41 41 -5 84 -14 95 -19 11
-6 52 -13 90 -16 39 -4 75 -10 80 -15 6 -4 40 -11 77 -15 37 -3 70 -11 73 -16
4 -5 21 -9 39 -9 18 0 55 -6 82 -14 27 -8 76 -17 109 -21 33 -4 65 -10 70 -13
10 -7 63 -19 175 -42 30 -6 64 -15 75 -20 11 -5 41 -11 67 -15 26 -3 50 -10
53 -15 3 -4 28 -11 55 -15 27 -4 52 -10 55 -15 3 -4 25 -11 50 -14 25 -4 45
-11 45 -17 0 -5 10 -9 22 -9 20 0 127 -31 173 -50 11 -5 52 -19 90 -31 39 -13
72 -26 75 -29 3 -4 22 -10 42 -14 20 -4 38 -10 40 -15 2 -5 17 -11 33 -13 17
-3 24 -3 18 -1 -7 3 -13 8 -13 13 0 5 -16 12 -35 16 -19 3 -35 10 -35 15 0 5
-18 12 -40 15 -22 4 -40 10 -40 14 0 4 -16 11 -35 14 -19 4 -35 11 -35 15 0 5
-20 12 -45 15 -25 4 -45 11 -45 16 0 5 -25 12 -55 15 -30 4 -55 11 -55 16 0 4
-20 11 -45 15 -25 3 -45 10 -45 14 0 4 -22 10 -50 14 -27 4 -50 11 -50 15 0 5
-27 12 -60 16 -33 4 -60 11 -60 15 0 4 -27 11 -60 15 -33 4 -60 11 -60 15 0 4
-27 11 -60 15 -33 4 -60 11 -60 15 0 5 -31 12 -70 16 -38 3 -70 10 -70 14 0 5
-29 12 -65 15 -36 4 -65 11 -65 15 0 4 -34 11 -75 15 -41 4 -75 10 -75 15 0 4
-38 11 -85 15 -47 4 -85 10 -85 15 0 4 -36 11 -80 14 -44 4 -80 11 -80 16 0 4
-40 11 -90 15 -49 4 -90 11 -90 15 0 4 -40 11 -90 15 -49 4 -90 11 -90 15 0 4
-40 11 -90 15 -49 4 -90 11 -90 15 0 4 -40 11 -90 15 -49 4 -90 11 -90 15 0 4
-51 11 -112 15 -62 4 -115 11 -118 16 -3 4 -58 11 -123 15 -64 4 -117 10 -117
15 0 4 -47 10 -105 14 -58 4 -105 11 -105 15 0 4 -29 11 -65 15 -36 3 -65 10
-65 15 0 4 -27 11 -60 15 -33 4 -60 11 -60 16 0 5 -18 12 -40 15 -22 4 -40 10
-40 14 0 5 -14 12 -32 15 -17 4 -38 14 -46 21 -7 8 -20 14 -28 14 -8 0 -14 4
-14 9 0 5 -13 12 -29 16 -16 3 -32 13 -35 21 -3 8 -12 14 -21 14 -8 0 -15 4
-15 9 0 5 -11 12 -25 15 -14 4 -25 10 -25 15 0 5 -13 12 -30 16 -16 4 -30 11
-30 16 0 5 -8 13 -17 16 -10 4 -27 16 -39 29 -11 12 -31 25 -44 29 -13 4 -30
14 -38 21 -7 8 -20 14 -28 14 -8 0 -14 4 -14 9 0 5 -14 13 -32 16 -17 4 -38
14 -46 21 -7 8 -20 14 -28 14 -8 0 -14 4 -14 9 0 5 -13 12 -29 16 -16 3 -32
13 -35 21 -3 8 -12 14 -21 14 -8 0 -15 4 -15 9 0 5 -13 12 -30 16 -16 4 -30
11 -30 16 0 5 -11 11 -25 15 -14 3 -25 10 -25 14 0 5 -13 11 -29 15 -16 3 -32
13 -35 21 -3 8 -12 14 -21 14 -8 0 -15 4 -15 9 0 5 -13 12 -30 16 -16 4 -30
11 -30 16 0 5 -11 11 -25 15 -14 3 -25 10 -25 14 0 5 -13 11 -30 15 -16 4 -30
10 -30 15 0 5 -13 11 -30 15 -16 4 -30 11 -30 16 0 5 -7 9 -15 9 -9 0 -18 6
-21 14 -3 8 -19 18 -35 21 -16 4 -29 10 -29 15 0 5 -13 11 -30 15 -16 4 -30
10 -30 15 0 5 -13 11 -30 15 -16 4 -30 10 -30 15 0 5 -13 11 -30 15 -16 4 -30
10 -30 15 0 5 -13 11 -30 15 -16 4 -30 10 -30 15 0 5 -13 11 -30 15 -16 4 -30
10 -30 15 0 5 -13 11 -30 15 -16 4 -30 11 -30 16 0 5 -11 9 -25 9 -14 0 -28 6
-31 14 -3 7 -23 16 -45 20 -21 3 -39 10 -39 15 0 5 -13 12 -30 16 -16 4 -30
11 -30 16 0 5 -8 9 -17 9 -10 0 -31 7 -47 15 -15 8 -36 15 -46 15 -10 0 -25 6
-32 14 -8 7 -29 17 -46 21 -18 3 -32 10 -32 15 0 4 -20 11 -45 14 -25 4 -45
11 -45 15 0 5 -20 12 -45 15 -25 4 -45 11 -45 15 0 5 -20 12 -45 15 -25 4 -45
11 -45 15 0 5 -24 12 -52 15 -29 4 -56 13 -60 19 -6 9 -10 9 -17 -2 -6 -9 -10
-10 -12 -2 -2 6 -22 14 -44 18 -22 3 -43 10 -46 15 -3 5 -30 11 -60 15 -30 3
-57 10 -60 15 -3 5 -31 12 -62 15 -32 3 -57 9 -57 13 0 5 -27 11 -60 15 -33 4
-60 11 -60 15 0 5 -29 12 -65 15 -36 4 -65 11 -65 16 0 4 -31 11 -70 15 -38 3
-70 10 -70 15 0 4 -36 11 -80 15 -44 3 -80 10 -80 14 0 4 -39 11 -87 15 -49 4
-91 11 -94 16 -3 6 -83 13 -177 16 -95 3 -172 9 -172 13 0 13 -61 20 -79 10
-10 -5 -22 -6 -27 -1 -5 4 -29 2 -54 -4z m-2910 -248 c102 -8 192 -18 200 -21
8 -3 44 -10 80 -16 111 -16 256 -56 350 -97 87 -38 186 -88 198 -100 7 -7 17
-13 22 -13 15 0 140 -88 206 -144 23 -20 44 -36 47 -36 4 0 21 -15 40 -32 18
-18 55 -52 83 -75 132 -113 441 -433 559 -578 61 -76 78 -97 98 -117 9 -10 17
-22 17 -27 0 -5 6 -14 14 -20 27 -22 106 -149 106 -170 0 -19 -3 -20 -20 -11
-11 6 -27 23 -35 38 -9 15 -25 41 -35 57 -11 17 -23 38 -26 48 -4 9 -10 17
-14 17 -5 0 -21 20 -37 45 -15 25 -31 45 -35 45 -5 0 -8 7 -8 15 0 8 -4 15 -8
15 -5 0 -20 16 -34 35 -50 70 -468 487 -623 622 -33 29 -73 64 -90 78 -16 14
-42 33 -57 41 -16 8 -28 19 -28 24 0 6 -6 10 -14 10 -8 0 -16 3 -18 8 -5 10
-66 52 -77 52 -5 0 -11 4 -13 8 -1 5 -30 24 -63 42 -333 191 -778 261 -1395
221 -137 -9 -186 -15 -355 -42 -38 -6 -95 -14 -125 -19 -30 -4 -75 -12 -100
-18 -25 -5 -81 -18 -125 -27 -44 -10 -123 -29 -175 -43 -52 -13 -108 -28 -125
-32 -85 -22 -155 -43 -235 -70 -19 -6 -48 -16 -65 -20 -33 -9 -108 -36 -140
-49 -11 -4 -36 -15 -55 -23 -19 -9 -50 -19 -67 -22 -18 -4 -35 -12 -38 -17 -4
-5 -13 -9 -21 -9 -7 0 -44 -14 -81 -31 -38 -16 -81 -36 -98 -43 -206 -92 -428
-206 -570 -293 -11 -7 -27 -16 -35 -20 -8 -4 -34 -20 -56 -35 -23 -15 -46 -28
-52 -28 -6 0 -12 -3 -14 -7 -3 -9 -64 -53 -73 -53 -3 0 -14 -9 -25 -20 -11
-11 -25 -20 -30 -20 -6 0 -5 8 2 20 7 11 17 20 21 20 5 0 26 14 47 30 21 17
41 30 44 30 9 0 70 43 74 53 2 4 8 7 14 7 6 0 30 14 55 30 24 17 48 30 53 30
5 0 15 6 22 13 7 6 45 28 83 47 39 19 77 40 86 47 18 15 254 133 265 133 4 0
39 15 78 34 88 42 127 58 191 81 28 10 55 21 60 25 6 4 39 17 75 30 36 13 69
27 74 32 6 4 19 8 30 8 12 0 34 7 50 15 15 8 36 15 45 15 9 0 29 7 45 15 15 8
35 15 43 15 8 0 29 6 46 14 31 13 82 28 202 59 33 8 80 21 105 28 46 12 146
36 190 45 283 59 512 91 715 100 77 3 158 10 180 14 46 10 119 7 375 -13z
m5028 -678 c2 -5 14 -9 27 -9 13 0 27 -5 30 -10 7 -11 74 -44 113 -55 12 -3
22 -11 22 -16 0 -5 9 -9 19 -9 11 0 26 -6 33 -13 7 -7 49 -31 93 -53 44 -21
82 -42 85 -45 3 -4 15 -9 28 -13 12 -4 22 -11 22 -16 0 -5 14 -11 30 -15 17
-4 30 -10 30 -14 0 -3 12 -12 28 -18 30 -14 59 -32 80 -50 7 -7 22 -13 33 -13
10 0 19 -4 19 -8 0 -5 19 -19 43 -31 117 -62 147 -85 130 -102 -11 -11 -75 23
-102 55 -7 9 -19 16 -26 16 -7 0 -23 8 -36 19 -13 10 -35 22 -49 26 -14 4 -28
12 -31 17 -3 5 -12 11 -20 12 -30 6 -69 30 -69 43 0 7 -6 13 -14 13 -8 0 -22
7 -30 16 -9 8 -16 11 -16 4 0 -10 -49 16 -61 33 -3 5 -13 9 -21 11 -9 1 -22 6
-29 12 -8 5 -34 20 -59 33 -25 13 -52 29 -60 36 -8 6 -34 20 -57 30 -24 10
-43 22 -43 27 0 5 -5 6 -10 3 -6 -4 -27 3 -46 14 -19 12 -41 21 -48 21 -8 0
-19 7 -26 15 -6 8 -15 14 -18 13 -12 -4 -52 22 -52 33 0 13 53 2 58 -12z
m-8351 -370 c-1 -17 9 -28 42 -45 24 -13 50 -24 57 -24 7 0 25 -6 41 -14 46
-23 95 -38 142 -45 51 -7 65 -27 27 -37 -45 -11 -145 15 -264 68 -34 15 -66
28 -71 28 -13 0 -22 30 -14 43 6 12 36 45 40 46 2 1 2 -9 0 -20z m1828 -159
c275 -6 545 -15 600 -20 55 -5 147 -9 205 -10 97 0 286 -13 615 -41 72 -7 171
-14 220 -16 82 -4 92 -7 113 -31 l24 -27 -24 -4 c-12 -2 -95 4 -183 13 -246
24 -406 37 -575 47 -300 17 -329 20 -323 38 5 14 4 14 -8 -1 -15 -18 -122 -16
-714 12 -115 5 -483 10 -816 10 -636 0 -619 -1 -619 38 0 10 890 5 1485 -8z
m-1520 -235 c44 -4 108 -13 143 -21 35 -8 75 -14 88 -14 14 0 32 -6 40 -14 7
-8 18 -16 24 -18 13 -4 -2 -54 -16 -52 -5 1 -13 0 -19 -1 -104 -27 -144 -35
-220 -45 -49 -7 -157 -14 -239 -17 -146 -6 -148 -6 -138 14 6 11 28 33 49 49
21 16 48 39 59 51 50 53 97 84 123 79 14 -3 62 -8 106 -11z m5500 -755 c197
-15 339 -31 403 -47 51 -12 62 -19 62 -36 0 -53 -59 -69 -176 -48 -27 5 -121
11 -209 14 -150 5 -153 5 -45 -4 63 -4 131 -13 150 -18 19 -6 69 -13 110 -16
41 -3 78 -9 83 -14 11 -11 -40 -43 -61 -37 -9 2 -35 1 -57 -4 -39 -9 -39 -9
10 -5 45 5 47 4 30 -10 -23 -17 -152 -20 -225 -5 -25 5 -92 12 -150 15 -58 4
-114 11 -125 15 -11 5 -36 11 -55 14 -68 8 86 -3 223 -15 75 -7 137 -17 137
-21 0 -18 28 -6 34 15 13 51 10 54 -61 60 -38 3 -111 10 -163 16 -52 6 -125
14 -162 17 -38 3 -68 9 -68 12 0 20 42 28 125 23 l90 -6 -65 -6 c-36 -3 4 -4
88 -1 108 3 152 1 152 -7 0 -7 28 -11 82 -11 72 0 85 3 115 26 19 15 31 30 26
35 -4 4 -62 12 -128 18 -66 6 -181 16 -256 23 -133 11 -136 11 -171 -10 -19
-12 -41 -22 -48 -22 -14 0 25 33 50 43 22 8 128 7 255 -3z m4412 -252 c143
-19 87 -31 -117 -25 -181 5 -276 20 -263 40 7 11 260 2 380 -15z m-907 -208
c63 -5 178 -14 255 -20 77 -6 147 -13 155 -16 8 -3 60 -10 115 -15 55 -5 120
-13 145 -18 25 -5 81 -15 125 -21 44 -5 121 -17 170 -26 50 -8 114 -19 143
-24 29 -5 74 -13 100 -19 26 -5 81 -16 122 -25 207 -41 367 -75 426 -92 28 -8
58 -14 67 -14 30 0 86 -35 91 -57 9 -32 -9 -69 -71 -153 -67 -89 -138 -162
-180 -183 -83 -44 -109 -47 -368 -46 -137 1 -261 4 -275 8 l-25 7 33 32 33 32
254 0 c222 0 257 2 286 18 38 20 69 48 69 62 0 6 4 10 10 10 5 0 16 12 24 28
8 15 23 36 34 48 11 11 23 31 27 44 7 23 7 23 -11 6 -17 -18 -18 -17 -31 27
-15 53 -55 82 -127 92 -26 4 -49 11 -52 16 -3 5 -17 9 -30 9 -14 0 -53 6 -87
14 -34 8 -96 21 -137 30 -41 8 -109 21 -150 30 -41 8 -104 20 -140 25 -36 6
-110 19 -165 28 -56 10 -146 17 -204 17 -57 -1 -98 2 -91 6 20 12 -39 28 -130
35 -47 4 -106 11 -131 15 -25 5 -158 10 -295 11 -201 2 -256 5 -286 18 -21 9
-38 18 -38 22 0 8 70 39 111 49 19 5 52 6 74 4 22 -3 92 -9 155 -14z m-9543
-192 c29 -12 53 -25 53 -30 0 -4 5 -8 11 -8 6 0 39 -29 73 -65 98 -102 179
-283 231 -515 21 -96 31 -410 16 -540 -11 -93 -32 -210 -43 -240 -16 -41 -40
-118 -45 -142 -3 -16 -9 -28 -13 -28 -4 0 -11 -12 -15 -27 -3 -15 -20 -47 -36
-71 -16 -23 -29 -47 -29 -51 0 -15 -114 -127 -155 -153 -84 -51 -206 -56 -288
-11 -84 47 -174 150 -225 258 -18 39 -37 78 -43 87 -5 10 -9 22 -9 27 0 5 -5
22 -12 38 -64 154 -97 554 -63 778 42 281 121 473 247 606 25 25 51 49 59 53
8 4 34 18 59 31 60 33 153 34 227 3z m13960 -127 c18 -5 45 -21 60 -35 15 -14
31 -26 35 -26 5 0 8 -7 8 -15 0 -8 3 -15 8 -15 11 0 47 -77 66 -141 21 -72 22
-243 1 -279 -13 -23 -14 -15 -15 88 0 152 -28 254 -90 325 -31 36 -81 67 -109
67 -17 0 -21 -6 -21 -34 0 -18 -7 -47 -15 -62 -14 -28 -15 -26 -9 34 l7 62
-28 0 c-15 0 -41 -8 -58 -17 -43 -24 -120 -106 -143 -151 -11 -20 -22 -39 -26
-42 -3 -3 -9 -17 -13 -32 -4 -15 -16 -35 -27 -45 -20 -18 -20 -18 -13 17 7 32
42 109 54 120 4 3 12 16 19 30 30 58 119 131 182 151 35 10 90 11 127 0z
m-6432 -232 c136 -23 325 -138 421 -256 21 -26 44 -54 52 -62 37 -39 182 -300
182 -330 0 -6 6 -25 14 -43 59 -141 106 -408 106 -598 0 -150 -42 -427 -78
-513 -7 -16 -12 -37 -12 -47 0 -10 -4 -21 -9 -24 -5 -3 -12 -17 -15 -31 -8
-30 -69 -158 -97 -200 -10 -16 -22 -38 -25 -47 -4 -10 -10 -18 -14 -18 -5 0
-11 -9 -15 -20 -9 -27 -139 -158 -205 -206 -179 -129 -392 -160 -585 -87 -49
19 -108 46 -115 53 -3 3 -25 19 -49 35 -51 34 -191 169 -191 184 0 5 -3 11 -8
13 -11 5 -82 106 -82 117 0 5 -6 16 -13 23 -44 46 -144 310 -173 458 -63 321
-36 718 66 980 12 30 24 64 27 74 8 25 62 127 78 146 7 8 14 20 16 27 9 27
136 177 178 211 25 20 51 41 56 46 15 16 94 59 165 89 34 15 114 33 175 41 34
4 54 2 150 -15z m6741 -164 c-4 -22 -11 -78 -16 -125 -21 -175 -106 -450 -139
-450 -5 0 0 24 11 53 11 28 23 66 27 82 4 17 12 39 18 50 5 11 17 56 27 100 9
44 22 100 27 125 6 25 13 90 16 144 5 89 8 97 20 80 10 -13 13 -32 9 -59z
m-1110 -106 c-1 -130 -3 -147 -14 -122 -11 25 -12 21 -7 -37 3 -47 2 -59 -5
-45 -7 15 -8 5 -5 -35 6 -52 5 -54 -11 -35 -15 19 -16 18 -9 -25 4 -33 3 -41
-5 -30 -8 11 -9 4 -4 -30 5 -39 4 -43 -8 -28 -12 15 -14 11 -14 -32 0 -54 -10
-73 -25 -50 -7 11 -8 7 -3 -13 4 -16 1 -33 -6 -42 -30 -36 -41 2 -17 58 46
107 107 377 107 470 0 26 5 47 10 47 6 0 10 23 10 50 0 28 2 50 3 50 2 0 3
-68 3 -151z m-270 -40 c-5 -4 -5 -42 -1 -85 4 -52 3 -76 -3 -69 -6 6 -13 19
-16 30 -3 11 -3 -7 -1 -40 2 -33 0 -78 -4 -100 -8 -39 -8 -40 -19 -15 -10 22
-11 18 -7 -25 4 -38 3 -45 -5 -30 -8 16 -9 12 -5 -17 6 -36 -7 -52 -19 -25 -3
6 -4 0 -1 -15 3 -14 2 -40 -1 -57 -6 -27 -9 -30 -22 -19 -13 11 -15 10 -9 -4
7 -19 -7 -33 -23 -23 -6 3 -4 18 4 38 40 96 69 204 100 377 3 14 11 79 18 145
l13 120 5 -90 c3 -49 1 -93 -4 -96z m-570 34 c-9 -156 -10 -165 -17 -178 -4
-5 -9 -44 -12 -85 -3 -46 -2 -62 3 -40 10 49 12 -1 1 -55 -8 -39 -13 -37 -25
10 -3 11 -3 -7 -1 -40 3 -45 2 -54 -5 -35 -8 21 -9 18 -5 -15 5 -49 -16 -85
-39 -66 -13 11 -13 18 -1 54 38 115 68 274 86 460 7 64 14 117 17 117 3 0 2
-57 -2 -127z m1087 7 c3 -67 2 -98 -4 -85 -6 13 -7 -2 -4 -45 6 -61 5 -64 -10
-45 -16 19 -16 17 -9 -29 5 -34 3 -47 -4 -42 -7 4 -9 -5 -5 -30 5 -30 3 -36
-9 -32 -11 5 -13 -1 -10 -23 2 -16 0 -29 -6 -29 -6 0 -8 -9 -5 -20 4 -14 0
-20 -11 -20 -10 0 -14 -4 -11 -10 10 -16 -6 -82 -19 -77 -7 3 -12 -4 -12 -16
1 -13 -6 -23 -18 -25 -15 -3 -17 0 -13 14 66 199 88 272 101 339 20 107 36
217 36 256 0 67 7 20 13 -81z m-790 -75 c5 -112 4 -117 -9 -80 -14 39 -14 39
-10 -40 3 -56 2 -71 -4 -50 -7 22 -8 13 -5 -35 5 -63 4 -64 -10 -35 -15 30
-15 29 -11 -25 4 -41 3 -49 -4 -30 -7 19 -8 14 -4 -22 5 -48 -11 -70 -18 -25
-2 12 -4 -4 -4 -36 1 -47 -3 -61 -18 -73 -25 -18 -40 -4 -28 27 45 118 102
398 103 510 1 111 15 55 22 -86z m953 133 c-22 -82 -15 -237 11 -245 7 -3 67
50 133 116 129 128 143 136 192 103 23 -15 116 -129 149 -182 8 -13 11 -13 23
3 38 49 27 -12 -17 -93 -16 -30 -43 -71 -58 -91 -15 -20 -27 -45 -26 -56 2
-28 -35 -103 -51 -103 -12 0 -4 24 28 83 12 21 0 22 -26 2 -67 -52 -175 -70
-237 -39 -99 50 -167 198 -167 365 0 56 6 103 14 124 17 39 42 49 32 13z
m1404 -347 c0 -5 -6 -16 -14 -24 -19 -18 -56 -88 -56 -104 0 -7 -5 -13 -10
-13 -9 0 -65 -35 -80 -50 -10 -10 -97 -50 -109 -50 -6 0 -11 -4 -11 -9 0 -5
-17 -12 -37 -16 -21 -4 -44 -12 -51 -17 -7 -7 -99 -15 -215 -19 -237 -10 -206
-10 -382 -2 l-140 6 120 13 c66 7 167 20 225 29 58 8 137 19 175 25 39 5 90
14 115 20 25 5 68 15 95 20 106 23 137 33 188 58 64 33 135 84 162 117 23 27
25 29 25 16z"/>
<path d="M8108 7549 c-19 -11 -16 -53 8 -101 8 -15 14 -34 14 -42 0 -48 126
-253 144 -235 3 3 -1 23 -9 46 -11 33 -12 64 -4 164 5 68 11 130 14 136 12 34
-120 60 -167 32z"/>
<path d="M7985 7464 c-16 -19 -39 -51 -50 -71 -28 -51 -47 -73 -63 -73 -17 0
121 -150 180 -195 39 -31 109 -56 138 -50 16 4 30 9 30 12 0 2 -19 30 -43 61
-24 31 -50 75 -59 97 -14 37 -22 64 -60 200 -8 28 -20 51 -28 52 -8 1 -28 -13
-45 -33z"/>
<path d="M8326 7479 c-22 -69 -8 -247 24 -313 26 -55 39 -48 79 42 6 12 15 22
20 22 15 0 21 44 10 83 -5 20 -14 37 -18 37 -5 0 -12 11 -15 24 -8 33 -94 123
-100 105z"/>
<path d="M7852 7208 c-16 -30 -52 -219 -52 -269 0 -30 -4 -39 -17 -39 -9 0
-14 -3 -10 -6 7 -8 235 -5 312 4 53 6 61 10 69 34 8 23 6 30 -15 48 -13 11
-29 24 -36 30 -7 5 -17 10 -22 10 -12 0 -124 110 -171 167 -19 24 -38 43 -41
43 -3 0 -11 -10 -17 -22z"/>
<path d="M8483 7178 c-6 -7 -14 -24 -18 -38 -4 -14 -14 -34 -21 -45 -8 -11
-14 -32 -14 -47 0 -16 -5 -28 -12 -28 -9 0 -9 -3 -1 -11 12 -12 6 -49 -8 -49
-5 0 -9 -13 -9 -30 0 -20 5 -30 15 -30 10 0 15 10 15 31 0 27 2 30 15 19 8 -7
15 -25 15 -40 0 -16 -7 -30 -15 -34 -21 -8 -19 -25 3 -25 9 1 50 -8 90 -19 57
-15 72 -16 72 -5 0 8 -12 13 -30 13 l-30 0 -1 68 c0 69 -9 130 -29 217 -14 58
-23 71 -37 53z"/>
<path d="M7802 6719 c5 -67 13 -129 18 -139 6 -10 10 -35 10 -55 0 -61 22 -54
113 38 46 46 106 97 133 113 66 39 84 55 84 77 0 37 -28 50 -113 54 -45 3 -91
8 -102 13 -11 5 -49 11 -85 14 l-65 5 7 -120z"/>
<path d="M8460 6744 c0 -14 -7 -32 -15 -40 -13 -14 -15 -11 -15 20 0 27 -3 34
-15 30 -18 -7 -20 -61 -3 -66 7 -3 5 -13 -7 -31 -20 -30 -15 -96 11 -145 7
-15 14 -35 14 -44 0 -10 4 -18 9 -18 4 0 12 -15 17 -32 l10 -33 23 49 c12 27
27 72 32 100 6 28 14 71 19 96 5 25 9 66 9 93 l1 47 -45 0 c-42 0 -45 -2 -45
-26z"/>
<path d="M8105 6589 c-61 -31 -162 -104 -202 -146 -12 -13 -27 -23 -33 -23
-13 0 -13 -3 7 -47 35 -76 116 -193 134 -193 4 0 19 37 33 83 15 45 30 89 35
97 5 9 12 31 16 50 9 40 39 90 84 140 61 67 21 88 -74 39z"/>
<path d="M8324 6523 c-19 -29 -20 -42 -30 -240 -7 -146 -4 -153 47 -110 32 27
109 139 109 159 0 8 -11 36 -24 64 -13 27 -33 70 -45 96 -27 60 -35 64 -57 31z"/>
<path d="M8217 6468 c-52 -56 -70 -84 -102 -168 -9 -25 -23 -56 -30 -70 -20
-40 -26 -88 -12 -97 24 -16 83 -33 112 -33 57 1 60 9 61 185 0 132 4 166 18
193 28 54 9 50 -47 -10z"/>
<path d="M15635 7324 c-84 -12 -91 -15 -109 -45 l-19 -32 24 6 c124 28 160 30
241 17 46 -7 95 -19 109 -26 23 -11 29 -11 39 1 16 19 7 31 -44 54 -44 19
-180 33 -241 25z"/>
<path d="M15374 7224 c-53 -36 -194 -176 -194 -194 0 -5 -4 -10 -8 -10 -11 0
-52 -82 -52 -103 0 -11 -6 -15 -17 -11 -10 3 46 -58 125 -135 79 -78 145 -141
147 -141 2 0 21 -16 42 -35 21 -19 44 -35 51 -35 6 0 12 -4 12 -10 0 -5 6 -10
14 -10 7 0 19 -6 25 -14 7 -8 24 -17 39 -21 15 -4 29 -11 32 -16 4 -5 26 -12
51 -15 42 -6 45 -5 58 27 11 24 11 34 3 37 -7 2 -12 8 -12 13 0 6 -11 22 -25
37 -14 15 -28 37 -31 50 -4 12 -10 22 -15 22 -5 0 -9 6 -9 13 -1 6 -9 30 -20
52 -11 22 -19 48 -20 57 0 10 -6 35 -14 55 -25 69 -44 138 -51 176 -4 29 -11
37 -26 37 -39 0 -157 -107 -211 -191 -27 -42 -48 -60 -62 -52 -7 5 -27 25 -45
45 l-32 37 37 58 c20 32 73 94 118 138 81 80 102 97 144 115 24 10 30 45 9 53
-7 2 -35 -11 -63 -29z"/>
<path d="M15996 7211 c-17 -19 -17 -20 16 -37 18 -9 43 -27 55 -40 12 -13 24
-24 27 -24 10 0 76 -70 76 -80 0 -6 4 -10 8 -10 8 0 73 -84 85 -110 17 -35 43
-73 52 -74 39 -5 -16 116 -90 197 -14 15 -25 30 -25 33 0 11 -167 164 -180
164 -4 0 -15 -9 -24 -19z"/>
<path d="M15579 7099 c-26 -10 -26 -10 -13 -52 8 -23 19 -50 24 -59 6 -10 10
-23 10 -29 0 -6 6 -25 14 -42 8 -18 31 -74 52 -124 21 -51 42 -93 46 -93 4 0
8 -5 8 -12 0 -16 119 -128 136 -128 17 0 17 3 -1 47 -17 41 -20 147 -5 224 6
30 15 88 20 129 5 41 12 83 15 93 6 13 -2 21 -36 37 -35 15 -65 19 -144 19
-55 0 -112 -5 -126 -10z"/>
<path d="M15956 7004 c-9 -36 -25 -209 -26 -275 0 -67 31 -173 64 -214 22 -27
25 -28 40 -13 9 9 16 19 16 21 0 3 41 46 90 96 90 92 103 117 75 141 -8 7 -15
19 -15 27 0 7 -7 16 -15 19 -8 4 -15 11 -15 18 0 25 -137 168 -186 194 -19 10
-23 9 -28 -14z"/>
<path d="M15049 6803 c-45 -78 -109 -354 -109 -465 0 -65 1 -68 28 -75 15 -4
157 -7 315 -7 277 -1 289 0 303 19 9 12 11 21 4 23 -16 6 -12 32 5 32 36 0 1
37 -72 77 -26 14 -40 18 -40 10 2 -22 -15 -92 -26 -104 -12 -17 -31 -17 -20
-1 4 7 8 42 10 78 l2 65 -127 128 c-70 70 -129 127 -133 127 -22 0 -98 -252
-99 -325 0 -22 -5 -57 -11 -77 -9 -34 -13 -38 -44 -38 -58 0 -65 7 -65 62 0
98 62 353 106 440 29 55 3 84 -27 31z"/>
<path d="M16228 6616 c-15 -17 -35 -47 -45 -66 -10 -19 -23 -39 -29 -45 -7 -5
-24 -29 -38 -52 -26 -42 -36 -116 -17 -127 18 -11 22 -76 7 -98 -21 -30 -4
-48 45 -48 21 0 50 -5 66 -11 15 -6 79 -17 142 -25 118 -15 141 -11 141 24 0
13 -2 13 -13 -2 -10 -13 -24 -17 -67 -14 l-54 3 -2 45 c-4 151 -53 367 -96
429 -13 18 -15 17 -40 -13z"/>
<path d="M15662 6247 c-13 -8 -29 -24 -36 -38 -11 -23 -15 -24 -123 -24 -169
0 -157 -10 42 -35 33 -4 65 -3 71 1 7 6 18 1 29 -11 13 -14 31 -20 62 -20 l44
0 -3 68 c-3 67 -3 67 -33 69 -16 2 -40 -3 -53 -10z"/>
<path d="M14937 6158 c-6 -44 10 -239 23 -272 5 -15 10 -39 10 -54 0 -14 14
-70 31 -124 24 -75 35 -98 49 -98 10 0 20 7 24 15 3 8 2 15 -2 15 -7 0 -38 85
-63 175 -17 65 -38 204 -42 282 l-4 82 36 4 c32 3 31 4 -10 5 -45 2 -47 1 -52
-30z"/>
<path d="M15077 6089 c30 -209 50 -309 64 -323 5 -6 9 -23 9 -38 0 -35 7 -35
50 3 19 17 55 48 80 68 25 19 55 46 67 58 12 13 27 23 33 23 5 0 10 4 10 9 0
10 101 77 130 86 11 4 20 11 20 16 0 5 6 9 13 9 20 0 44 31 50 64 4 22 -1 34
-20 52 -20 19 -39 23 -131 29 -59 3 -128 10 -154 15 -26 5 -89 12 -141 16
l-94 7 14 -94z"/>
<path d="M16118 6074 c-5 -4 -8 -22 -8 -41 0 -30 -7 -37 -27 -30 -5 1 -8 16
-8 32 0 23 -5 31 -22 33 -36 5 -63 -15 -63 -48 0 -16 5 -32 10 -35 6 -3 10
-17 10 -31 0 -15 4 -23 11 -19 6 4 7 19 4 36 -6 26 -4 29 20 29 22 0 26 -3 19
-17 -27 -62 -13 -124 47 -218 10 -16 22 -37 26 -45 12 -27 96 -154 142 -216
l46 -61 28 26 c15 15 27 31 27 36 0 6 6 22 14 37 8 15 17 42 21 60 4 18 11 38
16 43 4 6 10 35 13 65 4 44 4 48 -3 20 -5 -19 -19 -60 -31 -90 -12 -30 -27
-70 -33 -87 -6 -18 -14 -33 -19 -33 -4 0 -8 -7 -8 -15 0 -33 -40 -14 -84 39
l-34 42 29 47 c16 26 29 53 29 61 0 7 7 27 15 42 8 16 15 38 15 49 0 11 7 42
15 69 8 27 15 67 15 89 0 22 5 57 12 78 6 22 9 41 7 43 -8 9 -244 18 -251 10z"/>
<path d="M15585 5886 c-16 -6 -48 -23 -70 -37 -22 -14 -47 -26 -55 -26 -14 0
-149 -87 -160 -103 -9 -13 -100 -80 -109 -80 -5 0 -12 -7 -15 -16 -3 -8 -2
-13 2 -10 13 8 25 -6 47 -49 11 -22 22 -42 25 -45 3 -3 18 -24 34 -47 16 -24
33 -43 37 -43 5 0 9 -5 9 -11 0 -6 15 -24 33 -39 92 -82 89 -81 107 -22 24 76
72 208 86 234 8 14 14 33 14 42 0 19 49 103 95 164 39 51 45 82 16 82 -11 0
-23 5 -26 10 -8 12 -31 11 -70 -4z"/>
<path d="M15985 5810 c-3 -5 -16 -10 -29 -10 -15 0 -27 -10 -38 -33 -19 -40
-31 -94 -24 -105 3 -5 7 -95 8 -200 2 -105 6 -193 9 -197 8 -7 53 13 104 46
47 31 126 116 170 182 16 25 16 29 1 46 -9 9 -16 23 -16 29 0 7 -4 12 -9 12
-5 0 -14 14 -21 30 -7 17 -16 30 -21 30 -5 0 -9 5 -9 12 0 6 -20 37 -44 67
-24 31 -46 66 -50 79 -8 23 -21 29 -31 12z"/>
<path d="M15815 5770 c-3 -5 -17 -10 -31 -10 -27 0 -64 -32 -64 -55 0 -8 -13
-34 -30 -57 -16 -22 -30 -47 -30 -55 0 -7 -4 -13 -9 -13 -5 0 -12 -13 -16 -30
-4 -16 -11 -30 -16 -30 -5 0 -9 -5 -9 -11 0 -7 -9 -30 -19 -53 -39 -83 -51
-114 -51 -130 0 -9 -4 -16 -9 -16 -5 0 -11 -9 -14 -19 -5 -20 5 -27 81 -55 28
-11 76 -16 144 -16 l101 0 -7 108 c-18 298 -19 321 -6 369 6 26 14 56 17 66 5
18 -21 25 -32 7z"/>
<path d="M15091 5518 c-1 -46 3 -55 82 -182 40 -65 183 -206 208 -206 29 0 33
33 7 53 -13 10 -40 34 -60 53 -35 32 -38 38 -36 84 3 59 -22 93 -59 84 -13 -4
-23 -11 -23 -16 0 -5 -7 -3 -15 6 -8 8 -15 17 -15 20 0 7 -62 100 -71 106 -4
3 -9 14 -12 25 -2 11 -5 -1 -6 -27z"/>
<path d="M16246 5331 c-44 -59 -163 -171 -182 -171 -8 0 -14 -4 -14 -8 0 -10
-85 -52 -105 -52 -25 0 -17 -29 9 -36 27 -6 81 16 114 46 12 11 25 20 29 20
16 0 173 168 173 185 0 10 8 24 18 31 12 9 14 16 6 24 -8 8 -21 -2 -48 -39z"/>
<path d="M15450 5132 c0 -5 7 -15 15 -22 8 -7 15 -20 15 -30 0 -45 182 -87
324 -73 63 6 66 7 66 32 l0 26 -122 0 c-127 0 -173 10 -260 56 -21 11 -38 16
-38 11z"/>
<path d="M22089 7071 c-13 -10 -51 -33 -84 -51 -33 -18 -67 -38 -75 -44 -8 -7
-32 -21 -52 -31 -37 -19 -52 -55 -29 -69 5 -3 12 -17 15 -31 15 -60 105 -124
174 -125 40 0 115 33 151 66 14 13 29 24 33 24 5 0 8 7 8 15 0 8 4 15 9 15 9
0 71 94 71 108 -1 8 -104 85 -161 119 -36 22 -37 22 -60 4z"/>
<path d="M9683 10463 c-13 -2 -23 -8 -23 -13 0 -5 -13 -11 -30 -15 -16 -4 -30
-10 -30 -15 0 -5 -13 -11 -30 -15 -16 -4 -30 -10 -30 -15 0 -4 -18 -10 -40
-14 -22 -3 -40 -10 -40 -15 0 -5 -13 -12 -30 -16 -16 -4 -30 -10 -30 -15 0 -5
-13 -11 -30 -15 -16 -4 -30 -10 -30 -15 0 -5 -13 -11 -30 -15 -16 -4 -30 -10
-30 -15 0 -5 -13 -11 -30 -15 -16 -4 -30 -10 -30 -15 0 -5 -13 -11 -29 -15
-16 -3 -32 -13 -35 -21 -3 -8 -12 -14 -21 -14 -8 0 -15 -4 -15 -9 0 -5 -13
-12 -30 -16 -16 -4 -30 -10 -30 -15 0 -4 -11 -11 -25 -14 -14 -4 -25 -10 -25
-15 0 -5 -13 -12 -29 -16 -16 -3 -32 -13 -35 -21 -3 -8 -12 -14 -21 -14 -8 0
-15 -4 -15 -9 0 -5 -11 -12 -25 -15 -14 -4 -25 -10 -25 -15 0 -5 -13 -12 -29
-16 -16 -3 -32 -13 -35 -21 -3 -8 -12 -14 -21 -14 -8 0 -15 -4 -15 -10 0 -5
-11 -12 -24 -16 -14 -3 -27 -12 -30 -20 -3 -8 -12 -14 -21 -14 -8 0 -15 -4
-15 -9 0 -5 -11 -12 -25 -15 -14 -4 -25 -11 -25 -16 0 -6 -6 -10 -13 -10 -7 0
-20 -9 -30 -20 -9 -11 -23 -20 -31 -20 -8 0 -16 -7 -20 -15 -3 -8 -12 -15 -21
-15 -8 0 -15 -4 -15 -10 0 -5 -11 -12 -25 -16 -14 -3 -25 -10 -25 -15 0 -5 -8
-13 -17 -16 -10 -4 -27 -16 -39 -29 -11 -12 -31 -25 -42 -29 -12 -3 -22 -11
-22 -16 0 -5 -7 -9 -15 -9 -9 0 -18 -7 -21 -15 -3 -8 -15 -17 -26 -21 -12 -3
-31 -17 -43 -30 -12 -13 -26 -24 -31 -24 -5 0 -17 -9 -27 -20 -9 -11 -23 -20
-31 -20 -12 0 -26 -20 -26 -36 0 -3 14 2 30 11 17 9 30 20 30 25 0 6 5 10 11
10 7 0 22 11 35 25 13 14 27 25 32 25 11 0 186 130 190 142 2 4 10 8 17 8 8 0
20 6 27 13 7 7 34 26 61 41 26 15 47 31 47 36 0 4 8 11 18 14 9 3 26 12 37 19
45 28 110 72 115 78 3 3 46 30 95 59 50 29 92 56 95 60 3 5 18 12 33 15 15 4
27 11 27 15 0 4 12 13 28 19 15 6 50 25 77 41 28 17 75 42 105 57 30 15 57 31
60 35 3 3 18 10 33 13 15 4 27 11 27 15 0 5 14 11 30 15 17 4 30 10 30 15 0 5
14 11 30 15 17 4 30 10 30 15 0 5 14 11 30 15 17 4 30 11 30 16 0 5 5 9 11 9
5 0 29 8 52 18 23 10 62 27 87 37 25 11 54 25 65 32 19 13 19 13 0 12 -11 -1
-30 -4 -42 -6z"/>
<path d="M8044 9465 c-3 -8 -15 -17 -27 -21 -12 -4 -32 -20 -46 -35 -14 -16
-30 -29 -35 -29 -5 0 -19 -11 -31 -24 -12 -13 -31 -27 -43 -30 -11 -4 -23 -13
-26 -21 -3 -8 -11 -15 -17 -15 -6 0 -22 -11 -34 -24 -12 -13 -32 -27 -43 -31
-12 -3 -22 -11 -22 -16 0 -5 -6 -9 -13 -9 -7 0 -20 -9 -30 -20 -9 -11 -24 -20
-32 -20 -8 0 -15 -4 -15 -10 0 -5 -7 -10 -15 -10 -9 0 -18 -6 -21 -14 -3 -8
-19 -18 -35 -21 -16 -4 -29 -11 -29 -16 0 -5 -11 -11 -25 -15 -14 -3 -25 -10
-25 -15 0 -5 -7 -9 -15 -9 -9 0 -18 -6 -21 -14 -3 -8 -17 -17 -32 -21 -14 -3
-36 -17 -47 -30 -12 -12 -31 -26 -43 -29 -11 -4 -23 -14 -26 -23 -9 -23 -2
-25 20 -5 10 9 36 28 56 42 21 14 38 28 38 31 0 4 12 10 27 14 15 3 30 10 33
14 8 12 127 81 139 81 6 0 11 5 11 10 0 6 10 15 23 20 27 12 56 31 75 48 7 6
16 12 20 12 4 0 21 13 38 28 18 15 42 34 54 42 20 14 60 43 85 63 6 4 24 19
40 33 17 14 42 32 58 40 15 8 27 19 27 24 0 6 6 10 14 10 8 0 16 7 20 15 3 9
0 15 -10 15 -8 0 -17 -7 -20 -15z"/>
<path d="M6269 5830 c-12 -13 -14 -21 -6 -29 8 -8 8 -11 -1 -11 -6 0 -15 -19
-18 -42 -6 -37 -8 -39 -21 -23 -14 20 -8 55 11 67 7 5 7 8 -2 8 -8 0 -16 -9
-19 -20 -3 -11 -9 -20 -14 -20 -5 0 -4 -9 3 -20 11 -17 10 -22 -1 -29 -11 -7
-11 -9 0 -14 12 -5 12 -7 0 -15 -11 -8 -11 -10 0 -15 12 -5 12 -7 0 -15 -8 -6
-10 -15 -6 -23 7 -10 10 -9 14 4 4 12 10 14 21 7 11 -7 12 -12 3 -17 -12 -8
-16 -26 -14 -55 1 -22 21 -24 21 -3 0 8 -6 15 -12 15 -9 0 -10 3 -2 8 6 4 13
12 15 19 3 9 9 9 19 3 13 -9 13 -11 0 -21 -13 -9 -13 -10 0 -6 8 2 16 16 17
31 2 33 10 43 22 30 11 -11 2 -64 -10 -64 -5 0 -9 -7 -9 -15 0 -30 19 -14 26
20 3 20 11 34 18 32 13 -5 11 -60 -3 -65 -11 -4 17 -62 30 -62 5 0 3 10 -5 23
-15 22 -12 67 5 67 19 0 7 22 -32 60 -23 22 -36 40 -30 40 6 0 11 11 11 25 0
14 -4 25 -10 25 -5 0 -10 7 -10 15 0 21 17 19 24 -2 4 -15 5 -15 4 2 -1 35 2
45 12 45 6 0 10 -13 10 -30 0 -16 -4 -30 -10 -30 -17 0 -11 -47 6 -54 12 -5
15 -2 12 12 -4 15 0 18 20 16 14 -1 29 -10 34 -18 5 -9 13 -16 18 -16 15 0 12
28 -2 33 -10 4 -10 6 0 6 15 1 16 53 0 69 -13 13 -1 17 32 12 12 -2 12 2 -3
17 -9 11 -17 25 -17 31 0 22 -18 12 -24 -12 -7 -29 -38 -45 -35 -18 3 30 -1
42 -12 42 -8 0 -8 -5 1 -15 9 -10 9 -15 1 -15 -6 0 -11 -7 -11 -16 0 -14 -3
-14 -15 -4 -13 11 -13 15 -3 22 10 7 10 9 -2 5 -8 -2 -16 -10 -16 -18 -1 -8
-2 -19 -3 -25 0 -7 -7 -14 -15 -17 -11 -4 -14 2 -14 24 1 17 7 33 15 36 14 5
19 24 6 22 -5 0 -15 -9 -24 -19z"/>
<path d="M24170 4893 c15 -7 12 -52 -4 -69 -15 -14 -11 -54 5 -54 13 0 11 28
-2 32 -7 2 -5 9 5 17 14 12 16 10 16 -18 0 -17 5 -31 10 -31 6 0 10 -5 10 -11
0 -8 -4 -8 -14 1 -13 10 -14 7 -12 -17 2 -15 4 -36 5 -46 0 -10 7 -17 14 -16
38 5 49 -11 24 -36 -14 -14 -11 -85 4 -85 14 0 10 -33 -6 -54 -8 -11 -14 -34
-14 -50 1 -21 3 -24 6 -11 2 11 11 34 19 52 8 17 14 38 14 46 0 9 5 17 10 19
6 2 12 17 14 33 5 43 26 44 26 2 0 -20 -4 -37 -8 -39 -5 -1 -12 -25 -16 -53
-6 -45 -5 -48 8 -30 8 11 17 51 21 88 4 37 11 67 16 67 10 0 22 -40 19 -61 -6
-40 1 -97 13 -102 15 -6 11 60 -5 81 -7 8 -7 12 1 12 17 0 13 23 -14 74 -13
25 -22 46 -19 46 4 0 30 -27 64 -68 6 -7 13 -26 15 -44 2 -17 8 -34 14 -37 5
-3 13 -19 16 -34 8 -29 25 -37 25 -12 0 8 -4 15 -10 15 -5 0 -10 5 -10 12 0 6
-7 20 -17 30 -9 10 -11 18 -5 18 17 0 -24 72 -62 109 -21 21 -32 38 -25 41 6
4 5 11 -5 19 -13 11 -15 6 -11 -43 3 -49 2 -54 -11 -42 -17 17 -18 36 -3 36 8
0 7 5 -1 15 -10 12 -15 13 -20 4 -6 -8 -9 -8 -15 1 -5 9 -9 9 -14 1 -5 -7 -15
-3 -31 14 -13 14 -19 25 -14 26 5 0 18 2 30 3 13 2 21 -3 20 -12 -1 -8 6 -17
14 -20 13 -5 13 -3 1 11 -10 13 -10 17 -1 17 10 0 10 3 0 15 -8 9 -8 15 -2 15
6 0 17 14 26 30 8 18 10 30 4 30 -6 0 -6 6 2 15 9 10 9 15 1 15 -6 0 -11 -3
-12 -7 -4 -45 -10 -64 -27 -81 -24 -24 -42 -12 -42 30 0 15 -4 28 -9 28 -6 0
-11 14 -13 32 -2 17 -9 33 -16 34 -7 1 -8 0 -2 -3z"/>
</g>
</svg>
