<?xml version="1.0" standalone="no"?>
<!DOCTYPE svg PUBLIC "-//W3C//DTD SVG 20010904//EN"
 "http://www.w3.org/TR/2001/REC-SVG-20010904/DTD/svg10.dtd">
<svg version="1.0" xmlns="http://www.w3.org/2000/svg"
 width="2880.000000pt" height="1725.000000pt" viewBox="0 0 2880.000000 1725.000000"
 preserveAspectRatio="xMidYMid meet">
<metadata>
Created by potrace 1.16, written by Peter Selinger 2001-2019
</metadata>
<g transform="translate(0.000000,1725.000000) scale(0.100000,-0.100000)"
fill="#000000" stroke="none">
<path d="M11895 11463 c-160 -4 -540 -31 -685 -48 -292 -36 -592 -100 -775
-165 -33 -12 -69 -24 -80 -26 -11 -3 -33 -12 -50 -19 -16 -7 -50 -21 -75 -31
-148 -57 -414 -190 -586 -294 -45 -27 -87 -50 -93 -50 -5 0 -11 -3 -13 -7 -4
-10 -65 -53 -74 -53 -10 0 -519 -342 -522 -351 -2 -5 -8 -9 -13 -9 -6 0 -15
-5 -22 -10 -7 -6 -43 -33 -82 -61 -38 -27 -78 -56 -88 -64 -9 -8 -19 -15 -22
-15 -3 0 -13 -6 -22 -14 -53 -44 -185 -136 -193 -136 -6 0 -10 -4 -10 -8 0 -5
-55 -44 -122 -88 -114 -73 -157 -97 -308 -168 -104 -49 -290 -163 -290 -177 0
-5 -4 -9 -10 -9 -5 0 -19 -9 -30 -20 -11 -11 -20 -24 -20 -30 0 -5 -4 -10 -9
-10 -5 0 -12 -9 -16 -19 -3 -10 -16 -22 -28 -25 l-22 -6 23 -18 c21 -16 22
-20 8 -31 -9 -8 -16 -22 -16 -33 0 -33 -38 -95 -72 -119 -18 -12 -45 -35 -60
-51 -15 -15 -33 -28 -40 -28 -13 0 -84 -85 -106 -127 -9 -16 -9 -22 0 -25 8
-3 7 -18 -5 -54 -19 -57 -38 -122 -61 -214 -30 -115 -48 -174 -62 -208 -8 -18
-14 -37 -14 -43 0 -6 -7 -27 -16 -47 -9 -21 -23 -53 -32 -72 -8 -19 -21 -47
-29 -62 -10 -20 -13 -83 -13 -260 0 -234 6 -291 50 -473 7 -27 18 -79 27 -115
19 -86 42 -167 60 -209 19 -46 11 -49 -25 -9 -17 18 -35 29 -39 25 -4 -5 -2
-11 4 -15 6 -4 15 -35 19 -70 3 -34 10 -62 14 -62 5 0 11 -13 15 -30 4 -17 10
-30 15 -30 4 0 11 -12 14 -26 7 -25 125 -154 141 -154 4 0 18 -11 30 -24 12
-13 32 -27 45 -31 13 -4 30 -14 38 -21 7 -8 19 -14 27 -14 7 0 15 -7 19 -15 3
-8 12 -15 21 -15 8 0 15 -4 15 -9 0 -5 11 -12 25 -15 14 -4 25 -10 25 -15 0
-5 13 -12 29 -16 16 -3 32 -13 35 -21 3 -8 12 -14 21 -14 8 0 15 -7 15 -15 0
-8 4 -15 9 -15 5 0 12 -40 16 -90 4 -49 11 -90 15 -90 4 0 11 -27 15 -60 4
-33 11 -60 15 -60 4 0 11 -20 14 -45 4 -25 11 -45 15 -45 5 0 12 -20 15 -45 4
-25 11 -45 16 -45 5 0 10 -8 12 -17 3 -15 -8 -20 -62 -30 -36 -6 -83 -12 -105
-12 -79 -1 -335 -47 -440 -78 -61 -19 -80 -35 -80 -71 0 -29 5 -27 -130 -52
-33 -6 -81 -17 -106 -25 -26 -8 -55 -15 -65 -15 -11 0 -32 -7 -48 -15 -15 -8
-35 -15 -42 -15 -27 0 -64 -32 -64 -55 0 -19 16 -31 90 -68 50 -25 104 -48
120 -52 17 -4 30 -10 30 -15 0 -4 19 -11 43 -15 23 -4 45 -12 48 -17 3 -5 23
-11 45 -15 21 -3 42 -10 45 -15 3 -5 31 -12 62 -15 32 -3 57 -9 57 -13 0 -4
22 -10 50 -14 27 -4 52 -10 54 -15 3 -5 35 -12 71 -16 36 -3 65 -10 65 -15 0
-4 27 -11 60 -15 33 -4 60 -11 60 -15 0 -4 27 -11 60 -15 33 -4 60 -11 60 -15
0 -5 35 -11 78 -15 42 -4 82 -11 87 -15 6 -4 32 -10 59 -14 27 -3 54 -10 60
-15 6 -5 32 -12 59 -16 26 -4 47 -11 47 -15 0 -4 21 -10 46 -14 25 -3 52 -13
60 -21 9 -8 28 -15 44 -15 16 0 30 -4 32 -10 2 -5 35 -12 73 -16 39 -4 72 -11
75 -15 3 -4 58 -11 123 -15 64 -4 117 -10 117 -14 0 -4 39 -10 87 -13 47 -4
89 -11 92 -16 4 -5 41 -13 84 -17 43 -4 80 -10 82 -15 3 -4 41 -11 85 -15 44
-3 80 -10 80 -14 0 -4 35 -11 78 -15 42 -4 82 -10 87 -15 6 -4 46 -10 90 -14
44 -4 84 -11 90 -15 5 -5 39 -11 74 -15 35 -3 69 -10 75 -15 6 -5 46 -12 88
-16 43 -4 80 -10 83 -15 3 -4 35 -11 72 -15 38 -4 73 -10 78 -15 6 -4 40 -11
77 -15 37 -3 70 -10 73 -15 3 -5 39 -11 80 -15 42 -4 77 -11 80 -15 3 -4 36
-11 75 -15 39 -4 72 -11 75 -15 3 -5 39 -11 80 -15 41 -4 75 -11 75 -16 0 -5
9 -9 19 -9 11 0 26 -7 34 -15 8 -8 35 -17 59 -21 23 -4 48 -10 53 -14 6 -4 39
-11 75 -15 36 -4 70 -11 76 -16 5 -4 65 -11 132 -15 67 -4 122 -10 122 -14 0
-4 54 -11 120 -15 66 -4 120 -10 120 -15 0 -4 36 -11 80 -14 44 -4 82 -11 85
-16 3 -5 41 -12 85 -16 44 -3 80 -10 80 -14 0 -5 34 -11 75 -15 41 -4 75 -11
75 -15 0 -5 35 -11 78 -15 42 -4 82 -11 87 -15 6 -4 45 -11 88 -15 42 -4 77
-11 77 -16 0 -4 17 -10 38 -12 20 -2 -46 -5 -148 -6 -172 -3 -307 -11 -390
-25 -42 -7 -69 -31 -53 -47 17 -17 127 -42 243 -53 30 -3 84 -10 120 -14 36
-5 317 -10 625 -11 307 -1 564 -6 570 -10 5 -5 44 -12 85 -16 41 -4 82 -11 91
-16 9 -5 47 -13 85 -18 185 -26 230 -34 245 -41 9 -5 50 -12 90 -16 41 -3 79
-10 84 -15 6 -4 42 -11 80 -15 39 -4 75 -11 81 -16 7 -4 47 -11 90 -14 44 -4
84 -10 89 -15 6 -4 46 -13 90 -18 44 -6 98 -15 120 -21 22 -5 57 -10 77 -10
20 0 39 -4 42 -9 5 -7 57 -16 151 -25 6 -1 19 -5 30 -9 11 -3 47 -11 80 -16
33 -6 89 -17 125 -25 36 -8 92 -19 125 -26 33 -6 69 -16 80 -20 22 -9 153 -38
225 -49 25 -4 51 -10 57 -14 12 -8 86 -20 228 -38 44 -6 88 -15 98 -20 9 -5
50 -12 90 -15 39 -4 79 -10 87 -14 8 -4 47 -11 85 -15 39 -3 79 -10 90 -15 11
-4 56 -13 100 -19 44 -7 103 -16 130 -21 28 -5 73 -9 100 -9 28 -1 55 -5 60
-10 6 -5 57 -14 115 -21 58 -6 155 -18 215 -26 61 -7 162 -18 225 -24 63 -6
140 -15 170 -20 30 -5 100 -12 155 -15 55 -4 109 -10 120 -15 11 -5 81 -14
155 -20 74 -7 178 -16 230 -20 131 -12 1726 -12 1935 1 94 5 274 12 400 15
200 4 338 12 565 29 30 3 96 9 145 15 50 6 142 15 205 20 63 6 135 14 160 19
25 5 87 12 139 16 52 3 113 10 135 15 23 5 88 14 146 20 112 11 270 29 465 55
66 8 158 20 205 25 47 5 99 14 115 19 17 5 57 13 90 17 33 3 65 10 70 14 6 4
37 10 69 14 33 4 64 10 70 15 6 5 37 12 68 15 32 4 60 11 63 16 2 4 29 11 60
15 30 3 57 11 60 16 4 5 16 9 28 9 12 0 35 7 50 15 16 8 43 16 60 17 18 1 44
7 59 15 15 7 37 13 50 13 13 0 32 6 43 14 11 7 39 16 63 20 24 3 51 10 60 15
22 12 117 41 134 41 7 0 25 6 40 14 14 8 49 17 77 21 28 4 53 11 57 16 3 5 14
9 25 9 10 0 36 9 56 20 21 11 43 20 50 20 7 0 13 5 13 10 0 6 8 10 17 10 21 0
135 56 191 93 51 34 62 53 62 106 0 49 -28 78 -106 111 -38 16 -57 32 -66 52
-7 15 -19 28 -25 28 -7 0 -13 4 -13 8 0 4 -26 20 -57 35 -32 15 -65 32 -73 36
-8 5 -33 17 -55 26 -22 9 -49 20 -60 25 -49 21 -147 50 -169 50 -14 0 -27 4
-30 9 -4 5 -30 12 -59 16 -28 4 -56 11 -62 15 -5 4 -37 13 -70 19 -33 7 -91
18 -130 26 -38 8 -97 19 -130 25 -33 6 -74 15 -91 21 -17 5 -62 14 -100 19
-81 11 -196 37 -173 39 9 1 19 8 23 16 3 8 12 15 21 15 8 0 15 5 15 11 0 5 5
7 11 4 5 -4 18 3 28 14 10 12 23 21 28 21 5 0 20 13 33 30 14 16 30 29 36 30
15 0 124 107 124 120 0 6 9 10 20 10 11 0 20 5 20 10 0 6 14 10 30 10 20 0 30
-5 30 -15 0 -8 -6 -15 -12 -15 -8 -1 -5 -6 5 -15 15 -10 40 -12 110 -8 51 3
94 10 95 14 2 5 10 9 18 9 8 0 17 7 20 15 4 8 12 15 19 15 17 0 75 58 75 75 0
7 6 15 14 18 18 7 56 -3 56 -14 0 -5 9 -9 20 -9 11 0 20 4 20 9 0 4 46 11 101
14 56 3 105 9 108 15 3 5 24 12 45 15 22 4 42 11 45 16 4 6 26 13 49 17 23 4
42 10 42 14 0 5 14 11 30 15 17 4 30 10 30 15 0 5 14 11 30 15 17 4 30 10 30
15 0 4 12 11 27 15 52 13 61 57 11 55 -18 -1 -38 -2 -45 -1 -7 1 -35 31 -62
69 -28 37 -55 72 -61 79 -5 7 -10 15 -10 17 0 3 -16 27 -36 53 -37 48 -37 48
-13 51 13 2 30 9 38 15 11 9 15 9 18 0 3 -7 12 -13 22 -13 9 0 22 -5 28 -11 7
-7 14 13 22 66 10 62 16 75 28 71 13 -5 15 0 10 34 -5 37 -2 45 29 77 19 19
34 43 34 53 0 10 4 20 9 22 5 2 11 32 13 68 l3 65 -39 -1 c-21 -1 -42 -7 -46
-14 -4 -7 -14 -10 -21 -7 -8 2 6 13 33 25 26 12 53 30 60 41 7 12 18 21 25 21
17 0 17 17 1 24 -10 5 -10 7 0 12 22 10 13 26 -12 22 -17 -3 -23 -1 -19 8 4
12 -28 15 -37 2 -3 -3 -23 -9 -45 -13 l-40 -6 40 20 c22 11 45 21 50 21 15 1
55 36 55 48 0 6 4 12 9 14 5 2 11 56 14 122 3 66 9 121 15 125 6 3 14 34 18
68 6 56 4 63 -12 69 -11 4 -26 13 -36 21 -14 13 -20 12 -47 -1 -16 -9 -36 -16
-44 -16 -8 0 -28 -7 -46 -16 -17 -9 -38 -13 -47 -10 -21 8 -36 56 -31 99 3 20
3 46 0 57 -5 17 -7 18 -21 4 -25 -26 -45 5 -50 78 -2 35 -6 70 -9 78 -9 23
-10 29 -13 115 l-3 80 -7 -60 c-16 -135 -58 -303 -93 -374 -20 -41 -79 -111
-93 -111 -4 0 -26 -13 -51 -30 -24 -16 -48 -30 -54 -30 -5 0 -17 -4 -27 -10
-57 -31 -204 -92 -267 -110 -40 -11 -92 -29 -133 -46 -18 -8 -40 -14 -50 -14
-9 0 -37 -6 -62 -14 -90 -28 -210 -60 -350 -91 -162 -37 -1017 5 -1415 69
-132 21 -204 40 -263 68 -57 27 -60 28 -35 2 16 -16 16 -16 -7 -9 -31 10 -43
27 -27 38 8 6 5 7 -6 3 -37 -12 -233 215 -297 345 -18 35 -35 71 -40 79 -18
37 -124 11 -184 -45 -25 -23 -28 -31 -24 -75 6 -59 36 -100 159 -220 104 -102
127 -138 113 -177 -9 -26 -15 -29 -87 -37 -42 -4 -107 -5 -144 -1 l-68 7 32
16 c43 20 48 55 17 107 -38 61 -48 78 -57 89 -57 79 -75 107 -91 141 -10 22
-22 47 -26 56 -15 29 -22 88 -16 122 6 34 45 82 85 105 26 15 122 42 149 42 9
0 33 5 53 10 46 13 73 63 139 255 22 64 37 89 76 127 52 51 80 67 38 21 -13
-14 -27 -37 -30 -50 -4 -13 -9 -23 -13 -23 -5 0 -21 -33 -36 -72 -16 -40 -32
-77 -36 -83 -4 -5 -10 -32 -13 -60 -4 -39 -3 -43 4 -20 30 102 87 214 133 259
35 35 89 66 116 66 11 0 22 4 26 9 3 5 31 13 63 16 31 4 74 11 95 16 21 6 80
14 130 19 51 5 133 13 182 19 172 19 331 33 455 41 158 10 371 27 520 41 63 6
205 15 315 20 110 4 304 13 430 19 252 13 471 8 524 -12 42 -16 90 -62 113
-109 45 -93 77 -170 93 -224 33 -110 36 -117 52 -104 8 7 12 17 10 24 -3 6 1
19 9 30 19 26 17 38 -5 32 -15 -4 -21 6 -35 52 -17 57 -38 113 -61 166 -25 58
-31 75 -33 107 -1 9 -12 20 -24 24 -13 3 -36 16 -52 27 -59 41 -286 57 -552
38 -160 -12 -626 -21 -529 -11 39 4 120 13 180 19 61 6 133 17 160 25 53 15
173 41 240 51 63 10 209 55 224 70 7 7 10 18 7 24 -10 15 -149 81 -172 81 -11
0 -24 4 -30 9 -9 10 -111 36 -201 50 -28 5 -56 12 -61 15 -5 3 -41 11 -78 16
-38 6 -100 17 -139 25 -67 13 -62 13 130 10 221 -4 182 6 -95 24 -335 22 -436
31 -499 45 -104 23 -212 44 -256 51 -59 8 -125 28 -125 37 0 4 -5 8 -12 8 -6
0 -45 16 -87 36 -73 35 -99 47 -176 79 -19 8 -50 21 -67 29 -18 7 -53 21 -78
31 -25 9 -58 23 -73 31 -16 8 -34 14 -40 14 -7 0 -25 7 -40 15 -15 8 -43 17
-63 21 -19 3 -37 10 -40 15 -3 5 -26 9 -52 9 -25 0 -89 7 -142 14 -88 14 -172
24 -520 61 -74 7 -196 21 -270 29 -85 9 -138 11 -146 5 -6 -5 -32 -12 -58 -15
-25 -4 -46 -11 -46 -15 0 -5 -8 -9 -17 -9 -21 0 29 -33 68 -45 13 -4 26 -10
29 -14 3 -3 41 -24 85 -45 44 -22 105 -56 135 -75 52 -34 54 -36 27 -39 -23
-3 -94 18 -162 47 -11 5 -45 19 -75 31 -30 11 -64 25 -75 30 -11 4 -47 19 -80
31 -33 13 -64 27 -69 31 -6 4 -16 8 -24 8 -8 0 -28 6 -45 14 -18 8 -59 23 -92
35 -33 11 -91 31 -130 45 -38 13 -117 38 -175 56 -58 18 -118 36 -135 42 -32
10 -106 31 -190 53 -27 7 -77 21 -110 30 -99 26 -177 45 -228 55 -26 5 -62 13
-80 19 -57 18 -371 83 -485 101 -29 5 -74 13 -100 19 -49 10 -188 34 -307 52
-197 29 -300 41 -400 45 -100 4 -107 4 -80 -9 17 -8 59 -22 95 -32 36 -10 88
-24 115 -32 63 -18 144 -40 215 -60 30 -8 73 -21 95 -29 23 -8 48 -14 57 -14
9 0 29 -7 44 -15 16 -8 39 -15 51 -15 12 0 24 -4 27 -9 3 -5 18 -12 33 -16 52
-12 101 -38 106 -55 4 -15 -9 -16 -147 -12 -83 2 -196 10 -251 17 -55 7 -142
13 -194 14 -52 1 -102 6 -112 11 -12 7 -19 6 -21 -2 -3 -8 -9 -8 -25 1 -22 11
-245 16 -256 5 -11 -12 30 -45 62 -49 18 -2 38 -8 44 -13 7 -5 30 -12 52 -15
22 -2 54 -9 70 -15 17 -6 59 -18 95 -27 75 -19 141 -36 221 -59 31 -9 63 -16
71 -16 9 0 38 -6 64 -14 27 -8 78 -22 114 -31 139 -36 177 -46 225 -60 28 -7
79 -21 115 -30 88 -23 166 -44 220 -60 181 -53 259 -77 285 -86 17 -6 46 -15
65 -19 39 -9 87 -25 138 -46 18 -8 41 -14 50 -14 10 0 27 -7 38 -15 10 -8 26
-15 35 -15 16 0 49 -14 124 -51 l40 -21 -55 7 c-30 3 -74 13 -98 21 -23 8 -54
14 -67 14 -13 0 -26 4 -30 9 -3 6 -27 13 -53 17 -26 3 -51 10 -57 14 -5 4 -26
11 -45 15 -19 4 -57 13 -85 20 -27 8 -79 21 -115 30 -36 9 -79 20 -96 26 -16
5 -50 13 -75 18 -24 6 -64 15 -89 21 -25 7 -72 19 -105 27 -33 8 -85 21 -115
28 -104 26 -279 65 -395 90 -44 9 -107 23 -140 30 -33 7 -98 21 -145 30 -47 9
-114 23 -150 30 -36 7 -103 21 -150 30 -47 9 -116 22 -155 30 -115 22 -197 38
-245 45 -25 4 -74 12 -110 19 -36 7 -99 19 -140 26 -41 7 -104 19 -140 26 -36
7 -87 15 -115 19 -52 7 -148 24 -225 41 -25 5 -74 13 -110 18 -36 6 -105 17
-155 26 -189 34 -252 45 -325 56 -41 6 -84 15 -95 20 -11 5 -45 13 -75 18 -62
10 -120 30 -135 47 -10 12 -47 32 -100 55 -28 12 -23 13 75 20 58 4 225 9 373
12 147 2 270 7 273 10 3 3 17 1 31 -4 38 -14 866 -11 979 4 136 18 108 32 -65
32 -82 0 -144 3 -138 6 24 13 195 26 307 24 107 -2 109 -2 30 4 -73 6 -77 8
-30 9 30 1 154 7 275 12 496 22 2105 11 2343 -16 63 -8 74 12 12 22 -22 4 -40
10 -40 14 0 5 -13 11 -30 15 -16 4 -30 10 -30 15 0 5 -13 11 -30 15 -16 4 -30
10 -30 15 0 5 -13 11 -29 15 -16 3 -32 13 -35 21 -3 8 -12 14 -21 14 -8 0 -15
4 -15 9 0 5 -16 12 -36 15 -19 4 -38 14 -41 22 -3 7 -11 14 -19 14 -8 0 -14 5
-14 10 0 6 -8 14 -17 17 -20 8 -26 12 -82 63 -61 55 -82 72 -138 112 -60 43
-160 98 -178 98 -7 0 -15 7 -19 15 -3 8 -15 15 -26 15 -11 0 -20 5 -20 10 0 6
-8 14 -17 17 -10 4 -27 16 -39 29 -11 12 -31 25 -42 29 -12 3 -22 10 -22 15 0
5 -13 11 -29 15 -16 3 -32 13 -35 21 -3 8 -12 14 -21 14 -8 0 -15 4 -15 10 0
5 -11 12 -24 16 -14 3 -27 12 -30 20 -3 8 -12 14 -21 14 -8 0 -15 4 -15 10 0
5 -11 12 -24 16 -14 3 -27 12 -30 20 -3 8 -12 14 -21 14 -8 0 -15 4 -15 10 0
5 -11 12 -24 16 -14 3 -27 12 -30 20 -3 8 -12 14 -21 14 -8 0 -15 4 -15 9 0 5
-11 12 -25 15 -14 4 -25 11 -25 16 0 6 -7 10 -15 10 -9 0 -18 6 -21 14 -3 8
-19 18 -35 21 -16 4 -29 11 -29 16 0 5 -11 11 -24 15 -14 3 -27 12 -30 20 -3
8 -12 14 -21 14 -8 0 -15 4 -15 9 0 5 -11 12 -25 15 -14 4 -25 10 -25 15 0 5
-13 12 -29 16 -16 3 -32 13 -35 21 -3 8 -12 14 -21 14 -8 0 -15 4 -15 9 0 5
-11 12 -25 15 -14 4 -25 10 -25 15 0 5 -13 12 -29 16 -16 3 -32 13 -35 21 -3
8 -12 14 -21 14 -8 0 -15 4 -15 9 0 5 -13 12 -30 16 -16 4 -30 11 -30 16 0 5
-11 11 -25 15 -14 3 -25 10 -25 14 0 5 -13 11 -30 15 -16 4 -30 11 -30 16 0 5
-7 9 -15 9 -9 0 -18 6 -21 14 -3 8 -19 18 -35 21 -16 4 -29 10 -29 15 0 5 -13
11 -30 15 -16 4 -30 10 -30 15 0 5 -13 11 -30 15 -16 4 -30 10 -30 15 0 4 -12
11 -26 14 -15 4 -33 14 -41 21 -8 8 -23 15 -34 15 -10 0 -19 4 -19 10 0 5 -18
13 -40 16 -22 4 -40 10 -40 14 0 5 -13 11 -30 15 -16 4 -30 10 -30 15 0 5 -20
12 -45 16 -25 3 -45 10 -45 15 0 4 -16 11 -35 15 -19 3 -35 10 -35 14 0 4 -18
10 -39 14 -22 3 -42 12 -44 18 -4 10 -8 10 -15 -1 -9 -12 -13 -12 -27 2 -9 10
-30 17 -46 17 -16 0 -29 4 -29 10 0 5 -22 12 -50 16 -27 4 -50 10 -50 14 0 4
-34 11 -75 15 -41 4 -75 10 -75 15 0 4 -38 11 -85 15 -47 4 -85 11 -85 15 0 5
-48 11 -107 15 -60 4 -110 11 -113 15 -3 4 -56 10 -118 14 -99 6 -112 5 -100
-7 9 -11 15 -12 21 -3 5 8 9 8 15 0 4 -6 50 -16 102 -22 131 -15 222 -31 242
-42 10 -6 31 -10 48 -10 29 0 92 -13 220 -45 131 -32 187 -48 210 -57 14 -6
39 -14 55 -18 43 -12 132 -44 164 -59 8 -4 17 -13 19 -21 4 -10 -5 -11 -39 -6
-79 13 -103 17 -164 22 -33 4 -62 10 -65 14 -3 4 -106 13 -230 19 -124 7 -252
16 -285 21 -97 15 -799 35 -1200 35 -361 0 -705 -9 -1110 -27 -110 -4 -248 -8
-307 -7 -72 0 -108 -3 -108 -10 0 -16 -87 -14 -93 2 -4 11 23 17 121 26 203
20 1023 48 1421 50 112 1 202 3 200 5 -2 2 -101 9 -219 15 -633 32 -983 42
-1390 40 -319 -2 -383 0 -430 14 -52 15 -117 32 -220 57 -61 15 -217 39 -320
50 -47 5 -119 12 -160 17 -41 4 -118 7 -170 6 -64 -2 -90 0 -80 7 11 7 -1 9
-40 8 -30 -1 -104 -3 -165 -5z m210 -172 c44 -6 118 -15 165 -20 112 -14 208
-29 245 -40 16 -5 57 -17 90 -26 89 -25 280 -106 295 -124 3 -3 22 -15 44 -26
21 -11 40 -26 43 -32 3 -7 9 -13 14 -13 27 0 289 -264 289 -291 0 -5 4 -9 8
-9 5 0 28 -27 52 -60 24 -33 47 -60 52 -60 4 0 8 -6 8 -14 0 -8 4 -16 9 -18 5
-1 41 -46 80 -98 39 -52 75 -100 81 -107 5 -7 10 -17 10 -23 0 -5 4 -10 10
-10 5 0 21 -20 36 -45 14 -25 30 -45 35 -45 5 0 9 -5 9 -11 0 -6 14 -28 30
-49 17 -21 30 -42 30 -48 0 -6 3 -12 8 -14 10 -4 112 -157 112 -168 0 -6 4
-10 9 -10 5 0 14 -13 21 -30 7 -16 16 -30 21 -30 5 0 9 -5 9 -10 0 -6 12 -29
27 -53 43 -65 44 -68 111 -199 78 -151 132 -303 132 -370 0 -53 -2 -54 -72
-38 -24 5 -80 17 -125 27 -46 10 -83 23 -83 28 0 20 88 47 143 43 l54 -3 -7
30 c-5 17 -15 48 -24 70 -9 22 -21 49 -25 60 -5 11 -26 54 -47 95 -21 41 -45
90 -53 108 -8 17 -19 32 -23 32 -4 0 -8 5 -8 10 0 12 -41 73 -52 78 -5 2 -8 8
-8 13 0 11 -168 266 -211 320 -16 20 -29 41 -29 47 0 5 -7 12 -15 16 -8 3 -15
12 -15 21 0 8 -4 15 -8 15 -4 0 -16 13 -25 30 -10 16 -23 35 -30 42 -7 7 -23
29 -37 49 -14 20 -35 49 -47 65 -51 65 -79 102 -98 128 -11 16 -35 44 -52 65
-18 20 -33 39 -33 42 0 11 -68 85 -165 184 -99 99 -119 117 -185 160 -76 50
-105 66 -205 109 -173 76 -356 113 -695 143 -402 34 -971 10 -1246 -53 -33 -8
-69 -14 -79 -14 -28 0 -279 -74 -360 -106 -22 -9 -49 -20 -60 -24 -105 -42
-328 -154 -365 -185 -8 -6 -22 -15 -30 -19 -8 -3 -28 -15 -45 -26 -16 -11 -40
-25 -52 -31 -13 -7 -23 -16 -23 -21 0 -4 -7 -8 -15 -8 -8 0 -15 -3 -15 -7 0
-5 -20 -21 -45 -36 -25 -16 -45 -33 -45 -38 0 -5 -6 -9 -14 -9 -8 0 -16 -4
-18 -8 -1 -4 -29 -28 -60 -52 -32 -25 -58 -48 -58 -52 0 -5 -5 -8 -10 -8 -10
0 -215 -201 -256 -251 -97 -119 -191 -300 -214 -412 -7 -34 -5 -40 14 -47 24
-9 46 4 46 29 1 29 26 51 59 51 17 0 31 5 31 11 0 5 4 8 8 5 5 -3 25 0 45 6
32 10 37 16 37 41 0 36 29 134 47 162 15 23 16 15 4 -37 -7 -31 -5 -42 10 -59
10 -12 21 -31 25 -43 16 -52 56 -48 72 7 19 69 26 75 60 50 22 -16 32 -19 41
-10 8 8 11 6 11 -7 0 -13 5 -17 19 -13 12 3 22 -1 25 -9 6 -17 46 -19 46 -3 0
8 5 8 15 -1 8 -7 24 -10 36 -7 19 5 20 3 15 -31 -4 -20 -12 -58 -18 -83 -16
-68 -9 -79 54 -78 29 1 43 4 30 6 -24 5 -24 15 4 101 8 23 14 54 14 67 0 13 4
26 9 29 5 4 12 24 16 46 4 22 11 42 16 46 5 3 9 12 9 21 0 8 7 31 16 50 12 25
19 31 25 21 7 -10 9 -10 9 3 0 8 9 34 20 57 11 23 25 53 30 66 6 17 20 25 52
31 24 5 49 8 56 8 6 0 12 4 12 10 0 7 4 7 12 -1 7 -7 29 -12 50 -12 l39 0 -7
-37 c-4 -21 -11 -46 -15 -55 -5 -9 -9 -27 -9 -40 0 -13 -2 -45 -5 -73 -8 -72
5 -86 73 -72 37 8 52 16 51 27 -1 8 0 18 1 23 1 4 3 10 4 15 0 4 11 20 23 36
19 23 27 27 53 21 21 -5 30 -12 30 -27 0 -16 5 -19 24 -14 15 4 26 1 29 -7 3
-9 8 -8 22 3 14 12 55 16 182 18 89 2 163 8 163 13 0 16 127 11 144 -6 8 -8
16 -15 19 -15 8 0 -22 183 -31 189 -5 3 -13 17 -17 31 -4 14 -11 27 -15 30 -4
3 -10 15 -14 28 -7 20 -4 22 26 23 47 2 62 -1 70 -14 5 -8 8 -6 8 6 0 12 8 17
28 17 15 0 33 5 40 12 9 9 12 9 12 0 0 -8 17 -12 45 -12 25 0 45 5 45 10 0 6
9 10 20 10 44 0 95 39 53 41 -36 1 32 22 74 23 l43 1 -6 -35 c-4 -19 -10 -37
-14 -40 -5 -3 -11 -26 -15 -53 -4 -26 -11 -50 -16 -53 -5 -3 -9 -14 -9 -24 0
-21 -24 -98 -46 -145 -7 -16 -18 -55 -23 -85 -20 -109 -38 -196 -49 -235 -6
-22 -16 -68 -23 -102 -6 -35 -17 -63 -23 -64 -6 0 -1 -4 12 -10 13 -5 85 -13
160 -19 75 -6 162 -14 192 -20 30 -5 98 -11 150 -14 93 -5 92 -4 -2 20 -30 7
-34 22 -18 70 5 16 14 72 20 124 11 106 35 257 44 280 3 8 10 42 15 75 15 91
32 155 42 155 5 0 9 -7 9 -15 0 -8 -5 -15 -12 -15 -6 0 -9 -3 -6 -6 4 -3 25 5
47 18 34 19 41 28 41 53 0 17 4 35 9 40 5 6 11 21 14 35 2 15 5 6 5 -20 1 -25
-5 -81 -13 -125 -8 -44 -15 -95 -15 -113 0 -30 2 -32 15 -18 8 8 15 24 15 35
0 11 5 23 10 26 6 3 10 15 10 26 0 25 17 25 25 -1 3 -11 9 -20 13 -20 11 0 32
51 32 77 0 27 15 30 37 8 13 -13 13 -18 1 -32 -12 -15 -9 -16 28 -11 31 4 46
2 58 -11 12 -11 19 -13 24 -5 4 6 19 13 34 16 21 4 29 1 33 -13 5 -13 16 -19
38 -20 18 0 74 -1 125 -2 50 -1 92 1 92 5 0 14 69 19 125 9 44 -8 62 -8 72 1
18 15 172 11 190 -4 10 -8 13 -6 13 6 0 24 12 20 44 -16 19 -23 30 -28 35 -19
4 7 33 15 63 18 l56 6 7 -32 7 -31 86 -2 c48 -1 105 -2 127 -3 22 0 45 -3 52
-8 6 -4 24 -2 40 4 15 6 48 8 73 5 25 -3 59 -2 75 3 17 5 25 10 19 10 -7 1
-15 12 -18 26 -4 14 -11 25 -16 25 -6 0 -10 6 -10 13 0 6 -14 28 -30 47 -17
19 -43 53 -58 75 -15 22 -29 42 -32 45 -26 24 -48 64 -43 77 5 13 2 15 -11 10
-9 -4 -15 -3 -11 2 3 5 -2 17 -11 25 -8 9 -12 16 -7 16 5 0 31 -25 58 -56 28
-31 56 -62 63 -70 6 -7 12 -15 12 -18 0 -3 12 -19 28 -35 39 -42 86 -101 95
-120 6 -12 6 -11 3 4 -2 11 -7 29 -11 40 -7 19 -6 18 14 -2 11 -12 21 -25 21
-29 0 -8 7 -16 59 -72 17 -19 31 -37 31 -42 0 -4 7 -13 15 -20 10 -8 12 -17 6
-24 -8 -10 -15 -57 -41 -296 -5 -41 -9 -77 -9 -79 -3 -11 -31 24 -31 39 0 39
-167 230 -201 230 -10 0 -25 7 -34 16 -14 14 -41 16 -210 12 -135 -2 -198 -7
-207 -16 -7 -7 -21 -12 -32 -12 -58 0 -335 -112 -336 -134 0 -6 -24 -33 -53
-60 -70 -68 -97 -121 -97 -194 0 -56 5 -70 50 -146 l24 -39 -67 6 c-37 3 -93
11 -125 16 -81 15 -211 31 -322 41 -52 5 -122 14 -155 19 -82 14 -451 55 -595
67 -30 2 -122 11 -205 19 -209 20 -387 35 -540 45 -71 5 -200 14 -285 19 -337
24 -580 34 -913 38 l-348 5 3 21 c2 12 14 27 28 34 14 7 28 25 32 40 14 62
112 280 131 294 11 8 34 47 43 72 3 9 10 17 15 17 5 0 14 11 21 24 7 14 37 49
66 79 28 31 52 58 52 61 0 8 38 46 46 46 3 0 30 24 61 53 30 28 62 56 71 61 9
5 29 22 44 37 15 16 30 29 34 29 6 0 47 32 97 75 9 8 19 15 22 15 3 0 40 26
83 58 42 31 99 68 125 82 26 14 47 28 47 32 0 5 5 8 10 8 6 0 29 12 53 27 60
38 292 153 309 153 8 0 18 4 23 9 12 11 61 29 205 75 239 76 431 113 715 136
72 6 144 12 160 14 61 8 683 -2 760 -13z m-685 -1852 c19 -5 85 -14 145 -19
133 -12 350 -37 385 -45 14 -3 66 -10 115 -15 134 -15 396 -51 835 -115 52 -7
140 -21 195 -30 55 -9 133 -21 174 -27 76 -12 103 -28 116 -67 3 -12 11 -21
16 -21 6 0 7 -5 4 -10 -3 -6 -23 -8 -43 -5 -20 3 -75 7 -122 10 -84 5 -114 9
-300 40 -131 22 -258 43 -365 61 -49 8 -110 19 -135 24 -25 6 -76 14 -115 20
-38 5 -81 12 -95 15 -14 4 -48 11 -76 15 -28 4 -75 13 -105 19 -30 6 -103 18
-164 27 -60 8 -173 27 -250 41 -77 14 -171 29 -210 34 -38 4 -119 17 -180 28
-60 11 -111 21 -112 21 -2 0 -3 5 -3 11 0 13 232 4 290 -12z m-2398 -77 c-15
-10 26 -32 58 -32 26 0 96 -17 198 -47 71 -22 82 -28 82 -47 0 -37 -33 -60
-77 -52 -110 18 -151 27 -183 39 -55 22 -129 40 -195 46 l-60 6 30 22 c46 32
126 73 144 73 12 0 13 -2 3 -8z m2361 -189 c-7 -2 -13 -13 -13 -23 0 -18 60
-45 125 -57 17 -3 35 -9 40 -13 6 -4 39 -11 74 -15 35 -4 79 -14 97 -21 18 -8
44 -14 56 -15 35 -1 112 -42 116 -62 6 -30 -27 -57 -67 -57 -20 0 -68 11 -106
24 -214 72 -308 96 -375 96 -42 0 -50 3 -50 19 0 10 7 24 15 31 8 7 15 17 15
23 0 15 61 77 74 76 6 0 5 -3 -1 -6z m-2767 -40 c4 -21 10 -42 14 -48 4 -5 11
-31 14 -57 4 -26 11 -50 17 -53 5 -4 9 -16 9 -28 0 -12 7 -35 15 -51 8 -15 15
-33 15 -40 0 -6 20 -61 45 -121 25 -61 45 -113 45 -116 0 -3 -18 -12 -40 -19
-32 -11 -50 -11 -102 0 -35 7 -72 19 -83 25 -55 33 -136 47 -250 44 -73 -3
-119 -9 -127 -17 -6 -6 -21 -12 -32 -12 -12 -1 -39 -12 -61 -25 -22 -14 -50
-29 -62 -35 -13 -5 -23 -14 -23 -20 0 -18 -49 -11 -70 10 -11 11 -22 31 -26
45 -3 14 -10 28 -15 31 -5 3 -9 16 -9 30 0 32 -31 93 -62 120 -12 12 -50 39
-82 60 -33 22 -66 44 -75 49 -8 6 -25 21 -39 35 l-24 25 29 23 c15 12 33 27
40 32 7 6 17 10 23 10 6 0 18 4 28 9 19 10 51 23 100 42 28 10 35 10 42 -1 5
-8 35 -17 67 -21 32 -4 83 -10 113 -14 38 -5 74 -2 114 9 60 16 81 29 123 77
19 22 32 27 74 28 29 0 54 3 56 5 2 2 47 4 98 5 l94 1 7 -37z m181 31 c16 -3
37 -18 47 -33 11 -15 40 -37 65 -49 66 -31 233 -31 323 -1 35 12 66 27 70 33
10 15 156 11 388 -9 102 -9 264 -22 360 -31 96 -8 238 -21 315 -29 77 -8 217
-21 310 -30 94 -9 201 -21 239 -27 l68 -10 -7 -147 c-4 -80 -9 -149 -11 -152
-2 -3 -29 -2 -61 3 -32 4 -98 13 -148 18 -49 6 -115 15 -145 20 -30 5 -116 16
-190 24 -74 9 -175 21 -225 27 -49 6 -133 15 -185 19 -52 5 -133 14 -180 19
-294 35 -708 51 -802 32 -98 -21 -137 -49 -179 -130 -26 -51 -40 -68 -45 -59
-12 18 -34 78 -41 108 -3 14 -9 30 -14 35 -4 6 -17 42 -29 80 -12 39 -28 88
-36 110 -7 22 -17 73 -20 113 l-7 72 55 0 c31 0 69 -3 85 -6z m5218 -96 l90
-13 12 -35 c16 -46 15 -71 -1 -92 -15 -20 -37 -23 -51 -9 -11 11 -114 36 -208
51 -32 6 -66 14 -75 19 -9 4 -53 16 -97 26 -44 9 -89 21 -100 25 -11 5 -29 11
-40 13 -11 3 5 5 35 6 33 1 74 11 103 24 52 24 49 25 332 -15z m275 -48 c19
-6 64 -14 100 -20 36 -5 101 -16 145 -25 106 -19 233 -43 325 -60 41 -7 93
-18 115 -24 22 -6 57 -11 77 -11 20 0 39 -4 43 -9 3 -6 37 -13 75 -17 39 -4
73 -10 75 -15 3 -4 36 -11 73 -14 37 -4 72 -11 77 -15 6 -5 36 -11 68 -15 31
-4 60 -11 63 -16 3 -5 14 -9 25 -9 12 0 19 -7 19 -20 0 -15 -7 -20 -29 -20
-16 0 -46 -7 -67 -16 -33 -14 -64 -16 -194 -11 -142 5 -193 11 -320 38 -25 5
-54 11 -65 13 -83 14 -211 39 -265 51 -119 26 -225 45 -253 45 -15 0 -40 6
-55 14 -15 7 -49 16 -77 19 -84 9 -85 10 -85 88 l0 69 48 -6 c26 -3 63 -9 82
-14z m-3051 -65 c6 -3 11 -13 11 -22 0 -26 31 -69 64 -89 146 -88 461 -79 556
16 20 20 25 21 113 9 51 -6 124 -15 162 -19 94 -9 231 -28 335 -46 47 -8 103
-14 124 -14 22 0 76 -7 120 -14 45 -8 110 -17 146 -20 36 -3 90 -10 120 -16
30 -5 82 -12 115 -14 33 -3 87 -9 120 -15 33 -5 112 -17 175 -26 63 -8 156
-22 205 -30 50 -8 144 -21 210 -30 66 -8 153 -23 192 -32 64 -14 72 -19 68
-37 -2 -12 -7 -82 -10 -156 -5 -120 -21 -241 -24 -184 -1 23 -25 34 -78 34
-18 0 -68 6 -110 14 -159 29 -376 63 -493 77 -41 5 -93 13 -115 18 -22 6 -72
12 -112 15 -39 4 -84 11 -98 16 -14 6 -46 10 -69 10 -24 0 -68 5 -97 10 -30 6
-88 15 -129 20 -41 5 -102 14 -135 19 -33 6 -114 17 -180 26 -173 24 -433 60
-615 85 -41 6 -109 15 -150 20 -41 4 -102 13 -135 19 -58 10 -147 22 -325 42
-47 5 -101 14 -120 19 -19 6 -50 10 -67 10 l-33 0 1 53 c0 28 4 75 10 102 5
28 12 70 16 95 3 25 9 47 14 50 10 7 205 -6 218 -15z m2996 -396 c39 -6 93
-17 121 -25 28 -8 64 -14 80 -14 16 0 83 -12 149 -26 66 -13 151 -29 189 -34
38 -6 83 -14 100 -19 17 -5 56 -14 86 -21 299 -60 415 -109 498 -211 28 -35
55 -74 58 -86 3 -13 10 -23 15 -23 5 0 9 -13 9 -30 0 -16 5 -30 10 -30 6 0 10
-5 10 -12 0 -15 40 -58 54 -58 6 0 38 14 71 31 63 32 90 43 190 76 134 45 189
53 355 53 160 0 211 -7 350 -47 30 -9 69 -22 85 -29 17 -6 50 -20 75 -30 25
-10 78 -38 118 -61 41 -24 78 -43 83 -43 5 0 9 -4 9 -8 0 -5 10 -13 23 -19
l22 -10 -25 -21 c-59 -50 -121 -92 -137 -92 -9 0 -24 6 -32 14 -23 19 -107 65
-150 80 -86 31 -161 54 -230 71 -40 9 -100 30 -132 46 -32 16 -64 29 -72 29
-7 0 -22 7 -33 15 -10 8 -27 15 -36 15 -10 0 -32 6 -50 14 -72 30 -119 35
-183 19 -33 -8 -64 -19 -69 -24 -6 -5 -17 -9 -25 -9 -20 0 -161 -71 -161 -80
0 -4 -12 -11 -26 -14 -14 -4 -35 -16 -47 -26 -11 -11 -39 -32 -61 -47 -23 -16
-59 -45 -80 -65 -22 -21 -45 -38 -51 -38 -16 0 -44 22 -116 89 -35 34 -67 61
-71 61 -4 0 -13 6 -20 13 -26 24 -165 85 -248 108 -19 6 -42 13 -50 16 -17 7
-102 29 -170 43 -25 5 -61 14 -80 19 -65 17 -342 73 -485 97 -85 14 -78 4 -71
107 9 149 18 217 27 217 5 0 9 10 9 21 0 17 4 20 23 15 12 -4 54 -12 92 -17z
m8180 -186 c47 -18 105 -74 105 -103 0 -17 -6 -20 -39 -20 -73 0 -191 69 -191
111 0 39 43 43 125 12z m-4163 -249 c126 -7 496 -53 528 -67 8 -3 51 -10 95
-16 111 -14 247 -37 265 -44 8 -4 47 -11 85 -16 71 -10 127 -20 245 -45 36 -8
101 -22 145 -31 44 -9 102 -23 129 -31 26 -8 58 -14 69 -14 11 0 44 -7 74 -15
29 -8 77 -22 106 -30 30 -8 62 -15 73 -15 10 0 32 -7 48 -15 15 -8 35 -15 42
-15 18 0 64 -28 82 -49 6 -8 12 -30 12 -49 0 -29 -10 -44 -65 -98 -50 -50 -74
-66 -107 -73 -61 -13 -119 -36 -128 -51 -6 -9 -15 -10 -36 -3 -23 8 -29 16
-28 39 0 16 -4 32 -10 36 -7 5 -4 8 7 8 9 0 17 5 17 10 0 6 -6 10 -14 10 -8 0
-18 -4 -21 -10 -3 -5 -15 -10 -26 -10 -11 0 -30 -5 -41 -11 -17 -9 -18 -13 -7
-21 9 -6 3 -7 -21 -3 -25 4 -31 3 -20 -4 21 -14 3 -28 -19 -14 -10 6 -24 8
-31 3 -10 -6 -8 -9 6 -14 11 -3 8 -4 -8 -2 -17 2 -25 -1 -21 -9 2 -8 -9 -15
-30 -19 -19 -4 -40 -13 -47 -21 -7 -8 -20 -15 -30 -15 -10 0 -23 -7 -30 -15
-11 -13 -7 -15 23 -15 20 0 39 -4 42 -10 4 -6 -23 -10 -73 -10 -72 0 -82 -3
-118 -30 -39 -29 -40 -29 -171 -30 -72 0 -134 4 -137 9 -3 4 -78 10 -166 13
-116 4 -165 9 -178 19 -28 23 -79 49 -95 49 -9 0 -22 6 -29 13 -20 21 -45 26
-57 14 -8 -8 -11 -5 -11 11 0 13 -6 22 -15 22 -8 0 -15 5 -15 10 0 6 -7 10
-15 10 -8 0 -15 4 -15 10 0 5 -7 7 -15 4 -9 -4 -15 0 -15 10 0 9 -7 16 -15 16
-8 0 -15 4 -15 9 0 4 -21 14 -47 21 -27 7 -52 17 -58 21 -5 5 -16 9 -24 9 -19
0 -111 61 -111 74 0 5 7 3 15 -4 22 -19 31 -4 18 31 -11 27 -10 29 8 24 21 -7
27 13 8 32 -6 6 -9 26 -7 44 2 27 8 35 28 39 19 3 14 5 -20 10 -70 8 -60 32
20 47 88 16 149 16 184 -2 15 -8 40 -15 55 -15 48 0 71 -11 63 -29 -12 -25 -6
-153 9 -184 19 -41 -1 -55 -85 -62 -38 -3 -71 -7 -73 -9 -8 -8 54 -44 95 -55
23 -7 42 -15 42 -19 0 -4 13 -13 30 -19 21 -8 30 -8 34 1 2 6 5 4 5 -4 1 -21
87 -43 186 -47 75 -4 139 -23 157 -48 11 -16 197 -13 191 3 -3 6 -11 12 -18
12 -6 0 -23 9 -36 20 -43 35 -86 68 -119 90 -12 8 -28 20 -34 25 -43 36 -110
65 -176 74 -34 5 -2 6 88 3 l142 -5 -2 64 c-1 58 -2 59 -5 16 -3 -35 -8 -47
-17 -44 -8 3 -18 1 -23 -4 -12 -12 -39 -12 -146 -3 -83 7 -89 6 -108 -15 -20
-21 -22 -21 -40 -5 -10 9 -19 25 -19 36 0 10 -4 18 -10 18 -5 0 -10 6 -10 13
0 7 -9 30 -20 52 -11 21 -17 42 -12 46 12 11 189 21 196 11 3 -5 38 -7 78 -5
104 6 116 5 143 -13 20 -13 25 -25 25 -58 0 -36 5 -46 34 -69 18 -15 49 -42
69 -59 58 -53 80 -68 102 -68 12 0 30 -6 40 -14 10 -7 26 -11 36 -9 9 3 27 -5
38 -16 17 -17 32 -21 66 -19 25 2 47 8 49 15 3 6 21 19 40 28 20 10 36 25 36
34 1 13 3 12 13 -4 10 -17 40 -25 57 -15 3 1 24 4 48 5 24 2 48 8 55 13 7 6
38 13 70 17 31 4 57 11 57 16 0 5 11 9 24 9 16 0 43 18 77 51 48 47 51 52 39
75 -10 18 -24 25 -62 30 -26 4 -48 10 -48 14 0 4 -29 11 -65 15 -36 3 -67 10
-70 15 -2 4 -35 11 -72 15 -36 4 -74 11 -82 15 -9 5 -47 14 -86 20 -162 25
-199 32 -210 40 -5 4 -41 11 -80 15 -38 4 -74 10 -80 14 -16 10 -171 32 -473
66 -67 8 -128 18 -135 22 -19 13 -320 52 -551 71 -45 4 -81 12 -83 18 -12 37
133 88 219 77 20 -2 79 -7 130 -9z m-9754 -188 c11 -11 11 -25 3 -71 -14 -73
-14 -271 -1 -390 6 -49 15 -137 20 -194 11 -102 21 -141 40 -141 6 0 10 8 11
18 0 11 2 12 6 4 3 -7 -1 -19 -7 -28 -7 -8 -10 -17 -6 -21 3 -3 34 23 69 58
34 36 83 80 110 98 26 19 47 38 47 43 0 4 5 8 10 8 6 0 23 11 38 25 15 14 30
25 33 25 16 0 50 -131 41 -158 -2 -6 -8 -12 -13 -12 -6 0 -66 -27 -135 -60
-68 -33 -138 -60 -154 -60 -29 0 -30 -2 -30 -44 0 -78 24 -101 50 -48 15 30
70 92 81 92 4 0 42 20 83 45 42 25 83 45 91 45 7 0 17 5 21 12 15 25 34 -26
34 -94 0 -79 -4 -83 -102 -97 -35 -5 -74 -13 -88 -19 -14 -5 -50 -17 -80 -27
-70 -22 -87 -41 -62 -69 9 -10 12 -16 5 -13 -6 4 -14 3 -18 -3 -6 -10 7 -95
27 -180 6 -25 14 -61 18 -80 17 -78 50 -185 76 -245 7 -16 21 -49 31 -72 19
-44 43 -64 43 -37 0 9 6 28 14 42 28 54 62 157 86 257 19 81 37 294 32 373 -3
51 -1 72 7 72 24 0 -2 -424 -29 -485 -5 -11 -13 -40 -18 -65 -27 -124 -142
-343 -171 -326 -6 4 -9 1 -5 -7 7 -19 -68 -85 -138 -121 -55 -28 -179 -26
-233 3 -72 40 -145 96 -145 113 0 16 17 8 56 -27 56 -51 115 -76 182 -80 31
-1 41 -1 22 2 -36 4 -42 6 -120 42 -47 22 -128 87 -119 96 3 2 14 -3 25 -13
61 -53 124 -84 219 -106 80 -19 95 -20 95 -7 0 5 -6 11 -12 14 -7 2 -4 3 6 1
10 -2 31 -1 46 2 23 5 26 10 22 35 -2 16 -10 29 -17 29 -7 0 -15 7 -19 15 -3
8 -13 15 -23 16 -12 1 -9 3 7 8 28 8 28 12 5 126 -20 97 -34 208 -45 355 -14
175 -20 187 -62 128 -30 -43 -34 -50 -110 -203 -95 -190 -128 -263 -128 -279
0 -7 -7 -30 -15 -49 -8 -20 -15 -48 -15 -61 0 -16 -5 -24 -12 -21 -20 8 -39
55 -45 111 -4 41 -1 60 20 105 28 58 78 148 105 189 23 35 40 62 49 80 4 8 11
20 16 25 5 6 24 35 44 65 19 31 32 45 30 32 -5 -20 -3 -22 11 -10 33 26 41 36
48 62 8 35 -2 72 -22 80 -19 7 -64 -29 -64 -52 0 -15 -118 -257 -150 -307 -25
-39 -77 -146 -106 -214 l-22 -54 -27 43 c-18 29 -27 57 -27 84 0 23 -2 35 -5
29 -9 -24 -25 -13 -20 12 2 14 2 23 -1 20 -6 -6 -32 42 -32 60 0 7 -6 35 -14
61 -29 97 -45 181 -50 254 -4 61 -3 68 5 40 6 -19 14 -49 20 -66 5 -17 9 -43
9 -59 0 -16 3 -25 7 -22 3 4 5 48 4 98 -2 95 4 133 20 124 5 -4 9 -50 9 -103
0 -98 18 -222 45 -321 15 -57 35 -89 35 -58 0 9 4 17 10 17 5 0 12 11 16 25 3
13 12 29 20 36 18 15 18 40 0 81 -8 18 -22 62 -31 98 -9 36 -23 88 -31 116 -8
28 -14 68 -14 90 l1 39 13 -31 c8 -17 17 -58 21 -92 4 -34 11 -65 16 -68 5 -3
9 -16 9 -30 0 -28 30 -34 31 -6 0 9 8 -11 16 -45 9 -35 19 -63 23 -63 4 0 20
19 36 43 16 23 32 44 37 45 4 2 7 10 7 18 0 8 4 14 8 14 8 0 91 108 125 163
10 16 15 37 12 48 -5 15 -82 58 -180 99 -11 5 -42 18 -69 29 -27 12 -55 21
-62 21 -8 0 -14 5 -14 10 0 6 -5 10 -11 10 -13 0 -101 41 -109 51 -3 3 -13 8
-22 12 -19 7 -22 45 -10 126 l7 44 45 -41 c25 -22 95 -74 155 -114 114 -76
146 -101 200 -155 35 -36 65 -42 89 -17 20 19 20 28 1 69 -17 35 -43 50 -102
60 -53 9 -121 39 -213 94 -19 11 -46 26 -60 33 -25 13 -50 32 -99 76 l-25 23
19 35 c13 24 22 31 29 24 19 -19 25 -10 15 22 -5 17 -8 33 -6 34 1 2 40 -33
86 -77 46 -43 87 -79 92 -79 5 0 9 -4 9 -10 0 -5 20 -21 45 -36 25 -14 45 -30
45 -35 0 -5 5 -9 11 -9 6 0 28 -13 49 -30 21 -16 41 -30 45 -30 3 0 13 -7 21
-15 9 -8 25 -15 36 -15 20 0 21 4 15 68 -3 37 -10 81 -16 97 -9 29 -28 115
-52 240 -21 113 -38 250 -39 317 l0 67 -28 -9 c-67 -19 -145 -87 -208 -180
-39 -58 -74 -127 -74 -145 0 -8 -4 -15 -8 -15 -5 0 -13 -17 -20 -37 l-11 -38
6 35 c3 19 9 41 13 50 5 8 25 51 46 95 41 86 56 107 125 176 47 47 92 75 144
90 41 11 177 1 193 -15z m9499 2 c45 -22 113 -88 113 -109 0 -24 -440 20 -470
47 -9 7 -25 11 -37 8 -11 -3 -24 -1 -27 4 -4 6 2 8 14 5 25 -7 26 12 3 26 -28
15 -12 20 42 11 28 -4 87 -11 131 -14 78 -7 83 -6 109 18 34 32 64 33 122 4z
m-907 -130 c39 -29 70 -56 70 -60 0 -5 4 -8 9 -8 6 0 27 -15 47 -34 36 -33 39
-34 103 -29 36 2 91 11 121 18 30 8 84 15 120 16 36 1 74 6 84 12 20 10 96 -9
96 -24 0 -4 10 -11 23 -15 12 -4 24 -10 27 -13 3 -4 38 -27 78 -51 40 -25 85
-53 100 -62 15 -10 34 -21 42 -25 8 -3 17 -9 20 -12 3 -4 16 -12 30 -19 14 -7
39 -21 55 -32 53 -33 293 -150 310 -150 8 0 107 -77 157 -122 20 -18 58 -51
84 -73 26 -22 71 -62 100 -90 92 -88 145 -135 155 -135 5 0 9 -7 9 -15 0 -8 5
-15 11 -15 6 0 32 -21 58 -47 145 -147 269 -238 343 -252 24 -5 35 -9 26 -10
-10 -1 -18 -5 -18 -11 0 -5 -6 -10 -13 -10 -6 0 -53 -20 -102 -45 -111 -56
-158 -67 -223 -50 -27 7 -58 18 -68 23 -11 6 -26 13 -34 16 -8 4 -28 15 -45
25 -16 11 -55 32 -85 48 -30 15 -57 31 -60 34 -3 3 -16 10 -30 14 -14 4 -27
10 -30 14 -8 10 -276 141 -288 141 -7 0 -12 4 -12 9 0 5 -13 12 -30 16 -16 4
-30 11 -30 16 0 5 -5 9 -11 9 -5 0 -29 9 -52 19 -107 49 -160 71 -169 71 -6 0
-24 6 -41 13 -18 8 -57 21 -87 30 -30 9 -77 22 -105 30 -27 8 -75 18 -105 21
-52 6 -57 10 -75 44 -11 20 -23 39 -26 42 -3 3 -12 16 -19 30 -7 14 -37 61
-67 106 -48 73 -65 89 -113 108 -8 3 -22 10 -30 15 -8 5 -53 27 -100 49 -75
36 -140 80 -140 96 0 9 -131 136 -141 136 -5 0 -9 4 -9 8 0 5 -34 33 -75 63
-41 30 -74 59 -75 64 0 10 89 75 103 75 5 0 15 7 23 15 9 8 20 15 25 15 5 0
41 -24 79 -52z m-755 -570 c2 -2 -1 -57 -6 -123 -6 -77 -5 -163 1 -240 22
-251 29 -374 30 -498 0 -132 10 -175 49 -204 25 -19 59 -16 66 7 8 25 -3 105
-20 145 -56 135 -105 489 -105 753 0 114 3 152 13 153 32 3 75 -4 109 -18 41
-16 40 -4 16 -163 -24 -158 -7 -755 24 -859 l11 -35 18 23 c19 23 19 23 19 2
0 -12 -7 -24 -16 -28 -14 -5 -15 -7 -1 -15 18 -9 51 3 112 41 67 42 79 50 100
60 11 5 37 21 58 35 21 14 42 26 47 26 5 0 15 6 22 13 7 7 45 28 83 47 39 19
72 37 75 40 10 10 89 50 98 50 5 0 14 -17 20 -37 6 -21 20 -68 30 -105 l19
-67 -41 -14 c-40 -14 -81 -27 -201 -62 -33 -9 -76 -23 -95 -30 -99 -37 -153
-47 -214 -41 -33 3 -66 2 -72 -2 -20 -13 -23 -56 -8 -104 26 -77 34 -78 106
-16 57 50 179 118 211 118 7 0 17 4 23 8 5 4 36 18 69 31 33 13 74 29 92 37
17 8 36 14 41 14 6 0 30 9 55 19 29 12 44 15 44 7 0 -6 8 -43 17 -82 14 -57
15 -79 7 -112 -11 -39 -12 -40 -64 -45 -28 -3 -104 -12 -167 -21 -308 -42
-379 -55 -407 -78 -21 -17 -15 -35 12 -42 16 -4 23 -11 19 -18 -6 -9 -9 -9
-12 0 -5 15 -32 16 -32 0 0 -15 28 -111 47 -163 60 -159 72 -192 95 -245 11
-25 25 -56 30 -70 15 -36 39 -89 57 -130 27 -60 133 -235 148 -243 19 -12 16
-23 -14 -59 -81 -94 -108 -108 -119 -63 -3 14 -10 25 -15 25 -4 0 -2 -15 6
-34 17 -41 11 -50 -64 -97 -54 -35 -76 -27 -85 29 -8 52 -23 63 -88 60 -42 -2
-62 3 -89 20 l-34 23 45 -2 c25 -1 62 -2 83 -1 l37 2 -6 43 c-4 23 -11 51 -17
61 -10 21 -32 110 -46 186 -15 82 -62 294 -77 344 -8 26 -14 59 -14 72 0 27
-28 115 -41 128 -10 11 -79 -51 -79 -71 0 -7 -4 -13 -8 -13 -5 0 -14 -10 -21
-22 -6 -13 -20 -36 -31 -53 -11 -16 -23 -37 -27 -45 -4 -8 -20 -34 -35 -56
-15 -23 -28 -44 -28 -47 0 -3 -20 -40 -45 -81 -25 -42 -45 -81 -45 -86 0 -5
-6 -15 -12 -22 -18 -19 -78 -145 -133 -280 -16 -38 -30 -68 -32 -68 -2 0 -31
27 -63 60 -57 56 -65 78 -41 100 3 3 22 37 41 75 19 39 40 76 47 83 6 6 15 21
18 32 3 11 11 20 16 20 5 0 9 5 9 10 0 12 41 73 53 78 4 2 7 8 7 13 0 12 112
161 142 188 12 12 17 25 13 32 -6 8 -4 10 4 4 8 -4 20 1 32 14 11 11 44 40 75
63 80 60 104 137 57 183 -21 21 -65 19 -85 -5 -15 -16 -88 -163 -88 -175 0 -8
-75 -130 -82 -133 -5 -2 -8 -8 -8 -13 0 -11 -42 -72 -52 -77 -5 -2 -8 -8 -8
-13 0 -9 -38 -68 -51 -79 -3 -3 -9 -12 -13 -20 -7 -16 -14 -28 -56 -95 -14
-22 -41 -73 -60 -112 -32 -66 -60 -94 -60 -59 0 7 -10 24 -23 37 -47 49 -69
88 -61 111 9 29 7 34 -14 30 -12 -2 -22 9 -32 35 -8 21 -16 41 -18 46 -2 4 3
4 12 1 8 -3 17 -11 19 -17 2 -7 2 -1 0 13 -3 14 -8 27 -13 30 -5 3 -12 18 -15
33 -4 15 -11 27 -16 27 -5 0 -9 6 -9 13 0 6 -12 35 -27 62 -73 137 -101 276
-110 536 -3 111 -2 202 3 211 6 10 9 -55 9 -173 0 -126 4 -192 11 -197 13 -8
44 -109 44 -144 1 -12 7 -36 15 -53 14 -28 15 -21 10 80 -6 110 0 175 16 175
9 0 17 -56 24 -165 4 -83 25 -204 46 -265 40 -117 73 -200 82 -200 11 0 47 38
47 50 0 6 4 10 8 10 5 0 14 11 20 25 11 24 8 42 -17 100 -30 67 -42 100 -69
185 -39 123 -62 213 -62 247 0 40 18 16 29 -37 15 -73 41 -168 54 -193 17 -33
37 -22 38 21 1 26 3 30 6 12 2 -14 8 -34 12 -45 5 -11 16 -47 27 -80 31 -101
43 -125 59 -119 8 4 15 12 15 20 0 8 3 14 8 14 4 0 30 28 57 62 28 35 65 78
83 96 17 18 32 34 32 36 0 2 34 39 75 82 41 43 75 84 75 91 0 6 8 25 17 41 14
25 15 32 4 46 -17 20 -136 78 -216 105 -33 11 -85 30 -115 42 -30 12 -67 24
-82 26 -16 3 -28 9 -28 13 0 5 -15 12 -32 16 -33 7 -44 11 -153 59 -150 67
-147 65 -141 110 8 63 30 155 36 155 4 0 17 -11 30 -25 13 -14 27 -25 32 -25
8 0 65 -37 78 -50 3 -3 24 -14 47 -25 24 -11 43 -23 43 -27 0 -3 12 -11 28
-17 15 -6 41 -20 57 -30 17 -11 53 -32 80 -46 97 -51 105 -56 105 -66 0 -5 6
-9 14 -9 8 0 16 -4 18 -8 8 -19 166 -132 184 -132 11 0 30 9 42 20 27 25 32
25 32 -1 0 -12 8 -23 20 -26 14 -4 20 -14 20 -34 0 -37 9 -36 42 1 15 18 28
48 33 76 8 57 -5 76 -35 49 -16 -15 -19 -15 -15 -3 4 10 -1 17 -14 21 -22 5
-43 -14 -22 -21 9 -3 9 -8 -1 -20 -11 -13 -10 -15 5 -9 19 7 20 6 11 -17 -10
-25 -33 -19 -40 12 -10 45 -27 85 -45 103 -9 9 -52 25 -95 34 -44 10 -101 24
-129 32 -54 16 -378 172 -383 185 -2 4 -7 8 -12 8 -9 0 -106 61 -128 81 -11 9
-10 14 2 28 9 10 16 34 16 53 0 29 13 68 38 107 1 3 11 -4 21 -15 31 -33 73
-67 166 -136 49 -37 95 -72 102 -78 7 -5 15 -10 19 -10 3 0 23 -13 44 -30 21
-16 43 -30 49 -30 6 0 11 -4 11 -9 0 -5 14 -14 30 -21 17 -7 30 -16 30 -21 0
-5 5 -9 10 -9 9 0 65 -35 80 -50 3 -3 23 -14 45 -25 22 -10 47 -25 55 -32 9
-7 31 -14 50 -15 l35 -3 -3 84 c-2 46 -12 123 -22 170 -79 369 -96 473 -105
631 -7 127 -13 169 -23 154 -4 -5 -32 -17 -62 -27 -72 -24 -150 -60 -150 -69
0 -5 -5 -8 -11 -8 -27 0 -161 -125 -197 -182 -9 -16 -20 -28 -24 -28 -4 0 -8
-6 -8 -14 0 -8 -4 -16 -8 -18 -11 -4 -74 -114 -88 -152 -11 -32 -34 -47 -34
-22 0 38 158 296 182 296 4 0 8 4 8 10 0 12 68 80 80 80 6 0 10 4 10 9 0 16
113 83 200 119 67 27 248 48 265 30z m289 -91 c11 -7 23 -14 26 -17 3 -3 24
-18 48 -34 41 -28 142 -123 189 -179 35 -41 123 -174 123 -185 0 -6 4 -12 8
-14 5 -1 26 -39 47 -83 21 -44 45 -95 54 -113 14 -28 14 -34 1 -42 -10 -6 -18
-1 -29 23 -85 189 -118 246 -202 358 -61 81 -204 219 -226 219 -7 0 -13 4 -13
8 0 5 -27 22 -60 38 -38 18 -60 35 -60 46 0 16 3 16 36 2 20 -8 46 -21 58 -27z
m-7141 -362 c163 -29 296 -54 399 -76 26 -6 71 -14 100 -19 63 -9 155 -27 220
-41 26 -6 71 -14 100 -19 29 -5 87 -15 128 -23 41 -9 102 -20 135 -26 33 -6
92 -17 130 -25 39 -8 106 -21 150 -30 190 -36 254 -48 320 -61 39 -7 108 -21
155 -30 47 -8 117 -22 155 -29 39 -8 108 -22 155 -31 47 -8 114 -22 150 -30
36 -9 74 -15 85 -15 11 0 49 -6 85 -14 78 -18 185 -39 300 -60 47 -9 121 -23
165 -32 44 -9 114 -22 155 -30 72 -14 129 -26 298 -59 42 -9 106 -22 142 -30
36 -9 74 -15 85 -15 11 0 49 -6 85 -14 36 -8 100 -22 143 -30 42 -9 110 -22
150 -30 39 -8 108 -22 152 -30 44 -9 105 -21 135 -27 81 -17 197 -38 265 -49
33 -6 73 -14 90 -20 16 -5 59 -14 95 -20 157 -29 157 -29 75 -23 -44 3 -82 9
-85 13 -3 4 -40 11 -83 15 -42 4 -79 11 -82 15 -3 4 -36 11 -75 15 -39 4 -72
11 -75 15 -3 4 -41 11 -85 15 -44 4 -82 11 -85 15 -3 5 -39 11 -80 15 -42 4
-77 11 -80 15 -3 4 -38 11 -77 15 -40 4 -77 11 -83 15 -5 4 -39 11 -75 14 -36
4 -74 11 -85 16 -11 5 -51 14 -90 19 -38 6 -106 17 -150 26 -44 8 -114 21
-155 29 -41 7 -82 15 -90 19 -8 3 -46 10 -85 16 -38 6 -108 17 -155 26 -47 9
-116 21 -155 27 -38 5 -79 14 -90 19 -11 5 -49 13 -85 18 -97 14 -233 39 -250
45 -8 4 -44 10 -80 16 -36 5 -101 16 -145 25 -101 20 -269 50 -465 85 -36 6
-78 15 -95 20 -16 5 -55 12 -85 15 -30 4 -68 11 -85 16 -16 5 -57 13 -90 18
-139 22 -231 39 -245 45 -8 3 -44 11 -80 16 -36 5 -102 17 -147 25 -266 50
-385 72 -483 88 -47 8 -92 17 -100 21 -8 3 -44 11 -80 16 -36 5 -103 17 -150
25 -47 9 -115 21 -152 28 -41 6 -68 16 -68 23 0 23 12 44 22 38 5 -3 41 -12
81 -19z m7767 -937 c0 -111 -30 -358 -55 -448 -24 -90 -40 -143 -54 -175 -53
-123 -137 -275 -151 -275 -18 0 -17 31 1 54 32 40 107 193 135 275 54 158 85
331 89 506 2 66 3 130 4 143 1 12 7 22 16 22 12 0 15 -18 15 -102z m6824 -131
c-5 -14 -57 -34 -164 -62 -36 -9 -85 -23 -110 -30 -25 -7 -67 -16 -94 -20 -27
-4 -56 -11 -65 -15 -9 -5 -45 -14 -81 -19 -36 -5 -103 -17 -150 -25 -47 -9
-119 -20 -160 -26 -41 -6 -88 -15 -105 -19 -16 -5 -56 -12 -88 -15 -32 -4 -77
-11 -100 -16 -108 -24 -623 -84 -827 -95 -52 -3 -122 -10 -155 -16 -33 -5
-116 -14 -185 -19 -120 -8 -230 -19 -445 -41 -55 -6 -167 -15 -250 -20 -82 -5
-208 -13 -280 -19 -184 -14 -235 -13 -235 3 0 11 27 16 108 20 456 28 1318
106 1742 158 47 6 130 15 185 20 54 5 115 14 135 19 19 5 50 10 68 10 18 0 72
7 120 15 48 9 130 23 182 31 333 54 579 99 617 115 12 4 46 11 75 15 29 4 58
10 63 14 6 4 33 11 60 15 28 4 55 11 60 15 9 7 38 15 72 19 7 0 10 -5 7 -12z
m-4691 -242 c16 -11 13 -13 -20 -18 -58 -9 -311 -63 -376 -81 -32 -8 -93 -32
-135 -53 -69 -34 -77 -41 -74 -63 2 -14 7 -29 12 -34 14 -14 87 -27 205 -36
88 -7 71 -7 -90 -4 -110 3 -234 9 -275 14 -41 6 -145 14 -230 20 -85 5 -182
14 -215 20 -33 5 -81 10 -107 10 -26 0 -59 5 -74 10 -26 10 -26 11 -8 25 44
32 205 71 354 85 58 5 159 14 225 20 257 23 447 54 550 90 40 14 70 17 145 13
52 -3 103 -11 113 -18z m-3375 -655 c12 -11 24 -20 28 -20 4 0 15 -6 23 -14
26 -23 129 -74 163 -81 18 -4 39 -12 47 -19 9 -7 65 -11 155 -10 113 0 147 3
171 17 36 20 97 23 89 4 -10 -27 -163 -67 -256 -67 -88 0 -216 34 -303 80 -63
33 -165 107 -165 120 0 17 25 11 48 -10z"/>
<path d="M8402 7805 c0 -71 3 -155 8 -185 5 -30 17 -138 26 -240 17 -190 30
-241 67 -248 14 -3 17 4 17 37 0 22 -5 52 -11 68 -46 119 -82 328 -98 583 l-8
115 -1 -130z"/>
<path d="M8447 7066 c-4 -10 -2 -25 4 -32 9 -11 8 -14 -5 -14 -21 0 -20 -18 3
-54 11 -17 17 -34 15 -38 -3 -5 2 -20 10 -33 15 -22 15 -25 1 -25 -22 0 -18
-17 6 -30 36 -20 67 -4 75 35 3 19 10 38 15 41 5 3 9 16 9 29 0 19 -4 23 -17
18 -14 -6 -15 0 -10 43 4 31 3 42 -3 29 -5 -11 -9 -14 -9 -7 -1 17 -27 43 -35
35 -12 -12 -5 -78 9 -97 19 -25 19 -42 0 -26 -8 6 -19 9 -24 6 -5 -4 -12 -2
-15 3 -4 5 -2 12 4 16 5 3 10 29 10 57 0 42 -2 49 -14 39 -11 -10 -15 -8 -18
6 -3 17 -4 17 -11 -1z"/>
<path d="M16440 6023 c0 -52 4 -62 34 -97 19 -21 39 -35 45 -31 14 8 14 -8 1
-21 -7 -7 -22 0 -46 23 -35 32 -64 43 -64 23 0 -5 -6 -10 -14 -10 -7 0 -19 -7
-26 -15 -7 -8 -8 -15 -2 -15 5 0 12 -9 15 -20 7 -27 -8 -25 -27 2 -14 20 -16
20 -16 4 0 -53 75 -114 125 -102 57 14 84 63 91 160 4 44 1 63 -11 76 -8 9
-13 24 -10 33 8 19 -13 33 -27 19 -8 -8 -6 -16 6 -27 9 -9 16 -22 16 -30 0 -7
4 -15 9 -17 5 -1 3 -9 -5 -16 -12 -11 -14 -9 -14 13 0 14 -4 25 -10 25 -5 0
-10 6 -10 14 0 13 -44 66 -55 66 -3 0 -5 -26 -5 -57z"/>
<path d="M16506 5758 c-8 -13 -17 -42 -21 -64 -5 -36 0 -54 35 -130 23 -49 48
-101 56 -116 8 -14 14 -33 14 -41 0 -8 7 -28 15 -43 8 -16 15 -36 15 -45 0 -9
7 -30 15 -45 8 -16 15 -39 15 -51 0 -12 4 -24 9 -28 5 -3 12 -19 16 -36 4 -17
13 -42 21 -57 8 -15 14 -35 14 -44 0 -10 4 -18 9 -18 5 0 12 -13 16 -30 4 -16
10 -30 15 -30 4 0 11 -12 14 -26 4 -15 10 -24 13 -21 3 4 -3 23 -14 44 -19 37
-90 253 -133 403 -12 41 -25 85 -30 96 -5 12 -7 41 -4 65 2 31 1 37 -4 19 -5
-15 -8 16 -7 81 0 86 -3 108 -17 122 -23 23 -45 21 -62 -5z"/>
<path d="M20265 9424 c25 -6 116 -29 175 -45 46 -12 132 -32 209 -49 25 -6 59
-14 75 -19 17 -6 60 -17 96 -26 80 -21 161 -43 220 -60 25 -7 72 -21 105 -30
33 -10 78 -23 100 -30 22 -7 67 -20 100 -30 33 -9 75 -23 93 -31 18 -8 40 -14
50 -14 9 0 30 -7 46 -15 15 -8 35 -15 43 -15 8 0 29 -6 46 -13 48 -20 98 -38
136 -47 18 -5 38 -13 44 -19 6 -6 19 -11 29 -11 9 0 32 -6 50 -14 18 -8 51
-21 73 -29 61 -23 127 -48 160 -63 17 -7 42 -16 58 -19 15 -4 30 -11 33 -16 3
-5 15 -9 27 -9 13 0 31 -6 42 -13 25 -16 134 -52 139 -46 3 3 2 9 -2 14 -9 13
-274 145 -290 145 -7 0 -12 5 -12 10 0 6 -6 10 -14 10 -7 0 -35 9 -62 21 -27
11 -58 24 -69 28 -11 5 -36 15 -55 23 -19 9 -50 19 -67 22 -18 4 -35 12 -38
17 -4 5 -14 9 -23 9 -9 0 -30 7 -46 15 -15 8 -36 15 -45 15 -9 0 -28 6 -42 14
-14 7 -43 16 -65 21 -21 4 -43 10 -49 13 -11 7 -74 26 -140 43 -22 5 -49 13
-60 18 -20 9 -63 20 -170 47 -33 8 -87 21 -120 29 -144 37 -301 71 -390 86
-33 5 -69 14 -80 19 -11 5 -47 12 -79 15 -33 4 -69 10 -80 15 -12 4 -55 10
-96 13 -41 3 -66 4 -55 1z"/>
<path d="M23300 7970 c-96 -4 -249 -11 -340 -15 -91 -4 -210 -11 -265 -16 -55
-5 -176 -14 -270 -19 -93 -5 -200 -14 -237 -20 -37 -5 -104 -10 -150 -11 -46
0 -119 -4 -163 -9 -44 -5 -141 -14 -215 -19 -74 -6 -169 -15 -210 -20 -41 -6
-118 -16 -170 -22 -52 -6 -122 -14 -155 -18 -98 -13 -179 -44 -222 -86 -55
-54 -143 -278 -143 -367 l0 -46 88 -8 c48 -4 220 -2 382 4 162 7 437 14 610
18 414 7 437 14 386 109 -23 44 -24 48 -9 83 8 20 36 57 62 83 91 90 195 179
208 179 7 0 13 4 13 8 0 14 73 32 126 32 81 0 162 -56 226 -157 30 -46 63
-123 72 -165 3 -15 22 -39 42 -54 34 -26 41 -28 145 -27 61 0 120 5 132 11 12
6 58 16 102 21 44 6 121 17 170 26 50 9 131 23 180 31 50 8 105 18 123 21 32
5 33 4 30 -23 -2 -23 -9 -30 -30 -32 -16 -2 -28 -7 -28 -11 0 -5 -23 -12 -52
-15 -28 -4 -57 -10 -62 -14 -6 -4 -36 -13 -66 -20 -30 -7 -84 -19 -120 -28
-36 -8 -89 -19 -119 -25 -30 -5 -58 -12 -62 -15 -9 -5 -102 -24 -236 -48 -39
-7 -78 -18 -87 -25 -24 -20 -39 -79 -33 -130 3 -25 2 -38 -2 -27 -6 15 -10 10
-20 -25 -38 -122 -92 -197 -176 -239 -55 -28 -70 -32 -110 -26 -46 7 -145 52
-145 67 0 4 -18 26 -40 49 -22 23 -43 53 -46 66 -3 13 -10 24 -14 24 -4 0 -11
12 -15 28 -3 15 -12 34 -19 42 -7 8 -19 36 -26 62 -7 26 -18 52 -24 57 -6 4
-334 11 -731 14 -595 5 -727 9 -760 21 -22 8 -41 10 -43 5 -5 -14 18 -79 29
-79 5 0 9 -5 9 -10 0 -12 41 -73 53 -78 4 -2 7 -9 7 -17 0 -7 44 -58 98 -113
81 -83 109 -105 172 -134 87 -41 266 -80 445 -98 44 -5 127 -13 185 -19 404
-42 943 -51 1065 -18 33 9 80 21 105 27 138 34 361 101 375 112 5 4 16 8 25 8
8 1 33 9 55 20 22 11 48 19 57 20 9 0 19 4 23 9 3 5 19 12 35 16 17 4 30 11
30 16 0 5 5 9 11 9 21 0 79 32 73 41 -3 5 2 6 10 3 8 -3 37 9 64 28 44 28 55
44 96 130 25 53 46 104 46 112 0 8 7 43 16 78 10 37 17 108 18 173 1 90 -3
123 -23 185 -13 41 -27 79 -32 85 -5 5 -9 24 -9 43 0 35 -16 75 -28 68 -4 -2
-7 10 -7 27 0 28 -6 35 -48 55 -58 28 -176 34 -437 22z"/>
<path d="M22719 7713 c21 -8 60 -44 82 -74 l19 -27 -55 -58 c-30 -33 -55 -67
-55 -76 0 -18 23 -110 35 -140 4 -10 11 -18 16 -18 5 0 9 -7 9 -15 0 -8 4 -15
9 -15 5 0 12 -8 15 -17 3 -10 26 -40 51 -68 24 -27 45 -54 45 -60 0 -5 5 -3
10 6 5 9 12 75 16 146 5 104 4 137 -8 164 -9 19 -24 54 -34 79 -39 98 -112
182 -155 179 -12 0 -12 -1 0 -6z"/>
<path d="M22391 7431 c-11 -7 -13 -34 -9 -138 3 -71 10 -138 16 -149 6 -10 13
-27 16 -36 3 -10 9 -18 13 -18 4 1 33 32 63 70 30 39 58 70 63 70 4 0 7 7 7
15 0 8 4 15 9 15 6 0 20 17 33 39 18 30 22 50 20 90 l-4 51 -106 0 c-59 0
-113 -4 -121 -9z"/>
<path d="M22660 7210 c-14 -11 -30 -24 -37 -30 -7 -5 -15 -10 -18 -10 -5 0
-64 -39 -75 -50 -7 -7 -41 -28 -67 -42 -13 -6 -23 -17 -23 -25 0 -20 62 -111
85 -123 11 -5 38 -21 60 -35 24 -14 56 -24 79 -25 48 0 120 35 152 75 13 16
29 35 34 42 5 6 12 23 16 37 3 14 10 26 15 26 16 0 9 45 -9 60 -39 32 -82 60
-91 60 -5 0 -11 4 -13 8 -3 8 -72 52 -79 52 -2 -1 -15 -10 -29 -20z"/>
</g>
</svg>
