<?xml version="1.0" standalone="no"?>
<!DOCTYPE svg PUBLIC "-//W3C//DTD SVG 20010904//EN"
 "http://www.w3.org/TR/2001/REC-SVG-20010904/DTD/svg10.dtd">
<svg version="1.0" xmlns="http://www.w3.org/2000/svg"
 width="2880.000000pt" height="1725.000000pt" viewBox="0 0 2880.000000 1725.000000"
 preserveAspectRatio="xMidYMid meet">
<metadata>
Created by potrace 1.16, written by Peter Selinger 2001-2019
</metadata>
<g transform="translate(0.000000,1725.000000) scale(0.100000,-0.100000)"
fill="#000000" stroke="none">
<path d="M13630 10752 c0 -5 -170 -12 -377 -15 -207 -4 -379 -10 -382 -15 -3
-5 -75 -12 -160 -15 -107 -5 -157 -11 -163 -20 -5 -8 -44 -13 -125 -14 -64 -2
-119 -7 -122 -12 -3 -5 -50 -12 -103 -16 -54 -4 -98 -11 -98 -15 0 -5 -36 -12
-80 -16 -44 -3 -80 -10 -80 -14 0 -5 -27 -11 -60 -15 -33 -4 -60 -10 -60 -15
0 -4 -25 -10 -57 -13 -31 -3 -59 -10 -62 -15 -3 -6 -32 -13 -63 -17 -32 -4
-58 -11 -58 -15 0 -4 -20 -11 -45 -14 -25 -4 -45 -11 -45 -15 0 -5 -25 -12
-55 -16 -30 -3 -55 -10 -55 -15 0 -5 -16 -12 -35 -16 -19 -3 -35 -10 -35 -14
0 -4 -18 -10 -40 -14 -44 -7 -55 -26 -15 -26 14 0 25 4 25 9 0 5 18 12 40 16
22 4 42 10 45 15 3 5 23 11 45 15 22 4 42 10 45 15 3 5 24 11 47 15 23 4 49
11 58 16 16 8 73 23 150 40 25 5 52 14 61 18 9 5 42 12 75 16 32 4 64 11 69
15 6 5 37 11 70 15 33 3 69 10 80 15 11 5 63 14 115 20 52 6 131 15 175 20
129 14 610 12 805 -4 118 -10 184 -8 255 8 39 9 104 16 145 16 41 0 104 5 140
11 71 12 731 -11 905 -32 50 -5 140 -14 200 -20 190 -16 479 -52 552 -69 23
-5 68 -12 100 -16 32 -3 69 -10 83 -15 14 -5 52 -13 85 -18 81 -13 -244 -2
-340 10 -120 16 -1034 22 -1300 9 -132 -7 -297 -14 -367 -17 -151 -5 -155 -9
-75 -86 56 -55 50 -54 -28 4 -27 21 -95 60 -150 87 -143 70 -169 82 -207 87
-32 4 -31 4 5 -6 20 -6 37 -15 37 -19 0 -5 14 -11 30 -15 17 -4 30 -11 30 -16
0 -5 6 -9 13 -9 24 0 151 -95 221 -166 56 -55 150 -163 155 -177 2 -6 14 -20
25 -31 12 -12 46 -52 76 -91 30 -38 59 -75 65 -81 5 -6 17 -22 25 -34 30 -45
55 -75 67 -83 7 -4 13 -12 13 -18 0 -10 10 -24 43 -60 9 -10 17 -23 17 -29 0
-5 4 -10 9 -10 5 0 24 -23 42 -51 18 -28 38 -57 45 -64 7 -7 36 -43 64 -79 59
-77 214 -236 230 -236 6 0 28 -11 50 -25 22 -14 44 -25 49 -25 5 0 31 -11 57
-24 34 -17 53 -22 65 -15 10 5 60 9 112 9 52 0 117 4 144 9 28 6 115 13 194
16 79 3 207 10 284 16 77 6 289 15 470 20 323 10 580 23 540 28 -29 4 51 32
84 29 29 -2 108 31 115 48 8 21 -174 -4 -226 -32 -14 -8 -33 -14 -41 -14 -9 0
-23 -7 -32 -16 -13 -14 -29 -15 -93 -10 -42 4 -95 10 -117 14 -22 4 -52 7 -68
6 -15 -2 -25 1 -22 7 4 5 -35 10 -97 10 -57 1 -120 3 -140 5 -21 2 -38 -1 -38
-6 0 -14 -157 -13 -162 1 -5 16 -45 -10 -51 -33 -7 -24 -20 -23 -32 2 -34 69
-100 196 -105 200 -3 3 -16 27 -30 53 -27 53 -32 62 -73 124 -15 24 -27 45
-27 48 0 8 -44 69 -52 73 -5 2 -8 8 -8 14 0 5 -9 21 -20 35 -11 14 -20 30 -20
34 0 5 103 9 229 9 199 0 230 2 235 16 12 31 7 42 -16 37 -13 -3 -20 -3 -16 2
9 9 -16 35 -34 35 -15 1 -58 35 -58 47 0 4 -9 14 -20 21 -12 7 -19 16 -16 21
7 10 328 1 340 -10 15 -14 131 -11 160 5 38 19 80 84 66 102 -7 7 -9 18 -5 24
3 5 -2 10 -12 10 -10 0 -36 14 -57 30 -22 17 -45 30 -52 30 -7 0 -14 5 -16 11
-2 5 -11 11 -20 13 -10 1 -20 5 -24 9 -4 4 -29 10 -56 13 -26 4 -48 10 -48 14
0 5 -19 11 -42 15 -24 4 -51 11 -60 16 -10 5 -37 12 -60 15 -23 4 -60 13 -81
20 -22 8 -54 14 -72 14 -18 0 -45 4 -61 10 -16 5 -60 14 -99 20 -53 7 -17 8
148 4 121 -2 227 -8 236 -14 10 -5 77 -12 150 -16 72 -4 131 -11 131 -15 0 -5
17 -9 38 -9 71 0 143 -13 139 -24 -2 -6 -17 -10 -33 -8 -16 1 -37 3 -46 3 -10
0 -18 3 -18 7 0 4 -26 9 -59 10 -54 3 -59 1 -65 -20 -8 -33 -6 -47 4 -23 7 17
9 17 9 3 1 -14 10 -18 46 -18 25 0 45 5 45 10 0 6 16 10 35 10 19 0 35 -4 35
-9 0 -5 47 -12 105 -16 58 -4 105 -11 105 -16 0 -5 17 -9 38 -9 22 0 61 -7 88
-15 27 -8 61 -15 77 -15 15 0 27 -4 27 -9 0 -5 27 -12 60 -16 33 -4 60 -11 60
-15 0 -4 25 -11 55 -15 30 -3 55 -10 55 -15 0 -4 12 -11 27 -14 24 -7 25 -8
10 -23 -15 -15 -18 -15 -35 0 -23 21 -96 47 -131 47 -25 0 -25 -1 10 -25 20
-13 57 -29 83 -36 25 -6 46 -15 46 -19 0 -4 16 -11 35 -14 19 -4 35 -11 35
-16 0 -6 9 -10 20 -10 23 0 27 18 5 26 -16 7 -21 34 -6 34 5 0 14 -7 21 -15 7
-8 17 -15 23 -15 13 0 75 -31 142 -71 28 -17 62 -35 78 -42 15 -6 27 -15 27
-19 0 -4 5 -8 11 -8 6 0 48 -22 94 -50 46 -27 87 -50 93 -50 6 0 12 -4 14 -8
2 -4 32 -26 68 -47 36 -21 83 -52 104 -67 21 -15 45 -28 53 -28 7 0 13 -5 13
-10 0 -6 10 -15 23 -20 33 -15 61 -33 70 -47 4 -7 14 -13 22 -13 7 0 15 -3 17
-8 2 -4 53 -40 113 -81 61 -41 112 -78 113 -83 2 -4 8 -8 14 -8 5 0 16 -6 23
-12 8 -7 64 -49 124 -93 61 -44 110 -84 111 -88 0 -4 -26 -5 -57 -2 -33 4 -69
2 -83 -4 -23 -9 -22 -10 16 -10 22 -1 44 -4 48 -8 4 -5 67 -13 139 -19 73 -6
187 -19 255 -27 67 -9 129 -14 137 -11 7 3 29 -1 47 -9 18 -8 65 -18 105 -21
39 -3 84 -11 98 -16 14 -6 43 -10 63 -10 20 0 75 -7 122 -15 47 -8 128 -21
180 -29 288 -46 377 -61 667 -112 140 -24 335 -60 478 -88 44 -9 112 -20 150
-26 39 -6 79 -15 90 -20 11 -5 49 -11 85 -15 36 -4 69 -10 75 -14 5 -5 36 -11
69 -15 32 -4 64 -10 70 -14 6 -4 40 -13 76 -20 137 -26 219 -46 285 -67 22 -8
59 -16 83 -20 23 -4 42 -10 42 -15 0 -4 20 -10 45 -13 24 -4 53 -11 62 -16 10
-5 52 -19 93 -31 41 -13 80 -26 85 -30 6 -4 26 -11 45 -15 19 -4 41 -11 50
-15 30 -14 86 -39 125 -55 83 -35 231 -112 253 -132 7 -7 19 -13 27 -13 7 0
15 -7 19 -15 3 -8 11 -15 17 -15 6 0 22 -11 35 -25 13 -14 28 -25 34 -25 5 0
10 -7 10 -15 0 -8 6 -15 14 -15 14 0 76 -56 76 -68 0 -4 10 -18 23 -32 129
-143 184 -419 138 -703 -8 -48 -12 -89 -9 -92 8 -8 42 27 66 68 14 24 22 55
22 83 0 24 3 44 8 44 13 -1 38 -24 45 -42 3 -10 11 -18 17 -18 19 0 9 25 -20
50 -26 21 -30 31 -30 77 0 29 -4 53 -9 53 -4 0 -11 46 -15 102 -4 57 -11 105
-15 108 -5 3 -11 26 -15 53 -4 26 -11 47 -15 47 -5 0 -11 18 -15 40 -3 22 -11
40 -16 40 -6 0 -14 8 -17 18 -8 20 -58 72 -70 72 -5 0 -20 13 -33 30 -14 16
-31 29 -37 30 -7 0 -13 6 -13 14 0 8 -10 18 -22 21 -11 4 -31 18 -43 31 -12
13 -26 24 -31 24 -5 0 -21 13 -35 29 -14 15 -35 31 -47 35 -12 4 -22 12 -22
17 0 5 -7 9 -15 9 -9 0 -18 6 -21 14 -3 8 -19 18 -35 21 -16 4 -29 10 -29 15
0 5 -13 11 -30 15 -16 4 -30 10 -30 15 0 5 -13 11 -30 15 -16 4 -30 10 -30 15
0 5 -13 11 -30 15 -16 4 -30 11 -30 16 0 5 -18 12 -40 15 -22 4 -40 10 -40 14
0 4 -16 11 -35 14 -19 4 -35 11 -35 15 0 5 -20 12 -45 15 -25 4 -45 11 -45 15
0 5 -20 12 -45 15 -25 4 -45 11 -45 15 0 5 -20 12 -45 15 -25 4 -45 11 -45 15
0 5 -25 12 -55 16 -30 3 -55 10 -55 15 0 4 -27 11 -60 15 -33 4 -60 11 -60 15
0 4 -27 11 -60 15 -33 4 -60 11 -60 15 0 4 -27 11 -60 15 -33 4 -60 10 -60 15
0 4 -29 11 -65 15 -36 3 -65 10 -65 15 0 4 -34 11 -75 15 -41 4 -75 10 -75 15
0 4 -34 11 -75 15 -41 4 -75 10 -75 15 0 4 -38 11 -85 15 -47 4 -85 11 -85 15
0 5 -34 11 -75 15 -41 4 -75 11 -75 15 0 5 -36 12 -80 16 -44 3 -80 10 -80 14
0 5 -38 11 -85 15 -47 4 -85 11 -85 15 0 5 -36 12 -80 16 -44 3 -80 10 -80 14
0 4 -40 11 -90 15 -49 4 -90 11 -90 15 0 4 -40 11 -90 15 -49 4 -90 11 -90 15
0 4 -40 11 -90 15 -49 4 -90 11 -90 15 0 4 -45 11 -100 15 -55 3 -100 10 -100
15 0 4 -43 11 -95 15 -52 4 -95 10 -95 14 0 5 -37 11 -82 14 -45 4 -84 11 -87
16 -3 4 -21 12 -38 16 -18 3 -33 11 -33 16 0 5 -11 9 -25 9 -14 0 -28 6 -31
14 -3 8 -19 18 -35 21 -16 4 -29 11 -29 16 0 5 -11 11 -24 15 -14 3 -27 13
-30 21 -4 11 -14 13 -31 9 -19 -5 -44 4 -98 36 -40 23 -74 45 -77 48 -8 8 -43
29 -67 40 -13 5 -23 14 -23 19 0 5 -10 11 -22 15 -13 3 -36 17 -53 30 -23 20
-26 25 -12 26 26 0 21 19 -8 26 -14 3 -25 10 -25 15 0 5 -7 9 -15 9 -7 0 -18
7 -23 16 -5 10 -24 17 -50 18 -23 1 -45 6 -49 10 -5 5 2 5 15 2 12 -4 22 -3
22 3 0 12 -36 24 -50 16 -6 -3 -7 1 -4 10 5 11 0 18 -15 22 -11 3 -21 9 -21
14 0 5 -5 9 -11 9 -6 0 -9 -6 -6 -14 4 -10 0 -12 -14 -9 -16 5 -17 8 -7 21 11
13 10 15 -4 9 -12 -4 -15 -2 -11 9 3 7 0 14 -6 14 -6 0 -11 -4 -11 -10 0 -5
-4 -10 -10 -10 -5 0 -10 11 -10 25 0 25 -10 30 -57 26 -17 -1 -23 4 -23 19 0
12 -7 20 -16 20 -14 0 -14 -3 -4 -15 9 -10 9 -15 1 -15 -6 0 -11 4 -11 8 0 5
-12 14 -26 20 -18 9 -24 17 -19 31 4 14 -1 20 -19 25 -13 3 -33 3 -43 0 -15
-5 -16 -4 -3 5 13 10 13 12 0 21 -8 5 -21 10 -29 10 -11 0 -11 -3 -1 -15 9
-10 9 -15 1 -15 -6 0 -11 4 -11 9 0 5 -8 12 -17 14 -17 4 -17 5 0 6 9 0 17 5
17 10 0 11 -48 24 -60 16 -6 -3 -7 1 -4 9 4 10 -1 18 -12 23 -11 3 -22 11 -26
17 -4 5 -23 10 -42 10 -22 0 -31 3 -23 8 9 6 9 10 -3 18 -8 5 -20 10 -27 10
-6 0 -13 5 -15 11 -2 7 -18 12 -35 13 -18 1 -29 6 -26 12 2 6 -8 15 -24 19
-15 3 -31 12 -35 18 -6 9 -11 8 -18 -3 -8 -13 -10 -12 -10 3 0 9 -6 17 -14 17
-8 0 -16 5 -18 11 -2 6 -16 12 -31 12 -15 1 -27 8 -27 15 0 6 -7 12 -15 12 -9
0 -18 6 -21 14 -3 7 -23 16 -45 20 -21 3 -39 10 -39 15 0 5 -13 12 -30 16 -16
4 -30 10 -30 15 0 4 -16 11 -35 14 -19 4 -35 11 -35 15 0 5 -18 11 -40 15 -22
3 -40 10 -40 15 0 5 -19 12 -42 16 -24 4 -46 12 -49 17 -3 5 -25 12 -48 15
-22 3 -41 9 -41 14 0 4 -20 11 -45 15 -25 3 -45 10 -45 14 0 4 -28 11 -62 14
-35 4 -65 12 -68 17 -3 4 -38 11 -78 15 -40 4 -72 10 -72 14 0 5 -27 11 -60
15 -33 4 -60 11 -60 15 0 4 -26 11 -57 15 -32 4 -60 11 -63 16 -3 5 -38 11
-78 15 -40 4 -72 10 -72 15 0 4 -31 11 -70 15 -38 3 -70 10 -70 14 0 4 -39 10
-87 14 -48 4 -90 11 -93 16 -3 5 -58 12 -123 16 -64 4 -117 10 -117 14 0 4
-55 11 -122 15 -72 4 -126 12 -131 19 -6 8 -10 8 -14 -1 -6 -16 -90 -17 -95
-2 -3 8 -54 13 -148 17 -80 2 -148 9 -151 14 -3 5 -186 12 -407 15 -221 3
-402 10 -402 15 0 4 -11 8 -25 8 -14 0 -25 -4 -25 -8z m1165 -323 c33 -6 111
-12 173 -15 61 -4 112 -10 112 -15 0 -4 7 -6 15 -3 8 4 15 2 15 -4 0 -6 -6
-12 -12 -14 -7 -3 12 -17 42 -32 30 -15 62 -34 71 -42 8 -8 20 -14 25 -14 5 0
23 -9 39 -20 27 -18 28 -20 8 -20 -12 0 -28 7 -37 15 -8 8 -21 15 -29 15 -8 0
-22 9 -32 20 -10 11 -23 20 -28 20 -5 0 -32 13 -58 30 -27 16 -49 26 -49 21 0
-5 -11 -12 -25 -15 -30 -8 -32 -27 -5 -51 45 -40 10 -55 -131 -55 -130 0 -169
18 -119 53 19 13 17 15 -36 26 -76 15 -111 14 -117 -3 -7 -19 13 -38 28 -26
18 15 85 -7 78 -25 -4 -12 -26 -15 -104 -15 l-98 0 15 35 c14 35 14 36 -12 45
-16 6 -190 10 -445 10 -402 1 -419 1 -429 20 -6 11 -6 21 -1 25 9 5 154 16
451 34 173 11 627 11 695 0z m-296 -133 l24 -13 -24 -16 c-13 -8 -35 -18 -47
-22 l-24 -7 27 -14 c15 -8 35 -14 44 -15 9 -1 -24 -8 -74 -17 -158 -29 -415
-20 -590 21 l-50 12 70 6 70 5 -78 2 c-82 2 -117 13 -117 37 0 13 34 15 223
16 122 1 272 5 332 9 171 10 188 10 214 -4z m561 -147 c14 -4 19 -8 13 -8 -7
-1 -13 -7 -13 -15 0 -8 -8 -13 -17 -12 -10 0 -19 -7 -21 -16 -2 -11 3 -18 11
-18 8 0 18 -7 21 -16 4 -9 13 -14 21 -10 23 8 18 -2 -12 -29 -21 -18 -40 -24
-75 -25 -45 0 -48 2 -48 25 0 18 5 25 20 25 11 0 20 7 20 15 0 8 5 15 10 15 6
0 10 5 10 10 0 14 -43 13 -58 -2 -9 -9 -12 -4 -12 25 0 55 36 64 130 36z"/>
<path d="M12265 10394 c-220 -24 -485 -73 -655 -121 -121 -35 -156 -45 -185
-55 -16 -5 -43 -13 -60 -18 -16 -5 -46 -14 -65 -21 -96 -33 -100 -35 -235 -87
-53 -20 -105 -42 -250 -107 -116 -52 -331 -163 -400 -206 -22 -14 -47 -29 -55
-32 -8 -4 -27 -15 -42 -25 -14 -9 -48 -30 -75 -46 -46 -28 -155 -104 -180
-126 -7 -5 -18 -10 -25 -10 -22 -1 -85 -39 -65 -40 9 0 17 -4 17 -10 0 -5 5
-10 11 -10 7 0 47 -33 89 -74 64 -61 88 -77 135 -91 80 -23 113 -24 770 -30
670 -5 1277 -21 1385 -34 70 -9 76 -12 107 -50 26 -30 48 -44 96 -59 76 -24
290 -43 457 -40 69 1 131 -2 138 -6 17 -10 15 -105 -3 -156 -21 -59 -12 -85
34 -99 54 -16 144 -14 202 5 57 19 134 86 144 127 4 15 11 27 16 27 5 0 9 18
9 39 0 22 4 42 9 45 5 3 33 1 62 -4 29 -6 55 -8 58 -5 10 10 -23 25 -71 31
-46 6 -48 8 -48 40 0 19 1 34 3 34 1 0 29 -5 62 -10 33 -6 127 -15 209 -20
201 -14 230 -22 251 -69 25 -55 33 -75 38 -91 3 -8 6 -3 6 12 1 15 -3 30 -9
33 -5 3 -10 13 -10 22 0 19 -40 102 -57 121 -11 11 -13 10 -13 -7 0 -18 -3
-19 -25 -9 -13 6 -29 23 -34 37 -13 31 -136 208 -180 258 -17 19 -31 37 -31
39 0 6 -40 63 -62 87 -9 11 -29 39 -44 63 -15 24 -32 44 -36 44 -4 0 -8 7 -8
15 0 8 -4 15 -8 15 -4 0 -15 12 -24 28 -9 15 -25 36 -35 47 -10 11 -43 52 -74
90 -86 108 -280 315 -294 315 -2 0 -19 14 -37 30 -18 17 -36 30 -40 30 -4 0
-27 14 -51 30 -25 17 -48 30 -52 30 -4 0 -21 6 -38 14 -155 67 -441 91 -732
60z m547 -155 c57 -6 112 -14 123 -19 11 -5 29 -11 40 -14 19 -5 -43 -2 -228
11 -97 6 -339 -10 -462 -32 -74 -13 -174 -29 -252 -40 -21 -3 -33 -1 -33 6 0
8 -4 8 -15 -1 -12 -10 -15 -10 -15 2 0 57 569 116 842 87z m-875 -276 l121 -6
-15 -24 c-9 -13 -23 -23 -32 -22 -36 3 -44 -4 -11 -11 30 -6 25 -8 -29 -9 -43
-1 -70 -6 -82 -17 -16 -15 -17 -14 -12 5 5 20 2 21 -53 20 -58 -1 -58 -2 -17
-8 67 -11 62 -21 -10 -21 -67 0 -67 0 -67 28 0 15 6 40 13 56 10 23 16 26 42
21 17 -3 85 -8 152 -12z m1133 -169 c0 -8 -4 -14 -9 -14 -5 0 -11 -8 -15 -17
-3 -10 -9 -23 -12 -30 -4 -9 39 -12 166 -15 111 -2 173 -7 178 -14 4 -6 17
-14 30 -18 12 -4 22 -12 22 -17 0 -5 5 -9 11 -9 17 0 82 -68 115 -120 69 -109
78 -142 49 -196 -8 -16 -15 -36 -15 -45 0 -37 -22 -41 -222 -34 -106 4 -274
13 -373 21 -99 8 -218 14 -265 15 -47 0 -123 6 -170 12 -81 11 -85 13 -85 37
0 20 5 25 25 23 14 0 81 -4 150 -7 207 -11 579 -36 682 -47 106 -11 143 -4
112 21 -29 25 -86 40 -184 50 -52 5 -126 14 -165 19 -38 6 -93 10 -122 11 -52
0 -170 25 -188 40 -20 16 -147 40 -211 40 -35 0 -64 3 -64 6 0 17 42 72 65 84
14 7 25 17 25 22 0 4 6 8 13 8 7 0 29 9 50 20 20 11 46 20 58 20 11 0 29 5 39
10 18 10 103 25 208 37 55 7 57 30 2 39 l-41 7 58 38 c58 37 83 38 83 3z"/>
<path d="M11163 10373 c-13 -2 -23 -8 -23 -13 0 -4 -16 -11 -35 -14 -19 -4
-35 -11 -35 -16 0 -6 -18 -13 -40 -16 -22 -4 -40 -10 -40 -14 0 -5 -13 -11
-30 -15 -16 -4 -30 -10 -30 -15 0 -4 -16 -11 -35 -14 -19 -4 -35 -11 -35 -16
0 -4 -13 -11 -30 -15 -16 -4 -30 -10 -30 -15 0 -5 -13 -11 -30 -15 -16 -4 -30
-10 -30 -15 0 -5 -13 -11 -30 -15 -16 -4 -30 -10 -30 -15 0 -5 -13 -11 -30
-15 -16 -4 -30 -11 -30 -16 0 -5 -11 -11 -25 -15 -14 -3 -25 -10 -25 -14 0 -5
-13 -11 -30 -15 -16 -4 -30 -11 -30 -16 0 -5 -7 -9 -15 -9 -9 0 -18 -6 -21
-14 -3 -8 -19 -18 -35 -21 -16 -4 -29 -11 -29 -16 0 -5 -11 -11 -25 -15 -14
-3 -25 -10 -25 -15 0 -5 -7 -9 -15 -9 -9 0 -18 -6 -21 -14 -3 -8 -19 -18 -35
-21 -16 -4 -29 -11 -29 -16 0 -5 -11 -11 -24 -15 -14 -3 -27 -12 -30 -20 -3
-8 -12 -14 -21 -14 -8 0 -15 -4 -15 -10 0 -5 -11 -12 -24 -16 -14 -3 -27 -12
-30 -20 -3 -8 -12 -14 -21 -14 -8 0 -15 -4 -15 -10 0 -5 -11 -12 -25 -16 -14
-3 -25 -10 -25 -15 0 -23 44 0 119 61 13 11 30 20 38 20 7 0 13 4 13 9 0 5 8
11 18 15 9 3 44 24 77 46 33 22 67 43 75 47 8 4 21 13 28 20 7 7 20 13 28 13
8 0 14 4 14 9 0 5 14 12 30 16 17 4 30 10 30 15 0 5 10 12 22 16 12 3 28 13
36 20 7 8 20 14 28 14 8 0 14 4 14 9 0 5 12 12 27 16 15 3 30 10 33 14 4 6
188 97 245 121 11 5 41 18 67 29 26 12 52 21 57 21 6 0 11 4 11 9 0 5 16 12
35 15 19 4 47 13 62 21 15 8 34 15 41 15 6 0 12 4 12 9 0 5 8 12 18 14 14 4
13 5 -3 4 -11 0 -30 -2 -42 -4z"/>
<path d="M9990 9731 c0 -5 -10 -13 -22 -16 -11 -4 -31 -17 -42 -29 -12 -13
-29 -25 -38 -29 -10 -3 -18 -11 -18 -17 0 -5 -7 -10 -15 -10 -8 0 -23 -9 -32
-20 -10 -11 -23 -20 -30 -20 -7 0 -13 -4 -13 -9 0 -5 -10 -13 -22 -16 -11 -4
-31 -17 -42 -29 -12 -13 -29 -25 -38 -29 -10 -3 -18 -11 -18 -17 0 -5 -7 -10
-15 -10 -8 0 -23 -9 -32 -20 -10 -11 -23 -20 -30 -20 -7 0 -13 -4 -13 -10 0
-5 -11 -12 -24 -16 -14 -3 -27 -12 -30 -20 -3 -8 -11 -14 -17 -14 -6 0 -22
-11 -34 -24 -12 -13 -32 -27 -43 -31 -12 -3 -22 -11 -22 -16 0 -5 -7 -9 -15
-9 -9 0 -18 -6 -21 -14 -3 -8 -16 -17 -30 -20 -13 -4 -24 -11 -24 -16 0 -6 -7
-10 -15 -10 -9 0 -18 -6 -21 -14 -3 -8 -19 -18 -35 -21 -16 -4 -29 -10 -29
-15 0 -4 -11 -11 -25 -14 -14 -4 -25 -10 -25 -15 0 -5 -13 -12 -30 -16 -16 -4
-30 -11 -30 -15 0 -5 -16 -12 -35 -16 -19 -3 -35 -10 -35 -15 0 -5 -6 -9 -14
-9 -8 0 -21 -6 -28 -14 -8 -7 -29 -17 -46 -21 -18 -3 -32 -11 -32 -16 0 -5
-18 -12 -39 -15 -22 -4 -42 -13 -45 -20 -3 -8 -12 -14 -21 -14 -8 0 -15 -4
-15 -9 0 -5 -10 -13 -22 -17 -12 -4 -33 -20 -47 -35 -14 -16 -29 -29 -34 -29
-13 0 -167 -156 -167 -169 0 -6 -4 -11 -10 -11 -5 0 -12 -11 -16 -24 -3 -14
-12 -27 -20 -30 -8 -3 -14 -12 -14 -21 0 -8 -4 -15 -9 -15 -5 0 -12 -13 -16
-30 -4 -16 -10 -30 -15 -30 -4 0 -11 -20 -14 -45 -4 -25 -11 -45 -16 -45 -4 0
-11 -27 -15 -60 -4 -33 -11 -60 -15 -60 -4 0 -11 -25 -15 -55 -3 -30 -10 -55
-14 -55 -5 0 -11 -22 -15 -50 -4 -27 -11 -50 -15 -50 -5 0 -12 -24 -16 -52 -4
-29 -12 -56 -17 -59 -5 -3 -12 -31 -15 -62 -3 -32 -10 -57 -14 -57 -5 0 -9
-38 -9 -85 0 -47 4 -85 9 -85 4 0 12 -53 16 -117 3 -65 11 -120 16 -124 5 -3
12 -47 15 -97 4 -51 10 -92 14 -92 4 0 11 -25 15 -55 3 -30 10 -55 15 -55 5 0
12 -20 16 -45 3 -25 10 -45 14 -45 4 0 11 -16 14 -35 4 -19 11 -35 15 -35 5 0
11 -18 15 -40 3 -22 10 -40 15 -40 5 0 12 -11 15 -25 7 -28 44 -70 53 -61 4 3
-1 14 -10 24 -10 10 -17 24 -17 30 0 7 -4 12 -9 12 -5 0 -12 14 -16 30 -4 17
-10 30 -15 30 -4 0 -11 16 -14 35 -4 19 -11 35 -16 35 -4 0 -11 19 -15 43 -4
23 -11 45 -16 48 -5 3 -16 52 -25 110 -9 57 -19 127 -24 154 -4 28 -13 88 -19
135 -6 47 -16 119 -22 161 -8 54 -8 102 0 170 11 86 18 116 57 234 7 22 16 57
20 78 3 20 10 40 15 43 5 3 9 14 9 24 0 32 31 114 50 132 10 9 30 20 44 24 15
4 26 13 26 23 0 10 13 31 30 47 16 16 30 34 30 41 0 6 4 13 8 15 4 2 19 21 32
42 20 33 24 54 25 129 2 82 4 92 26 110 13 10 40 32 59 49 19 17 45 35 57 41
13 6 23 13 23 17 0 4 24 17 53 29 28 13 64 30 79 37 14 8 33 14 42 14 9 0 16
5 16 10 0 6 5 10 12 10 16 0 222 102 226 112 2 4 8 8 13 8 6 0 35 16 65 35 30
19 58 35 63 35 5 0 11 7 15 15 3 8 10 15 16 15 11 0 24 9 61 43 10 9 21 17 24
17 3 0 11 5 18 10 44 37 61 50 66 50 3 0 18 10 31 23 32 28 87 67 95 67 3 0
16 11 29 25 13 14 26 25 30 25 10 0 70 43 79 58 4 6 15 12 22 12 8 0 15 4 15
9 0 5 10 13 22 16 11 4 31 17 42 29 22 22 45 38 84 58 25 13 29 28 7 28 -8 0
-15 -4 -15 -9z"/>
<path d="M11001 8699 c91 -86 225 -115 319 -71 32 15 39 22 23 22 -12 0 -26 6
-30 13 -15 25 -78 39 -203 44 -107 5 -122 4 -109 -8z"/>
<path d="M14067 8388 c-6 -54 -26 -167 -45 -248 -41 -172 -44 -216 -38 -585 3
-198 9 -400 14 -450 9 -86 9 -83 6 48 -2 75 -7 199 -10 275 -6 145 11 546 27
622 5 25 14 74 20 110 5 36 14 74 19 85 7 17 30 157 30 185 0 6 -4 10 -9 10
-5 0 -11 -24 -14 -52z"/>
<path d="M17570 8326 c0 -11 -36 -15 -182 -19 -188 -5 -244 -15 -305 -54 -71
-46 -89 -96 -55 -156 57 -103 216 -269 352 -366 166 -119 334 -203 530 -266
47 -15 103 -33 125 -41 23 -8 48 -14 57 -14 10 0 37 -6 60 -14 24 -7 79 -21
123 -31 44 -9 107 -23 140 -30 33 -8 96 -21 140 -30 44 -9 109 -23 145 -31 36
-8 73 -14 84 -14 10 0 48 -6 85 -14 67 -15 178 -33 373 -61 188 -27 410 5 432
61 5 12 -26 76 -47 100 -26 29 -37 44 -79 105 -68 99 -91 131 -115 159 -13 13
-23 28 -23 32 0 3 -6 13 -13 20 -17 18 -77 116 -77 127 0 5 -7 11 -15 15 -8 3
-15 12 -15 20 0 8 -6 21 -12 28 -16 18 -48 77 -48 89 0 14 42 11 89 -6 46 -16
165 -25 177 -12 4 4 2 36 -4 71 -7 35 -12 78 -12 96 0 45 20 98 39 103 14 4
14 5 0 6 -8 0 -24 -5 -35 -13 -17 -13 -19 -27 -19 -126 l0 -112 -45 5 c-25 2
-58 9 -75 15 -28 10 -80 24 -215 57 -30 7 -83 21 -117 29 -35 9 -89 23 -120
30 -32 8 -92 22 -133 31 -41 9 -93 21 -115 27 -66 17 -167 40 -215 48 -25 4
-65 12 -90 18 -182 44 -552 102 -651 102 -30 1 -65 7 -79 15 -32 18 -40 18
-40 1z m105 -97 c77 -6 160 -15 185 -20 25 -6 83 -17 130 -24 47 -8 119 -21
160 -30 41 -8 96 -20 123 -25 26 -5 62 -13 80 -19 17 -5 55 -15 82 -21 57 -12
143 -34 195 -48 19 -5 60 -17 90 -25 118 -33 248 -87 277 -114 7 -6 22 -15 33
-18 11 -3 20 -11 20 -16 0 -5 5 -9 11 -9 7 0 48 -37 93 -83 88 -89 106 -111
150 -175 16 -23 33 -42 37 -42 5 0 9 -5 9 -11 0 -6 14 -28 30 -49 17 -21 30
-43 30 -49 0 -6 4 -11 8 -11 5 0 16 -15 25 -34 14 -31 14 -36 1 -47 -18 -15
-10 -23 -134 144 -101 134 -214 247 -303 300 -77 45 -220 99 -243 90 -8 -3
-21 0 -29 7 -12 10 -15 10 -15 0 0 -9 -3 -10 -14 -1 -7 6 -21 9 -30 5 -9 -3
-16 -1 -16 4 0 6 8 12 18 14 15 3 14 5 -3 9 -15 5 -24 0 -32 -17 -10 -23 -9
-24 22 -24 28 0 32 -3 28 -20 -3 -11 6 -36 23 -62 16 -24 35 -54 42 -68 7 -14
33 -47 57 -74 24 -27 42 -53 39 -58 -7 -12 -112 -10 -119 2 -3 6 -14 10 -23
10 -18 0 -98 74 -167 154 -48 56 -118 95 -157 87 l-27 -6 35 -57 c20 -32 40
-58 45 -58 5 0 9 -5 9 -10 0 -6 11 -21 23 -33 13 -12 28 -31 34 -41 11 -20
118 -48 243 -64 52 -7 53 -8 22 -15 -17 -3 -44 -2 -58 3 -14 6 -45 10 -69 10
-24 0 -46 4 -49 9 -3 5 -41 12 -83 15 -43 4 -93 12 -111 17 -24 8 -37 8 -47
-1 -12 -10 -20 -9 -39 3 -16 11 -55 18 -115 20 -50 2 -97 9 -104 16 -12 9 -43
16 -172 37 -56 9 -62 -6 -39 -85 17 -57 18 -71 7 -71 -7 0 -21 17 -29 38 -9
20 -23 53 -31 72 -19 44 -62 99 -139 175 -33 33 -63 65 -65 70 -6 17 -100 85
-117 85 -8 0 -25 11 -38 25 -13 14 -29 25 -35 25 -7 0 -10 3 -7 6 11 11 106
15 113 4 3 -5 25 -10 48 -11 23 0 36 -3 30 -6 -15 -5 -17 -39 -4 -47 5 -3 12
-18 16 -33 3 -15 11 -31 16 -34 9 -5 15 -24 18 -51 1 -5 9 -8 19 -8 9 0 23 -9
29 -19 8 -12 19 -17 31 -14 10 2 25 -1 33 -9 21 -19 70 -44 102 -52 20 -5 27
-3 27 9 0 9 -8 18 -17 22 -23 8 -73 54 -73 67 0 14 -88 96 -103 96 -8 0 -20
11 -27 25 -7 13 -20 26 -29 28 -46 13 116 5 189 -9 47 -9 100 -19 118 -21 30
-5 31 -6 15 -19 -17 -12 -17 -13 5 -14 12 0 22 6 22 13 0 9 16 13 59 12 32 -1
63 -5 69 -9 6 -3 32 -9 58 -13 40 -5 46 -4 42 9 -7 17 28 52 45 45 7 -2 21 -1
32 4 18 7 17 8 -7 8 -15 1 -30 6 -33 11 -3 6 -18 10 -32 10 -14 0 -55 6 -92
14 -180 39 -218 46 -248 46 -18 0 -65 7 -105 14 -140 28 -243 45 -308 52 -36
3 -78 13 -94 21 -22 11 -34 12 -52 4 -30 -13 -154 7 -133 22 2 2 31 10 64 19
64 18 116 18 400 -3z"/>
<path d="M18292 7985 c-7 -8 -11 -19 -7 -24 3 -5 -1 -12 -7 -14 -7 -3 1 -6 17
-7 17 0 37 -6 46 -13 10 -7 47 -11 100 -10 57 1 93 -4 112 -14 16 -8 34 -12
40 -9 7 2 4 5 -5 5 -22 1 -23 17 -2 25 23 9 12 29 -22 39 -33 10 -122 25 -204
32 -42 4 -58 2 -68 -10z"/>
<path d="M18030 7927 c0 -10 -6 -13 -20 -10 -18 5 -19 3 -9 -26 6 -17 15 -31
20 -31 5 0 9 -5 9 -10 0 -6 23 -39 51 -73 48 -57 57 -63 118 -79 36 -10 77
-17 91 -15 24 2 23 5 -27 55 -29 30 -53 57 -53 62 0 14 -101 110 -116 110 -8
0 -26 7 -39 16 -22 14 -25 14 -25 1z"/>
<path d="M9099 8131 c-43 -9 -116 -50 -164 -93 -30 -26 -40 -29 -70 -24 -19 4
-35 11 -35 16 0 6 -5 10 -12 10 -16 0 2 -18 33 -34 29 -14 34 -30 14 -49 -8
-9 -15 -20 -15 -26 0 -6 -4 -11 -9 -11 -5 0 -14 -12 -20 -27 -6 -16 -15 -35
-20 -43 -44 -74 -86 -230 -102 -380 -27 -256 -35 -319 -41 -326 -18 -18 -5
-123 28 -219 16 -48 19 -205 4 -205 -6 0 -13 7 -16 15 -4 8 -12 15 -19 15 -11
0 -26 11 -73 51 -7 6 -16 9 -18 6 -8 -8 31 -44 55 -52 12 -3 21 -11 21 -16 0
-5 6 -9 13 -9 27 0 46 -40 53 -112 4 -40 11 -75 15 -78 5 -3 10 -38 11 -77 2
-46 7 -69 14 -66 11 4 29 -56 19 -65 -3 -3 -5 2 -5 11 0 20 -16 22 -23 3 -8
-21 -54 -17 -60 5 -3 11 -11 19 -19 19 -10 0 -9 -3 2 -10 13 -9 13 -11 0 -20
-10 -6 -16 -6 -19 3 -6 17 -22 26 -38 20 -15 -6 -18 -33 -3 -33 6 0 10 8 10
17 0 9 3 14 6 10 3 -3 3 -15 -1 -27 -6 -20 -8 -20 -25 -5 -12 11 -27 15 -42
11 -13 -3 -17 -3 -10 0 16 8 15 21 -2 27 -7 3 -13 0 -13 -6 1 -32 -4 -48 -13
-42 -5 3 -10 16 -11 28 0 12 -3 16 -6 9 -4 -10 -8 -10 -21 0 -14 11 -15 10 -9
-6 6 -15 4 -17 -13 -13 -11 3 -27 -1 -35 -10 -13 -13 -15 -13 -15 1 0 9 -4 16
-10 16 -5 0 -10 -8 -10 -17 0 -16 -2 -16 -10 -3 -9 13 -12 13 -21 -2 -5 -10
-14 -18 -19 -18 -5 0 -11 8 -13 18 -4 13 -5 11 -6 -5 -1 -21 -21 -34 -21 -15
0 4 -9 8 -20 8 -11 0 -20 -6 -20 -13 0 -7 -4 -13 -9 -13 -5 0 -12 -8 -14 -17
-3 -11 -5 -7 -6 10 -1 33 -17 36 -25 3 -3 -13 -13 -27 -22 -30 -13 -5 -15 -2
-11 13 3 14 1 18 -9 14 -14 -5 -19 -22 -15 -57 1 -16 -1 -15 -19 5 -16 20 -19
21 -20 7 0 -10 -7 -18 -15 -18 -8 0 -15 -5 -15 -11 0 -8 -5 -8 -15 1 -11 9
-15 9 -15 1 0 -7 -5 -9 -11 -5 -16 10 10 24 30 16 14 -5 14 -3 3 11 -12 14
-16 15 -29 2 -20 -20 -41 -19 -46 3 -4 15 -5 15 -6 -2 -1 -11 -6 -16 -15 -13
-10 4 -13 1 -9 -9 6 -17 20 -18 26 -1 4 9 6 9 6 0 2 -21 -19 -25 -44 -9 -16
11 -25 12 -25 5 0 -8 -4 -8 -14 1 -8 6 -12 19 -9 28 6 14 5 15 -9 2 -13 -12
-13 -17 -1 -28 17 -18 18 -17 -19 -17 -23 0 -34 5 -36 18 -5 24 -22 21 -22 -5
0 -20 -1 -21 -20 -3 -13 11 -20 14 -20 6 0 -7 -6 -19 -14 -26 -12 -12 -15 -11
-21 8 -21 61 -23 64 -24 36 -1 -15 -8 -30 -17 -33 -10 -4 -14 -12 -10 -22 5
-14 4 -15 -8 -5 -9 7 -18 21 -21 32 -4 10 -11 19 -18 19 -8 0 -8 -3 1 -12 7
-7 12 -19 12 -27 0 -11 -5 -10 -21 5 -20 18 -21 18 -34 1 -10 -15 -14 -15 -24
-3 -9 11 -8 17 4 30 9 9 13 16 8 16 -17 -1 -52 -47 -49 -66 2 -10 1 -13 -1 -6
-6 16 -28 15 -45 -1 -14 -15 -29 -6 -41 23 -3 8 -6 2 -6 -14 -1 -28 -2 -28
-19 -13 -25 23 -29 22 -36 -14 -4 -20 -10 -28 -18 -23 -9 6 -9 9 0 12 12 4 17
32 6 32 -4 0 -13 -8 -20 -17 -11 -16 -15 -15 -49 20 -20 20 -39 37 -43 37 -3
0 1 -7 10 -16 15 -15 14 -19 -18 -52 l-35 -36 -30 34 c-25 27 -33 30 -40 19
-5 -8 -7 -22 -5 -32 4 -18 4 -18 -16 0 -18 15 -20 15 -15 2 4 -13 1 -16 -14
-12 -12 3 -18 11 -15 19 3 8 0 11 -10 7 -16 -6 -19 -33 -4 -33 6 0 10 -5 10
-11 0 -8 -5 -7 -16 2 -11 9 -14 22 -10 42 5 25 4 26 -9 13 -8 -8 -16 -30 -16
-48 -1 -21 -3 -26 -6 -13 -3 10 -12 29 -20 42 -8 12 -12 27 -8 32 3 6 0 8 -9
5 -12 -5 -12 -9 -1 -31 7 -14 11 -32 8 -41 -5 -13 -8 -12 -20 4 -7 10 -13 21
-13 25 0 4 -6 9 -13 12 -10 4 -13 -7 -13 -44 1 -40 -1 -46 -12 -35 -7 7 -14
27 -14 44 -1 27 -3 29 -16 16 -11 -12 -17 -12 -29 -3 -11 10 -11 14 -1 21 10
7 10 9 -2 5 -19 -5 -23 -56 -5 -63 7 -3 16 -13 20 -22 5 -13 2 -13 -15 3 -14
12 -20 14 -20 5 0 -10 -5 -9 -18 3 -23 21 -29 21 -35 0 -3 -11 -5 -7 -6 10 0
15 -5 27 -11 27 -5 0 -10 -12 -10 -27 0 -41 -13 -58 -29 -39 -7 9 -11 21 -8
28 4 8 6 7 6 -4 1 -22 21 -24 21 -3 0 8 -4 15 -10 15 -14 0 -12 27 3 33 9 4 9
6 -1 6 -8 1 -16 -8 -19 -19 -3 -11 -9 -20 -14 -20 -15 0 -10 -48 6 -54 8 -3
15 -10 15 -16 0 -5 -9 -2 -20 7 -11 10 -20 29 -20 43 0 14 -4 30 -9 36 -5 5
-11 18 -14 29 -3 11 -3 -14 -2 -55 2 -41 1 -62 -2 -45 -2 16 -12 38 -20 50
-15 19 -15 19 -9 -8 5 -23 1 -34 -18 -54 -14 -14 -29 -22 -35 -19 -5 4 -11 -2
-14 -11 -3 -15 -6 -13 -17 10 -7 15 -17 27 -22 27 -4 0 -8 7 -8 15 0 8 5 15
10 15 6 0 10 -6 10 -12 0 -7 4 -19 9 -27 7 -11 13 -9 31 9 16 16 19 24 10 30
-7 4 -8 9 -2 11 5 2 13 15 17 29 7 23 7 23 -9 7 -10 -9 -18 -29 -19 -44 -3
-30 -26 -44 -28 -16 -1 10 -2 23 -4 28 -1 6 -3 18 -3 28 -1 9 -6 17 -12 17
-14 0 -12 -27 3 -33 8 -3 6 -9 -7 -19 -15 -12 -17 -22 -12 -51 5 -28 3 -38
-11 -47 -13 -8 -14 -13 -5 -16 6 -3 12 -13 12 -22 -1 -16 -2 -16 -13 0 -9 11
-18 14 -28 7 -12 -8 -12 -10 1 -19 9 -6 10 -10 3 -10 -22 0 -25 22 -5 40 13
12 18 27 15 40 -8 29 -20 25 -27 -11 -5 -27 -8 -30 -21 -19 -13 11 -14 5 -11
-46 2 -32 9 -60 15 -62 14 -5 15 -32 1 -32 -5 0 -10 -6 -10 -14 0 -8 10 -13
25 -13 20 0 23 2 14 13 -8 9 -8 14 -1 14 6 0 13 -8 16 -18 4 -11 17 -29 30
-41 19 -18 25 -19 29 -8 3 9 -1 14 -11 13 -11 -1 -18 8 -21 24 -1 14 -8 29
-15 33 -7 6 -6 7 4 4 8 -2 16 -16 18 -30 4 -31 18 -36 25 -9 4 16 5 16 6 0 2
-27 20 -22 27 7 3 14 10 25 15 25 12 0 12 -27 0 -32 -5 -1 -11 -14 -14 -28 -2
-14 -2 -19 0 -12 10 29 28 9 24 -27 -2 -11 0 -11 12 0 10 9 12 18 6 25 -6 8
-5 14 4 17 9 3 20 -5 28 -19 11 -21 11 -27 -1 -35 -13 -9 -13 -10 0 -6 8 2 16
18 18 35 4 44 19 40 27 -8 7 -41 25 -56 25 -20 0 11 -4 20 -10 20 -5 0 -10 7
-10 15 0 8 5 15 10 15 6 0 10 -6 10 -14 0 -7 6 -19 14 -25 11 -10 15 -8 19 6
4 15 5 14 6 -4 0 -12 7 -24 14 -26 9 -4 8 -8 -3 -16 -8 -6 -10 -11 -5 -11 6 0
18 9 28 20 19 22 43 18 50 -11 3 -10 11 -19 19 -18 10 0 10 2 1 6 -15 5 -18
33 -4 33 5 0 12 8 14 18 4 16 5 16 6 -1 0 -10 7 -17 14 -16 26 3 37 -2 37 -16
0 -21 -18 -19 -23 3 -2 9 -4 3 -3 -15 l1 -32 25 22 c14 12 26 25 28 29 5 11
72 -53 72 -69 0 -7 5 -13 10 -13 6 0 10 7 10 15 0 8 -5 15 -12 15 -6 0 -3 9 7
20 10 11 23 20 29 19 6 0 6 -3 -1 -6 -7 -2 -13 -12 -13 -20 0 -8 6 -13 13 -10
18 7 41 -29 24 -36 -7 -3 -8 -6 -1 -6 6 -1 19 8 29 19 15 16 15 22 5 35 -19
23 -3 18 22 -7 15 -15 22 -33 21 -56 -1 -33 -1 -34 11 -11 7 13 8 26 4 27 -13
6 -9 29 6 35 8 3 13 -1 12 -10 -2 -23 21 -28 27 -6 4 15 5 14 6 -3 0 -12 7
-27 15 -33 12 -10 13 -8 9 8 -6 25 0 27 21 5 9 -8 16 -11 16 -5 0 6 7 11 15
11 8 0 15 -7 15 -16 0 -9 6 -14 13 -11 7 3 19 -4 26 -15 11 -18 14 -19 30 -4
19 17 33 10 44 -24 2 -8 3 -2 1 13 -3 25 -2 27 11 13 9 -8 22 -13 30 -10 10 4
15 0 16 -12 0 -11 3 -14 6 -6 9 22 23 13 24 -15 1 -16 3 -21 6 -12 2 10 14 17
28 17 24 0 30 -12 25 -48 -1 -9 9 -3 25 14 27 29 35 28 48 -9 3 -5 8 -7 12 -3
4 4 2 14 -5 23 -7 8 -8 15 -2 15 5 0 13 -7 16 -16 4 -9 13 -14 21 -10 8 3 15
1 15 -5 0 -5 11 -7 24 -3 16 4 25 1 30 -11 4 -12 12 -14 28 -9 13 4 25 10 28
14 3 4 12 1 20 -8 13 -14 12 -15 -5 -8 -18 7 -18 6 0 -14 22 -24 23 -24 21 -4
0 9 5 19 12 21 6 3 12 -4 13 -14 0 -10 3 -13 6 -5 2 6 9 12 14 12 12 0 11 -27
-1 -33 -6 -3 -5 -4 2 -3 7 1 14 12 16 24 4 25 22 30 22 7 0 -9 7 -18 15 -21
18 -7 20 -30 3 -37 -10 -4 -10 -6 0 -6 7 -1 16 7 19 17 9 24 26 33 35 19 5 -9
10 -9 20 1 6 6 16 12 20 12 13 0 9 -28 -4 -33 -10 -4 -10 -6 0 -6 7 -1 15 6
18 14 4 8 10 15 15 15 5 0 9 -7 9 -15 0 -8 -5 -15 -12 -15 -6 0 -8 -3 -5 -7 4
-3 18 4 32 17 14 13 25 18 25 11 0 -7 7 -19 15 -27 13 -14 15 -14 15 0 0 9 5
16 10 16 6 0 10 -7 10 -16 0 -14 1 -14 16 0 21 21 26 20 22 -6 -2 -11 3 -22
10 -24 7 -1 8 0 2 3 -8 3 -7 9 1 19 10 13 14 12 30 -2 18 -16 19 -16 19 -1 0
29 20 19 21 -10 1 -17 3 -21 6 -10 2 9 8 17 12 17 10 0 37 -31 44 -50 5 -13 6
-12 6 1 1 9 8 22 16 29 12 10 15 10 15 -4 0 -9 5 -16 10 -16 6 0 10 7 10 16 0
24 27 -1 33 -29 3 -15 5 -12 6 11 1 31 21 47 21 17 0 -8 6 -12 14 -9 8 3 16
-2 19 -13 4 -16 5 -16 6 0 0 9 6 17 11 17 6 0 14 -8 17 -17 4 -10 13 -24 20
-32 12 -11 13 -9 7 15 -7 28 -6 29 13 11 11 -9 22 -14 26 -11 9 10 47 -6 47
-20 0 -8 7 -19 15 -26 10 -9 15 -9 15 -1 0 6 -4 11 -10 11 -15 0 -12 27 4 33
8 3 17 -1 20 -10 6 -14 8 -14 21 3 13 18 15 18 49 -15 l35 -34 7 27 c6 27 24
36 24 12 0 -7 7 -19 15 -26 9 -8 15 -8 15 -2 0 6 -6 13 -12 15 -10 4 -10 6 0
6 8 1 16 -8 19 -19 7 -26 21 -25 25 2 3 21 5 20 36 -11 33 -33 46 -33 15 1 -9
10 -11 18 -5 18 6 0 12 -5 14 -11 2 -6 16 -11 31 -11 21 0 27 -6 28 -22 1 -15
2 -17 6 -4 6 23 30 30 38 10 5 -14 7 -14 15 -2 8 12 10 11 10 -7 0 -12 5 -25
10 -28 6 -3 10 0 10 8 0 8 7 20 15 27 12 10 15 10 15 -3 0 -10 6 -14 14 -11 8
3 16 -2 19 -13 5 -17 5 -17 6 0 0 10 7 17 14 14 6 -2 11 -12 11 -21 -2 -23 17
-20 23 4 7 27 14 25 45 -10 22 -25 28 -28 38 -15 7 8 18 15 25 15 8 0 15 3 18
8 2 4 3 2 2 -3 -2 -6 5 -17 13 -25 14 -13 15 -12 10 2 -5 12 -2 15 13 11 13
-4 18 -11 15 -22 -4 -9 2 -6 14 8 15 18 20 19 20 7 0 -17 3 -18 58 -19 28 -1
33 -4 28 -22 -5 -19 -4 -19 14 3 17 20 20 21 34 6 15 -14 16 -14 16 0 0 23 21
20 27 -4 6 -24 21 -26 29 -5 8 21 21 19 27 -5 3 -11 11 -20 19 -20 10 0 9 3
-2 10 -13 8 -12 10 3 10 9 0 17 5 17 10 0 6 5 10 11 10 8 0 7 -6 -2 -17 -12
-15 -12 -16 4 -10 9 3 17 2 17 -3 0 -5 14 -8 30 -6 20 2 30 -1 30 -10 0 -8 5
-14 10 -14 6 0 10 7 10 17 0 14 2 14 20 -2 18 -16 20 -16 20 -2 0 10 5 17 10
17 10 0 14 -13 11 -40 -1 -10 1 -11 6 -4 4 6 18 14 31 18 17 6 22 3 23 -11 0
-10 3 -13 6 -5 7 17 21 15 26 -5 4 -14 5 -12 6 5 1 26 21 30 22 5 0 -11 3 -13
6 -5 6 16 23 15 23 -2 0 -9 7 -12 20 -9 11 3 20 9 20 14 0 5 5 9 11 9 8 0 7
-5 -1 -15 -16 -19 -5 -34 12 -17 17 17 28 15 28 -5 0 -12 3 -14 8 -6 9 15 62
11 62 -4 0 -7 5 -13 10 -13 6 0 10 7 10 17 0 15 1 15 18 0 10 -10 22 -14 25
-11 4 4 13 2 21 -5 9 -8 21 -8 38 -2 25 10 59 -1 40 -13 -6 -3 -13 0 -15 6 -4
9 -6 10 -6 1 -2 -22 22 -26 36 -7 11 15 16 16 22 6 4 -7 19 -14 32 -14 13 -1
29 -5 35 -10 7 -5 23 -4 38 2 16 6 26 6 26 0 0 -5 14 -8 30 -6 20 2 30 -1 30
-10 0 -19 19 -18 26 1 8 19 24 20 24 1 0 -9 10 -12 30 -10 22 3 30 -1 30 -12
0 -13 3 -13 18 2 16 17 17 17 20 -4 4 -24 22 -31 22 -9 0 17 33 15 54 -2 14
-11 16 -11 16 3 0 9 5 16 10 16 6 0 10 -7 10 -15 0 -8 6 -12 14 -9 8 3 16 -2
19 -13 4 -14 5 -15 6 -2 1 11 10 17 26 17 16 0 25 -6 25 -17 0 -14 2 -14 10
-1 9 13 11 13 20 0 6 -10 10 -11 10 -2 0 6 5 12 10 12 6 0 10 -7 10 -17 0 -14
2 -14 20 2 18 16 20 16 20 2 0 -12 7 -16 30 -13 16 2 31 -2 33 -8 3 -8 8 -7
18 1 18 18 29 16 30 -4 0 -11 3 -13 6 -5 7 17 33 15 33 -3 0 -20 17 -19 29 3
9 16 11 16 25 -3 15 -19 17 -19 30 -2 7 9 17 17 21 17 4 0 3 -6 -3 -12 -7 -9
-5 -17 6 -28 14 -13 15 -13 10 1 -9 22 39 16 56 -7 13 -17 36 -12 36 8 0 7 -6
6 -15 -2 -9 -7 -15 -8 -15 -2 0 18 29 22 45 6 8 -9 15 -11 15 -5 0 6 5 11 10
11 6 0 10 -6 10 -14 0 -9 9 -12 27 -10 15 1 33 -2 39 -7 7 -6 21 -6 36 0 27
10 42 4 51 -19 4 -12 6 -11 6 3 1 18 17 24 23 7 2 -6 14 -11 28 -12 14 -1 31
-6 38 -11 9 -7 17 -6 25 2 9 10 8 11 -8 5 -17 -7 -18 -6 -5 8 13 13 16 13 34
-4 23 -21 32 -23 39 -5 3 6 6 2 6 -10 1 -24 21 -33 21 -10 0 7 9 13 20 13 11
0 20 -6 20 -12 0 -8 14 -11 40 -8 31 3 40 0 40 -12 0 -14 2 -14 16 1 15 15 18
14 31 -5 14 -20 16 -20 33 -5 14 13 19 13 29 2 6 -8 24 -13 40 -11 22 3 31 -1
34 -14 4 -16 5 -16 6 1 1 23 22 22 28 -3 6 -24 23 -27 23 -4 0 8 5 12 10 9 6
-4 18 -1 26 6 8 6 17 9 21 5 3 -3 1 -6 -5 -6 -7 0 -12 -7 -12 -15 0 -8 5 -15
10 -15 6 0 13 7 16 15 10 24 24 17 25 -12 1 -18 3 -22 6 -10 7 27 28 14 26
-17 -1 -21 1 -24 11 -14 7 7 15 21 19 31 7 20 29 19 33 -1 1 -7 0 -8 -3 -2 -2
5 -9 10 -15 10 -7 0 -6 -5 2 -14 6 -8 17 -12 25 -10 7 3 15 -3 18 -13 4 -16 5
-16 6 0 1 22 14 22 35 -2 10 -11 24 -17 32 -14 9 3 14 -2 15 -13 0 -14 2 -15
6 -4 13 32 27 37 47 19 11 -11 16 -22 13 -26 -4 -3 -7 -2 -7 4 0 6 -8 14 -17
17 -15 6 -14 4 2 -14 l18 -20 23 21 c23 21 44 19 44 -6 0 -29 41 -26 53 5 3 8
6 0 6 -17 1 -34 21 -48 21 -15 1 14 4 13 22 -8 l21 -25 -5 27 c-4 19 -1 25 9
21 7 -3 13 -11 13 -19 0 -7 6 -11 14 -8 9 3 16 -2 19 -13 2 -10 3 -5 2 11 l-2
30 18 -23 c15 -18 20 -19 30 -8 11 11 16 11 31 -2 10 -8 18 -26 18 -38 0 -13
5 -23 10 -23 6 0 10 6 10 14 0 21 21 31 32 15 7 -10 8 -8 5 9 -5 19 -3 21 9
11 8 -6 15 -21 15 -33 1 -17 2 -17 6 -3 6 23 24 22 30 -3 7 -27 23 -25 24 3 1
15 3 17 6 5 8 -31 42 -30 57 2 3 8 4 0 1 -18 l-5 -32 22 20 c25 23 34 25 43 9
4 -6 13 -8 21 -5 8 3 14 -1 14 -8 0 -30 41 -27 53 4 4 10 6 9 6 -6 1 -32 23
-46 41 -26 13 14 12 15 -5 8 -16 -6 -17 -5 -8 5 10 10 18 8 39 -12 24 -22 26
-22 22 -4 -2 13 3 20 12 20 9 0 15 -9 14 -21 0 -25 22 -22 29 4 4 16 5 16 6 1
2 -32 40 -31 55 1 3 8 4 0 1 -18 l-5 -32 22 20 c25 23 34 25 43 9 4 -6 14 -8
22 -5 11 5 14 1 10 -13 -6 -23 18 -18 27 5 8 21 24 17 28 -8 l3 -23 23 25 22
24 22 -24 c13 -14 23 -19 26 -12 6 20 22 13 23 -10 1 -19 2 -19 6 -5 3 11 11
16 19 13 7 -3 21 3 31 12 14 14 16 15 11 1 -3 -9 -2 -22 3 -30 8 -12 11 -11
20 4 14 23 27 21 31 -5 3 -21 4 -21 21 -4 15 15 17 15 17 2 0 -19 11 -21 28
-4 9 9 15 9 24 0 17 -17 28 -15 28 6 0 10 3 13 8 7 4 -6 20 -19 36 -29 28 -18
29 -18 23 0 -6 15 -3 14 13 -5 16 -19 20 -20 20 -6 0 9 8 24 17 33 16 16 16
16 10 0 -10 -27 18 -49 48 -38 14 5 35 6 48 1 12 -4 27 -6 34 -4 6 2 13 -4 16
-14 4 -15 5 -15 6 -2 1 20 51 23 51 3 0 -24 19 -25 49 -3 30 22 51 19 51 -7 0
-17 12 -18 28 -2 10 10 15 10 22 -2 8 -12 10 -10 10 8 0 32 17 27 25 -8 4 -16
11 -30 16 -30 14 0 11 28 -3 33 -10 4 -10 6 -1 6 6 1 15 -3 18 -9 10 -15 25
-12 25 6 0 13 2 13 13 2 8 -7 16 -20 20 -28 4 -12 6 -12 6 1 1 22 51 23 51 1
0 -12 4 -12 22 4 21 19 21 19 16 -3 -7 -28 -4 -29 21 -2 20 22 41 19 41 -7 0
-21 17 -17 23 6 3 11 10 20 17 20 7 0 14 -9 17 -20 6 -24 23 -27 23 -5 0 13 2
14 14 3 10 -9 11 -17 4 -25 -7 -9 -7 -13 1 -13 11 0 14 9 13 45 -1 18 0 18 5
2 4 -14 11 -17 30 -12 19 4 26 1 30 -15 7 -26 19 -26 26 0 7 26 27 26 34 0 6
-24 23 -27 23 -4 0 14 3 14 15 4 13 -11 13 -15 3 -21 -11 -7 -10 -9 0 -9 8 0
16 9 19 20 6 24 23 27 23 4 0 -8 5 -12 11 -8 6 3 15 0 20 -7 6 -10 9 -8 9 9 0
12 5 22 10 22 6 0 10 -7 10 -15 0 -9 6 -12 15 -9 9 4 15 0 15 -7 0 -11 2 -11
10 1 7 12 12 12 22 2 17 -17 26 -15 31 6 3 10 5 6 6 -10 1 -29 21 -40 21 -13
0 8 7 15 15 15 8 0 15 5 15 11 0 6 7 3 16 -5 11 -12 20 -13 34 -6 15 8 17 6
13 -10 -3 -11 -10 -20 -16 -20 -6 0 -7 -3 -4 -7 4 -3 18 4 32 17 21 19 25 21
25 7 0 -22 9 -22 26 1 13 16 15 16 29 -2 15 -20 15 -20 29 0 8 10 18 16 22 11
4 -4 2 -7 -4 -7 -18 0 -14 -26 5 -41 15 -12 16 -12 10 3 -8 22 12 36 24 17 6
-10 9 -11 9 -1 0 19 18 14 25 -8 8 -26 22 -26 30 0 8 25 22 26 30 1 3 -11 13
-22 21 -25 8 -3 13 -2 9 3 -7 12 4 41 16 41 5 0 9 -9 9 -21 0 -11 4 -17 10
-14 6 4 17 1 25 -5 12 -10 18 -10 30 0 13 11 20 9 42 -11 19 -18 25 -20 20 -7
-7 20 12 36 22 20 4 -7 12 -8 21 -1 13 8 13 10 0 19 -10 7 -11 10 -2 10 7 0
17 -11 22 -24 5 -13 14 -27 21 -32 9 -5 10 -2 6 9 -4 11 -2 14 9 10 9 -3 14 1
15 13 0 17 1 16 9 -2 5 -12 14 -25 21 -30 9 -5 10 -2 6 9 -4 12 -2 14 10 10 8
-3 19 0 23 8 5 7 13 10 17 5 4 -5 2 -11 -4 -13 -17 -6 -16 -20 1 -26 8 -3 13
1 12 10 0 9 5 18 12 20 6 3 12 -1 12 -9 0 -8 9 -14 20 -14 12 0 19 5 16 12 -3
7 3 10 15 7 12 -3 18 -11 15 -19 -3 -8 0 -11 10 -7 7 3 14 10 14 16 0 5 11 -2
25 -17 13 -14 27 -26 31 -26 4 0 -1 9 -10 19 -10 11 -16 26 -13 33 3 8 6 6 6
-6 1 -14 6 -17 25 -12 14 3 28 2 31 -4 3 -6 17 -7 30 -4 17 4 24 1 28 -13 4
-17 5 -17 6 1 1 12 6 16 16 12 8 -3 20 1 27 8 10 11 18 8 41 -15 33 -34 35
-34 33 -13 0 9 5 19 12 21 6 3 12 -3 12 -13 0 -16 1 -16 20 1 18 16 20 16 20
2 0 -24 17 -21 25 3 6 19 25 28 25 12 0 -4 10 -13 21 -21 20 -12 21 -11 15 5
-6 15 -2 14 18 -5 26 -24 52 -20 41 7 -4 11 2 9 19 -7 25 -23 46 -21 46 5 0
26 18 14 25 -16 4 -17 11 -30 16 -30 14 0 11 28 -3 33 -7 3 -2 5 12 4 14 -1
28 -6 32 -12 4 -5 8 0 8 13 0 27 16 29 23 2 6 -24 27 -27 27 -4 0 13 7 10 26
-11 26 -28 34 -26 47 10 2 6 11 4 20 -4 14 -11 20 -11 32 -1 12 10 19 10 27 2
17 -17 28 -15 29 6 0 13 2 13 9 -4 5 -12 14 -25 21 -30 9 -5 10 -2 6 9 -4 11
-2 14 9 10 9 -3 14 1 14 12 0 14 2 14 13 3 8 -7 16 -20 20 -28 4 -11 6 -10 6
4 1 11 6 16 15 13 8 -3 17 -1 20 6 4 12 18 -1 30 -28 4 -9 20 6 30 30 6 14 27
-17 21 -32 -2 -7 2 -10 11 -6 17 6 18 20 2 26 -7 3 0 4 15 3 15 0 32 -8 38
-16 8 -13 11 -13 20 3 13 22 26 22 32 0 4 -17 5 -17 6 0 1 21 10 22 39 1 12
-8 22 -11 22 -5 0 5 -8 15 -17 20 -10 6 -13 11 -6 11 6 0 15 -5 18 -11 4 -6
13 -8 21 -5 8 3 14 -1 14 -9 0 -8 5 -15 10 -15 6 0 10 6 10 14 0 9 7 12 20 9
17 -4 19 -2 13 13 -6 18 -6 18 10 2 10 -9 24 -15 32 -12 10 4 15 0 16 -12 0
-14 2 -15 6 -4 4 8 13 21 22 30 13 13 14 13 9 -1 -4 -9 2 -20 14 -28 17 -11
20 -11 16 1 -4 9 1 14 13 14 11 0 19 -6 19 -13 0 -20 17 -15 23 7 3 11 10 20
17 20 7 0 14 -9 17 -20 6 -24 19 -26 27 -5 8 21 23 19 29 -5 3 -11 11 -20 19
-19 10 0 10 2 1 6 -16 6 -17 33 -3 33 6 0 13 -7 16 -15 8 -19 24 -20 24 -1 0
22 19 30 36 15 8 -6 17 -9 21 -5 3 3 15 -1 25 -11 17 -15 18 -15 18 0 0 21 19
22 26 2 8 -20 24 -19 24 2 0 14 3 14 22 -3 18 -16 20 -16 15 -3 -4 13 -1 16
13 12 9 -3 24 2 31 10 12 13 17 12 36 -9 26 -28 33 -30 33 -7 0 14 3 14 22 -3
16 -14 20 -15 16 -4 -4 12 2 15 28 15 18 -1 41 -8 50 -16 16 -12 17 -12 12 2
-7 17 17 20 41 5 11 -7 11 -10 0 -17 -12 -7 -12 -9 -1 -9 8 0 16 9 19 20 6 24
21 26 29 5 8 -20 24 -19 24 2 0 14 2 14 20 -2 19 -17 20 -17 20 -1 0 10 6 16
13 13 6 -2 20 0 31 5 10 6 16 6 13 1 -3 -5 4 -15 15 -22 17 -11 20 -11 16 1
-4 8 2 13 17 13 17 0 21 -5 17 -19 -5 -18 -3 -17 16 2 12 12 28 22 35 22 9 0
8 -3 -2 -9 -8 -5 -9 -11 -3 -15 5 -3 12 1 16 9 7 20 26 19 26 -2 0 -14 2 -14
20 2 18 16 20 16 20 2 0 -24 17 -21 23 3 3 11 11 20 19 20 9 0 10 -3 2 -8 -9
-5 -8 -11 2 -20 12 -10 14 -10 14 3 0 19 19 20 26 1 10 -25 32 -27 26 -3 -5
22 -5 22 16 3 18 -16 22 -16 22 -4 0 10 9 16 25 16 16 0 25 -6 25 -16 0 -13 3
-12 20 3 18 16 20 16 20 2 0 -10 5 -17 10 -17 6 0 10 7 10 17 0 14 2 14 20 -2
17 -15 20 -16 20 -3 0 10 9 16 25 16 15 0 25 -6 25 -15 0 -19 19 -6 30 21 8
18 9 19 9 2 1 -12 6 -16 15 -13 11 4 13 1 9 -11 -6 -15 -3 -14 15 2 19 17 22
17 22 3 0 -20 16 -22 23 -3 8 19 55 17 60 -3 3 -10 5 -8 6 7 1 20 21 33 21 13
0 -12 54 -4 58 8 2 7 9 6 17 -3 8 -8 28 -12 47 -10 23 3 29 1 18 -6 -8 -5 -11
-12 -7 -17 8 -7 22 8 30 32 2 6 11 4 20 -4 14 -11 20 -11 32 -1 10 8 19 9 28
3 16 -13 48 -13 65 0 7 6 17 6 25 0 20 -15 57 -13 57 3 0 12 2 12 14 2 10 -9
11 -17 4 -25 -7 -9 -7 -13 0 -13 5 0 12 6 15 13 8 21 85 18 90 -2 3 -10 5 -8
6 7 1 24 11 28 29 10 8 -8 15 -8 27 2 12 10 19 10 27 2 16 -16 28 -15 28 3 0
13 2 14 14 3 10 -9 11 -17 4 -25 -20 -24 3 -13 27 13 19 21 25 23 25 10 0 -18
11 -21 26 -6 7 7 19 8 37 1 18 -7 27 -7 30 2 3 9 7 9 19 -1 16 -13 47 -7 60
12 5 7 8 4 8 -6 0 -10 5 -18 10 -18 6 0 10 7 10 16 0 14 2 14 16 -1 12 -11 19
-13 24 -5 5 7 15 8 33 1 22 -9 30 -7 46 10 19 21 42 19 40 -4 0 -9 -2 -9 -6 1
-5 14 -23 16 -23 3 0 -16 29 -20 44 -6 11 11 16 12 19 2 4 -9 8 -8 16 3 7 10
11 11 11 3 0 -19 18 -16 23 5 4 13 5 11 6 -5 1 -27 21 -31 22 -5 0 10 3 12 6
5 7 -19 23 -16 23 4 0 15 1 15 18 0 17 -15 19 -15 36 1 16 16 17 16 10 -3 -7
-18 -6 -19 10 -6 22 19 86 21 86 4 0 -7 5 -13 10 -13 6 0 10 6 10 13 0 8 16
12 48 12 26 0 50 4 54 9 4 6 13 4 22 -3 12 -10 19 -11 30 -2 8 7 22 8 37 3 36
-12 100 -7 110 9 7 11 9 10 9 -3 0 -10 5 -18 10 -18 6 0 10 8 10 18 0 14 2 15
10 2 9 -13 11 -13 19 -1 8 12 12 12 24 2 9 -7 27 -9 44 -6 21 5 24 4 13 -4 -9
-7 -10 -11 -3 -11 6 0 14 4 18 9 3 6 18 9 33 7 15 -1 33 2 40 8 10 7 16 5 23
-5 8 -12 10 -12 18 0 8 12 12 12 24 2 9 -7 18 -8 21 -3 3 6 23 12 45 14 31 3
37 0 33 -12 -5 -13 -4 -13 12 0 15 12 77 21 144 20 6 0 18 0 25 0 36 -1 95 8
106 15 8 4 17 2 22 -6 7 -11 11 -12 17 -1 8 11 134 23 255 23 9 0 17 6 17 12
0 7 4 6 10 -3 9 -13 11 -13 19 -1 7 11 13 12 23 3 11 -9 17 -9 26 0 10 10 100
19 192 20 14 0 28 5 32 11 5 8 11 7 21 -2 9 -7 18 -8 21 -3 10 16 56 21 56 6
0 -18 16 -18 23 0 4 9 22 14 54 14 90 2 146 10 154 24 7 10 9 9 9 -4 0 -20 16
-25 22 -7 2 6 40 13 88 15 46 2 87 9 91 15 4 8 8 7 12 -2 5 -12 7 -12 15 0 8
11 10 11 15 0 4 -11 8 -11 14 -2 8 11 90 22 203 27 25 1 51 5 57 9 7 4 51 10
99 12 49 3 91 10 95 16 4 8 8 7 12 -2 4 -10 8 -11 14 -3 4 6 16 13 25 17 13 4
15 2 11 -11 -6 -15 -4 -15 9 -4 9 7 33 14 52 15 20 1 36 5 36 10 0 4 11 5 25
1 17 -4 25 -2 25 7 0 11 3 11 10 -1 8 -12 11 -13 19 -1 7 11 9 11 14 0 4 -11
7 -12 15 -1 8 11 77 23 137 23 10 0 25 5 33 11 10 9 16 8 23 -3 7 -11 11 -11
17 -1 5 7 35 15 68 18 81 8 86 9 109 20 11 6 39 10 63 10 23 -1 42 2 42 6 0 5
11 6 25 2 14 -3 25 -2 25 4 0 5 9 12 19 15 14 3 18 1 14 -10 -5 -13 -2 -13 20
2 15 9 34 14 46 10 10 -3 22 -1 26 4 3 6 19 9 35 7 17 -2 34 2 40 9 6 7 22 11
37 9 15 -1 32 1 38 6 6 5 23 7 38 6 16 -2 27 2 27 9 0 8 17 11 53 10 39 -1 57
3 75 18 19 18 22 18 22 4 0 -22 16 -22 29 1 9 15 12 15 21 2 8 -13 10 -13 10
1 0 12 10 16 45 14 27 0 50 4 57 12 5 7 14 10 20 7 5 -3 15 0 23 6 8 6 19 9
25 5 5 -3 10 1 10 9 0 9 5 16 10 16 6 0 10 -7 10 -16 0 -13 3 -14 15 -4 8 7
12 16 9 21 -7 12 29 -2 39 -15 5 -6 6 2 3 19 -4 17 -3 25 1 19 4 -6 18 -15 31
-19 19 -5 25 -3 29 15 3 11 11 19 18 16 8 -3 11 2 8 15 -6 23 0 24 20 5 13
-13 15 -12 15 11 -1 15 -3 20 -8 13 -5 -9 -9 -9 -14 -1 -4 6 -2 11 3 11 15 0
14 27 -1 33 -10 4 -10 6 0 6 8 1 16 -8 19 -19 3 -11 9 -20 13 -20 5 0 11 -8
13 -17 3 -10 5 -3 6 15 0 17 6 32 12 32 8 0 8 5 -1 15 -7 9 -8 15 -2 15 14 0
18 -18 17 -66 -1 -34 1 -39 12 -29 16 17 17 35 1 35 -6 0 -4 7 5 18 21 23 21
36 2 52 -9 7 -13 15 -11 17 6 6 46 -35 46 -47 0 -6 -4 -10 -10 -10 -15 0 -12
-19 4 -36 13 -12 15 -11 14 8 -3 49 2 88 12 88 6 0 11 -21 12 -47 1 -41 2 -43
5 -13 3 19 10 39 16 43 9 6 9 10 0 14 -7 2 -13 13 -13 23 0 10 6 21 13 23 9 4
8 8 -3 17 -13 10 -13 11 0 7 8 -2 14 -13 13 -23 -4 -28 6 -64 17 -64 6 0 10
10 10 23 0 13 14 34 32 51 26 22 29 29 17 38 -12 8 -12 9 1 5 8 -2 16 -10 16
-18 1 -8 2 -20 3 -26 0 -7 6 -13 11 -13 16 0 11 52 -7 72 -16 18 -16 18 0 12
33 -12 36 -90 3 -88 -16 2 -16 0 -2 -15 20 -22 20 -37 1 -45 -8 -3 -15 -10
-15 -16 0 -6 10 -2 21 9 14 13 19 26 15 37 -4 9 0 24 7 33 22 25 27 60 11 75
-16 17 -19 46 -4 46 6 0 10 -9 10 -20 0 -13 5 -18 15 -14 20 8 19 23 -2 46
-16 18 -16 18 0 12 10 -3 20 -17 23 -30 3 -13 10 -24 15 -24 12 0 11 27 -1 35
-13 8 -13 72 -1 77 5 2 3 12 -5 22 -14 19 -14 19 -14 1 0 -16 -2 -17 -12 -6
-10 11 -10 14 0 18 6 3 12 9 12 15 0 9 -37 58 -76 100 -14 15 -14 19 6 46 22
30 20 52 -3 52 -7 0 -6 -4 3 -11 11 -8 12 -12 3 -16 -7 -2 -13 -11 -13 -19 0
-8 -7 -17 -15 -20 -12 -5 -13 -10 -4 -20 7 -9 8 -14 1 -14 -6 0 -13 -13 -17
-30 -7 -31 -25 -42 -25 -15 0 8 5 15 10 15 14 0 13 33 -2 48 -9 9 -9 12 0 12
7 0 12 7 12 15 0 8 -4 15 -10 15 -10 0 -12 -8 -14 -59 -1 -13 -8 -26 -16 -28
-13 -4 -13 -3 0 6 13 9 13 14 -3 41 -10 16 -15 34 -12 40 3 5 0 7 -9 4 -12 -5
-12 -9 0 -32 19 -37 1 -53 -28 -24 -12 12 -17 22 -11 22 6 0 13 -7 17 -15 3
-8 11 -15 17 -15 7 0 5 8 -6 20 -10 12 -25 18 -32 16 -8 -3 -13 2 -13 14 0 27
-18 25 -22 -2 -4 -30 -26 -34 -31 -6 -3 17 -5 15 -6 -9 0 -18 -5 -33 -11 -33
-10 0 -14 24 -12 70 1 15 -1 19 -5 10 -3 -8 -11 -19 -17 -23 -8 -6 -8 -10 1
-13 10 -4 10 -8 1 -18 -7 -8 -16 -9 -23 -4 -5 5 -19 15 -30 22 -16 12 -17 16
-6 29 11 13 10 20 -4 39 l-17 23 7 -32 c5 -24 2 -34 -12 -42 -16 -9 -16 -12
-3 -21 8 -5 11 -10 5 -10 -16 0 -57 49 -50 60 12 19 -4 10 -35 -21 l-31 -32 7
29 c4 16 11 35 17 42 6 8 6 12 -1 12 -6 0 -14 -9 -17 -21 -4 -13 -12 -18 -22
-15 -11 5 -13 2 -9 -10 5 -14 4 -15 -8 -5 -9 7 -18 21 -21 32 -4 10 -11 19
-17 19 -7 0 -7 -4 -1 -12 6 -7 13 -26 17 -42 6 -24 5 -26 -7 -15 -7 8 -16 22
-20 32 -3 9 -12 17 -19 17 -9 0 -9 -3 2 -11 13 -9 13 -10 0 -6 -8 2 -16 13
-18 25 -4 27 -22 29 -22 3 0 -23 -22 -40 -28 -23 -2 7 -10 18 -17 26 -10 10
-11 16 -2 25 8 8 8 11 -1 11 -7 0 -13 -6 -13 -12 -1 -7 -2 -19 -3 -27 -2 -22
-24 -25 -29 -4 -4 17 -5 17 -6 1 -2 -29 -18 -21 -24 12 -4 17 -12 30 -18 30
-8 0 -8 -5 1 -16 11 -12 10 -18 -3 -32 -16 -15 -17 -15 -17 6 0 12 -4 22 -10
22 -5 0 -10 -7 -10 -16 0 -13 -2 -13 -13 -2 -8 7 -16 20 -20 28 -4 11 -6 11
-6 2 -1 -7 -7 -19 -14 -26 -10 -11 -15 -9 -24 10 -7 15 -7 24 -1 26 6 2 3 10
-6 17 -14 12 -15 10 -12 -18 3 -30 -14 -57 -22 -33 -2 6 -9 9 -16 6 -8 -3 -16
4 -19 15 -3 12 -11 21 -19 20 -10 0 -10 -2 0 -6 14 -5 17 -43 3 -43 -5 0 -13
9 -16 20 -8 25 -22 26 -28 3 -4 -17 -5 -17 -6 0 0 9 -5 17 -11 17 -5 0 -10 8
-11 18 0 13 -2 14 -6 2 -3 -8 -11 -18 -17 -22 -6 -4 -7 -10 -3 -15 5 -4 12 -1
17 7 6 9 10 10 10 3 0 -19 -18 -25 -41 -12 -17 9 -19 13 -8 20 8 5 9 9 4 9 -6
0 -16 -5 -23 -12 -17 -17 -28 -2 -12 17 8 9 8 15 2 15 -14 0 -25 -37 -16 -52
4 -7 -3 -4 -15 7 -12 11 -20 27 -18 36 3 12 0 16 -9 12 -8 -3 -15 -19 -15 -37
-1 -24 -3 -26 -6 -8 -3 15 -10 22 -19 18 -8 -3 -14 1 -14 9 0 8 -4 15 -10 15
-5 0 -10 -10 -10 -22 0 -17 -3 -19 -9 -9 -5 8 -14 10 -21 6 -10 -6 -12 -2 -8
13 7 24 -17 20 -26 -5 -4 -8 -13 -13 -20 -10 -8 3 -17 1 -19 -6 -2 -7 -8 -9
-12 -5 -4 4 0 14 9 23 9 9 16 12 16 6 0 -6 5 -11 10 -11 16 0 12 17 -5 24 -9
3 -23 -3 -32 -14 -23 -26 -33 -25 -33 3 0 16 -3 18 -9 8 -10 -16 -31 -6 -31
15 0 30 -20 12 -21 -18 -1 -18 -3 -26 -6 -16 -5 18 -33 33 -33 18 0 -6 -4 -10
-10 -10 -5 0 -10 9 -10 19 0 28 -10 51 -23 51 -7 0 -7 -4 1 -12 14 -14 16 -58
3 -58 -5 0 -13 9 -16 20 -8 26 -22 26 -30 0 -9 -29 -25 -24 -25 8 0 19 -3 23
-9 13 -5 -8 -14 -10 -22 -6 -9 6 -11 4 -6 -7 4 -12 1 -14 -14 -11 -11 3 -18
11 -15 18 3 8 -2 11 -15 8 -15 -4 -18 -2 -12 13 6 16 5 17 -9 4 -13 -12 -13
-17 -1 -28 7 -7 13 -15 13 -17 0 -8 -35 8 -42 19 -6 7 -11 6 -18 -4 -8 -13
-10 -12 -10 4 0 12 -5 16 -15 12 -9 -3 -15 0 -15 8 0 8 -6 16 -13 19 -10 4
-12 -4 -10 -27 3 -27 2 -28 -6 -10 -11 25 -38 46 -29 23 4 -10 -1 -15 -13 -15
-11 0 -19 6 -19 13 0 18 -17 16 -24 -2 -3 -8 -10 -15 -16 -15 -14 0 -13 27 3
33 9 4 9 6 0 6 -6 1 -15 -3 -18 -9 -10 -17 -23 -11 -28 13 -4 19 -4 19 -6 -5
0 -16 6 -31 17 -37 9 -6 12 -11 6 -11 -6 0 -21 11 -34 25 -28 29 -40 32 -40 8
0 -15 -2 -16 -10 -3 -9 13 -11 13 -20 0 -8 -12 -10 -9 -10 13 0 15 -4 27 -10
27 -5 0 -10 -12 -10 -26 l0 -27 -26 28 c-23 25 -27 27 -36 12 -12 -22 -25 -22
-31 1 -4 16 -5 16 -6 0 -1 -22 -10 -23 -41 -1 -20 14 -23 15 -18 1 5 -12 2
-14 -13 -11 -10 3 -19 9 -19 14 0 16 -18 9 -23 -8 -3 -10 -5 -3 -6 15 -1 38
-21 44 -21 6 0 -24 -1 -24 -16 -9 -13 12 -19 13 -24 4 -11 -17 -30 -1 -23 18
5 13 1 12 -17 -5 -29 -27 -37 -28 -45 -2 -8 26 -22 26 -30 0 -9 -29 -25 -25
-25 6 l0 26 -20 -23 c-10 -13 -19 -18 -20 -11 0 6 -9 21 -20 32 -23 23 -38 27
-20 5 8 -9 8 -15 2 -15 -6 0 -13 -8 -15 -17 -4 -17 -5 -17 -6 0 -1 20 -17 23
-24 5 -3 -8 -6 -6 -6 5 -1 21 -21 23 -21 1 0 -14 -2 -14 -16 1 -13 12 -19 13
-24 4 -11 -17 -30 -1 -23 18 5 13 1 12 -17 -4 l-23 -22 -30 21 c-25 18 -29 19
-24 5 11 -29 -13 -30 -40 0 -22 23 -26 24 -21 8 4 -18 0 -20 -39 -21 -43 -2
-61 17 -28 30 8 3 15 10 15 16 0 6 -10 2 -22 -10 -25 -23 -38 -26 -38 -7 0 8
-3 7 -10 -3 -7 -12 -13 -11 -36 10 l-26 25 7 -23 c6 -21 5 -22 -12 -14 -10 5
-24 7 -31 5 -7 -3 -23 3 -34 13 -16 14 -20 15 -16 4 4 -11 -2 -15 -23 -16 -19
-1 -29 5 -32 17 -3 11 -11 19 -19 19 -10 0 -11 -2 0 -9 10 -6 10 -10 -3 -21
-12 -10 -15 -10 -15 4 0 9 -4 16 -10 16 -5 0 -10 -6 -10 -12 0 -9 -4 -8 -10 2
-9 13 -11 13 -20 0 -8 -13 -10 -12 -10 3 0 20 -11 22 -28 5 -17 -17 -28 -2
-12 17 8 10 9 15 1 15 -6 0 -11 -4 -11 -9 0 -5 -9 -11 -19 -14 -13 -3 -21 1
-24 14 -3 12 0 19 9 19 8 0 14 4 14 9 0 5 29 12 65 16 36 3 65 10 65 15 0 5
32 12 70 16 45 4 70 11 70 19 0 12 -62 11 -140 -2 -19 -3 -42 -7 -50 -8 -8 -1
-40 -5 -70 -9 -30 -4 -102 -13 -160 -21 -173 -23 -554 -59 -790 -75 -74 -5
-175 -14 -225 -19 -126 -14 -330 -30 -534 -41 -95 -6 -201 -14 -235 -20 -33
-5 -124 -9 -201 -8 -129 1 -134 2 -65 9 41 4 143 12 225 18 83 5 193 15 245
20 102 12 277 26 510 41 80 5 172 14 205 19 33 6 114 13 180 16 66 3 145 10
175 15 30 6 118 15 195 21 275 21 359 29 394 39 20 5 52 10 72 10 19 0 76 6
125 14 49 8 143 21 209 31 132 18 243 35 380 60 50 8 118 18 153 22 64 6 83
16 63 36 -6 6 -11 19 -11 29 0 16 -11 18 -107 18 -60 0 -139 -7 -178 -15 -38
-8 -81 -15 -95 -15 -14 0 -63 -6 -110 -14 -47 -8 -137 -22 -200 -30 -63 -9
-149 -21 -190 -26 -41 -6 -117 -16 -169 -21 -51 -5 -112 -14 -135 -19 -22 -5
-72 -10 -111 -10 -38 -1 -104 -5 -145 -10 -41 -6 -136 -14 -210 -19 -74 -6
-180 -15 -235 -20 -125 -13 -338 -30 -515 -41 -169 -11 -381 -33 -560 -59 -78
-12 -190 -42 -342 -92 -47 -16 -94 -29 -105 -29 -10 0 -30 -7 -45 -14 -16 -8
-49 -18 -75 -22 -27 -3 -54 -11 -61 -17 -19 -15 -1725 -14 -1730 1 -2 7 -9 12
-16 12 -6 0 -34 22 -61 50 -48 49 -49 51 -37 83 29 81 3 432 -54 732 -23 118
-69 303 -86 345 -6 14 -14 39 -19 55 -9 37 -64 186 -77 211 -5 11 -33 69 -63
129 -29 61 -56 112 -61 113 -4 2 -8 9 -8 15 0 7 -26 50 -58 97 -89 131 -105
153 -129 177 -13 12 -23 24 -23 27 0 6 -128 136 -134 136 -3 0 -19 14 -37 31
-66 64 -309 209 -352 209 -7 0 -17 4 -23 10 -5 5 -30 14 -54 19 -25 5 -63 14
-85 20 -49 13 -275 14 -330 1 -101 -22 -136 -34 -215 -72 -84 -41 -142 -76
-148 -90 -2 -5 -8 -8 -14 -8 -15 0 -198 -184 -198 -199 0 -6 -4 -11 -9 -11
-13 0 -102 -144 -149 -240 -46 -96 -70 -158 -81 -211 -4 -19 -10 -40 -14 -46
-10 -16 -38 -152 -54 -263 -19 -134 -28 -473 -14 -554 6 -34 13 -99 17 -145
l7 -83 -54 6 c-30 4 -90 13 -134 21 -206 36 -264 45 -290 45 -27 0 -89 10
-302 48 l-93 16 -2 180 c-1 143 -3 165 -8 106 -4 -41 -8 -129 -9 -195 -1 -74
-5 -115 -10 -106 -5 8 -29 17 -52 22 -46 8 -65 11 -219 35 -52 8 -135 21 -185
29 -49 8 -133 21 -185 30 -52 8 -124 20 -160 26 -36 6 -94 15 -130 20 -36 5
-85 13 -110 18 -54 12 -159 29 -255 42 -38 5 -83 14 -99 19 -16 6 -42 10 -59
10 -16 0 -59 6 -96 14 -36 8 -109 22 -161 30 -52 9 -120 21 -150 27 -30 6 -84
14 -120 19 -36 5 -85 14 -110 19 -53 12 -136 28 -240 46 -41 7 -106 20 -145
28 -38 9 -95 21 -125 27 -30 6 -59 16 -64 21 -6 5 -18 9 -29 9 -49 0 -171 74
-245 150 -25 25 -40 36 -34 24 28 -55 151 -152 237 -186 107 -44 349 -95 865
-183 52 -9 129 -22 170 -30 41 -7 120 -21 175 -30 55 -9 134 -23 175 -30 77
-14 178 -31 355 -60 55 -9 136 -22 180 -30 116 -19 256 -42 370 -60 55 -9 141
-22 190 -30 178 -28 241 -38 275 -42 19 -2 76 -10 125 -18 50 -7 124 -19 165
-25 41 -7 111 -16 154 -20 44 -5 100 -14 125 -19 49 -11 149 -28 243 -41 76
-10 77 -12 66 -64 -10 -48 0 -73 75 -184 15 -23 27 -47 25 -51 -2 -5 -30 0
-63 10 -33 10 -80 19 -105 19 -25 0 -63 5 -85 10 -22 5 -80 14 -130 20 -49 5
-119 14 -155 20 -36 5 -119 16 -185 25 -164 22 -313 44 -415 61 -47 8 -105 14
-130 14 -25 0 -61 5 -80 10 -19 6 -73 15 -120 20 -115 13 -291 36 -370 48 -74
12 -289 41 -640 88 -63 8 -142 20 -175 25 -33 6 -100 14 -150 19 -178 18 -291
31 -340 41 -27 6 -88 14 -135 19 -238 24 -308 32 -340 41 -19 5 -84 13 -145
19 -195 16 -329 31 -380 41 -27 5 -104 14 -170 19 -188 15 -287 30 -330 50
-22 10 -67 21 -100 25 -69 8 -84 20 -142 115 -69 112 -100 217 -106 350 -6
128 -35 269 -76 373 -17 43 -14 77 7 77 10 0 5 6 -14 16 -21 10 -34 25 -37 42
-5 28 -21 75 -44 129 -7 17 -13 34 -13 38 0 39 -175 363 -201 373 -5 2 -9 9
-9 15 0 25 -158 164 -221 195 -70 34 -178 49 -250 33z m201 -371 c0 -4 10 -10
23 -14 28 -7 123 -97 132 -125 3 -11 11 -21 16 -21 5 0 9 -4 9 -10 0 -5 -7 -7
-15 -4 -8 4 -15 12 -15 19 0 17 -90 97 -104 92 -5 -2 -20 -57 -33 -122 -13
-65 -29 -125 -36 -133 -8 -10 -13 -73 -15 -188 -3 -123 -8 -176 -17 -184 -9
-7 -15 -7 -22 2 -19 25 -32 79 -26 109 3 17 1 40 -5 52 -6 12 -13 55 -16 95
-5 72 -15 116 -42 180 -8 18 -14 47 -14 65 0 39 -29 117 -44 117 -6 0 -34 -24
-61 -54 -67 -73 -71 -79 -79 -104 -4 -12 -11 -22 -16 -22 -5 0 -10 -6 -13 -12
-2 -7 -2 -2 0 11 2 13 11 30 18 38 8 8 15 20 15 27 0 6 13 27 30 46 16 19 29
38 30 43 1 28 115 98 175 106 49 7 125 2 125 -9z m6995 -335 c33 -10 69 -21
80 -25 29 -11 179 -84 185 -90 3 -3 24 -18 48 -34 23 -16 42 -33 42 -37 0 -5
4 -9 9 -9 13 0 141 -128 141 -141 0 -5 4 -9 9 -9 4 0 21 -20 37 -45 15 -25 32
-45 36 -45 4 0 8 -6 8 -14 0 -8 4 -16 8 -18 12 -4 99 -188 130 -273 43 -122
63 -252 69 -450 6 -210 -31 -381 -124 -570 -57 -117 -117 -201 -207 -290 -60
-59 -139 -125 -149 -125 -3 0 -26 -13 -50 -30 -25 -16 -48 -30 -52 -30 -4 0
-21 -6 -38 -14 -82 -35 -118 -46 -202 -60 -49 -9 -115 -16 -146 -16 -83 0
-273 43 -346 78 -68 33 -145 74 -153 82 -3 3 -24 18 -47 34 -24 16 -43 33 -43
37 0 5 -4 9 -10 9 -9 0 -74 63 -141 137 -39 43 -134 192 -158 248 -12 28 -28
62 -36 77 -8 14 -15 33 -15 41 0 8 -7 28 -15 43 -8 16 -15 38 -15 50 0 11 -7
40 -15 65 -14 44 -37 248 -39 349 0 30 6 83 13 118 l14 63 24 -23 c16 -15 48
-27 91 -35 88 -15 110 -21 122 -28 6 -3 19 -3 31 0 16 5 18 10 8 21 -6 8 -22
14 -35 14 -23 0 -41 16 -30 28 4 3 15 1 25 -5 10 -6 35 -15 55 -18 20 -4 38
-11 41 -15 3 -5 24 -11 48 -15 23 -4 47 -11 52 -15 6 -4 26 -11 45 -15 19 -4
41 -11 50 -15 37 -20 150 -50 184 -50 34 0 37 2 34 26 -2 19 -15 32 -43 48
-22 12 -60 34 -83 50 -24 15 -81 47 -125 70 -76 40 -172 94 -207 116 -8 5 -52
28 -98 52 -65 33 -86 40 -100 32 -19 -13 -65 -132 -57 -151 2 -8 19 -16 37
-20 31 -6 31 -6 8 -15 -13 -5 -29 -7 -36 -4 -7 3 -15 0 -18 -7 -4 -7 -4 19 -1
57 4 65 18 117 51 193 8 17 14 38 14 47 0 9 4 16 9 16 5 0 12 14 16 30 4 17
10 30 14 30 3 0 12 12 18 28 14 30 32 59 51 80 6 7 12 17 12 22 0 18 190 201
251 242 114 75 249 130 349 142 84 10 306 -2 365 -19z m-7385 -58 c0 -5 11
-23 25 -41 13 -17 27 -51 31 -74 4 -28 17 -51 38 -72 54 -51 111 -100 118
-100 30 0 50 -78 32 -124 -7 -18 -49 -22 -59 -6 -4 6 -14 10 -23 9 -26 -3 -72
12 -72 23 0 6 -17 8 -42 3 -24 -3 -70 -8 -104 -11 -61 -6 -61 -5 -67 23 -3 15
-2 56 2 89 7 68 8 68 76 25 60 -39 228 -121 246 -121 44 0 8 51 -89 125 -29
21 -52 43 -52 47 0 4 -6 8 -12 8 -7 1 -33 21 -58 45 -25 25 -53 45 -62 45 -10
0 -18 7 -18 15 0 8 4 15 10 15 5 0 12 23 16 50 4 28 10 50 15 50 5 0 9 8 9 18
0 14 4 12 20 -8 11 -14 20 -29 20 -33z m670 -34 c7 -21 15 -55 20 -75 6 -33 5
-38 -11 -38 -11 0 -19 -3 -19 -7 0 -5 -17 -19 -38 -33 -20 -14 -42 -29 -48
-35 -6 -5 -33 -28 -59 -50 -82 -69 -116 -107 -105 -120 13 -16 -6 -34 -30 -28
-15 4 -18 11 -14 32 4 18 -1 33 -16 49 -16 16 -17 22 -6 22 8 0 18 -9 21 -20
3 -11 11 -20 16 -20 17 0 146 134 153 160 15 53 55 120 111 187 14 17 13 18
25 -24z m-390 -549 c0 -22 -43 -157 -60 -186 -6 -10 -10 -26 -10 -36 0 -10 -7
-27 -15 -38 -10 -13 -14 -45 -15 -100 0 -44 -7 -103 -15 -130 -8 -27 -15 -68
-17 -92 -2 -47 12 -62 87 -94 51 -22 98 -22 137 -2 l30 16 -7 81 c-3 45 -8
143 -9 217 -2 74 -9 148 -15 163 -6 16 -14 68 -17 115 -4 69 -2 91 10 107 20
27 30 14 49 -60 35 -135 54 -174 94 -193 19 -9 33 -23 33 -33 0 -10 4 -21 10
-24 5 -3 17 -21 26 -40 40 -85 75 -17 128 250 l14 70 1 -54 c1 -57 -22 -176
-45 -229 -8 -18 -14 -39 -14 -47 0 -7 -6 -26 -14 -42 -8 -15 -25 -50 -38 -76
-44 -92 -51 -102 -117 -167 -71 -70 -115 -90 -193 -90 -46 0 -111 19 -130 38
-7 7 -16 12 -21 12 -26 0 -99 96 -144 190 -64 134 -75 170 -53 170 32 0 73 80
59 115 -4 11 -8 44 -8 74 -1 40 3 57 17 67 30 23 40 15 52 -40 10 -47 9 -58
-6 -80 -16 -25 -16 -26 5 -26 26 0 53 26 72 68 8 18 17 32 20 32 4 0 12 14 19
30 7 17 16 30 21 30 5 0 9 5 9 11 0 6 6 17 13 24 6 8 18 22 26 31 11 13 15 13
22 2 5 -7 9 -22 9 -34z"/>
<path d="M9190 7740 c-24 -15 9 -585 34 -602 8 -5 13 64 17 220 4 125 10 250
14 279 10 69 1 99 -29 105 -14 3 -30 2 -36 -2z"/>
<path d="M16010 7405 c-10 -12 -11 -45 -6 -133 3 -64 8 -160 11 -212 3 -52 13
-183 22 -291 15 -172 20 -198 36 -209 31 -19 39 1 48 122 5 62 11 136 14 163
3 28 12 122 20 210 9 88 20 193 26 233 10 72 6 111 -15 124 -22 15 -143 9
-156 -7z"/>
<path d="M15780 7371 c0 -5 -14 -13 -32 -16 -17 -4 -53 -20 -78 -36 -26 -16
-50 -29 -54 -29 -4 0 -14 -6 -22 -12 -8 -7 -20 -18 -27 -23 -7 -6 -34 -28 -62
-50 -27 -22 -56 -48 -63 -58 -8 -10 -22 -25 -31 -35 -30 -29 -101 -128 -101
-140 0 -7 6 -12 14 -12 7 0 19 -13 26 -30 7 -16 16 -30 20 -30 4 0 30 -21 56
-46 27 -25 62 -52 80 -60 24 -11 31 -22 32 -43 1 -40 35 -102 69 -126 15 -12
60 -36 98 -55 39 -19 72 -38 75 -41 3 -3 20 -14 39 -24 33 -16 34 -16 26 1
-16 38 0 94 27 94 6 0 3 -12 -7 -26 -13 -20 -14 -28 -4 -40 6 -7 9 -23 6 -35
-3 -12 -3 -18 0 -15 12 12 63 -48 63 -73 0 -35 -18 -99 -30 -106 -5 -3 -27 -1
-47 5 -37 11 -120 31 -218 51 -27 6 -54 15 -59 20 -17 15 -111 10 -147 -8 -28
-15 -56 -18 -160 -15 -101 2 -129 -1 -139 -13 -8 -10 -10 -43 -7 -112 7 -129
34 -255 77 -358 7 -16 19 -46 27 -65 36 -87 68 -140 86 -140 5 0 14 6 21 13 8
6 24 19 36 27 13 8 32 23 42 33 10 9 23 17 28 17 6 0 10 4 10 9 0 18 86 59
148 71 34 7 62 15 62 19 0 7 25 34 168 189 61 66 102 102 115 102 28 0 77 -48
70 -69 -4 -14 -151 -321 -189 -394 -9 -20 -14 -62 -14 -135 0 -75 -5 -115 -15
-136 -8 -15 -15 -38 -15 -50 -1 -11 -7 -32 -15 -46 -8 -14 -14 -39 -15 -57 0
-27 5 -34 43 -50 136 -61 280 -82 439 -64 111 13 148 28 148 58 0 7 -4 13 -9
13 -6 0 -13 21 -16 48 -3 26 -13 63 -22 82 -10 23 -17 75 -20 150 -4 120 -17
191 -40 225 -7 11 -13 30 -13 42 0 13 -4 23 -9 23 -5 0 -12 14 -16 31 -4 17
-13 42 -21 57 -8 15 -14 34 -14 42 0 8 -7 24 -15 34 -8 11 -15 28 -15 38 0 11
-7 32 -15 48 -14 28 -14 30 14 59 43 44 76 49 106 17 13 -14 28 -26 32 -26 18
0 93 -36 97 -46 5 -13 -44 -10 -53 4 -3 4 -14 11 -24 15 -21 8 -27 19 75 -134
88 -131 125 -169 166 -169 15 0 33 -5 40 -12 8 -8 15 -8 27 2 13 10 15 9 15
-7 0 -26 159 -180 195 -189 32 -8 40 1 101 126 25 52 50 103 55 112 5 10 9 24
9 33 0 8 6 29 14 47 27 62 46 176 46 271 0 94 0 95 -27 105 -16 6 -80 13 -143
15 -107 4 -119 6 -175 36 -58 32 -62 32 -120 22 -33 -7 -103 -16 -155 -21 -52
-6 -115 -13 -140 -16 l-45 -6 -14 47 c-15 51 -4 95 23 95 8 0 16 3 18 8 2 4
28 20 58 35 30 16 62 32 70 38 8 5 49 25 90 44 97 45 112 59 139 121 11 24 93
114 105 114 4 0 14 6 21 13 7 6 36 28 64 47 39 27 51 41 51 62 0 14 -3 28 -7
30 -9 3 -53 64 -53 72 0 13 -171 189 -220 226 -59 44 -189 120 -208 120 -23 0
-48 -30 -55 -66 -15 -76 -63 -223 -77 -234 -3 -3 -21 -26 -38 -52 -35 -51 -49
-115 -72 -318 -23 -206 -19 -195 -66 -198 -26 -2 -45 2 -53 11 -12 15 -23 78
-42 242 -14 119 -37 247 -47 254 -20 16 -82 165 -97 236 -21 98 -44 155 -62
155 -7 0 -13 -4 -13 -9z"/>
<path d="M16940 6671 c-8 -4 -33 -16 -55 -26 -22 -9 -53 -23 -70 -30 -16 -8
-48 -21 -70 -30 -52 -22 -85 -37 -170 -75 -38 -17 -86 -38 -105 -47 -19 -8
-47 -22 -62 -29 -14 -8 -31 -14 -37 -14 -12 0 -25 -9 -62 -43 -17 -15 -18 -21
-7 -34 10 -12 26 -14 78 -10 36 3 79 11 95 16 29 10 87 21 210 42 33 5 69 14
80 19 11 5 48 12 83 15 34 4 65 11 68 16 3 5 21 9 41 9 19 0 48 8 64 17 32 19
33 36 2 138 -21 67 -45 86 -83 66z"/>
<path d="M15874 6037 c-49 -55 -70 -80 -169 -203 -44 -54 -88 -108 -98 -119
-10 -11 -26 -32 -35 -47 -9 -16 -20 -28 -24 -28 -4 0 -8 -7 -8 -15 0 -8 -4
-15 -8 -15 -11 0 -78 -91 -86 -118 -6 -18 3 -32 50 -77 32 -30 62 -55 66 -55
10 0 78 102 78 117 0 7 3 13 8 13 4 0 12 10 18 23 17 34 64 118 84 152 10 17
29 50 41 75 13 25 42 78 66 118 24 40 43 77 43 82 0 5 6 15 13 22 6 7 21 30
31 50 15 31 17 40 6 53 -20 24 -35 18 -76 -28z"/>
<path d="M16200 6036 c0 -13 6 -37 14 -53 7 -15 20 -44 29 -63 24 -57 70 -153
171 -361 53 -108 96 -201 96 -206 0 -17 57 -73 74 -73 10 0 37 15 60 32 71 56
70 53 41 100 -14 24 -28 51 -31 61 -4 9 -10 17 -14 17 -5 0 -19 19 -33 43 -14
23 -34 51 -44 62 -29 32 -63 83 -63 94 0 5 -3 11 -7 13 -9 4 -53 65 -53 73 0
3 -5 11 -10 18 -24 28 -89 120 -135 191 -37 59 -54 76 -72 76 -18 0 -23 -6
-23 -24z"/>
<path d="M9122 6732 c-18 -26 -32 -53 -32 -59 0 -6 -4 -13 -8 -15 -10 -3 -13
-9 -88 -160 -72 -144 -77 -161 -56 -200 23 -40 42 -47 42 -16 0 13 7 33 15 44
8 10 15 29 15 42 0 12 3 22 8 22 4 0 15 21 25 48 11 26 23 56 27 67 5 11 19
45 30 75 12 30 26 64 31 75 21 49 36 104 30 114 -4 5 -21 -11 -39 -37z"/>
<path d="M9270 6736 c0 -15 4 -34 9 -44 8 -15 21 -75 51 -237 18 -99 67 -255
80 -255 4 0 16 12 25 27 21 31 22 86 2 117 -8 11 -16 30 -20 41 -3 11 -29 85
-57 165 -28 80 -54 158 -58 174 -10 38 -32 46 -32 12z"/>
<path d="M21205 8041 c-183 -7 -394 -20 -690 -42 -77 -6 -194 -14 -260 -19
-184 -12 -317 -30 -353 -49 -60 -30 -94 -102 -94 -204 -1 -38 4 -73 11 -80 6
-6 11 -19 11 -28 0 -25 33 -79 48 -79 6 0 12 4 12 8 0 5 240 12 533 15 370 4
542 10 566 18 41 14 59 32 86 82 23 44 31 45 57 12 22 -28 48 -33 48 -10 0 48
131 200 204 237 132 67 347 -81 370 -254 4 -31 3 -36 -3 -18 -41 120 -138 230
-203 230 -30 0 -35 -9 -17 -27 11 -11 15 -160 4 -171 -3 -3 -5 24 -5 61 0 36
-4 69 -10 72 -5 3 -10 21 -10 40 0 18 -6 35 -12 38 -48 16 -149 -93 -171 -185
-16 -64 -27 -81 -42 -68 -13 11 -15 3 -16 -56 -3 -141 3 -201 24 -264 11 -36
23 -67 27 -70 3 -3 14 -24 25 -47 11 -24 23 -43 27 -43 4 0 12 -9 18 -20 27
-50 -32 5 -80 75 -34 49 -62 102 -74 138 -3 11 -16 17 -35 17 -32 0 -43 16
-30 41 17 33 -60 38 -626 44 -509 6 -625 12 -625 34 0 5 255 7 568 4 515 -4
565 -3 548 11 -17 14 -76 16 -455 16 -240 1 -493 2 -564 3 -131 2 -139 -1
-112 -37 8 -11 15 -25 15 -32 0 -15 99 -167 112 -172 4 -2 8 -8 8 -14 0 -12
148 -161 170 -171 8 -4 29 -16 45 -27 17 -11 37 -22 45 -26 8 -3 22 -9 31 -14
97 -50 674 -111 1054 -110 116 1 230 5 255 11 25 6 72 15 105 20 33 6 64 15
70 20 5 5 19 9 31 9 23 0 72 14 231 66 113 37 127 44 193 92 51 38 89 94 113
169 19 57 37 238 30 295 l-5 37 -47 -5 c-25 -3 -55 -9 -66 -14 -11 -4 -67 -13
-125 -19 -170 -17 -256 -30 -281 -41 -18 -8 9 -9 101 -5 119 4 123 4 85 -10
-22 -9 -68 -18 -103 -22 -34 -3 -65 -10 -68 -14 -3 -5 -22 -9 -42 -9 -28 0
-33 -3 -22 -10 13 -8 12 -10 -3 -10 -10 0 -22 12 -28 27 -13 35 -14 102 -2
114 10 10 285 28 480 32 58 1 93 6 93 13 0 22 41 93 65 112 29 23 31 40 10 99
-8 24 -14 61 -13 83 1 24 -4 46 -13 54 -8 7 -68 21 -134 30 -141 19 -784 29
-1090 17z m372 -536 c30 -15 80 -66 142 -143 31 -40 34 -42 48 -25 27 34 10
-85 -22 -150 -25 -50 -47 -75 -112 -127 -7 -6 -38 -10 -70 -10 -47 0 -67 6
-105 30 -26 16 -54 43 -63 60 -8 16 -19 30 -23 30 -4 0 -12 12 -19 28 -36 83
-40 100 -32 113 7 11 9 10 9 -3 0 -41 29 -17 110 88 29 38 56 71 61 72 5 2 9
8 9 13 0 11 22 38 31 39 3 0 19 -7 36 -15z"/>
<path d="M21530 7381 c-19 -15 -67 -48 -107 -73 l-72 -45 21 -43 c40 -80 110
-140 164 -140 45 0 104 27 141 65 32 33 73 104 73 127 0 15 -35 48 -49 48 -5
0 -11 3 -13 8 -4 9 -65 52 -73 52 -4 0 -13 7 -21 15 -20 20 -23 19 -64 -14z"/>
<path d="M22680 7455 c0 -8 4 -15 8 -15 5 0 19 -36 33 -80 13 -44 27 -80 32
-80 4 0 7 -9 7 -20 0 -20 35 -133 49 -160 5 -9 12 -30 15 -48 4 -17 12 -34 17
-37 16 -10 10 -119 -8 -156 -9 -19 -21 -38 -25 -44 -5 -5 -19 -23 -33 -39 -13
-17 -21 -34 -18 -40 4 -6 9 -4 11 4 3 8 18 28 34 43 15 16 28 35 28 43 0 8 4
14 9 14 5 0 12 14 16 30 4 17 11 30 16 30 5 0 9 18 9 40 0 22 -4 40 -9 40 -4
0 -11 19 -14 41 -3 23 -10 45 -16 48 -5 4 -13 26 -17 49 -4 23 -10 42 -14 42
-4 0 -10 19 -13 41 -3 23 -10 45 -15 48 -5 3 -12 24 -15 46 -4 22 -11 41 -16
43 -6 2 -13 19 -17 38 -3 19 -10 34 -14 34 -5 0 -11 14 -15 30 -7 31 -25 42
-25 15z"/>
<path d="M22409 6735 c-3 -2 -79 -9 -169 -14 -91 -6 -208 -15 -260 -21 -197
-21 -330 -32 -475 -40 -82 -5 -215 -13 -295 -19 -168 -12 -398 -28 -621 -41
-176 -11 -348 -35 -363 -50 -5 -5 -17 -10 -26 -10 -62 0 -294 -213 -490 -451
-53 -64 -76 -91 -112 -133 -15 -17 -33 -45 -38 -63 -6 -17 -17 -34 -25 -37 -8
-3 -15 -10 -15 -16 0 -5 9 -2 20 7 15 13 40 18 97 19 172 3 552 25 609 34 33
5 103 10 155 11 52 0 135 5 184 9 50 5 162 14 250 19 88 6 196 15 240 20 44 6
143 15 220 21 77 5 194 16 260 24 66 9 163 20 215 25 52 6 109 13 125 17 31 7
152 24 310 44 50 6 99 15 110 20 24 9 202 33 230 30 11 -1 29 -2 39 -1 18 1
17 3 -7 29 -19 19 -25 34 -20 50 6 26 4 26 50 7 69 -29 75 -24 70 53 -4 62
-26 159 -46 207 -11 25 -28 97 -36 151 -4 24 -16 51 -28 62 -28 27 -142 54
-158 37z"/>
<path d="M18535 6594 c-108 -23 -300 -96 -325 -124 -3 -3 -21 -17 -40 -30 -19
-13 -47 -36 -62 -52 -15 -15 -29 -28 -32 -28 -8 0 -46 -38 -46 -45 0 -3 -10
-16 -23 -28 -35 -34 -97 -114 -97 -125 0 -5 -6 -12 -12 -15 -7 -3 -22 -22 -33
-43 -11 -22 -23 -41 -26 -44 -4 -3 -19 -27 -33 -55 -15 -27 -38 -70 -52 -94
-13 -24 -24 -49 -24 -56 0 -9 72 -14 269 -18 148 -4 289 -5 313 -2 23 3 117 9
208 15 98 5 166 13 168 20 2 5 12 10 22 10 54 0 169 78 269 183 134 140 330
337 337 337 4 0 12 -8 19 -17 12 -16 19 -15 106 6 51 12 129 25 173 28 75 6
78 7 46 16 -19 6 -97 12 -172 14 l-138 4 0 25 c0 22 4 24 43 24 23 0 69 -4
102 -9 33 -5 107 -11 165 -14 58 -3 92 -3 75 -1 -16 3 -61 11 -100 19 -154 31
-340 60 -490 75 -49 6 -123 14 -163 20 -70 9 -405 12 -447 4z"/>
<path d="M25210 5295 c0 -8 4 -15 9 -15 5 0 11 -12 13 -27 2 -17 9 -28 18 -27
9 1 16 -9 17 -24 0 -13 6 -28 12 -32 7 -4 13 -39 14 -81 2 -71 1 -74 -21 -75
-26 -1 -39 -11 -28 -21 4 -4 11 -1 16 7 8 12 10 12 10 1 0 -11 3 -11 15 -1 11
9 15 9 15 1 0 -7 6 -18 12 -25 10 -11 18 -8 42 17 41 40 60 77 46 91 -5 5 -10
18 -10 27 0 9 -7 22 -15 29 -8 7 -15 19 -15 28 0 8 -7 24 -17 34 -9 10 -13 21
-10 24 10 10 36 -16 52 -50 8 -17 19 -38 24 -46 27 -46 35 -71 23 -79 -6 -4
-13 -20 -16 -36 -2 -17 -1 -23 1 -15 3 8 11 23 19 35 14 21 9 95 -6 95 -5 0
-18 18 -29 41 -12 22 -32 50 -46 63 -23 21 -23 24 -7 40 16 16 16 17 0 10 -10
-3 -18 -9 -19 -13 0 -3 -2 -21 -5 -39 -3 -23 1 -34 11 -38 8 -4 15 -17 15 -30
0 -12 7 -27 16 -32 10 -5 16 -24 17 -54 2 -38 -3 -49 -28 -72 -35 -32 -46 -18
-16 20 12 15 21 38 21 51 0 24 -45 129 -59 137 -4 3 -6 25 -5 50 2 37 0 43
-11 33 -8 -8 -9 -14 -3 -18 6 -4 2 -15 -10 -27 -24 -24 -27 -21 -37 26 -7 32
-25 45 -25 17z"/>
</g>
</svg>
