<?xml version="1.0" standalone="no"?>
<!DOCTYPE svg PUBLIC "-//W3C//DTD SVG 20010904//EN"
 "http://www.w3.org/TR/2001/REC-SVG-20010904/DTD/svg10.dtd">
<svg version="1.0" xmlns="http://www.w3.org/2000/svg"
 width="2880.000000pt" height="1725.000000pt" viewBox="0 0 2880.000000 1725.000000"
 preserveAspectRatio="xMidYMid meet">
<metadata>
Created by potrace 1.16, written by Peter Selinger 2001-2019
</metadata>
<g transform="translate(0.000000,1725.000000) scale(0.100000,-0.100000)"
fill="#000000" stroke="none">
<path d="M11370 11020 c0 -6 -89 -10 -247 -10 -249 0 -293 -4 -293 -23 0 -6
24 -7 73 -2 81 9 84 9 297 5 163 -4 902 10 909 16 2 2 -158 4 -357 4 -235 0
-362 4 -362 10 0 6 -4 10 -10 10 -5 0 -10 -4 -10 -10z"/>
<path d="M10830 10951 c-303 -17 -746 -77 -970 -132 -25 -6 -61 -15 -80 -19
-145 -31 -425 -120 -535 -170 -22 -10 -67 -30 -100 -45 -80 -36 -132 -62 -180
-89 -22 -12 -67 -37 -100 -55 -33 -19 -67 -39 -75 -46 -8 -6 -22 -15 -30 -19
-8 -3 -28 -15 -45 -26 -16 -11 -40 -25 -52 -31 -13 -7 -23 -16 -23 -21 0 -4
-5 -8 -10 -8 -12 0 -73 -41 -78 -52 -2 -5 -8 -8 -13 -8 -6 0 -15 -5 -22 -10
-25 -22 -188 -140 -193 -140 -2 0 -12 -8 -22 -17 -11 -10 -63 -52 -117 -93
-54 -41 -103 -80 -109 -85 -6 -6 -42 -35 -81 -65 -69 -54 -85 -67 -135 -110
-14 -12 -46 -38 -72 -58 -27 -20 -48 -40 -48 -44 0 -4 -7 -8 -15 -8 -8 0 -15
-4 -15 -8 0 -5 -21 -23 -46 -41 -25 -18 -57 -44 -72 -58 -15 -14 -55 -46 -89
-71 -35 -25 -63 -49 -63 -54 0 -4 -7 -8 -15 -8 -8 0 -15 -4 -15 -10 0 -5 -20
-21 -45 -36 -25 -14 -45 -29 -45 -34 0 -4 -8 -10 -17 -14 -10 -3 -63 -35 -118
-70 -55 -36 -120 -75 -144 -88 -24 -13 -46 -28 -48 -35 -3 -7 -9 -13 -14 -13
-13 0 -41 -30 -77 -82 -27 -40 -51 -63 -112 -111 -16 -12 -149 -79 -235 -117
-27 -13 -77 -36 -111 -51 -33 -16 -66 -29 -72 -29 -7 0 -12 -4 -12 -9 0 -18
-40 -18 -61 0 -24 20 -34 24 -25 10 14 -22 -7 -70 -35 -81 -16 -7 -29 -17 -29
-24 0 -18 -64 -106 -77 -106 -7 0 -13 5 -13 10 0 61 -91 -124 -135 -272 -9
-32 -18 -58 -20 -58 -9 0 10 82 36 163 33 98 32 97 20 97 -5 0 -12 -13 -16
-30 -4 -16 -11 -30 -15 -30 -5 0 -12 -22 -16 -50 -4 -27 -10 -50 -15 -50 -4 0
-11 -27 -15 -60 -4 -33 -10 -60 -14 -60 -4 0 -11 -34 -15 -75 -4 -41 -11 -75
-16 -75 -5 0 -9 -18 -9 -40 0 -58 17 -49 24 13 9 69 26 97 26 42 0 -60 -48
-276 -76 -342 -8 -17 -14 -34 -14 -38 0 -4 -6 -21 -14 -38 -28 -65 -39 -125
-42 -227 -3 -106 6 -157 43 -240 18 -40 113 -170 124 -170 4 0 14 -20 22 -45
9 -25 12 -45 7 -45 -5 0 -12 -24 -15 -54 -5 -40 -3 -62 10 -89 16 -35 107
-127 125 -127 6 0 10 -3 10 -7 0 -8 22 -22 100 -67 19 -11 53 -30 75 -42 22
-13 75 -40 117 -61 75 -37 77 -40 114 -112 21 -40 59 -101 84 -135 67 -89 66
-85 20 -83 -22 1 -40 5 -40 8 0 4 -18 10 -39 14 -22 3 -47 13 -58 20 -10 8
-27 15 -38 15 -11 0 -38 9 -60 20 -22 11 -46 19 -52 20 -7 0 -13 5 -13 10 0 6
-7 10 -16 10 -9 0 -28 6 -42 13 -15 8 -42 21 -60 30 -19 9 -39 17 -47 17 -7 0
-18 6 -24 14 -7 8 -23 17 -37 20 -14 4 -39 21 -56 39 -33 35 -78 126 -78 157
0 11 -4 20 -10 20 -5 0 -12 11 -16 24 -3 14 -12 27 -20 30 -8 3 -14 12 -14 21
0 8 -4 15 -9 15 -5 0 -12 23 -16 50 -7 52 -25 69 -25 25 0 -14 4 -25 9 -25 5
0 11 -18 15 -40 3 -22 10 -40 15 -40 5 0 12 -13 16 -30 4 -16 11 -30 15 -30 5
0 12 -16 16 -35 3 -19 10 -35 14 -35 5 0 11 -13 15 -30 4 -16 10 -30 15 -30 5
0 12 -9 15 -21 9 -27 37 -55 64 -64 12 -3 21 -10 21 -15 0 -5 14 -11 30 -15
17 -4 30 -10 30 -15 0 -5 14 -11 30 -15 17 -4 30 -11 30 -15 0 -5 16 -12 35
-16 19 -3 35 -10 35 -14 0 -5 14 -11 30 -15 17 -4 30 -10 30 -15 0 -4 20 -11
45 -14 25 -4 45 -11 45 -16 0 -5 14 -11 30 -15 17 -4 30 -10 30 -15 0 -4 18
-10 40 -14 22 -3 40 -10 40 -16 0 -5 16 -12 35 -16 19 -3 35 -10 35 -14 0 -5
14 -11 30 -15 28 -6 30 -10 30 -51 0 -24 4 -44 9 -44 5 0 12 -27 16 -60 4 -33
11 -60 15 -60 4 0 11 -25 15 -55 3 -30 10 -55 15 -55 4 0 11 -16 14 -35 4 -19
11 -35 15 -35 5 0 11 -18 15 -40 3 -22 10 -40 15 -40 5 0 12 -12 16 -27 4 -19
2 -31 -9 -39 -9 -6 -16 -19 -16 -28 0 -14 -4 -15 -20 -6 -15 8 -20 8 -20 -1 0
-6 -7 -9 -15 -6 -8 4 -17 2 -20 -3 -11 -18 -25 -10 -22 13 2 12 2 16 0 10 -3
-7 -8 -13 -13 -13 -5 0 -11 -8 -13 -17 -4 -16 -5 -16 -6 -2 0 9 -7 19 -14 22
-17 7 -44 -9 -34 -20 5 -4 13 -1 18 7 9 13 10 13 7 1 -7 -26 -25 -23 -62 10
-20 17 -36 26 -36 20 0 -7 6 -14 14 -17 33 -13 22 -29 -20 -30 -32 -1 -44 3
-47 15 -4 14 -5 14 -6 0 -1 -11 -11 -16 -30 -17 -23 0 -28 3 -24 15 5 12 1 11
-16 -3 -23 -21 -100 -26 -113 -9 -5 7 -10 7 -15 0 -5 -5 -21 -11 -38 -13 -23
-2 -26 0 -15 8 8 5 10 10 4 10 -5 0 -15 -5 -22 -12 -8 -8 -15 -8 -27 2 -8 7
-18 10 -22 6 -3 -3 0 -6 8 -6 12 0 12 -2 -1 -10 -9 -6 -17 -5 -22 3 -6 9 -10
8 -17 -3 -8 -12 -13 -12 -30 5 -12 10 -24 15 -28 12 -3 -4 -1 -7 5 -7 7 0 12
-6 12 -14 0 -19 -48 -17 -53 3 -4 14 -5 14 -6 -1 -1 -25 -27 -22 -47 5 l-16
22 5 -22 c4 -19 1 -22 -27 -21 -17 0 -39 8 -50 17 -17 15 -18 15 -15 -4 3 -15
-2 -20 -21 -21 -14 -1 -28 3 -32 10 -6 8 -8 8 -8 0 0 -6 -18 -11 -41 -11 -30
0 -37 2 -25 9 9 5 16 13 16 19 0 5 -10 1 -22 -11 -22 -21 -78 -28 -78 -10 0 6
-4 10 -10 10 -5 0 -10 -8 -10 -17 0 -25 -57 -29 -63 -5 -4 16 -5 16 -6 0 -1
-16 -11 -18 -86 -15 -47 1 -85 0 -85 -3 0 -3 -37 -7 -82 -8 -46 -1 -96 -6
-113 -11 -16 -5 -37 -9 -45 -9 -42 2 -294 -13 -300 -17 -8 -5 -40 -9 -180 -20
-101 -8 -129 -21 -127 -57 1 -19 6 -27 16 -23 7 3 20 -3 27 -12 8 -11 13 -13
14 -5 0 6 9 12 21 12 13 0 19 -5 16 -12 -3 -9 9 -13 42 -12 47 0 74 -17 64
-42 -2 -7 0 -15 5 -18 5 -3 8 8 6 24 -3 24 0 30 16 30 10 0 22 -5 26 -11 4 -8
9 -7 16 2 6 10 8 5 6 -15 -2 -19 2 -31 12 -34 12 -4 13 -3 2 10 -10 13 -10 17
4 22 25 10 31 7 37 -14 3 -11 11 -20 18 -20 10 0 10 3 1 12 -7 7 -12 16 -12
20 0 14 22 8 36 -9 8 -11 13 -13 14 -5 0 15 32 16 48 0 9 -9 12 -9 12 3 0 12
2 12 10 -1 9 -13 11 -13 21 0 8 11 9 6 5 -20 -3 -19 -3 -28 1 -20 11 27 26 29
44 7 l18 -22 -6 23 c-4 16 -1 22 11 22 15 0 21 -17 17 -48 -1 -7 5 -15 14 -18
8 -3 15 -12 15 -19 0 -7 7 -18 15 -25 10 -9 15 -9 15 -1 0 6 -4 11 -10 11 -5
0 -10 5 -10 12 0 6 -7 20 -17 30 -12 14 -13 18 -3 18 11 0 11 3 2 12 -15 15
-16 28 -2 28 6 0 10 -6 10 -13 0 -7 7 -22 16 -33 15 -18 15 -18 9 11 -4 20 -2
25 3 16 7 -9 12 -10 16 -2 4 6 12 11 17 11 13 0 1 -42 -15 -52 -8 -6 -8 -8 1
-8 6 0 14 -8 17 -17 4 -15 5 -15 4 2 -1 40 2 55 11 55 5 0 12 -10 14 -22 4
-20 4 -20 6 4 0 15 5 29 10 32 11 7 22 -31 17 -59 -2 -11 -1 -14 1 -7 3 6 9
12 14 12 14 0 11 28 -3 33 -7 2 6 4 30 3 26 -1 47 -7 52 -16 8 -12 11 -13 19
-1 7 11 9 11 14 0 5 -12 7 -12 15 0 8 11 10 11 15 0 5 -12 7 -12 15 0 8 11 11
11 16 0 5 -11 7 -11 12 -2 4 10 9 10 19 -1 8 -7 28 -12 45 -10 20 3 33 -1 36
-11 8 -20 22 -19 27 3 4 16 5 16 6 0 1 -19 21 -25 21 -7 0 6 7 4 15 -5 18 -18
19 -33 3 -39 -15 -5 18 -47 36 -47 6 0 3 5 -7 11 -14 8 -17 18 -12 42 11 52
25 55 26 7 2 -33 3 -37 6 -16 3 16 10 34 17 41 9 10 12 2 11 -33 0 -32 4 -47
15 -49 12 -4 12 -2 2 5 -10 7 -10 11 3 22 12 10 15 10 15 -4 0 -9 4 -16 9 -16
5 0 12 -14 16 -30 4 -17 11 -30 16 -30 14 0 11 28 -3 32 -8 3 -13 22 -12 49 0
24 -1 36 -4 27 -2 -10 -7 -18 -12 -18 -5 0 -11 8 -13 18 -4 16 -5 16 -6 0 -1
-22 -21 -24 -21 -3 0 15 5 17 40 17 37 0 40 -2 41 -34 1 -22 3 -26 6 -13 3 11
10 23 17 28 8 5 7 10 -4 17 -9 6 -10 10 -3 10 7 0 17 -8 23 -17 8 -13 13 -14
16 -6 7 16 21 2 47 -46 19 -37 22 -57 7 -64 -6 -3 -5 -4 2 -3 20 4 21 33 4 68
-18 36 -20 58 -6 58 6 0 10 -11 10 -25 0 -13 6 -28 14 -32 7 -4 24 -26 36 -48
20 -36 21 -37 15 -10 -4 17 -12 37 -19 45 -8 8 -11 22 -9 30 4 12 3 12 -5 1
-6 -8 -12 -9 -16 -3 -7 12 13 21 32 15 6 -3 12 -10 12 -17 0 -7 13 -25 30 -41
31 -30 38 -50 20 -58 -6 -3 -5 -4 2 -3 19 4 21 31 4 48 -11 12 -12 18 -3 27 8
8 8 11 -1 11 -7 0 -12 -5 -12 -12 0 -6 -3 -8 -7 -4 -5 4 -1 13 8 19 9 7 18 19
22 27 4 12 6 11 6 -2 1 -21 17 -24 24 -5 2 6 4 -4 4 -23 0 -19 -2 -27 -4 -17
-3 9 -9 17 -14 17 -13 0 -11 -19 4 -34 10 -11 15 -11 25 0 7 7 12 21 12 30 0
16 2 16 16 -2 15 -18 15 -18 10 11 -5 30 -5 30 6 5 17 -35 17 -35 32 -15 13
18 36 13 36 -8 0 -7 -4 -6 -10 3 -5 8 -13 11 -17 6 -4 -5 -2 -11 5 -13 6 -3
12 -13 12 -23 0 -9 7 -23 15 -30 18 -15 20 -37 3 -43 -7 -2 -9 -8 -5 -13 9 -9
27 13 27 33 0 6 -7 18 -15 27 -17 17 -20 46 -5 46 6 0 10 8 11 18 0 12 2 13 6
3 3 -8 18 -25 32 -37 14 -13 20 -24 13 -24 -8 0 -9 -5 -3 -18 5 -9 12 -25 15
-34 3 -10 11 -18 18 -18 10 0 10 2 1 8 -16 10 -21 64 -5 69 6 3 12 -1 12 -8 0
-6 16 -27 35 -46 44 -42 46 -31 3 14 -26 27 -29 35 -18 48 8 10 9 15 1 15 -6
0 -11 -5 -11 -11 0 -6 -7 -4 -15 5 -17 16 -20 36 -6 36 5 0 11 -8 13 -17 3
-15 4 -15 19 -1 15 15 16 14 17 -13 2 -70 51 -70 54 0 l1 36 4 -33 c2 -18 10
-32 16 -31 26 3 37 -2 37 -16 0 -18 -17 -20 -23 -3 -2 9 -4 8 -3 -1 2 -23 27
-25 33 -2 3 12 10 21 15 21 6 0 5 7 -2 15 -8 10 -9 15 -1 15 6 0 13 -12 16
-28 4 -15 10 -35 15 -44 5 -9 6 -18 1 -20 -5 -2 -12 -14 -16 -28 -7 -23 -7
-23 10 -6 21 21 23 115 2 128 -9 6 -9 8 1 8 7 0 15 -8 18 -17 14 -42 34 -77
34 -60 0 9 5 17 10 17 12 0 13 -37 1 -42 -4 -1 -11 -21 -15 -43 l-7 -40 15 28
c8 15 18 43 22 62 7 38 21 46 30 18 3 -10 9 -27 14 -38 5 -11 11 -28 14 -37 3
-10 11 -18 18 -18 10 0 10 2 1 8 -7 4 -15 27 -19 50 -4 23 -11 42 -17 42 -5 0
-4 7 3 15 9 10 9 15 1 15 -6 0 -11 -6 -11 -12 0 -9 -4 -8 -10 2 -9 13 -11 13
-20 0 -5 -8 -10 -10 -10 -5 0 6 8 17 18 26 16 13 19 13 35 -1 9 -9 17 -22 17
-29 0 -7 6 -11 13 -8 9 3 13 -3 11 -22 -1 -19 0 -20 3 -3 2 12 9 22 15 22 6 0
3 9 -6 19 -10 11 -16 26 -13 33 4 9 6 8 6 -4 1 -9 6 -18 12 -20 6 -2 12 -13
13 -23 1 -22 35 -65 50 -65 5 0 1 8 -8 19 -15 16 -15 20 -2 33 11 12 12 18 3
27 -8 8 -8 11 0 11 14 0 27 -36 18 -49 -12 -21 18 -22 38 -2 12 11 16 21 10
21 -6 0 -13 -7 -17 -15 -3 -8 -10 -15 -16 -15 -7 0 -5 7 4 15 16 16 12 45 -7
45 -6 0 -7 3 -4 7 4 3 17 -4 30 -17 18 -20 22 -22 25 -8 2 9 9 19 16 21 9 4
12 0 9 -13 -3 -13 0 -18 14 -17 15 2 18 -5 17 -40 0 -32 2 -38 12 -29 6 7 14
21 16 32 3 15 7 12 21 -16 18 -35 18 -35 12 -5 -4 17 -18 42 -33 58 -14 15
-22 27 -18 27 4 0 20 -14 36 -31 15 -17 32 -29 38 -25 6 3 8 -12 7 -37 -3 -44
8 -77 21 -64 4 3 1 13 -5 21 -10 12 -10 20 3 38 9 12 16 27 16 33 0 5 -4 4 -9
-4 -6 -9 -11 -10 -15 -2 -4 6 -2 11 5 11 8 0 8 4 -1 15 -7 9 -8 15 -2 15 5 0
12 -7 16 -15 3 -8 10 -15 16 -15 14 0 13 27 -2 33 -10 4 -10 6 0 6 8 1 16 -8
19 -19 4 -16 12 -19 47 -16 22 2 35 2 29 -1 -7 -3 -13 -12 -13 -20 0 -8 6 -13
13 -10 8 3 12 -7 12 -31 0 -21 5 -36 13 -38 7 -1 8 0 2 3 -8 3 -7 9 1 19 8 10
8 14 0 14 -6 0 -11 7 -11 15 0 8 5 15 12 15 9 0 9 3 0 12 -15 15 -16 48 -2 48
6 0 11 -12 11 -27 2 -51 4 -56 19 -61 13 -5 13 -3 1 11 -10 13 -10 17 -1 17 9
0 10 3 1 14 -9 10 -8 15 3 19 19 7 46 -18 45 -41 0 -13 -2 -12 -9 4 -9 23 -30
41 -30 27 0 -5 7 -19 16 -31 8 -12 11 -22 6 -22 -6 0 -13 -8 -16 -18 -4 -10 7
-3 26 15 25 26 30 35 20 45 -14 14 -16 28 -3 28 5 0 11 -9 14 -20 8 -31 25
-24 30 13 l4 32 1 -31 c2 -27 6 -31 27 -31 20 0 23 2 14 13 -8 10 -8 14 0 14
12 0 12 0 14 -74 1 -31 7 -50 15 -52 7 -1 8 0 2 3 -14 7 -13 33 2 33 9 0 9 3
0 12 -14 14 -16 48 -4 48 9 0 30 -38 43 -75 7 -20 7 -20 8 0 1 22 -35 96 -53
107 -7 5 -7 8 -1 8 13 0 39 -29 48 -54 4 -10 13 -16 22 -13 9 4 12 1 9 -7 -3
-7 4 -24 15 -37 18 -22 20 -22 15 -3 -3 12 1 28 11 38 10 9 18 28 18 40 0 22
1 23 18 8 11 -9 19 -27 19 -40 0 -33 21 -53 38 -36 15 16 15 37 1 51 -9 9 -7
16 5 29 16 15 17 15 11 -7 -3 -14 0 -32 9 -44 13 -18 12 -22 -10 -42 -14 -13
-21 -23 -16 -23 18 0 47 42 46 68 -1 21 0 22 3 5 2 -13 9 -23 14 -23 5 0 9 -7
9 -15 0 -8 -4 -15 -9 -15 -5 0 -11 -9 -14 -20 -3 -11 -1 -17 4 -14 14 8 49 84
39 84 -5 0 -10 -6 -13 -12 -2 -7 -4 1 -3 18 1 21 5 30 14 27 6 -3 12 -11 12
-18 0 -7 8 -12 18 -11 12 1 18 -8 20 -32 2 -17 7 -32 13 -32 12 0 12 -27 -1
-33 -6 -3 -5 -4 2 -3 15 3 12 94 -4 114 -7 8 -7 12 0 12 11 0 22 -23 22 -48 0
-9 12 -29 27 -44 15 -15 22 -28 16 -28 -6 0 -14 -8 -17 -17 -6 -15 -5 -15 13
1 21 19 19 41 -5 50 -21 8 -17 49 6 69 11 9 20 12 20 7 0 -6 -7 -13 -15 -16
-24 -10 -17 -31 10 -31 20 0 23 2 14 13 -7 9 -8 14 -1 14 5 0 12 -7 16 -15 3
-8 11 -15 18 -15 9 0 9 3 0 12 -15 15 -16 28 -2 28 6 0 10 -7 10 -15 0 -9 7
-18 15 -21 17 -7 20 -30 5 -37 -6 -3 -5 -4 2 -3 7 2 13 17 13 36 0 21 6 35 15
37 13 4 13 3 0 -7 -11 -9 -12 -13 -2 -17 14 -5 17 -60 3 -65 -17 -6 -17 -60
-1 -66 13 -5 13 -3 1 11 -8 10 -9 17 -3 17 6 0 14 21 18 47 10 66 31 86 29 27
-1 -27 3 -48 12 -56 11 -9 11 -13 1 -19 -9 -6 -9 -9 -1 -9 19 0 24 17 9 33
-11 11 -12 17 -3 26 8 8 8 11 -1 11 -17 0 -15 27 2 33 16 6 58 -28 69 -56 3
-9 12 -17 19 -16 10 0 10 2 1 6 -15 5 -18 33 -4 33 5 0 12 10 14 22 l4 23 2
-22 c1 -27 18 -30 24 -6 4 17 5 17 6 1 0 -10 6 -18 11 -18 6 0 10 -5 10 -11 0
-8 -5 -8 -15 1 -12 10 -15 10 -15 0 0 -10 -3 -10 -15 0 -10 8 -15 9 -15 2 0
-6 8 -16 18 -21 12 -7 14 -13 6 -18 -9 -6 -7 -12 4 -23 14 -13 15 -12 9 3 -4
11 1 24 15 36 14 13 19 28 16 45 -3 16 -1 23 8 19 19 -7 26 -47 9 -59 -18 -14
-19 -31 -2 -37 8 -3 6 -10 -8 -22 l-20 -16 20 10 c13 6 20 20 20 37 0 15 5 29
11 31 14 5 27 -57 17 -83 -6 -17 -5 -17 10 -5 18 15 23 51 7 51 -14 0 -12 38
3 43 6 2 8 8 4 13 -4 5 -11 3 -15 -3 -5 -7 -11 -7 -20 3 -7 8 -8 14 -2 14 5 0
10 8 11 18 0 12 2 13 6 3 7 -17 40 -51 51 -51 4 0 13 -9 20 -20 7 -12 8 -20 2
-20 -5 0 -10 -7 -10 -15 0 -8 4 -15 9 -15 5 0 12 -8 14 -17 3 -10 3 4 1 31 -2
27 -11 57 -20 67 -9 10 -14 24 -11 31 4 10 6 10 6 0 1 -19 38 -55 49 -48 5 3
8 -7 6 -21 -2 -19 5 -34 23 -51 14 -12 27 -21 29 -19 2 2 -7 14 -20 26 l-25
23 25 23 c13 12 24 26 24 31 0 5 8 17 18 25 18 15 19 14 19 -25 0 -26 -1 -31
-4 -13 -5 34 -23 36 -23 2 0 -13 -8 -29 -17 -34 -10 -6 -13 -11 -7 -11 5 0 15
5 22 12 10 10 17 7 34 -10 12 -12 17 -22 10 -22 -6 0 -12 -9 -12 -20 0 -11 5
-20 10 -20 6 0 10 8 10 19 0 10 7 24 15 31 17 14 20 50 5 50 -5 0 -10 -11 -10
-25 0 -22 -2 -24 -14 -13 -12 11 -12 15 0 29 8 8 14 20 14 26 0 6 6 13 14 16
9 4 12 0 9 -13 -3 -13 0 -18 13 -17 11 1 19 -6 21 -18 1 -15 1 -16 -3 -3 -3
10 -10 18 -15 18 -14 0 -11 -28 4 -33 8 -3 6 -10 -8 -21 -11 -8 -17 -16 -13
-16 13 0 58 47 58 62 0 8 -5 19 -12 26 -7 7 -8 12 -2 12 6 0 17 -12 24 -27 12
-26 13 -27 21 -8 6 17 8 17 8 3 1 -10 7 -18 14 -18 9 0 9 -2 0 -8 -18 -11 -21
-64 -3 -69 12 -4 12 -3 1 5 -8 6 -9 12 -3 16 6 3 13 24 17 46 9 50 25 52 26 3
1 -21 2 -42 4 -48 1 -5 3 -18 3 -27 2 -22 22 -24 22 -3 0 8 -5 15 -11 15 -8 0
-8 5 1 15 9 10 9 15 1 15 -6 0 -11 14 -11 30 0 17 5 30 10 30 6 0 10 -11 10
-25 0 -14 7 -28 15 -31 12 -5 13 -10 4 -20 -18 -22 -2 -16 25 10 15 13 26 27
26 32 0 5 -4 3 -9 -5 -6 -9 -11 -10 -15 -2 -4 6 -3 11 2 11 5 0 12 9 15 20 3
11 11 20 19 19 10 0 10 -2 1 -6 -7 -2 -13 -12 -13 -20 0 -9 6 -13 15 -9 9 3
15 0 15 -10 0 -8 -7 -17 -15 -20 -8 -4 -15 -12 -15 -20 0 -19 18 -18 22 1 2
10 7 12 18 5 12 -8 13 -11 1 -19 -11 -7 -11 -9 0 -14 12 -5 11 -8 -1 -17 -13
-10 -13 -11 0 -7 10 2 15 17 16 39 0 29 -3 35 -15 31 -11 -3 -12 -2 -5 4 7 4
14 19 17 33 4 25 4 25 6 -2 0 -16 5 -28 11 -28 5 0 12 -11 16 -25 3 -14 10
-25 15 -25 5 0 9 -8 10 -17 0 -11 2 -13 6 -5 3 7 -2 23 -10 35 -20 30 -27 96
-10 90 7 -3 13 -15 13 -27 0 -26 16 -53 26 -43 4 3 2 13 -5 21 -9 11 -8 15 3
19 19 8 68 -37 55 -50 -7 -7 -5 -12 6 -17 10 -4 14 -2 9 6 -4 6 0 16 8 22 9 6
18 20 21 31 4 17 5 17 6 -4 1 -15 6 -21 15 -18 8 3 22 0 32 -8 18 -13 18 -14
0 -34 -11 -12 -14 -21 -9 -21 6 0 13 7 17 15 3 8 10 15 16 15 16 0 12 -21 -7
-35 -17 -12 -11 -35 10 -35 8 0 8 3 -1 9 -10 6 -10 10 3 21 8 7 15 18 15 25 0
8 6 15 13 18 7 2 8 8 3 13 -5 5 -11 4 -13 -3 -4 -10 -8 -9 -20 2 -12 13 -12
17 0 29 12 12 16 12 27 -4 7 -10 19 -16 27 -13 10 4 11 9 3 18 -8 9 -7 14 4
18 8 3 13 -1 12 -11 0 -9 6 -18 14 -18 8 -1 21 -2 28 -3 14 -1 17 -41 3 -41
-5 0 -12 10 -14 23 -3 16 -5 14 -6 -10 -2 -50 7 -64 38 -57 20 4 23 3 11 -5
-9 -7 -10 -11 -3 -11 6 0 15 5 18 10 7 12 45 14 45 2 0 -4 27 -6 59 -4 50 2
60 -1 64 -15 4 -17 5 -17 6 0 1 11 9 17 25 17 15 0 26 -7 29 -17 4 -17 5 -17
6 0 1 21 24 22 40 3 8 -10 9 -16 1 -19 -6 -3 -5 -4 2 -3 7 2 12 10 12 19 -1
11 7 15 27 15 30 -1 40 -22 14 -32 -8 -3 -15 -13 -14 -23 0 -14 2 -15 6 -3 3
8 12 19 19 23 8 4 14 14 14 21 0 8 14 13 40 13 35 0 40 -3 45 -29 4 -15 11
-28 16 -28 13 0 11 28 -2 32 -7 2 -5 9 5 17 14 11 16 11 16 -3 0 -19 16 -22
23 -3 4 9 7 9 18 0 9 -10 10 -13 1 -13 -7 0 -12 -7 -12 -15 0 -22 14 -18 25 7
19 41 35 33 31 -14 -2 -23 -2 -35 1 -25 2 9 10 17 16 17 8 0 8 3 0 11 -9 9 -8
16 3 27 11 11 18 12 27 3 8 -8 8 -11 -3 -11 -7 0 -11 -3 -8 -6 4 -3 18 2 32
11 30 20 35 6 7 -19 -19 -18 -18 -46 1 -46 7 0 7 4 0 12 -7 9 -2 21 19 41 l29
28 0 -30 c0 -16 5 -33 11 -37 8 -4 7 -9 -2 -16 -11 -8 -11 -9 1 -5 11 3 14 15
12 45 -3 34 -1 41 12 36 8 -3 16 -15 18 -27 2 -11 9 -22 16 -23 7 -1 8 0 2 3
-5 2 -10 13 -10 23 0 16 7 18 46 16 25 -1 47 1 50 6 3 4 9 8 14 8 15 0 7 -44
-12 -69 -10 -13 -18 -28 -18 -33 0 -13 25 13 33 35 3 9 11 17 16 17 5 0 11 7
14 14 4 11 1 13 -11 9 -12 -5 -10 -1 6 17 12 13 25 20 29 17 3 -4 1 -7 -5 -7
-7 0 -12 -4 -12 -9 0 -4 27 -8 60 -7 41 1 60 5 60 14 0 6 5 12 10 12 6 0 10
-5 10 -11 0 -6 16 -29 35 -50 19 -22 35 -33 35 -25 0 8 7 17 16 20 9 3 14 13
10 21 -9 24 14 29 36 8 13 -13 20 -35 21 -68 1 -33 7 -50 17 -52 13 -4 13 -3
0 6 -12 9 -13 12 -1 20 11 7 11 9 0 14 -12 5 -12 7 0 15 7 5 9 11 4 13 -6 2
-13 21 -16 42 -5 32 -4 35 8 23 8 -7 17 -25 21 -40 3 -14 10 -26 14 -26 5 0
11 -13 15 -30 7 -31 25 -42 25 -15 0 8 -4 15 -9 15 -5 0 -12 14 -16 30 -4 17
-11 30 -16 30 -5 0 -9 7 -9 15 0 8 4 15 9 15 5 0 11 6 14 13 2 6 2 1 0 -13 -3
-21 1 -26 17 -26 14 0 19 5 15 15 -5 12 -3 12 11 0 11 -9 12 -15 5 -17 -9 -3
-9 -7 0 -18 7 -8 7 -14 1 -14 -5 0 -12 7 -16 15 -3 8 -11 15 -17 15 -8 0 -6
-7 4 -18 10 -10 17 -24 17 -30 0 -22 18 -12 24 13 4 14 12 25 19 25 8 0 9 2 1
8 -6 4 -15 18 -19 32 -7 23 -7 23 10 7 15 -15 20 -33 24 -89 1 -5 6 -8 12 -8
8 0 8 5 -1 15 -9 10 -9 15 -1 15 6 0 11 10 11 23 0 12 5 29 10 37 9 13 11 13
20 0 5 -8 10 -27 10 -42 0 -16 5 -28 10 -28 9 0 14 23 13 58 -1 9 5 8 18 -4
10 -9 19 -23 19 -31 0 -7 5 -13 10 -13 6 0 10 -9 10 -19 0 -11 -4 -23 -10 -26
-13 -8 -13 -25 -1 -25 5 0 13 15 16 32 4 18 12 36 18 40 6 4 8 10 4 15 -5 4
-12 1 -17 -7 -7 -11 -9 -7 -7 14 1 16 9 31 17 33 13 4 13 3 0 -6 -13 -10 -13
-12 0 -21 10 -6 16 -6 18 0 6 18 20 10 31 -17 11 -29 32 -64 42 -73 3 -3 8
-12 11 -20 3 -8 5 12 4 45 -1 47 2 60 14 60 11 0 15 -11 13 -45 0 -25 1 -38 4
-30 4 8 11 18 17 22 5 4 10 23 9 44 -1 35 0 35 11 13 7 -13 19 -23 27 -21 9 1
24 -7 34 -18 17 -19 17 -21 0 -40 -22 -24 -13 -27 10 -4 11 12 14 26 10 48
l-6 31 15 -27 c8 -15 17 -38 19 -50 3 -13 4 1 3 31 -1 37 3 55 12 57 7 1 8 0
2 -3 -8 -3 -7 -9 1 -19 9 -11 9 -14 -1 -14 -9 0 -8 -6 4 -19 13 -15 16 -28 10
-57 -4 -22 -12 -43 -18 -47 -7 -6 -6 -7 4 -4 8 2 16 16 18 30 2 15 8 27 13 27
5 0 9 10 9 21 0 18 3 19 14 9 8 -6 17 -24 19 -38 3 -23 4 -22 6 7 l1 35 33
-32 c45 -44 56 -41 13 4 -21 22 -40 33 -47 28 -8 -4 -9 -3 -5 5 4 7 16 9 28 5
13 -4 24 0 33 13 13 17 14 17 33 -2 16 -17 17 -23 5 -33 -7 -7 -13 -9 -13 -3
0 5 -7 11 -15 15 -20 7 -19 3 10 -28 25 -27 46 -37 25 -11 -8 9 -8 15 -2 15
21 0 25 43 6 57 -10 7 -13 13 -7 13 28 0 56 -62 33 -73 -6 -3 -5 -4 2 -3 7 1
14 12 16 24 2 12 8 22 13 22 13 0 11 -44 -3 -58 -9 -9 -9 -12 -1 -12 7 0 15 9
18 20 7 21 20 26 30 10 3 -5 -3 -17 -15 -27 -11 -10 -20 -21 -20 -26 0 -4 15
7 34 25 26 26 34 41 32 62 l-3 28 28 -28 c19 -19 30 -41 31 -65 2 -25 7 -35
16 -32 8 3 9 10 4 17 -5 6 -12 30 -15 53 -4 35 -3 40 8 30 7 -7 16 -28 20 -45
7 -34 25 -44 25 -14 0 14 2 14 9 3 7 -11 14 -9 35 14 14 15 26 23 26 16 0 -23
19 -10 23 16 l4 28 2 -27 c0 -16 6 -28 11 -28 6 0 10 -10 10 -22 0 -36 11 -66
25 -72 9 -3 11 2 8 15 -3 10 -9 19 -14 19 -5 0 -9 20 -9 45 0 58 17 58 26 0 7
-47 24 -62 24 -21 0 13 -6 26 -12 29 -7 2 -9 8 -5 13 4 5 11 3 15 -3 9 -14 26
-5 35 17 4 12 6 12 6 -1 1 -9 7 -19 15 -22 7 -3 14 -17 14 -32 0 -15 7 -34 16
-43 20 -21 21 -3 0 26 -8 12 -11 22 -5 22 5 0 12 12 14 28 l4 27 2 -30 c1 -16
9 -39 17 -50 15 -19 15 -18 11 15 -2 19 -2 27 0 18 6 -24 19 -23 26 2 3 11 -1
27 -10 35 -8 8 -11 15 -6 15 5 0 16 -9 26 -20 9 -11 12 -20 7 -20 -6 0 -10
-13 -10 -29 0 -16 -7 -36 -15 -45 -19 -18 -19 -32 -1 -39 9 -4 12 0 9 12 -2
10 2 25 10 33 8 8 17 23 19 34 2 11 11 18 21 18 11 -1 16 4 15 14 -2 8 4 17
12 19 12 4 12 3 1 -5 -11 -8 -11 -11 0 -18 8 -5 21 -9 29 -9 8 0 24 -14 35
-32 11 -18 26 -35 34 -38 12 -5 11 -2 -1 12 -9 10 -18 29 -21 43 -2 14 -2 19
0 12 7 -19 28 -8 27 12 -2 16 -1 16 17 0 10 -9 19 -25 19 -36 0 -31 19 -20 22
14 2 17 9 33 16 34 7 1 8 0 2 -3 -14 -7 -13 -53 2 -53 6 0 -1 -14 -17 -30 -16
-16 -25 -30 -21 -30 13 0 56 52 50 62 -3 5 3 18 14 28 19 18 20 18 20 -7 0
-17 -3 -21 -9 -12 -4 7 -12 10 -16 5 -4 -5 -2 -11 5 -13 14 -5 16 -33 2 -33
-14 0 -12 -32 4 -52 11 -15 13 -12 12 28 -1 24 4 48 10 52 6 4 14 14 17 22 3
8 6 -1 7 -20 0 -19 7 -43 14 -53 12 -15 13 -9 10 43 -3 51 -2 59 10 48 8 -7
10 -14 5 -16 -16 -6 -10 -41 11 -62 26 -26 39 -26 15 0 -21 23 -13 55 11 46
12 -5 15 -2 10 11 -6 14 -2 13 17 -5 13 -12 26 -22 30 -22 14 0 7 28 -8 34 -8
3 -15 10 -15 16 0 5 9 2 20 -7 24 -21 26 -56 5 -73 -9 -7 -13 -15 -11 -17 8
-8 44 35 49 59 2 13 5 5 6 -19 0 -24 6 -43 11 -43 9 0 14 35 13 78 -1 10 2 10
14 0 10 -8 11 -14 4 -16 -14 -5 -14 -39 0 -48 8 -5 8 -8 0 -14 -9 -5 -8 -10 3
-19 13 -11 14 -6 13 31 -2 35 1 43 16 42 10 -1 17 5 17 17 0 31 17 22 24 -13
6 -32 32 -68 48 -68 5 0 2 7 -7 16 -19 20 -16 59 5 59 10 0 16 -12 18 -32 2
-18 8 -33 15 -33 8 0 8 -3 -1 -12 -15 -15 -16 -28 -2 -28 6 0 10 7 10 15 0 9
7 18 15 21 8 4 15 17 15 30 0 34 -20 30 -21 -3 0 -16 -3 -22 -6 -15 -6 16 5
62 15 62 15 0 42 -73 31 -86 -6 -8 -5 -13 3 -17 8 -3 14 5 14 20 2 23 28 52
47 53 5 0 11 -9 14 -20 3 -11 9 -20 13 -20 5 0 11 -8 13 -17 4 -17 5 -17 6 0
0 10 7 17 14 16 26 -3 37 2 37 16 0 8 -4 15 -10 15 -5 0 -10 -8 -10 -17 0 -9
-2 -14 -5 -11 -9 8 6 58 16 58 5 0 9 -6 9 -14 0 -7 7 -19 15 -26 12 -10 11
-15 -10 -35 -22 -20 -23 -24 -10 -35 8 -7 15 -19 15 -26 0 -8 5 -14 10 -14 6
0 10 7 10 15 0 8 -4 15 -9 15 -19 0 -19 31 0 49 15 14 19 25 14 42 -7 21 -6
22 9 7 18 -19 21 -44 6 -53 -13 -8 -13 -25 -1 -25 5 0 12 14 16 31 7 32 33 69
48 69 5 0 1 -7 -8 -16 -19 -19 -17 -76 3 -80 7 -1 8 0 2 3 -13 6 -13 43 -1 43
5 0 13 -9 16 -20 3 -11 11 -20 17 -20 6 0 6 -6 -2 -15 -8 -9 -8 -15 -2 -15 18
0 20 24 4 43 -9 9 -10 17 -4 17 6 0 14 9 17 20 9 29 19 25 38 -18 20 -45 21
-58 7 -65 -6 -3 -5 -4 2 -3 9 2 13 20 12 52 -1 27 1 39 3 27 5 -27 20 -30 26
-5 3 10 5 4 6 -13 1 -16 8 -38 15 -47 11 -16 13 -11 12 34 -1 38 3 52 14 55
11 3 12 2 2 -4 -9 -7 -5 -16 17 -37 21 -20 27 -34 25 -57 -3 -25 -1 -27 10
-17 10 9 11 15 2 20 -7 5 -5 11 7 20 10 8 17 20 15 27 -2 7 3 15 10 16 7 2 8
1 2 -2 -8 -3 -7 -9 1 -19 9 -11 9 -18 -1 -29 -8 -10 -9 -15 -1 -15 6 0 14 12
17 27 8 30 33 63 49 63 5 0 3 -5 -5 -11 -11 -8 -12 -12 -2 -16 6 -2 12 -10 12
-16 0 -6 7 -19 17 -29 12 -13 13 -18 3 -18 -7 0 -10 -3 -7 -6 8 -9 57 37 57
54 0 6 5 12 10 12 6 0 10 -9 10 -19 0 -11 -4 -23 -10 -26 -12 -8 -13 -25 -1
-25 5 0 12 11 15 25 4 14 10 25 15 25 16 0 19 -51 4 -66 -24 -23 -3 -16 23 9
13 12 24 27 24 34 0 6 6 14 13 16 9 4 8 8 -3 16 -9 7 -11 11 -3 11 7 0 17 -8
23 -17 10 -17 10 -17 20 0 6 9 16 17 23 17 8 0 6 -4 -3 -11 -11 -8 -12 -12 -2
-16 15 -6 16 -30 1 -35 -7 -2 -5 -9 6 -18 14 -12 16 -12 15 1 -5 30 0 59 10
59 6 0 11 -12 11 -27 1 -20 3 -23 6 -9 11 40 26 45 55 15 28 -28 36 -49 18
-49 -5 0 -10 -7 -10 -15 0 -27 18 -16 25 15 4 16 10 30 15 30 4 0 10 9 13 20
3 11 11 20 19 19 10 0 10 -2 1 -6 -15 -6 -18 -73 -3 -73 6 0 10 13 10 29 0 36
19 50 35 28 16 -22 22 -21 28 1 4 16 5 16 6 0 1 -22 17 -23 25 -3 3 8 11 15
18 15 9 0 9 -3 -2 -11 -11 -8 -12 -12 -2 -16 18 -7 15 -21 -13 -47 -23 -22
-24 -24 -8 -37 15 -12 16 -12 10 4 -4 11 0 24 13 34 11 10 20 25 20 35 0 10 4
18 9 18 11 0 21 -25 21 -56 0 -13 5 -24 10 -24 12 0 13 47 1 54 -5 3 -11 15
-14 27 -5 19 -4 19 11 6 9 -8 22 -13 28 -11 5 3 21 -7 34 -21 13 -14 28 -25
32 -25 5 0 2 7 -6 16 -9 8 -16 21 -15 27 0 9 2 8 6 0 6 -17 30 -17 37 0 5 9 7
9 12 0 4 -9 11 -10 23 -4 9 5 23 6 31 1 7 -4 19 -6 25 -3 8 2 15 -9 19 -30 4
-19 13 -40 21 -47 20 -16 19 0 -1 28 -22 32 -9 40 20 13 l24 -22 0 26 c0 50
21 48 25 -2 2 -33 22 -34 32 -2 4 10 10 19 15 19 11 0 21 -30 15 -41 -4 -5 1
-6 10 -3 11 5 13 10 5 19 -8 9 -6 14 5 19 10 4 15 -1 15 -14 0 -11 5 -20 11
-20 8 0 7 -5 -1 -15 -7 -9 -10 -18 -6 -22 11 -12 19 6 18 42 l-1 35 31 -35
c17 -20 33 -33 36 -30 3 3 -4 14 -16 25 -12 12 -22 26 -22 33 0 8 3 7 9 -2 8
-12 12 -12 25 -2 18 15 36 6 36 -18 0 -10 7 -24 15 -31 13 -11 14 -8 9 21 l-5
34 22 -25 22 -25 -6 23 c-5 23 -5 23 13 7 20 -18 17 -40 -6 -49 -8 -3 -14 -10
-14 -16 0 -6 13 1 28 17 24 23 27 30 15 41 -7 7 -13 14 -13 15 0 1 21 2 46 2
39 0 48 -4 55 -21 12 -35 29 -39 25 -7 -2 15 -1 22 1 16 4 -13 16 -17 40 -14
6 1 13 -4 16 -11 2 -7 2 -2 0 12 -2 18 -1 21 6 11 5 -8 14 -10 21 -6 10 6 12
1 8 -18 -3 -18 -1 -24 8 -20 7 2 14 14 16 26 3 19 4 19 15 -4 6 -13 14 -36 17
-51 4 -16 11 -28 17 -28 8 0 8 4 2 13 -6 6 -13 30 -16 52 -4 25 -3 35 3 26 7
-12 11 -13 24 -1 19 15 35 5 19 -11 -8 -8 -6 -16 8 -30 24 -24 37 -25 15 0 -9
10 -14 25 -10 35 9 23 24 20 25 -6 0 -16 2 -18 6 -8 9 22 25 30 42 21 9 -4 28
-6 43 -5 21 2 27 -3 32 -22 4 -14 4 -29 1 -34 -3 -6 1 -7 9 -4 8 3 18 19 21
35 8 35 29 34 31 -1 1 -13 7 -26 13 -28 6 -2 11 -11 12 -20 0 -12 2 -13 6 -4
3 7 -3 22 -13 33 -9 10 -12 19 -6 19 6 0 13 8 15 18 4 13 5 11 6 -5 0 -13 6
-23 11 -23 6 0 11 10 11 23 1 16 2 18 6 5 2 -10 9 -18 15 -18 6 0 6 -6 -2 -15
-19 -22 -3 -18 21 6 11 11 18 24 14 27 -3 4 -11 0 -16 -8 -9 -13 -10 -13 -6 0
7 27 32 16 34 -15 0 -16 2 -36 2 -42 1 -7 6 -13 12 -13 8 0 8 5 -1 15 -9 10
-9 15 -1 15 6 0 11 15 12 33 0 17 3 25 6 17 3 -8 12 -19 19 -23 8 -4 14 -15
14 -22 0 -8 5 -15 10 -15 15 0 12 16 -5 30 -8 7 -15 18 -15 24 0 6 4 4 10 -4
5 -8 12 -11 16 -8 3 4 15 -3 26 -15 l19 -22 -6 25 c-5 20 -4 22 5 10 9 -11 13
-12 17 -2 3 8 11 5 24 -10 20 -22 20 -23 14 -2 -5 18 -2 21 21 18 14 -1 29 -6
32 -10 4 -4 0 -5 -8 -2 -11 4 -15 -3 -16 -26 -1 -17 1 -23 3 -13 2 9 8 17 13
17 5 0 12 9 15 20 9 28 23 25 28 -7 l4 -28 2 28 c1 24 21 41 21 18 0 -5 7 -16
15 -25 18 -18 45 -11 45 12 0 15 2 15 17 -1 16 -15 15 -18 -2 -37 -16 -18 -16
-20 -2 -15 17 7 32 39 24 52 -3 5 22 9 54 9 42 1 59 -2 59 -11 0 -8 -6 -16
-12 -18 -10 -4 -10 -6 0 -6 8 -1 16 8 19 19 3 11 9 20 14 20 13 0 11 -34 -3
-48 -9 -9 -9 -12 0 -12 7 0 15 14 19 30 6 32 23 42 23 13 0 -14 2 -14 20 2 34
31 25 -7 -10 -40 -31 -29 -38 -45 -20 -45 6 0 10 5 10 11 0 6 18 30 41 52 36
36 42 39 53 25 8 -11 25 -15 55 -14 39 2 42 0 38 -20 -3 -16 0 -21 10 -17 7 3
13 13 13 22 0 13 12 16 73 16 39 0 78 -4 86 -9 8 -5 16 -4 20 2 4 6 12 7 20 3
9 -6 10 -11 2 -15 -13 -9 -15 -26 -2 -26 5 0 11 9 14 20 11 41 34 17 28 -29
-2 -11 0 -11 12 0 8 8 11 16 6 17 -5 2 -9 9 -9 16 0 8 14 13 40 13 26 0 40 -5
40 -13 0 -7 -5 -14 -11 -16 -7 -2 -5 -9 6 -18 14 -12 16 -12 15 1 -6 39 0 46
40 46 41 0 44 -3 41 -52 0 -14 1 -16 6 -5 3 8 12 19 19 23 8 4 14 14 14 21 0
8 14 13 40 13 24 0 40 -5 40 -12 0 -7 9 -20 20 -30 20 -18 20 -17 16 16 l-4
34 21 -25 c17 -22 19 -22 15 -5 -4 17 0 20 25 20 19 0 32 -6 34 -15 4 -13 3
-13 -6 0 -5 8 -14 11 -18 6 -4 -5 -2 -11 5 -13 9 -4 10 -9 2 -18 -8 -9 -6 -14
5 -19 11 -4 14 -2 9 6 -4 6 0 16 8 22 8 6 17 18 21 26 4 11 6 9 6 -6 1 -12 8
-27 17 -35 13 -11 14 -9 9 14 -8 31 8 37 24 9 6 -9 11 -12 11 -6 0 6 17 11 39
11 35 0 40 -3 56 -41 10 -22 20 -35 23 -28 2 7 -4 24 -13 38 -19 29 -13 43 10
24 12 -10 18 -10 30 0 20 17 32 5 15 -15 -8 -9 -8 -15 -2 -15 6 0 13 8 17 18
4 14 15 19 45 19 22 0 40 -4 40 -9 0 -5 5 -6 11 -2 23 14 54 9 72 -11 18 -20
18 -20 12 1 -5 18 -2 21 21 18 14 -1 29 -6 32 -10 4 -4 0 -5 -9 -2 -11 5 -15
0 -13 -15 1 -12 3 -25 3 -29 1 -5 6 -8 12 -8 8 0 8 5 -1 15 -8 9 -8 15 -2 15
6 0 13 9 17 19 6 21 40 25 63 7 8 -6 16 -6 20 0 4 5 14 8 22 8 8 -1 21 -2 28
-3 15 -1 16 -27 2 -34 -6 -3 -5 -4 2 -3 7 1 14 12 16 24 3 22 22 32 22 12 0
-7 7 -7 21 1 18 9 20 8 15 -9 -8 -23 2 -52 17 -52 7 0 7 4 -1 12 -17 17 -15
31 9 46 16 11 24 11 36 1 12 -10 16 -10 24 2 7 11 9 9 9 -8 0 -28 16 -30 23
-3 3 11 10 20 16 20 15 0 14 -43 -1 -58 -9 -9 -9 -12 0 -12 7 0 15 13 18 29 7
32 23 44 44 31 8 -5 22 -4 31 1 14 7 25 3 45 -16 32 -30 32 -30 30 -9 -2 23
21 29 27 7 4 -14 5 -13 6 5 0 12 5 22 10 22 14 0 23 -34 14 -56 -6 -18 -6 -18
10 -2 20 20 22 38 5 38 -9 0 -9 3 1 9 19 12 38 4 44 -20 3 -10 11 -19 19 -18
10 0 10 2 1 6 -17 6 -16 30 0 36 8 3 20 1 27 -3 8 -5 21 -5 30 0 9 5 22 5 30
0 7 -4 20 -6 29 -3 14 4 14 3 1 -7 -12 -9 -12 -13 -2 -17 10 -4 10 -8 1 -19
-8 -10 -8 -14 0 -14 6 0 12 6 12 13 1 6 2 17 4 22 1 6 3 16 3 23 3 21 22 13
23 -10 1 -16 3 -18 6 -6 2 9 12 16 21 16 9 0 22 0 27 2 21 5 33 -1 38 -20 3
-11 11 -20 19 -19 10 0 10 2 1 6 -15 5 -18 33 -3 33 5 0 13 -8 19 -17 5 -10
13 -14 17 -10 5 5 2 12 -6 17 -8 5 -11 12 -7 17 11 10 27 -17 27 -44 0 -13 5
-23 10 -23 6 0 10 14 10 32 l0 31 25 -23 c14 -13 28 -20 32 -17 3 4 2 7 -4 7
-6 0 -14 7 -17 16 -4 9 -2 13 5 8 6 -4 15 0 20 7 6 10 9 8 9 -8 0 -27 20 -32
20 -5 1 14 4 13 22 -8 18 -22 20 -22 16 -5 -4 17 0 20 26 20 17 -1 34 4 38 9
4 6 10 7 14 4 3 -4 -1 -14 -9 -22 -11 -12 -17 -13 -20 -3 -2 7 -8 8 -13 3 -5
-5 -4 -11 4 -13 10 -4 10 -8 1 -19 -6 -8 -8 -14 -3 -14 5 1 20 14 34 30 29 36
40 38 41 8 1 -16 3 -18 6 -6 5 21 33 32 33 14 0 -23 29 -27 47 -6 24 28 31 25
36 -12 l4 -33 1 33 c2 31 22 47 22 16 0 -14 1 -14 16 0 21 22 27 20 21 -6 l-6
-23 20 24 c13 16 19 19 19 8 0 -8 7 -17 14 -20 10 -4 13 -1 10 7 -3 8 -1 17 4
20 6 3 13 -2 16 -11 6 -15 8 -15 16 -3 12 20 60 23 60 5 0 -25 19 -26 50 -3
l30 22 31 -33 c16 -18 33 -31 36 -27 4 3 -2 12 -12 19 -10 8 -15 20 -12 28 4
10 6 9 6 -3 1 -22 17 -24 25 -3 8 22 26 18 26 -6 0 -21 0 -21 20 2 16 19 19
20 13 5 -6 -17 -5 -17 18 -3 30 19 71 17 76 -3 4 -13 3 -13 -6 0 -5 8 -13 12
-16 8 -4 -3 3 -16 14 -27 24 -24 40 -28 21 -6 -9 10 -9 15 -1 15 6 0 11 7 11
16 0 14 3 14 15 4 13 -11 13 -15 3 -21 -11 -7 -10 -9 0 -9 8 0 16 9 19 20 8
29 20 25 28 -10 7 -31 25 -42 25 -15 0 8 12 22 26 32 25 16 27 16 39 0 15 -21
25 -22 25 -1 0 14 3 14 15 4 13 -11 13 -15 3 -21 -11 -7 -10 -9 0 -9 8 0 16 9
19 20 8 29 20 25 27 -10 3 -16 11 -30 17 -30 8 0 8 5 -1 16 -11 12 -10 18 4
32 16 16 17 16 10 -3 l-7 -20 23 20 23 20 -5 -23 c-7 -27 -5 -27 18 -4 22 22
74 24 66 2 -4 -11 2 -9 18 5 13 11 20 14 16 7 -9 -15 2 -52 16 -52 6 0 5 7 -3
16 -19 24 13 45 59 39 20 -3 41 0 48 6 18 15 35 2 27 -19 -6 -15 -5 -15 10 -3
10 7 30 15 46 17 24 3 31 -1 34 -19 4 -18 4 -18 6 6 1 32 17 36 26 7 3 -11 11
-20 16 -20 5 0 9 -8 10 -17 0 -14 2 -15 6 -3 3 8 11 18 17 22 6 4 7 10 3 15
-5 4 -11 2 -15 -4 -5 -8 -11 -7 -20 3 -11 12 -6 13 30 9 33 -4 39 -3 28 6 -13
9 -13 10 0 6 9 -2 14 -13 12 -27 -4 -22 -3 -22 21 6 21 24 27 27 41 15 13 -11
19 -11 31 -1 16 14 35 6 35 -16 0 -8 4 -14 9 -14 5 0 12 -8 14 -17 3 -10 4 -3
4 16 -1 19 3 36 11 38 7 3 12 -5 13 -19 1 -14 3 -17 6 -7 5 20 53 23 53 4 0
-8 -5 -16 -10 -18 -6 -3 -5 -4 2 -3 7 1 14 12 16 24 4 27 19 29 27 3 3 -11 13
-22 22 -26 16 -5 16 -4 1 12 -14 15 -14 20 -2 31 12 11 14 10 14 -3 0 -16 15
-20 24 -6 3 5 17 9 32 9 16 0 21 -3 14 -8 -9 -6 -9 -9 1 -13 12 -5 12 -7 0
-15 -11 -8 -11 -10 0 -15 12 -5 11 -8 -1 -17 -13 -10 -13 -11 0 -7 8 2 16 16
16 33 3 59 4 64 13 64 5 0 11 -10 13 -22 3 -21 4 -21 21 -4 18 18 18 18 15 -9
-2 -18 2 -29 12 -32 12 -4 12 -3 1 5 -9 7 -10 12 -2 16 6 4 12 17 12 29 1 17
2 18 6 4 2 -9 8 -17 13 -17 5 0 11 -8 13 -17 4 -16 5 -16 6 1 1 12 6 16 16 12
8 -3 24 4 34 15 19 21 41 19 41 -4 0 -7 -4 -6 -10 3 -5 8 -13 11 -17 6 -4 -5
-2 -11 5 -13 10 -4 10 -8 1 -19 -6 -8 -9 -14 -5 -14 9 0 43 35 49 51 4 10 6 8
6 -4 1 -18 61 -87 61 -70 0 5 -9 17 -21 26 -21 19 -22 48 -1 55 7 2 12 -5 12
-19 0 -22 0 -22 14 -3 11 14 11 21 3 27 -8 6 -7 7 3 4 8 -2 13 -12 11 -23 -3
-19 -3 -19 18 0 17 16 21 16 21 4 0 -9 -7 -21 -15 -28 -9 -7 -13 -15 -11 -17
6 -6 46 34 46 46 0 17 20 23 35 11 12 -10 18 -10 30 0 16 14 35 6 35 -16 0
-27 20 -14 21 14 1 16 3 20 6 10 6 -23 12 -23 40 4 19 18 23 19 17 5 -4 -12
-2 -16 8 -12 7 3 24 -4 36 -15 l23 -21 -7 28 c-7 26 -7 27 10 10 21 -21 21
-21 42 0 15 16 16 15 9 -18 -7 -32 -6 -33 9 -14 8 11 16 29 17 40 1 18 2 18 6
2 6 -22 34 -57 46 -57 5 0 1 7 -8 16 -9 9 -15 24 -13 33 4 20 30 21 35 1 4
-13 3 -13 -6 0 -5 8 -13 11 -18 7 -10 -11 17 -27 34 -20 7 3 13 11 13 18 0 21
19 28 36 14 11 -9 18 -9 26 -1 7 7 17 12 23 12 5 0 3 -4 -4 -9 -9 -6 -16 -27
-16 -53 -1 -24 0 -35 2 -25 3 9 8 17 13 17 5 0 11 13 15 30 8 34 24 40 32 10
3 -11 9 -20 14 -20 13 0 11 14 -3 28 -6 6 -9 15 -5 19 4 4 13 1 19 -5 17 -17
26 -15 31 6 2 9 3 4 3 -12 -1 -18 5 -31 14 -33 9 -3 11 -1 4 4 -7 5 -6 16 3
33 7 14 13 19 13 12 0 -7 6 -20 14 -28 13 -12 15 -11 13 13 -2 30 23 40 30 13
4 -13 3 -13 -6 0 -5 8 -13 11 -18 6 -4 -4 0 -12 10 -17 10 -6 16 -19 14 -32
-2 -12 -2 -16 0 -9 3 6 9 12 15 12 6 0 6 6 -2 15 -8 9 -8 15 -2 15 6 0 13 8
15 18 4 13 5 11 6 -5 1 -24 21 -33 21 -10 0 6 5 19 10 27 9 13 11 13 20 0 5
-8 10 -19 10 -25 0 -5 -4 -3 -10 5 -5 8 -13 11 -17 6 -4 -5 -2 -11 5 -13 9 -4
10 -9 2 -18 -8 -9 -7 -14 4 -18 10 -4 13 -1 9 8 -3 8 2 18 11 21 9 3 16 13 16
21 0 8 5 11 10 8 6 -4 18 -1 26 6 16 13 29 6 29 -18 0 -9 7 -18 15 -20 9 -3
11 -1 4 4 -7 5 -6 16 3 33 l13 25 0 -27 c0 -16 5 -28 10 -28 6 0 10 6 10 13 0
8 8 21 18 30 17 15 18 14 17 -17 -2 -37 19 -40 30 -5 10 31 30 16 30 -23 0
-24 4 -34 13 -31 6 3 12 22 12 43 0 22 -5 40 -12 43 -7 2 1 4 19 3 17 -1 29
-4 26 -9 -7 -11 7 -47 19 -47 6 0 5 6 -2 16 -11 12 -10 18 4 32 16 16 17 16
10 -1 -6 -17 -5 -18 14 -6 11 7 18 19 15 28 -4 12 -3 13 5 3 10 -15 62 -24 62
-11 0 20 20 7 21 -13 0 -15 3 -18 6 -8 4 8 12 21 20 28 11 11 13 11 13 -2 0
-22 18 -20 23 1 2 10 3 5 1 -11 -3 -24 -2 -27 11 -16 8 7 15 19 15 27 0 12 2
12 15 -1 18 -18 19 -33 3 -39 -10 -4 -10 -6 0 -6 7 -1 16 7 19 17 4 9 11 20
17 24 6 4 7 10 3 15 -5 4 -13 1 -18 -7 -9 -13 -10 -13 -7 -1 7 24 29 25 35 2
7 -28 23 -27 24 2 1 16 2 18 6 5 2 -10 9 -18 15 -18 7 0 6 -5 -1 -14 -9 -11
-8 -15 4 -20 11 -4 14 -2 9 6 -4 6 1 17 11 24 10 8 15 17 11 21 -4 4 -12 1
-17 -7 -9 -13 -10 -13 -6 0 2 8 14 16 26 16 13 1 27 8 32 15 5 8 9 9 9 3 0
-19 28 -24 44 -9 11 11 16 12 19 2 4 -9 8 -8 16 3 8 11 11 11 11 2 0 -8 10
-12 28 -10 22 2 27 -1 26 -18 0 -14 4 -20 13 -17 7 3 13 11 13 18 0 6 10 20
22 31 12 10 18 13 14 6 -7 -12 30 -61 47 -62 5 0 2 7 -6 15 -9 8 -13 24 -10
35 6 24 29 21 27 -3 -1 -9 4 -13 12 -10 8 3 14 11 14 18 0 21 19 28 35 15 10
-8 19 -9 28 -3 23 18 57 13 57 -8 0 -10 -6 -19 -12 -19 -9 0 -8 -4 2 -10 13
-9 13 -11 0 -21 -13 -9 -13 -10 0 -6 14 4 16 9 19 50 0 10 7 17 14 16 25 -3
36 2 41 19 2 9 4 2 3 -17 -1 -21 3 -35 11 -37 7 -1 8 0 3 2 -5 3 -4 15 2 28
l12 24 22 -24 c12 -13 25 -24 30 -24 4 0 2 5 -4 11 -9 9 -5 19 15 39 27 27 41
25 55 -10 4 -12 6 -12 6 1 1 11 10 17 26 17 14 0 26 -7 28 -17 3 -10 5 -8 6 7
1 27 21 29 28 2 3 -11 9 -20 13 -20 4 0 10 -9 13 -20 3 -11 11 -20 19 -20 9 0
10 2 1 8 -6 4 -15 20 -18 35 -4 15 -11 27 -16 27 -5 0 -9 7 -9 15 0 22 17 18
23 -5 6 -25 24 -26 29 -2 2 12 13 17 34 17 32 0 37 -18 8 -29 -8 -3 -14 -11
-14 -17 0 -16 49 29 61 56 8 17 9 15 4 -7 -6 -30 2 -58 17 -58 6 0 4 7 -3 16
-11 14 -10 18 6 30 11 7 26 18 33 24 8 8 12 8 12 0 0 -6 12 -9 28 -8 21 2 28
-2 30 -19 5 -35 22 -27 23 10 1 17 3 24 6 14 6 -25 23 -21 24 6 1 16 2 18 6 4
2 -9 9 -17 15 -17 6 0 6 -6 -2 -15 -7 -8 -10 -15 -6 -15 9 0 43 35 49 51 4 10
6 9 6 -3 1 -10 6 -18 12 -18 8 0 8 -5 -1 -15 -9 -10 -9 -15 -1 -15 12 0 15 12
11 45 -2 19 -1 19 22 -2 13 -13 28 -23 34 -23 5 0 4 4 -2 8 -6 4 -15 18 -19
32 -7 23 -7 23 9 7 21 -21 21 -21 40 -1 9 8 16 11 16 5 0 -6 6 -11 14 -11 10
0 12 -7 9 -23 -5 -22 -5 -22 10 -2 9 11 11 22 6 23 -12 5 -12 32 1 32 6 0 10
-6 10 -13 0 -17 33 -15 56 4 11 9 15 9 10 1 -9 -15 2 -52 16 -52 6 0 6 6 -2
15 -16 20 -5 32 14 16 18 -15 36 -6 35 17 -1 15 -2 15 -6 0 -2 -10 -9 -18 -14
-18 -13 0 -11 19 4 34 10 11 15 11 25 0 15 -16 16 -60 2 -67 -6 -3 -5 -4 2 -3
7 1 14 12 16 23 2 11 17 33 34 49 17 16 28 23 23 16 -4 -8 1 -21 14 -34 l22
-19 -7 27 -7 28 23 -21 c12 -12 19 -26 16 -32 -5 -7 -1 -8 9 -5 9 4 19 19 22
35 3 16 9 29 14 29 8 0 14 -47 9 -79 -1 -13 1 -13 15 -1 11 9 13 16 6 18 -16
5 -14 37 3 51 11 9 14 8 12 -5 -2 -24 23 -29 31 -7 14 38 27 41 55 13 20 -20
24 -30 15 -39 -6 -6 -8 -11 -4 -11 8 0 57 49 57 56 0 2 -7 1 -15 -2 -8 -4 -15
-10 -15 -16 0 -5 -7 -2 -16 7 -15 15 -15 18 -1 32 15 15 15 14 10 -6 -4 -17
-2 -20 11 -15 9 3 16 10 16 16 0 23 31 -24 33 -50 1 -19 6 -28 15 -25 8 4 9
10 3 17 -5 6 -11 27 -15 46 -3 19 -3 29 1 21 6 -15 52 -61 61 -61 3 0 -2 8
-11 18 -18 20 -23 62 -8 62 5 0 11 -10 13 -22 2 -12 10 -23 18 -25 11 -4 12
-2 2 4 -10 7 -8 14 8 28 11 10 23 15 27 12 3 -4 14 0 24 9 15 14 17 14 15 -2
-2 -33 23 -26 27 8 l4 33 1 -32 c1 -17 -5 -38 -13 -47 -17 -17 -20 -36 -5 -36
6 0 10 6 10 13 0 28 21 36 42 15 17 -17 19 -24 9 -39 -6 -11 -7 -19 -2 -19 21
0 23 42 3 60 -24 23 -29 108 -7 117 17 6 21 33 5 33 -12 0 -13 37 -1 44 5 3
11 -12 15 -34 6 -38 26 -57 26 -25 0 8 -4 15 -10 15 -14 0 -13 33 2 48 6 6 8
15 3 19 -4 5 -10 3 -12 -4 -2 -7 -11 -9 -19 -6 -11 4 -12 9 -3 19 7 9 8 14 1
14 -6 0 -13 14 -17 30 -4 17 -11 30 -16 30 -13 0 -11 -28 3 -32 12 -4 14 -135
3 -146 -10 -10 -14 4 -17 60 -3 55 -3 56 -22 40 -18 -16 -18 -16 -14 13 3 17
3 24 1 18 -3 -7 -9 -13 -14 -13 -5 0 -9 -8 -9 -17 0 -12 -3 -14 -11 -6 -8 8
-17 5 -31 -9 -17 -17 -18 -22 -7 -30 12 -8 11 -9 -1 -5 -23 6 -22 55 2 68 14
8 18 8 14 0 -5 -7 -1 -9 9 -5 12 5 13 10 4 20 -9 11 -14 10 -32 -6 -11 -11
-24 -20 -29 -20 -4 0 -8 -8 -9 -17 0 -14 -2 -15 -6 -3 -10 25 -29 39 -43 30
-25 -16 -40 1 -40 45 0 24 5 46 10 48 6 3 5 4 -2 3 -7 -1 -14 -19 -16 -39 -2
-20 -7 -37 -11 -37 -4 0 -16 19 -26 42 -10 24 -20 37 -23 30 -2 -7 3 -23 11
-35 12 -19 12 -24 0 -35 -7 -7 -11 -18 -7 -24 4 -6 -2 -6 -15 1 -11 7 -21 16
-21 20 0 14 -25 20 -41 10 -12 -8 -12 -11 1 -20 13 -9 13 -10 0 -6 -9 2 -16
18 -18 42 -1 22 -6 42 -11 45 -4 3 -10 13 -14 23 -3 9 -12 17 -19 17 -10 0
-10 -2 0 -9 8 -4 15 -26 17 -47 1 -21 1 -32 -2 -23 -2 9 -17 29 -34 45 l-29
28 4 -32 c2 -18 -1 -35 -6 -38 -15 -10 -57 36 -50 55 5 14 4 14 -12 -1 -22
-23 -28 -23 -25 0 3 30 -1 42 -12 42 -8 0 -8 -5 1 -15 7 -8 8 -15 2 -15 -5 0
-12 -9 -15 -20 -8 -33 -24 -23 -31 20 -3 22 -11 40 -16 40 -14 0 -13 -13 2
-28 16 -16 2 -28 -16 -13 -18 15 -40 5 -32 -15 3 -7 0 -16 -5 -20 -13 -7 -59
34 -59 53 0 7 -4 13 -10 13 -5 0 -10 -7 -10 -15 0 -8 5 -15 10 -15 6 0 10 -7
10 -15 0 -8 -4 -15 -10 -15 -5 0 -10 6 -10 13 0 7 -9 13 -20 13 -11 0 -20 -6
-20 -13 0 -20 -17 -15 -23 7 -6 25 -24 26 -30 3 -3 -11 -5 -7 -6 10 -1 25 -9
31 -37 28 -7 -1 -14 8 -17 19 -3 11 -11 20 -19 19 -10 0 -10 -2 0 -6 6 -2 12
-11 12 -18 0 -7 -6 -15 -12 -18 -7 -2 -9 -8 -5 -13 4 -5 12 -2 16 5 6 9 9 5 9
-12 0 -23 -2 -24 -19 -9 -11 9 -19 21 -19 26 0 5 -7 17 -15 27 -14 15 -14 18
0 32 17 17 20 37 6 37 -5 0 -12 -11 -15 -25 -4 -14 -11 -25 -17 -25 -6 0 -3
-7 5 -16 9 -8 15 -25 15 -37 -1 -17 -2 -18 -6 -4 -6 22 -12 22 -29 0 -12 -17
-14 -17 -33 4 -22 24 -27 43 -11 43 16 0 12 27 -6 34 -8 3 -13 2 -10 -3 8 -13
-5 -71 -15 -71 -5 0 -9 8 -9 18 0 11 -9 27 -20 37 -12 11 -20 13 -20 6 0 -6 7
-14 15 -17 15 -6 21 -34 7 -34 -4 0 -15 9 -25 20 -17 20 -42 18 -50 -3 -2 -7
-3 1 -1 16 3 26 2 27 -12 12 -9 -9 -16 -27 -16 -40 0 -23 -1 -23 -34 9 -19 18
-34 38 -34 45 0 6 -4 11 -10 11 -16 0 -12 -22 7 -35 17 -12 11 -35 -10 -35 -7
0 -6 4 3 10 13 9 13 11 0 19 -10 7 -17 6 -22 -2 -4 -6 -10 -8 -15 -4 -4 5 -1
12 7 17 8 5 11 12 8 16 -4 3 -17 -5 -30 -19 -19 -20 -25 -22 -36 -11 -15 17
-15 37 0 52 7 7 8 12 2 12 -6 0 -20 -19 -32 -42 l-22 -43 0 32 c0 17 -5 35
-11 39 -8 5 -8 8 0 14 9 5 8 10 -3 20 -14 11 -15 7 -11 -36 2 -27 2 -43 -2
-35 -6 15 -52 61 -61 61 -3 0 3 -9 12 -19 13 -15 14 -20 4 -24 -7 -2 -9 -8 -5
-13 4 -5 13 -2 18 6 9 13 10 13 7 1 -7 -24 -29 -25 -35 -2 -7 27 -23 27 -30 1
-6 -24 -23 -27 -23 -4 0 8 -5 12 -11 9 -5 -4 -19 1 -30 11 -21 18 -25 49 -9
57 6 3 5 4 -2 3 -8 -2 -13 -19 -12 -47 1 -24 -1 -36 -3 -26 -6 22 -29 16 -27
-7 2 -16 1 -16 -17 0 -10 9 -18 24 -18 33 1 13 2 13 6 -1 2 -10 9 -18 14 -18
16 0 10 20 -14 43 -13 12 -27 29 -30 37 -4 12 -6 12 -6 1 -1 -8 6 -23 16 -33
9 -10 11 -18 5 -18 -6 0 -13 -8 -15 -17 -4 -14 -5 -12 -6 5 0 12 -5 22 -11 22
-10 0 -14 -21 -11 -48 1 -8 -5 -7 -18 5 -12 10 -21 22 -21 28 0 5 4 3 10 -5 5
-8 13 -11 17 -6 4 5 2 11 -5 13 -10 4 -10 8 -1 19 7 8 7 14 1 14 -5 0 -12 -7
-16 -15 -3 -8 -10 -15 -16 -15 -14 0 -13 27 3 33 9 4 9 6 -1 6 -7 1 -16 -7
-19 -16 -4 -10 -13 -24 -20 -31 -11 -11 -13 -9 -13 11 0 14 -6 27 -13 30 -8 3
-12 -6 -12 -26 0 -16 -6 -31 -13 -33 -7 -1 -8 0 -2 3 14 7 13 28 -2 41 -9 7
-17 5 -28 -6 -13 -14 -12 -15 3 -9 11 4 16 3 12 -3 -9 -15 -25 -12 -32 6 -3 8
4 25 17 40 30 31 21 31 -14 -1 -14 -13 -26 -34 -27 -47 0 -23 0 -23 -9 -2 -5
12 -14 25 -21 30 -9 5 -10 2 -5 -11 5 -15 4 -16 -9 -5 -20 16 -9 33 17 24 14
-4 18 -3 13 5 -4 7 38 56 104 122 61 61 111 115 111 120 0 5 9 18 21 30 17 17
37 22 117 26 54 2 108 10 122 16 29 13 60 42 60 56 0 5 56 12 125 16 69 4 125
11 125 16 0 5 34 9 75 9 43 0 75 -4 75 -10 0 -5 18 -10 40 -10 22 0 40 4 40 9
0 4 19 11 41 14 23 3 45 10 48 16 4 5 26 13 49 17 48 8 57 24 12 24 -16 0 -30
-4 -30 -10 0 -5 -11 -10 -25 -10 -14 0 -25 5 -25 10 0 6 -6 10 -14 10 -8 0
-16 5 -18 10 -6 20 -77 24 -97 6 -16 -15 -19 -15 -35 3 -18 19 -17 20 10 26
53 12 49 13 -43 14 -51 1 -125 -4 -165 -9 -40 -6 -143 -15 -228 -20 -251 -16
-437 -29 -560 -41 -63 -6 -203 -15 -310 -19 -315 -13 -643 -30 -820 -41 -91
-5 -284 -14 -430 -19 -146 -6 -348 -14 -450 -20 -235 -12 -590 -13 -590 -1 0
12 25 21 56 21 14 0 41 7 62 16 31 12 96 16 377 18 187 2 453 8 590 15 138 6
349 16 470 22 121 5 310 14 420 19 110 5 234 14 275 19 41 6 129 10 195 11
187 0 752 55 1075 105 128 20 287 23 328 6 27 -12 31 -17 25 -40 -3 -14 -15
-39 -26 -55 -13 -18 -15 -26 -6 -21 105 65 149 106 149 138 0 11 -13 48 -29
81 -16 34 -49 105 -75 158 -25 54 -46 100 -46 102 0 3 -14 35 -30 73 -69 154
-84 189 -105 243 -9 25 -22 56 -27 70 -31 79 -68 209 -68 240 0 33 -4 38 -56
68 -65 37 -117 41 -229 18 -156 -33 -320 -46 -568 -46 -241 0 -287 5 -287 32
0 18 33 88 42 88 4 0 8 6 8 14 0 22 119 44 270 51 74 3 160 10 190 15 30 5
100 14 155 20 202 22 279 35 376 66 26 8 54 14 63 14 9 0 43 14 76 31 64 34
85 61 113 143 20 57 23 228 6 289 -8 30 -7 40 5 52 8 8 19 15 25 15 6 0 11 5
11 10 0 6 -6 10 -14 10 -8 0 -21 17 -29 38 -13 32 -13 37 0 40 8 2 12 9 9 15
-3 7 -9 20 -12 29 -17 47 -72 147 -77 141 -4 -3 -7 1 -7 10 0 10 -4 17 -10 17
-5 0 -10 5 -10 11 0 5 -16 43 -35 82 -26 54 -49 83 -90 117 -30 25 -58 53 -61
62 -7 22 -83 88 -101 88 -7 0 -13 4 -13 8 0 15 -128 64 -245 95 -111 29 -244
56 -375 77 -36 6 -87 14 -115 20 -27 5 -102 16 -165 25 -63 9 -149 23 -190 30
l-75 12 67 2 c37 0 77 -3 90 -8 13 -4 111 -11 218 -14 279 -8 192 5 -315 47
-99 8 -193 19 -210 24 -45 14 -115 53 -115 63 0 5 -17 9 -37 9 -43 0 -153 29
-153 40 0 4 -12 11 -26 14 -15 4 -33 14 -41 21 -8 9 -37 16 -66 17 -89 3 -113
5 -168 13 -55 7 -76 9 -258 20 -57 3 -107 8 -111 10 -13 8 -186 8 -234 1 -61
-11 -193 17 -301 63 -20 8 -63 25 -147 57 -24 9 -58 22 -76 30 -18 8 -37 14
-43 14 -6 0 -25 6 -42 13 -39 17 -82 32 -167 58 -36 12 -81 27 -100 34 -42 15
-166 51 -305 90 -33 9 -81 23 -106 31 -26 7 -53 14 -62 14 -8 0 -37 6 -63 14
-27 8 -85 22 -129 31 -44 9 -98 21 -120 27 -22 5 -65 14 -96 18 -31 5 -68 14
-83 20 -15 5 -41 10 -58 10 -16 0 -60 6 -97 14 -114 24 -238 46 -262 46 -13 0
-62 6 -109 14 -208 36 -611 73 -645 59 -21 -7 35 -21 175 -43 36 -6 78 -15 94
-20 16 -6 40 -10 54 -10 13 0 54 -7 91 -15 78 -17 167 -34 236 -46 28 -4 127
-24 220 -44 94 -20 191 -40 216 -45 25 -5 66 -14 90 -20 24 -6 70 -18 102 -26
31 -8 83 -20 115 -28 133 -33 189 -48 222 -58 19 -6 51 -15 70 -19 19 -4 49
-12 65 -17 17 -6 77 -25 135 -43 58 -17 141 -45 186 -60 44 -16 84 -29 88 -29
4 0 14 -7 22 -15 9 -8 24 -15 34 -15 10 0 20 -7 24 -15 5 -13 -10 -15 -97 -15
-56 1 -147 5 -202 11 -55 5 -177 12 -272 15 -136 5 -175 3 -186 -7 -12 -12
-12 -17 1 -36 25 -40 3 -53 -76 -46 -37 3 -71 9 -77 13 -5 4 -30 11 -55 15
-25 4 -65 13 -90 20 -66 18 -139 37 -185 45 -38 8 -154 34 -295 67 -36 8 -85
19 -110 23 -25 4 -65 12 -90 18 -25 6 -81 18 -125 27 -44 9 -109 22 -145 30
-36 9 -75 15 -88 15 -13 0 -51 6 -85 14 -80 18 -175 36 -257 47 -36 5 -85 13
-110 18 -25 6 -76 15 -115 21 -150 24 -261 42 -295 46 -19 3 -73 11 -120 19
-47 8 -132 21 -190 29 -58 8 -123 18 -145 21 -122 18 -272 38 -362 47 -57 7
-103 15 -103 20 0 4 -26 8 -57 8 -42 0 -54 3 -43 10 10 7 -9 8 -60 5 -73 -5
-74 -5 -40 9 l35 14 -40 1 c-38 1 -132 18 -235 44 l-45 11 40 8 c44 7 486 24
860 32 132 3 250 9 262 12 57 16 -2 21 -179 16 -123 -3 -297 1 -478 12 -157 9
-314 18 -350 20 -36 2 277 2 695 0 418 -3 843 -9 945 -14 102 -6 293 -15 425
-21 132 -6 283 -14 335 -18 l95 -7 -136 -8 c-75 -5 -142 -12 -149 -16 -15 -9
602 -16 1003 -11 158 1 287 7 287 11 0 4 -38 10 -85 11 -51 3 -89 9 -93 16 -4
6 -20 15 -35 18 -15 4 -27 11 -27 15 0 5 -13 11 -30 15 -16 4 -30 10 -30 15 0
16 -42 23 -51 9 -7 -11 -11 -11 -21 2 -7 9 -51 42 -98 74 -46 31 -89 63 -95
70 -18 23 -147 115 -161 115 -8 0 -14 5 -14 10 0 6 -6 10 -14 10 -8 0 -16 7
-20 15 -3 9 -18 15 -36 15 -16 0 -30 4 -30 10 0 5 -11 12 -25 16 -14 3 -25 10
-25 15 0 5 -7 9 -15 9 -9 0 -18 6 -21 14 -3 8 -19 18 -35 21 -16 4 -29 11 -29
16 0 5 -11 11 -24 15 -14 3 -27 12 -30 20 -3 8 -12 14 -21 14 -8 0 -15 4 -15
9 0 5 -11 12 -25 15 -14 4 -25 10 -25 15 0 5 -13 12 -30 16 -16 4 -30 11 -30
16 0 5 -7 9 -15 9 -9 0 -18 6 -21 14 -3 8 -19 18 -35 21 -16 4 -29 11 -29 16
0 5 -11 11 -25 15 -14 3 -25 10 -25 14 0 5 -13 11 -29 15 -16 3 -32 13 -35 21
-3 8 -12 14 -21 14 -8 0 -15 4 -15 9 0 5 -11 12 -25 15 -14 4 -25 10 -25 15 0
5 -13 12 -30 16 -16 4 -30 10 -30 15 0 5 -13 11 -29 15 -16 3 -32 13 -35 21
-3 8 -12 14 -21 14 -8 0 -15 4 -15 9 0 5 -13 12 -30 16 -16 4 -30 10 -30 15 0
5 -13 11 -30 15 -16 4 -30 11 -30 16 0 5 -11 11 -25 15 -14 3 -25 10 -25 14 0
5 -13 11 -30 15 -16 4 -30 10 -30 15 0 5 -13 11 -30 15 -16 4 -30 10 -30 15 0
5 -13 11 -30 15 -16 4 -30 10 -30 15 0 5 -13 11 -30 15 -16 4 -30 10 -30 15 0
5 -13 11 -30 15 -16 4 -30 10 -30 15 0 5 -13 11 -30 15 -16 4 -30 10 -30 15 0
4 -16 11 -35 14 -19 4 -35 11 -35 16 0 4 -13 11 -30 15 -16 4 -30 11 -30 16 0
5 -18 12 -40 15 -22 4 -40 10 -40 15 0 4 -16 11 -35 15 -19 3 -35 10 -35 15 0
5 -18 12 -40 15 -22 4 -40 10 -40 15 0 4 -20 11 -45 15 -25 3 -45 10 -45 15 0
4 -20 11 -45 15 -25 3 -45 10 -45 15 0 4 -22 11 -50 15 -27 4 -50 10 -50 15 0
4 -31 11 -70 15 -38 3 -70 10 -70 14 0 5 -29 12 -65 15 -36 4 -65 11 -65 15 0
4 -44 10 -97 14 -54 4 -100 11 -103 15 -3 5 -36 10 -75 13 -38 3 -58 3 -42 1
15 -2 27 -8 27 -13 0 -4 15 -10 33 -12 17 -3 55 -11 82 -18 131 -33 154 -39
215 -55 36 -9 86 -22 111 -30 26 -8 53 -15 62 -15 8 0 28 -7 43 -15 16 -8 37
-15 47 -15 9 0 25 -4 35 -9 60 -32 105 -51 121 -51 20 0 564 -270 569 -282 2
-4 8 -8 14 -8 5 0 48 -22 95 -50 47 -27 87 -50 89 -50 2 0 23 -12 47 -27 72
-47 81 -52 100 -59 9 -3 17 -10 17 -15 0 -5 6 -9 13 -9 6 0 34 -16 61 -35 27
-19 55 -35 62 -35 7 0 14 -3 16 -7 5 -11 66 -53 77 -53 5 0 11 -3 13 -7 5 -11
66 -53 77 -53 5 0 11 -3 13 -7 5 -12 66 -53 78 -53 5 0 10 -5 10 -10 0 -6 8
-14 18 -17 9 -4 22 -11 27 -15 44 -36 148 -108 155 -108 6 0 10 -4 10 -10 0
-5 20 -21 45 -36 25 -14 45 -30 45 -35 0 -5 7 -9 15 -9 8 0 15 -4 15 -9 0 -5
20 -22 45 -38 25 -15 45 -31 45 -35 0 -5 7 -8 15 -8 8 0 15 -4 15 -8 0 -5 28
-29 63 -54 34 -26 80 -62 102 -82 l40 -36 -45 0 c-43 0 -179 29 -190 40 -3 3
-31 21 -62 40 -32 19 -58 38 -58 42 0 4 -7 8 -15 8 -8 0 -15 5 -15 10 0 6 -4
10 -10 10 -5 0 -19 9 -30 20 -11 11 -26 17 -35 14 -10 -4 -15 0 -15 10 0 9 -4
16 -9 16 -5 0 -38 18 -72 40 -35 22 -75 45 -88 50 -13 6 -38 21 -55 33 -36 26
-55 37 -116 68 -25 12 -47 25 -50 28 -10 11 -46 32 -135 77 -100 50 -123 63
-143 82 -7 6 -22 12 -33 12 -10 0 -19 4 -19 10 0 5 -12 13 -27 16 -15 4 -34
13 -41 21 -7 7 -22 13 -33 13 -10 0 -19 7 -19 15 0 8 -7 15 -15 15 -8 0 -37
14 -63 30 -27 17 -54 30 -61 30 -6 0 -11 4 -11 9 0 5 -10 13 -22 17 -13 3 -34
15 -48 24 -47 33 -101 60 -119 60 -10 0 -26 9 -36 20 -10 11 -24 20 -32 20 -7
0 -13 5 -13 10 0 6 -26 22 -57 36 -32 13 -60 28 -63 32 -8 11 -117 62 -132 62
-7 0 -35 11 -63 25 -27 13 -56 25 -62 25 -7 0 -13 5 -13 10 0 6 -9 10 -21 10
-11 0 -29 5 -40 11 -11 6 -59 21 -107 34 -104 28 -241 73 -263 85 -9 5 -34 12
-55 16 -22 3 -44 11 -50 16 -7 4 -56 16 -110 25 -59 9 -107 23 -119 33 -19 17
-88 35 -188 49 -26 4 -53 13 -59 19 -7 7 -25 12 -40 12 -15 0 -28 5 -28 11 0
6 18 9 43 8 120 -7 103 6 -23 17 -581 53 -1036 72 -1825 79 -577 6 -662 8
-693 24 -30 15 -119 41 -139 41 -11 0 -39 6 -64 14 -140 43 -273 69 -369 71
-299 9 -806 12 -920 6z m490 -111 c52 -5 131 -12 175 -16 44 -3 85 -9 90 -14
6 -4 34 -10 64 -13 30 -4 59 -11 65 -17 5 -5 19 -10 30 -10 12 0 33 -6 48 -14
15 -8 40 -17 57 -21 17 -4 31 -10 31 -15 0 -5 14 -11 30 -15 17 -4 30 -11 30
-16 0 -5 5 -9 12 -9 16 0 168 -100 168 -111 0 -5 4 -9 10 -9 26 0 293 -267
462 -461 25 -30 67 -79 94 -109 26 -30 51 -56 56 -58 4 -2 8 -8 8 -13 0 -6 10
-20 23 -32 12 -12 47 -53 77 -92 30 -38 57 -72 61 -75 16 -13 259 -341 259
-350 0 -5 3 -10 8 -10 9 0 30 -37 94 -158 34 -66 48 -105 48 -133 l0 -39 -42
6 c-24 3 -67 10 -97 15 -30 5 -78 9 -107 9 -29 0 -56 5 -59 10 -3 6 -19 10
-34 10 -24 0 -28 3 -24 24 5 22 12 25 70 32 35 3 91 3 123 0 37 -4 61 -3 65 4
3 5 1 10 -4 10 -6 0 -11 5 -11 11 0 12 -69 130 -81 139 -3 3 -9 15 -13 28 -4
12 -12 22 -17 22 -5 0 -9 7 -9 16 0 19 -56 104 -79 121 -22 15 -101 92 -101
98 0 2 -15 19 -32 38 -18 18 -58 64 -88 101 -30 37 -64 78 -75 90 -11 13 -42
51 -70 84 -27 34 -53 62 -57 62 -5 0 -8 5 -8 10 0 6 -11 21 -23 33 -13 12 -51
54 -84 92 -82 96 -317 333 -378 381 -27 21 -51 42 -53 47 -2 4 -8 7 -13 7 -6
0 -19 8 -29 18 -55 51 -251 139 -375 168 -183 42 -326 56 -612 57 -240 2 -283
4 -283 16 0 12 -2 12 -12 -1 -10 -11 -39 -17 -108 -22 -454 -29 -936 -112
-1128 -192 -18 -8 -41 -14 -50 -14 -10 0 -22 -4 -27 -8 -6 -4 -37 -18 -70 -31
-33 -12 -72 -29 -87 -37 -14 -8 -33 -14 -42 -14 -9 0 -16 -4 -16 -9 0 -5 -13
-12 -30 -16 -16 -4 -30 -11 -30 -16 0 -5 -5 -9 -11 -9 -6 0 -49 -22 -96 -50
-47 -27 -89 -50 -93 -50 -5 0 -10 -3 -12 -7 -5 -11 -66 -53 -77 -53 -5 0 -11
-3 -13 -7 -5 -12 -66 -53 -78 -53 -5 0 -10 -4 -10 -9 0 -5 -20 -22 -45 -38
-25 -15 -45 -31 -45 -35 0 -5 -4 -8 -10 -8 -5 0 -18 -8 -28 -17 -10 -10 -49
-43 -86 -73 -178 -144 -357 -322 -451 -448 -19 -26 -38 -52 -42 -57 -42 -55
-133 -252 -133 -286 0 -17 5 -20 28 -15 51 11 296 26 422 26 69 0 154 5 190
10 36 6 187 13 335 16 647 12 1236 20 1305 18 41 -1 228 -5 415 -8 418 -8 976
-35 992 -48 6 -5 67 -13 135 -18 68 -5 146 -12 173 -15 28 -3 190 -8 360 -10
171 -2 320 -7 333 -11 20 -6 41 -48 30 -59 -13 -13 -441 3 -543 21 -16 3 -129
9 -250 14 -121 5 -230 12 -243 15 -28 7 -725 34 -1082 42 -151 3 -270 10 -277
15 -9 7 -13 7 -13 -1 0 -8 -177 -11 -652 -11 -449 0 -734 -5 -913 -15 -143 -8
-314 -15 -380 -15 -66 0 -151 -5 -190 -10 -110 -14 -315 -24 -315 -14 0 4 13
22 29 39 16 16 36 51 45 77 9 26 20 56 25 65 5 10 17 36 27 58 23 48 114 189
126 193 4 2 8 8 8 14 0 5 25 35 55 66 30 31 79 83 110 115 30 31 58 57 61 57
3 0 32 25 64 55 31 31 72 66 89 79 17 13 42 35 56 50 13 14 28 26 33 26 4 0
21 14 37 30 16 17 34 30 41 30 7 0 17 6 21 13 11 18 89 77 101 77 6 0 15 6 19
13 12 20 192 141 318 214 41 23 245 124 300 148 82 35 103 43 132 49 18 4 35
12 38 17 4 5 14 9 24 9 10 0 32 7 47 15 16 8 36 15 45 15 8 0 35 6 60 14 24 7
80 21 124 31 44 9 108 23 142 31 34 8 75 14 90 14 15 0 60 7 98 15 39 8 91 15
116 15 25 0 59 4 75 10 16 5 97 14 179 20 83 5 169 13 192 16 34 5 44 3 49
-10 6 -15 8 -15 23 -2 27 25 347 28 571 6z m-658 -1986 c87 -4 155 -11 152
-15 -3 -5 -65 -6 -139 -2 -144 7 -322 -8 -387 -33 -35 -13 -38 -12 -38 4 1 49
41 63 160 57 52 -2 166 -8 252 -11z m6993 -654 c123 -12 309 -36 400 -52 33
-5 85 -14 115 -18 30 -4 75 -12 100 -18 25 -5 81 -17 125 -27 91 -19 170 -36
268 -59 37 -9 95 -22 130 -30 34 -8 82 -20 107 -26 105 -26 168 -41 207 -50
70 -15 147 -57 166 -89 21 -36 22 -83 2 -121 -25 -48 -75 -34 -75 21 1 84 9
79 -215 135 -33 8 -87 21 -120 30 -33 8 -84 19 -114 25 -29 5 -62 14 -72 19
-10 6 -28 10 -40 10 -12 0 -45 6 -73 14 -46 13 -95 24 -256 57 -110 23 -207
39 -285 49 -44 5 -100 14 -125 19 -48 10 -315 34 -365 33 -40 -1 -111 -20
-163 -44 -44 -21 -85 -20 -192 2 -25 6 -58 12 -74 14 -31 6 -66 32 -66 51 0
13 43 25 86 25 13 0 24 -4 24 -10 0 -5 15 -10 33 -9 28 1 29 2 8 8 -19 5 -21
8 -10 18 8 6 71 12 154 15 82 2 148 9 160 15 11 7 27 10 35 8 8 -2 65 -9 125
-15z m-430 -290 c17 -5 49 -14 73 -20 23 -6 42 -15 42 -20 0 -6 9 -10 21 -10
12 0 19 -5 17 -12 -3 -7 11 -26 30 -43 51 -45 112 -104 112 -110 0 -7 101
-105 109 -105 4 0 20 -13 36 -30 27 -29 28 -30 7 -30 -35 0 -162 52 -189 77
-7 6 -27 20 -45 32 -18 11 -73 64 -123 116 -57 61 -105 103 -131 114 -36 16
-84 53 -84 65 0 4 82 -12 125 -24z m676 -60 l6 -35 2 35 c1 30 3 33 13 16 6
-11 8 -40 4 -72 -6 -52 -5 -54 17 -54 13 0 27 -3 31 -7 4 -5 40 -13 79 -20
l72 -12 -75 6 c-41 3 -80 9 -86 14 -6 5 -49 12 -95 16 -83 6 -139 26 -139 49
0 7 -8 15 -17 17 -10 3 -2 5 19 6 29 1 42 8 70 41 27 34 38 40 63 38 26 -3 31
-8 36 -38z m3927 -73 c20 -12 44 -28 52 -36 10 -9 15 -10 18 -2 4 13 32 15 32
2 0 -5 -7 -11 -15 -15 -12 -4 -10 -11 11 -33 42 -45 92 -161 100 -232 8 -75
-7 -77 -26 -4 -27 103 -63 173 -122 232 -52 52 -120 83 -140 63 -8 -8 -8 -12
-1 -12 6 0 14 -25 18 -55 3 -30 10 -55 15 -55 4 0 11 -25 15 -55 3 -30 10 -57
15 -60 4 -2 11 -34 15 -70 3 -36 10 -65 13 -65 4 0 13 -12 19 -27 7 -16 29
-45 48 -66 19 -21 35 -42 35 -48 0 -5 4 -9 9 -9 5 0 19 -16 31 -35 34 -55 50
-46 50 29 0 69 6 96 22 96 23 0 -7 -215 -37 -272 -20 -35 -19 -47 4 -41 10 3
22 -1 26 -7 5 -8 -2 -11 -23 -9 -26 3 -37 -4 -72 -44 -23 -26 -48 -47 -55 -47
-7 0 -15 -5 -17 -12 -3 -7 -31 -14 -74 -16 -74 -3 -117 13 -180 68 -81 72
-171 280 -143 332 11 20 12 19 25 -18 8 -21 14 -48 14 -59 0 -11 7 -28 14 -37
12 -17 15 -17 37 5 13 12 42 45 64 72 22 28 43 52 47 55 4 3 23 27 41 53 19
26 37 44 40 40 11 -10 1 286 -11 299 -5 7 -13 27 -16 45 -4 17 -14 34 -22 37
-38 15 -143 -62 -160 -118 -4 -12 -10 -23 -14 -26 -15 -11 -42 -119 -47 -187
-4 -52 -10 -73 -19 -73 -9 0 -14 12 -14 33 0 57 58 287 73 287 4 0 7 6 7 13 0
16 67 79 100 94 60 28 140 24 198 -10z m-3326 -64 l1 -58 6 60 c5 47 8 56 15
40 5 -11 10 -46 10 -78 l1 -58 -30 5 c-16 3 -64 11 -106 17 -67 10 -76 14 -72
30 3 11 13 19 22 19 17 0 71 54 71 71 0 5 18 9 40 9 l40 0 2 -57z m4436 -331
c33 -21 -141 -42 -513 -62 -88 -5 -202 -12 -252 -16 l-93 -6 0 25 c0 16 8 31
21 37 13 7 147 14 362 19 188 4 369 8 402 9 33 1 66 -2 73 -6z m-1565 -44 c9
-5 17 -18 17 -28 0 -19 -7 -20 -117 -20 -65 1 -228 5 -363 10 -135 5 -391 12
-570 15 -342 6 -434 10 -453 22 -7 4 -3 10 13 15 36 10 1451 -3 1473 -14z
m-13957 -5 c27 -9 66 -27 86 -39 50 -32 147 -133 154 -161 4 -13 10 -23 14
-23 4 0 11 -12 15 -27 3 -15 10 -30 15 -33 5 -3 11 -19 15 -35 5 -24 2 -20
-16 15 -13 25 -25 47 -28 50 -10 9 -51 69 -51 75 0 10 -101 102 -127 116 -29
16 -40 5 -48 -51 -3 -19 -16 -78 -28 -130 -20 -86 -22 -117 -20 -323 2 -126 6
-235 11 -243 7 -12 11 -12 30 4 12 11 22 24 22 31 0 6 7 11 15 11 16 0 108 66
113 81 2 5 9 9 16 9 6 0 20 15 30 34 10 18 46 60 80 93 l62 61 11 -27 c16 -37
26 -114 14 -107 -5 4 -31 -6 -58 -22 -26 -15 -55 -31 -63 -35 -17 -8 -53 -30
-60 -37 -9 -9 -69 -50 -74 -50 -2 0 -17 -11 -32 -24 -16 -13 -42 -35 -58 -48
-24 -20 -30 -34 -33 -79 -4 -47 -2 -56 16 -67 18 -10 27 -9 59 11 34 22 191
99 287 142 22 10 43 23 47 29 4 6 8 -7 8 -29 0 -22 4 -57 9 -78 l9 -38 -112 2
c-86 2 -118 -1 -141 -13 -17 -8 -52 -26 -80 -39 -74 -34 -88 -50 -82 -96 2
-21 2 -30 0 -20 -8 33 -46 17 -63 -27 -12 -32 -6 -90 16 -173 8 -29 21 -79 30
-110 22 -83 89 -258 120 -315 7 -14 14 -33 14 -40 0 -8 8 -22 18 -32 18 -15
20 -15 46 9 37 34 44 83 18 137 -19 42 -60 132 -88 193 -36 80 -94 270 -94
304 1 15 11 -5 25 -49 14 -41 29 -84 34 -95 32 -72 41 -94 41 -104 0 -6 13
-20 28 -31 15 -11 39 -38 52 -60 14 -22 28 -40 32 -40 5 0 8 -6 8 -12 1 -17
35 -58 48 -58 6 0 13 6 16 13 3 6 3 -4 0 -23 -18 -101 -159 -274 -259 -320
-73 -33 -192 -33 -258 0 -27 14 -60 35 -73 47 -14 13 -29 23 -35 23 -5 0 -9 3
-9 8 0 4 -16 25 -35 47 -19 22 -35 44 -35 48 0 5 -7 15 -15 23 -8 9 -15 21
-15 27 0 7 12 -5 27 -26 24 -34 43 -47 43 -29 0 4 3 18 7 31 5 18 3 22 -7 16
-17 -11 -39 20 -33 45 6 24 21 26 29 5 12 -31 30 -13 48 48 23 78 79 223 117
304 16 34 29 65 29 68 0 3 11 23 25 43 29 43 31 69 9 100 -30 43 -71 15 -105
-70 -6 -16 -15 -28 -19 -28 -5 0 -11 -13 -15 -30 -4 -16 -10 -30 -15 -30 -5 0
-11 -13 -15 -30 -4 -16 -11 -30 -16 -30 -5 0 -9 -6 -9 -12 0 -15 -44 -125 -54
-135 -3 -3 -6 -15 -6 -26 0 -10 -7 -33 -15 -50 -8 -18 -21 -58 -28 -90 l-13
-59 -33 67 c-29 61 -31 69 -17 84 9 10 16 22 16 28 0 6 6 13 13 16 6 3 21 22
32 43 11 22 32 54 47 72 15 18 28 39 28 47 0 7 3 15 8 17 6 3 20 28 81 146 8
15 17 29 21 32 3 3 17 27 29 53 19 40 22 53 12 73 -6 13 -15 24 -20 24 -9 0
-79 30 -187 81 -25 12 -52 17 -70 14 -16 -3 -47 1 -69 9 -30 10 -42 11 -47 3
-4 -7 -8 21 -8 61 0 39 3 72 6 72 3 0 23 -13 43 -29 74 -58 315 -181 354 -181
23 0 27 4 27 30 0 20 5 30 15 30 11 0 15 -12 15 -45 0 -50 7 -55 35 -23 14 18
19 19 23 8 4 -16 31 -40 43 -40 13 0 17 54 5 72 -9 15 -8 21 4 28 12 7 12 12
2 22 -10 10 -15 10 -22 -2 -7 -10 -10 -11 -10 -2 0 16 -77 16 -82 0 -3 -7 -11
2 -19 20 -9 21 -27 39 -51 49 -21 9 -38 20 -38 25 0 4 -5 8 -10 8 -10 0 -56
30 -86 55 -7 6 -27 21 -45 35 -18 14 -58 46 -88 72 -61 52 -77 57 -85 31 -3
-10 -3 2 0 27 6 53 25 110 36 110 5 0 17 -13 26 -30 9 -16 20 -30 25 -30 4 0
7 -7 7 -15 0 -8 5 -15 10 -15 6 0 19 -19 29 -42 16 -36 81 -108 98 -108 3 0
22 -13 43 -30 21 -16 40 -30 43 -30 4 0 23 -11 43 -25 20 -14 40 -22 45 -19 4
2 6 28 4 57 -3 29 -12 135 -20 237 -15 192 -22 248 -35 265 -5 6 -8 48 -7 95
2 100 -5 118 -37 97 -72 -48 -149 -136 -201 -232 -21 -38 -26 -43 -20 -20 3
16 10 32 13 35 4 3 18 27 32 54 26 50 127 161 169 185 43 24 125 50 162 50 19
1 58 -6 85 -16z m8040 -123 c71 -12 174 -43 174 -51 0 -4 12 -10 27 -14 15 -3
30 -10 33 -13 8 -11 68 -52 76 -52 9 0 194 -185 194 -195 0 -4 13 -24 28 -44
16 -20 32 -43 35 -51 4 -8 16 -28 26 -45 20 -30 53 -95 76 -150 7 -16 19 -46
27 -65 29 -68 71 -222 94 -345 25 -138 23 -476 -5 -614 -12 -57 -23 -107 -26
-111 -3 -5 -9 -28 -14 -52 -27 -126 -155 -378 -240 -471 -67 -74 -102 -107
-111 -107 -5 0 -10 -4 -10 -9 0 -10 -85 -66 -140 -91 -87 -41 -112 -49 -198
-61 -74 -10 -104 -10 -159 0 -91 17 -175 46 -223 76 -22 14 -42 25 -46 25 -12
0 -89 64 -145 120 -96 97 -198 250 -248 370 -12 30 -26 64 -31 75 -5 11 -18
52 -30 90 -12 39 -26 78 -31 87 -5 10 -9 28 -9 41 0 12 -7 50 -16 82 -23 88
-33 401 -18 545 17 155 52 317 80 372 8 14 14 34 14 45 0 10 7 27 15 37 8 11
15 28 15 38 0 10 4 18 9 18 5 0 12 14 16 30 4 17 10 30 14 30 3 0 12 12 18 28
15 33 27 51 80 123 175 234 415 349 649 309z m-6296 -1579 c0 -5 86 -12 190
-16 105 -4 190 -11 190 -15 0 -4 87 -10 193 -14 105 -4 194 -12 195 -17 2 -5
40 -9 85 -9 45 0 112 -3 150 -7 57 -5 67 -9 67 -25 0 -15 -4 -17 -18 -9 -10 5
-24 6 -32 1 -8 -5 -22 -4 -32 1 -12 7 -18 6 -18 -1 0 -15 -42 -2 -57 18 -7 8
-16 12 -20 7 -5 -4 -2 -10 5 -12 28 -11 8 -18 -47 -18 -32 0 -57 3 -54 7 2 5
-8 3 -22 -2 -35 -13 -35 -13 -36 13 0 15 -2 17 -6 7 -9 -23 -25 -30 -44 -19
-11 6 -19 5 -21 -2 -2 -7 -12 -7 -29 -1 -14 6 -32 6 -40 2 -17 -10 -33 -2 -42
20 -4 10 -6 8 -6 -7 -1 -17 -7 -21 -28 -20 -16 1 -31 7 -35 12 -5 7 -10 7 -15
0 -10 -13 -36 -13 -45 -1 -4 6 -12 6 -20 0 -16 -13 -58 -16 -58 -4 0 5 5 12
10 15 12 8 13 25 1 25 -5 0 -12 -11 -15 -24 -4 -17 -13 -23 -31 -23 -14 0 -25
5 -25 11 0 8 -2 8 -8 0 -9 -14 -43 -14 -60 -1 -9 7 -18 4 -32 -8 -13 -11 -20
-14 -20 -6 0 7 -5 9 -10 6 -6 -4 -18 -1 -26 6 -11 9 -18 8 -34 -6 -14 -12 -20
-14 -20 -5 0 10 -3 10 -15 0 -12 -10 -15 -10 -15 4 0 9 -4 16 -10 16 -5 0 -10
-7 -10 -15 0 -18 -12 -19 -28 -3 -9 9 -12 9 -12 -2 0 -9 -6 -8 -20 5 -20 18
-21 18 -43 -5 -19 -22 -22 -22 -25 -7 -3 15 -6 16 -19 5 -12 -10 -18 -9 -29 7
-13 18 -14 18 -14 1 0 -16 -2 -17 -17 -5 -15 12 -16 12 -10 -3 4 -13 2 -15
-11 -11 -9 4 -20 11 -25 17 -5 7 -11 5 -18 -6 -12 -22 -29 -23 -29 -3 0 8 5
15 12 15 6 0 8 3 5 7 -4 3 -17 -4 -30 -17 -19 -21 -22 -22 -25 -7 -4 21 -11
22 -27 0 -13 -18 -35 -10 -35 13 0 8 -4 14 -10 14 -5 0 -10 -10 -10 -22 0 -20
-1 -21 -20 -3 -17 15 -20 16 -20 3 0 -10 -9 -15 -25 -15 -15 0 -25 5 -25 14 0
12 -3 11 -17 -3 -12 -12 -18 -13 -21 -4 -3 7 0 15 5 19 5 3 12 14 16 24 5 15
20 17 107 17 57 0 100 4 100 10 0 5 28 10 63 12 59 3 62 4 65 31 3 27 4 27 83
27 43 0 79 -4 79 -9z"/>
<path d="M21755 7250 c-3 -5 -36 -28 -73 -50 -157 -96 -148 -82 -105 -149 71
-111 152 -156 240 -133 24 7 57 22 73 33 41 31 90 103 97 142 5 32 2 36 -41
61 -25 15 -46 31 -46 36 0 6 -5 10 -10 10 -12 0 -73 41 -78 53 -5 11 -50 9
-57 -3z"/>
<path d="M7280 7281 c-15 -59 -17 -359 -2 -501 24 -228 42 -287 79 -264 15 9
18 22 15 70 -7 165 -6 427 2 572 l9 162 -46 0 c-45 0 -46 -1 -57 -39z"/>
<path d="M7335 6140 c-35 -55 -99 -205 -141 -330 -9 -25 -17 -77 -20 -117 -2
-39 -11 -104 -19 -145 -15 -68 -15 -73 2 -85 10 -7 23 -16 28 -20 54 -43 70
-48 170 -48 82 0 105 3 128 19 22 15 27 25 25 50 -2 25 -7 31 -25 29 -11 -1
-27 4 -33 12 -11 13 -7 15 20 15 29 0 32 2 26 23 -25 88 -36 135 -36 156 0 13
-4 38 -9 55 -28 95 -54 195 -71 271 -21 93 -36 130 -45 115z"/>
<path d="M15297 7166 c-4 -9 -9 -120 -12 -248 -8 -294 24 -715 57 -755 14 -18
83 -16 98 2 8 10 10 32 5 72 -8 66 -11 527 -4 773 l4 165 -71 3 c-57 2 -73 0
-77 -12z"/>
<path d="M15095 7122 c-16 -10 -32 -20 -35 -23 -3 -4 -15 -9 -28 -13 -23 -8
-212 -187 -212 -201 0 -5 -9 -18 -19 -29 -36 -40 -121 -201 -121 -231 0 -9 38
-55 85 -102 53 -54 85 -94 85 -107 0 -16 19 -34 67 -66 75 -50 98 -64 128 -79
11 -6 47 -27 80 -46 33 -19 72 -40 88 -46 15 -6 27 -15 27 -20 0 -15 37 -10
43 5 3 8 1 69 -6 135 -8 86 -15 121 -24 121 -9 0 -13 -15 -13 -44 l0 -44 -42
16 c-24 9 -59 26 -78 37 -19 12 -43 25 -53 28 -15 6 -17 13 -12 39 4 18 13 44
20 58 7 14 23 46 36 73 25 49 50 61 67 31 5 -9 18 -14 33 -12 23 3 24 7 27 87
2 62 -1 89 -13 107 -8 13 -15 36 -15 51 0 15 -7 53 -15 83 -8 30 -15 80 -15
110 0 103 -17 119 -85 82z"/>
<path d="M15583 7118 c-6 -13 -18 -59 -28 -103 -33 -158 -50 -218 -62 -231
-10 -10 -13 -86 -13 -323 l0 -311 24 0 c20 0 138 61 156 80 3 3 24 14 47 25
24 11 43 23 43 27 0 3 12 11 28 17 69 29 122 77 122 110 0 6 7 11 15 11 8 0
15 3 15 8 0 4 16 18 36 31 19 13 49 37 67 53 18 15 35 28 40 28 4 0 7 9 7 19
0 11 4 22 9 25 10 7 -8 76 -20 76 -4 0 -10 12 -14 27 -3 15 -10 30 -13 33 -13
9 -52 69 -52 79 0 5 -3 11 -7 13 -5 2 -21 22 -36 45 -34 49 -143 163 -157 163
-5 0 -13 6 -17 13 -13 20 -153 107 -173 107 -4 0 -11 -10 -17 -22z m137 -288
c0 -5 19 -8 43 -8 71 1 124 -13 161 -44 44 -36 45 -57 6 -86 -16 -13 -29 -26
-29 -30 3 -21 -3 -32 -17 -32 -22 0 -43 -29 -44 -60 -1 -14 -7 -38 -15 -55
-13 -29 -13 -27 -14 41 -1 65 -3 73 -26 88 -13 9 -31 16 -39 16 -9 0 -18 12
-22 28 -3 15 -16 50 -29 77 -13 28 -19 52 -14 53 5 2 9 10 9 18 0 8 6 11 15 8
8 -4 15 -10 15 -14z"/>
<path d="M14624 6452 c-30 -19 -61 -199 -40 -227 15 -20 310 -165 436 -214 75
-30 89 -36 133 -55 21 -9 44 -16 52 -16 22 0 44 28 56 72 18 70 -1 94 -122
156 -137 71 -163 86 -167 95 -2 4 -8 7 -14 7 -13 0 -132 71 -136 82 -2 4 -9 8
-15 8 -7 0 -46 23 -86 50 -80 53 -80 54 -97 42z"/>
<path d="M16050 6369 c-36 -17 -85 -40 -110 -51 -75 -35 -233 -114 -270 -136
-19 -12 -56 -32 -81 -44 -33 -16 -50 -32 -58 -54 -16 -44 -14 -101 6 -130 14
-23 22 -25 53 -20 21 3 50 13 66 21 16 8 37 15 47 15 9 0 17 4 17 10 0 5 16
12 35 16 19 3 38 10 41 15 3 5 13 9 22 9 9 1 35 9 57 20 22 11 47 19 56 20 9
0 30 7 45 15 16 8 39 15 52 15 12 0 22 4 22 9 0 6 20 13 45 17 25 3 45 10 45
14 0 5 13 11 28 15 44 9 53 33 40 107 -6 34 -19 82 -29 106 -23 52 -39 53
-129 11z"/>
<path d="M14550 5953 c0 -213 67 -525 151 -697 26 -54 42 -63 47 -28 2 13 10
22 20 22 18 0 52 33 52 50 0 6 3 10 8 10 4 0 18 18 31 40 16 25 34 41 52 45
15 3 30 14 33 23 3 9 14 29 23 44 106 161 121 188 103 178 -17 -9 -22 -7 -30
15 -7 19 -17 25 -38 25 -28 0 -29 2 -36 61 -3 34 -6 93 -6 130 l0 69 30 0 c17
0 30 -4 30 -9 0 -5 15 -13 33 -16 36 -8 70 -29 61 -38 -3 -3 3 -3 15 0 18 4
21 1 21 -23 -1 -16 -7 -47 -15 -69 -8 -22 -15 -49 -15 -60 1 -17 5 -14 29 14
43 52 75 116 68 135 -4 9 -24 24 -44 32 -21 8 -46 19 -55 24 -10 6 -26 10 -36
10 -10 0 -22 4 -28 9 -5 5 -40 21 -79 34 -38 14 -95 35 -125 46 -44 17 -60 19
-85 10 -23 -9 -42 -8 -84 5 -30 9 -72 16 -93 16 l-38 0 0 -107z"/>
<path d="M15290 6046 c0 -8 4 -17 8 -20 5 -3 7 -30 4 -61 -3 -43 -1 -55 10
-55 25 0 59 48 69 100 6 34 7 33 8 -13 1 -32 6 -49 16 -53 8 -4 15 -11 15 -18
0 -14 35 -37 44 -29 12 12 6 103 -6 103 -7 0 -2 9 12 20 21 16 23 21 12 32
-11 11 -16 10 -26 -5 -12 -15 -15 -15 -26 -2 -18 21 -86 20 -99 -2 -10 -17
-10 -17 -11 0 0 9 -7 17 -15 17 -8 0 -15 -6 -15 -14z"/>
<path d="M15890 5985 c-71 -25 -106 -37 -135 -45 -37 -10 -89 -29 -132 -47
-17 -7 -36 -13 -42 -13 -15 0 -24 -44 -17 -77 4 -16 20 -55 35 -88 132 -277
182 -366 211 -377 25 -9 67 -52 127 -130 21 -27 41 -48 45 -48 4 0 8 -4 8 -10
0 -12 37 -50 48 -50 8 1 82 152 82 169 0 6 4 11 9 11 5 0 12 18 16 40 4 22 10
42 15 45 5 3 11 24 15 47 4 23 11 49 16 58 23 44 51 291 47 420 l-3 85 -123
-3 c-99 -3 -128 0 -147 12 -28 18 -28 18 -75 1z"/>
<path d="M15223 5778 c-27 -30 -119 -167 -134 -202 -7 -14 -16 -26 -21 -26 -4
0 -8 -5 -8 -11 0 -6 -20 -44 -44 -84 -24 -39 -47 -82 -50 -93 -4 -12 -11 -22
-16 -22 -5 0 -11 -13 -15 -30 -4 -16 -11 -30 -16 -30 -5 0 -9 -6 -9 -14 0 -8
-14 -42 -31 -77 -33 -66 -46 -123 -35 -161 9 -35 79 -108 103 -108 16 0 23 8
28 30 4 17 11 30 16 30 5 0 9 8 9 18 0 9 6 29 14 44 8 15 17 40 21 57 4 17 11
31 16 31 5 0 9 5 9 11 0 15 32 83 117 254 99 198 120 235 139 250 24 17 24 93
1 128 -22 34 -65 36 -94 5z"/>
<path d="M15467 5769 c-40 -44 -32 -122 27 -279 68 -179 80 -204 170 -390 110
-225 125 -250 154 -250 23 0 112 95 112 121 0 21 -55 145 -71 159 -8 8 -73
120 -95 165 -10 22 -22 42 -26 45 -3 3 -10 18 -13 33 -4 15 -11 27 -15 27 -5
0 -11 14 -15 30 -4 17 -10 30 -15 30 -5 0 -11 14 -15 30 -4 17 -11 30 -16 30
-5 0 -9 5 -9 11 0 11 -28 75 -56 131 -8 14 -14 34 -14 43 0 9 -7 32 -16 51
-13 26 -22 34 -43 33 -14 0 -34 -9 -44 -20z"/>
<path d="M15340 5621 c-40 -78 -160 -322 -182 -370 -11 -24 -25 -82 -30 -130
-5 -47 -14 -102 -19 -121 -21 -69 -36 -175 -28 -191 4 -8 25 -24 46 -35 21
-10 40 -22 41 -26 2 -5 11 -8 20 -8 10 0 31 -7 47 -16 23 -13 62 -17 165 -19
103 -1 108 -1 22 2 -102 3 -113 5 -101 19 11 14 8 15 -26 8 -30 -5 -36 -4 -30
6 6 10 3 12 -13 8 -15 -4 -22 -2 -22 8 0 8 -6 14 -12 14 -7 0 -33 14 -58 30
-37 24 -41 30 -22 30 12 0 22 -4 22 -10 0 -5 17 -12 38 -16 20 -4 39 -10 42
-15 3 -4 48 -14 100 -22 80 -12 109 -12 184 -1 49 7 94 18 100 24 5 5 18 10
28 10 11 0 18 7 18 19 0 18 -5 19 -68 14 -58 -5 -71 -3 -87 13 -18 19 -18 19
1 22 51 7 134 27 134 32 0 3 -11 37 -25 75 -14 39 -30 102 -35 140 -6 39 -19
87 -30 108 -11 21 -20 46 -20 55 0 10 -4 22 -8 28 -5 5 -26 61 -46 124 -20 63
-41 124 -46 135 -5 11 -14 39 -20 63 -9 34 -15 42 -33 42 -16 0 -29 -13 -47
-49z"/>
<path d="M13800 10933 c0 -10 36 -13 158 -14 86 0 180 -5 207 -10 46 -9 155
-23 395 -48 52 -6 109 -11 125 -13 17 -1 35 -5 40 -8 11 -8 135 -22 177 -21
15 1 29 -3 33 -9 8 -13 55 -13 55 -1 0 5 -26 13 -57 17 -32 3 -62 10 -68 14
-5 5 -57 11 -115 15 -58 4 -107 11 -110 16 -3 4 -51 11 -108 15 -56 4 -102 10
-102 14 0 4 -60 11 -132 15 -73 4 -135 11 -138 16 -3 4 -85 9 -183 11 -139 3
-177 1 -177 -9z"/>
<path d="M23109 7173 c-14 -3 -15 -18 -11 -101 5 -107 -8 -152 -71 -237 -4 -5
-23 -31 -42 -57 -19 -26 -35 -50 -35 -54 0 -4 34 -4 77 0 l76 7 -49 -39 c-105
-84 -140 -148 -131 -243 3 -34 9 -65 14 -68 8 -6 74 -138 113 -226 12 -27 35
-78 51 -112 16 -35 29 -69 29 -77 0 -8 6 -27 14 -43 27 -52 46 -101 46 -117 0
-23 21 -20 27 4 3 11 9 20 13 20 5 0 11 27 15 60 4 33 11 60 15 60 4 0 11 27
15 60 4 33 10 60 15 60 4 0 11 32 14 70 4 39 11 70 15 70 5 0 12 29 16 65 3
36 10 67 14 70 5 2 12 33 15 67 4 35 13 66 19 70 9 6 9 10 -2 17 -11 7 -11 9
0 13 10 3 15 30 17 91 2 48 8 87 13 87 5 0 9 20 9 45 0 25 -4 45 -10 45 -5 0
-10 -7 -10 -15 0 -10 -8 -6 -25 10 -13 14 -32 25 -42 25 -14 0 -15 2 -4 9 11
7 8 17 -15 52 -16 24 -38 62 -49 84 -11 22 -23 42 -27 45 -3 3 -10 18 -13 33
-4 15 -11 27 -16 27 -4 0 -13 18 -19 40 -6 21 -15 42 -20 45 -6 3 -10 15 -10
26 0 19 -14 22 -51 12z"/>
</g>
</svg>
