<?xml version="1.0" standalone="no"?>
<!DOCTYPE svg PUBLIC "-//W3C//DTD SVG 20010904//EN"
 "http://www.w3.org/TR/2001/REC-SVG-20010904/DTD/svg10.dtd">
<svg version="1.0" xmlns="http://www.w3.org/2000/svg"
 width="2880.000000pt" height="1725.000000pt" viewBox="0 0 2880.000000 1725.000000"
 preserveAspectRatio="xMidYMid meet">
<metadata>
Created by potrace 1.16, written by Peter Selinger 2001-2019
</metadata>
<g transform="translate(0.000000,1725.000000) scale(0.100000,-0.100000)"
fill="#000000" stroke="none">
<path d="M13440 11261 c0 -5 25 -12 55 -16 30 -3 57 -10 60 -14 2 -5 70 -12
150 -16 80 -4 147 -11 150 -15 3 -4 57 -11 120 -15 63 -4 115 -11 115 -16 0
-5 23 -9 50 -9 28 0 50 4 50 9 0 9 -80 21 -142 21 -21 0 -38 4 -38 9 0 5 -54
12 -120 16 -66 4 -120 10 -120 15 0 4 -61 11 -135 15 -74 4 -135 11 -135 16 0
5 -13 9 -30 9 -16 0 -30 -4 -30 -9z"/>
<path d="M12210 11250 c-171 -10 -439 -39 -461 -50 -26 -14 -98 -11 -144 5
-22 8 -53 14 -70 13 -27 -1 -28 -1 -5 -5 14 -3 29 -9 34 -14 6 -5 20 -9 33 -9
13 0 23 -4 23 -9 0 -6 -13 -6 -32 -1 -18 4 -67 10 -108 13 -41 3 -64 3 -50 0
14 -3 30 -8 35 -13 6 -4 29 -11 53 -15 23 -4 42 -10 42 -15 0 -4 18 -10 40
-14 22 -3 40 -11 40 -16 0 -6 5 -10 11 -10 16 0 103 -43 107 -52 2 -5 9 -8 16
-8 7 0 43 -22 80 -50 37 -27 68 -50 70 -50 5 0 112 -98 165 -150 51 -51 184
-196 228 -249 15 -19 37 -46 48 -59 11 -14 35 -40 53 -59 17 -18 32 -38 32
-43 0 -6 4 -10 8 -10 4 0 26 -23 47 -52 22 -29 52 -65 68 -80 15 -16 27 -31
27 -33 0 -3 8 -13 18 -23 9 -10 42 -47 72 -83 92 -108 252 -262 310 -300 14
-9 36 -26 49 -37 l23 -21 -28 -6 c-16 -3 -37 -10 -46 -16 -39 -20 -87 -2 -186
72 -51 37 -332 311 -332 323 0 3 -16 22 -36 43 -19 21 -49 57 -66 81 -17 23
-35 42 -40 42 -4 0 -8 7 -8 15 0 8 -3 15 -8 15 -4 0 -34 34 -67 75 -33 41 -63
75 -67 75 -5 0 -8 7 -8 15 0 8 -4 15 -8 15 -4 0 -26 24 -47 53 -22 28 -50 63
-62 77 -21 24 -56 68 -153 190 -125 158 -140 174 -210 227 -104 78 -155 97
-315 123 -217 35 -649 24 -936 -25 -47 -8 -97 -15 -110 -15 -13 0 -55 -7 -94
-15 -38 -9 -104 -23 -145 -31 -41 -9 -98 -22 -126 -30 -28 -8 -59 -14 -69 -14
-9 0 -38 -7 -64 -14 -25 -8 -71 -22 -101 -30 -115 -32 -266 -79 -297 -92 -17
-8 -40 -14 -51 -14 -12 0 -23 -4 -26 -9 -3 -5 -18 -12 -33 -15 -34 -9 -187
-63 -228 -81 -16 -7 -50 -21 -75 -31 -25 -9 -73 -30 -108 -46 -34 -15 -64 -28
-66 -28 -18 0 -385 -180 -404 -197 -7 -7 -17 -13 -22 -13 -5 0 -44 -20 -86
-45 -41 -25 -78 -45 -80 -45 -2 0 -23 -12 -47 -27 -57 -37 -79 -51 -97 -60
-32 -16 -255 -166 -258 -174 -2 -5 -10 -9 -17 -9 -7 0 -15 -3 -17 -7 -1 -5
-22 -21 -45 -37 -24 -16 -43 -33 -43 -37 0 -5 -7 -9 -15 -9 -8 0 -15 -4 -15
-10 0 -5 -5 -10 -11 -10 -7 0 -41 -25 -76 -55 -35 -30 -84 -69 -108 -86 -25
-18 -45 -36 -45 -41 0 -4 -5 -8 -11 -8 -11 0 -86 -54 -104 -75 -5 -7 -15 -14
-21 -16 -30 -11 -195 -164 -236 -220 -10 -13 -18 -34 -18 -47 0 -21 2 -22 15
-12 8 7 15 19 15 26 0 8 7 14 15 14 8 0 15 4 15 9 0 23 144 171 167 171 7 0
13 4 13 8 0 5 43 40 96 78 53 38 102 75 109 82 8 6 18 12 23 12 6 0 12 3 14 8
5 11 66 52 78 52 5 0 10 4 10 8 0 7 56 46 298 204 24 15 47 28 53 28 5 0 9 4
9 8 0 4 12 13 28 20 15 6 41 20 57 31 17 11 50 30 75 43 25 13 47 26 50 29 8
10 470 242 545 273 56 24 106 47 137 63 14 7 36 13 47 13 12 0 21 4 21 9 0 5
14 12 31 16 17 4 42 13 57 21 15 8 32 14 38 14 7 0 25 7 40 15 16 8 39 15 52
15 12 0 22 4 22 10 0 5 16 12 37 16 20 4 48 13 62 20 14 8 36 14 48 14 12 0
24 4 27 9 4 5 25 12 49 16 23 4 47 11 52 15 6 4 26 11 45 15 19 4 55 13 80 21
68 20 146 40 235 59 44 9 94 21 111 26 18 5 60 13 95 18 35 5 93 14 129 20
423 67 833 64 1085 -9 125 -36 270 -109 376 -190 101 -77 302 -279 379 -382 8
-11 27 -33 43 -49 15 -16 27 -34 27 -39 0 -6 4 -10 8 -10 4 0 15 -12 24 -27
10 -16 31 -44 48 -63 17 -19 43 -53 58 -75 15 -22 30 -41 35 -43 4 -2 7 -8 7
-13 0 -5 7 -17 15 -26 8 -10 37 -49 64 -88 28 -38 55 -75 61 -82 5 -7 10 -15
10 -18 0 -8 44 -69 53 -73 4 -2 7 -9 7 -16 0 -11 9 -25 50 -73 5 -7 10 -15 10
-18 0 -8 44 -69 53 -73 4 -2 7 -8 7 -13 0 -9 36 -66 50 -79 3 -3 11 -17 17
-32 12 -26 11 -28 -9 -28 -22 0 -58 35 -58 57 0 7 -4 21 -9 31 -6 9 -20 39
-33 67 -48 104 -97 166 -148 188 -36 15 -55 32 -86 78 -21 33 -42 59 -46 59
-5 0 -8 7 -8 15 0 8 -4 15 -9 15 -4 0 -21 20 -37 45 -15 25 -32 45 -36 45 -4
0 -8 7 -8 15 0 8 -3 15 -7 15 -5 0 -21 20 -38 45 -16 24 -33 45 -37 45 -5 0
-8 7 -8 15 0 8 -4 15 -8 15 -5 0 -28 27 -52 60 -24 33 -47 60 -52 60 -4 0 -8
4 -8 9 0 26 -381 411 -406 411 -5 0 -65 41 -74 50 -16 16 -167 82 -235 103
-131 41 -172 48 -345 63 -239 20 -465 6 -830 -52 -52 -8 -120 -21 -150 -29
-30 -7 -91 -21 -135 -30 -125 -27 -201 -48 -445 -126 -91 -29 -169 -56 -174
-61 -6 -4 -19 -8 -31 -8 -12 0 -30 -7 -41 -15 -10 -8 -27 -15 -37 -15 -9 0
-25 -4 -35 -10 -9 -5 -57 -26 -107 -45 -221 -89 -751 -358 -763 -387 -2 -4 -8
-8 -14 -8 -9 0 -126 -68 -138 -80 -7 -7 -42 -29 -60 -37 -28 -13 -295 -196
-298 -204 -2 -5 -10 -9 -18 -9 -8 0 -14 -3 -14 -7 0 -5 -20 -21 -45 -36 -25
-16 -45 -33 -45 -38 0 -5 -6 -9 -14 -9 -8 0 -16 -3 -18 -7 -1 -5 -25 -26 -53
-48 -27 -21 -63 -52 -79 -67 -17 -15 -33 -28 -38 -28 -4 0 -8 -4 -8 -10 0 -5
-13 -23 -30 -40 -16 -17 -30 -35 -30 -41 0 -12 135 -6 384 17 88 8 204 14 258
14 55 0 210 6 346 14 136 8 420 17 631 21 366 6 384 5 370 -12 -43 -53 -30
-50 -305 -56 -530 -10 -1139 -30 -1144 -37 -3 -4 -61 -8 -129 -9 -69 -1 -127
-4 -130 -6 -2 -3 28 -5 67 -5 50 0 73 -4 79 -14 5 -9 37 -15 93 -19 47 -3 101
-11 120 -17 19 -5 48 -10 65 -10 27 -1 163 -58 141 -59 -5 -1 -1 -10 9 -21 17
-19 17 -20 -18 -35 -20 -8 -41 -15 -47 -15 -5 0 -10 -4 -10 -10 0 -5 -15 -10
-34 -10 -19 0 -63 -7 -98 -14 -35 -8 -81 -17 -103 -20 -22 -2 -71 -9 -110 -15
-121 -18 -248 -33 -315 -37 -36 -2 -90 -9 -120 -14 -30 -5 -104 -14 -165 -19
-60 -6 -135 -15 -165 -21 -30 -6 -80 -10 -110 -9 -31 1 -65 -3 -75 -9 -11 -5
-47 -13 -80 -17 -57 -7 -115 -31 -115 -46 0 -4 12 -9 28 -11 22 -2 28 -8 30
-35 2 -25 -1 -33 -12 -33 -9 0 -16 -4 -16 -10 0 -5 -9 -19 -20 -30 -18 -18
-18 -20 -2 -20 13 -1 11 -4 -8 -15 -14 -8 -22 -14 -17 -15 4 0 0 -14 -8 -31
-9 -17 -14 -37 -11 -46 10 -26 -21 -43 -92 -49 -87 -8 -162 2 -162 22 0 8 -5
14 -11 14 -7 0 -9 18 -6 53 7 65 29 157 38 157 4 0 10 14 14 30 4 17 11 30 16
30 6 0 7 5 4 10 -9 15 -28 -7 -54 -65 -13 -27 -29 -61 -35 -74 -6 -13 -11 -58
-11 -100 0 -65 3 -79 23 -98 20 -21 31 -23 142 -23 73 0 120 4 120 10 0 6 8
10 18 10 10 0 19 -7 19 -15 0 -8 -5 -15 -11 -15 -6 0 -6 -4 1 -11 12 -12 6
-87 -9 -106 -5 -7 -7 -21 -3 -33 4 -12 0 -26 -9 -36 -9 -8 -19 -33 -22 -55 -4
-21 -10 -39 -14 -39 -4 0 -20 -18 -35 -40 -16 -23 -57 -64 -91 -91 -53 -42
-66 -48 -83 -40 -11 6 -22 8 -25 3 -2 -4 -21 -39 -41 -77 -20 -39 -41 -74 -46
-80 -14 -14 -101 78 -93 99 3 9 33 44 65 78 32 34 59 66 59 70 0 4 6 8 13 8 7
0 20 13 30 29 13 23 17 53 17 138 0 177 -20 214 -133 251 -108 35 -120 35
-157 -1 -37 -36 -100 -129 -100 -149 0 -7 -7 -21 -14 -31 -12 -16 -14 -15 -20
15 -5 24 -2 36 14 50 11 10 20 23 20 29 0 5 10 20 23 32 25 25 40 48 62 92 9
17 19 37 23 45 32 58 42 86 42 115 0 33 -1 34 -47 40 -27 3 -60 9 -75 14 -21
7 -28 6 -28 -4 0 -7 -7 -15 -15 -19 -8 -3 -15 -12 -15 -20 0 -10 6 -13 15 -10
8 4 15 12 15 20 0 8 7 14 15 14 19 0 19 -17 0 -36 -19 -20 -19 -43 0 -50 33
-13 2 -59 -45 -66 -18 -2 -28 -12 -35 -34 -5 -16 -18 -42 -27 -56 -18 -27 -45
-95 -55 -135 -3 -13 -10 -23 -15 -23 -6 0 -8 12 -4 28 3 15 10 49 16 76 6 28
14 52 18 55 12 9 55 141 48 148 -3 4 -6 -1 -6 -9 0 -9 -7 -18 -15 -22 -8 -3
-15 -12 -15 -21 0 -8 -4 -15 -10 -15 -5 0 -13 -18 -16 -40 -4 -22 -10 -40 -14
-40 -5 0 -11 -34 -15 -75 -4 -41 -11 -75 -16 -75 -13 0 -11 -19 3 -34 13 -14
71 -6 109 15 18 9 19 4 19 -83 0 -51 -7 -124 -16 -163 -24 -101 -56 -209 -66
-220 -4 -5 -8 -17 -8 -26 0 -9 -16 -48 -36 -87 -20 -38 -37 -86 -39 -107 -5
-48 21 -183 41 -212 19 -30 11 -43 -27 -43 -16 0 -29 -4 -29 -10 0 -13 37 -50
49 -50 5 0 11 -4 13 -8 4 -10 123 -76 156 -86 17 -6 22 -3 22 12 0 10 -9 27
-20 37 -32 29 -33 51 -5 81 14 15 25 32 25 39 0 18 39 103 50 110 6 3 10 21
10 39 0 19 7 58 16 87 36 123 49 164 54 169 3 3 14 24 25 48 14 34 20 40 27
28 5 -9 15 -16 21 -16 7 0 27 -13 45 -29 l32 -30 -38 -73 c-20 -40 -40 -74
-44 -76 -5 -2 -8 -9 -8 -15 0 -7 -8 -28 -18 -47 -10 -19 -26 -62 -36 -95 -10
-33 -22 -68 -27 -77 -8 -15 -29 -162 -29 -199 0 -8 11 -22 25 -29 l24 -13 -2
-201 c-2 -260 27 -462 95 -651 6 -16 13 -56 16 -87 4 -62 -4 -71 -36 -40 -10
9 -47 42 -83 72 -114 98 -336 326 -360 371 -5 11 -15 19 -21 19 -14 0 -6 -199
9 -208 5 -4 14 -18 18 -31 8 -25 66 -91 80 -91 4 0 18 -11 30 -24 12 -13 32
-27 43 -31 12 -3 22 -11 22 -16 0 -5 6 -9 13 -9 7 0 20 -9 30 -20 9 -11 23
-20 31 -20 8 0 16 -7 20 -15 3 -8 12 -15 21 -15 8 0 15 -4 15 -10 0 -5 11 -12
24 -16 14 -3 27 -12 30 -20 3 -8 12 -14 21 -14 8 0 15 -4 15 -9 0 -5 12 -12
26 -15 43 -11 52 -28 59 -119 4 -48 11 -87 15 -87 5 0 11 -34 15 -75 4 -41 11
-75 16 -75 4 0 11 -22 15 -50 4 -27 10 -50 14 -50 4 0 11 -20 14 -45 4 -25 12
-45 18 -45 7 0 7 -5 -1 -14 -7 -9 -37 -14 -84 -16 -39 -1 -92 -3 -117 -3 -25
-1 -50 -5 -57 -10 -6 -4 -15 -3 -18 3 -5 8 -11 7 -22 -1 -12 -10 -16 -10 -24
2 -6 9 -12 10 -16 4 -5 -5 -17 -11 -28 -12 -27 -4 -303 -15 -337 -14 -16 0
-28 -5 -28 -12 0 -8 -4 -7 -11 3 -8 11 -12 12 -16 3 -3 -9 -10 -10 -24 -3 -13
7 -19 7 -19 0 0 -14 -27 -13 -33 3 -4 9 -7 9 -14 0 -6 -9 -54 -15 -144 -19
-179 -9 -172 -8 -186 -17 -8 -5 -13 -3 -13 4 0 8 -4 8 -15 -1 -12 -10 -15 -10
-15 1 0 10 -3 10 -12 1 -15 -15 -48 -16 -48 -1 0 8 -4 8 -14 0 -8 -7 -55 -14
-105 -15 -53 -2 -97 -9 -106 -16 -10 -8 -15 -9 -15 -2 0 12 -89 10 -108 -2 -7
-4 -12 -2 -12 5 0 9 -3 9 -14 -1 -10 -7 -59 -12 -135 -13 -95 -2 -121 -5 -121
-16 0 -11 -3 -11 -15 -1 -12 10 -18 10 -30 0 -8 -7 -15 -8 -15 -3 0 10 -24 10
-52 -1 -43 -15 -47 -15 -41 2 6 15 5 15 -11 3 -9 -8 -41 -15 -69 -16 -29 -1
-63 -5 -77 -9 -20 -6 -22 -5 -10 4 12 8 8 9 -15 4 -16 -4 -36 -11 -42 -17 -9
-6 -13 -6 -13 3 0 10 -3 10 -15 0 -12 -10 -15 -10 -15 0 0 10 -4 10 -16 -1
-13 -10 -17 -10 -25 2 -8 12 -11 12 -19 -2 -7 -12 -23 -15 -62 -13 -29 1 -59
-3 -67 -9 -11 -9 -15 -9 -18 1 -3 6 -9 10 -13 7 -5 -3 -25 -6 -45 -7 -19 -1
-35 -6 -35 -12 0 -6 -5 -4 -11 4 -8 11 -12 12 -16 3 -6 -17 -30 -17 -36 0 -4
8 -6 6 -6 -4 -1 -13 -11 -15 -54 -13 -36 1 -57 -3 -69 -13 -10 -9 -18 -11 -18
-5 0 6 6 13 13 16 6 3 -1 3 -18 -1 -16 -3 -35 -10 -42 -15 -7 -6 -12 -3 -15 8
-3 16 -4 17 -20 1 -19 -20 -38 -22 -38 -5 0 6 -8 4 -19 -6 -17 -16 -19 -16
-25 1 -6 15 -8 15 -16 3 -6 -9 -27 -15 -60 -16 -29 0 -55 -6 -59 -13 -6 -9
-11 -8 -21 4 -11 14 -14 13 -26 -2 -10 -13 -13 -14 -14 -4 0 11 -3 11 -15 1
-11 -9 -15 -9 -15 -1 0 8 -7 7 -22 -3 -29 -20 -38 -20 -38 0 0 14 -3 14 -16 4
-8 -8 -33 -14 -56 -15 -22 -1 -44 -8 -49 -16 -7 -11 -9 -10 -9 4 0 9 -4 17
-10 17 -5 0 -10 -7 -10 -16 0 -14 -3 -14 -15 -4 -12 10 -15 10 -15 0 0 -10 -3
-10 -15 0 -8 7 -15 8 -15 2 0 -5 -9 -12 -19 -15 -15 -4 -18 -1 -14 12 6 15 5
15 -13 0 -10 -8 -31 -14 -46 -13 -20 2 -28 -2 -28 -14 0 -15 -1 -15 -17 0 -15
16 -17 16 -29 0 -10 -12 -13 -13 -14 -3 0 11 -3 11 -15 1 -11 -9 -15 -9 -15
-1 0 7 -9 5 -25 -5 -14 -9 -28 -14 -32 -10 -3 3 -1 6 6 6 7 0 9 5 6 11 -5 6
-11 4 -19 -7 -7 -9 -17 -14 -22 -11 -6 3 -16 2 -24 -3 -7 -4 -24 -4 -38 1 -20
8 -30 5 -49 -13 -23 -21 -26 -22 -37 -6 -12 16 -14 16 -30 0 -16 -16 -18 -16
-30 1 -12 15 -15 16 -26 2 -7 -9 -19 -14 -26 -11 -7 3 -18 -2 -24 -9 -10 -12
-14 -12 -28 2 -16 16 -17 15 -20 -5 -4 -26 -17 -28 -31 -4 -9 16 -10 16 -17
-1 -6 -17 -8 -17 -25 -1 -17 15 -19 15 -19 1 0 -12 -10 -15 -43 -13 -25 1 -49
-4 -59 -12 -15 -13 -20 -13 -35 -1 -15 12 -16 12 -11 -2 3 -9 2 -22 -4 -30 -8
-11 -9 -10 -4 4 3 10 0 17 -8 17 -8 0 -16 3 -19 8 -2 4 -2 1 0 -7 2 -9 -4 -12
-21 -7 -18 4 -26 1 -29 -11 -4 -17 -5 -17 -6 0 -2 25 -21 21 -22 -5 -1 -18 -2
-19 -6 -5 -4 14 -8 16 -19 6 -11 -9 -14 -8 -14 2 -1 10 -5 9 -14 -4 -13 -17
-15 -17 -31 5 -17 23 -17 23 -12 1 3 -15 1 -20 -8 -17 -7 3 -15 -3 -18 -13 -4
-16 -5 -16 -6 0 -1 23 -22 22 -28 -3 -7 -27 -23 -25 -24 3 -1 17 -2 18 -6 4
-4 -15 -7 -16 -21 -5 -13 11 -15 11 -10 -3 5 -13 2 -16 -13 -12 -10 3 -19 10
-19 15 0 6 -7 5 -15 -2 -8 -7 -15 -19 -15 -28 0 -13 -2 -13 -18 1 -24 22 -32
21 -32 0 0 -15 -2 -16 -9 -4 -8 12 -12 10 -22 -12 -12 -26 -13 -26 -32 -10
-18 17 -19 17 -32 0 -11 -15 -14 -15 -25 -2 -17 20 -27 19 -33 -5 -3 -11 -11
-20 -19 -19 -10 0 -10 2 0 6 6 2 12 9 12 15 0 6 -6 6 -15 -2 -8 -7 -15 -19
-15 -27 0 -8 -4 -11 -10 -8 -14 9 -12 42 3 48 9 4 9 6 -1 6 -7 1 -16 -9 -21
-22 -5 -13 -17 -29 -27 -37 -10 -9 -15 -10 -10 -3 4 7 1 23 -6 35 -12 23 -12
23 -18 -7 -5 -25 -10 -30 -32 -27 -18 2 -28 -3 -31 -15 -4 -16 -5 -16 -6 -1 0
9 6 24 15 32 8 9 11 16 6 16 -14 0 -39 -32 -44 -55 -3 -16 -6 -14 -20 15 l-18
35 0 -37 c0 -46 -16 -58 -25 -18 -9 41 -23 38 -27 -7 l-3 -38 -17 35 c-14 27
-18 30 -18 14 0 -12 -6 -27 -14 -33 -12 -10 -13 -8 -9 11 7 28 0 22 -22 -17
l-17 -30 7 30 c6 29 6 29 -14 11 -12 -11 -21 -27 -21 -37 0 -10 -4 -21 -10
-24 -6 -4 -10 5 -10 19 0 14 4 26 9 26 5 0 11 9 14 19 3 14 1 18 -9 14 -8 -3
-14 -11 -14 -19 0 -7 -6 -11 -13 -8 -7 2 -22 -4 -32 -16 -10 -11 -13 -20 -7
-20 6 0 15 8 21 17 5 10 12 15 15 12 3 -3 -5 -16 -19 -29 l-25 -23 -6 31 c-8
39 -24 42 -24 5 0 -38 -10 -73 -21 -73 -5 0 -9 6 -9 13 0 7 -9 20 -20 30 -20
17 -20 16 -15 -23 l5 -41 -21 20 c-15 13 -20 28 -17 45 4 18 1 23 -10 19 -10
-4 -13 -16 -9 -44 4 -30 2 -36 -7 -26 -7 6 -15 20 -19 30 -3 9 -12 17 -19 16
-10 0 -10 -2 0 -6 14 -6 17 -63 2 -63 -5 0 -10 8 -10 18 0 9 -4 24 -9 31 -6
10 -8 -1 -4 -30 5 -43 -11 -48 -19 -5 -1 11 -9 21 -16 22 -7 1 -8 0 -2 -3 14
-7 12 -22 -5 -39 -8 -9 -15 -24 -15 -35 0 -10 -4 -19 -10 -19 -5 0 -10 9 -10
20 0 32 -28 12 -33 -23 l-4 -32 -1 33 c-1 17 -6 32 -12 32 -18 0 -11 20 16 45
14 13 24 30 21 37 -3 8 -9 2 -17 -14 -7 -16 -17 -28 -21 -28 -17 0 -51 -85
-46 -117 4 -22 1 -35 -8 -40 -7 -5 -15 -19 -17 -33 -3 -14 -4 9 -4 51 1 64 4
76 16 71 13 -5 13 -3 2 10 -10 13 -10 17 0 21 10 4 10 6 1 6 -7 1 -20 -13 -29
-30 -13 -25 -18 -29 -26 -18 -8 11 -9 10 -4 -4 3 -10 6 -23 6 -28 0 -17 20 -9
21 9 0 12 2 13 6 3 3 -8 -3 -20 -13 -28 -16 -12 -17 -15 -4 -23 10 -7 11 -10
3 -10 -7 0 -13 -11 -13 -24 0 -13 6 -26 13 -29 9 -4 9 -7 0 -17 -10 -11 -14
-5 -19 28 -8 51 -24 55 -24 6 0 -27 8 -42 33 -65 30 -28 31 -31 15 -43 -19
-14 -24 -36 -8 -36 5 0 14 9 20 20 6 11 15 20 21 20 5 0 -4 -15 -20 -32 -31
-33 -40 -58 -21 -58 6 0 10 8 11 18 0 12 3 10 10 -7 5 -13 7 -26 4 -29 -3 -3
-5 1 -5 8 0 8 -8 4 -19 -9 -21 -24 -19 -46 6 -55 11 -5 13 -14 9 -34 -5 -18
-4 -22 3 -13 5 8 9 29 9 47 0 18 3 38 8 45 11 18 22 -19 21 -68 -2 -29 2 -39
11 -36 6 3 12 16 12 29 0 13 -6 24 -12 24 -9 0 -8 4 2 10 10 6 11 13 5 18 -11
7 -36 94 -30 101 2 2 7 -8 11 -23 3 -14 10 -26 15 -26 5 0 9 -11 9 -24 0 -14
7 -32 16 -40 14 -15 17 -14 34 6 l19 23 -6 -25 c-5 -24 -5 -24 9 -6 14 18 15
18 22 -7 7 -28 26 -37 26 -13 0 7 7 19 15 26 10 9 15 9 15 1 0 -6 -4 -11 -10
-11 -16 0 -12 -18 10 -40 26 -26 28 -25 32 7 2 14 9 28 16 29 7 1 8 0 2 -3
-17 -8 -11 -48 10 -61 21 -13 28 -52 9 -52 -8 0 -8 -4 0 -14 8 -10 9 -16 1
-19 -6 -3 -5 -4 2 -3 7 1 14 13 14 25 2 35 14 37 26 3 14 -35 27 -42 30 -14 1
9 2 24 4 32 1 8 2 28 3 45 1 23 4 26 13 17 10 -10 10 -17 0 -32 -7 -12 -8 -21
-2 -25 13 -8 13 -55 0 -55 -5 0 -10 -5 -10 -11 0 -8 5 -8 15 1 8 7 15 21 15
30 0 10 6 21 13 23 9 4 8 8 -3 16 -8 6 -10 11 -5 11 13 0 45 -36 45 -50 0 -17
-18 -11 -23 8 -2 9 -4 1 -4 -17 0 -19 -5 -37 -11 -39 -7 -2 -12 -8 -12 -14 0
-6 6 -6 15 2 8 7 15 18 15 25 0 7 7 15 15 19 10 3 15 -1 15 -14 0 -10 5 -22
11 -26 8 -4 7 -9 -2 -16 -11 -8 -11 -9 1 -5 16 4 16 59 -1 65 -5 2 -9 8 -9 14
0 6 6 6 15 -2 8 -7 15 -19 15 -26 0 -8 5 -14 10 -14 10 0 14 14 10 39 -1 11 2
10 15 -3 22 -22 28 -20 22 7 -6 21 -5 21 14 -3 10 -14 23 -30 29 -37 12 -15
13 -33 1 -33 -5 0 -12 11 -15 25 -7 28 -21 33 -30 9 -3 -9 -13 -14 -21 -11 -9
4 -12 1 -8 -9 3 -7 9 -14 14 -14 12 0 11 -27 -1 -33 -6 -3 -5 -4 2 -3 7 2 13
16 13 31 0 16 6 30 13 32 6 3 12 -2 12 -10 0 -7 9 -22 20 -32 11 -10 20 -24
20 -30 0 -7 7 -15 14 -18 11 -4 13 -1 9 11 -4 9 -11 20 -16 23 -5 4 0 16 11
27 14 14 24 17 28 11 4 -6 0 -15 -7 -20 -7 -4 -11 -10 -8 -13 3 -4 19 7 35 24
16 16 33 30 37 30 5 0 1 -7 -7 -16 -9 -8 -16 -21 -16 -29 0 -7 -5 -15 -11 -17
-7 -2 -4 -10 7 -18 16 -13 17 -13 12 1 -3 9 -2 22 3 30 6 11 12 6 21 -19 14
-37 23 -41 31 -12 7 26 27 26 27 0 0 -11 -4 -20 -10 -20 -5 0 -10 -5 -10 -11
0 -8 5 -7 15 1 12 10 14 25 10 57 l-5 44 30 -30 c18 -17 37 -28 45 -24 17 6
20 19 5 26 -6 3 -5 4 2 3 7 -1 13 -12 14 -23 1 -11 4 -27 8 -34 4 -8 0 -5 -8
5 -9 11 -19 16 -23 13 -3 -4 2 -13 12 -21 12 -8 15 -18 10 -27 -5 -8 1 -5 13
5 24 20 28 41 12 49 -6 3 -5 4 2 3 9 -2 12 -18 11 -45 -1 -37 0 -41 14 -30 8
8 11 15 5 17 -7 2 -5 12 3 29 7 14 11 33 7 41 -5 14 -4 15 10 2 9 -8 12 -16 7
-18 -13 -5 -11 -29 4 -52 10 -17 9 -22 -3 -30 -11 -7 -12 -12 -4 -20 9 -9 13
-4 19 17 3 15 12 31 18 35 6 4 8 10 4 15 -5 4 -12 1 -17 -7 -6 -8 -10 -10 -10
-5 0 6 10 19 22 29 17 15 20 15 15 3 -3 -9 1 -24 11 -34 16 -16 16 -16 -2 -10
-19 8 -19 7 -1 -13 21 -23 26 -25 19 -7 -2 7 2 21 10 32 15 19 15 19 17 -10 2
-53 4 -58 17 -61 7 -1 8 0 2 3 -7 3 -5 11 5 23 10 11 15 25 12 32 -4 8 -6 7
-6 -4 -1 -10 -5 -18 -11 -18 -14 0 -12 27 3 33 9 4 8 8 -3 16 -11 7 -12 13 -4
21 9 9 13 5 18 -14 3 -14 11 -26 16 -26 6 0 10 -15 11 -32 0 -18 3 -26 6 -18
2 8 7 22 10 30 4 8 5 22 4 30 -1 11 0 12 7 2 4 -7 7 -34 6 -60 -1 -26 0 -40 3
-32 4 8 11 18 17 23 8 5 7 10 -3 16 -8 5 -10 14 -6 22 7 10 10 9 14 -4 4 -12
10 -14 21 -7 13 9 13 11 0 20 -8 5 -10 10 -5 10 15 0 45 -37 45 -56 0 -9 -6
-14 -12 -11 -7 2 -12 11 -12 20 1 9 -4 13 -13 10 -11 -4 -9 -11 9 -30 l22 -24
15 28 c8 15 14 33 13 40 -1 6 1 14 6 17 4 2 8 -7 8 -22 1 -55 4 -72 14 -72 14
0 13 37 -1 42 -7 2 -6 8 4 16 12 11 15 10 13 -4 -1 -20 21 -30 27 -12 2 7 2 3
0 -9 -1 -12 3 -26 10 -30 8 -4 17 -15 20 -23 4 -10 6 -8 4 6 -1 11 4 28 12 37
9 12 10 17 2 17 -6 0 -14 -7 -17 -15 -4 -8 -11 -15 -17 -15 -6 0 0 11 13 25
21 22 25 23 33 10 5 -9 6 -22 3 -30 -3 -9 0 -12 9 -9 8 3 16 15 18 27 3 12 3
5 2 -17 l-3 -38 35 33 c20 19 33 28 29 21 -5 -8 6 -27 30 -50 21 -20 35 -29
32 -20 -4 9 -1 22 7 28 10 8 14 7 18 -7 4 -17 5 -17 6 0 0 10 7 24 14 31 15
15 25 6 46 -39 9 -21 15 -25 19 -15 3 7 0 16 -7 18 -6 2 -9 8 -6 12 3 5 15 0
27 -12 15 -15 17 -22 8 -28 -7 -5 -9 -13 -5 -21 6 -9 10 -8 16 7 11 29 10 41
-4 56 -12 11 -12 16 1 28 14 13 15 12 9 -3 -3 -9 0 -22 7 -30 8 -7 16 -22 19
-33 3 -14 5 -13 6 7 0 15 7 31 14 37 9 8 12 0 10 -35 -2 -38 0 -43 13 -32 10
8 11 14 4 19 -7 5 -6 11 5 20 13 11 14 10 8 -6 -6 -17 -5 -17 10 -5 10 7 17 9
17 3 0 -6 -6 -12 -12 -15 -10 -3 -9 -9 4 -22 16 -17 17 -17 11 4 -4 17 -2 20
11 15 9 -3 16 -10 16 -16 0 -16 21 3 30 28 5 13 15 24 22 23 10 0 10 -2 1 -6
-7 -2 -13 -15 -13 -28 0 -13 -5 -27 -10 -30 -5 -3 -10 -10 -10 -16 0 -5 9 0
20 11 11 11 20 24 20 28 0 4 5 13 12 20 9 9 15 5 28 -16 16 -24 16 -29 2 -44
-23 -27 -9 -22 23 8 15 14 24 28 21 32 -4 3 -11 0 -16 -8 -13 -21 -12 -3 1 22
10 19 11 19 25 -8 12 -22 12 -29 2 -35 -7 -4 -10 -10 -8 -13 3 -2 16 5 29 16
21 16 23 21 10 29 -12 9 -12 10 1 6 18 -5 16 -47 -3 -59 -9 -6 -9 -8 1 -8 7 0
16 8 19 17 10 26 42 58 50 50 3 -4 1 -7 -5 -7 -17 0 -15 -17 3 -24 8 -3 21 1
28 9 13 12 15 10 15 -12 0 -17 -3 -21 -9 -12 -4 7 -11 10 -15 6 -4 -4 1 -13
11 -21 11 -8 15 -18 10 -26 -6 -9 -4 -11 4 -6 7 5 10 13 8 20 -3 6 1 20 9 31
14 18 14 18 14 -3 0 -12 5 -22 10 -22 10 0 14 21 10 49 -2 16 54 -37 63 -59 3
-8 6 0 6 18 1 39 21 43 21 4 0 -16 9 -37 20 -47 12 -11 20 -13 20 -6 0 6 -7
14 -15 17 -20 8 -19 21 2 42 16 16 16 16 10 0 -9 -25 20 -53 39 -37 16 13 19
45 4 52 -6 3 -5 4 2 3 8 -1 14 -21 16 -45 3 -42 21 -49 23 -8 0 15 2 17 6 7 8
-22 34 -50 47 -50 6 0 5 4 -3 9 -11 7 -10 12 7 29 l20 20 22 -23 c13 -14 17
-25 10 -28 -6 -3 -5 -4 2 -3 8 2 12 15 11 32 -1 16 0 22 4 14 3 -8 11 -21 17
-29 6 -7 11 -21 11 -29 0 -8 7 -17 15 -19 13 -4 13 -3 0 6 -13 10 -13 12 0 20
10 7 20 5 33 -7 16 -14 19 -14 17 -2 -6 37 0 45 17 25 15 -20 15 -20 10 3 -4
19 -3 21 9 11 8 -6 15 -23 15 -38 1 -21 2 -22 6 -6 3 11 10 23 17 28 8 5 7 10
-4 16 -8 6 -11 14 -6 18 5 4 11 2 13 -5 3 -7 14 -21 25 -32 14 -13 18 -25 13
-41 -7 -21 -6 -22 9 -7 18 19 21 38 6 38 -5 0 -10 8 -10 18 1 16 2 16 13 0 14
-18 31 -13 39 12 3 8 6 0 5 -18 0 -21 -3 -28 -8 -20 -4 7 -11 9 -16 5 -10 -11
17 -27 33 -20 7 2 15 10 17 16 2 7 3 -1 1 -16 -3 -23 -1 -26 10 -15 7 7 17 27
23 43 l10 30 13 -27 c15 -31 25 -35 34 -13 3 8 11 15 18 15 9 0 9 -3 -2 -10
-13 -9 -13 -11 0 -21 13 -9 13 -10 -2 -5 -12 3 -15 1 -11 -10 8 -22 22 -17 29
11 8 31 24 23 25 -13 1 -18 3 -21 6 -9 4 14 8 16 19 6 8 -6 14 -18 14 -25 0
-8 5 -14 10 -14 15 0 12 19 -5 36 -8 9 -14 25 -14 37 2 22 2 22 6 0 5 -27 18
-30 31 -7 8 14 10 14 21 0 7 -8 11 -21 8 -28 -4 -8 -6 -7 -6 5 -1 20 -21 24
-21 3 0 -24 29 -26 50 -4 20 22 20 22 38 2 11 -11 22 -26 25 -34 3 -8 6 0 6
18 1 47 19 39 27 -13 7 -51 20 -59 26 -16 3 22 1 28 -10 23 -10 -3 -9 2 4 16
10 12 23 22 29 22 5 0 3 -5 -5 -10 -10 -7 -11 -12 -4 -18 6 -4 13 -15 17 -24
8 -22 26 -23 33 -3 5 12 10 13 20 4 8 -6 14 -18 14 -25 0 -8 5 -14 10 -14 15
0 12 19 -5 36 -8 9 -14 23 -14 32 1 14 2 14 6 -1 3 -11 11 -16 19 -13 8 3 14
-1 14 -8 0 -8 7 -16 15 -20 9 -3 15 0 15 10 0 8 6 22 14 29 12 12 14 9 11 -23
-1 -20 0 -27 2 -14 4 19 7 21 19 11 8 -6 14 -18 14 -25 0 -8 5 -14 10 -14 6 0
10 7 10 15 0 8 -4 15 -10 15 -5 0 -10 7 -10 15 0 8 5 15 10 15 6 0 10 -6 10
-14 0 -7 7 -19 15 -26 11 -9 12 -15 5 -20 -7 -5 -6 -11 5 -20 13 -11 15 -7 11
31 -2 24 -2 36 1 26 6 -22 29 -16 27 7 -2 14 1 15 13 4 10 -8 11 -14 4 -16
-15 -5 -14 -29 2 -35 17 -7 44 9 34 20 -5 4 -13 1 -18 -7 -9 -13 -10 -13 -6 0
2 8 12 14 21 14 9 -1 16 5 16 13 0 8 5 11 10 8 14 -8 13 -42 -1 -47 -7 -2 -5
-9 6 -18 14 -12 16 -12 15 1 -5 36 0 44 16 24 l16 -20 -2 20 c-4 35 0 46 11
39 8 -5 8 -8 0 -14 -9 -5 -8 -10 4 -20 8 -7 15 -21 15 -31 0 -11 5 -19 10 -19
6 0 10 9 10 20 0 11 -4 20 -10 20 -5 0 -10 7 -10 15 0 8 5 15 10 15 6 0 10 -6
10 -13 0 -8 9 -22 20 -32 19 -17 19 -16 17 11 -3 38 27 40 31 2 2 -14 10 -29
18 -32 9 -3 12 -1 9 4 -4 6 -3 19 0 31 6 19 8 19 25 4 21 -19 44 -11 35 13 -5
13 -2 12 15 -3 11 -10 20 -26 20 -37 0 -10 5 -18 10 -18 6 0 10 6 10 13 0 7 8
20 19 29 17 15 19 14 19 -9 0 -17 -3 -21 -9 -12 -4 7 -11 11 -14 7 -4 -3 3
-16 16 -29 12 -12 20 -16 17 -8 -3 8 0 23 8 34 14 18 14 18 14 -3 0 -28 16
-29 23 -2 3 11 11 20 19 20 11 0 11 -2 0 -9 -8 -4 -12 -19 -10 -32 3 -24 4
-24 19 5 10 18 19 25 23 17 11 -17 34 -13 39 7 3 12 5 13 6 2 1 -17 61 -55 61
-39 0 5 -7 12 -15 15 -8 4 -15 11 -15 16 0 15 31 -13 52 -47 20 -33 23 -30 9
8 -15 38 2 51 29 22 13 -14 19 -25 13 -25 -6 0 -13 7 -17 15 -3 8 -11 15 -18
15 -7 0 -4 -9 9 -21 23 -24 43 -18 43 12 0 36 20 19 21 -18 1 -35 2 -36 8 -10
l6 29 24 -26 c15 -16 19 -26 11 -26 -7 0 -10 -3 -6 -7 4 -4 16 3 26 17 18 24
19 24 39 6 12 -11 21 -14 21 -8 0 6 -5 12 -12 14 -6 2 -8 9 -4 16 5 8 13 5 28
-10 17 -17 18 -22 7 -30 -11 -8 -11 -9 1 -5 9 2 14 14 13 31 -1 21 1 24 11 14
7 -7 15 -21 19 -31 3 -9 12 -17 19 -16 10 0 10 2 1 6 -15 6 -17 39 -3 48 6 3
10 0 10 -8 0 -8 7 -20 15 -27 9 -8 15 -8 15 -2 0 6 -5 13 -10 15 -6 3 -5 4 2
3 7 -1 15 -11 16 -22 8 -43 24 -39 19 5 l-5 44 18 -31 c13 -21 25 -30 35 -26
8 4 15 10 15 15 0 12 -17 11 -23 -1 -3 -6 -4 -5 -3 2 5 27 31 13 31 -16 0 -18
6 -31 15 -33 12 -4 12 -3 1 5 -9 7 -10 12 -2 16 6 4 12 22 12 39 1 21 3 25 6
12 3 -11 14 -30 26 -43 l21 -23 15 28 15 28 7 -30 c4 -16 7 -24 8 -18 1 17 33
53 46 53 5 0 3 -5 -5 -10 -13 -9 -13 -11 0 -21 13 -10 13 -10 0 -6 -10 3 -16
-2 -16 -13 0 -25 21 -14 36 18 l13 27 6 -30 c7 -34 34 -41 39 -10 7 36 22 41
22 7 l0 -32 30 32 c16 18 30 27 30 21 0 -7 -4 -13 -10 -13 -5 0 -10 -7 -10
-15 0 -8 5 -15 11 -15 8 0 8 -5 -1 -15 -7 -9 -8 -15 -2 -15 5 0 12 7 16 15 8
21 33 19 53 -5 10 -11 22 -20 28 -20 5 0 4 4 -3 8 -9 6 -4 15 16 35 l29 27 -4
-32 c-1 -18 0 -26 4 -18 13 30 28 38 43 22 13 -14 12 -15 -2 -9 -12 4 -15 2
-11 -9 9 -23 23 -16 30 16 3 17 9 30 14 30 14 0 11 -58 -3 -63 -10 -4 -10 -6
0 -6 7 -1 16 7 19 17 13 32 27 40 43 24 13 -14 12 -15 -2 -9 -12 4 -15 2 -11
-9 3 -7 10 -14 15 -14 6 0 5 -6 -2 -15 -9 -10 -9 -15 -1 -15 6 0 11 3 12 8 0
4 2 17 3 30 2 12 8 28 14 34 9 9 12 5 12 -17 0 -27 1 -28 19 -11 19 17 19 17
15 -6 -5 -20 -4 -21 6 -6 10 17 13 16 37 -10 15 -15 24 -20 20 -10 -3 9 2 23
13 33 18 16 18 16 13 -7 -5 -23 -5 -23 10 -3 15 20 16 19 22 -8 8 -28 25 -37
25 -12 0 9 6 12 18 9 13 -5 14 -4 3 4 -9 6 -10 12 -2 16 6 4 13 -4 17 -18 8
-35 32 -42 26 -8 -3 15 -10 30 -16 34 -7 5 -7 8 -1 8 11 0 38 -28 49 -51 3 -8
4 -1 1 15 -6 26 -5 27 11 12 15 -16 17 -16 30 1 12 16 14 15 15 -17 1 -24 3
-28 6 -12 5 25 23 30 23 6 0 -14 3 -14 15 -4 12 10 13 15 4 20 -7 5 -8 10 -1
14 12 7 22 -16 22 -50 0 -37 20 -29 21 9 1 17 3 24 6 15 9 -36 29 -17 23 22
-1 8 17 -5 39 -28 23 -23 44 -42 48 -42 4 0 2 5 -4 11 -9 9 -8 15 2 26 8 7 11
21 8 31 -4 10 6 4 23 -13 17 -17 33 -37 37 -45 4 -13 6 -12 6 1 1 11 10 17 26
17 25 0 35 -22 15 -31 -6 -3 -5 -4 2 -3 7 1 14 17 16 34 4 40 18 41 27 2 8
-38 25 -39 26 -2 1 16 3 20 6 10 6 -23 12 -23 40 4 17 16 22 18 18 6 -4 -9
-13 -19 -21 -22 -8 -3 -14 -12 -14 -21 0 -13 3 -12 19 3 42 38 46 39 59 26 7
-7 19 -11 27 -8 9 4 15 0 15 -9 0 -23 18 -31 36 -16 19 16 30 4 14 -16 -9 -11
-9 -15 -1 -15 6 0 14 14 18 30 6 30 23 42 23 16 0 -22 19 -30 36 -15 19 16 30
4 14 -16 -9 -11 -9 -15 -1 -15 6 0 14 14 18 30 5 29 23 42 23 17 0 -21 36 -47
49 -34 15 15 14 34 -1 40 -10 4 -10 6 0 6 7 1 16 -7 19 -16 4 -10 13 -24 20
-32 12 -11 13 -9 7 14 -7 27 -6 27 15 9 11 -10 21 -24 21 -31 0 -7 5 -13 10
-13 6 0 10 6 10 13 0 7 8 19 18 28 16 13 19 13 35 -1 9 -9 17 -22 17 -28 0 -7
5 -12 10 -12 15 0 12 57 -2 63 -10 4 -10 6 0 6 8 1 16 -8 19 -20 3 -11 11 -18
17 -16 6 3 12 -7 12 -20 4 -52 28 -42 28 11 0 35 14 31 29 -6 9 -24 17 -23 51
8 23 22 30 24 37 13 5 -8 7 -25 3 -39 l-6 -25 27 25 c22 21 28 22 35 10 5 -8
10 -18 10 -22 0 -5 5 -8 11 -8 8 0 7 5 -1 16 -11 12 -11 18 2 31 15 14 16 14
15 -2 -1 -10 5 -20 13 -22 13 -4 13 -3 0 6 -11 8 -12 11 -2 11 8 0 16 -9 19
-20 8 -31 23 -24 24 13 1 17 3 24 6 15 5 -19 19 -24 25 -9 2 5 10 2 18 -7 13
-14 12 -15 -2 -9 -12 4 -15 2 -11 -9 7 -20 21 -17 28 6 9 29 25 25 26 -7 2
-24 2 -25 6 -6 5 27 18 29 32 5 7 -10 14 -13 18 -7 14 17 53 36 63 30 6 -4 10
-13 10 -21 0 -21 17 -17 23 6 3 11 11 20 19 19 10 0 10 -2 1 -6 -15 -5 -18
-63 -4 -63 5 0 11 12 13 28 3 23 7 27 30 24 14 -1 29 2 33 8 3 5 12 10 18 10
7 0 4 -5 -5 -11 -10 -5 -18 -15 -18 -20 0 -6 5 -7 11 -3 6 3 15 0 20 -7 6 -10
9 -8 9 9 0 12 5 22 10 22 10 0 14 -21 10 -49 -1 -13 1 -13 15 -1 11 9 12 15 5
20 -7 5 -6 11 5 20 13 11 15 10 9 -4 -4 -10 -1 -16 9 -16 8 0 18 6 20 13 4 10
6 10 6 0 1 -19 19 -16 24 5 4 16 5 16 6 0 1 -21 17 -24 24 -5 3 7 6 5 6 -5 1
-26 19 -22 24 4 4 23 4 23 6 1 0 -12 -6 -29 -15 -37 -8 -9 -11 -16 -6 -16 4 0
19 11 32 25 17 18 30 23 47 19 18 -5 23 -2 24 12 0 15 2 15 6 4 3 -8 11 -19
17 -23 7 -6 4 -7 -6 -3 -12 3 -15 1 -11 -10 7 -20 21 -17 28 6 3 11 11 20 16
20 14 0 11 -38 -3 -43 -10 -4 -10 -6 0 -6 8 -1 16 8 19 19 6 24 21 26 29 5 4
-8 10 -15 15 -15 5 0 9 7 9 15 0 8 -5 15 -12 15 -6 0 -8 3 -5 6 4 4 13 1 22
-6 12 -10 18 -10 30 0 17 14 35 5 35 -16 0 -9 7 -23 16 -32 15 -15 16 -15 10
5 -7 22 1 53 15 53 5 0 11 -11 15 -25 7 -30 24 -33 24 -5 0 12 5 17 14 14 8
-3 17 -1 21 5 3 6 11 11 18 11 6 0 2 -6 -9 -14 -15 -12 -16 -17 -7 -27 10 -10
18 -8 38 11 23 22 25 22 19 5 -4 -11 -11 -26 -17 -32 -6 -9 -6 -13 1 -13 6 0
14 9 17 20 7 22 20 26 30 10 3 -6 17 -7 30 -4 17 4 24 1 28 -13 4 -17 5 -17 6
1 1 12 6 16 16 12 8 -3 22 2 31 12 16 16 17 15 10 -13 l-8 -30 26 24 c21 20
29 22 39 12 9 -10 8 -11 -8 -5 -17 7 -18 6 -5 -8 18 -19 28 -14 40 18 5 13 15
24 22 24 9 0 9 -3 -2 -11 -11 -8 -12 -12 -2 -16 15 -6 16 -29 2 -36 -6 -3 -5
-4 2 -3 7 1 14 12 16 24 4 27 19 28 27 2 3 -11 11 -20 16 -20 12 0 12 17 0 22
-5 2 -2 10 7 18 14 13 15 12 9 -4 -6 -15 -3 -17 12 -13 12 3 18 -1 17 -11 0
-8 6 -17 14 -19 9 -3 11 -1 4 4 -7 5 -6 16 3 33 l13 25 0 -27 c0 -16 5 -28 10
-28 6 0 10 7 10 15 0 8 6 12 14 9 8 -3 16 0 19 8 2 7 2 0 0 -17 -3 -26 -2 -28
8 -11 9 15 13 16 20 5 7 -11 9 -11 9 -1 0 7 6 19 12 26 11 11 17 9 35 -10 26
-29 30 -29 36 -6 4 13 5 11 6 -5 0 -13 6 -23 11 -23 10 0 14 21 10 49 -1 11 2
11 14 -2 19 -19 20 -39 4 -55 -9 -9 -9 -12 -1 -12 7 0 14 9 18 19 3 11 12 25
21 32 12 10 13 9 7 -7 -6 -16 -5 -17 9 -6 14 11 17 11 20 -2 2 -11 7 -13 18
-6 13 9 13 11 0 21 -13 9 -13 10 0 6 8 -2 16 -16 18 -30 4 -35 20 -35 24 1 3
29 28 38 35 12 4 -13 3 -13 -6 0 -5 8 -13 11 -18 7 -10 -10 16 -27 33 -20 7 2
14 -4 17 -14 4 -17 5 -17 6 1 1 15 6 17 29 12 17 -4 22 -3 13 2 -9 7 -10 12
-2 16 6 4 11 2 11 -5 0 -7 8 -5 20 6 18 17 20 17 14 2 -4 -11 -1 -17 9 -17 8
0 17 4 19 9 2 5 10 2 18 -7 13 -14 12 -15 -5 -8 -18 7 -18 6 0 -14 21 -23 26
-25 19 -7 -2 7 2 21 10 32 13 17 15 17 16 4 0 -25 26 -44 33 -25 4 11 1 13
-11 10 -10 -4 -13 -3 -6 3 6 4 14 15 17 23 4 12 6 11 6 -2 1 -10 6 -18 11 -18
6 0 10 -8 11 -17 0 -14 2 -15 6 -3 13 32 27 39 46 22 18 -16 20 -15 32 1 12
16 15 15 41 -15 22 -26 26 -29 22 -12 -3 12 -1 28 4 35 8 11 9 10 4 -3 -4 -14
1 -17 24 -15 17 1 30 8 30 15 0 8 12 3 29 -14 18 -17 27 -33 23 -43 -4 -12 -1
-11 14 3 10 11 20 24 20 30 1 6 2 17 3 24 0 7 6 10 12 6 8 -5 8 -8 0 -13 -8
-5 -5 -14 10 -27 19 -17 22 -18 33 -2 11 16 14 16 28 1 18 -17 38 -10 38 13 0
8 5 14 10 14 6 0 10 -9 10 -20 0 -11 -4 -20 -10 -20 -5 0 -10 -4 -10 -10 0
-21 20 -9 26 15 6 25 7 25 26 8 19 -17 20 -17 34 1 10 15 14 16 18 5 2 -8 7
-21 9 -29 3 -8 6 5 6 29 1 44 15 48 23 6 3 -15 10 -19 30 -17 18 2 28 -3 31
-15 4 -14 5 -15 6 -2 1 11 11 16 30 17 24 0 29 -3 23 -16 -5 -16 -5 -16 11 0
10 9 24 15 31 12 8 -3 16 2 19 13 3 12 5 9 6 -9 0 -16 6 -28 11 -28 6 0 10 12
11 28 0 25 1 25 9 6 5 -12 14 -25 21 -30 9 -5 10 -2 6 9 -4 11 -2 14 9 10 8
-3 14 1 14 10 0 8 -6 18 -12 20 -10 4 -10 6 0 6 7 1 17 -10 22 -23 12 -32 22
-37 40 -18 13 14 12 15 -5 8 -15 -5 -17 -4 -8 5 13 13 33 4 33 -17 0 -27 20
-14 21 14 0 15 3 20 6 12 8 -21 34 -50 45 -50 5 0 2 7 -6 16 -20 19 -20 25 -2
18 8 -3 16 2 19 13 3 12 5 9 6 -9 1 -30 21 -40 21 -11 0 14 3 14 21 -3 l22
-19 -7 29 c-6 26 -6 27 9 13 16 -17 45 -13 45 7 0 8 2 8 8 0 4 -6 18 -17 31
-24 19 -10 21 -14 10 -22 -12 -8 -11 -9 1 -5 8 2 14 12 14 21 -2 16 0 16 19
-1 20 -18 20 -18 13 11 -6 26 -6 27 9 12 9 -9 21 -13 27 -10 5 3 18 -3 29 -15
28 -30 55 -15 50 28 -2 8 6 5 20 -8 12 -11 19 -24 16 -28 -4 -3 -7 -1 -7 5 0
7 -4 12 -10 12 -15 0 -12 -17 5 -24 8 -3 24 4 36 17 20 22 21 22 35 3 14 -20
14 -20 28 0 14 19 15 19 35 -3 20 -21 51 -22 51 -2 0 12 -17 11 -23 -1 -3 -6
-4 -5 -3 2 4 23 26 20 35 -5 14 -37 33 -45 25 -10 -7 26 -7 27 10 10 23 -23
29 -22 23 6 l-6 22 20 -24 c10 -13 19 -18 19 -11 0 6 6 10 13 7 6 -2 11 -12 9
-22 -3 -17 -2 -17 13 -1 9 9 22 16 30 16 7 0 16 6 18 13 4 9 6 9 6 0 1 -19 19
-16 24 5 4 16 5 16 6 -1 1 -14 8 -16 41 -12 21 2 42 0 45 -5 11 -18 25 -11 26
13 1 16 2 18 6 4 2 -9 9 -17 15 -17 7 0 6 -5 -1 -14 -9 -11 -8 -15 4 -20 9 -3
14 -2 10 3 -6 11 4 41 15 41 5 0 12 -9 15 -20 7 -23 21 -26 28 -6 4 11 1 13
-11 9 -14 -6 -15 -5 -2 9 15 16 31 8 43 -22 4 -12 6 -12 6 1 1 22 49 22 54 0
3 -10 5 -8 6 7 1 30 19 28 27 -3 8 -32 20 -32 28 0 8 31 26 33 27 3 1 -17 2
-19 6 -6 6 23 19 23 33 1 10 -17 10 -17 20 0 6 9 15 17 20 17 13 0 13 -27 0
-33 -6 -3 -5 -4 2 -3 7 1 14 12 16 24 4 27 19 28 27 2 8 -25 25 -26 25 -2 1
14 4 13 22 -8 l21 -25 -5 30 c-3 17 -3 24 -1 17 6 -16 73 -8 86 10 7 10 8 9 4
-3 -3 -9 4 -21 15 -28 19 -12 20 -11 14 5 -6 15 -2 14 18 -5 14 -14 29 -21 33
-18 3 4 2 7 -4 7 -6 0 -13 6 -16 14 -4 9 0 12 12 9 10 -2 26 4 36 14 17 16 18
16 12 1 -8 -21 18 -49 38 -42 7 3 16 12 19 20 7 18 26 18 26 0 0 -22 19 -30
35 -16 12 10 18 10 30 0 12 -10 18 -10 30 0 12 10 18 10 30 0 16 -14 35 -6 35
16 0 26 18 14 25 -16 4 -16 11 -30 16 -30 13 0 11 28 -2 32 -7 2 -5 9 5 17 14
11 16 11 16 -2 0 -24 23 -26 42 -3 14 17 17 18 18 5 0 -20 27 -33 33 -16 3 8
14 3 32 -13 21 -18 27 -20 22 -8 -8 22 10 33 28 18 12 -10 18 -10 31 1 11 9
17 10 23 1 4 -7 12 -8 21 -1 13 8 13 10 0 20 -13 9 -13 10 0 6 9 -2 14 -14 13
-31 -2 -23 0 -24 13 -12 8 8 14 21 14 28 0 11 2 11 9 0 9 -16 61 -24 61 -10 0
5 6 8 13 5 6 -2 11 -12 9 -22 -3 -15 0 -14 19 4 26 24 36 26 41 9 3 -7 13 -2
26 12 l22 24 22 -24 c13 -14 23 -19 26 -12 6 20 20 14 25 -11 l4 -22 2 23 c1
23 15 29 26 12 10 -17 23 -11 28 12 4 22 4 22 6 2 0 -12 9 -28 18 -35 15 -12
16 -12 10 3 -7 20 12 36 23 19 5 -10 11 -9 21 2 13 12 17 12 29 -1 13 -14 12
-15 -2 -9 -12 4 -15 2 -11 -9 3 -7 9 -14 13 -14 13 0 22 38 14 52 -4 7 10 -3
30 -22 36 -34 37 -34 33 -10 -2 14 -2 19 0 13 5 -16 19 -17 28 -3 10 16 23 12
30 -10 7 -23 21 -26 28 -6 4 9 1 14 -6 12 -7 -1 -9 -1 -4 1 4 3 7 12 8 21 0
13 2 13 6 3 3 -7 14 -22 24 -32 19 -19 20 -19 44 7 17 19 25 22 25 12 0 -26
23 -38 40 -20 13 14 12 15 -5 8 -16 -6 -17 -5 -8 5 10 10 17 8 35 -8 21 -19
24 -20 38 -5 13 14 12 15 -5 8 -17 -6 -18 -5 -7 6 11 11 18 8 39 -16 l25 -30
-6 31 c-4 18 -3 34 3 38 6 3 9 0 5 -8 -6 -16 17 -29 33 -19 5 4 13 14 16 22 4
12 6 12 6 -1 1 -22 27 -31 43 -15 11 11 16 10 28 -2 10 -11 15 -12 18 -4 6 20
22 13 23 -10 1 -19 2 -19 6 -5 3 11 11 16 19 13 8 -3 14 -1 14 4 0 20 19 9 22
-12 2 -12 9 -23 16 -24 7 -1 8 0 2 3 -16 8 -12 36 5 29 8 -3 15 -1 15 4 0 21
20 9 21 -12 1 -17 2 -19 6 -6 2 10 8 18 13 18 5 0 13 -8 19 -18 9 -16 11 -16
25 3 l16 20 16 -20 c14 -19 16 -19 25 -2 6 9 14 17 19 17 5 0 11 -8 13 -17 4
-14 5 -12 6 5 1 21 21 33 21 12 0 -5 6 -7 14 -4 8 3 16 -2 19 -13 4 -14 5 -14
6 5 1 27 17 29 26 2 3 -11 11 -20 16 -20 11 0 12 17 2 23 -5 2 -3 2 4 1 7 -2
18 3 25 10 11 11 16 11 26 0 7 -7 19 -11 27 -8 10 4 15 0 15 -11 0 -15 3 -15
15 -5 13 11 13 15 3 21 -7 5 -9 9 -4 9 6 0 19 -9 30 -19 19 -18 22 -18 36 -3
13 14 12 15 -5 8 -15 -5 -17 -4 -8 5 13 13 33 4 33 -17 0 -8 5 -14 10 -14 6 0
10 7 10 17 0 15 2 15 18 0 15 -14 18 -14 32 1 13 14 12 15 -5 8 -17 -6 -18 -5
-7 6 11 11 18 8 39 -17 23 -26 26 -27 21 -8 -4 15 -2 20 7 17 7 -3 15 3 18 13
3 12 5 9 6 -9 1 -28 21 -40 21 -13 0 16 29 10 43 -9 5 -7 11 -5 18 7 5 9 14
17 19 17 5 0 11 -8 13 -17 4 -15 5 -15 6 -2 1 11 10 17 26 17 26 0 35 -22 13
-31 -10 -4 -10 -6 0 -6 8 -1 16 8 19 19 7 25 19 26 32 3 9 -17 11 -17 25 2 15
19 17 19 30 3 16 -22 26 -23 26 -3 0 8 -5 15 -12 15 -6 0 -8 3 -5 7 4 3 19 -4
34 -18 19 -17 25 -19 20 -7 -4 12 -2 15 8 12 7 -3 16 3 19 13 3 10 4 4 2 -13
-1 -23 1 -31 11 -27 7 3 13 12 13 20 0 8 5 11 10 8 6 -4 18 -1 26 6 12 10 19
8 39 -11 20 -18 25 -20 25 -8 0 31 49 30 51 0 0 -14 2 -14 6 -2 10 24 31 42
35 29 2 -7 14 -12 26 -13 13 0 27 -8 32 -16 9 -13 11 -13 20 0 5 8 19 16 32
16 12 1 24 6 26 13 2 7 8 6 18 -4 15 -15 44 -10 44 7 0 12 25 -12 33 -32 4
-12 6 -12 6 1 1 11 10 17 26 17 26 0 35 -22 13 -31 -10 -4 -10 -6 0 -6 8 -1
16 7 19 18 6 23 50 25 56 2 4 -13 5 -12 6 3 1 12 6 16 16 12 8 -3 15 -1 15 4
0 21 20 9 21 -12 1 -19 2 -19 6 -5 3 11 11 16 19 13 8 -3 14 -1 14 4 0 21 20
9 21 -12 1 -19 2 -19 6 -5 3 11 11 16 19 13 8 -3 14 -1 14 4 0 18 19 10 25
-10 3 -11 10 -20 15 -20 5 0 12 9 15 20 3 11 10 20 15 20 5 0 12 -9 15 -20 3
-11 11 -20 17 -20 7 0 7 4 0 13 -7 8 -6 16 4 25 12 11 14 10 14 -3 0 -9 6 -15
13 -12 6 2 20 -3 30 -12 17 -14 18 -14 14 9 -2 14 -2 19 0 12 3 -7 10 -11 16
-9 7 2 20 -3 30 -12 17 -14 18 -14 14 9 -2 14 -2 19 0 13 6 -16 15 -16 32 0
10 9 15 9 18 0 2 -7 10 -10 18 -7 7 3 15 -3 18 -13 4 -14 5 -14 6 5 1 23 17
30 23 11 3 -8 10 -6 21 5 10 11 17 13 17 6 0 -8 8 -10 22 -7 12 4 28 1 35 -5
9 -7 17 -7 28 2 20 17 32 5 15 -15 -7 -8 -8 -15 -2 -15 5 0 12 6 15 14 3 8 14
14 24 14 10 -1 28 2 40 6 12 4 24 2 28 -4 9 -15 25 -12 25 5 0 8 -5 15 -12 15
-6 0 -8 3 -5 7 4 3 16 -3 27 -15 16 -17 25 -20 45 -12 16 6 34 6 50 0 20 -8
29 -5 45 12 11 12 23 18 27 15 3 -4 1 -7 -5 -7 -7 0 -12 -7 -12 -15 0 -17 16
-20 25 -5 3 6 12 10 18 10 7 0 6 -4 -3 -10 -8 -5 -10 -10 -5 -10 6 0 16 5 23
12 17 17 28 2 12 -17 -24 -28 1 -15 30 16 26 30 51 32 49 6 0 -9 -2 -9 -6 1
-5 14 -23 16 -23 3 0 -17 29 -20 45 -5 13 14 15 14 15 0 0 -23 21 -20 27 4 7
27 23 25 23 -2 0 -13 3 -18 8 -12 4 6 16 11 27 11 11 0 23 -5 27 -11 5 -6 8
-1 8 12 0 12 5 22 10 22 6 0 10 -6 10 -14 0 -15 32 -27 47 -17 6 3 13 13 16
21 4 12 6 12 6 -1 1 -26 29 -30 50 -8 19 21 42 19 40 -4 0 -9 -2 -9 -6 1 -5
14 -23 16 -23 3 0 -19 31 -19 49 0 20 22 41 18 41 -7 0 -21 17 -17 23 6 7 26
22 25 49 -2 l21 -21 -6 22 c-5 19 -3 20 10 10 19 -16 55 -19 50 -5 -3 6 8 11
26 11 17 0 32 -6 35 -12 6 -19 22 -16 22 4 0 14 2 14 20 -2 19 -18 20 -17 20
3 0 30 18 28 26 -3 8 -31 24 -33 25 -2 1 16 2 18 6 5 6 -22 19 -23 27 -3 7 20
24 19 29 -2 4 -17 5 -17 6 0 1 21 19 23 27 2 8 -21 21 -19 27 5 7 25 27 26 34
1 3 -11 11 -22 18 -25 9 -3 11 2 7 17 l-5 22 23 -20 c19 -16 22 -17 17 -4 -4
13 -1 16 14 12 16 -4 18 -2 12 13 -6 17 -5 17 8 4 9 -9 18 -22 22 -30 4 -11 6
-10 6 4 1 12 6 16 16 12 8 -3 21 2 30 10 8 9 15 11 15 6 0 -17 29 -22 42 -8
11 10 16 10 25 1 6 -7 27 -11 47 -9 31 4 35 2 29 -13 -6 -16 -5 -16 8 -3 9 9
18 22 22 30 4 12 6 12 6 -2 1 -13 9 -15 40 -12 31 3 41 0 44 -14 3 -12 5 -11
6 6 1 21 15 30 25 14 2 -4 31 -7 63 -6 49 0 58 3 56 18 -1 17 0 17 15 3 13
-13 13 -19 2 -31 -8 -11 -9 -16 -1 -16 6 0 11 3 11 8 1 23 18 32 43 23 22 -9
30 -7 46 10 19 21 42 19 40 -4 0 -9 -2 -9 -6 1 -5 14 -23 16 -23 3 0 -17 29
-20 45 -5 8 9 15 11 15 5 0 -18 18 -12 23 7 4 13 5 11 6 -5 1 -27 21 -31 21
-5 0 14 2 15 10 2 8 -13 11 -12 23 4 14 19 15 19 42 2 27 -18 28 -18 21 0 -6
17 -6 17 12 1 17 -16 19 -15 35 0 16 16 17 16 17 0 0 -22 9 -22 25 0 12 16 14
16 40 -1 27 -18 27 -18 20 6 -5 17 -4 19 4 8 5 -8 13 -11 17 -7 4 4 16 0 26
-10 17 -15 18 -15 18 0 0 13 7 16 31 13 16 -2 36 2 42 9 10 9 15 9 26 -2 14
-15 63 -10 69 8 2 5 10 3 17 -5 8 -7 28 -12 45 -10 20 3 33 -1 36 -11 4 -8 11
-15 16 -15 7 0 7 4 0 13 -7 8 -6 16 4 25 12 11 14 10 14 -3 0 -19 19 -20 26 0
4 8 11 12 16 9 6 -4 6 -9 -2 -14 -7 -5 1 -7 19 -5 18 1 37 7 43 13 7 7 18 3
35 -16 l25 -27 -8 30 c-7 30 -7 30 14 12 20 -18 21 -18 39 2 9 12 22 21 28 21
5 0 3 -5 -5 -10 -13 -9 -13 -11 -1 -19 10 -7 19 -4 28 7 11 15 14 15 22 2 9
-13 12 -12 24 4 14 19 38 15 36 -7 0 -9 -2 -9 -6 1 -5 14 -23 16 -23 3 0 -18
30 -20 46 -3 22 21 74 24 66 3 -4 -12 0 -11 18 2 14 10 34 14 49 11 21 -5 23
-3 11 6 -13 10 -13 11 0 7 8 -2 13 -12 12 -22 -3 -17 -2 -17 13 -5 9 8 37 15
63 16 30 2 41 0 32 -6 -8 -5 -11 -12 -7 -17 7 -7 17 3 32 32 3 6 7 5 11 -2 3
-7 11 -10 19 -7 7 3 15 -3 18 -13 4 -16 5 -16 6 0 1 15 9 19 31 19 3 0 15 -3
27 -6 16 -5 23 -2 26 11 4 17 5 17 6 1 1 -21 12 -23 29 -6 17 17 28 2 12 -17
-20 -24 -1 -17 23 9 18 20 24 21 35 10 13 -14 37 -9 64 13 15 13 16 13 11 -9
-3 -13 -1 -18 4 -12 10 14 44 14 61 1 9 -7 19 -4 34 9 15 14 22 16 25 7 7 -19
21 -16 26 5 4 16 5 16 6 0 1 -22 17 -23 25 -3 7 19 26 19 26 0 0 -8 -5 -15
-12 -15 -6 0 -8 -3 -5 -7 4 -3 18 4 32 17 21 19 25 21 25 7 0 -24 17 -21 25 3
8 26 22 26 30 0 3 -11 11 -20 16 -20 13 0 11 18 -3 23 -7 3 2 4 20 3 18 -2 39
3 47 10 9 9 15 10 17 3 2 -6 27 -12 56 -13 39 -2 52 1 52 11 0 11 3 11 16 -2
10 -9 20 -13 23 -8 9 14 51 13 51 0 0 -8 3 -8 8 1 7 9 15 10 35 3 20 -8 30 -7
42 5 12 13 19 14 30 4 12 -10 15 -9 15 4 0 23 17 20 23 -4 7 -26 27 -26 34 0
6 24 21 26 29 5 8 -21 21 -19 27 5 3 11 11 20 19 20 10 0 10 -3 -2 -10 -10 -6
4 -8 42 -5 47 3 57 1 61 -13 4 -16 5 -16 6 0 1 14 8 17 32 14 17 -2 36 3 45
11 12 13 14 12 14 -1 0 -19 11 -21 28 -4 17 17 28 2 12 -17 -21 -26 0 -16 25
11 19 21 25 23 25 10 0 -22 20 -21 21 2 0 10 3 12 6 5 7 -19 23 -16 24 5 0 13
2 14 6 2 10 -25 26 -30 41 -12 10 13 15 14 18 5 8 -18 22 -16 27 4 4 17 5 17
6 1 1 -18 21 -26 21 -9 0 5 9 11 19 14 15 4 18 1 13 -12 -5 -14 -4 -14 12 -2
27 22 104 24 109 3 3 -12 5 -10 6 6 1 19 21 34 21 14 0 -14 141 -6 151 9 7 11
9 10 9 -3 0 -26 20 -22 21 5 1 16 2 18 6 5 5 -21 23 -24 23 -5 0 8 4 7 10 -3
9 -13 11 -13 20 0 8 13 10 12 10 -2 0 -10 4 -18 9 -18 5 0 11 8 13 18 2 12 13
17 34 17 23 0 30 -4 26 -14 -4 -11 0 -11 18 2 31 21 37 21 43 0 4 -16 5 -16 6
1 1 11 6 16 15 13 8 -3 17 -1 20 6 5 9 7 9 12 0 3 -7 12 -9 20 -6 9 3 14 -2
15 -13 0 -14 2 -15 6 -4 4 8 12 21 20 28 11 11 13 11 13 -2 0 -19 11 -21 28
-4 10 10 14 10 21 0 6 -11 11 -10 25 3 9 9 16 12 16 7 0 -18 29 -21 45 -6 8 9
15 11 15 5 0 -18 18 -12 23 7 4 16 5 16 6 0 1 -18 21 -26 21 -9 0 5 9 11 19
14 14 3 18 1 14 -10 -5 -14 -3 -14 18 0 13 8 35 14 49 13 14 -1 28 3 33 9 7 9
21 -4 30 -30 3 -5 8 -6 13 -2 5 4 2 13 -6 18 -13 9 -12 10 2 5 10 -3 24 2 33
10 13 14 15 14 15 0 0 -19 11 -21 28 -4 10 10 14 10 21 0 7 -11 11 -10 24 2
11 12 17 13 20 3 4 -9 8 -8 16 3 6 8 11 10 11 4 0 -7 7 -14 14 -17 10 -4 13
-1 10 7 -3 8 3 16 15 19 12 3 18 0 15 -7 -3 -7 4 -12 16 -12 11 0 20 5 20 12
0 6 13 11 29 10 21 -1 27 -5 23 -16 -4 -13 -2 -12 14 1 10 9 25 14 32 12 6 -3
12 3 12 12 0 14 2 15 14 2 15 -14 45 -15 85 -2 14 4 21 2 21 -7 0 -10 3 -9 10
2 5 8 12 11 16 7 4 -4 16 1 26 10 15 14 18 14 13 2 -7 -19 26 -19 49 0 14 11
16 11 16 -3 0 -20 16 -21 23 -2 8 19 55 17 60 -3 4 -14 5 -15 6 0 1 13 12 16
52 16 33 -1 53 4 60 14 7 11 9 11 9 -3 0 -26 20 -22 21 5 1 16 2 18 6 5 5 -21
23 -24 23 -5 0 8 4 7 10 -3 9 -13 12 -13 21 3 13 21 29 22 29 1 0 -14 2 -14
16 -3 23 19 53 19 46 0 -5 -14 -3 -14 14 0 10 9 25 14 32 12 6 -3 12 0 12 7 0
7 6 8 19 0 13 -7 20 -7 23 1 2 7 12 7 29 1 26 -11 60 1 46 15 -5 4 -12 1 -17
-7 -6 -9 -10 -10 -10 -3 0 21 20 25 45 9 22 -15 25 -15 25 -1 0 19 19 20 26 0
7 -18 24 -20 24 -2 0 7 9 13 20 13 11 0 20 -6 20 -13 0 -7 5 -13 10 -13 6 0
10 7 10 15 0 8 6 12 14 9 8 -3 16 2 19 13 4 16 5 16 6 1 1 -21 12 -23 29 -6 8
8 15 8 27 -2 12 -10 18 -10 30 0 9 7 18 10 22 6 3 -3 15 1 25 11 17 15 18 15
18 0 0 -22 9 -21 26 1 13 16 15 16 29 -2 14 -18 16 -18 28 -4 6 9 23 19 37 23
20 5 22 4 10 -5 -12 -9 -10 -10 10 -4 14 4 28 12 32 18 5 7 8 4 8 -6 0 -10 5
-18 10 -18 6 0 10 8 10 18 0 15 2 15 10 2 9 -13 12 -13 21 3 13 21 29 22 29 1
0 -14 2 -14 16 -3 23 19 53 19 46 0 -3 -10 5 -7 22 9 21 19 29 22 35 11 7 -10
13 -8 30 11 22 23 23 23 37 3 9 -13 17 -16 22 -9 4 6 15 13 24 17 13 4 16 2
11 -11 -5 -12 1 -10 20 7 15 14 30 21 34 18 3 -4 1 -7 -5 -7 -7 0 -12 -7 -12
-15 0 -19 9 -19 24 -1 6 8 22 17 36 21 18 4 21 4 11 -4 -10 -7 -3 -8 24 -6 21
2 41 9 45 16 6 8 9 8 13 -2 5 -11 8 -10 17 4 14 22 30 22 30 0 0 -14 3 -13 23
5 25 24 63 21 70 -7 3 -10 5 -8 6 7 1 14 6 22 14 19 6 -2 20 2 29 10 15 13 16
13 11 -9 -3 -17 -2 -19 5 -9 5 7 14 11 20 7 5 -3 15 1 22 9 6 7 17 11 25 9 7
-3 15 0 18 8 2 7 2 2 0 -12 -4 -24 -4 -24 16 -6 11 10 27 16 35 13 9 -4 22 1
31 9 13 14 15 14 15 0 0 -22 18 -20 22 2 2 12 13 17 34 17 23 0 30 -4 26 -14
-4 -10 -1 -12 7 -7 7 5 16 18 21 30 7 17 9 17 9 4 1 -21 12 -23 30 -5 11 10
14 9 18 -1 3 -8 11 -5 24 10 10 13 17 16 14 8 -4 -11 1 -16 15 -16 11 0 20 6
20 14 0 15 40 7 53 -12 4 -6 4 2 1 19 -7 29 -7 29 11 12 14 -14 20 -16 26 -6
6 10 11 10 24 -1 13 -11 19 -10 40 10 21 20 25 21 25 7 0 -9 5 -17 10 -17 6 0
10 6 10 14 0 21 20 30 33 17 16 -16 27 -14 27 7 0 14 2 15 10 2 8 -13 11 -12
23 4 8 11 19 16 25 12 7 -4 12 -2 12 3 0 22 20 10 21 -11 1 -19 2 -19 6 -5 3
10 11 16 18 13 8 -3 16 0 19 7 3 9 8 8 15 -3 9 -12 11 -11 11 8 0 12 5 22 10
22 6 0 10 -7 10 -17 0 -14 2 -14 20 2 20 18 21 18 14 0 -5 -13 -4 -16 5 -11 7
5 16 18 21 30 7 17 9 17 9 4 1 -24 10 -23 38 4 34 32 28 14 -8 -21 -37 -38
-26 -42 13 -4 23 22 30 24 43 13 8 -7 18 -10 22 -6 3 3 1 6 -5 6 -16 0 -15 18
1 34 10 11 15 10 27 -2 13 -14 12 -15 -2 -9 -12 4 -15 2 -11 -9 7 -20 21 -17
28 6 7 23 16 25 33 8 9 -9 18 -6 37 12 23 21 25 22 19 5 -7 -18 -6 -18 9 -6 9
7 17 21 18 30 0 13 2 13 6 1 4 -8 12 -21 20 -29 12 -11 13 -9 8 15 -3 16 -2
23 1 17 10 -22 22 -14 27 15 4 25 4 25 6 -5 1 -35 21 -47 21 -14 0 25 18 37
33 22 9 -9 7 -10 -8 -5 -17 7 -18 6 -5 -8 16 -17 40 -7 40 17 0 8 -6 16 -12
18 -10 4 -10 6 0 6 7 1 15 -6 18 -14 10 -24 24 -17 25 13 1 16 3 20 6 10 6
-23 22 -23 30 0 4 9 13 24 21 32 13 12 14 11 7 -10 -4 -14 -14 -29 -21 -33 -8
-4 -14 -14 -14 -22 0 -8 15 2 35 23 31 34 34 35 28 12 -7 -30 1 -25 21 15 l16
30 0 -27 c0 -45 20 -32 21 15 2 29 3 34 6 15 4 -29 23 -39 23 -14 0 21 20 30
33 17 6 -6 15 -11 19 -11 10 0 11 27 1 33 -5 2 -2 2 5 1 6 -2 12 1 12 6 0 24
20 7 21 -17 2 -28 2 -28 6 -3 3 14 9 30 14 37 6 7 6 13 -1 16 -6 3 -5 4 2 3 8
-2 12 -13 10 -27 -4 -24 -3 -24 12 -4 18 23 20 41 6 48 -6 3 -5 4 2 3 7 -2 12
-15 11 -30 -3 -41 25 -14 29 27 4 42 32 44 34 2 2 -29 2 -29 -3 -2 -5 34 -23
36 -23 2 0 -14 5 -25 12 -25 6 0 3 -9 -7 -20 -25 -28 -13 -25 19 5 25 23 37
75 16 75 -5 0 -10 7 -10 15 0 8 4 15 9 15 5 0 12 8 15 17 14 38 38 73 49 72 9
0 9 -2 0 -6 -7 -2 -13 -11 -13 -18 0 -8 -7 -20 -15 -28 -7 -8 -17 -28 -21 -43
l-7 -29 22 19 c11 11 21 25 21 33 0 7 5 13 10 13 16 0 12 -22 -7 -36 -17 -12
-16 -14 6 -35 17 -16 23 -18 19 -7 -4 10 1 23 13 34 10 9 19 30 19 46 0 19 4
28 12 26 18 -6 19 -54 2 -69 -16 -13 -19 -29 -4 -29 6 0 10 7 10 15 0 7 7 18
16 23 12 6 13 11 5 16 -8 5 -7 12 4 23 12 12 13 18 4 30 -10 11 -14 11 -21 1
-5 -8 -6 0 -4 19 2 18 8 39 15 46 6 8 13 34 15 58 2 24 1 32 -1 17 -2 -16 -8
-28 -14 -28 -5 0 -9 -9 -9 -19 0 -11 -8 -27 -17 -37 -10 -10 -18 -27 -19 -38
-2 -70 -5 -86 -14 -86 -5 0 -10 14 -10 30 0 17 5 30 10 30 6 0 10 7 10 15 0 8
-5 15 -12 15 -6 0 0 13 15 28 27 28 36 62 16 62 -6 0 -3 7 5 16 9 8 13 20 10
26 -3 5 4 21 17 34 16 17 18 23 7 19 -9 -4 -19 -13 -22 -21 -9 -24 -26 -16
-26 12 0 15 7 32 17 39 17 12 11 35 -10 35 -7 0 -6 -4 3 -10 13 -9 13 -12 -2
-21 -11 -6 -18 -22 -18 -39 0 -46 -18 -35 -26 15 -7 48 -24 62 -24 20 0 -14 5
-25 10 -25 6 0 10 -11 10 -25 0 -14 -4 -25 -10 -25 -5 0 -10 12 -10 28 0 20
-3 23 -10 12 -5 -8 -12 -11 -17 -7 -4 5 -1 12 7 17 12 8 13 13 2 30 -9 15 -9
20 -1 20 7 0 4 8 -6 20 -10 11 -23 20 -29 20 -6 0 -4 -5 4 -10 13 -8 12 -11
-4 -23 -19 -14 -15 -37 6 -37 7 0 7 5 -1 14 -9 10 -8 15 2 19 9 3 13 -2 12
-16 -1 -11 -6 -22 -11 -24 -15 -5 -57 44 -51 59 4 9 6 7 6 -4 1 -22 21 -24 21
-3 0 8 -4 15 -9 15 -5 0 -12 8 -14 17 -4 17 -5 17 -6 1 0 -10 -5 -18 -10 -18
-6 0 -12 -12 -14 -27 -3 -16 -4 -1 -2 32 1 33 0 52 -2 42 -3 -9 -8 -17 -13
-17 -5 0 -12 -9 -15 -20 -9 -27 -23 -25 -31 5 -3 13 -12 29 -19 35 -8 6 -11
19 -8 28 5 12 1 11 -16 -5 -22 -21 -22 -43 1 -43 7 0 6 6 -2 15 -9 10 -9 15
-1 15 6 0 11 -3 12 -7 6 -59 8 -57 -25 -24 -24 24 -28 33 -18 43 14 14 16 48
2 48 -5 0 -10 -11 -10 -25 0 -34 -19 -31 -33 5 -13 35 -23 38 -30 11 -4 -15
-1 -18 11 -13 11 4 9 -2 -6 -18 l-22 -24 -20 22 c-21 22 -26 42 -11 42 5 0 12
-11 15 -25 4 -14 11 -25 16 -25 14 0 13 17 -1 22 -6 2 -11 16 -11 30 0 24 -2
25 -16 12 -13 -13 -17 -13 -38 6 -28 27 -46 18 -38 -18 l6 -27 -16 29 c-15 27
-15 30 1 48 15 17 15 18 0 13 -19 -8 -31 -39 -22 -57 4 -7 -2 -3 -13 10 -11
12 -22 28 -25 35 -2 6 -8 8 -13 4 -5 -4 -2 -12 6 -17 8 -5 11 -13 6 -17 -5 -4
-11 -3 -13 4 -2 7 -11 9 -19 6 -8 -3 -17 4 -23 20 -16 41 -29 41 -26 0 1 -21
0 -29 -2 -18 -3 11 -11 24 -19 28 -8 4 -14 15 -14 22 0 8 -4 15 -10 15 -14 0
-12 -37 3 -43 9 -4 9 -6 -1 -6 -8 -1 -16 8 -19 19 -3 11 -9 20 -13 20 -5 0
-11 8 -13 18 -4 14 -5 15 -6 1 -3 -41 -73 -24 -84 20 -3 9 -3 -1 -2 -21 3 -32
1 -35 -11 -23 -8 7 -14 18 -14 23 0 5 -9 17 -21 28 -20 18 -20 18 -16 -6 2
-14 2 -19 0 -12 -3 8 -12 11 -20 8 -11 -5 -14 -1 -10 13 3 14 1 18 -9 14 -8
-3 -15 -17 -15 -32 -2 -25 -2 -25 -6 -2 -3 13 -16 34 -30 47 -31 29 -29 28
-29 5 0 -10 7 -18 15 -17 7 1 16 -6 18 -14 4 -13 3 -13 -6 0 -9 13 -12 12 -25
-5 -8 -11 -18 -17 -22 -12 -4 4 -2 7 4 7 17 0 15 17 -3 24 -8 3 -22 -3 -32
-12 -16 -16 -17 -16 -10 0 9 25 -17 46 -52 42 -22 -3 -31 1 -34 14 -3 12 -5
11 -6 -5 0 -13 -5 -23 -10 -23 -12 0 -23 29 -16 41 4 5 -1 6 -9 3 -19 -7 -21
-24 -4 -24 6 0 8 -3 5 -7 -8 -7 -41 24 -50 47 -4 12 -6 12 -6 -1 -1 -17 -37
-32 -53 -23 -4 3 -8 12 -8 20 0 8 -4 14 -10 14 -10 0 -14 -13 -11 -40 1 -9 -1
-11 -6 -5 -9 12 -70 55 -77 55 -2 0 -7 -8 -9 -17 -4 -17 -5 -17 -6 0 -1 20
-12 22 -29 5 -9 -9 -19 -5 -42 17 -25 24 -32 26 -45 15 -13 -11 -18 -11 -24
-1 -6 10 -12 8 -26 -6 -18 -17 -18 -17 -11 10 l7 28 -23 -20 c-12 -12 -27 -21
-32 -21 -6 0 -5 4 2 9 10 6 10 10 -3 21 -12 10 -15 10 -15 -4 0 -9 -4 -16 -10
-16 -5 0 -10 10 -10 23 0 16 -3 18 -9 8 -5 -8 -14 -10 -22 -6 -9 6 -11 3 -5
-10 5 -15 4 -16 -8 -6 -8 7 -17 22 -19 34 -4 22 -4 22 -6 0 -1 -22 -21 -34
-21 -13 0 5 -7 7 -15 4 -10 -4 -15 0 -16 12 0 14 -2 15 -6 4 -4 -8 -13 -21
-20 -29 -12 -12 -14 -12 -13 0 6 40 -19 58 -45 33 -13 -14 -15 -14 -15 0 0 25
-20 19 -21 -6 -1 -17 -2 -19 -6 -5 -2 9 -9 17 -15 17 -6 0 -6 6 2 15 8 9 8 15
2 15 -6 0 -14 -9 -17 -20 -3 -11 -10 -20 -15 -20 -5 0 -12 9 -15 20 -3 11 -11
20 -16 20 -13 0 -11 -18 4 -23 6 -2 0 -4 -15 -4 -18 0 -28 5 -28 14 0 8 -5 11
-10 8 -6 -4 -17 -1 -25 5 -18 15 -38 3 -31 -19 4 -11 1 -10 -12 5 -9 11 -23
19 -29 17 -6 -2 -13 4 -16 14 -4 14 -5 13 -6 -4 -1 -22 -21 -34 -21 -13 0 5
-7 7 -15 4 -10 -4 -15 0 -15 11 0 9 -5 13 -11 9 -6 -3 -16 0 -21 7 -7 10 -8 8
-5 -9 5 -22 4 -23 -12 -8 -10 9 -21 13 -25 9 -4 -4 -12 -1 -17 7 -8 12 -10 10
-6 -8 5 -23 5 -23 -14 -6 -10 9 -19 23 -19 31 0 20 -17 15 -23 -7 -7 -26 -27
-26 -34 0 -6 24 -19 26 -27 5 -8 -21 -23 -19 -29 5 -3 11 -10 20 -17 20 -7 0
-14 -9 -17 -20 -6 -22 -23 -27 -23 -7 0 8 -9 22 -20 32 -11 10 -20 13 -20 7 0
-6 8 -16 18 -21 22 -13 11 -14 -22 -2 -17 7 -26 7 -30 -2 -4 -12 -20 3 -29 28
-3 6 -8 6 -13 2 -5 -4 -2 -12 6 -17 8 -6 10 -10 5 -10 -6 0 -21 8 -35 17 -20
14 -23 15 -18 1 5 -12 2 -14 -13 -11 -11 3 -18 11 -15 18 3 8 -2 11 -15 8 -10
-3 -19 -12 -19 -19 0 -8 -4 -14 -10 -14 -5 0 -10 10 -10 23 0 17 -2 19 -9 8
-7 -11 -13 -12 -23 -4 -17 13 -49 13 -66 0 -7 -5 -15 -7 -19 -3 -3 3 -1 6 5 6
7 0 12 7 12 15 0 19 -16 19 -24 0 -7 -20 -26 -19 -26 1 0 8 -5 12 -10 9 -6 -4
-17 -1 -25 5 -12 10 -18 10 -30 0 -12 -10 -19 -10 -27 -2 -17 17 -28 15 -29
-5 0 -14 -2 -14 -9 3 -5 12 -14 25 -21 30 -9 5 -10 2 -6 -10 4 -10 3 -15 -4
-11 -5 4 -16 1 -24 -5 -16 -14 -35 -5 -35 16 0 19 -16 18 -24 -1 -7 -20 -26
-19 -26 1 0 8 -5 12 -11 8 -6 -3 -15 0 -20 7 -7 11 -9 11 -9 1 0 -9 -7 -11
-20 -7 -47 15 -89 13 -93 -4 -4 -13 -5 -13 -6 3 -1 12 -6 16 -16 12 -9 -3 -15
0 -15 9 0 19 -16 19 -24 0 -7 -20 -26 -19 -26 1 0 14 -2 15 -17 3 -13 -11 -17
-11 -20 -1 -7 18 -23 15 -24 -5 0 -14 -2 -15 -6 -3 -3 8 -12 19 -19 23 -30 18
-9 25 91 32 58 4 105 11 105 16 0 5 15 9 33 9 49 0 107 12 107 21 0 12 -47 11
-52 0 -1 -6 -49 -13 -105 -17 -57 -4 -103 -10 -103 -14 0 -7 -175 -26 -195
-21 -5 1 -57 -4 -115 -13 -205 -30 -297 -39 -490 -46 -192 -7 -421 -20 -695
-40 -77 -5 -192 -12 -255 -15 -63 -3 -225 -12 -360 -20 -547 -32 -832 -46
-966 -45 -125 0 -143 2 -148 17 -9 22 18 43 54 43 14 0 30 8 37 18 6 11 26 27
45 36 18 10 42 23 53 29 25 16 95 58 120 74 60 38 232 115 315 141 117 37 229
54 385 58 148 4 116 -10 -55 -25 -164 -14 -308 -42 -385 -75 -16 -8 -50 -22
-75 -32 -25 -10 -63 -29 -85 -41 -22 -13 -52 -28 -67 -34 -16 -6 -28 -14 -28
-19 0 -4 -8 -11 -17 -14 -25 -9 -64 -32 -72 -43 -3 -4 -15 -13 -25 -19 -36
-19 -41 -39 -18 -62 21 -21 31 -22 185 -22 89 0 254 7 367 15 113 8 248 15
302 15 68 0 115 6 160 20 42 13 117 23 223 30 88 6 266 17 395 25 565 36 701
47 800 60 58 9 120 15 139 15 31 0 82 7 346 45 55 8 156 14 225 14 69 -1 147
4 175 10 27 7 81 16 120 21 97 12 175 55 175 95 0 41 -18 81 -51 116 -62 64
-94 74 -249 71 -74 -1 -141 2 -149 7 -20 13 165 25 242 17 62 -7 147 -40 147
-57 0 -5 7 -9 15 -9 8 0 15 -3 15 -8 0 -4 10 -18 23 -32 41 -46 57 -79 57
-120 0 -52 -17 -69 -77 -80 -93 -16 -168 -32 -199 -41 -17 -5 -40 -9 -52 -9
-40 0 -26 -30 16 -32 57 -3 116 2 122 10 7 12 92 42 115 42 21 0 99 23 153 46
28 12 32 18 26 37 -4 12 -15 33 -25 46 -11 13 -19 30 -19 37 0 8 -9 14 -20 14
-18 0 -60 32 -60 45 0 3 -8 13 -17 23 -10 11 -34 39 -54 63 -30 36 -47 47 -99
63 -78 22 -123 21 -690 -29 -518 -44 -497 -43 -1240 -90 -519 -33 -925 -71
-1025 -96 -48 -11 -129 -37 -205 -65 -56 -20 -313 -155 -330 -174 -3 -3 -23
-14 -45 -25 -39 -19 -52 -20 -450 -12 -489 9 -895 22 -772 25 61 1 93 6 103
16 17 18 18 42 2 50 -7 3 1 3 17 1 17 -3 24 -2 18 1 -7 3 -13 17 -13 30 0 22
4 24 58 25 395 6 700 26 747 48 11 5 49 19 85 32 36 12 69 26 74 31 6 4 16 8
24 8 13 0 89 31 124 50 10 6 23 10 29 10 6 0 25 6 42 14 173 76 379 105 972
136 99 6 224 14 278 20 54 5 139 10 190 10 51 0 169 7 262 15 94 8 252 16 353
19 101 3 187 8 191 11 5 2 82 9 172 15 90 6 171 13 179 16 8 3 76 9 150 14 74
5 173 14 220 19 47 6 159 15 250 21 136 8 174 7 220 -5 30 -8 56 -19 58 -25 2
-5 8 -10 13 -10 10 0 49 -36 49 -45 0 -3 12 -17 26 -30 19 -17 31 -22 43 -16
9 5 22 6 29 4 7 -3 12 5 12 21 0 14 -4 26 -10 26 -15 0 -12 77 3 83 9 4 8 8
-3 16 -8 6 -10 11 -4 11 7 0 14 33 19 85 4 47 11 85 15 85 5 0 12 20 16 45 3
25 10 45 15 45 5 0 9 10 9 23 0 42 12 65 35 71 28 7 36 35 28 94 -5 34 -2 48
9 56 8 6 18 28 22 49 4 20 11 37 16 37 6 0 10 7 10 15 0 22 -14 18 -25 -7 -6
-13 -17 -23 -25 -24 -18 0 -53 -15 -60 -25 -9 -12 -124 -68 -130 -62 -3 3 1 8
8 10 7 3 19 11 26 19 8 8 17 14 21 14 8 0 63 39 95 68 13 12 28 22 32 22 12 0
21 67 11 84 -9 16 -11 15 -71 -21 -19 -12 -19 -9 6 48 32 74 33 68 -67 281
-28 59 -51 116 -51 127 0 11 -4 23 -10 26 -5 3 -10 16 -10 29 0 18 -5 23 -29
23 -25 0 -31 -5 -34 -26 -2 -14 -5 4 -6 41 0 37 -8 100 -16 140 -9 40 -16 94
-16 121 -1 26 -5 49 -9 52 -4 3 -11 32 -15 65 -5 41 -11 60 -21 60 -8 0 -14 9
-14 21 0 12 -6 35 -14 52 -7 18 -22 52 -32 77 -25 60 -77 150 -86 150 -9 0
-48 37 -48 45 0 9 -71 75 -80 75 -6 0 -10 4 -10 9 0 12 -107 62 -195 91 -38
12 -88 29 -110 36 -23 8 -50 14 -62 14 -11 0 -43 6 -69 14 -45 14 -94 23 -324
61 -138 23 -402 64 -485 75 -27 4 -63 14 -79 23 -28 15 -24 16 85 11 63 -3
177 -10 254 -16 77 -5 178 -11 225 -13 l85 -3 -65 9 c-36 4 -123 13 -195 18
-71 6 -175 15 -230 20 -55 6 -135 11 -177 11 -47 0 -82 5 -90 13 -7 6 -34 22
-60 35 -47 23 -69 42 -49 42 7 0 7 7 -1 20 -7 11 -17 20 -21 20 -5 0 -22 9
-38 21 -20 14 -40 20 -60 17 -16 -3 -29 -2 -29 2 0 3 -16 14 -37 24 -29 14
-38 15 -44 4 -6 -9 -1 -15 14 -20 15 -4 16 -6 5 -7 -9 -1 -18 -6 -20 -12 -2
-6 -15 -1 -31 11 -23 18 -27 19 -27 5 0 -8 7 -18 15 -21 12 -5 13 -9 4 -21
-10 -11 -27 -13 -73 -9 -34 3 -92 8 -131 11 -38 3 -95 7 -125 10 -30 2 -138 7
-240 10 -102 3 -207 10 -235 15 -27 5 -71 11 -97 15 -27 3 -48 10 -48 16 0 5
-11 9 -25 9 -23 0 -67 16 -128 46 -16 8 -33 14 -39 14 -5 0 -24 6 -41 14 -18
8 -75 31 -127 51 -52 19 -104 39 -115 44 -30 12 -81 29 -170 57 -44 14 -88 29
-97 35 -10 5 -26 9 -35 9 -10 0 -31 7 -47 15 -15 8 -38 15 -50 15 -11 1 -39 7
-61 15 -30 11 -41 11 -47 2 -6 -9 -8 -9 -8 1 0 6 -7 12 -16 12 -11 0 -14 -5
-10 -16 3 -9 6 -22 6 -31 0 -9 6 -13 14 -10 7 3 26 -2 42 -12 16 -9 62 -28
102 -40 40 -13 75 -28 78 -32 3 -5 12 -9 21 -9 13 0 96 -30 218 -79 84 -34
169 -73 175 -81 3 -4 13 -9 23 -13 10 -4 15 -12 12 -18 -5 -7 -73 -9 -229 -4
-427 14 -529 9 -596 -25 -27 -14 -55 -18 -111 -16 -79 2 -238 32 -254 47 -9 9
-72 13 -63 4 3 -3 79 -30 169 -61 90 -30 178 -61 196 -69 17 -8 34 -15 38 -15
3 0 12 -6 19 -13 11 -10 11 -17 1 -30 -6 -9 -14 -15 -16 -13 -2 3 -55 12 -117
20 -73 10 -132 25 -166 41 -29 14 -73 29 -97 34 -24 6 -60 14 -79 20 -69 20
-299 79 -356 91 -22 5 -57 7 -77 6 -20 -2 -37 1 -37 6 0 6 -12 7 -27 4 -19 -5
-23 -4 -14 3 9 6 -1 9 -33 8 -25 0 -46 -4 -46 -9 0 -4 -12 -8 -27 -8 -16 0
-39 -11 -55 -27 -22 -21 -31 -25 -37 -15 -6 11 -11 10 -24 -2 -17 -17 -33 -21
-40 -8 -2 4 -2 2 -1 -5 2 -7 -1 -15 -7 -18 -5 -4 -6 -11 -3 -17 4 -6 -1 -8
-12 -5 -54 16 -74 19 -74 8 0 -6 7 -11 15 -11 9 0 15 -9 15 -22 0 -22 37 -48
64 -48 22 1 185 -85 186 -97 0 -15 -7 -16 -130 -13 -138 2 -341 26 -375 44
-53 26 -103 46 -118 46 -9 0 -18 4 -22 9 -3 5 -19 12 -36 16 -17 4 -42 13 -57
21 -15 8 -34 14 -43 14 -9 0 -30 7 -45 15 -16 8 -36 15 -45 15 -9 0 -30 7 -45
15 -16 8 -39 15 -51 15 -12 0 -24 4 -27 9 -4 5 -25 12 -48 16 -22 4 -56 14
-74 21 -18 8 -45 14 -59 14 -14 0 -25 4 -25 9 0 5 -24 12 -52 16 -29 4 -57 11
-63 15 -5 5 -35 13 -65 20 -95 20 -164 36 -180 42 -8 4 -42 12 -75 18 -33 6
-94 18 -135 26 -130 26 -233 45 -305 56 -38 5 -77 13 -85 18 -9 4 -49 11 -90
14 -41 4 -86 11 -100 16 -14 5 -63 14 -110 20 -47 6 -132 18 -190 26 -58 8
-148 20 -200 27 -52 7 -100 15 -106 19 -6 4 -52 10 -102 14 -62 5 -93 11 -96
20 -3 8 -19 14 -36 14 -18 0 -33 6 -36 15 -4 8 -15 15 -25 15 -10 0 -19 7 -19
15 0 8 -7 15 -15 15 -18 0 -20 17 -2 23 8 3 6 11 -10 28 -11 13 -23 33 -25 44
-2 15 -12 21 -37 23 -32 3 -79 26 -92 46 -4 4 -19 9 -33 9 -15 0 -24 2 -21 5
7 7 -67 42 -77 36 -5 -3 -15 2 -24 10 -8 9 -24 16 -35 16 -10 0 -19 6 -19 13
0 9 -10 12 -30 9 -19 -3 -30 0 -30 8 0 7 -8 10 -20 7 -10 -3 -21 0 -22 5 -6
16 -168 46 -438 82 -126 17 -150 24 -150 42 0 16 12 18 26 4 5 -5 63 -14 129
-20 66 -6 140 -15 165 -20 25 -5 90 -12 145 -16 55 -3 107 -10 115 -14 8 -4
65 -10 125 -13 61 -2 95 -3 76 0 -19 2 -40 11 -48 19 -13 12 8 14 154 15 92 1
179 3 193 4 14 2 178 6 365 10 187 4 341 8 343 10 1 1 -109 7 -245 14 -137 7
-250 15 -253 18 -3 3 270 3 605 0 587 -5 987 -15 1500 -38 132 -6 292 -12 355
-15 110 -4 113 -3 65 9 -42 12 -229 101 -245 117 -3 3 -16 11 -30 18 -14 7
-38 21 -55 31 -16 11 -64 36 -105 58 -41 21 -77 41 -80 45 -3 4 -17 12 -30 18
-14 5 -38 19 -55 29 -16 11 -68 39 -115 63 -47 25 -115 61 -153 81 -37 20 -74
37 -81 37 -8 0 -16 7 -20 15 -3 8 -16 15 -30 15 -13 0 -26 4 -28 9 -3 8 -42
29 -145 79 -18 9 -33 20 -33 24 0 4 -9 8 -19 8 -11 0 -26 6 -33 13 -7 6 -30
21 -52 32 -21 11 -65 46 -98 78 -33 31 -62 57 -64 57 -2 0 -22 18 -46 40 -24
22 -51 42 -60 46 -10 3 -18 10 -18 15 0 5 -6 9 -13 9 -16 0 -104 47 -143 76
-21 16 -44 24 -72 24 -22 0 -43 4 -46 9 -3 5 -23 12 -43 15 -21 4 -54 13 -73
20 -19 7 -60 21 -90 31 -56 17 -92 31 -122 46 -10 5 -24 9 -32 9 -8 0 -17 9
-21 19 -3 11 -19 22 -35 26 -19 4 -30 13 -30 23 0 14 2 14 9 3 7 -10 22 -12
60 -8 30 4 51 2 51 -3 0 -6 15 -10 33 -10 30 1 31 1 13 15 -11 8 -29 15 -41
15 -12 0 -25 4 -31 9 -8 7 -103 40 -159 55 -11 3 9 3 45 1 36 -3 101 -7 145
-9 l80 -5 -80 15 c-44 8 -114 19 -155 24 -41 6 -88 15 -104 20 -16 6 -50 10
-75 10 -25 0 -66 5 -91 11 -25 6 -88 15 -140 20 -166 16 -343 37 -415 48 -38
6 -124 17 -190 25 -66 9 -163 20 -215 27 -52 6 -122 13 -155 16 -33 2 -132 10
-220 18 -88 8 -239 17 -335 20 -96 4 -191 9 -210 11 -75 9 -710 4 -805 -5
-135 -14 -142 -14 -127 2 13 12 117 28 297 46 50 5 104 12 120 16 17 3 118 10
225 14 175 7 181 8 60 8 -74 0 -191 -3 -260 -7z m-319 -1136 c34 -6 109 -62
109 -82 0 -34 -231 -72 -435 -72 -157 0 -359 27 -399 54 -12 7 -39 11 -61 9
-22 -1 -33 0 -25 3 8 3 24 9 35 14 11 5 49 14 85 20 36 6 106 18 155 26 149
25 456 41 536 28z m1257 -405 c2 -5 8 -9 14 -9 5 0 24 -6 41 -14 18 -7 53 -21
80 -31 46 -16 57 -34 39 -63 -6 -9 -20 -6 -60 13 -29 14 -60 25 -69 25 -10 1
-29 7 -43 15 -14 8 -36 15 -50 15 -14 0 -40 9 -59 19 -33 18 -34 18 -10 26 13
4 33 11 44 16 23 9 69 2 73 -12z m-2628 -155 c151 -8 276 -19 278 -24 2 -5 19
-19 38 -31 20 -12 32 -25 27 -29 -4 -5 -93 -4 -198 1 -580 26 -712 30 -1052
36 -205 3 -373 10 -373 14 0 4 14 19 32 34 l32 27 470 -7 c259 -3 595 -13 746
-21z m2176 -152 c18 -16 49 -71 42 -77 -2 -2 -48 0 -103 3 l-100 7 0 33 c0 18
-7 37 -15 42 -10 7 12 10 70 10 66 0 90 -4 106 -18z m2754 -412 c0 -5 21 -10
48 -11 26 0 70 -5 97 -10 28 -5 86 -15 130 -22 44 -7 87 -16 95 -19 8 -4 44
-11 80 -17 102 -16 204 -37 220 -44 8 -4 40 -11 70 -16 30 -6 82 -17 115 -25
33 -8 80 -20 105 -26 25 -6 70 -18 100 -26 30 -9 69 -19 85 -24 69 -18 182
-54 212 -66 17 -8 38 -14 46 -14 8 0 28 -7 43 -15 16 -8 39 -15 51 -15 12 0
24 -4 28 -9 3 -5 19 -12 36 -16 17 -4 42 -13 57 -21 15 -8 35 -14 45 -14 9 0
17 -4 17 -9 0 -5 17 -14 38 -20 32 -9 27 -10 -43 -7 -44 2 -105 11 -135 20
-98 30 -167 48 -337 90 -32 8 -86 22 -120 30 -35 9 -91 23 -125 32 -35 8 -86
22 -114 30 -28 8 -57 14 -65 14 -7 0 -59 14 -114 31 -55 16 -125 37 -155 46
-146 42 -150 43 -310 86 -94 25 -163 45 -215 60 -46 14 -47 15 -17 16 17 1 32
-3 32 -9z m-5230 -120 c0 -5 -6 -11 -12 -13 -10 -4 -10 -6 0 -6 8 -1 16 8 19
19 5 19 23 29 23 12 0 -5 64 -8 143 -8 78 -1 165 -4 192 -7 41 -6 213 -16 327
-21 14 -1 30 -4 34 -8 4 -4 13 -3 21 3 10 9 13 8 13 -1 0 -7 7 -10 15 -6 8 3
15 2 15 -3 0 -10 51 -8 68 3 6 3 13 2 16 -3 3 -5 36 -9 72 -9 36 0 69 -3 73
-8 8 -12 34 -11 44 1 4 6 10 5 15 -3 5 -8 35 -14 76 -16 44 -1 71 -7 76 -16 7
-11 11 -11 24 -1 13 11 16 11 16 -3 0 -12 6 -15 25 -10 20 5 25 2 25 -12 0
-14 3 -15 8 -6 10 15 180 15 200 -1 7 -5 68 -12 135 -14 171 -7 230 -10 247
-17 17 -6 109 -17 155 -18 17 -1 32 -5 35 -9 3 -4 44 -11 90 -14 47 -4 87 -11
90 -15 11 -16 36 -17 54 -1 18 15 19 15 13 -1 -4 -10 -2 -18 3 -18 11 0 13
-33 4 -66 -4 -17 -12 -20 -36 -18 -17 2 -37 9 -44 15 -11 9 -14 8 -14 -2 0
-12 -2 -12 -9 0 -11 17 -73 19 -79 3 -5 -16 -23 -16 -20 0 2 8 -12 11 -45 9
-35 -2 -49 1 -53 13 -5 12 -10 14 -19 6 -9 -8 -14 -7 -18 2 -4 8 -6 7 -6 -4
-1 -22 -31 -24 -31 -3 0 18 -5 19 -32 4 -16 -8 -22 -8 -28 2 -6 9 -33 12 -89
12 -64 -1 -81 2 -81 13 0 17 -26 19 -34 2 -3 -10 -8 -9 -18 2 -9 10 -35 16
-86 17 -41 1 -81 5 -90 9 -22 9 -30 11 -74 12 -20 1 -44 9 -52 18 -15 14 -16
14 -16 0 0 -9 -7 -16 -15 -16 -8 0 -15 7 -15 15 0 8 -4 15 -10 15 -5 0 -10 -6
-10 -14 0 -9 -9 -12 -27 -9 -16 2 -53 5 -83 7 -30 2 -84 6 -120 10 -58 6 -165
15 -212 19 -10 1 -18 4 -18 7 0 4 -27 6 -60 6 -33 -1 -60 2 -60 5 0 3 -26 5
-57 5 -35 0 -58 5 -61 12 -5 17 -22 15 -22 -4 0 -14 -1 -14 -16 0 -14 15 -40
19 -106 18 -16 0 -28 4 -28 10 0 5 -8 7 -17 4 -9 -4 -20 -1 -25 6 -5 8 -11 9
-15 3 -9 -11 -35 -13 -43 -4 -8 10 -83 21 -77 12 3 -4 -17 -6 -44 -5 -34 3
-49 8 -49 18 0 8 -7 14 -15 14 -8 0 -15 -7 -15 -15 0 -11 -10 -13 -47 -10 -26
3 -50 10 -54 16 -4 7 -23 12 -43 13 -21 1 -41 8 -46 16 -9 13 -11 13 -19 1 -8
-13 -15 -13 -53 0 -34 11 -38 15 -20 17 13 2 25 9 28 15 5 14 94 10 94 -3z
m2617 -272 c6 17 23 15 23 -3 0 -9 9 -15 23 -15 85 -2 139 -9 151 -19 8 -7 20
-11 28 -10 18 3 91 -12 103 -21 11 -8 69 -20 98 -21 9 0 17 -4 17 -10 0 -11
-75 -10 -155 2 -33 5 -91 14 -129 19 -38 5 -76 12 -85 16 -9 4 -34 9 -55 11
-48 5 -76 19 -76 38 0 18 22 25 39 11 11 -8 15 -8 18 2z m940 -196 c16 -18 27
-22 34 -15 7 7 3 12 -15 17 -14 3 -26 11 -26 16 0 14 18 12 22 -2 3 -7 21 -11
46 -10 22 1 43 -2 46 -7 3 -5 21 -8 40 -6 34 3 58 -18 33 -29 -7 -3 0 -3 16 0
17 4 27 2 27 -6 0 -6 4 -9 9 -5 5 3 12 1 16 -5 4 -6 11 -8 16 -4 5 3 9 2 8 -3
-4 -21 2 -33 16 -33 34 0 57 -37 58 -89 0 -28 -2 -54 -6 -57 -9 -10 -58 17
-51 28 3 4 -2 8 -10 8 -9 0 -16 5 -16 10 0 6 -7 10 -15 10 -8 0 -15 -5 -15
-11 0 -6 -7 -3 -16 5 -8 9 -21 16 -28 16 -7 0 -25 11 -40 25 -32 30 -33 30
-39 8 -4 -15 -5 -15 -6 2 -2 32 -59 87 -82 80 -11 -4 -26 -1 -34 5 -8 6 -18 9
-22 7 -5 -3 -15 0 -24 6 -19 14 -38 64 -20 53 6 -4 11 0 11 9 0 23 36 10 67
-23z m3703 13 c385 -52 450 -62 730 -120 152 -31 228 -48 272 -61 26 -8 56
-14 66 -14 11 0 42 -6 68 -14 53 -15 129 -34 184 -46 261 -56 341 -95 356
-175 8 -42 -15 -125 -34 -125 -31 0 -52 21 -50 49 1 16 -3 36 -10 44 -7 8 -12
19 -11 23 5 30 -12 38 -181 79 -56 14 -127 31 -235 59 -80 20 -213 50 -400 91
-218 48 -471 91 -625 106 -58 5 -127 14 -153 19 -101 21 -287 7 -287 -21 0 -4
17 -20 38 -35 24 -18 49 -50 71 -96 19 -38 50 -83 68 -101 31 -31 44 -67 23
-67 -5 0 -10 7 -10 15 0 18 -21 20 -38 3 -9 -9 -12 -9 -12 0 0 7 -14 12 -34
12 -18 0 -58 4 -87 10 -46 8 -60 17 -99 59 -29 32 -50 66 -58 98 -8 26 -15 54
-18 61 -2 6 -16 12 -31 12 -15 1 -55 7 -88 15 -33 8 -75 15 -92 15 -22 0 -33
5 -33 14 0 8 -7 16 -15 20 -29 11 -15 32 30 44 25 7 82 12 128 13 45 0 129 7
187 14 148 17 247 17 380 0z m60 -120 c10 -12 10 -15 -3 -15 -35 0 -3 -26 46
-38 39 -9 60 -21 84 -50 18 -20 32 -46 33 -58 0 -12 16 -51 35 -87 19 -36 35
-68 35 -71 0 -3 -15 -2 -34 1 -27 4 -34 2 -38 -15 -8 -28 2 -39 37 -45 17 -3
10 -4 -17 -3 l-48 1 -2 65 -2 65 -3 -64 -4 -63 -57 7 c-66 8 -87 18 -124 57
l-26 28 44 0 c50 0 66 19 43 48 -55 68 -84 185 -59 233 13 23 43 25 60 4z
m457 -124 c10 -5 34 -13 54 -16 20 -3 47 -16 60 -29 13 -13 34 -28 47 -35 12
-6 22 -21 22 -31 0 -11 5 -20 10 -20 6 0 10 -7 10 -15 0 -8 4 -15 8 -15 5 0
22 -11 37 -25 16 -13 38 -25 50 -27 17 -3 20 -9 17 -49 -2 -26 1 -50 7 -54 7
-4 11 13 11 50 0 31 4 54 9 51 12 -8 21 -98 11 -116 -11 -21 0 -37 30 -43 14
-2 7 -3 -15 0 -108 11 -240 39 -241 51 -1 6 -2 19 -2 27 -1 8 -17 17 -34 20
-74 14 -150 127 -172 257 -9 50 15 55 81 19z m3640 -37 c4 -12 -104 -18 -647
-34 -173 -5 -349 -14 -390 -20 -41 -5 -97 -9 -125 -10 -117 0 -326 -49 -400
-93 -64 -38 -181 -160 -209 -218 -5 -11 -13 -19 -18 -19 -4 0 -8 -5 -8 -10 0
-11 -39 -70 -52 -80 -3 -3 -10 -18 -13 -33 -4 -15 -11 -27 -15 -27 -5 0 -11
-13 -15 -30 -4 -16 -11 -30 -16 -30 -5 0 -9 -7 -9 -17 0 -9 -3 -13 -7 -9 -6 5
81 190 97 206 11 11 50 70 50 75 0 17 150 195 165 195 2 0 23 13 47 28 72 47
197 74 453 97 152 14 573 32 900 38 200 4 208 4 212 -9z m558 1 c488 -9 636
-44 697 -166 37 -76 58 -126 58 -138 0 -7 6 -27 13 -44 23 -54 47 -131 47
-152 0 -11 7 -38 15 -60 17 -49 21 -205 4 -188 -6 6 -15 44 -20 85 -9 82 -30
185 -47 238 -6 19 -20 62 -31 95 -26 80 -84 191 -113 215 -65 52 -253 77 -692
90 -198 6 -362 12 -364 15 -2 2 -1 8 2 14 4 6 30 9 64 6 31 -2 197 -7 367 -10z
m-5294 -16 c9 -5 42 -12 73 -15 31 -4 61 -13 67 -20 6 -8 22 -14 35 -14 21 0
29 -9 25 -32 0 -3 18 -24 40 -45 22 -21 83 -82 136 -135 53 -54 101 -98 107
-99 6 0 21 -13 34 -29 l23 -30 -33 6 c-106 18 -235 97 -345 213 -40 41 -73 79
-73 83 0 13 -82 68 -101 68 -10 0 -35 16 -56 35 l-38 36 45 -7 c25 -4 52 -11
61 -15z m1509 8 c0 -7 -5 -18 -12 -25 -9 -9 -2 -15 28 -27 76 -30 109 -51 113
-70 4 -22 99 -172 126 -199 10 -9 15 -20 11 -23 -12 -12 -226 43 -226 59 0 5
-10 19 -23 31 -20 19 -34 42 -78 129 -10 20 -12 99 -3 122 7 20 64 22 64 3z
m3380 -134 c99 -36 200 -177 235 -328 20 -88 5 -124 -19 -43 -9 31 -16 60 -16
65 0 13 -63 136 -88 170 -12 17 -40 46 -62 63 -35 27 -50 33 -110 36 -43 3
-79 0 -93 -7 -31 -17 -97 -87 -97 -104 0 -8 -4 -15 -10 -15 -5 0 -10 -5 -10
-11 0 -6 -7 -26 -15 -44 -9 -17 -20 -61 -25 -96 -9 -62 -9 -62 -4 19 3 45 12
95 20 110 7 15 14 34 14 43 0 9 7 22 15 29 8 7 15 17 15 22 0 16 62 72 100 90
45 22 93 22 150 1z m45 -449 c8 -16 26 -42 40 -58 14 -15 25 -31 25 -37 0 -5
4 -9 10 -9 5 0 21 -20 36 -45 14 -25 30 -45 35 -45 5 0 9 -7 9 -15 0 -13 11
-19 31 -17 10 1 3 -72 -9 -93 -6 -11 -20 -40 -31 -65 -26 -54 -43 -75 -96
-115 -36 -27 -48 -30 -110 -30 -80 0 -104 12 -176 86 -55 57 -111 169 -129
257 -18 88 1 103 25 20 24 -83 32 -93 56 -72 11 10 19 21 19 26 0 5 11 19 24
31 31 29 96 115 96 127 0 6 4 10 9 10 6 0 17 13 26 28 14 23 22 27 51 24 31
-4 34 -2 34 24 0 15 -5 42 -12 60 -6 18 -8 39 -3 50 6 14 11 1 17 -46 5 -36
15 -79 23 -96z m1128 31 c5 -10 -4 -16 -31 -20 -20 -3 -48 -8 -62 -11 -14 -3
-86 -11 -160 -18 -74 -7 -142 -15 -150 -19 -8 -3 -76 -8 -150 -11 -74 -3 -172
-11 -217 -17 -65 -10 -86 -9 -98 1 -22 18 -19 34 13 57 25 18 49 20 287 28
143 4 287 11 320 15 33 4 101 8 151 9 72 1 93 -2 97 -14z m-1654 -57 c41 -10
56 -19 62 -36 l9 -24 -572 6 c-577 6 -1015 23 -1001 37 19 19 177 24 793 27
503 2 668 -1 709 -10z m-14432 -80 c-4 -35 -12 -76 -17 -93 -14 -45 -33 -312
-27 -371 5 -50 47 -134 66 -134 5 0 21 15 35 33 14 17 32 40 41 50 8 9 15 19
15 22 0 3 19 24 43 46 40 39 42 40 45 19 2 -13 0 -25 -5 -29 -5 -3 -27 -28
-48 -56 -22 -27 -43 -51 -47 -53 -3 -2 -23 -30 -44 -62 -59 -92 -78 -89 -108
15 -14 50 -17 89 -13 235 5 168 24 340 40 356 4 4 7 24 7 44 0 20 3 40 6 43
16 16 20 -6 11 -65z m-218 -277 c6 -35 15 -69 20 -75 5 -6 11 -31 13 -56 6
-54 25 -132 44 -178 8 -18 14 -48 14 -67 0 -47 -32 -55 -97 -24 -60 28 -233
201 -233 231 0 21 28 3 81 -51 76 -78 93 -87 125 -66 14 9 30 28 35 43 12 30
4 118 -17 199 -8 29 -16 110 -18 180 l-5 128 14 -100 c7 -55 19 -129 24 -164z
m8433 203 c60 -18 176 -73 196 -91 7 -7 17 -13 22 -13 18 0 210 -181 210 -199
0 -5 -33 23 -73 62 -40 40 -84 79 -96 87 -13 8 -34 23 -46 33 -13 9 -28 17
-34 17 -6 0 -11 5 -11 10 0 17 -40 11 -46 -7 -3 -10 -10 -26 -15 -35 -5 -9
-11 -36 -15 -60 -3 -24 -10 -52 -14 -63 -5 -11 -14 -42 -19 -70 -6 -27 -15
-75 -21 -105 -31 -154 -39 -213 -45 -301 -9 -128 -2 -156 52 -218 59 -67 80
-67 153 0 30 28 100 93 155 144 55 52 116 106 135 122 19 15 44 38 55 49 24
25 46 11 35 -21 -4 -11 -3 -23 3 -27 6 -3 12 -16 14 -27 2 -16 -2 -21 -21 -21
-12 0 -34 -9 -47 -21 -13 -11 -44 -37 -68 -57 -25 -21 -52 -44 -61 -52 -9 -8
-49 -42 -90 -75 -41 -33 -91 -76 -111 -95 -75 -72 -147 -130 -160 -130 -5 0
-20 11 -34 24 -33 31 -65 171 -65 285 0 80 25 325 41 401 5 25 14 74 19 110 5
36 14 88 19 115 15 78 13 137 -8 175 -19 37 -14 35 -153 56 -30 4 -71 1 -109
-7 -49 -11 -64 -19 -73 -39 -6 -14 -15 -28 -21 -32 -12 -9 -10 -173 4 -237 9
-42 19 -101 41 -239 17 -105 67 -310 106 -432 27 -86 18 -132 -33 -163 -15
-10 -89 21 -166 70 -37 24 -71 43 -76 43 -11 0 -29 -40 -36 -84 -9 -55 -13
-41 -8 27 4 39 10 57 19 57 26 0 14 15 -61 75 -41 33 -75 63 -75 67 0 5 -4 8
-9 8 -5 0 -64 54 -131 121 -108 107 -121 124 -115 147 3 14 1 28 -5 32 -6 4 3
7 19 8 17 0 31 -4 31 -9 0 -5 20 -29 45 -55 25 -25 45 -47 45 -49 0 -5 156
-160 196 -195 86 -75 110 -90 145 -90 28 0 44 8 73 37 l37 38 -4 80 c-4 72
-22 173 -41 232 -4 12 -14 62 -22 110 -26 157 -43 257 -53 313 -5 30 -10 63
-10 73 -1 22 -53 24 -75 2 -8 -8 -19 -15 -24 -15 -5 0 -18 -8 -30 -17 -42 -36
-85 -68 -101 -77 -20 -11 59 64 89 84 12 8 33 23 45 33 13 9 28 17 34 17 6 0
11 5 11 10 0 6 6 10 13 10 6 0 24 6 39 14 15 8 42 17 60 21 18 4 38 11 43 15
29 24 246 20 327 -6z m7930 -149 c-22 -66 -49 -104 -78 -111 -13 -3 -24 -10
-24 -14 0 -5 -15 -12 -32 -15 -18 -4 -37 -11 -43 -15 -5 -4 -26 -11 -45 -14
-19 -4 -44 -11 -55 -16 -11 -5 -47 -14 -80 -20 -188 -34 -228 -41 -305 -50
-47 -5 -112 -14 -145 -20 -213 -35 -984 -52 -1405 -30 -598 30 -680 37 -845
67 -184 33 -301 121 -320 241 -8 50 5 55 23 10 42 -106 77 -146 157 -183 68
-31 131 -45 250 -55 55 -5 107 -11 115 -15 18 -6 259 -20 630 -36 301 -13
1050 -6 1180 10 47 6 132 16 190 22 205 21 266 29 310 39 45 9 117 24 200 40
51 9 150 39 165 50 6 4 21 10 35 14 46 12 110 83 110 122 0 18 17 37 27 30 1
-1 -6 -24 -15 -51z m77 -122 l1 -72 -61 -64 c-56 -60 -103 -90 -199 -130 -71
-29 -153 -51 -181 -49 -19 2 -32 -3 -35 -13 -4 -10 -20 -15 -46 -15 -22 0 -76
-7 -121 -15 -155 -27 -253 -37 -431 -42 -166 -5 -180 -4 -193 13 -7 10 -13 29
-13 43 1 61 37 74 258 91 68 6 128 13 133 16 5 3 64 9 132 14 67 5 149 14 182
19 33 6 101 15 150 21 192 24 237 36 299 83 20 16 36 35 36 43 0 7 4 14 8 14
12 0 42 99 50 162 l6 53 12 -50 c7 -27 13 -82 13 -122z m-15494 -73 c15 0 31
-62 20 -79 -9 -16 1 -13 19 5 14 13 16 13 16 0 0 -8 -7 -22 -16 -30 -14 -15
-14 -16 1 -16 20 0 45 -24 45 -43 0 -9 5 -17 11 -19 6 -2 12 -16 12 -31 1 -15
6 -27 11 -27 4 0 6 -6 3 -13 -2 -6 1 -18 9 -24 10 -10 12 -7 11 15 -2 23 1 27
23 24 14 -1 29 3 35 11 5 7 18 16 29 20 12 5 17 15 14 30 -2 14 5 30 19 44 13
12 23 20 23 16 0 -3 6 0 13 6 8 6 16 9 19 6 3 -3 18 1 34 10 16 8 37 15 46 15
9 0 18 5 20 11 2 6 28 12 58 15 42 4 51 2 40 -6 -12 -9 -12 -10 5 -6 11 3 44
6 73 7 29 1 57 8 63 16 15 17 29 17 29 0 0 -9 13 -14 38 -14 43 -1 65 -5 72
-15 7 -10 75 -20 118 -19 24 1 32 -3 32 -16 1 -15 2 -16 10 -3 9 17 47 19 70
5 8 -5 28 -8 44 -6 15 1 26 -1 23 -6 -3 -5 3 -16 14 -23 10 -8 19 -23 19 -33
0 -16 28 -88 49 -127 5 -9 12 -30 16 -48 3 -18 10 -32 15 -32 4 0 11 -12 15
-27 3 -15 10 -30 13 -33 4 -3 16 -22 27 -44 11 -21 32 -52 47 -70 15 -17 28
-34 28 -38 0 -12 123 -128 136 -128 7 0 14 -3 16 -7 2 -5 34 -24 71 -43 38
-19 70 -37 72 -40 5 -8 -169 -1 -261 10 -44 6 -145 15 -225 20 -79 5 -187 14
-239 19 -149 15 -413 24 -406 13 8 -13 252 -62 312 -62 17 0 44 -4 60 -10 16
-5 67 -14 114 -19 129 -15 250 -31 305 -42 28 -6 88 -14 135 -20 47 -5 108
-14 135 -18 59 -11 36 -10 -310 9 -132 7 -367 10 -634 6 -415 -5 -423 -5 -428
14 -3 11 -9 20 -13 20 -4 0 -11 25 -15 55 -3 30 -10 57 -15 60 -4 3 -11 33
-15 67 -4 35 -11 65 -14 68 -4 3 -12 37 -19 75 -25 155 -36 210 -42 215 -4 3
-10 34 -14 69 -3 36 -10 67 -15 70 -5 3 -12 31 -16 61 -4 30 -12 60 -17 67 -5
7 -7 17 -4 22 4 5 2 12 -4 16 -5 3 -9 18 -9 33 1 17 3 21 6 10 2 -10 11 -18
18 -18z m1185 -102 c0 -4 23 -8 51 -8 33 0 48 -4 43 -11 -4 -6 1 -9 12 -8 11
2 25 0 32 -4 6 -5 12 -4 12 1 0 10 30 10 46 0 5 -4 33 -8 61 -10 38 -2 49 -6
45 -17 -4 -10 -1 -11 15 -3 14 8 23 8 31 0 9 -9 12 -9 12 0 0 14 36 16 45 2 3
-5 18 -10 33 -10 42 0 74 -12 69 -25 -3 -6 0 -12 6 -13 58 -8 84 -8 98 -1 11
5 30 1 55 -12 34 -17 40 -18 50 -5 8 12 14 12 22 4 10 -10 43 -15 135 -20 15
-1 26 -6 24 -12 -3 -7 11 -11 34 -12 26 0 44 -7 54 -20 15 -19 15 -19 30 0 13
17 15 17 21 3 3 -10 12 -17 20 -17 8 0 14 -5 14 -11 0 -6 7 -3 16 5 19 20 25
20 18 1 -5 -13 -2 -13 26 -1 36 15 74 10 66 -9 -3 -8 4 -10 20 -7 13 2 30 -1
37 -7 9 -7 24 -8 45 -2 26 8 32 6 37 -9 7 -21 32 -33 40 -20 10 16 25 11 26
-7 0 -11 3 -13 6 -5 6 14 50 16 55 2 2 -5 23 -12 48 -15 24 -3 47 -11 51 -17
6 -9 28 -13 108 -17 7 -1 11 -7 8 -13 -2 -8 4 -14 17 -15 55 -4 76 -9 76 -16
0 -5 5 -5 10 -2 6 4 8 11 5 16 -4 5 -1 9 4 9 6 0 11 -8 11 -18 0 -14 8 -17 42
-17 25 0 43 -6 46 -13 3 -10 9 -9 23 4 11 9 22 14 26 11 3 -4 1 -7 -5 -7 -7 0
-12 -4 -12 -10 0 -5 7 -10 15 -10 8 0 15 6 15 12 0 7 7 2 16 -10 8 -12 21 -22
27 -22 7 0 6 4 -3 10 -8 5 -10 10 -5 10 6 0 19 -10 29 -21 12 -14 21 -18 28
-11 6 6 19 5 39 -5 16 -8 33 -12 39 -8 5 3 10 1 10 -4 0 -6 3 -10 8 -10 4 1
18 1 31 0 21 -1 23 -4 17 -33 -4 -22 -3 -28 3 -18 6 9 23 13 45 12 25 -2 38 3
45 15 9 17 11 17 24 -1 8 -10 18 -16 23 -13 6 3 8 -10 6 -31 -4 -33 -3 -35 12
-23 13 11 16 11 17 0 0 -10 2 -11 6 -1 7 18 23 15 23 -6 0 -25 39 -57 53 -43
17 17 37 13 38 -6 1 -17 2 -17 6 0 2 9 11 17 19 17 17 0 10 -39 -10 -53 -7 -6
-4 -7 7 -3 10 3 17 0 17 -8 0 -8 6 -16 14 -19 10 -4 12 0 9 14 -3 10 -9 19
-14 19 -5 0 -9 7 -9 16 0 26 25 9 28 -19 2 -15 8 -27 14 -27 6 0 8 -3 5 -7 -8
-8 11 -33 25 -33 6 0 5 7 -2 15 -9 10 -9 15 -1 15 6 0 11 -4 11 -10 0 -12 27
-13 32 -1 2 5 10 2 18 -7 13 -14 13 -15 -1 -10 -9 3 -22 2 -30 -3 -9 -5 4 -7
34 -3 36 4 47 2 47 -9 0 -9 10 -14 25 -14 14 0 34 -8 45 -18 11 -10 26 -15 35
-12 20 8 19 3 -2 -19 -17 -17 -17 -17 -1 -11 10 3 23 0 30 -7 7 -7 19 -11 26
-8 7 2 12 -5 12 -17 0 -13 5 -19 14 -15 8 3 17 1 21 -5 10 -17 25 -13 25 6 0
15 2 14 20 -2 12 -11 18 -27 16 -44 -2 -14 -1 -18 1 -8 5 21 23 23 23 3 0 -23
22 -31 35 -13 7 10 15 17 19 17 11 0 6 -28 -6 -32 -8 -3 -4 -10 11 -17 19 -11
25 -11 32 0 7 11 9 10 9 -3 0 -16 -10 -17 -107 -11 -60 3 -110 9 -113 13 -3 4
-72 11 -155 15 -82 4 -154 10 -160 14 -5 3 -75 12 -155 18 -80 7 -210 19 -290
27 -80 9 -201 20 -270 26 -69 6 -138 15 -155 20 -16 5 -77 11 -135 15 -58 3
-125 10 -150 16 -25 5 -92 14 -150 20 -58 5 -154 16 -215 24 -60 8 -155 20
-210 27 -55 7 -104 16 -110 19 -5 4 -40 10 -78 14 -37 4 -70 11 -72 15 -3 5
-30 12 -60 15 -30 4 -55 11 -55 16 0 4 -16 11 -35 15 -19 3 -35 10 -35 15 0 5
-6 9 -14 9 -8 0 -35 16 -60 35 -26 19 -49 35 -52 35 -7 0 -54 51 -72 80 -9 14
-22 29 -29 33 -7 4 -13 15 -13 22 0 8 -4 15 -10 15 -5 0 -12 11 -16 25 -3 14
-10 25 -15 25 -5 0 -9 6 -9 14 0 7 -6 19 -14 25 -8 7 -17 27 -20 46 -4 19 -11
35 -15 35 -5 0 -12 16 -15 35 -4 19 -11 35 -15 35 -5 0 -12 20 -15 45 -4 25
-11 45 -17 45 -5 0 -9 13 -9 28 0 19 5 29 15 29 8 0 15 -4 15 -9z m-2294 -664
c-9 -8 -16 -22 -16 -30 0 -8 -5 -14 -10 -14 -6 0 -15 -10 -20 -22 -6 -13 -19
-36 -30 -53 -11 -16 -23 -37 -26 -45 -4 -8 -14 -23 -22 -32 -10 -12 -15 -41
-16 -80 -1 -55 1 -63 18 -63 11 0 26 -14 36 -32 9 -18 29 -48 44 -67 14 -19
26 -46 26 -60 0 -45 26 -28 43 27 9 30 17 63 17 75 0 11 4 23 9 26 5 3 12 26
15 51 4 24 11 47 16 50 4 3 11 23 15 45 4 22 11 40 16 40 5 0 9 8 9 18 0 9 5
24 10 32 6 10 7 2 3 -25 -3 -22 -9 -45 -14 -50 -4 -6 -13 -42 -19 -80 -6 -37
-13 -72 -16 -76 -4 -8 -24 -155 -28 -204 -1 -13 4 -19 16 -17 20 3 84 -34 91
-52 5 -13 68 -31 97 -27 8 1 35 7 59 13 l43 11 -6 46 c-3 25 -13 89 -22 141
-9 52 -17 129 -19 170 -2 41 -1 64 1 50 3 -14 9 -34 13 -45 5 -11 14 -45 20
-75 30 -143 49 -196 64 -181 6 6 20 11 30 11 16 0 18 -5 12 -27 -6 -24 -5 -25
11 -12 33 26 54 49 54 58 0 5 6 11 14 14 7 3 23 26 36 52 31 63 22 108 -49
247 -31 62 -60 124 -64 138 -6 23 -5 23 18 -5 14 -17 29 -35 35 -42 5 -7 10
-15 10 -18 0 -6 37 -60 55 -81 6 -6 20 -23 33 -38 16 -19 29 -25 42 -21 24 8
25 -3 6 -42 -8 -15 -23 -46 -33 -68 -10 -22 -24 -46 -30 -53 -7 -7 -13 -20
-13 -28 0 -8 -4 -14 -9 -14 -5 0 -13 -9 -16 -20 -10 -31 -125 -143 -172 -167
-224 -117 -458 46 -583 407 -17 50 -29 99 -27 108 3 15 5 14 13 -3 15 -32 42
-26 76 19 18 22 37 46 43 52 5 6 23 28 40 48 16 20 38 36 48 36 17 0 17 -1 3
-16z m7667 -57 c45 -46 55 -50 272 -92 44 -8 108 -22 142 -30 34 -8 71 -15 83
-15 12 0 18 -4 15 -10 -3 -5 -22 -10 -41 -10 -20 0 -43 -4 -53 -10 -12 -6 -45
-5 -92 1 -41 5 -117 14 -169 20 -52 5 -130 14 -173 21 -109 15 -125 6 -130
-76 -2 -48 -4 -41 -5 31 -2 113 13 187 42 201 41 20 65 13 109 -31z m1667 -72
c0 -14 8 -29 20 -35 19 -10 20 -21 20 -178 0 -92 -5 -187 -11 -211 -5 -23 -14
-68 -19 -100 -13 -80 -40 -180 -71 -256 -43 -106 -62 -149 -78 -177 -11 -18
-29 -51 -41 -72 -36 -66 -110 -158 -184 -228 -39 -38 -74 -68 -78 -68 -3 0
-13 -6 -20 -12 -25 -23 -84 -55 -173 -93 -41 -18 -177 -45 -223 -45 -44 0
-190 32 -242 53 -64 26 -135 62 -150 77 -3 3 -24 18 -47 34 -24 16 -43 33 -43
37 0 5 -4 9 -10 9 -9 0 -80 66 -80 75 0 2 -14 19 -30 37 -48 52 -133 185 -174
273 -59 124 -65 138 -72 170 -4 17 -10 35 -15 40 -4 6 -10 31 -13 55 l-6 45
10 -39 c6 -22 14 -44 18 -50 5 -6 17 -37 27 -68 29 -86 39 -82 202 80 191 188
213 208 222 194 5 -8 17 -4 41 13 19 14 36 25 38 25 2 0 -24 -28 -58 -62 -34
-35 -79 -83 -99 -108 -20 -24 -43 -51 -51 -60 -9 -9 -31 -37 -49 -63 -19 -26
-38 -47 -43 -47 -4 0 -8 -6 -8 -14 0 -8 -6 -16 -13 -19 -23 -9 -57 -92 -57
-140 0 -47 16 -97 32 -97 4 0 8 -7 8 -15 0 -8 4 -15 9 -15 5 0 12 -8 15 -18
10 -31 149 -167 154 -151 3 8 10 20 16 28 9 11 12 9 16 -13 5 -28 5 -28 27 -9
20 18 43 68 63 138 10 37 29 90 47 132 7 17 13 40 13 52 0 12 4 21 9 21 5 0
13 15 16 33 4 17 11 37 15 42 4 6 11 25 15 43 3 17 11 32 15 32 5 0 12 16 16
35 3 19 10 35 14 35 5 0 11 14 15 30 4 17 10 30 15 30 5 0 11 14 15 30 4 17
10 30 13 30 4 0 18 24 32 52 27 58 93 128 119 128 36 0 45 -18 57 -122 22
-178 34 -252 43 -273 5 -11 13 -42 16 -69 4 -27 10 -56 15 -65 9 -17 25 -75
40 -148 5 -23 13 -50 19 -60 5 -10 19 -51 31 -91 16 -51 33 -84 57 -108 l35
-36 19 21 c10 11 19 26 19 33 1 9 5 8 13 -3 12 -15 16 -14 54 11 23 16 71 59
107 96 54 56 66 74 66 101 0 56 -41 138 -110 220 -5 7 -10 16 -10 22 0 5 -3
11 -8 13 -11 5 -82 106 -82 117 0 5 -6 16 -12 23 -17 19 -36 48 -48 76 -5 12
-14 22 -19 22 -5 0 -12 12 -16 27 -3 15 -12 31 -18 36 -7 4 1 5 17 3 27 -5 44
-20 68 -60 13 -23 24 -37 61 -77 15 -16 27 -32 27 -34 0 -3 8 -13 18 -23 9
-10 41 -46 70 -80 30 -34 75 -83 100 -110 43 -42 47 -45 50 -25 2 13 8 20 16
17 8 -3 20 10 30 33 9 21 23 51 31 66 8 16 15 36 15 46 0 9 4 21 9 27 11 11
38 107 52 181 5 29 14 64 19 78 6 15 10 43 10 63 0 20 5 73 12 119 12 80 11
84 -9 105 -21 20 -33 21 -275 26 -240 4 -254 3 -273 -15 -19 -19 -20 -19 -39
-1 -11 10 -32 18 -48 18 -45 0 -33 26 20 43 26 8 88 18 137 22 50 4 137 13
195 19 98 11 109 15 165 54 70 49 105 54 105 17z m-363 -955 c13 -25 23 -57
23 -72 0 -24 -4 -28 -27 -28 -16 0 -38 -3 -51 -6 -18 -5 -24 -2 -29 15 -3 11
-9 21 -13 21 -5 0 -11 14 -15 30 -4 17 -11 30 -16 30 -5 0 -9 7 -9 15 0 8 6
15 14 15 7 0 19 7 26 16 8 9 25 14 44 12 25 -2 35 -11 53 -48z"/>
<path d="M21780 7421 c0 -6 -5 -11 -10 -11 -12 0 -73 -41 -78 -52 -2 -5 -8 -8
-13 -8 -19 0 -139 -84 -139 -97 0 -20 44 -86 87 -130 120 -121 267 -86 353 84
l28 55 -26 29 c-14 16 -31 29 -39 29 -7 0 -13 4 -13 9 0 4 -28 26 -62 48 -86
55 -88 56 -88 44z"/>
<path d="M14864 5535 c-19 -10 -37 -31 -48 -58 -10 -23 -24 -54 -31 -69 -8
-15 -17 -42 -20 -60 -4 -18 -11 -37 -15 -43 -4 -5 -11 -26 -15 -45 -4 -19 -13
-55 -20 -80 -20 -66 -42 -154 -59 -245 -30 -158 -30 -167 13 -159 16 3 63 -4
107 -16 66 -19 100 -22 209 -20 72 1 143 2 159 2 32 1 32 -2 1 128 -8 36 -19
90 -25 120 -6 30 -15 64 -19 75 -11 26 -28 125 -41 240 -6 50 -15 98 -20 107
-6 10 -10 31 -10 47 0 69 -95 112 -166 76z"/>
<path d="M15030 10992 c0 -12 40 -33 50 -27 6 4 10 3 10 -2 0 -4 30 -17 66
-28 36 -11 68 -23 70 -26 2 -4 13 -5 23 -2 10 3 22 0 25 -6 4 -6 18 -11 32
-11 13 0 24 -4 24 -9 0 -5 17 -12 38 -16 20 -4 43 -12 51 -18 13 -11 65 -33
106 -44 22 -6 289 -138 430 -213 50 -26 137 -72 195 -101 58 -30 107 -57 110
-60 3 -4 16 -10 30 -14 14 -4 27 -11 30 -15 4 -6 72 -44 170 -96 19 -11 37
-22 38 -26 2 -5 8 -8 14 -8 6 0 47 -22 92 -48 45 -27 88 -52 96 -56 16 -7 35
-18 95 -57 22 -14 47 -29 55 -33 17 -8 38 -21 97 -59 24 -15 47 -27 53 -27 5
0 10 -4 10 -9 0 -5 14 -14 30 -21 17 -7 30 -16 30 -21 0 -5 5 -9 11 -9 27 0
479 -312 479 -331 0 -5 -21 -5 -47 -1 -27 4 -64 7 -83 7 -78 -1 -535 -27 -540
-32 -2 -2 112 -3 255 -3 146 1 291 -3 330 -9 89 -14 262 -14 270 -1 4 7 58 8
148 5 78 -2 133 -2 123 1 -11 4 -26 12 -34 20 -7 8 -20 14 -28 14 -8 0 -14 4
-14 9 0 5 -13 12 -30 16 -16 4 -30 10 -30 15 0 5 -13 11 -30 15 -16 4 -30 10
-30 15 0 5 -13 11 -30 15 -16 4 -30 10 -30 15 0 5 -14 11 -31 15 -19 4 -29 12
-25 20 2 7 -1 12 -7 12 -32 -1 -47 4 -47 16 0 7 -10 14 -22 14 -13 1 -24 7
-26 13 -2 5 -10 10 -18 10 -9 0 -12 4 -9 10 3 6 -1 7 -9 4 -10 -4 -16 -1 -16
10 0 10 -6 13 -15 10 -10 -4 -15 0 -15 15 0 12 5 21 10 21 6 0 10 4 10 9 0 5
-18 11 -40 15 -22 3 -40 10 -40 15 0 5 -13 12 -29 16 -16 3 -32 13 -35 21 -3
8 -12 14 -21 14 -8 0 -15 4 -15 9 0 5 -13 12 -30 16 -16 4 -30 11 -30 16 0 5
-11 11 -25 15 -14 3 -25 10 -25 14 0 5 -13 11 -30 15 -16 4 -30 11 -30 16 0 5
-7 9 -15 9 -9 0 -18 6 -21 14 -3 8 -19 18 -35 21 -16 4 -29 10 -29 15 0 4 -11
11 -25 14 -14 4 -25 10 -25 15 0 5 -13 12 -30 16 -16 4 -30 10 -30 15 0 5 -13
11 -29 15 -16 3 -32 13 -35 21 -3 8 -12 14 -21 14 -8 0 -15 4 -15 9 0 5 -13
12 -30 16 -16 4 -30 10 -30 15 0 5 -13 11 -30 15 -16 4 -30 11 -30 16 0 5 -11
11 -25 15 -14 3 -25 10 -25 14 0 5 -13 11 -30 15 -16 4 -30 10 -30 15 0 5 -13
11 -30 15 -16 4 -30 10 -30 15 0 5 -13 11 -30 15 -16 4 -30 10 -30 15 0 5 -13
11 -30 15 -16 4 -30 10 -30 15 0 5 -13 11 -30 15 -16 4 -30 10 -30 15 0 5 -13
11 -30 15 -16 4 -30 10 -30 15 0 5 -13 11 -30 15 -16 4 -30 10 -30 15 0 5 -13
11 -30 15 -16 4 -30 10 -30 15 0 5 -13 11 -30 15 -16 4 -30 10 -30 15 0 5 -13
11 -30 15 -16 4 -30 10 -30 15 0 4 -16 11 -35 14 -19 4 -35 11 -35 15 0 5 -12
12 -27 16 -15 3 -30 11 -34 16 -3 5 -24 10 -46 12 -27 1 -39 6 -36 15 3 6 -2
12 -11 12 -9 0 -16 -4 -16 -10 0 -5 -8 -10 -17 -9 -11 0 -13 3 -5 6 24 9 12
25 -15 19 -16 -3 -22 -3 -15 0 24 11 12 24 -28 30 -22 4 -40 10 -40 14 0 4
-16 11 -35 14 -19 4 -35 11 -35 15 0 5 -20 12 -45 15 -25 4 -45 11 -45 16 0 5
-25 12 -55 15 -30 4 -55 11 -55 16 0 4 -20 11 -45 15 -25 3 -45 10 -45 14 0 4
-22 10 -50 14 -27 4 -50 10 -50 15 0 5 -31 12 -70 15 -38 4 -70 11 -70 16 0 5
-29 12 -65 15 -36 4 -65 11 -65 16 0 5 -4 9 -10 9 -5 0 -10 -3 -10 -8z"/>
</g>
</svg>
