<?xml version="1.0" standalone="no"?>
<!DOCTYPE svg PUBLIC "-//W3C//DTD SVG 20010904//EN"
 "http://www.w3.org/TR/2001/REC-SVG-20010904/DTD/svg10.dtd">
<svg version="1.0" xmlns="http://www.w3.org/2000/svg"
 width="2880.000000pt" height="1725.000000pt" viewBox="0 0 2880.000000 1725.000000"
 preserveAspectRatio="xMidYMid meet">
<metadata>
Created by potrace 1.16, written by Peter Selinger 2001-2019
</metadata>
<g transform="translate(0.000000,1725.000000) scale(0.100000,-0.100000)"
fill="#000000" stroke="none">
<path d="M10808 11303 c-49 -2 -88 -8 -88 -12 0 -5 -43 -12 -95 -16 -52 -4
-95 -11 -95 -15 0 -5 -40 -12 -90 -16 -49 -3 -90 -10 -90 -14 0 -4 -40 -11
-90 -15 -49 -4 -90 -11 -90 -15 0 -4 -40 -11 -90 -15 -49 -4 -90 -10 -90 -15
0 -4 -39 -10 -87 -14 -48 -3 -90 -10 -93 -15 -3 -5 -35 -12 -72 -15 -38 -4
-68 -11 -68 -16 0 -5 -20 -12 -45 -16 -25 -3 -45 -10 -45 -14 0 -4 -22 -10
-50 -14 -27 -4 -50 -11 -50 -16 0 -5 -25 -12 -55 -15 -30 -4 -55 -11 -55 -16
0 -4 -20 -11 -45 -15 -25 -3 -45 -10 -45 -15 0 -4 -20 -11 -45 -15 -25 -3 -45
-10 -45 -14 0 -4 -16 -11 -35 -14 -19 -4 -35 -11 -35 -15 0 -5 -20 -12 -45
-15 -25 -4 -45 -11 -45 -16 0 -6 -18 -13 -40 -16 -22 -4 -40 -10 -40 -14 0 -4
-16 -11 -35 -14 -19 -4 -35 -11 -35 -16 0 -6 -18 -13 -39 -16 -22 -4 -42 -13
-45 -20 -3 -8 -12 -14 -21 -14 -8 0 -15 -4 -15 -9 0 -5 -11 -12 -25 -15 -14
-4 -25 -10 -25 -15 0 -5 -13 -12 -29 -16 -16 -3 -32 -13 -35 -21 -3 -8 -12
-14 -21 -14 -8 0 -15 -4 -15 -9 0 -5 -11 -12 -25 -15 -14 -4 -25 -10 -25 -15
0 -5 -13 -12 -29 -16 -16 -3 -32 -13 -35 -21 -3 -8 -12 -14 -21 -14 -8 0 -15
-4 -15 -9 0 -5 -13 -12 -30 -16 -16 -4 -30 -10 -30 -15 0 -4 -11 -11 -25 -14
-14 -4 -25 -10 -25 -15 0 -5 -13 -12 -30 -16 -16 -4 -30 -11 -30 -16 0 -5 -7
-9 -15 -9 -9 0 -18 -6 -21 -14 -3 -8 -16 -17 -30 -20 -13 -4 -24 -11 -24 -16
0 -6 -7 -10 -15 -10 -9 0 -18 -7 -21 -15 -4 -8 -12 -15 -20 -15 -8 0 -22 -9
-31 -20 -10 -11 -21 -20 -26 -20 -5 0 -22 -13 -39 -30 -16 -16 -34 -30 -39
-30 -5 0 -26 -18 -48 -40 -21 -22 -42 -40 -46 -40 -4 0 -30 -22 -57 -50 -27
-27 -53 -50 -58 -50 -5 0 -41 -31 -79 -70 -38 -38 -72 -70 -76 -70 -9 0 -255
-246 -255 -256 0 -4 -16 -22 -35 -41 -19 -19 -35 -40 -35 -48 0 -8 -4 -15 -10
-15 -17 0 -11 -40 8 -47 9 -4 20 -11 24 -17 10 -15 663 -20 888 -7 96 6 370
13 608 16 l433 6 -35 -34 -34 -34 -344 -8 c-188 -4 -372 -8 -408 -10 -36 -2
-215 -7 -398 -11 -183 -4 -331 -9 -329 -11 2 -2 107 -5 233 -7 126 -2 236 -7
246 -11 9 -3 23 -21 31 -38 19 -38 10 -58 -41 -92 -42 -27 -213 -85 -252 -85
-14 0 -56 -6 -95 -14 -110 -23 -276 -46 -325 -46 -25 0 -61 -5 -81 -10 -20 -6
-85 -14 -145 -20 -60 -5 -145 -14 -189 -20 -44 -6 -120 -15 -170 -21 -49 -6
-98 -13 -107 -15 -12 -4 -18 0 -18 10 0 20 -9 20 -29 2 -17 -14 -165 -46 -216
-46 -65 0 -225 -68 -225 -95 0 -7 -9 -17 -21 -20 -12 -4 -18 -12 -15 -21 3 -8
-1 -14 -8 -14 -8 0 -17 -6 -19 -12 -3 -7 -6 2 -6 20 -1 17 4 32 9 32 6 0 10 7
10 17 0 9 11 35 25 59 23 39 23 42 5 37 -11 -3 -20 -12 -20 -19 0 -8 -4 -14
-9 -14 -12 0 -51 -76 -51 -100 0 -11 -4 -20 -8 -20 -4 0 -12 -15 -18 -32 -5
-18 -15 -32 -22 -31 -6 2 -12 -4 -12 -12 0 -8 -5 -15 -10 -15 -6 0 -26 -16
-45 -36 -23 -23 -41 -34 -52 -30 -51 14 -114 18 -128 6 -20 -16 -19 -7 4 38
10 20 26 52 35 70 9 19 16 48 16 67 0 28 -4 33 -31 39 -17 3 -44 6 -59 6 -34
0 -42 8 -29 31 7 15 6 17 -6 13 -8 -4 -18 -17 -21 -29 -3 -13 -12 -26 -20 -29
-8 -3 -14 -12 -14 -20 0 -10 6 -13 15 -10 8 4 15 12 15 20 0 8 7 14 15 14 19
0 19 -17 0 -36 -19 -20 -19 -43 0 -50 33 -13 2 -59 -45 -66 -18 -2 -28 -12
-35 -34 -5 -16 -18 -42 -27 -56 -18 -27 -45 -95 -55 -135 -3 -13 -10 -23 -15
-23 -6 0 -8 12 -4 28 3 15 10 49 16 76 6 28 14 52 18 55 12 9 55 141 48 148
-3 4 -6 -1 -6 -9 0 -9 -7 -18 -15 -22 -8 -3 -15 -12 -15 -21 0 -8 -4 -15 -10
-15 -5 0 -13 -18 -16 -40 -4 -22 -10 -40 -14 -40 -5 0 -11 -34 -15 -75 -4 -41
-11 -75 -16 -75 -5 0 -9 -7 -9 -15 0 -8 6 -15 13 -15 9 0 9 -2 -1 -9 -8 -4
-16 -27 -19 -50 -3 -22 -9 -41 -13 -41 -4 0 -11 -20 -14 -45 -4 -25 -11 -45
-15 -45 -5 0 -11 -19 -14 -41 -3 -23 -11 -45 -17 -49 -6 -4 -14 -26 -17 -49
-3 -22 -9 -41 -14 -41 -5 0 -12 -18 -15 -40 -4 -22 -10 -40 -14 -40 -4 0 -11
-12 -15 -27 -3 -15 -11 -31 -16 -34 -6 -3 -11 -46 -13 -95 -2 -49 -1 -63 1
-31 2 31 8 57 12 57 5 0 11 17 15 39 3 21 13 51 21 67 8 16 15 37 15 47 0 9 4
17 9 17 6 0 13 20 17 45 3 25 10 45 15 45 4 0 11 16 15 35 3 19 10 35 15 35 4
0 11 20 15 45 3 25 10 45 14 45 5 0 11 23 15 50 4 28 10 50 15 50 4 0 11 11
14 24 4 18 15 25 45 30 22 3 46 9 55 12 13 5 16 -2 16 -46 0 -52 -32 -227 -50
-275 -6 -15 -10 -37 -10 -51 0 -13 -4 -24 -9 -24 -5 0 -13 -15 -16 -32 -7 -30
-47 -124 -81 -190 -8 -14 -14 -46 -14 -71 0 -46 34 -197 52 -230 9 -18 7 -19
-26 -13 -31 6 -36 4 -36 -11 1 -10 22 -33 47 -52 44 -32 189 -111 206 -111 15
0 6 37 -18 70 -24 32 -24 34 -7 59 45 66 98 203 112 286 8 54 34 126 70 198
26 51 36 52 87 4 l32 -30 -22 -41 c-12 -22 -24 -43 -27 -46 -3 -3 -15 -27 -28
-55 -13 -27 -28 -58 -33 -69 -30 -54 -78 -229 -84 -307 -7 -82 -6 -87 16 -108
24 -22 24 -26 24 -214 0 -106 6 -228 13 -272 22 -144 59 -301 87 -375 8 -19
17 -56 20 -82 5 -39 3 -48 -9 -48 -8 0 -19 6 -23 14 -4 7 -13 15 -19 17 -50
17 -433 404 -434 437 0 6 -7 12 -16 12 -14 0 -16 -13 -12 -101 2 -56 8 -103
15 -107 5 -4 14 -18 18 -31 8 -25 66 -91 80 -91 4 0 18 -11 30 -24 12 -13 32
-27 43 -31 12 -3 22 -11 22 -16 0 -5 6 -9 13 -9 7 0 20 -9 30 -20 9 -11 23
-20 31 -20 8 0 16 -7 20 -15 3 -8 12 -15 21 -15 8 0 15 -4 15 -10 0 -5 11 -12
24 -16 14 -3 27 -12 30 -20 3 -8 12 -14 21 -14 8 0 15 -4 15 -9 0 -5 12 -12
26 -15 43 -11 58 -34 62 -97 2 -33 8 -59 12 -59 4 0 10 -32 14 -72 4 -40 10
-75 15 -78 5 -3 12 -31 16 -62 4 -32 11 -58 15 -58 4 0 11 -20 14 -45 4 -25
11 -45 17 -45 13 0 11 -36 -3 -48 -7 -5 -44 -11 -83 -12 -38 -1 -90 -3 -115
-4 -25 0 -50 -4 -57 -9 -6 -4 -15 -3 -18 3 -5 8 -11 7 -22 -1 -12 -10 -16 -10
-24 2 -6 9 -12 10 -16 4 -5 -5 -17 -11 -28 -12 -27 -4 -303 -15 -337 -14 -16
0 -28 -5 -28 -12 0 -8 -4 -7 -11 3 -8 11 -12 12 -16 3 -3 -9 -10 -10 -24 -3
-13 7 -19 7 -19 0 0 -14 -27 -13 -33 3 -4 9 -7 9 -14 0 -6 -9 -54 -15 -144
-19 -179 -9 -172 -8 -186 -17 -8 -5 -13 -3 -13 4 0 8 -4 8 -15 -1 -12 -10 -15
-10 -15 1 0 10 -3 10 -12 1 -15 -15 -48 -16 -48 -1 0 8 -4 8 -14 0 -8 -7 -55
-14 -105 -15 -53 -2 -97 -9 -106 -16 -10 -8 -15 -9 -15 -2 0 12 -89 10 -108
-2 -7 -4 -12 -2 -12 5 0 9 -3 9 -14 -1 -10 -7 -59 -12 -135 -13 -95 -2 -121
-5 -121 -16 0 -11 -3 -11 -15 -1 -12 10 -18 10 -30 0 -8 -7 -15 -8 -15 -3 0
10 -24 10 -52 -1 -43 -15 -47 -15 -41 2 6 15 5 15 -11 3 -9 -8 -41 -15 -69
-16 -29 -1 -63 -5 -77 -9 -20 -6 -22 -5 -10 4 12 8 8 9 -15 4 -16 -4 -36 -11
-42 -17 -9 -6 -13 -6 -13 3 0 10 -3 10 -15 0 -12 -10 -15 -10 -15 0 0 10 -4
10 -16 -1 -13 -10 -17 -10 -25 2 -8 12 -11 12 -19 -2 -7 -12 -23 -15 -62 -13
-29 1 -59 -3 -67 -9 -11 -9 -15 -9 -18 1 -3 6 -9 10 -13 7 -5 -3 -25 -6 -45
-7 -19 -1 -35 -6 -35 -12 0 -6 -5 -4 -11 4 -8 11 -12 12 -16 3 -6 -17 -30 -17
-36 0 -4 8 -6 6 -6 -4 -1 -13 -11 -15 -54 -13 -36 1 -57 -3 -69 -13 -10 -9
-18 -11 -18 -5 0 6 6 13 13 16 6 3 -1 3 -18 -1 -16 -3 -35 -10 -42 -15 -7 -6
-12 -3 -15 8 -3 16 -4 17 -20 1 -19 -20 -38 -22 -38 -5 0 6 -8 4 -19 -6 -17
-16 -19 -16 -25 1 -6 15 -8 15 -16 3 -6 -9 -27 -15 -60 -16 -29 0 -55 -6 -59
-13 -6 -9 -11 -8 -21 4 -11 14 -14 13 -26 -2 -10 -13 -13 -14 -14 -4 0 11 -3
11 -15 1 -11 -9 -15 -9 -15 -1 0 8 -7 7 -22 -3 -29 -20 -38 -20 -38 0 0 14 -3
14 -16 4 -8 -8 -33 -14 -56 -15 -22 -1 -44 -8 -49 -16 -7 -11 -9 -10 -9 4 0 9
-4 17 -10 17 -5 0 -10 -7 -10 -16 0 -14 -3 -14 -15 -4 -12 10 -15 10 -15 0 0
-10 -3 -10 -15 0 -8 7 -15 8 -15 2 0 -5 -9 -12 -19 -15 -15 -4 -18 -1 -14 12
6 15 5 15 -13 0 -10 -8 -31 -14 -46 -13 -20 2 -28 -2 -28 -14 0 -15 -1 -15
-17 0 -15 16 -17 16 -29 0 -10 -12 -13 -13 -14 -3 0 11 -3 11 -15 1 -11 -9
-15 -9 -15 -1 0 7 -9 5 -25 -5 -14 -9 -28 -14 -32 -10 -3 3 -1 6 6 6 7 0 9 5
6 11 -5 6 -11 4 -19 -7 -7 -9 -17 -14 -22 -11 -6 3 -16 2 -24 -3 -7 -4 -24 -4
-38 1 -20 8 -30 5 -49 -13 -23 -21 -26 -22 -37 -6 -12 16 -14 16 -30 0 -16
-16 -18 -16 -30 1 -12 15 -15 16 -26 2 -7 -9 -19 -14 -26 -11 -7 3 -18 -2 -24
-9 -10 -12 -14 -12 -28 2 -16 16 -17 15 -20 -5 -4 -26 -17 -28 -31 -4 -9 16
-10 16 -17 -1 -6 -17 -8 -17 -25 -1 -17 15 -19 15 -19 1 0 -12 -10 -15 -42
-13 -26 1 -50 -4 -60 -12 -15 -13 -20 -13 -35 -1 -15 12 -16 12 -11 -2 3 -9 2
-22 -4 -30 -8 -11 -9 -10 -4 4 3 10 0 17 -8 17 -8 0 -16 3 -19 8 -2 4 -2 1 0
-7 2 -9 -4 -12 -21 -7 -18 4 -26 1 -29 -11 -4 -17 -5 -17 -6 0 -2 25 -21 21
-22 -5 -1 -18 -2 -19 -6 -5 -4 14 -8 16 -19 6 -11 -9 -14 -8 -14 2 -1 10 -5 9
-14 -4 -13 -17 -15 -17 -31 5 -17 23 -17 23 -12 1 3 -15 1 -20 -8 -17 -7 3
-15 -3 -18 -13 -4 -16 -5 -16 -6 0 -1 23 -22 22 -28 -3 -7 -27 -23 -25 -24 3
-1 17 -2 18 -6 4 -4 -15 -7 -16 -21 -5 -13 11 -15 11 -10 -3 5 -13 2 -16 -13
-12 -10 3 -19 10 -19 15 0 6 -7 5 -15 -2 -8 -7 -15 -19 -15 -28 0 -13 -2 -13
-18 1 -24 22 -32 21 -32 0 0 -15 -2 -16 -9 -4 -8 12 -12 10 -22 -12 -12 -26
-13 -26 -32 -10 -18 17 -19 17 -32 0 -11 -15 -14 -15 -25 -2 -17 20 -27 19
-33 -5 -3 -11 -11 -20 -19 -19 -10 0 -10 2 0 6 6 2 12 9 12 15 0 6 -6 6 -15
-2 -8 -7 -15 -19 -15 -27 0 -8 -5 -11 -10 -8 -14 9 -12 42 3 48 9 4 9 6 -1 6
-7 1 -16 -9 -21 -22 -5 -13 -17 -29 -27 -37 -10 -9 -15 -10 -10 -3 4 7 1 23
-6 35 -12 23 -12 23 -18 -7 -5 -25 -10 -30 -32 -27 -18 2 -28 -3 -31 -15 -4
-16 -5 -16 -6 -1 0 9 6 24 15 32 8 9 11 16 6 16 -14 0 -39 -32 -44 -55 -3 -16
-6 -14 -20 15 l-18 35 0 -37 c0 -46 -16 -58 -25 -18 -9 41 -23 38 -27 -7 l-3
-38 -17 35 c-14 27 -18 30 -18 14 0 -12 -6 -27 -14 -33 -12 -10 -13 -8 -9 11
7 28 0 22 -22 -17 l-17 -30 7 30 c6 29 6 29 -14 11 -12 -11 -21 -27 -21 -37 0
-10 -4 -21 -10 -24 -6 -4 -10 5 -10 19 0 14 4 26 9 26 5 0 11 9 14 19 3 14 1
18 -9 14 -8 -3 -14 -11 -14 -19 0 -7 -6 -11 -13 -8 -7 2 -22 -4 -32 -16 -10
-11 -13 -20 -7 -20 6 0 15 8 21 17 5 10 12 15 15 12 3 -3 -5 -16 -19 -29 l-25
-23 -6 31 c-8 39 -24 42 -24 5 0 -38 -10 -73 -21 -73 -5 0 -9 6 -9 13 0 7 -9
20 -20 30 -20 17 -20 16 -15 -23 l5 -41 -21 20 c-15 13 -20 28 -17 45 4 18 1
23 -10 19 -10 -4 -13 -16 -9 -44 4 -30 2 -36 -7 -26 -7 6 -15 20 -19 29 -3 10
-12 18 -19 17 -10 0 -10 -2 0 -6 14 -6 17 -63 2 -63 -5 0 -10 8 -10 18 0 9 -4
24 -9 31 -6 10 -8 -1 -4 -30 5 -43 -11 -48 -19 -5 -1 11 -9 21 -16 22 -7 1 -8
0 -2 -3 14 -7 12 -22 -5 -39 -8 -9 -15 -24 -15 -35 0 -10 -4 -19 -10 -19 -5 0
-10 9 -10 20 0 32 -28 12 -33 -23 l-4 -32 -1 33 c-1 17 -6 32 -12 32 -18 0
-11 20 16 45 14 13 24 30 21 37 -3 8 -9 2 -17 -14 -7 -16 -17 -28 -21 -28 -17
0 -51 -85 -46 -117 4 -22 1 -35 -8 -40 -7 -5 -15 -19 -17 -33 -3 -14 -4 9 -4
51 1 64 4 76 16 71 13 -5 13 -3 2 10 -10 13 -10 17 0 21 10 4 10 6 1 6 -7 1
-20 -13 -29 -30 -13 -25 -18 -29 -26 -18 -8 11 -9 10 -4 -4 3 -10 6 -23 6 -28
0 -17 20 -9 21 9 0 12 2 13 6 3 3 -8 -3 -20 -13 -28 -16 -12 -17 -15 -4 -23
10 -7 11 -10 3 -10 -17 0 -17 -47 0 -53 9 -4 9 -7 0 -17 -10 -11 -14 -5 -19
28 -8 51 -24 55 -24 6 0 -27 8 -42 33 -65 30 -28 31 -31 15 -43 -19 -14 -24
-36 -8 -36 5 0 14 9 20 20 6 11 15 20 21 20 5 0 -4 -15 -20 -32 -31 -33 -40
-58 -21 -58 6 0 10 8 11 18 0 12 3 10 10 -7 5 -13 7 -26 4 -29 -3 -3 -5 1 -5
8 0 8 -8 4 -19 -9 -21 -24 -19 -46 6 -55 11 -5 13 -14 9 -34 -5 -18 -4 -22 3
-13 5 8 9 29 9 47 0 18 3 38 8 45 11 18 22 -19 21 -68 -2 -29 2 -39 11 -36 6
3 12 16 12 29 0 13 -6 24 -12 24 -9 0 -8 4 2 10 10 6 11 13 5 17 -11 8 -36 95
-30 102 2 2 7 -8 11 -23 3 -14 10 -26 15 -26 5 0 9 -11 9 -24 0 -14 7 -32 16
-40 14 -15 17 -14 34 6 l19 23 -6 -25 c-5 -24 -5 -24 9 -6 14 18 15 18 22 -7
7 -28 26 -37 26 -13 0 7 7 19 15 26 10 9 15 9 15 1 0 -6 -4 -11 -10 -11 -16 0
-12 -18 10 -40 26 -26 28 -25 32 7 2 14 9 28 16 29 7 1 8 0 2 -3 -17 -8 -11
-48 10 -61 21 -13 28 -52 9 -52 -8 0 -8 -4 0 -14 8 -10 9 -16 1 -19 -6 -3 -5
-4 2 -3 7 1 14 13 14 25 2 35 14 37 26 3 14 -35 27 -42 30 -14 1 9 2 24 4 32
1 8 2 28 3 44 1 24 4 27 13 18 10 -10 10 -17 0 -32 -7 -12 -8 -21 -2 -25 13
-8 13 -55 0 -55 -5 0 -10 -5 -10 -11 0 -8 5 -8 15 1 8 7 15 21 15 30 0 10 6
21 13 23 9 4 8 8 -3 16 -8 6 -10 11 -5 11 13 0 45 -36 45 -50 0 -17 -18 -11
-23 8 -2 9 -4 1 -4 -17 0 -19 -5 -37 -11 -39 -7 -2 -12 -8 -12 -14 0 -6 6 -6
15 2 8 7 15 18 15 25 0 7 7 15 15 19 10 3 15 -1 15 -14 0 -10 5 -22 11 -26 8
-4 7 -9 -2 -16 -11 -8 -11 -9 1 -5 16 4 16 59 -1 65 -5 2 -9 8 -9 14 0 6 6 6
15 -2 8 -7 15 -19 15 -26 0 -8 5 -14 10 -14 10 0 14 14 10 39 -1 11 2 10 15
-3 22 -22 28 -20 22 7 -6 21 -5 21 14 -3 10 -14 23 -30 29 -37 12 -15 13 -33
1 -33 -5 0 -12 11 -15 25 -7 28 -21 33 -30 9 -3 -9 -13 -14 -21 -11 -9 4 -12
1 -8 -9 3 -7 9 -14 14 -14 12 0 11 -27 -1 -33 -6 -3 -5 -4 2 -3 7 2 13 16 13
31 0 16 6 30 13 32 6 3 12 -2 12 -10 0 -7 9 -22 20 -32 11 -10 20 -24 20 -30
0 -7 7 -15 14 -18 11 -4 13 -1 9 11 -4 9 -11 20 -16 23 -5 4 0 16 11 27 14 14
24 17 28 11 4 -6 0 -15 -7 -20 -7 -4 -11 -10 -8 -13 3 -4 19 7 35 24 16 16 33
30 37 30 5 0 1 -7 -7 -16 -9 -8 -16 -21 -16 -29 0 -7 -5 -15 -11 -17 -7 -2 -4
-10 7 -18 16 -13 17 -13 12 1 -3 9 -2 22 3 30 6 11 12 6 21 -18 14 -38 23 -42
31 -13 7 26 27 26 27 0 0 -11 -4 -20 -10 -20 -5 0 -10 -5 -10 -11 0 -8 5 -7
15 1 12 10 14 25 10 57 l-5 44 30 -30 c18 -17 37 -28 45 -24 17 6 20 19 5 26
-6 3 -5 4 2 3 7 -1 13 -12 14 -23 1 -11 4 -27 8 -34 4 -8 0 -5 -8 5 -9 11 -19
16 -23 13 -3 -4 2 -13 12 -21 12 -8 15 -18 10 -27 -5 -8 1 -5 13 5 24 20 28
41 12 49 -6 3 -5 4 2 3 9 -2 12 -18 11 -45 -1 -37 0 -41 14 -30 8 8 11 15 5
17 -7 2 -5 12 3 29 7 14 11 33 7 41 -5 14 -4 15 10 2 9 -8 12 -16 7 -18 -13
-5 -11 -29 4 -52 10 -17 9 -22 -3 -30 -11 -7 -12 -12 -4 -20 9 -9 13 -4 19 17
3 15 12 31 18 35 6 4 8 10 4 15 -5 4 -12 1 -17 -7 -6 -8 -10 -10 -10 -5 0 6
10 19 22 29 17 15 20 15 15 3 -3 -9 1 -24 11 -34 16 -16 16 -16 -2 -10 -19 8
-19 7 -1 -13 21 -23 26 -25 19 -7 -2 7 2 21 10 32 15 19 15 19 17 -10 2 -53 4
-58 17 -61 7 -1 8 0 2 3 -7 3 -5 11 5 23 10 11 15 25 12 32 -4 8 -6 7 -6 -4
-1 -10 -5 -18 -11 -18 -14 0 -12 27 3 33 9 4 8 8 -3 16 -11 7 -12 13 -4 21 9
9 13 5 18 -14 3 -14 11 -26 16 -26 6 0 10 -15 11 -32 0 -18 3 -26 6 -18 2 8 7
22 10 30 4 8 5 22 4 30 -1 11 0 12 7 2 4 -7 7 -34 6 -60 -1 -26 0 -40 3 -32 4
8 11 18 17 22 8 6 7 11 -3 17 -8 5 -10 14 -6 22 7 10 10 9 14 -4 4 -12 10 -14
21 -7 13 9 13 11 0 20 -8 5 -10 10 -5 10 15 0 45 -37 45 -56 0 -9 -6 -14 -12
-11 -7 2 -12 11 -12 20 1 9 -4 13 -13 10 -11 -4 -9 -11 9 -30 l22 -24 15 28
c8 15 14 33 13 40 -1 6 1 14 6 17 4 2 8 -7 8 -22 1 -55 4 -72 14 -72 14 0 13
37 -1 42 -7 2 -6 8 4 16 12 11 15 10 13 -4 -1 -20 21 -30 27 -12 2 7 2 3 0 -9
-1 -12 3 -26 10 -30 8 -4 17 -15 20 -23 4 -10 6 -8 4 6 -1 11 4 28 12 37 9 12
10 17 2 17 -6 0 -14 -7 -17 -15 -4 -8 -11 -15 -17 -15 -6 0 0 11 13 25 21 22
25 23 33 10 5 -9 6 -22 3 -30 -3 -9 0 -12 9 -9 8 3 16 15 18 27 3 12 3 5 2
-17 l-3 -38 35 33 c20 19 33 28 29 21 -5 -8 6 -27 30 -50 21 -20 35 -29 32
-20 -4 9 -1 22 7 28 10 8 14 7 18 -7 4 -17 5 -17 6 0 0 10 7 24 14 31 15 15
25 6 46 -39 9 -21 15 -25 19 -15 3 7 0 16 -7 18 -6 2 -9 8 -6 12 3 5 15 0 27
-12 15 -15 17 -22 8 -28 -7 -5 -9 -13 -5 -21 6 -9 10 -8 16 7 11 29 10 41 -4
56 -12 11 -12 16 1 28 14 13 15 12 9 -3 -3 -9 0 -22 7 -30 8 -7 16 -22 19 -33
3 -14 5 -13 6 7 0 15 7 31 14 37 9 8 12 0 10 -35 -2 -38 0 -43 13 -32 10 8 11
14 4 19 -7 5 -6 11 5 20 13 11 14 10 8 -6 -6 -17 -5 -17 10 -5 10 7 17 9 17 3
0 -6 -6 -12 -12 -15 -10 -3 -9 -9 4 -22 16 -17 17 -17 11 4 -4 17 -2 20 11 15
9 -3 16 -10 16 -16 0 -16 21 3 30 28 5 13 15 24 22 23 10 0 10 -2 1 -6 -7 -2
-13 -15 -13 -28 0 -13 -4 -27 -10 -30 -5 -3 -10 -10 -10 -16 0 -5 9 0 20 11
11 11 20 24 20 28 0 4 5 13 12 20 9 9 15 5 28 -16 16 -24 16 -29 2 -44 -23
-27 -9 -22 23 8 15 14 24 28 21 32 -4 3 -11 0 -16 -8 -13 -21 -12 -3 1 22 10
19 11 19 25 -8 12 -22 12 -29 2 -35 -7 -4 -10 -10 -8 -13 3 -2 16 5 29 16 21
16 23 21 10 29 -12 9 -12 10 1 6 18 -5 16 -47 -3 -59 -9 -6 -9 -8 1 -8 7 0 16
8 19 18 10 25 42 57 50 49 3 -4 1 -7 -5 -7 -17 0 -15 -17 3 -24 8 -3 21 1 28
9 13 12 15 10 15 -12 0 -17 -3 -21 -9 -12 -4 7 -11 10 -15 6 -4 -4 1 -13 11
-21 11 -8 15 -18 10 -26 -6 -9 -4 -11 4 -6 7 5 10 13 8 20 -3 6 1 20 9 31 14
18 14 18 14 -3 0 -12 5 -22 10 -22 10 0 14 21 10 49 -2 16 54 -37 63 -59 3 -8
6 0 6 18 1 39 21 43 21 4 0 -16 9 -37 20 -47 12 -11 20 -13 20 -6 0 6 -7 14
-15 17 -20 8 -19 21 2 42 16 16 16 16 10 0 -9 -25 20 -53 39 -37 16 13 19 45
4 52 -6 3 -5 4 2 3 8 -1 14 -21 16 -45 3 -42 21 -49 23 -8 0 15 2 17 6 7 8
-22 34 -50 47 -50 6 0 5 4 -3 9 -11 7 -10 12 7 29 l20 20 22 -23 c13 -14 17
-25 10 -28 -6 -3 -5 -4 2 -3 8 2 12 15 11 32 -1 16 0 22 4 14 3 -8 11 -21 17
-29 6 -7 11 -21 11 -29 0 -8 7 -17 15 -19 13 -4 13 -3 0 6 -13 10 -13 12 0 20
10 7 20 5 33 -7 16 -14 19 -14 17 -2 -6 37 0 45 17 25 15 -20 15 -20 10 3 -4
19 -3 21 9 11 8 -6 15 -23 15 -38 1 -21 2 -22 6 -6 3 11 10 23 17 28 8 5 7 10
-4 16 -8 6 -11 14 -6 18 5 4 11 2 13 -5 3 -7 14 -21 25 -32 14 -13 18 -25 13
-41 -7 -21 -6 -22 9 -7 18 19 21 38 6 38 -5 0 -10 8 -10 18 1 16 2 16 13 0 14
-18 31 -13 39 12 3 8 6 0 5 -18 0 -21 -3 -28 -8 -20 -4 7 -11 9 -16 5 -10 -11
17 -27 33 -20 7 2 15 10 17 16 2 7 3 -1 1 -16 -3 -23 -1 -26 10 -15 7 7 17 27
23 43 l10 30 13 -28 c15 -30 25 -34 34 -12 3 8 11 15 18 15 9 0 9 -3 -2 -10
-13 -9 -13 -11 0 -21 13 -9 13 -10 -2 -5 -12 3 -15 1 -11 -10 8 -22 22 -17 29
11 8 31 24 23 25 -13 1 -18 3 -21 6 -9 4 14 8 16 19 6 8 -6 14 -18 14 -25 0
-8 5 -14 10 -14 15 0 12 19 -5 36 -8 9 -14 25 -14 37 2 22 2 22 6 0 5 -27 18
-30 31 -7 8 14 10 14 21 0 7 -8 11 -21 8 -28 -4 -8 -6 -7 -6 5 -1 20 -21 24
-21 3 0 -24 29 -26 50 -4 20 22 20 22 38 2 11 -11 22 -26 25 -34 3 -8 6 0 6
18 1 47 19 39 27 -13 7 -51 20 -59 26 -16 3 22 1 28 -10 23 -10 -3 -9 2 4 16
10 12 23 22 29 22 5 0 3 -5 -5 -10 -10 -7 -11 -12 -4 -17 6 -5 13 -16 17 -26
8 -21 26 -22 33 -2 5 12 10 13 20 4 8 -6 14 -18 14 -25 0 -8 5 -14 10 -14 15
0 12 19 -5 36 -8 9 -14 23 -14 32 1 14 2 14 6 -1 3 -11 11 -16 19 -13 8 3 14
-1 14 -8 0 -8 7 -16 15 -20 9 -3 15 0 15 10 0 8 6 22 14 29 12 12 14 9 11 -23
-1 -20 0 -27 2 -14 4 19 7 21 19 11 8 -6 14 -18 14 -25 0 -8 5 -14 10 -14 6 0
10 7 10 15 0 8 -4 15 -10 15 -5 0 -10 7 -10 15 0 8 5 15 10 15 6 0 10 -6 10
-14 0 -7 7 -19 15 -26 11 -9 12 -15 5 -20 -7 -5 -6 -11 5 -20 13 -11 15 -7 11
31 -2 24 -2 36 1 26 6 -22 29 -16 27 7 -2 14 1 15 13 4 10 -8 11 -14 4 -16
-15 -5 -14 -29 2 -35 17 -7 44 9 34 20 -5 4 -13 1 -18 -7 -9 -13 -10 -13 -6 0
2 8 12 14 21 14 9 -1 16 5 16 13 0 8 5 11 10 8 14 -8 13 -42 -1 -47 -7 -2 -5
-9 6 -18 14 -12 16 -12 15 1 -5 36 0 44 16 24 l16 -20 -2 20 c-4 35 0 46 11
39 8 -5 8 -8 0 -14 -9 -5 -8 -10 4 -20 8 -7 15 -21 15 -31 0 -11 5 -19 10 -19
6 0 10 9 10 20 0 11 -4 20 -10 20 -5 0 -10 7 -10 15 0 8 5 15 10 15 6 0 10 -6
10 -13 0 -8 9 -22 20 -32 19 -17 19 -16 17 11 -3 38 27 40 31 2 2 -14 10 -29
18 -32 9 -3 12 -1 9 4 -4 6 -3 19 0 31 6 19 8 19 25 4 21 -19 44 -11 35 13 -5
13 -2 12 15 -3 11 -10 20 -26 20 -37 0 -10 5 -18 10 -18 6 0 10 6 10 13 0 7 8
20 19 29 17 15 19 14 19 -9 0 -17 -3 -21 -9 -12 -4 7 -11 11 -14 7 -4 -3 3
-16 16 -29 12 -12 20 -16 17 -8 -3 8 0 23 8 34 14 18 14 18 14 -3 0 -28 16
-29 23 -2 3 11 11 20 19 20 11 0 11 -2 0 -9 -8 -4 -12 -19 -10 -32 3 -24 4
-24 19 5 10 18 19 25 23 17 11 -17 34 -13 39 7 3 12 5 13 6 2 1 -17 61 -55 61
-39 0 5 -7 12 -15 15 -8 4 -15 11 -15 16 0 15 31 -13 52 -47 20 -33 23 -30 9
8 -15 38 2 51 29 22 13 -14 19 -25 13 -25 -6 0 -13 7 -17 15 -3 8 -11 15 -18
15 -7 0 -4 -9 9 -21 23 -24 43 -18 43 12 0 36 20 19 21 -18 1 -35 2 -36 8 -10
l6 29 24 -26 c15 -16 19 -26 11 -26 -7 0 -10 -3 -6 -7 4 -4 16 3 26 17 18 24
19 24 39 6 12 -11 21 -14 21 -8 0 6 -5 12 -12 14 -6 2 -8 9 -4 16 5 8 13 5 28
-10 17 -17 18 -22 7 -30 -11 -8 -11 -9 1 -5 9 2 14 14 13 31 -1 21 1 24 11 14
7 -7 15 -21 19 -31 3 -9 12 -17 19 -16 10 0 10 2 1 6 -15 6 -17 39 -3 48 6 3
10 0 10 -8 0 -8 7 -20 15 -27 9 -8 15 -8 15 -2 0 6 -5 13 -10 15 -6 3 -5 4 2
3 7 -1 15 -11 16 -22 8 -43 24 -39 19 5 l-5 44 18 -31 c13 -21 25 -30 35 -26
8 4 15 10 15 15 0 12 -17 11 -23 -1 -3 -6 -4 -5 -3 2 5 27 31 13 31 -16 0 -18
6 -31 15 -33 12 -4 12 -3 1 5 -9 7 -10 12 -2 16 6 4 12 22 12 39 1 21 3 25 6
12 3 -11 14 -30 26 -43 l21 -23 15 28 15 28 7 -30 c4 -16 7 -24 8 -18 1 17 33
53 46 53 5 0 3 -5 -5 -10 -13 -9 -13 -11 0 -21 13 -10 13 -10 0 -6 -10 3 -16
-2 -16 -13 0 -25 21 -14 36 18 l13 27 6 -30 c7 -34 34 -41 39 -10 7 36 22 41
22 7 l0 -32 30 32 c16 18 30 27 30 21 0 -7 -4 -13 -10 -13 -5 0 -10 -7 -10
-15 0 -8 5 -15 11 -15 8 0 8 -5 -1 -15 -7 -9 -8 -15 -2 -15 5 0 12 7 16 15 8
21 33 19 53 -5 10 -11 22 -20 28 -20 5 0 4 4 -3 8 -9 6 -4 15 16 35 l29 27 -4
-32 c-1 -18 0 -26 4 -18 13 30 28 38 43 22 13 -14 12 -15 -2 -9 -12 4 -15 2
-11 -9 9 -23 23 -16 29 16 4 17 10 30 15 30 14 0 11 -58 -3 -63 -10 -4 -10 -6
0 -6 7 -1 16 7 19 17 13 32 27 40 43 24 13 -14 12 -15 -2 -9 -12 4 -15 2 -11
-9 3 -7 10 -14 15 -14 6 0 5 -6 -2 -15 -9 -10 -9 -15 -1 -15 6 0 11 3 12 8 0
4 2 17 3 30 2 12 8 28 14 34 9 9 12 5 12 -17 0 -27 1 -28 19 -11 19 17 19 17
15 -6 -5 -20 -4 -21 6 -6 10 17 13 16 37 -10 15 -15 24 -20 20 -10 -3 9 2 23
13 33 18 16 18 16 13 -7 -5 -23 -5 -23 10 -3 15 20 16 19 22 -8 8 -28 25 -37
25 -12 0 9 6 12 18 9 13 -5 14 -4 3 4 -9 6 -10 12 -2 16 6 4 13 -4 17 -18 8
-35 32 -42 26 -8 -3 15 -10 30 -16 34 -7 5 -7 8 -1 8 11 0 38 -28 49 -51 3 -8
4 -1 1 15 -6 26 -5 27 11 12 15 -16 17 -16 30 1 12 16 14 15 15 -17 1 -24 3
-28 6 -12 5 25 23 30 23 6 0 -14 3 -14 15 -4 12 10 13 15 4 20 -7 5 -8 10 -1
14 12 7 22 -16 22 -50 0 -37 20 -29 21 9 1 17 3 24 6 15 9 -36 29 -17 23 22
-1 8 17 -5 39 -28 23 -23 44 -42 48 -42 4 0 2 5 -4 11 -9 9 -8 15 2 26 8 7 11
21 8 31 -4 10 6 4 23 -13 17 -17 33 -37 37 -45 4 -13 6 -12 6 1 1 11 10 17 26
17 25 0 35 -22 15 -31 -6 -3 -5 -4 2 -3 7 1 14 17 16 34 4 40 18 41 27 2 8
-38 25 -39 26 -2 1 16 3 20 6 10 6 -23 12 -23 40 4 17 16 22 18 18 6 -4 -9
-13 -19 -21 -22 -8 -3 -14 -12 -14 -21 0 -13 3 -12 19 3 42 38 46 39 59 26 7
-7 19 -11 27 -8 9 4 15 0 15 -9 0 -23 18 -31 36 -16 19 16 30 4 14 -16 -9 -11
-9 -15 -1 -15 6 0 14 14 18 30 6 30 23 42 23 16 0 -22 19 -30 36 -15 19 16 30
4 14 -16 -9 -11 -9 -15 -1 -15 6 0 14 14 18 30 5 29 23 42 23 17 0 -21 36 -47
49 -34 15 15 14 34 -1 40 -10 4 -10 6 0 6 7 1 16 -7 19 -16 4 -10 13 -24 20
-32 12 -11 13 -9 7 14 -7 27 -6 27 15 9 11 -10 21 -24 21 -31 0 -7 5 -13 10
-13 6 0 10 6 10 13 0 7 8 19 18 28 16 13 19 13 35 -1 9 -9 17 -22 17 -28 0 -7
5 -12 10 -12 15 0 12 57 -2 63 -10 4 -10 6 0 6 8 1 16 -8 19 -20 3 -11 11 -18
17 -16 6 3 12 -7 12 -20 4 -52 28 -42 28 11 0 35 14 31 29 -7 9 -23 17 -22 51
9 23 22 30 24 37 13 5 -8 7 -25 3 -39 l-6 -25 27 25 c22 21 28 22 35 10 5 -8
10 -18 10 -22 0 -5 5 -8 11 -8 8 0 7 5 -1 16 -11 12 -11 18 2 31 15 14 16 14
15 -2 -1 -10 5 -20 13 -22 13 -4 13 -3 0 6 -11 8 -12 11 -2 11 8 0 16 -9 19
-20 8 -31 23 -24 24 13 1 17 3 24 6 15 5 -19 19 -24 25 -9 2 5 10 2 18 -7 13
-14 12 -15 -2 -9 -12 4 -15 2 -11 -9 7 -20 21 -17 28 6 9 29 25 25 26 -7 2
-24 2 -25 6 -5 5 26 18 28 32 5 7 -11 14 -14 18 -8 14 17 53 36 63 30 6 -4 10
-13 10 -21 0 -21 17 -17 23 6 3 11 11 20 19 19 10 0 10 -2 1 -6 -15 -5 -18
-63 -4 -63 5 0 11 12 13 28 3 23 7 27 30 24 14 -1 29 2 33 8 3 5 12 10 18 10
7 0 4 -5 -5 -11 -10 -5 -18 -15 -18 -20 0 -6 5 -7 11 -3 6 3 15 0 20 -7 6 -10
9 -8 9 9 0 12 5 22 10 22 10 0 14 -21 10 -49 -1 -13 1 -13 15 -1 11 9 12 15 5
20 -7 5 -6 11 5 20 13 11 15 10 9 -4 -4 -10 -1 -16 9 -16 8 0 18 6 20 13 4 9
6 9 6 0 1 -19 19 -16 24 5 4 16 5 16 6 0 1 -21 17 -24 24 -5 3 7 6 5 6 -5 1
-26 19 -22 24 5 4 22 4 22 6 0 0 -12 -6 -29 -15 -37 -8 -9 -11 -16 -6 -16 4 0
19 11 32 25 17 18 30 23 47 19 18 -5 23 -2 24 12 0 15 2 15 6 4 3 -8 11 -19
17 -23 7 -6 4 -7 -6 -3 -12 3 -15 1 -11 -10 7 -20 21 -17 28 6 3 11 11 20 16
20 14 0 11 -38 -3 -43 -10 -4 -10 -6 0 -6 8 -1 16 8 19 19 6 24 21 26 29 5 4
-8 10 -15 15 -15 5 0 9 7 9 15 0 8 -5 15 -12 15 -6 0 -8 3 -5 6 4 4 13 1 22
-6 12 -10 18 -10 30 0 17 14 35 5 35 -16 0 -9 7 -23 16 -32 15 -15 16 -15 10
5 -7 22 1 53 15 53 5 0 11 -11 15 -25 7 -30 24 -33 24 -5 0 12 5 17 14 14 8
-3 17 -1 21 5 3 6 11 11 18 11 6 0 2 -6 -9 -14 -15 -12 -16 -17 -7 -27 10 -10
18 -8 38 11 23 22 25 22 19 5 -4 -11 -11 -26 -17 -32 -6 -9 -6 -13 1 -13 6 0
14 9 17 20 7 22 20 26 30 10 3 -6 17 -7 30 -4 17 4 24 1 28 -13 4 -17 5 -17 6
1 1 12 6 16 16 12 8 -3 22 2 31 12 16 16 17 15 10 -13 l-8 -30 26 24 c21 20
29 22 39 12 9 -10 8 -11 -8 -5 -17 7 -18 6 -5 -8 18 -19 28 -14 40 18 5 13 15
24 22 24 9 0 9 -3 -2 -11 -11 -8 -12 -12 -2 -16 15 -6 16 -29 2 -36 -6 -3 -5
-4 2 -3 7 1 14 12 16 24 4 27 19 28 27 2 3 -11 11 -20 16 -20 12 0 12 17 0 22
-5 2 -2 10 7 18 14 13 15 12 9 -4 -6 -15 -3 -17 12 -13 12 3 18 -1 17 -11 0
-8 6 -17 14 -19 9 -3 11 -1 4 4 -7 5 -6 16 3 33 l13 25 0 -27 c0 -16 5 -28 10
-28 6 0 10 7 10 15 0 8 6 12 14 9 8 -3 16 0 19 8 2 7 2 0 0 -17 -3 -26 -2 -28
8 -11 9 15 13 16 20 5 7 -11 9 -11 9 -1 0 7 6 19 12 26 11 11 17 9 35 -10 26
-29 30 -29 36 -6 4 13 5 11 6 -5 0 -13 6 -23 11 -23 10 0 14 21 10 49 -1 11 2
11 14 -2 19 -19 20 -39 4 -55 -9 -9 -9 -12 -1 -12 7 0 14 9 18 19 3 11 12 25
21 32 12 10 13 9 7 -7 -6 -16 -5 -17 9 -6 14 11 17 11 20 -2 2 -11 7 -13 18
-6 13 9 13 11 0 21 -13 9 -13 10 0 6 8 -2 16 -16 18 -30 4 -35 20 -35 24 1 3
29 28 38 35 12 4 -13 3 -13 -6 0 -5 8 -13 11 -18 7 -10 -10 16 -27 33 -20 7 2
14 -4 17 -14 4 -17 5 -17 6 1 1 15 6 17 29 12 17 -4 22 -3 13 2 -9 7 -10 12
-2 16 6 4 11 2 11 -5 0 -7 8 -5 20 6 18 17 20 17 14 2 -4 -11 -1 -17 9 -17 8
0 17 4 19 9 2 5 10 2 18 -7 13 -14 12 -15 -5 -8 -18 7 -18 6 0 -14 21 -23 26
-25 19 -7 -2 7 2 21 10 32 13 17 15 17 16 4 0 -25 26 -44 33 -25 4 11 1 13
-11 10 -10 -4 -13 -3 -6 3 6 4 14 15 17 23 4 12 6 11 6 -2 1 -10 6 -18 11 -18
6 0 10 -8 11 -17 0 -14 2 -15 6 -3 13 32 27 39 46 22 18 -16 20 -15 32 1 12
16 15 15 41 -15 22 -26 26 -29 22 -12 -3 12 -1 28 4 35 8 11 9 10 4 -3 -4 -14
1 -17 24 -15 17 1 30 8 30 15 0 8 12 3 29 -14 18 -17 27 -33 23 -43 -4 -12 -1
-11 14 3 10 11 20 24 20 30 1 6 2 17 3 24 0 7 6 10 12 6 8 -5 8 -8 0 -13 -8
-5 -5 -14 10 -27 19 -17 22 -18 33 -2 11 16 14 16 28 1 18 -17 38 -10 38 13 0
8 5 14 10 14 6 0 10 -9 10 -20 0 -11 -4 -20 -10 -20 -5 0 -10 -4 -10 -10 0
-21 20 -9 26 15 6 25 7 25 26 8 19 -17 20 -17 34 1 10 15 14 16 18 5 2 -8 7
-21 9 -29 3 -8 6 5 6 29 1 44 15 48 23 6 3 -15 10 -19 30 -17 18 2 28 -3 31
-15 4 -14 5 -15 6 -2 1 11 11 16 30 17 24 0 29 -3 23 -16 -5 -16 -5 -16 11 0
10 9 24 15 31 12 8 -3 16 2 19 13 3 12 5 9 6 -9 0 -16 6 -28 11 -28 6 0 10 12
11 28 0 25 1 25 9 6 5 -12 14 -25 21 -30 9 -5 10 -2 6 9 -4 11 -2 14 9 10 8
-3 14 1 14 10 0 8 -6 18 -12 20 -10 4 -10 6 0 6 7 1 17 -10 22 -23 12 -32 22
-37 40 -18 13 14 12 15 -5 8 -15 -5 -17 -4 -8 5 13 13 33 4 33 -17 0 -27 20
-14 21 14 0 15 3 20 6 12 8 -21 34 -50 45 -50 5 0 2 7 -6 16 -20 19 -20 25 -2
18 8 -3 16 2 19 13 3 12 5 9 6 -9 1 -30 21 -40 21 -11 0 14 3 14 21 -3 l22
-19 -7 29 c-6 26 -6 27 9 13 16 -17 45 -13 45 7 0 8 2 8 8 0 4 -6 18 -17 31
-24 19 -10 21 -14 10 -22 -12 -8 -11 -9 1 -5 8 2 14 12 14 21 -2 16 0 16 19
-1 20 -18 20 -18 13 11 -6 26 -6 27 9 12 9 -9 21 -13 27 -10 5 3 18 -3 29 -15
28 -30 55 -15 50 28 -2 8 6 5 20 -8 12 -11 19 -24 16 -28 -4 -3 -7 -1 -7 5 0
7 -4 12 -10 12 -15 0 -12 -17 5 -24 8 -3 24 4 36 17 20 22 21 22 35 3 14 -20
14 -20 28 0 14 19 15 19 35 -3 20 -21 51 -22 51 -2 0 12 -17 11 -23 -1 -3 -6
-4 -5 -3 2 4 23 26 20 35 -5 14 -37 33 -45 25 -10 -7 26 -7 27 10 10 23 -23
29 -22 23 6 l-6 22 20 -24 c10 -13 19 -18 19 -11 0 6 6 10 13 7 6 -2 11 -12 9
-22 -3 -17 -2 -17 13 -1 9 9 22 16 30 16 7 0 16 6 18 13 4 9 6 9 6 0 1 -19 19
-16 24 5 4 16 5 16 6 -1 1 -14 8 -16 41 -12 21 2 42 0 45 -5 11 -18 25 -11 26
13 1 16 2 18 6 4 2 -9 9 -17 15 -17 7 0 6 -5 -1 -14 -9 -11 -8 -15 4 -20 9 -3
14 -2 10 3 -6 11 4 41 15 41 5 0 12 -9 15 -20 7 -23 21 -26 28 -6 4 11 1 13
-11 9 -14 -6 -15 -5 -2 9 15 16 31 8 43 -22 4 -12 6 -12 6 1 1 22 49 22 54 0
3 -10 5 -8 6 7 1 30 19 28 27 -3 8 -32 20 -32 28 0 8 31 26 33 27 3 1 -17 2
-19 6 -5 6 22 19 22 33 0 10 -17 10 -17 20 0 6 9 15 17 20 17 13 0 13 -27 0
-33 -6 -3 -5 -4 2 -3 7 1 14 12 16 24 4 27 19 28 27 2 8 -25 25 -26 25 -2 1
14 4 13 22 -8 l21 -25 -5 30 c-3 17 -3 24 -1 17 6 -16 73 -8 86 10 7 10 8 9 4
-3 -3 -9 4 -21 15 -28 19 -12 20 -11 14 5 -6 15 -2 14 18 -5 14 -14 29 -21 33
-18 3 4 2 7 -4 7 -6 0 -13 6 -16 14 -4 9 0 12 12 9 10 -2 26 4 36 14 17 16 18
16 12 1 -8 -21 18 -49 38 -42 7 3 16 12 19 20 7 18 26 18 26 0 0 -22 19 -30
35 -16 12 10 18 10 30 0 12 -10 18 -10 30 0 12 10 18 10 30 0 16 -14 35 -6 35
16 0 26 18 14 25 -16 4 -17 11 -30 16 -30 13 0 11 28 -2 32 -7 2 -5 9 5 17 14
11 16 11 16 -2 0 -24 23 -26 42 -3 14 17 17 18 18 5 0 -20 27 -33 33 -16 3 8
14 3 32 -13 21 -18 27 -20 22 -8 -8 22 10 33 28 18 12 -10 18 -10 31 1 11 9
17 10 23 1 4 -7 12 -8 21 -1 13 8 13 10 0 20 -13 9 -13 10 0 6 9 -2 14 -14 13
-31 -2 -23 0 -24 13 -12 8 8 14 21 14 28 0 11 2 11 9 0 9 -16 61 -24 61 -10 0
5 6 8 13 5 6 -2 11 -12 9 -22 -3 -15 0 -14 19 4 26 24 36 26 41 9 3 -7 13 -2
26 12 l22 24 22 -24 c13 -14 23 -19 26 -12 6 20 20 14 25 -10 l4 -23 2 23 c1
23 15 29 26 12 10 -17 23 -11 28 13 4 21 4 21 6 1 0 -12 9 -28 18 -35 15 -12
16 -12 10 3 -7 20 12 36 23 19 5 -10 11 -9 21 2 13 12 17 12 29 -1 13 -14 12
-15 -2 -9 -12 4 -15 2 -11 -9 3 -7 9 -14 13 -14 13 0 22 38 14 52 -4 7 10 -3
30 -22 36 -34 37 -34 33 -10 -2 14 -2 19 0 13 5 -16 19 -17 28 -3 10 16 23 12
30 -10 7 -23 21 -26 28 -6 4 9 1 14 -6 12 -7 -1 -9 -1 -4 1 4 3 7 12 8 21 0
13 2 13 6 3 3 -7 14 -22 24 -32 19 -19 20 -19 44 7 17 19 25 22 25 12 0 -26
23 -38 40 -20 13 14 12 15 -5 8 -16 -6 -17 -5 -8 5 10 10 17 8 35 -8 21 -19
24 -20 38 -5 13 14 12 15 -5 8 -17 -6 -18 -5 -7 6 11 11 18 8 39 -16 l25 -30
-6 31 c-4 18 -3 34 3 38 6 3 9 0 5 -8 -6 -16 17 -29 33 -19 5 4 13 14 16 22 4
12 6 12 6 -1 1 -22 27 -31 43 -15 11 11 16 10 28 -2 10 -11 15 -12 18 -4 6 20
22 13 23 -10 1 -19 2 -19 6 -5 3 11 11 16 19 13 8 -3 14 -1 14 4 0 20 19 9 22
-12 2 -12 9 -23 16 -24 7 -1 8 0 2 3 -16 8 -12 36 5 29 8 -3 15 -1 15 4 0 21
20 9 21 -12 1 -17 2 -19 6 -5 6 22 19 22 32 -1 9 -16 11 -16 25 3 l16 20 16
-20 c14 -19 16 -19 25 -3 13 23 26 23 32 1 4 -14 5 -12 6 5 1 21 21 33 21 12
0 -5 6 -7 14 -4 8 3 16 -2 19 -13 4 -14 5 -14 6 5 1 27 17 29 26 2 3 -11 11
-20 16 -20 11 0 12 17 2 23 -5 2 -3 2 4 1 7 -2 18 3 25 10 11 11 16 11 26 0 7
-7 19 -11 27 -8 10 4 15 0 15 -11 0 -15 3 -15 15 -5 13 11 13 15 3 21 -7 5 -9
9 -4 9 6 0 19 -9 30 -19 19 -18 22 -18 36 -3 13 14 12 15 -5 8 -15 -5 -17 -4
-8 5 13 13 33 4 33 -17 0 -8 5 -14 10 -14 6 0 10 7 10 17 0 15 2 15 18 0 15
-14 18 -14 32 1 13 14 12 15 -5 8 -17 -6 -18 -5 -7 6 11 11 18 8 39 -17 23
-26 26 -27 21 -8 -4 15 -2 20 7 17 7 -3 15 3 18 13 3 12 5 9 6 -9 1 -28 21
-40 21 -13 0 16 29 10 43 -9 5 -7 11 -5 18 6 13 23 26 23 32 1 4 -15 5 -15 6
-2 1 11 10 17 26 17 26 0 35 -22 13 -31 -10 -4 -10 -6 0 -6 8 -1 16 8 19 19 7
25 19 26 32 3 9 -17 11 -17 25 2 15 19 17 19 30 3 16 -22 26 -23 26 -3 0 8 -5
15 -12 15 -6 0 -8 3 -5 7 4 3 19 -4 34 -18 19 -17 25 -19 20 -7 -4 12 -2 15 8
12 7 -3 16 3 19 13 3 10 4 4 2 -13 -1 -23 1 -31 11 -27 7 3 13 12 13 20 0 8 5
11 10 8 6 -4 18 -1 26 6 12 10 19 8 39 -11 20 -18 25 -20 25 -8 0 31 49 30 51
0 0 -14 2 -14 6 -2 10 24 31 42 35 29 2 -7 14 -12 26 -13 13 0 27 -8 32 -16 9
-13 11 -13 20 0 5 8 19 16 32 16 12 1 24 6 26 13 2 7 8 6 18 -4 15 -15 44 -10
44 7 0 12 25 -12 33 -32 4 -12 6 -12 6 1 1 11 10 17 26 17 26 0 35 -22 13 -31
-10 -4 -10 -6 0 -6 8 -1 16 7 19 18 6 23 50 25 56 2 4 -13 5 -12 6 3 1 12 6
16 16 12 8 -3 15 -1 15 4 0 21 20 9 21 -12 1 -19 2 -19 6 -5 3 11 11 16 19 13
8 -3 14 -1 14 4 0 21 20 9 21 -12 1 -19 2 -19 6 -5 3 11 11 16 19 13 8 -3 14
-1 14 4 0 18 19 10 25 -10 8 -26 22 -26 30 0 8 26 22 26 30 0 3 -11 11 -20 17
-20 7 0 7 4 0 13 -7 8 -6 16 4 25 12 11 14 10 14 -3 0 -9 6 -15 13 -12 6 2 20
-3 30 -12 17 -14 18 -14 14 9 -2 14 -2 19 0 12 3 -7 10 -11 16 -9 7 2 20 -3
30 -12 17 -14 18 -14 14 9 -2 14 -2 19 0 13 6 -16 15 -16 32 -1 10 10 15 10
18 1 2 -7 10 -10 18 -7 7 3 15 -3 18 -13 4 -14 5 -14 6 5 1 23 17 30 23 11 3
-8 10 -6 21 5 10 11 17 13 17 6 0 -8 8 -10 22 -7 12 4 28 1 35 -5 9 -7 17 -7
28 2 20 17 32 5 15 -15 -7 -8 -8 -15 -2 -15 5 0 12 6 15 14 3 8 14 14 24 14
10 -1 28 2 40 6 12 4 24 2 28 -4 9 -15 25 -12 25 5 0 8 -5 15 -12 15 -6 0 -8
3 -5 7 4 3 16 -3 27 -15 16 -17 25 -20 45 -12 16 6 34 6 50 0 20 -8 29 -5 45
12 11 12 23 18 27 15 3 -4 1 -7 -5 -7 -7 0 -12 -7 -12 -15 0 -17 16 -20 25 -5
3 6 12 10 18 10 7 0 6 -4 -3 -10 -8 -5 -10 -10 -5 -10 6 0 16 5 23 12 17 17
28 2 12 -17 -24 -28 1 -15 30 16 26 30 51 32 49 6 0 -9 -2 -9 -6 1 -5 14 -23
16 -23 3 0 -17 29 -20 45 -5 13 14 15 14 15 0 0 -23 21 -20 27 4 7 27 23 25
23 -2 0 -13 3 -18 8 -12 4 6 16 11 27 11 11 0 23 -5 27 -11 5 -6 8 -1 8 12 0
12 5 22 10 22 6 0 10 -6 10 -14 0 -15 32 -27 47 -17 6 3 13 13 16 21 4 12 6
12 6 -1 1 -26 29 -30 50 -8 19 21 42 19 40 -4 0 -9 -2 -9 -6 1 -5 14 -23 16
-23 3 0 -19 31 -19 49 0 20 22 41 18 41 -7 0 -21 17 -17 23 6 7 26 22 25 49
-2 l21 -21 -6 22 c-5 19 -3 20 10 10 19 -16 55 -19 50 -5 -3 6 8 11 26 11 17
0 32 -6 35 -12 6 -19 22 -16 22 4 0 14 2 14 20 -2 19 -18 20 -17 20 3 0 30 18
28 26 -3 8 -31 24 -33 25 -2 1 16 2 18 6 5 6 -22 19 -23 27 -3 7 20 24 19 29
-2 4 -17 5 -17 6 0 1 21 19 23 27 2 8 -21 21 -19 27 5 7 25 27 26 34 1 3 -11
11 -22 18 -25 9 -3 11 2 7 17 l-5 22 23 -20 c19 -16 22 -17 17 -4 -4 13 -1 16
14 12 16 -4 18 -2 12 13 -6 17 -5 17 8 4 9 -9 18 -22 22 -30 4 -11 6 -10 6 4
1 12 6 16 16 12 8 -3 21 2 30 10 8 9 15 11 15 6 0 -17 29 -22 42 -8 11 10 16
10 25 1 6 -7 27 -11 47 -9 31 4 35 2 29 -13 -6 -16 -5 -16 8 -3 9 9 18 22 22
30 4 12 6 12 6 -2 1 -13 9 -15 40 -12 31 3 41 0 44 -14 3 -12 5 -11 6 6 1 21
15 30 25 14 2 -4 31 -7 63 -6 49 0 58 3 56 18 -1 17 0 17 15 3 13 -13 13 -19
2 -31 -8 -11 -9 -16 -1 -16 6 0 11 3 11 8 1 23 18 32 43 23 22 -9 30 -7 46 10
19 21 42 19 40 -4 0 -9 -2 -9 -6 1 -5 14 -23 16 -23 3 0 -17 29 -20 45 -5 8 9
15 11 15 5 0 -18 18 -12 23 7 4 13 5 11 6 -5 1 -27 21 -31 21 -5 0 14 2 15 10
2 8 -13 11 -12 23 4 14 19 15 19 42 2 27 -18 28 -18 21 0 -6 17 -6 17 12 1 17
-16 19 -15 35 0 16 16 17 16 17 0 0 -22 9 -22 25 0 12 16 14 16 40 -1 27 -18
27 -18 20 6 -5 17 -4 19 4 8 5 -8 13 -11 17 -7 4 4 16 0 26 -10 17 -15 18 -15
18 0 0 13 7 16 31 13 17 -2 36 2 42 9 9 9 14 9 26 -2 15 -15 63 -10 69 8 2 5
10 3 17 -5 8 -7 28 -12 45 -10 20 3 33 -1 36 -11 4 -8 11 -15 16 -15 7 0 7 4
0 13 -7 8 -6 16 4 25 12 11 14 10 14 -3 0 -19 19 -20 26 0 4 8 11 12 16 9 6
-4 6 -9 -2 -14 -7 -5 1 -7 19 -5 18 1 37 7 43 13 7 7 18 3 35 -16 l25 -27 -8
30 c-7 30 -7 30 14 12 20 -18 21 -18 39 2 9 12 22 21 28 21 5 0 3 -5 -5 -10
-13 -9 -13 -11 -1 -19 10 -7 19 -4 28 7 11 15 14 15 22 2 9 -13 12 -12 24 4
14 19 38 15 36 -7 0 -9 -2 -9 -6 1 -5 14 -23 16 -23 3 0 -18 30 -20 46 -3 22
21 74 24 66 3 -4 -12 0 -11 18 2 14 10 34 14 49 11 21 -5 23 -3 11 6 -13 10
-13 11 0 7 8 -2 13 -12 12 -22 -3 -17 -2 -17 13 -5 9 8 37 15 63 16 30 2 41 0
32 -6 -8 -5 -11 -12 -7 -17 7 -7 17 3 32 32 3 6 7 5 11 -2 3 -7 11 -10 19 -7
7 3 15 -3 18 -13 4 -16 5 -16 6 0 1 15 9 19 31 19 3 0 15 -3 27 -6 16 -5 23
-2 26 11 4 17 5 17 6 1 1 -21 12 -23 29 -6 17 17 28 2 12 -17 -20 -24 -1 -17
23 9 18 20 24 21 35 10 13 -14 37 -9 64 13 15 13 16 13 11 -9 -3 -13 -1 -18 4
-12 10 14 44 14 61 1 9 -7 19 -4 34 9 15 14 22 16 25 7 7 -19 21 -16 26 5 4
16 5 16 6 0 1 -22 17 -23 25 -3 7 19 26 19 26 0 0 -8 -5 -15 -12 -15 -6 0 -8
-3 -5 -7 4 -3 18 4 32 17 21 19 25 21 25 7 0 -24 17 -21 25 3 8 26 22 26 30 0
3 -11 11 -20 16 -20 13 0 11 18 -3 23 -7 3 2 4 20 3 18 -2 39 3 47 10 9 9 15
10 17 3 2 -6 27 -12 56 -13 39 -2 52 1 52 11 0 11 3 11 16 -2 10 -9 20 -13 23
-8 9 14 51 13 51 0 0 -8 3 -8 8 1 7 9 15 10 35 3 20 -8 30 -7 42 5 12 13 19
14 30 4 12 -10 15 -9 15 4 0 23 17 20 23 -4 3 -11 10 -20 17 -20 7 0 14 9 17
20 6 24 21 26 29 5 8 -21 21 -19 27 5 3 11 11 20 19 20 10 0 10 -3 -2 -10 -10
-6 4 -8 42 -5 47 3 57 1 61 -13 4 -16 5 -16 6 0 1 14 8 17 32 14 17 -2 36 3
45 11 12 13 14 12 14 -1 0 -19 11 -21 28 -4 17 17 28 2 12 -17 -21 -26 0 -16
25 11 19 21 25 23 25 10 0 -22 20 -21 21 2 0 10 3 12 6 5 7 -19 23 -16 24 5 0
13 2 14 6 2 10 -25 26 -30 41 -12 10 13 15 14 18 5 8 -18 22 -16 27 5 4 16 5
16 6 0 1 -18 21 -26 21 -9 0 5 9 11 19 14 15 4 18 1 13 -12 -5 -14 -4 -14 12
-2 27 22 104 24 109 3 3 -12 5 -10 6 6 1 19 21 34 21 14 0 -14 141 -6 151 9 7
11 9 10 9 -3 0 -26 20 -22 21 5 1 16 2 18 6 5 5 -21 23 -24 23 -5 0 8 4 7 10
-3 9 -13 11 -13 20 0 8 13 10 12 10 -2 0 -23 18 -23 22 0 2 12 13 17 34 17 23
0 30 -4 26 -14 -4 -11 0 -11 18 2 31 21 37 21 43 0 4 -16 5 -16 6 1 1 11 6 16
15 13 8 -3 17 -1 20 6 5 9 7 9 12 0 3 -7 12 -9 20 -6 9 3 14 -2 15 -13 0 -14
2 -15 6 -4 4 8 12 21 20 28 11 11 13 11 13 -2 0 -19 11 -21 28 -4 10 10 14 10
21 0 6 -11 11 -10 25 3 9 9 16 12 16 7 0 -18 29 -21 45 -6 8 9 15 11 15 5 0
-18 18 -12 23 7 4 16 5 16 6 0 1 -18 21 -26 21 -9 0 5 9 11 19 14 14 3 18 1
14 -10 -5 -14 -3 -14 18 0 13 8 35 14 49 13 14 -1 28 3 33 9 7 9 21 -4 30 -30
3 -5 8 -6 13 -2 5 4 2 13 -6 18 -13 9 -12 10 2 5 10 -3 24 2 33 10 13 14 15
14 15 0 0 -19 11 -21 28 -4 10 10 14 10 21 0 7 -11 11 -10 24 2 11 12 17 13
20 3 4 -9 8 -8 16 3 6 8 11 10 11 4 0 -7 7 -14 14 -17 10 -4 13 -1 10 7 -3 8
3 16 15 19 12 3 18 0 15 -7 -3 -7 4 -12 16 -12 11 0 20 5 20 12 0 6 13 11 29
10 21 -1 27 -5 23 -16 -4 -13 -2 -12 14 1 10 9 25 14 32 12 6 -3 12 3 12 12 0
14 2 15 14 2 15 -14 45 -15 85 -2 14 4 21 2 21 -7 0 -10 3 -9 10 2 5 8 12 11
16 7 4 -4 16 1 26 10 15 14 18 14 13 2 -7 -19 26 -19 49 0 14 11 16 11 16 -3
0 -20 16 -21 23 -2 8 19 55 17 60 -3 4 -14 5 -15 6 0 1 13 12 16 52 16 33 -1
53 4 60 14 7 11 9 11 9 -3 0 -26 20 -22 21 5 1 16 2 18 6 5 5 -21 23 -24 23
-5 0 8 4 7 10 -3 9 -13 12 -13 21 3 13 21 29 22 29 1 0 -14 2 -14 16 -3 23 19
53 19 46 0 -5 -14 -3 -14 14 0 10 9 25 14 32 12 6 -3 12 0 12 7 0 7 6 8 19 0
13 -7 20 -7 23 1 2 7 12 7 29 1 26 -11 60 1 46 15 -5 4 -12 1 -17 -7 -6 -9
-10 -10 -10 -3 0 21 20 25 45 9 22 -15 25 -15 25 -1 0 19 19 20 26 0 7 -18 24
-20 24 -2 0 7 9 13 20 13 11 0 20 -6 20 -13 0 -7 5 -13 10 -13 6 0 10 7 10 15
0 8 6 12 14 9 8 -3 16 2 19 13 4 16 5 16 6 1 1 -21 12 -23 29 -6 8 8 15 8 27
-2 12 -10 18 -10 30 0 9 7 18 10 22 6 3 -3 15 1 25 11 17 15 18 15 18 0 0 -22
9 -21 26 1 13 16 15 16 29 -2 14 -18 16 -18 28 -4 6 9 23 19 37 23 20 5 22 4
10 -5 -12 -9 -10 -10 10 -4 14 4 28 12 32 18 5 7 8 4 8 -6 0 -10 5 -18 10 -18
6 0 10 8 10 18 0 15 2 15 10 2 9 -13 12 -13 21 3 13 21 29 22 29 1 0 -14 2
-14 16 -3 23 19 53 19 46 0 -3 -10 5 -7 22 9 21 19 29 22 35 11 7 -10 13 -8
30 11 22 23 23 23 37 3 9 -13 17 -16 22 -9 4 6 15 13 24 17 13 4 16 2 11 -11
-5 -12 1 -10 20 7 15 14 30 21 34 18 3 -4 1 -7 -5 -7 -7 0 -12 -7 -12 -15 0
-19 9 -19 24 -1 6 8 22 17 36 21 18 4 21 4 11 -4 -10 -7 -3 -8 24 -6 21 2 41
9 45 16 6 8 9 8 13 -2 5 -11 8 -10 17 4 14 22 30 22 30 0 0 -14 3 -13 23 5 25
24 63 21 70 -7 3 -10 5 -8 6 7 1 14 6 22 14 19 6 -2 20 2 29 10 15 13 16 13
11 -9 -3 -17 -2 -19 5 -9 5 7 14 11 20 7 5 -3 15 1 22 9 6 7 17 11 25 9 7 -3
15 0 18 8 2 7 2 2 0 -12 -4 -24 -4 -24 16 -6 11 10 27 16 35 13 9 -4 22 1 31
9 13 14 15 14 15 0 0 -22 18 -20 22 2 2 12 13 17 34 17 23 0 30 -4 26 -14 -4
-10 -1 -12 7 -7 7 5 16 18 21 30 7 17 9 17 9 4 1 -21 12 -23 30 -5 11 10 14 9
18 -1 3 -8 11 -5 24 10 10 13 17 16 14 8 -4 -11 1 -16 15 -16 11 0 20 6 20 14
0 15 40 7 53 -12 4 -6 4 2 1 19 -7 29 -7 29 11 12 14 -14 20 -16 26 -6 6 10
11 10 24 -1 13 -11 19 -10 40 10 21 20 25 21 25 7 0 -9 5 -17 10 -17 6 0 10 6
10 14 0 21 20 30 33 17 16 -16 27 -14 27 7 0 14 2 15 10 2 8 -13 11 -12 23 4
8 11 19 16 25 12 7 -4 12 -2 12 3 0 22 20 10 21 -11 1 -19 2 -19 6 -5 3 10 11
16 18 13 8 -3 16 0 19 7 3 9 8 8 15 -3 9 -12 11 -11 11 8 0 12 5 22 10 22 6 0
10 -7 10 -17 0 -14 2 -14 20 2 20 18 21 18 14 0 -5 -13 -4 -16 5 -11 7 5 16
18 21 30 7 17 9 17 9 4 1 -24 10 -23 38 4 34 32 28 14 -8 -21 -37 -38 -26 -42
13 -4 23 22 30 24 43 13 8 -7 18 -10 22 -6 3 3 1 6 -5 6 -16 0 -15 18 1 34 10
11 15 10 27 -2 13 -14 12 -15 -2 -9 -12 4 -15 2 -11 -9 7 -20 21 -17 28 6 7
23 16 25 33 8 9 -9 18 -6 37 12 23 21 25 22 19 5 -7 -18 -6 -18 9 -6 9 7 17
21 18 30 0 13 2 13 6 1 4 -8 12 -21 20 -29 12 -11 13 -9 8 15 -3 16 -2 23 1
17 10 -22 22 -14 27 15 4 25 4 25 6 -5 1 -35 21 -47 21 -14 0 25 18 37 33 22
9 -9 7 -10 -8 -5 -17 7 -18 6 -5 -8 11 -11 19 -13 28 -6 16 13 16 35 0 41 -10
4 -10 6 0 6 7 1 15 -6 18 -14 10 -24 24 -17 25 13 1 16 3 20 6 9 6 -22 22 -22
30 0 4 10 13 25 21 33 13 12 14 11 7 -10 -4 -14 -14 -29 -21 -33 -8 -4 -14
-14 -14 -22 0 -8 15 2 35 23 31 34 34 35 28 12 -7 -30 1 -25 21 15 l16 30 0
-27 c0 -45 20 -32 21 15 2 29 3 34 6 14 4 -28 23 -38 23 -13 0 21 20 30 33 17
6 -6 15 -11 19 -11 10 0 11 27 1 33 -5 2 -2 2 5 1 6 -2 12 1 12 6 0 24 20 7
21 -17 2 -28 2 -28 6 -3 3 14 9 30 14 37 6 7 6 13 -1 16 -6 3 -5 4 2 3 8 -2
12 -13 10 -27 -4 -24 -3 -24 12 -4 18 23 20 41 6 48 -6 3 -5 4 2 3 7 -2 12
-15 11 -30 -3 -41 25 -14 29 27 4 39 33 45 34 7 1 -22 0 -22 -3 -2 -6 30 -23
28 -23 -3 0 -14 5 -25 12 -25 6 0 3 -9 -7 -20 -25 -28 -13 -25 19 5 25 23 37
75 16 75 -5 0 -10 7 -10 15 0 8 4 15 9 15 5 0 12 8 15 17 14 38 38 73 49 72 9
0 9 -2 0 -6 -7 -2 -13 -11 -13 -18 0 -8 -7 -20 -15 -28 -7 -8 -17 -28 -21 -43
l-7 -29 22 19 c11 11 21 25 21 33 0 7 5 13 10 13 16 0 12 -22 -7 -36 -17 -12
-16 -14 6 -35 17 -16 23 -18 19 -7 -4 10 1 23 13 34 10 9 19 30 19 46 0 19 4
28 12 26 18 -6 19 -54 2 -69 -16 -13 -19 -29 -4 -29 6 0 10 7 10 15 0 7 7 18
16 23 12 6 13 11 5 16 -8 5 -7 12 4 23 12 12 13 18 4 30 -10 11 -14 11 -21 1
-5 -8 -6 0 -4 19 2 18 8 39 15 46 6 8 13 34 15 58 2 24 1 32 -1 17 -2 -16 -8
-28 -14 -28 -5 0 -9 -9 -9 -19 0 -11 -8 -27 -17 -37 -10 -10 -18 -27 -19 -38
-2 -70 -5 -86 -14 -86 -5 0 -10 14 -10 30 0 17 5 30 10 30 6 0 10 7 10 15 0 8
-5 15 -12 15 -6 0 0 13 15 28 27 28 36 62 16 62 -6 0 -3 7 5 16 9 8 13 20 10
26 -3 5 4 21 17 34 16 17 18 23 7 19 -9 -4 -19 -13 -22 -21 -9 -24 -26 -16
-26 12 0 15 7 32 17 39 17 12 11 35 -10 35 -7 0 -6 -4 3 -10 13 -9 13 -12 -2
-21 -11 -6 -18 -22 -18 -39 0 -46 -18 -35 -26 15 -7 48 -24 62 -24 20 0 -14 5
-25 10 -25 6 0 10 -11 10 -25 0 -14 -4 -25 -10 -25 -5 0 -10 12 -10 28 0 20
-3 23 -10 12 -5 -8 -12 -11 -17 -7 -4 5 -1 12 7 17 12 8 13 13 2 30 -9 15 -9
20 -1 20 7 0 4 8 -6 20 -10 11 -23 20 -29 20 -6 0 -4 -5 4 -10 13 -8 12 -11
-4 -23 -19 -14 -15 -37 6 -37 7 0 7 5 -1 14 -9 10 -8 15 2 19 9 3 13 -2 12
-16 -1 -11 -6 -22 -11 -24 -15 -5 -57 44 -51 59 4 9 6 7 6 -4 1 -22 21 -24 21
-3 0 8 -4 15 -9 15 -5 0 -12 8 -14 17 -4 17 -5 17 -6 1 0 -10 -5 -18 -10 -18
-6 0 -12 -12 -14 -27 -3 -16 -4 -1 -2 32 1 33 0 52 -2 43 -3 -10 -8 -18 -13
-18 -5 0 -12 -9 -15 -20 -9 -27 -23 -25 -31 5 -3 13 -12 29 -19 35 -8 6 -11
19 -8 28 5 12 1 11 -16 -5 -22 -21 -22 -43 1 -43 7 0 6 6 -2 15 -9 10 -9 15
-1 15 6 0 11 -3 12 -7 6 -59 8 -57 -25 -24 -24 24 -28 33 -18 43 14 14 16 48
2 48 -5 0 -10 -11 -10 -25 0 -34 -19 -31 -33 5 -13 35 -23 38 -30 11 -4 -15
-1 -18 11 -13 11 4 9 -2 -6 -18 l-22 -24 -20 22 c-21 22 -26 42 -11 42 5 0 12
-11 15 -25 4 -14 11 -25 16 -25 14 0 13 17 -1 22 -6 2 -11 16 -11 30 0 24 -2
25 -16 12 -13 -13 -17 -13 -38 6 -28 27 -46 18 -38 -18 l6 -27 -16 29 c-15 27
-15 30 1 48 15 17 15 18 0 13 -19 -8 -31 -39 -22 -57 4 -7 -2 -3 -13 10 -11
12 -22 28 -25 35 -2 6 -8 8 -13 4 -5 -4 -2 -12 6 -17 8 -5 11 -13 6 -17 -5 -4
-11 -3 -13 4 -2 7 -11 9 -19 6 -8 -3 -17 4 -23 20 -16 41 -29 41 -26 0 1 -21
0 -29 -2 -18 -3 11 -11 24 -19 28 -8 4 -14 15 -14 22 0 8 -4 15 -10 15 -14 0
-12 -37 3 -43 9 -4 9 -6 -1 -6 -8 -1 -16 8 -19 19 -3 11 -9 20 -13 20 -5 0
-11 8 -13 18 -4 14 -5 15 -6 1 -3 -41 -73 -24 -84 20 -3 9 -3 -1 -2 -21 3 -32
1 -35 -11 -23 -8 7 -14 18 -14 23 0 5 -9 17 -21 28 -20 18 -20 18 -16 -6 2
-14 2 -19 0 -12 -3 8 -12 11 -20 8 -11 -5 -14 -1 -10 13 3 14 1 18 -9 14 -8
-3 -15 -17 -15 -32 -2 -25 -2 -25 -6 -2 -3 13 -16 34 -30 47 -31 29 -29 28
-29 5 0 -10 7 -18 15 -17 7 1 16 -6 18 -14 4 -13 3 -13 -6 0 -9 13 -12 12 -25
-5 -8 -11 -18 -17 -22 -12 -4 4 -2 7 4 7 17 0 15 17 -3 24 -8 3 -22 -3 -32
-12 -16 -16 -17 -16 -10 0 9 25 -17 46 -52 42 -22 -3 -31 1 -34 14 -3 12 -5
11 -6 -5 0 -13 -5 -23 -10 -23 -12 0 -23 29 -16 41 4 5 -1 6 -9 3 -19 -7 -21
-24 -4 -24 6 0 8 -3 5 -7 -8 -7 -41 24 -50 47 -4 12 -6 12 -6 -1 -1 -17 -37
-32 -53 -23 -4 3 -8 12 -8 20 0 8 -4 14 -10 14 -10 0 -14 -13 -11 -40 1 -9 -1
-11 -6 -5 -9 12 -70 55 -77 55 -2 0 -7 -8 -9 -17 -4 -17 -5 -17 -6 0 -1 20
-12 22 -29 5 -9 -9 -19 -5 -42 17 -25 24 -32 26 -45 15 -13 -11 -18 -11 -24
-1 -6 10 -12 8 -26 -6 -18 -17 -18 -17 -11 10 l7 28 -23 -20 c-12 -12 -27 -21
-32 -21 -6 0 -5 4 2 9 10 6 10 10 -3 21 -12 10 -15 10 -15 -4 0 -9 -4 -16 -10
-16 -5 0 -10 10 -10 23 0 16 -3 18 -9 8 -5 -8 -14 -10 -22 -6 -9 6 -11 3 -5
-10 5 -15 4 -16 -8 -6 -8 7 -17 22 -19 34 -4 22 -4 22 -6 0 -1 -22 -21 -34
-21 -13 0 5 -7 7 -15 4 -10 -4 -15 0 -16 12 0 14 -2 15 -6 4 -4 -8 -13 -21
-20 -29 -12 -12 -14 -12 -13 0 6 40 -19 58 -45 33 -13 -14 -15 -14 -15 0 0 25
-20 19 -21 -6 -1 -17 -2 -19 -6 -5 -2 9 -9 17 -15 17 -6 0 -6 6 2 15 8 9 8 15
2 15 -6 0 -14 -9 -17 -20 -8 -26 -22 -26 -30 0 -3 11 -11 20 -16 20 -13 0 -11
-18 4 -23 6 -2 0 -4 -15 -4 -18 0 -28 5 -28 14 0 8 -5 11 -10 8 -6 -4 -17 -1
-25 5 -18 15 -38 3 -31 -19 4 -11 1 -10 -12 5 -9 11 -23 19 -29 17 -6 -2 -13
4 -16 14 -4 14 -5 13 -6 -4 -1 -22 -21 -34 -21 -13 0 5 -7 7 -15 4 -10 -4 -15
0 -15 11 0 9 -5 13 -11 9 -6 -3 -16 0 -21 7 -7 10 -8 8 -5 -9 5 -22 4 -23 -12
-8 -10 9 -21 13 -25 9 -4 -4 -12 -1 -17 7 -8 12 -10 10 -6 -8 5 -23 5 -23 -14
-6 -10 9 -19 23 -19 31 0 20 -17 15 -23 -7 -7 -26 -27 -26 -34 0 -6 24 -19 26
-27 5 -8 -21 -23 -19 -29 5 -3 11 -10 20 -17 20 -7 0 -14 -9 -17 -20 -6 -22
-23 -27 -23 -7 0 8 -9 22 -20 32 -11 10 -20 13 -20 7 0 -6 8 -16 18 -21 22
-13 11 -14 -22 -2 -17 7 -26 7 -30 -2 -4 -12 -20 3 -29 28 -3 6 -8 6 -13 2 -5
-4 -2 -12 6 -17 8 -6 10 -10 5 -10 -6 0 -21 8 -35 17 -20 14 -23 15 -18 1 5
-12 2 -14 -13 -11 -11 3 -18 11 -15 18 3 8 -2 11 -15 8 -10 -3 -19 -12 -19
-19 0 -8 -4 -14 -10 -14 -5 0 -10 10 -10 23 0 17 -2 19 -9 8 -7 -11 -13 -12
-23 -4 -17 13 -49 13 -66 0 -7 -5 -15 -7 -19 -3 -3 3 -1 6 5 6 7 0 12 7 12 15
0 19 -16 19 -24 0 -7 -20 -26 -19 -26 1 0 8 -5 12 -10 9 -6 -4 -17 -1 -25 5
-12 10 -18 10 -30 0 -12 -10 -19 -10 -27 -2 -17 17 -28 15 -29 -5 0 -14 -2
-14 -9 3 -5 12 -14 25 -21 30 -9 5 -10 2 -6 -10 4 -10 3 -15 -4 -11 -5 4 -16
1 -24 -5 -16 -14 -35 -5 -35 16 0 19 -16 18 -24 -1 -7 -20 -26 -19 -26 1 0 8
-5 12 -11 8 -6 -3 -15 0 -20 7 -7 11 -9 11 -9 1 0 -9 -7 -11 -20 -7 -47 15
-89 13 -93 -4 -4 -13 -5 -13 -6 3 -1 12 -6 16 -16 12 -9 -3 -15 0 -15 9 0 19
-16 19 -24 0 -7 -20 -26 -19 -26 1 0 14 -2 15 -17 3 -13 -11 -17 -11 -20 -1
-7 18 -23 15 -24 -5 0 -14 -2 -15 -6 -3 -3 8 -12 19 -19 23 -30 18 -9 25 91
32 58 4 105 11 105 16 0 5 15 9 33 9 49 0 107 12 107 21 0 12 -47 11 -52 0 -1
-6 -49 -13 -105 -17 -57 -4 -103 -10 -103 -14 0 -7 -175 -26 -195 -21 -5 1
-57 -4 -115 -13 -205 -30 -297 -39 -490 -46 -192 -7 -421 -20 -695 -40 -77 -5
-192 -12 -255 -15 -63 -3 -225 -12 -360 -20 -547 -32 -832 -46 -966 -45 -125
0 -143 2 -148 17 -9 22 18 43 54 43 14 0 30 8 37 18 6 11 26 27 45 36 18 10
42 23 53 29 25 16 95 58 120 74 60 38 232 115 315 141 117 37 229 54 385 58
148 4 116 -10 -55 -25 -164 -14 -308 -42 -385 -75 -16 -8 -50 -22 -75 -32 -25
-10 -63 -29 -85 -41 -22 -13 -52 -28 -67 -34 -16 -6 -28 -14 -28 -19 0 -4 -8
-11 -17 -14 -25 -9 -64 -32 -72 -43 -3 -4 -15 -13 -25 -19 -36 -19 -41 -39
-18 -62 21 -21 31 -22 185 -22 89 0 254 7 367 15 113 8 248 15 302 15 68 0
115 6 160 20 42 13 117 23 223 30 88 6 266 17 395 25 565 36 701 47 800 60 58
9 120 15 139 15 31 0 82 7 346 45 55 8 156 14 225 14 69 -1 147 4 175 10 27 7
81 16 120 21 97 12 175 55 175 95 0 41 -18 81 -51 116 -62 64 -94 74 -249 71
-74 -1 -141 2 -149 7 -20 13 165 25 242 17 62 -7 147 -40 147 -57 0 -5 7 -9
15 -9 8 0 15 -3 15 -8 0 -4 10 -18 23 -32 41 -46 57 -79 57 -120 0 -52 -17
-69 -77 -80 -93 -16 -168 -32 -199 -41 -17 -5 -40 -9 -52 -9 -40 0 -26 -30 16
-32 57 -3 116 2 122 10 8 12 90 39 139 46 24 4 49 10 55 14 6 4 29 12 50 17
58 15 66 35 33 82 -15 22 -27 44 -27 51 0 7 -9 12 -20 12 -18 0 -60 32 -60 45
0 3 -8 13 -17 23 -10 11 -34 39 -54 63 -30 36 -47 47 -99 62 -67 20 -28 21
-530 -13 -63 -4 -162 -12 -220 -19 -118 -12 -335 -31 -425 -37 -33 -2 -161
-11 -285 -19 -124 -8 -333 -21 -465 -30 -526 -34 -930 -71 -1030 -96 -48 -11
-129 -37 -205 -65 -56 -20 -313 -155 -330 -174 -3 -3 -23 -14 -45 -25 -39 -19
-52 -20 -450 -12 -489 9 -895 22 -772 25 61 1 93 6 103 16 17 18 18 42 2 50
-7 3 1 3 17 1 17 -3 24 -2 18 1 -7 3 -13 17 -13 30 0 22 4 24 58 25 395 6 700
26 747 48 11 5 49 19 85 32 36 12 69 26 74 31 6 4 16 8 24 8 13 0 89 31 124
50 10 6 23 10 29 10 6 0 25 6 42 14 173 76 379 105 972 136 99 6 224 14 278
20 54 5 139 10 190 10 51 0 169 7 262 15 94 8 252 16 353 19 101 3 187 8 191
11 5 2 82 9 172 15 90 6 171 13 179 16 8 3 76 9 150 14 74 5 173 14 220 19 47
6 159 15 250 21 136 8 174 7 220 -5 30 -8 56 -19 58 -25 2 -5 8 -10 13 -10 10
0 49 -36 49 -45 0 -3 12 -17 26 -30 19 -17 31 -22 43 -16 9 5 22 6 29 4 7 -3
12 5 12 21 0 14 -4 26 -10 26 -15 0 -12 77 3 83 9 4 8 8 -3 16 -8 6 -10 11 -4
11 7 0 14 33 19 85 4 47 11 85 15 85 5 0 12 20 16 45 3 25 10 45 15 45 5 0 9
10 9 23 0 42 12 65 35 71 28 7 36 35 28 94 -5 34 -2 48 9 56 8 6 18 28 22 49
4 20 11 37 16 37 6 0 10 7 10 15 0 22 -14 18 -25 -7 -6 -13 -17 -23 -25 -24
-18 0 -53 -15 -60 -25 -9 -12 -124 -68 -130 -62 -3 3 1 8 8 10 7 3 19 11 26
19 8 8 17 14 21 14 8 0 63 39 95 68 13 12 28 22 32 22 12 0 21 67 11 84 -9 16
-11 15 -71 -22 -20 -12 -19 -8 7 50 27 62 27 64 11 108 -9 25 -34 83 -56 130
-56 117 -69 148 -84 201 -12 40 -17 46 -41 46 -17 0 -30 -7 -32 -16 -3 -9 -5
12 -6 46 0 34 -8 92 -17 129 -8 37 -15 89 -16 116 0 26 -4 50 -8 53 -4 3 -11
32 -15 65 -5 42 -11 60 -21 60 -8 0 -14 6 -13 13 3 18 -11 63 -37 118 -13 27
-24 56 -24 64 0 8 -4 15 -9 15 -5 0 -14 12 -19 28 -17 47 -180 204 -242 232
-30 14 -56 28 -58 33 -2 4 -16 7 -31 7 -15 0 -31 4 -37 9 -10 11 -107 39 -176
51 -27 5 -52 11 -57 14 -9 6 -126 31 -221 46 -256 43 -313 52 -370 59 -155 20
-239 35 -290 51 l-55 17 120 -4 c66 -3 179 -9 250 -15 72 -5 173 -11 225 -12
89 -4 91 -3 30 5 -36 5 -121 13 -190 18 -69 6 -172 15 -230 20 -58 6 -138 10
-177 11 -62 0 -82 5 -135 32 -84 42 -92 49 -77 59 16 9 -6 39 -28 39 -7 0 -24
9 -36 21 -15 14 -32 19 -54 17 -18 -2 -33 -1 -33 2 0 4 -16 14 -37 24 -29 14
-38 15 -44 4 -6 -9 -1 -15 14 -19 20 -5 20 -6 -7 -13 -33 -8 -52 10 -34 31 7
9 7 13 -1 13 -6 0 -11 -4 -11 -10 0 -5 -6 -10 -14 -10 -9 0 -12 -7 -9 -20 3
-11 10 -20 16 -20 6 0 8 -2 5 -5 -4 -4 -146 3 -403 21 -44 3 -152 8 -240 10
-88 3 -182 9 -210 15 -117 22 -150 30 -159 39 -6 6 -19 10 -31 10 -12 0 -30 7
-41 15 -10 8 -26 15 -35 15 -9 0 -38 9 -65 21 -66 28 -82 34 -129 52 -22 8
-60 23 -85 32 -93 36 -135 51 -230 84 -19 7 -49 16 -65 20 -17 4 -40 13 -52
19 -12 7 -30 12 -40 12 -10 0 -31 7 -47 15 -15 8 -38 15 -50 15 -11 0 -34 7
-50 15 -15 8 -34 15 -41 15 -7 0 -37 7 -66 16 -81 23 -151 42 -179 49 -14 3
-70 17 -125 31 -177 44 -244 59 -405 91 -162 32 -228 43 -300 53 -41 6 -88 15
-105 19 -16 5 -61 12 -100 16 -38 3 -88 10 -110 15 -37 8 -273 22 -250 15 35
-12 132 -35 200 -49 44 -9 109 -23 145 -31 36 -7 101 -21 145 -30 44 -9 105
-22 135 -30 30 -7 91 -21 135 -30 44 -9 101 -23 127 -31 26 -8 53 -14 61 -14
8 0 37 -6 63 -14 27 -8 78 -22 114 -31 183 -48 300 -81 425 -120 22 -7 87 -27
145 -45 104 -32 157 -50 215 -75 17 -7 45 -16 62 -19 18 -4 35 -12 38 -17 4
-5 15 -9 25 -9 10 0 31 -6 47 -14 15 -8 49 -24 74 -35 62 -28 81 -50 39 -45
-16 2 -30 -1 -30 -6 0 -5 -6 -8 -12 -5 -21 6 -195 14 -463 21 -274 7 -245 12
-314 -47 -20 -18 -103 -23 -144 -10 -19 7 -57 16 -83 21 -27 5 -85 18 -129 30
-44 11 -105 27 -135 34 -30 8 -82 21 -115 29 -33 8 -91 23 -130 32 -38 9 -97
23 -130 31 -33 8 -89 21 -125 29 -36 8 -96 21 -135 30 -207 47 -507 106 -755
150 -47 9 -121 22 -165 30 -119 21 -258 44 -365 61 -52 8 -138 22 -190 30 -52
8 -142 22 -200 30 -58 8 -150 22 -205 30 -55 8 -136 19 -180 24 -44 5 -102 13
-130 19 -53 10 -164 25 -305 41 -47 5 -112 14 -145 20 -64 10 -176 25 -315 40
-47 5 -112 14 -145 19 -143 24 -283 41 -322 41 -24 0 -43 4 -43 10 0 5 -3 9
-7 8 -16 -4 -224 15 -219 19 8 9 346 -19 352 -28 3 -5 28 -9 56 -9 67 0 57 8
-28 24 l-69 12 35 11 c20 7 176 14 365 18 390 8 482 17 300 29 -310 20 -270
23 270 21 629 -2 1377 -18 1670 -36 105 -7 251 -15 325 -19 74 -4 110 -8 80
-8 -30 -1 -107 -5 -170 -10 -104 -6 -87 -8 175 -14 160 -3 350 -10 422 -13 73
-4 140 -4 150 0 28 11 432 8 446 -4 15 -12 242 -17 242 -5 0 5 -78 13 -174 17
-131 6 -177 11 -188 22 -8 8 -21 15 -29 15 -8 0 -14 4 -14 9 0 5 -16 12 -35
15 -19 4 -35 11 -35 16 0 4 -13 11 -30 15 -16 4 -30 10 -30 15 0 5 -13 11 -30
15 -16 4 -30 10 -30 15 0 5 -10 12 -22 15 -11 4 -31 18 -43 31 -23 24 -45 32
-45 15 0 -5 6 -12 13 -14 9 -4 8 -8 -3 -16 -13 -9 -12 -11 4 -11 11 0 17 -3
13 -6 -10 -10 -47 7 -47 22 0 8 -4 12 -10 9 -11 -7 -87 32 -110 56 -8 9 -21
14 -27 12 -7 -3 -13 3 -13 12 0 9 -4 14 -9 11 -5 -4 -20 -2 -33 4 -20 8 -20
10 -3 8 11 0 27 2 36 6 8 4 29 0 45 -9 16 -8 35 -15 42 -15 6 0 12 -4 12 -9 0
-5 11 -12 25 -15 14 -4 25 -11 25 -16 0 -6 7 -10 15 -10 24 0 17 17 -10 24
-14 4 -25 10 -25 15 0 5 -13 12 -30 16 -16 4 -30 11 -30 15 0 5 -16 12 -35 16
-19 3 -35 10 -35 14 0 4 -18 10 -40 14 -22 3 -40 10 -40 15 0 5 -13 12 -29 16
-16 3 -32 13 -35 21 -3 8 -12 14 -21 14 -8 0 -15 4 -15 9 0 5 -13 12 -30 16
-16 4 -30 10 -30 15 0 4 -11 11 -25 14 -14 4 -25 10 -25 15 0 5 -13 12 -30 16
-16 4 -30 11 -30 16 0 5 -7 9 -15 9 -9 0 -18 6 -21 14 -3 8 -19 18 -35 21 -16
4 -29 10 -29 15 0 4 -11 11 -25 14 -14 4 -25 10 -25 15 0 5 -13 12 -30 16 -16
4 -30 10 -30 15 0 5 -13 11 -29 15 -16 3 -32 13 -35 21 -3 8 -12 14 -21 14 -8
0 -15 4 -15 9 0 5 -13 12 -30 16 -16 4 -30 10 -30 15 0 5 -13 11 -30 15 -16 4
-30 11 -30 16 0 5 -11 11 -25 15 -14 3 -25 10 -25 14 0 5 -13 11 -30 15 -16 4
-30 10 -30 15 0 5 -13 11 -30 15 -16 4 -30 10 -30 15 0 5 -13 11 -30 15 -16 4
-30 10 -30 15 0 5 -13 11 -30 15 -16 4 -30 10 -30 15 0 5 -13 11 -30 15 -16 4
-30 10 -30 15 0 5 -13 11 -30 15 -16 4 -30 10 -30 15 0 5 -13 11 -30 15 -16 4
-30 10 -30 15 0 5 -13 11 -30 15 -16 4 -30 10 -30 15 0 5 -13 11 -30 15 -16 4
-30 10 -30 15 0 5 -13 11 -30 15 -16 4 -30 10 -30 15 0 4 -16 11 -35 14 -19 4
-35 11 -35 16 0 4 -13 11 -30 15 -16 4 -30 10 -30 15 0 4 -18 10 -40 14 -22 3
-40 11 -40 16 0 6 -9 10 -19 10 -11 0 -26 6 -33 14 -8 7 -29 17 -46 21 -18 3
-32 10 -32 15 0 4 -18 10 -40 14 -22 3 -40 10 -40 15 0 5 -16 12 -35 15 -19 4
-35 11 -35 16 0 6 -18 13 -40 16 -22 4 -40 10 -40 14 0 5 -13 11 -30 15 -16 4
-30 10 -30 15 0 4 -15 11 -34 14 -19 4 -36 10 -38 15 -2 4 -21 11 -43 14 -22
3 -32 3 -22 1 9 -3 17 -10 17 -15 0 -5 7 -9 16 -9 9 0 28 -6 42 -14 53 -28
159 -76 169 -76 6 0 16 -7 23 -15 15 -19 9 -19 -49 -1 -25 8 -73 23 -106 32
-33 9 -80 23 -104 30 -25 8 -53 14 -64 14 -11 0 -43 6 -71 14 -80 23 -310 65
-491 90 -606 84 -1122 116 -2140 131 -725 12 -849 15 -859 25 -6 6 -24 11 -41
11 -55 3 87 18 285 30 420 25 1860 9 1860 -21 0 -4 73 -10 162 -14 90 -4 166
-12 169 -17 3 -6 10 -9 15 -8 23 6 304 -14 304 -22 0 -5 23 -9 50 -9 91 0 52
18 -55 25 -58 4 -105 11 -105 15 0 5 -48 11 -107 15 -60 4 -112 13 -116 19 -6
8 -10 8 -14 -1 -6 -16 -30 -17 -35 -3 -2 6 -43 13 -91 17 -48 3 -87 9 -87 13
0 5 -56 11 -125 15 -69 4 -125 11 -125 15 0 4 -71 11 -157 15 -87 4 -160 11
-163 15 -3 4 -104 11 -225 15 -144 5 -222 11 -227 19 -5 8 -285 11 -1020 12
-557 0 -1052 -1 -1100 -3z m863 -148 c0 -5 -17 -15 -38 -20 -87 -24 -143 -71
-143 -122 0 -10 22 -41 48 -70 26 -28 81 -89 122 -134 41 -45 94 -102 118
-126 23 -24 42 -48 42 -54 0 -5 4 -9 8 -9 4 0 26 -23 47 -52 22 -29 52 -65 68
-80 15 -16 27 -31 27 -34 0 -3 6 -11 13 -18 6 -7 21 -25 32 -40 11 -16 25 -33
30 -40 6 -6 35 -42 64 -81 30 -38 57 -71 62 -73 5 -2 9 -8 9 -12 0 -7 99 -147
138 -195 4 -5 32 -46 62 -90 30 -44 58 -81 63 -83 4 -2 7 -10 7 -18 0 -8 7
-17 15 -20 8 -4 15 -10 15 -15 0 -12 42 -73 53 -77 4 -2 7 -8 7 -13 0 -11 42
-72 53 -77 4 -2 7 -9 7 -16 0 -7 14 -32 30 -54 29 -40 40 -82 21 -82 -26 0
-43 17 -62 59 -49 111 -113 226 -139 251 -8 8 -32 24 -52 34 -21 11 -38 23
-38 27 0 5 -7 17 -14 26 -8 10 -56 74 -106 143 -50 69 -98 133 -106 143 -7 9
-14 22 -14 27 0 6 -3 10 -7 10 -5 0 -48 54 -98 120 -49 66 -93 120 -97 120 -5
0 -8 7 -8 15 0 8 -3 15 -7 15 -5 0 -35 34 -68 75 -33 41 -63 75 -67 75 -5 0
-8 5 -8 10 0 6 -10 21 -23 33 -13 12 -60 63 -104 112 -44 50 -100 111 -124
136 -57 60 -73 90 -65 125 8 36 59 93 113 127 53 34 114 45 114 22z m3454
-289 c171 -29 353 -68 400 -86 14 -5 35 -10 46 -10 23 0 668 -319 689 -340 3
-3 16 -11 30 -18 14 -7 52 -28 85 -47 33 -18 80 -44 105 -57 25 -13 47 -26 50
-30 3 -4 17 -12 30 -18 14 -5 39 -19 55 -30 17 -11 37 -23 45 -27 8 -4 59 -33
112 -65 53 -32 102 -58 108 -58 5 0 10 -4 10 -9 0 -5 14 -14 30 -21 17 -7 30
-16 30 -21 0 -5 5 -9 11 -9 5 0 40 -20 77 -44 142 -92 186 -119 220 -137 12
-7 22 -16 22 -21 0 -4 5 -8 10 -8 12 0 73 -41 78 -52 2 -5 8 -8 13 -8 8 0 98
-64 109 -79 3 -3 23 -16 45 -27 61 -33 58 -52 -7 -43 -29 4 -98 4 -154 2 -80
-5 -111 -2 -155 12 -30 10 -56 21 -59 24 -8 10 -130 81 -140 81 -5 0 -10 3
-12 8 -3 7 -125 82 -134 82 -2 0 -23 12 -47 27 -56 37 -74 47 -127 74 -40 21
-172 95 -210 119 -8 5 -40 22 -70 38 -109 57 -155 83 -165 93 -5 5 -17 9 -26
9 -9 0 -21 6 -27 13 -6 7 -55 35 -109 62 -54 27 -104 55 -111 62 -7 7 -22 13
-33 13 -10 0 -19 4 -19 9 0 7 -53 38 -127 75 -13 6 -23 14 -23 17 0 3 -20 19
-45 35 -25 15 -45 32 -45 36 0 4 -5 8 -10 8 -6 0 -20 9 -32 20 -12 11 -28 20
-35 20 -7 0 -13 4 -13 8 0 9 -9 14 -95 53 -27 12 -53 27 -57 32 -8 13 -134 46
-175 47 -18 0 -33 4 -33 10 0 5 -17 12 -37 15 -21 3 -50 13 -65 21 -14 8 -38
14 -52 14 -14 0 -26 4 -26 8 0 5 -26 16 -57 26 -32 10 -77 27 -100 37 -23 10
-48 19 -56 19 -7 0 -22 7 -33 16 -17 14 -9 15 101 10 111 -5 117 -4 72 8 -113
31 -41 32 138 2z m-2675 -527 c0 -5 7 -9 15 -9 8 0 15 -9 15 -20 0 -11 7 -20
15 -20 8 0 15 -7 15 -15 0 -8 5 -15 10 -15 12 0 50 -36 50 -47 0 -5 14 -17 30
-28 16 -11 30 -23 30 -26 0 -8 104 -121 203 -220 43 -43 76 -84 74 -91 -4 -9
-6 -8 -6 2 -1 11 -13 15 -40 15 -22 1 -45 8 -55 18 -10 9 -20 17 -24 17 -4 0
-36 27 -72 60 -36 33 -68 60 -72 60 -5 0 -8 5 -8 12 0 7 -18 30 -39 52 -105
109 -141 151 -141 163 0 7 -7 13 -15 13 -8 0 -15 5 -15 12 0 6 -17 36 -37 65
-31 45 -35 56 -23 64 12 8 10 9 -6 4 -17 -4 -23 0 -28 20 -4 14 -4 30 -1 35 5
9 125 -107 125 -121z m-591 -249 c28 -7 51 -16 51 -21 0 -17 -76 -46 -166 -63
-70 -14 -127 -17 -250 -14 -158 4 -214 16 -214 44 0 16 117 43 210 49 84 5
174 15 178 20 7 7 145 -4 191 -15z m-1339 -536 c151 -8 276 -19 278 -24 2 -5
19 -19 38 -31 20 -12 32 -25 27 -29 -4 -5 -91 -4 -193 1 -522 24 -716 31
-1057 36 -205 3 -373 9 -373 12 0 4 14 19 31 34 l32 28 471 -6 c259 -4 595
-13 746 -21z m2176 -152 c18 -16 49 -71 42 -77 -2 -2 -48 0 -103 3 l-100 7 0
33 c0 18 -7 37 -15 42 -10 7 12 10 70 10 66 0 90 -4 106 -18z m3169 -302 c55
-6 136 -16 180 -22 44 -6 107 -12 140 -15 33 -2 85 -11 116 -19 31 -8 69 -14
83 -14 15 0 55 -6 89 -14 34 -8 100 -22 147 -32 47 -9 109 -25 139 -35 29 -10
57 -16 62 -13 5 3 9 0 9 -5 0 -6 7 -11 15 -11 8 0 15 -4 15 -9 0 -4 -12 -7
-26 -5 -15 1 -37 -2 -50 -6 -13 -5 -24 -6 -24 -2 0 4 -50 8 -111 9 -144 2
-488 48 -822 109 -42 8 -87 14 -100 14 -12 0 -40 7 -62 15 -22 8 -59 14 -82
15 -24 0 -43 3 -43 8 0 4 -3 17 -6 29 -6 21 -5 21 113 17 65 -2 163 -8 218
-14z m700 -350 c6 -5 31 -11 58 -15 26 -4 49 -11 52 -15 3 -5 24 -11 48 -15
23 -4 47 -11 52 -15 6 -4 29 -11 53 -15 23 -4 42 -10 42 -15 0 -4 20 -11 45
-14 25 -4 45 -11 45 -16 0 -4 18 -11 40 -15 22 -4 40 -10 40 -15 0 -4 16 -11
36 -15 20 -3 33 -9 30 -12 -3 -4 -41 4 -84 16 -162 47 -173 50 -352 102 -141
40 -184 55 -188 67 -4 12 65 5 83 -8z m540 -96 c39 -9 87 -23 108 -30 20 -8
46 -14 56 -14 18 0 42 -6 176 -47 75 -22 52 -27 -90 -20 -87 4 -108 8 -160 36
-33 17 -68 31 -77 31 -10 0 -18 5 -18 10 0 6 -8 10 -17 10 -10 0 -31 7 -46 15
-15 8 -43 17 -62 21 -19 3 -35 10 -35 14 0 8 58 -1 165 -26z m-10712 -204 c2
-52 -89 -230 -117 -230 -25 0 -36 51 -36 166 l0 115 35 15 c19 7 46 14 60 14
14 0 25 6 25 13 1 27 32 -60 33 -93z m11087 -35 c385 -52 450 -62 730 -120
152 -31 228 -48 272 -61 26 -8 56 -14 66 -14 11 0 42 -6 68 -14 53 -15 129
-34 184 -46 261 -56 341 -95 356 -175 8 -42 -15 -125 -34 -125 -31 0 -52 21
-50 49 1 16 -3 36 -10 44 -7 8 -12 19 -11 23 5 30 -12 38 -181 79 -56 14 -127
31 -235 59 -80 20 -213 50 -400 91 -218 48 -471 91 -625 106 -58 5 -127 14
-153 19 -101 21 -287 7 -287 -21 0 -4 17 -20 38 -35 24 -18 49 -50 71 -96 19
-38 50 -83 68 -101 31 -31 44 -67 23 -67 -5 0 -10 7 -10 15 0 18 -21 20 -38 3
-9 -9 -12 -9 -12 0 0 7 -14 12 -34 12 -18 0 -58 4 -87 10 -46 8 -60 17 -99 59
-29 32 -50 66 -58 98 -8 26 -15 54 -18 61 -2 6 -16 12 -31 12 -15 1 -55 7 -88
15 -33 8 -75 15 -92 15 -22 0 -33 5 -33 14 0 8 -7 16 -15 20 -29 11 -15 32 30
44 25 7 82 12 128 13 45 0 129 7 187 14 148 17 247 17 380 0z m60 -120 c10
-12 10 -15 -3 -15 -35 0 -3 -26 46 -38 39 -9 60 -21 84 -50 18 -20 32 -46 33
-58 0 -12 16 -51 35 -87 19 -36 35 -68 35 -71 0 -3 -15 -2 -34 1 -27 4 -34 2
-38 -15 -8 -28 2 -39 37 -45 17 -3 10 -4 -17 -3 l-48 1 -2 65 -2 65 -3 -64 -4
-63 -57 7 c-66 8 -87 18 -124 57 l-26 28 44 0 c50 0 66 19 43 48 -55 68 -84
185 -59 233 13 23 43 25 60 4z m457 -124 c10 -5 34 -13 54 -16 20 -3 47 -16
60 -29 13 -13 34 -28 47 -35 12 -6 22 -21 22 -31 0 -11 5 -20 10 -20 6 0 10
-7 10 -15 0 -8 4 -15 8 -15 5 0 22 -11 37 -25 16 -13 38 -25 50 -27 17 -3 20
-9 17 -49 -2 -26 1 -50 7 -54 7 -4 11 13 11 50 0 31 4 54 9 51 12 -8 21 -98
11 -116 -11 -21 0 -37 30 -43 14 -2 7 -3 -15 0 -108 11 -240 39 -241 51 -1 6
-2 19 -2 27 -1 8 -17 17 -34 20 -74 14 -150 127 -172 257 -9 50 15 55 81 19z
m3640 -37 c4 -12 -104 -18 -647 -34 -173 -5 -349 -14 -390 -20 -41 -5 -97 -9
-125 -10 -117 0 -326 -49 -400 -93 -64 -38 -181 -160 -209 -218 -5 -11 -13
-19 -18 -19 -4 0 -8 -5 -8 -10 0 -11 -39 -70 -52 -80 -3 -3 -10 -18 -13 -33
-4 -15 -11 -27 -15 -27 -5 0 -11 -13 -15 -30 -4 -16 -11 -30 -16 -30 -5 0 -9
-7 -9 -17 0 -9 -3 -13 -7 -9 -6 5 81 190 97 206 11 11 50 70 50 75 0 17 150
195 165 195 2 0 23 13 47 28 72 47 197 74 453 97 152 14 573 32 900 38 200 4
208 4 212 -9z m558 1 c425 -7 570 -32 652 -111 24 -22 43 -48 43 -57 0 -9 5
-17 10 -17 6 0 10 -6 10 -13 0 -7 9 -30 20 -52 11 -22 20 -45 20 -53 0 -8 6
-28 13 -45 21 -50 40 -108 48 -152 4 -22 12 -58 18 -80 15 -56 15 -183 0 -168
-6 6 -15 44 -20 85 -9 82 -30 185 -47 238 -6 19 -20 62 -31 95 -26 80 -84 191
-113 215 -65 52 -253 77 -692 90 -198 6 -362 12 -364 15 -2 2 -1 8 2 14 4 6
30 9 64 6 31 -2 197 -7 367 -10z m-5294 -16 c9 -5 42 -12 73 -15 31 -4 61 -13
67 -20 6 -8 22 -14 35 -14 21 0 29 -9 25 -32 0 -3 18 -24 40 -45 22 -21 83
-82 136 -135 53 -54 101 -98 107 -99 6 0 21 -13 34 -29 l23 -30 -33 6 c-106
18 -235 97 -345 213 -40 41 -73 79 -73 83 0 13 -82 68 -101 68 -10 0 -35 16
-56 35 l-38 36 45 -7 c25 -4 52 -11 61 -15z m1509 8 c0 -7 -5 -18 -12 -25 -9
-9 -2 -15 28 -27 76 -30 109 -51 113 -70 4 -22 99 -172 126 -199 10 -9 15 -20
11 -23 -12 -12 -226 43 -226 59 0 5 -10 19 -23 31 -20 19 -34 42 -78 129 -10
20 -12 99 -3 122 7 20 64 22 64 3z m3380 -134 c99 -36 200 -177 235 -328 20
-88 5 -124 -19 -43 -9 31 -16 60 -16 65 0 13 -63 136 -88 170 -12 17 -40 46
-62 63 -35 27 -50 33 -110 36 -43 3 -79 0 -93 -7 -31 -17 -97 -87 -97 -104 0
-8 -4 -15 -10 -15 -5 0 -10 -5 -10 -11 0 -6 -7 -26 -15 -44 -9 -17 -20 -61
-25 -96 -9 -62 -9 -62 -4 19 3 45 12 95 20 110 7 15 14 34 14 43 0 9 7 22 15
29 8 7 15 17 15 22 0 16 62 72 100 90 45 22 93 22 150 1z m45 -449 c8 -16 26
-42 40 -58 14 -15 25 -31 25 -37 0 -5 4 -9 10 -9 5 0 21 -20 36 -45 14 -25 30
-45 35 -45 5 0 9 -7 9 -15 0 -13 11 -19 31 -17 10 1 3 -72 -9 -93 -6 -11 -20
-40 -31 -65 -26 -54 -43 -75 -96 -115 -36 -27 -48 -30 -110 -30 -80 0 -104 12
-176 86 -55 57 -111 169 -129 257 -18 88 1 103 25 20 24 -83 32 -93 56 -72 11
10 19 21 19 26 0 5 11 19 24 31 31 29 96 115 96 127 0 6 4 10 9 10 6 0 17 13
26 28 14 23 22 27 51 24 31 -4 34 -2 34 24 0 15 -5 42 -12 60 -6 18 -8 39 -3
50 6 14 11 1 17 -46 5 -36 15 -79 23 -96z m-14965 59 c61 -23 147 -88 193
-148 41 -54 100 -172 112 -223 3 -18 10 -32 15 -32 4 0 10 -22 14 -50 4 -27
11 -52 16 -55 6 -3 10 -19 10 -34 0 -16 7 -48 15 -71 8 -23 15 -53 15 -66 0
-20 -4 -23 -22 -19 -13 3 -34 -1 -48 -10 -14 -8 -37 -19 -52 -26 -16 -6 -28
-15 -28 -20 0 -5 -6 -9 -12 -9 -13 0 -105 -60 -145 -94 -13 -11 -23 -26 -23
-35 0 -12 -3 -12 -12 -3 -16 16 -48 15 -48 -2 0 -28 -29 -24 -59 9 -26 28 -28
35 -16 45 21 17 20 98 -1 121 -19 21 -44 14 -44 -13 0 -11 -7 -26 -15 -35 -14
-14 -14 -18 0 -39 20 -31 19 -38 -9 -68 -28 -31 -32 -32 -39 -5 -8 29 -51 22
-55 -8 -2 -13 -8 -23 -13 -23 -5 0 -9 -10 -9 -23 0 -26 33 -67 54 -67 8 0 17
-11 20 -25 4 -14 13 -25 21 -25 8 0 15 -8 15 -18 0 -10 12 -25 28 -33 15 -8
31 -18 35 -24 5 -5 5 0 2 13 -3 12 -2 22 3 22 5 0 12 13 15 28 4 18 16 34 34
42 44 22 49 24 36 9 -7 -7 -13 -22 -13 -32 0 -14 5 -18 20 -14 15 4 20 0 20
-14 0 -14 -7 -19 -25 -19 -14 0 -25 -6 -25 -13 0 -8 -9 -22 -20 -32 -11 -10
-20 -27 -20 -37 0 -10 -7 -21 -15 -24 -19 -8 -20 -44 -1 -44 8 0 16 -7 20 -15
8 -22 47 -19 53 5 8 31 30 7 38 -41 4 -21 11 -41 16 -45 5 -3 9 -12 9 -20 0
-29 50 -123 73 -139 13 -8 30 -27 38 -43 19 -37 52 -86 62 -90 4 -2 7 -10 7
-17 0 -7 7 -15 15 -19 8 -3 14 -2 14 2 -3 20 2 32 15 32 8 0 17 8 20 18 3 9 3
0 0 -20 -3 -20 -11 -50 -19 -65 -8 -15 -15 -34 -15 -40 0 -7 -4 -13 -9 -13 -5
0 -12 -11 -15 -24 -7 -27 -25 -50 -105 -137 -30 -33 -60 -59 -67 -59 -7 0 -14
-3 -16 -7 -1 -5 -21 -17 -42 -28 -30 -15 -59 -20 -121 -20 -70 0 -90 4 -139
29 -94 48 -230 215 -212 261 3 8 0 15 -7 15 -7 0 -20 15 -29 33 -14 29 -23 52
-56 157 -29 90 -52 256 -59 413 -3 92 -10 170 -15 173 -18 11 -7 34 17 34 32
0 51 -33 29 -51 -14 -11 -16 -28 -11 -104 9 -127 23 -245 37 -296 54 -206 59
-212 97 -141 17 31 20 47 13 69 -21 66 -32 146 -37 256 -5 100 -4 117 9 117
12 0 16 -19 21 -92 4 -85 10 -117 39 -231 9 -38 10 -38 29 -21 10 9 19 20 19
24 0 11 36 86 73 152 72 128 77 139 73 165 -6 31 2 24 -71 57 -33 15 -90 43
-127 61 -63 32 -68 33 -68 15 0 -11 7 -20 15 -20 8 0 15 -9 15 -20 0 -21 -15
-27 -25 -10 -3 6 -15 10 -26 10 -25 0 -24 19 4 58 18 24 26 29 35 20 9 -9 12
-9 12 0 0 7 -4 12 -8 12 -5 0 -20 9 -33 20 -40 33 -43 35 -76 60 -31 22 -33
28 -33 83 0 72 18 137 38 137 9 0 13 -7 10 -18 -7 -27 20 -47 60 -43 13 1 17
31 4 31 -5 0 -9 14 -10 30 -1 36 15 40 24 5 3 -14 10 -25 15 -25 5 0 9 -9 9
-19 0 -22 57 -81 78 -81 6 0 12 -4 12 -8 0 -7 116 -88 168 -116 19 -11 35 3
22 19 -8 10 -8 19 0 35 7 14 9 42 5 74 -14 115 -17 206 -6 206 6 0 12 -15 13
-32 1 -22 4 -15 8 22 6 53 7 53 8 13 1 -24 7 -74 14 -113 9 -54 16 -70 29 -70
14 0 17 23 23 198 4 108 9 236 12 284 3 72 2 86 -10 82 -8 -3 -20 4 -28 15
-14 19 -16 15 -26 -57 -7 -42 -12 -108 -12 -146 0 -38 -3 -67 -6 -63 -3 3 -6
70 -6 149 l-1 143 -8 -95 c-8 -94 -25 -200 -28 -169 0 9 -7 28 -14 43 l-14 25
-26 -27 c-15 -16 -27 -33 -27 -40 0 -7 -3 -12 -8 -12 -4 0 -18 -21 -32 -47
-30 -58 -43 -73 -64 -73 -12 0 -16 10 -16 37 0 49 57 149 126 219 36 37 54 64
54 80 l0 25 -31 -18 c-31 -18 -110 -99 -123 -124 -3 -8 -15 -27 -26 -44 -24
-39 -80 -152 -80 -164 0 -20 -43 -24 -56 -6 -11 14 -10 25 3 59 55 149 163
299 262 365 76 50 181 64 261 34z m16093 -28 c5 -10 -4 -16 -31 -20 -20 -3
-48 -8 -62 -11 -14 -3 -86 -11 -160 -18 -74 -7 -142 -15 -150 -19 -8 -3 -76
-8 -150 -11 -74 -3 -172 -11 -217 -17 -65 -10 -86 -9 -98 1 -22 18 -19 34 13
57 25 18 49 20 287 28 143 4 287 11 320 15 33 4 101 8 151 9 72 1 93 -2 97
-14z m-1654 -57 c41 -10 56 -19 62 -36 l9 -24 -572 6 c-577 6 -1015 23 -1001
37 19 19 177 24 793 27 503 2 668 -1 709 -10z m-6174 -158 c153 -52 273 -137
398 -279 20 -23 37 -47 37 -52 0 -5 4 -9 9 -9 8 0 69 -90 84 -125 4 -11 11
-22 15 -25 10 -7 52 -95 52 -109 0 -6 4 -11 9 -11 5 0 11 -10 14 -22 6 -24 31
-97 46 -133 23 -56 63 -221 83 -340 19 -118 16 -495 -4 -610 -24 -128 -37
-185 -54 -222 -8 -17 -14 -40 -14 -51 0 -12 -4 -23 -9 -27 -5 -3 -12 -19 -16
-35 -9 -41 -85 -187 -142 -273 -53 -78 -199 -231 -232 -242 -12 -3 -21 -10
-21 -15 0 -4 -8 -10 -17 -14 -10 -3 -37 -17 -61 -30 -23 -14 -56 -27 -72 -31
-17 -4 -30 -10 -30 -14 0 -10 -145 -35 -205 -35 -56 1 -165 19 -210 36 -42 15
-179 82 -185 89 -3 4 -27 24 -55 44 -66 50 -195 187 -195 207 0 6 10 -2 22
-18 25 -32 68 -74 76 -74 2 0 0 6 -5 13 -52 65 -83 111 -83 122 0 7 -7 16 -16
19 -13 5 -14 0 -9 -27 6 -31 5 -30 -21 13 -15 25 -30 47 -33 50 -18 16 -52
103 -46 120 3 11 0 32 -8 47 -22 42 -47 103 -47 113 0 5 -5 21 -12 37 -49 119
-96 359 -105 546 -4 83 -7 97 -20 93 -13 -6 -15 6 -9 86 3 51 9 117 13 146 l8
54 22 -26 c13 -14 29 -26 35 -26 7 0 5 5 -4 11 -10 5 -18 22 -18 36 0 18 -4
24 -15 19 -11 -4 -15 1 -15 19 0 38 50 230 77 292 7 17 13 36 13 41 0 6 6 23
14 39 8 15 23 46 33 68 30 66 114 205 124 205 5 0 9 5 9 11 0 13 177 192 200
202 8 4 29 16 45 27 56 36 177 84 240 94 69 11 250 -3 310 -24z m7887 -145
c-22 -66 -49 -104 -78 -111 -13 -3 -24 -10 -24 -14 0 -5 -14 -12 -32 -15 -18
-4 -39 -11 -48 -16 -25 -13 -112 -37 -160 -44 -25 -3 -54 -10 -65 -14 -23 -10
-132 -27 -255 -41 -47 -5 -112 -14 -145 -19 -210 -36 -983 -53 -1405 -31 -598
30 -680 37 -845 67 -184 33 -301 121 -320 241 -8 50 5 55 23 10 42 -106 77
-146 157 -183 68 -31 131 -45 250 -55 55 -5 107 -11 115 -15 18 -6 259 -20
630 -36 301 -13 1050 -6 1180 10 47 6 132 16 190 22 205 21 266 29 310 39 45
9 117 24 200 40 51 9 150 39 165 50 6 4 21 10 35 14 46 12 110 83 110 122 0
18 17 37 27 30 1 -1 -6 -24 -15 -51z m75 -139 c-2 -55 -7 -72 -21 -80 -11 -6
-26 -19 -35 -30 -47 -55 -63 -68 -119 -96 -33 -16 -67 -30 -74 -30 -8 0 -22
-6 -33 -14 -11 -7 -36 -16 -55 -19 -71 -13 -134 -34 -138 -46 -3 -9 -8 -9 -17
-1 -9 7 -27 8 -57 1 -114 -25 -453 -47 -479 -30 -7 4 -21 3 -31 -2 -10 -5 -18
-6 -18 -1 0 7 -18 10 -101 14 -16 1 -25 8 -26 18 -1 13 15 21 70 33 110 25
184 37 272 46 44 5 107 14 140 19 33 6 114 18 180 27 339 45 409 68 462 155
21 35 52 145 54 191 1 14 7 1 15 -31 8 -30 13 -86 11 -124z m-15814 -419 c5
-55 5 -58 -11 -44 -21 18 -238 19 -250 1 -4 -6 -20 -14 -35 -18 -26 -6 -28 -5
-22 15 6 18 4 21 -13 17 -16 -5 -21 0 -26 25 -3 17 -4 32 -1 35 3 3 5 0 5 -7
0 -14 30 -47 30 -34 0 4 25 19 55 33 30 14 55 28 55 32 0 3 14 9 30 13 17 4
30 10 30 15 0 4 16 11 35 14 19 4 35 11 35 16 0 4 14 11 30 15 21 5 30 13 31
28 2 23 12 -53 22 -156z m997 84 c0 -10 3 -12 8 -5 8 12 9 12 105 16 48 2 67
0 67 -9 0 -16 27 -17 32 -2 2 5 17 10 33 11 52 1 57 -1 51 -19 -6 -17 -5 -17
8 0 16 20 26 22 26 5 0 -8 13 -13 33 -13 17 1 46 -5 63 -12 22 -9 34 -9 42 -1
15 15 38 -9 47 -50 3 -18 10 -32 15 -32 5 0 11 -13 15 -30 4 -16 10 -30 15
-30 4 0 11 -11 14 -25 4 -14 11 -25 16 -25 6 0 10 -7 10 -15 0 -9 7 -18 15
-21 8 -4 15 -12 15 -19 0 -25 180 -195 205 -195 4 0 14 -7 23 -17 15 -15 5
-16 -146 -10 -90 3 -166 8 -170 11 -4 3 -62 7 -127 11 -190 9 -254 14 -340 25
-66 8 -300 16 -354 11 -25 -2 7 -29 42 -34 51 -8 158 -27 207 -37 25 -6 83
-15 130 -21 47 -6 128 -17 180 -25 52 -7 133 -18 180 -24 47 -6 104 -15 127
-20 24 -5 81 -13 128 -16 47 -4 85 -11 85 -17 0 -5 -8 -6 -17 -2 -10 5 -297
10 -638 11 -341 2 -623 4 -627 4 -5 0 -8 7 -8 15 0 8 -4 15 -9 15 -5 0 -12 26
-16 58 -4 31 -11 59 -15 62 -7 5 -13 67 -11 112 1 9 8 24 17 33 9 8 13 22 10
30 -4 12 0 14 21 9 23 -6 25 -4 21 14 -4 15 -2 19 8 15 8 -3 15 -17 15 -32 l2
-26 4 28 c2 15 9 27 14 27 9 0 13 -14 9 -39 -1 -11 2 -11 14 2 9 8 16 20 16
26 0 6 8 12 18 12 41 3 45 5 49 19 4 13 3 13 -7 0 -9 -12 -12 -13 -17 -1 -5
11 -7 11 -15 0 -8 -11 -9 -11 -5 1 2 9 18 16 37 18 18 2 39 10 47 17 7 8 21
11 29 8 14 -5 14 -3 3 16 -13 19 -14 19 -21 3 -3 -9 -7 -12 -7 -5 -1 6 2 19 5
27 5 13 9 14 20 5 10 -8 14 -8 14 0 0 6 7 11 15 11 8 0 15 7 15 15 0 14 16 19
50 16 13 -2 13 -1 0 8 -21 15 -5 24 19 11 12 -6 21 -7 21 -2 0 19 -45 22 -58
4 -11 -15 -14 -15 -22 -2 -5 8 -10 21 -10 29 0 11 3 11 15 1 10 -9 15 -9 15
-1 0 6 9 11 20 11 13 0 18 5 14 15 -4 9 0 15 10 15 9 0 16 -7 16 -15 0 -9 6
-12 17 -8 12 5 14 3 8 -7 -5 -9 -4 -11 4 -6 6 4 9 12 5 17 -3 5 1 20 9 32 18
27 77 33 77 8z m581 -11 c10 0 20 6 22 13 3 7 6 5 6 -6 1 -12 8 -17 24 -16 42
4 57 -1 57 -18 0 -15 1 -15 13 1 13 18 14 18 20 1 5 -12 14 -15 31 -11 14 3
28 2 31 -4 3 -6 17 -7 31 -4 17 4 24 2 24 -8 0 -9 11 -13 34 -13 27 1 33 -2
28 -14 -5 -14 -4 -14 11 -2 15 12 20 11 36 -3 11 -10 25 -14 36 -10 12 5 23 1
33 -12 12 -16 14 -16 9 -1 -9 23 5 22 26 -4 17 -19 20 -20 37 -4 11 10 19 12
22 5 2 -6 21 -13 43 -15 22 -2 41 -8 43 -15 3 -8 8 -8 18 1 11 9 14 8 14 -3 0
-10 13 -15 45 -15 49 -1 75 -15 75 -42 1 -13 3 -13 15 3 12 16 15 17 15 4 0
-8 -9 -27 -20 -41 -11 -14 -20 -29 -20 -34 0 -4 5 -1 10 7 6 10 10 11 10 3 0
-7 4 -13 9 -13 5 0 9 12 9 26 0 14 7 33 16 42 22 23 22 -5 -1 -30 -11 -12 -12
-18 -3 -18 7 0 10 -8 7 -20 -3 -11 -1 -17 4 -14 6 3 9 13 8 22 -3 29 1 42 11
42 6 0 10 -13 10 -30 0 -20 5 -30 15 -30 16 0 21 26 6 32 -5 2 -12 17 -15 33
-4 17 -3 24 0 17 5 -10 9 -10 20 -1 12 10 13 6 8 -20 -7 -35 7 -41 41 -17 17
12 22 11 35 -2 13 -14 12 -15 -3 -9 -21 8 -22 3 -1 -18 10 -9 17 -30 18 -46 1
-16 1 -29 2 -29 1 0 14 12 29 26 23 21 25 28 14 36 -12 8 -12 9 0 6 23 -6 23
-22 1 -46 -26 -27 -25 -42 1 -42 14 0 19 5 16 14 -4 10 -1 13 9 9 7 -3 14 -9
14 -13 0 -4 9 -10 20 -13 13 -3 20 0 20 9 0 19 16 18 24 -2 3 -9 13 -14 21
-11 11 5 12 1 5 -17 -7 -19 -5 -23 10 -22 11 1 28 8 38 17 16 14 20 14 32 0
12 -13 12 -14 -2 -8 -12 4 -15 2 -11 -9 3 -9 10 -11 17 -6 6 5 18 12 27 15 13
4 16 1 12 -14 -4 -15 -2 -18 11 -13 10 4 18 0 22 -10 3 -9 11 -13 16 -10 6 4
5 10 -3 15 -11 7 -11 9 -1 9 7 0 15 -7 18 -15 7 -17 34 -21 34 -5 0 6 5 10 11
10 8 0 7 -5 -1 -15 -7 -9 -10 -19 -6 -22 4 -4 10 -2 14 4 5 7 13 9 21 4 7 -5
22 -6 34 -3 16 4 19 2 14 -11 -4 -10 -2 -14 7 -11 7 3 21 -4 31 -16 21 -23 44
-12 46 24 0 15 2 16 6 6 3 -8 16 -24 28 -36 12 -11 25 -27 28 -35 4 -11 6 -10
6 2 1 9 7 19 15 22 10 4 12 0 8 -16 -5 -21 -4 -21 14 -5 16 14 21 14 32 2 6
-7 12 -19 13 -26 0 -7 4 -4 9 7 7 19 8 19 15 2 6 -15 10 -16 16 -5 6 10 11 9
22 -6 8 -11 19 -16 25 -12 5 3 12 0 15 -6 3 -10 7 -10 20 0 18 15 37 8 37 -12
0 -18 50 -17 57 0 3 8 10 14 15 14 6 0 5 -6 -2 -15 -10 -12 -9 -15 6 -17 11 0
24 -2 31 -2 6 -1 21 -10 32 -20 12 -11 24 -16 28 -13 3 4 1 7 -5 7 -7 0 -12 7
-12 15 0 23 16 18 28 -10 11 -25 32 -34 32 -15 0 6 5 10 10 10 6 0 10 -8 10
-18 0 -17 -7 -18 -82 -14 -46 3 -85 8 -88 12 -3 4 -63 11 -135 15 -71 4 -134
10 -140 14 -5 3 -68 11 -140 18 -71 6 -191 19 -265 28 -74 9 -184 21 -245 28
-60 7 -117 16 -125 19 -8 4 -55 11 -105 17 -141 16 -250 34 -255 41 -3 4 -27
10 -54 14 -27 4 -56 12 -65 16 -9 5 -38 19 -66 32 -27 13 -51 26 -53 31 -2 4
-10 7 -18 7 -8 0 -17 7 -20 15 -3 8 -15 17 -26 21 -20 6 -68 50 -68 63 0 3
-14 22 -30 41 -16 19 -34 40 -39 46 -5 6 -12 20 -15 32 -4 12 -11 22 -16 22
-5 0 -11 14 -15 30 -4 17 -11 30 -15 30 -5 0 -12 16 -16 35 -3 19 -10 35 -15
35 -5 0 -9 8 -9 17 0 13 3 14 12 5 7 -7 20 -12 29 -12z"/>
<path d="M21780 7421 c0 -6 -5 -11 -10 -11 -12 0 -73 -41 -78 -52 -2 -5 -8 -8
-13 -8 -19 0 -139 -84 -139 -97 0 -20 44 -86 87 -130 120 -121 267 -86 353 84
l28 55 -26 29 c-14 16 -31 29 -39 29 -7 0 -13 4 -13 9 0 4 -28 26 -62 48 -86
55 -88 56 -88 44z"/>
<path d="M6919 7493 c-18 -4 -33 -49 -48 -143 -15 -91 -15 -90 24 -90 24 0 35
-5 35 -15 0 -10 -10 -15 -29 -15 -16 0 -32 -6 -34 -12 -4 -10 -6 -10 -6 0 -1
6 -5 12 -10 12 -4 0 -9 -93 -10 -207 -1 -114 -3 -215 -6 -223 -2 -8 -1 -21 4
-28 7 -12 12 -12 30 -1 27 17 27 39 1 46 -23 6 -24 9 -7 28 10 11 16 10 34 -7
12 -11 28 -18 35 -14 27 12 54 32 75 54 12 12 26 22 31 22 4 0 18 17 30 38 11
20 46 62 76 92 61 59 66 78 40 138 -65 153 -142 256 -182 245 -16 -4 -22 3
-34 38 -15 44 -21 50 -49 42z"/>
<path d="M6395 6880 c-3 -5 -21 -10 -40 -10 -35 0 -56 -17 -36 -30 7 -4 11
-13 9 -21 -2 -9 4 -13 15 -11 9 2 24 -4 33 -13 8 -8 22 -15 30 -15 8 0 14 -4
14 -9 0 -5 12 -16 28 -24 15 -7 53 -28 86 -46 32 -18 60 -30 62 -28 2 2 6 17
9 33 6 33 -4 48 -55 84 -40 28 -42 30 -90 70 -37 31 -55 37 -65 20z"/>
<path d="M6604 6288 c-39 -67 -94 -184 -94 -201 0 -7 -4 -17 -8 -22 -10 -12
-52 -136 -52 -154 0 -7 6 -11 13 -8 6 2 20 0 29 -4 13 -7 20 0 33 39 10 26 24
61 31 79 8 17 14 36 14 42 0 6 4 19 10 29 5 9 18 37 28 62 57 137 56 135 53
173 -2 32 -26 17 -57 -35z"/>
<path d="M6733 6309 c-31 -65 -73 -160 -94 -214 -13 -33 -27 -64 -31 -69 -4
-6 -8 -20 -8 -33 0 -13 -4 -23 -9 -23 -5 0 -9 -19 -9 -42 0 -24 -4 -77 -10
-118 -13 -87 -12 -88 96 -140 47 -23 76 -30 120 -30 62 1 151 33 121 45 -9 3
-22 5 -28 3 -7 -2 -20 7 -28 20 -15 21 -15 22 17 22 l33 0 -7 57 c-4 31 -10
61 -15 67 -5 6 -11 49 -14 96 -3 53 -2 76 4 60 6 -18 7 -12 3 20 -4 25 -10 50
-15 56 -5 6 -12 32 -15 58 -7 45 -18 59 -27 34 -2 -7 -3 10 -1 37 3 38 2 45
-6 30 -7 -15 -8 -8 -6 30 2 28 1 40 -1 27 -6 -31 -45 -26 -53 7 l-5 23 -12
-23z"/>
<path d="M6857 6305 c-17 -23 -17 -29 -1 -97 18 -84 83 -298 94 -313 4 -5 11
-25 15 -42 3 -18 11 -33 16 -33 5 0 9 -9 9 -19 0 -10 7 -21 15 -25 8 -3 15 -1
15 4 0 6 9 10 19 10 21 0 41 52 22 58 -6 2 -11 8 -11 14 0 5 -7 26 -16 46 -28
65 -46 106 -60 137 -7 17 -16 44 -20 60 -4 17 -10 35 -14 40 -4 6 -11 28 -15
50 -4 22 -10 45 -15 50 -4 6 -10 27 -14 48 -8 43 -15 45 -39 12z"/>
<path d="M14897 7213 c-17 -174 -19 -335 -7 -453 7 -69 15 -161 19 -205 l6
-80 33 -3 c20 -2 34 2 36 10 2 7 7 179 11 382 l6 369 -31 -6 c-26 -6 -33 -2
-49 23 l-18 30 -6 -67z"/>
<path d="M14665 7205 c-22 -14 -50 -30 -62 -37 -13 -6 -23 -15 -23 -20 0 -4
-4 -8 -9 -8 -13 0 -141 -128 -141 -141 0 -5 -4 -9 -9 -9 -10 0 -99 -138 -127
-196 -15 -33 -24 -41 -46 -42 -18 0 -28 5 -28 14 0 8 -7 14 -15 14 -30 0 -13
-27 75 -115 49 -49 90 -98 90 -108 0 -23 53 -75 116 -114 253 -158 323 -194
346 -182 23 13 26 81 3 73 -8 -4 -15 -12 -15 -20 0 -17 -17 -18 -23 -1 -2 6 8
23 24 37 l29 25 -14 100 c-8 55 -17 154 -21 220 -7 136 -21 228 -41 267 -8 14
-14 47 -14 72 0 34 -4 46 -15 46 -8 0 -15 -4 -15 -8 0 -4 -12 -15 -27 -24 -50
-29 -119 -101 -182 -188 -34 -47 -66 -91 -71 -97 -6 -7 -32 -13 -58 -13 -44 0
-45 1 -25 15 12 8 25 30 28 48 4 17 12 39 19 47 6 8 20 31 30 50 11 19 31 48
45 63 67 73 102 107 111 107 5 0 10 4 10 9 0 5 29 26 65 47 54 33 65 43 65 67
0 34 -21 35 -75 2z m10 -662 c-3 -20 -12 -33 -20 -33 -15 0 -18 9 -15 47 1 13
-7 26 -20 33 -23 12 -40 6 -40 -15 0 -9 -6 -12 -17 -8 -11 4 -12 8 -5 11 7 2
12 9 12 14 0 24 74 157 89 160 14 3 16 -11 19 -87 2 -49 0 -105 -3 -122z"/>
<path d="M15183 7220 c-15 -6 -23 -21 -28 -52 -4 -24 -13 -65 -20 -93 -7 -27
-18 -70 -25 -95 -6 -25 -13 -53 -17 -62 -4 -14 0 -18 18 -19 20 -1 19 -3 -8
-11 l-33 -11 -1 -81 c-1 -45 -3 -188 -5 -318 l-2 -238 25 0 c14 0 45 14 70 30
24 17 48 30 53 30 5 0 15 6 22 13 7 6 38 25 68 41 150 78 180 97 180 113 0 7
5 13 10 13 6 0 10 6 10 14 0 8 16 24 35 36 19 12 35 26 35 31 0 5 7 9 15 9 8
0 15 4 15 9 0 5 15 19 33 30 18 11 43 29 55 39 21 18 21 20 5 60 -9 23 -20 42
-25 42 -4 0 -8 6 -8 14 0 39 -248 316 -283 316 -5 0 -7 6 -4 13 2 6 10 11 16
10 20 -5 12 3 -44 42 -31 21 -58 35 -62 31 -3 -3 -1 -6 5 -6 17 0 15 -57 -3
-64 -17 -6 -38 53 -24 69 15 15 10 24 -21 40 -16 8 -30 15 -32 14 -2 0 -13 -4
-25 -9z"/>
<path d="M14256 6424 c-7 -25 -8 -26 -66 -19 -87 10 -77 -14 25 -67 28 -14 94
-49 148 -77 53 -28 104 -51 112 -51 8 0 15 -4 15 -10 0 -5 6 -10 13 -10 6 0
26 -7 42 -16 43 -23 87 -35 107 -28 26 8 26 89 1 98 -10 3 -25 10 -33 15 -47
32 -169 101 -178 101 -6 0 -12 3 -14 8 -6 14 -126 82 -146 82 -13 0 -22 -9
-26 -26z"/>
<path d="M15680 6407 c-41 -18 -76 -35 -78 -39 -2 -5 -10 -8 -19 -8 -8 0 -27
-6 -41 -14 -15 -8 -85 -42 -157 -77 -71 -34 -133 -67 -138 -73 -4 -6 -6 -29
-5 -51 3 -34 7 -41 27 -43 13 -2 28 1 34 7 6 6 20 11 30 11 10 0 31 6 45 14
15 7 56 23 92 34 92 29 130 43 168 58 18 8 42 14 53 14 12 0 35 7 52 16 18 9
39 20 47 24 23 11 23 64 1 115 -11 25 -24 45 -28 44 -4 0 -42 -15 -83 -32z"/>
<path d="M14922 6408 c-7 -7 -12 -19 -12 -27 0 -9 -7 -25 -15 -35 -22 -29 -18
-52 10 -81 79 -78 164 31 100 129 -19 28 -62 35 -83 14z"/>
<path d="M14728 6207 c-30 -27 -43 -84 -28 -121 10 -27 9 -27 -28 -21 -20 3
-30 2 -22 -1 8 -4 30 -13 47 -21 36 -17 77 -11 106 14 10 10 17 12 17 5 0 -22
29 -12 34 11 2 12 2 -6 -1 -40 -6 -73 9 -83 47 -33 23 30 70 42 70 19 0 -7 8
-18 17 -25 10 -7 15 -16 11 -20 -5 -4 -16 0 -27 10 -17 16 -21 16 -54 -1 -45
-22 -52 -38 -27 -63 16 -16 17 -20 4 -31 -18 -15 -18 -39 1 -39 8 0 15 9 15
20 0 17 7 20 41 20 23 0 38 -4 34 -10 -3 -5 -13 -6 -23 -3 -16 6 -16 6 0 -10
9 -9 28 -17 43 -17 l26 0 -20 26 c-20 25 -20 25 0 45 10 10 19 26 19 34 0 8 5
15 10 15 6 0 10 11 10 25 0 16 6 25 15 25 9 0 18 7 21 15 5 13 9 12 24 -5 41
-48 86 -31 109 41 13 40 2 79 -31 112 -32 32 -62 10 -96 -68 -9 -19 -9 -19
-16 3 -11 34 -65 92 -86 92 -10 0 -20 5 -22 12 -12 34 -131 -56 -141 -106 -2
-11 -5 0 -6 26 -1 35 -7 53 -23 68 -28 26 -39 25 -70 -3z"/>
<path d="M14130 6129 c0 -13 -7 -33 -15 -43 -17 -23 -20 -128 -5 -221 5 -33
14 -88 19 -122 5 -34 14 -77 19 -95 6 -18 18 -60 28 -93 19 -66 38 -115 60
-158 8 -16 14 -34 14 -41 0 -20 45 -57 61 -51 8 3 32 33 54 67 25 38 49 64 67
70 22 8 62 61 173 228 80 120 145 223 145 228 0 5 7 12 15 16 24 9 17 43 -14
65 -16 12 -33 21 -39 21 -10 0 -140 50 -199 76 -17 8 -38 14 -46 14 -9 0 -18
4 -22 9 -3 5 -20 13 -37 17 -18 3 -43 13 -55 22 -19 12 -28 12 -53 2 -17 -7
-43 -9 -62 -6 -97 20 -108 20 -108 -5z m332 -118 c-3 -23 0 -29 20 -34 36 -10
38 -9 38 19 0 16 5 24 13 22 15 -6 23 -138 7 -138 -5 0 -10 -5 -10 -11 0 -5
-9 -30 -21 -55 l-20 -46 -20 23 c-16 19 -19 38 -19 136 0 62 4 113 8 113 5 0
7 -13 4 -29z"/>
<path d="M15520 6063 c-14 -2 -43 -10 -65 -17 -22 -7 -67 -21 -100 -31 -33
-10 -74 -24 -92 -32 -17 -7 -40 -13 -51 -13 -25 0 -44 -23 -36 -44 5 -12 0
-16 -20 -16 -27 0 -32 -9 -17 -38 5 -9 13 -28 19 -42 38 -93 180 -390 192
-400 3 -3 11 -17 19 -32 8 -16 21 -28 28 -28 16 0 83 -64 83 -80 0 -5 4 -10 8
-10 4 0 26 -23 47 -52 54 -70 101 -119 108 -112 3 4 1 14 -6 25 -9 15 -7 22
10 41 26 28 52 88 46 106 -3 6 0 12 6 12 20 0 70 125 112 280 36 131 57 389
35 438 -7 18 -6 26 5 33 13 9 -136 4 -204 -6 -16 -3 -41 2 -57 10 -16 8 -33
14 -37 14 -4 -1 -19 -4 -33 -6z"/>
<path d="M14796 5848 c-36 -48 -41 -81 -20 -117 15 -26 25 -31 56 -31 31 0 40
5 53 30 20 38 19 74 -2 108 -34 52 -53 54 -87 10z"/>
<path d="M15052 5844 c-12 -8 -22 -25 -22 -36 0 -12 -7 -30 -17 -40 -15 -17
-15 -22 2 -76 10 -31 24 -71 32 -89 7 -17 13 -40 13 -50 0 -10 4 -23 8 -28 5
-6 21 -48 37 -95 15 -47 31 -89 36 -94 5 -6 9 -16 9 -24 0 -7 23 -60 50 -117
28 -57 50 -109 50 -114 0 -6 4 -11 9 -11 5 0 12 -13 16 -30 4 -16 10 -30 15
-30 4 0 11 -12 15 -27 3 -15 10 -30 13 -33 4 -3 17 -26 30 -51 23 -49 52 -81
52 -60 0 7 -52 119 -116 249 -129 264 -121 245 -164 362 -17 47 -38 100 -46
118 -8 18 -14 39 -14 47 0 9 -6 24 -12 35 -10 15 -10 22 0 32 9 9 12 9 12 0 0
-18 35 -14 53 6 41 45 44 110 6 151 -24 25 -37 26 -67 5z"/>
<path d="M14936 5713 c-3 -10 -15 -31 -26 -48 -11 -16 -25 -41 -30 -55 -6 -13
-15 -27 -19 -30 -4 -3 -47 -86 -96 -184 -80 -160 -89 -186 -91 -240 -2 -35
-16 -101 -33 -156 -35 -107 -40 -150 -16 -130 10 9 15 9 15 1 0 -6 6 -11 14
-11 8 0 36 -11 63 -24 158 -79 313 -93 496 -44 27 7 47 18 47 26 0 11 -15 12
-75 7 -73 -7 -75 -7 -103 22 -23 23 -38 29 -73 29 -24 0 -51 3 -60 7 -11 5
-19 0 -28 -16 -12 -22 -16 -23 -42 -14 -34 13 -36 27 -9 52 19 17 25 18 63 6
47 -15 235 -26 273 -17 24 7 34 39 14 51 -5 3 -10 16 -10 28 0 12 -7 36 -16
52 -8 17 -17 57 -19 90 -3 56 -7 73 -41 150 -26 62 -74 192 -74 203 0 6 -6 26
-14 44 -8 18 -22 52 -32 76 -16 39 -20 42 -46 37 -27 -6 -28 -5 -27 32 0 33 2
35 9 16 9 -22 30 -30 43 -17 8 9 -26 73 -39 74 -7 0 -14 -8 -18 -17z"/>
<path d="M14730 5686 c0 -8 -3 -16 -7 -18 -11 -5 -53 -66 -53 -77 0 -5 -3 -11
-7 -13 -9 -3 -53 -64 -53 -72 0 -2 -19 -37 -43 -78 -59 -100 -155 -299 -154
-320 0 -11 8 -18 19 -18 10 0 30 -8 44 -17 25 -16 27 -16 45 8 11 13 22 36 25
52 4 15 10 27 15 27 5 0 9 5 9 11 0 5 9 31 21 57 31 72 80 175 89 192 5 8 27
52 50 97 22 45 45 85 50 88 17 10 11 61 -8 78 -23 21 -42 22 -42 3z"/>
<path d="M15124 5643 c-17 -19 -23 -34 -19 -48 4 -11 10 -33 15 -50 10 -35 37
-111 49 -140 5 -11 16 -40 26 -65 9 -25 32 -76 50 -115 18 -38 41 -89 51 -112
10 -24 21 -43 25 -43 4 0 10 -13 14 -30 4 -16 10 -30 15 -30 5 0 11 -13 15
-30 4 -16 11 -30 16 -30 5 0 9 -6 9 -14 0 -7 7 -19 15 -26 13 -10 15 -9 15 12
0 14 14 38 35 58 19 19 35 37 35 41 0 12 -19 52 -40 84 -11 17 -25 41 -30 55
-6 13 -14 27 -18 30 -10 7 -114 211 -201 393 -23 48 -44 87 -47 87 -3 0 -16
-12 -30 -27z"/>
<path d="M6780 9401 c0 -5 -25 -12 -55 -16 -30 -3 -55 -10 -55 -14 0 -5 -22
-11 -50 -15 -27 -4 -50 -11 -50 -15 0 -5 -27 -12 -60 -16 -33 -4 -60 -11 -60
-15 0 -4 -20 -11 -45 -14 -25 -4 -45 -11 -45 -15 0 -5 -25 -11 -57 -14 -31 -3
-59 -10 -62 -16 -4 -5 -30 -13 -59 -17 -28 -3 -52 -10 -52 -14 0 -5 -13 -11
-30 -15 -16 -4 -30 -10 -30 -15 0 -5 -6 -10 -12 -13 -7 -2 0 -2 15 0 16 3 40
11 55 19 15 8 39 14 54 14 15 0 29 4 32 9 3 5 27 12 53 16 27 4 53 11 59 16 6
5 33 12 60 15 27 4 54 10 59 14 6 5 32 11 59 15 27 4 61 14 75 21 14 8 34 14
44 14 9 0 17 4 17 9 0 5 20 12 45 15 25 4 57 14 73 22 15 7 37 14 50 14 12 0
22 5 22 10 0 6 -11 10 -25 10 -14 0 -25 -4 -25 -9z"/>
</g>
</svg>
