<?xml version="1.0" standalone="no"?>
<!DOCTYPE svg PUBLIC "-//W3C//DTD SVG 20010904//EN"
 "http://www.w3.org/TR/2001/REC-SVG-20010904/DTD/svg10.dtd">
<svg version="1.0" xmlns="http://www.w3.org/2000/svg"
 width="2880.000000pt" height="1725.000000pt" viewBox="0 0 2880.000000 1725.000000"
 preserveAspectRatio="xMidYMid meet">
<metadata>
Created by potrace 1.16, written by Peter Selinger 2001-2019
</metadata>
<g transform="translate(0.000000,1725.000000) scale(0.100000,-0.100000)"
fill="#000000" stroke="none">
<path d="M11580 12157 c-3 -3 -124 -8 -269 -11 -146 -3 -267 -10 -270 -15 -4
-5 -52 -12 -108 -16 -57 -4 -103 -11 -103 -15 0 -5 -38 -11 -85 -15 -47 -4
-85 -11 -85 -16 0 -5 -9 -9 -21 -9 -12 0 -17 -4 -14 -11 4 -6 13 -8 21 -5 7 3
16 1 19 -4 4 -6 -9 -10 -28 -10 -19 0 -57 -6 -83 -14 -27 -8 -78 -22 -114 -31
-36 -9 -85 -22 -110 -29 -25 -8 -72 -21 -105 -31 -33 -10 -75 -24 -93 -31 -18
-8 -39 -14 -47 -14 -8 0 -29 -6 -47 -14 -18 -8 -71 -29 -118 -46 -136 -51
-175 -68 -345 -153 -153 -76 -238 -120 -245 -127 -12 -12 -129 -80 -138 -80
-6 0 -12 -3 -14 -7 -5 -11 -66 -53 -77 -53 -5 0 -11 -3 -13 -7 -3 -9 -64 -53
-73 -53 -3 0 -13 -7 -22 -15 -10 -9 -56 -43 -103 -77 -47 -33 -90 -66 -96 -74
-6 -8 -16 -14 -22 -14 -6 0 -12 -4 -14 -8 -1 -4 -29 -28 -60 -52 -32 -25 -58
-48 -58 -52 0 -5 -6 -8 -14 -8 -8 0 -16 -4 -18 -8 -1 -5 -41 -42 -88 -82 -47
-41 -104 -93 -127 -115 -57 -56 -90 -84 -148 -130 -27 -22 -52 -43 -55 -46 -9
-11 -94 -62 -159 -96 -97 -51 -191 -122 -191 -145 0 -16 53 -28 164 -38 119
-10 182 -25 190 -46 6 -16 -87 -33 -221 -40 -156 -8 -394 -49 -478 -82 -98
-38 -120 -75 -93 -152 9 -26 9 -35 0 -38 -7 -2 -12 -8 -12 -13 0 -6 -9 -30
-20 -53 -11 -24 -22 -63 -24 -87 -5 -40 -5 -41 3 -10 13 48 63 141 76 141 20
0 101 -93 110 -125 4 -16 9 -85 10 -152 l3 -123 -31 -30 c-27 -26 -38 -30 -89
-30 -32 0 -58 3 -58 8 0 4 -10 12 -22 17 -21 9 -23 18 -28 105 l-5 95 -7 -87
c-7 -88 3 -138 29 -138 6 0 13 -5 15 -12 6 -16 160 -17 166 0 5 16 40 16 39 0
0 -7 1 -31 1 -54 l2 -41 68 14 c106 23 200 26 267 9 33 -8 50 -15 37 -15 -12
-1 -30 -5 -40 -10 -9 -4 -37 -18 -62 -30 -79 -37 -148 -87 -225 -166 -57 -57
-152 -125 -176 -125 -9 0 -36 15 -60 32 -58 43 -89 59 -89 47 0 -14 40 -49 89
-79 22 -14 41 -28 41 -32 0 -12 -62 -72 -89 -86 -14 -7 -54 -16 -88 -19 -50
-5 -63 -9 -63 -23 0 -9 -7 -25 -15 -36 -8 -10 -15 -26 -15 -34 0 -8 -9 -33
-20 -55 -11 -22 -19 -46 -20 -53 0 -7 -4 -20 -9 -30 -5 -9 -17 -34 -26 -56
-12 -28 -20 -35 -28 -27 -16 16 -70 14 -93 -4 -10 -8 -25 -15 -33 -15 -8 0
-22 -6 -30 -13 -9 -7 -36 -20 -60 -27 l-44 -14 6 -175 c4 -96 11 -177 16 -180
5 -4 13 -54 17 -114 3 -59 10 -107 14 -107 4 0 10 -32 14 -72 4 -40 10 -75 15
-78 4 -3 11 -22 15 -42 4 -21 11 -38 16 -38 4 0 11 -13 15 -30 4 -16 11 -30
16 -30 5 0 9 -7 9 -15 0 -9 6 -18 14 -21 8 -3 17 -16 20 -30 4 -13 11 -24 16
-24 6 0 10 -7 10 -15 0 -9 7 -18 15 -21 8 -3 17 -15 20 -25 4 -11 39 -52 78
-91 l72 -71 3 -73 c3 -41 8 -74 12 -74 4 0 10 -39 14 -87 3 -48 10 -90 15 -93
5 -3 12 -31 16 -62 4 -32 11 -58 15 -58 4 0 11 -20 14 -45 4 -25 11 -45 15
-45 5 0 12 -20 15 -45 4 -25 11 -45 16 -45 6 0 13 -18 16 -40 4 -22 11 -40 17
-40 6 0 8 -3 4 -6 -5 -6 -41 -12 -207 -35 -41 -6 -79 -14 -85 -19 -5 -4 -34
-11 -62 -15 -29 -4 -53 -11 -53 -16 0 -5 -7 -9 -15 -9 -8 0 -30 -8 -49 -17
-39 -20 -43 -47 -12 -79 20 -19 19 -19 -55 -30 -41 -5 -81 -13 -89 -16 -8 -3
-46 -10 -85 -16 -94 -14 -165 -30 -179 -41 -6 -4 -27 -14 -47 -20 -21 -7 -39
-20 -42 -31 -6 -23 37 -65 76 -74 16 -4 39 -18 51 -31 12 -13 34 -27 49 -30
15 -4 27 -11 27 -16 0 -5 8 -9 18 -9 9 0 30 -7 45 -15 15 -8 43 -17 63 -21 19
-3 36 -10 39 -14 3 -5 23 -11 45 -15 22 -4 42 -11 45 -15 3 -5 27 -12 53 -16
26 -4 50 -11 53 -16 3 -5 30 -11 60 -15 30 -3 57 -10 60 -15 3 -5 32 -12 65
-15 32 -3 64 -10 70 -14 6 -5 39 -12 73 -15 33 -4 61 -10 61 -14 0 -5 28 -11
63 -15 34 -4 67 -11 73 -16 6 -5 40 -12 75 -15 35 -4 69 -11 75 -15 6 -5 39
-12 73 -15 33 -4 61 -10 61 -14 0 -4 29 -11 65 -15 36 -3 67 -10 70 -14 2 -5
36 -11 75 -15 38 -4 72 -11 75 -17 4 -5 21 -9 38 -9 52 0 76 -10 79 -34 2 -17
13 -23 53 -29 28 -5 58 -13 68 -18 9 -5 58 -12 107 -16 50 -3 90 -9 90 -13 0
-4 68 -10 151 -13 83 -4 156 -11 163 -16 6 -5 46 -13 89 -17 42 -4 77 -10 77
-14 0 -4 29 -11 65 -15 36 -3 67 -10 70 -15 3 -4 41 -11 85 -15 44 -4 80 -10
80 -15 0 -4 28 -10 61 -14 34 -3 67 -10 73 -15 6 -5 46 -12 89 -16 42 -4 77
-10 77 -15 0 -4 33 -11 72 -15 40 -3 75 -10 78 -15 3 -5 37 -12 75 -15 39 -4
72 -11 75 -15 3 -4 38 -11 78 -15 39 -4 72 -11 72 -15 0 -4 36 -11 80 -15 44
-4 82 -11 85 -15 3 -4 36 -11 75 -15 39 -4 72 -11 75 -15 3 -4 35 -11 72 -15
36 -4 74 -11 82 -15 9 -5 33 -12 54 -15 23 -4 37 -11 37 -20 0 -8 7 -15 15
-15 8 0 15 -4 15 -9 0 -6 21 -13 48 -17 26 -3 52 -11 59 -16 6 -5 47 -12 90
-15 43 -3 83 -9 88 -14 6 -4 80 -11 165 -15 85 -4 160 -10 165 -14 6 -4 52
-10 104 -14 52 -3 99 -10 105 -15 6 -5 45 -13 86 -17 41 -4 77 -11 80 -15 3
-5 38 -11 78 -15 40 -4 72 -10 72 -15 0 -4 34 -10 75 -14 41 -4 75 -11 75 -15
0 -4 36 -11 80 -14 44 -4 82 -11 85 -16 3 -5 41 -12 85 -16 44 -3 80 -10 80
-14 0 -5 35 -11 78 -15 42 -4 82 -11 87 -15 6 -4 39 -11 75 -16 l65 -8 -50 -7
c-27 -4 -120 -10 -205 -14 -190 -8 -345 -32 -329 -52 9 -9 8 -13 0 -13 -26 0
1 -18 36 -25 21 -4 43 -10 48 -15 14 -10 102 -23 149 -21 22 1 43 -3 47 -10 4
-8 81 -13 245 -16 155 -4 244 -9 253 -17 11 -8 15 -8 18 2 5 14 59 16 68 2 8
-13 152 -13 160 -1 7 13 88 10 97 -3 5 -8 8 -7 8 1 0 14 415 18 424 4 3 -5 36
-12 73 -16 38 -4 73 -11 79 -16 6 -5 44 -12 85 -15 41 -4 76 -10 79 -14 3 -5
38 -12 78 -15 39 -4 72 -11 72 -15 0 -4 36 -11 80 -14 44 -4 82 -11 85 -15 2
-5 34 -12 70 -16 36 -3 65 -10 65 -14 0 -5 34 -11 75 -14 41 -4 83 -11 92 -16
10 -6 47 -14 83 -20 104 -15 223 -39 253 -50 16 -6 40 -11 55 -11 15 0 45 -7
67 -15 22 -8 59 -14 82 -15 23 0 44 -4 48 -9 3 -5 31 -13 63 -17 31 -3 62 -10
68 -15 6 -5 37 -11 70 -15 32 -4 64 -10 69 -15 6 -4 35 -11 65 -15 30 -4 60
-10 65 -15 6 -4 35 -11 65 -14 30 -4 64 -10 75 -15 11 -5 72 -18 135 -29 63
-12 131 -26 150 -31 19 -5 62 -12 95 -16 33 -4 65 -10 70 -15 6 -4 42 -11 80
-15 39 -4 75 -11 81 -15 6 -5 47 -14 90 -19 73 -9 113 -15 344 -54 47 -7 88
-12 92 -10 4 3 9 0 12 -5 3 -5 45 -12 94 -16 48 -3 107 -10 132 -16 25 -5 88
-13 140 -19 52 -5 113 -12 134 -15 21 -3 93 -10 160 -15 67 -5 195 -16 286
-24 353 -32 407 -36 480 -36 41 0 90 -4 108 -9 18 -6 135 -13 260 -16 125 -4
241 -9 257 -11 123 -19 1203 -28 1455 -13 69 4 226 13 350 19 124 6 232 14
240 18 8 4 47 9 85 11 39 1 113 7 165 13 52 5 120 12 150 14 30 3 98 10 150
15 52 5 142 14 200 19 58 5 132 13 165 19 33 6 101 13 150 16 50 3 117 10 150
15 33 5 97 12 142 15 45 3 94 9 108 15 14 5 74 10 133 11 59 0 134 5 167 10
33 5 103 14 155 20 52 5 104 14 115 19 11 5 54 11 95 14 41 3 95 10 120 16 53
11 143 26 255 41 44 6 85 14 90 19 6 4 43 11 84 14 40 4 81 11 90 16 9 5 48
14 86 20 147 22 190 30 205 37 8 4 40 12 70 19 30 7 84 20 120 29 36 9 81 20
100 24 37 8 80 31 80 43 0 3 25 12 55 19 31 7 58 16 61 21 3 4 17 8 32 8 15 0
39 6 53 14 14 7 43 16 65 20 21 5 44 11 49 16 6 4 27 10 48 14 20 4 37 11 37
15 0 5 20 12 45 15 25 4 45 11 45 16 0 5 15 12 33 15 17 4 37 11 42 15 6 4 24
11 42 15 93 19 233 127 233 178 0 13 -7 30 -15 37 -8 7 -15 20 -15 30 0 30
-57 66 -120 76 -22 4 -43 11 -46 15 -3 5 -14 9 -25 9 -16 0 -17 3 -8 19 10 15
8 23 -7 44 -18 24 -99 67 -127 67 -6 0 -22 11 -35 25 -13 13 -40 27 -60 31
-20 4 -41 10 -47 14 -5 5 -32 11 -60 15 -27 4 -54 11 -60 15 -5 4 -29 11 -52
15 -24 4 -45 11 -48 15 -3 5 -30 12 -60 15 -31 4 -58 11 -60 15 -3 5 -30 12
-60 15 -30 4 -55 11 -55 15 0 5 -25 12 -55 15 -30 4 -58 11 -60 15 -3 5 -30
12 -60 15 -31 4 -58 11 -60 16 -3 4 -33 11 -66 15 -32 4 -62 10 -64 15 -3 4
-31 10 -63 14 -31 3 -66 10 -77 15 -11 5 -49 14 -85 19 -148 23 -204 34 -191
39 8 3 24 15 36 28 12 13 26 24 32 24 5 0 20 13 33 30 14 16 30 29 37 30 6 0
31 20 55 44 l44 44 107 7 c59 4 107 11 107 15 0 4 45 11 100 15 55 3 100 10
100 15 0 4 29 11 65 15 36 3 65 10 65 15 0 5 14 11 30 15 17 4 30 10 30 15 0
5 29 12 65 15 36 4 68 11 70 16 3 4 41 11 85 15 44 3 80 10 80 14 0 4 32 10
71 12 38 2 73 9 77 15 4 6 31 14 60 18 28 4 52 10 52 15 0 4 16 11 35 14 19 4
35 11 35 16 0 4 14 11 30 15 17 4 30 10 30 15 0 4 12 11 27 15 15 3 37 17 48
30 12 12 31 26 42 29 25 8 33 34 32 101 -1 28 -3 42 -6 31 -8 -29 -61 -76 -87
-76 -17 0 -28 10 -40 34 -9 19 -16 38 -16 44 0 21 -52 122 -77 150 -7 7 -13
19 -13 26 0 8 -7 19 -15 26 -17 14 -20 30 -6 30 5 0 23 -12 40 -26 41 -34 58
-22 31 22 -24 42 -25 54 -5 54 9 0 15 -9 15 -25 0 -14 5 -25 11 -25 7 0 20
-10 30 -22 15 -16 19 -18 19 -5 0 8 -7 23 -16 32 -11 10 -17 35 -18 70 -1 42
-5 55 -16 55 -13 0 -13 2 -1 9 8 5 11 16 8 25 -4 10 2 25 15 38 14 14 18 23
10 26 -17 5 -15 22 5 45 17 18 17 19 0 29 -17 9 -16 11 7 33 19 17 22 25 11
28 -14 6 -9 47 6 47 14 0 11 28 -3 34 -9 3 -8 8 5 16 9 6 17 17 17 25 0 7 6
16 13 18 7 3 5 6 -5 6 -22 1 -24 19 -4 27 9 3 17 27 22 60 3 30 10 54 15 54 4
0 11 23 15 50 4 28 10 50 15 50 4 0 11 25 14 55 4 30 11 55 16 55 5 0 9 14 9
30 0 17 -4 30 -10 30 -5 0 -12 11 -16 25 -8 31 -24 33 -24 2 0 -12 -9 -27 -19
-32 -86 -44 -131 -70 -131 -77 0 -4 -7 -8 -16 -8 -14 0 -16 8 -10 52 4 29 11
57 15 63 5 5 12 21 16 35 3 14 -12 -4 -34 -40 -53 -84 -143 -167 -218 -200
-13 -5 -23 -14 -23 -20 0 -5 -7 -10 -15 -10 -8 0 -15 -4 -15 -8 0 -4 -23 -25
-51 -46 -29 -21 -48 -32 -44 -25 5 8 32 50 61 94 69 106 85 147 91 225 2 36 9
76 14 91 5 14 14 56 19 95 5 38 14 96 19 129 5 33 10 114 10 181 l1 120 -30
22 c-22 16 -30 31 -30 52 0 17 5 30 10 30 6 0 10 11 10 25 0 14 -4 25 -9 25
-5 0 -11 23 -15 50 -4 28 -10 50 -15 50 -5 0 -11 18 -15 40 -7 45 -26 54 -26
13 -1 -27 -1 -26 -19 10 -9 20 -21 34 -25 30 -4 -4 -12 -1 -17 7 -14 20 -2
-25 17 -64 8 -16 14 -35 14 -43 0 -18 30 -63 42 -63 12 0 38 -26 38 -38 0 -6
-6 -12 -12 -15 -10 -3 -10 -11 0 -39 9 -26 10 -43 2 -62 -5 -15 -10 -37 -10
-49 0 -33 -20 -98 -28 -93 -4 2 -6 -14 -4 -36 5 -43 -32 -214 -55 -260 -7 -16
-18 -28 -23 -28 -6 0 -10 -5 -10 -11 0 -18 -152 -162 -190 -181 -113 -54 -220
-87 -375 -115 -125 -22 -184 -26 -200 -13 -16 13 -33 76 -45 170 -5 36 -14 79
-19 95 l-9 30 -1 -40 c-1 -61 -21 -29 -31 51 -22 166 -86 394 -111 394 -4 0
-9 12 -12 28 l-5 27 17 -25 c9 -13 24 -33 34 -42 9 -10 17 -22 17 -27 0 -5 6
-13 13 -19 6 -6 27 -41 45 -79 19 -37 38 -76 43 -85 5 -10 13 -34 18 -55 6
-21 15 -58 22 -83 53 -212 55 -214 111 -205 35 6 66 22 173 88 43 26 112 83
161 132 86 86 134 187 180 377 26 103 27 108 50 102 32 -8 31 10 -2 33 -59 41
-94 76 -94 94 0 10 -4 19 -9 19 -5 0 -12 14 -16 30 -4 17 -11 30 -16 30 -5 0
-9 8 -10 18 0 13 -2 12 -9 -5 -5 -13 -13 -23 -17 -23 -13 1 -73 88 -73 105 0
8 13 41 30 71 32 60 49 161 33 202 -5 13 -4 52 1 94 l10 71 -34 29 c-19 16
-46 35 -60 42 -14 7 -56 30 -95 51 -38 21 -97 52 -130 70 -86 46 -149 82 -233
132 -41 24 -78 43 -83 43 -5 0 -9 5 -9 10 0 6 -10 15 -22 20 -24 10 -59 31
-68 40 -10 10 -69 50 -74 50 -3 0 -45 24 -93 53 -48 29 -110 64 -138 78 -27
13 -52 27 -55 30 -3 4 -16 10 -30 14 -13 4 -30 14 -38 21 -7 8 -22 14 -33 14
-10 0 -19 4 -19 9 0 5 -12 12 -26 15 -15 4 -32 12 -40 19 -33 30 -42 34 -77
41 -20 4 -37 11 -37 16 0 4 -13 11 -30 15 -16 4 -30 10 -30 15 0 5 -20 12 -45
16 -25 3 -45 10 -45 15 0 4 -16 11 -35 15 -19 3 -35 10 -35 14 0 4 -18 10 -40
14 -22 3 -40 10 -40 16 0 5 -20 12 -45 16 -25 3 -45 10 -45 15 0 4 -20 11 -45
15 -25 3 -45 10 -45 15 0 4 -21 11 -47 15 -27 4 -51 11 -54 16 -3 5 -25 12
-48 15 -22 3 -41 9 -41 13 0 5 -24 11 -52 15 -29 4 -56 13 -60 19 -6 8 -8 7
-8 -1 0 -9 -17 -13 -51 -13 -29 0 -48 -4 -44 -10 3 -5 54 -32 113 -60 59 -28
120 -58 135 -66 16 -8 33 -14 38 -14 9 0 121 -49 172 -75 16 -8 33 -15 38 -15
5 0 44 -16 86 -36 43 -19 87 -39 98 -44 319 -137 595 -296 595 -343 0 -12 -87
-2 -150 17 -25 8 -70 21 -100 30 -30 8 -80 22 -110 31 -186 53 -304 84 -450
120 -30 7 -84 21 -120 30 -209 53 -305 75 -665 150 -38 8 -92 20 -120 26 -27
6 -63 12 -80 15 -16 2 -66 11 -110 20 -237 45 -505 91 -705 119 -63 9 -146 23
-184 31 -38 8 -84 14 -103 14 -19 0 -71 7 -116 14 -78 14 -167 27 -432 61 -66
9 -149 20 -185 25 -36 5 -90 12 -120 15 -30 4 -98 13 -150 20 -52 8 -118 17
-145 19 -28 3 -57 7 -66 11 -8 3 -53 10 -99 14 -86 9 -163 20 -321 47 -48 8
-102 14 -120 14 -19 0 -72 6 -119 14 -47 8 -139 22 -205 31 -151 20 -297 40
-445 60 -63 8 -138 15 -166 15 -38 0 -51 4 -51 15 0 13 94 15 786 15 536 0
800 4 831 11 30 8 300 13 793 16 429 3 747 9 747 14 0 5 -11 11 -25 15 -14 3
-25 10 -25 14 0 5 -13 11 -30 15 -16 4 -30 10 -30 15 0 4 -18 10 -40 14 -22 3
-40 10 -40 15 0 5 -13 12 -30 16 -16 4 -30 10 -30 15 0 5 -13 11 -30 15 -16 4
-30 10 -30 15 0 5 -13 11 -30 15 -16 4 -30 10 -30 15 0 5 -13 11 -29 15 -16 3
-32 13 -35 21 -3 8 -12 14 -21 14 -8 0 -15 4 -15 9 0 5 -13 12 -30 16 -16 4
-30 10 -30 15 0 5 -13 11 -30 15 -16 4 -30 10 -30 15 0 5 -13 11 -30 15 -16 4
-30 10 -30 15 0 4 -11 11 -25 14 -14 4 -25 10 -25 15 0 5 -13 12 -30 16 -16 4
-30 10 -30 15 0 5 -13 11 -30 15 -16 4 -30 10 -30 15 0 5 -13 11 -29 15 -16 3
-32 13 -35 21 -3 8 -12 14 -21 14 -8 0 -15 4 -15 9 0 5 -13 12 -30 16 -16 4
-30 10 -30 15 0 5 -13 11 -30 15 -16 4 -30 11 -30 16 0 5 -11 11 -25 15 -14 3
-25 10 -25 14 0 5 -13 11 -30 15 -16 4 -30 10 -30 15 0 5 -13 11 -30 15 -16 4
-30 10 -30 15 0 5 -13 11 -29 15 -16 3 -32 13 -35 21 -3 8 -12 14 -21 14 -8 0
-15 4 -15 9 0 5 -13 12 -30 16 -16 4 -30 10 -30 15 0 5 -13 11 -30 15 -16 4
-30 10 -30 15 0 5 -13 11 -30 15 -16 4 -30 11 -30 16 0 5 -11 11 -25 15 -14 3
-25 10 -25 14 0 5 -13 11 -30 15 -16 4 -30 10 -30 15 0 5 -13 11 -30 15 -16 4
-30 10 -30 15 0 5 -13 11 -30 15 -16 4 -30 10 -30 15 0 5 -13 11 -30 15 -16 4
-30 10 -30 15 0 5 -13 11 -30 15 -16 4 -30 10 -30 15 0 5 -13 11 -30 15 -16 4
-30 10 -30 15 0 5 -13 11 -30 15 -16 4 -30 10 -30 15 0 5 -13 11 -30 15 -16 4
-30 10 -30 15 0 5 -13 11 -30 15 -16 4 -30 10 -30 15 0 5 -13 11 -30 15 -16 4
-30 10 -30 15 0 5 -13 11 -30 15 -16 4 -30 10 -30 15 0 4 -16 11 -35 14 -19 4
-35 11 -35 16 0 4 -13 11 -30 15 -16 4 -30 11 -30 16 0 5 -18 12 -40 15 -22 4
-40 10 -40 14 0 5 -13 11 -30 15 -16 4 -30 10 -30 15 0 4 -16 11 -35 14 -19 4
-35 11 -35 16 0 6 -18 13 -40 16 -22 4 -40 10 -40 15 0 4 -16 11 -35 15 -19 3
-35 10 -35 15 0 5 -18 12 -40 15 -22 4 -40 10 -40 15 0 4 -16 11 -35 15 -19 3
-35 10 -35 14 0 4 -18 10 -40 14 -22 3 -40 10 -40 16 0 5 -20 12 -45 16 -25 3
-45 10 -45 15 0 4 -20 11 -45 15 -25 3 -45 10 -45 15 0 4 -20 11 -45 15 -25 3
-45 10 -45 14 0 4 -22 10 -50 14 -27 4 -50 11 -50 16 0 5 -25 12 -55 15 -30 4
-55 11 -55 15 0 4 -27 11 -60 15 -33 4 -60 11 -60 15 0 4 -27 11 -60 15 -33 4
-60 11 -60 15 0 5 -36 12 -80 16 -44 3 -80 10 -80 14 0 4 -37 11 -82 15 -46 4
-85 11 -88 16 -3 4 -59 11 -125 15 -66 4 -122 10 -125 14 -5 7 -103 14 -157
11 -42 -2 -24 -21 20 -21 24 0 48 -5 54 -11 6 -6 51 -14 99 -19 49 -4 121 -16
159 -25 39 -10 82 -17 97 -16 15 1 29 -3 33 -9 3 -5 24 -10 46 -10 22 0 49 -5
60 -11 11 -5 48 -15 82 -20 90 -14 147 -32 147 -46 0 -7 10 -13 22 -13 24 0
118 -26 165 -46 17 -8 41 -14 53 -14 11 0 19 -4 16 -9 -4 -5 -20 -6 -39 -1
-17 5 -68 16 -112 25 -44 9 -103 23 -131 31 -28 8 -65 14 -82 14 -18 0 -32 5
-32 10 0 6 -9 10 -21 10 -11 0 -17 5 -14 10 4 6 -5 10 -19 10 -14 0 -45 4 -68
10 -24 5 -104 16 -178 25 -74 9 -173 22 -220 30 -130 21 -467 64 -700 90 -80
9 -179 20 -220 26 -41 5 -158 14 -260 20 -102 6 -199 14 -216 20 -36 11 -106
12 -119 2 -6 -5 -93 -6 -195 -3 -107 3 -154 7 -110 9 l75 4 -120 14 c-137 16
-1341 19 -1710 4 -115 -5 -255 -5 -310 0 -119 10 -938 24 -945 16z m280 -246
c355 -17 688 -67 885 -133 17 -6 46 -14 65 -18 37 -8 84 -24 135 -46 17 -7 50
-20 75 -29 68 -26 230 -105 277 -136 22 -15 51 -30 62 -34 12 -3 21 -10 21
-15 0 -4 8 -11 18 -14 9 -3 26 -12 37 -19 11 -7 44 -28 73 -46 28 -18 52 -36
52 -41 0 -4 10 -10 23 -14 12 -3 34 -17 49 -31 15 -14 32 -25 38 -25 5 0 10
-3 10 -7 0 -5 20 -21 45 -36 25 -16 45 -32 45 -35 0 -4 17 -18 37 -32 38 -25
73 -53 103 -80 9 -8 38 -33 65 -55 56 -44 50 -40 136 -115 134 -119 242 -222
439 -419 200 -201 390 -398 390 -406 0 -2 21 -26 48 -53 26 -26 70 -76 97
-110 28 -34 53 -62 58 -62 4 0 7 -7 7 -15 0 -8 4 -15 8 -15 10 0 82 -96 82
-110 0 -5 4 -10 10 -10 9 0 60 -80 60 -94 0 -7 -21 -5 -205 20 -260 36 -322
44 -360 48 -61 6 -201 26 -288 42 -42 8 -96 14 -120 14 -23 1 -69 7 -102 15
-33 8 -79 15 -102 15 -35 0 -119 14 -210 35 -12 3 -25 18 -32 36 -21 61 -21
62 87 55 53 -4 138 -13 187 -21 50 -8 144 -21 210 -30 66 -9 145 -20 175 -25
30 -5 98 -14 151 -20 53 -5 102 -12 110 -15 8 -2 55 -9 104 -14 50 -6 122 -17
160 -25 39 -8 72 -13 73 -11 6 5 -41 65 -50 65 -4 0 -8 5 -8 10 0 6 -10 21
-22 33 -13 12 -47 51 -77 87 -30 36 -67 77 -83 92 -15 15 -28 29 -28 31 0 8
-200 217 -360 377 -206 206 -416 403 -510 478 -25 20 -57 49 -72 64 -15 15
-32 28 -37 28 -6 0 -11 4 -11 8 0 5 -27 28 -60 52 -33 24 -60 47 -60 52 0 4
-4 8 -10 8 -12 0 -104 69 -108 81 -2 5 -9 9 -17 9 -7 0 -18 6 -24 14 -13 15
-248 174 -291 196 -14 7 -27 16 -30 19 -3 4 -77 42 -165 85 -88 43 -173 84
-188 92 -16 8 -36 14 -46 14 -9 0 -26 7 -37 15 -10 8 -27 15 -37 15 -11 0 -33
6 -50 14 -45 19 -184 54 -322 82 -81 16 -94 18 -240 38 -420 57 -1093 44
-1498 -30 -42 -8 -87 -14 -100 -14 -20 0 -76 -11 -207 -42 -25 -6 -63 -14 -85
-19 -44 -9 -134 -31 -205 -50 -59 -16 -326 -103 -365 -119 -16 -7 -39 -16 -50
-21 -11 -4 -49 -20 -85 -35 -80 -32 -284 -133 -365 -180 -33 -19 -68 -37 -77
-41 -10 -3 -18 -9 -18 -13 0 -4 -10 -12 -22 -19 -13 -6 -36 -20 -53 -31 -16
-11 -40 -25 -52 -31 -13 -7 -23 -16 -23 -21 0 -4 -6 -8 -14 -8 -8 0 -16 -3
-18 -7 -3 -9 -64 -53 -72 -53 -2 0 -15 -9 -28 -20 -12 -11 -72 -58 -133 -106
-124 -98 -134 -107 -251 -222 -46 -46 -84 -87 -84 -92 0 -6 -4 -10 -10 -10 -5
0 -16 -13 -25 -30 -13 -26 -21 -30 -56 -30 -37 0 -39 1 -29 21 18 32 302 309
318 309 5 0 22 15 39 33 17 17 54 50 83 72 29 22 58 45 64 50 26 23 76 55 86
55 5 0 10 4 10 8 0 11 153 112 168 112 7 0 12 3 12 8 0 12 77 55 310 173 144
73 243 119 258 119 6 0 23 6 39 14 60 29 141 60 198 76 39 11 91 29 133 46 18
8 40 14 48 14 9 0 37 7 63 14 126 40 192 56 491 117 25 5 65 11 90 14 25 4 86
12 135 20 292 44 688 62 1035 46z m-2955 -1335 c143 -8 316 -15 385 -15 69 -1
175 -8 235 -16 61 -7 146 -16 190 -20 143 -11 437 -43 605 -67 124 -17 279
-37 380 -48 52 -6 108 -15 124 -20 16 -6 55 -10 86 -10 31 0 70 -4 86 -10 16
-5 67 -14 114 -20 101 -11 204 -26 320 -46 47 -8 110 -14 140 -15 30 0 75 -4
100 -10 45 -9 196 -32 340 -49 41 -6 84 -12 95 -15 26 -8 187 -33 290 -46 44
-5 93 -14 109 -19 16 -6 44 -10 62 -10 25 0 42 -9 68 -34 77 -78 162 -98 471
-115 170 -9 225 -21 259 -52 l21 -20 -55 6 c-65 7 -226 32 -290 45 -25 5 -76
12 -115 16 -38 4 -73 11 -77 17 -4 7 -12 6 -22 -2 -9 -8 -16 -9 -16 -3 0 6
-35 13 -77 17 -43 3 -109 12 -148 20 -38 7 -124 21 -190 30 -66 9 -147 21
-180 27 -33 6 -76 12 -95 14 -19 2 -79 11 -132 19 -155 24 -284 43 -403 60
-60 9 -150 22 -200 30 -180 28 -241 37 -310 45 -38 4 -104 13 -145 20 -156 24
-265 39 -610 85 -58 8 -154 21 -215 30 -60 8 -123 15 -140 15 -16 0 -77 6
-135 15 -123 17 -400 42 -550 50 -58 3 -150 10 -205 15 -55 5 -178 11 -272 14
-95 3 -265 9 -378 13 -113 3 -205 9 -205 13 0 4 8 16 18 28 16 18 32 22 108
25 202 7 312 6 559 -7z m7935 -646 c62 -8 102 -15 255 -45 147 -28 347 -70
430 -90 33 -7 94 -21 135 -30 126 -28 343 -83 475 -120 236 -67 319 -91 440
-131 44 -14 94 -30 110 -34 17 -5 75 -25 130 -45 55 -20 112 -40 126 -44 14
-5 34 -13 45 -19 10 -6 42 -20 69 -31 l50 -21 -40 6 c-22 4 -44 10 -50 14 -5
4 -30 11 -55 15 -25 4 -49 11 -55 15 -5 4 -26 11 -45 15 -19 3 -53 12 -75 20
-22 7 -65 20 -95 28 -30 9 -99 30 -153 47 -54 16 -106 30 -115 30 -10 0 -22 4
-28 9 -5 5 -29 14 -54 19 -80 19 -135 34 -155 42 -11 5 -42 14 -70 20 -120 28
-151 35 -160 41 -5 4 -30 10 -55 14 -25 4 -49 11 -55 15 -5 5 -36 11 -68 15
-31 4 -60 11 -62 15 -3 5 -30 12 -60 15 -30 4 -55 11 -55 16 0 4 -27 11 -60
15 -33 4 -63 10 -65 15 -3 4 -31 11 -63 15 -31 3 -61 10 -67 14 -5 4 -35 11
-65 15 -30 4 -60 11 -65 16 -11 8 -123 34 -215 49 -97 16 -185 35 -195 42 -5
3 -36 9 -67 13 -34 4 -55 11 -52 17 4 6 23 7 48 3 22 -4 70 -11 106 -15z
m-7935 -145 c117 -21 196 -40 228 -53 16 -7 35 -12 43 -12 8 0 14 -6 14 -14 0
-8 22 -32 50 -53 27 -21 49 -41 50 -45 1 -18 -41 -6 -70 21 -37 33 -94 43
-257 45 -56 1 -105 5 -108 8 -4 4 -13 4 -19 2 -19 -7 -46 40 -46 81 0 41 0 41
115 20z m-100 -258 c11 0 22 -4 25 -7 3 -4 61 -10 128 -14 68 -3 132 -10 141
-15 9 -5 23 -9 31 -8 31 3 205 -16 215 -23 6 -4 57 -10 115 -14 58 -4 125 -11
150 -16 25 -5 77 -11 115 -14 39 -2 93 -9 120 -15 28 -6 77 -12 110 -15 33 -3
83 -9 110 -15 28 -5 111 -17 185 -26 74 -9 158 -23 187 -31 28 -8 75 -14 105
-15 29 0 76 -5 103 -10 28 -6 73 -13 100 -17 l50 -7 3 -83 3 -83 -33 6 c-18 3
-80 10 -138 15 -58 5 -150 14 -205 20 -55 6 -159 17 -230 25 -72 8 -155 15
-185 15 -30 0 -86 5 -125 11 -38 5 -146 14 -240 19 -93 5 -249 14 -345 21
-331 21 -706 0 -758 -43 -16 -14 -32 5 -32 39 0 12 -4 24 -9 27 -5 3 -12 35
-16 71 -3 36 -11 67 -16 70 -5 4 -9 33 -9 65 0 49 3 58 15 54 8 -4 15 -1 15 4
0 13 94 19 210 14 47 -2 94 -4 105 -5z m-371 -99 c4 -35 11 -67 15 -73 5 -5
11 -35 15 -65 4 -30 11 -59 16 -65 15 -19 15 -74 0 -92 -9 -10 -22 -33 -29
-51 l-14 -34 -31 38 c-17 21 -48 56 -68 77 -37 38 -47 54 -29 43 5 -4 8 27 8
71 -2 53 2 78 11 80 6 3 12 16 12 31 0 24 62 102 81 102 3 0 10 -28 13 -62z
m2810 43 c3 -5 39 -12 78 -16 40 -4 78 -11 83 -15 6 -4 35 -11 65 -15 30 -4
63 -14 73 -23 9 -8 20 -12 24 -9 3 4 12 -2 20 -13 8 -11 18 -20 23 -20 11 0
127 -77 135 -90 13 -21 -45 -9 -70 15 -42 38 -78 45 -271 47 -100 2 -180 7
-177 11 2 4 -6 17 -19 28 l-23 21 23 -5 c12 -3 20 -1 16 4 -3 5 9 9 25 9 50 0
35 18 -17 22 -45 3 -48 1 -50 -21 -1 -13 3 -30 9 -37 12 -15 1 -18 -17 -6 -15
9 -37 90 -30 108 6 16 91 20 100 5z m-234 -243 c30 -6 82 -14 115 -18 108 -13
219 -31 250 -40 17 -5 68 -14 115 -20 47 -5 103 -14 125 -20 22 -5 59 -10 83
-10 24 0 52 -5 63 -11 11 -5 52 -13 92 -16 40 -3 74 -9 77 -13 3 -5 36 -11 74
-14 38 -4 76 -11 85 -15 17 -9 64 -18 141 -26 25 -3 65 -9 90 -15 25 -5 62 -9
82 -10 20 0 38 -4 40 -9 2 -5 39 -14 83 -20 44 -6 100 -15 125 -20 25 -6 69
-10 98 -11 28 0 52 -4 52 -9 0 -4 39 -11 86 -15 47 -4 97 -11 110 -16 13 -5
61 -13 107 -16 45 -4 85 -11 88 -16 3 -5 41 -13 85 -18 43 -5 99 -14 124 -19
25 -5 64 -11 86 -13 21 -2 44 -7 50 -10 5 -4 50 -10 99 -14 50 -4 93 -11 96
-16 3 -5 34 -11 70 -14 78 -6 149 -25 149 -39 0 -5 3 -20 6 -32 6 -20 3 -23
-24 -23 -17 0 -33 4 -37 9 -3 5 -46 13 -95 17 -50 3 -93 10 -95 14 -3 5 -44
11 -93 15 -48 4 -92 11 -97 15 -6 5 -51 12 -100 16 -50 3 -95 10 -100 15 -6 4
-51 11 -100 15 -50 3 -97 10 -106 15 -8 4 -55 11 -105 14 -49 4 -98 10 -109
15 -11 5 -63 14 -115 19 -52 6 -142 17 -200 25 -319 45 -701 95 -905 119 -66
8 -131 18 -145 21 -14 4 -68 11 -120 16 -150 15 -349 38 -420 49 -36 6 -86 11
-112 11 l-48 0 0 80 0 81 63 -6 c34 -4 87 -11 117 -17z m3082 -507 c3 -8 34
-13 153 -26 17 -2 48 -8 70 -13 22 -6 60 -10 85 -11 25 0 46 -5 49 -12 2 -8 6
-7 12 2 6 10 11 11 17 3 4 -6 28 -14 54 -18 26 -4 50 -11 53 -15 2 -5 34 -12
70 -16 36 -3 65 -11 65 -15 0 -5 22 -12 50 -16 27 -4 55 -13 61 -20 6 -8 20
-14 30 -14 11 0 19 -7 19 -15 0 -10 9 -14 31 -11 17 2 36 -3 44 -10 7 -8 20
-14 29 -14 8 0 22 -7 30 -16 9 -8 16 -11 16 -5 0 6 5 11 10 11 6 0 10 -7 10
-15 0 -8 6 -15 14 -15 7 0 35 -12 62 -26 27 -15 59 -30 72 -33 l23 -6 -20 -25
c-34 -41 -35 -42 -86 -119 -28 -41 -53 -79 -57 -85 -4 -5 -48 32 -101 85 -51
52 -107 105 -123 119 -44 39 -167 120 -181 120 -7 0 -13 4 -13 9 0 5 -12 12
-27 16 -15 3 -30 10 -33 14 -7 11 -133 51 -158 51 -12 0 -22 4 -22 9 0 5 -28
12 -62 16 -35 3 -72 10 -83 15 -11 5 -54 14 -95 19 -133 18 -165 26 -164 39 1
6 2 21 3 32 1 17 8 20 45 20 24 0 46 -4 48 -9z m-6148 -107 c33 -9 63 -19 66
-22 3 -4 18 -14 33 -21 82 -43 169 -164 248 -346 26 -61 79 -248 78 -280 0
-14 -16 -28 -57 -48 -32 -15 -82 -43 -111 -62 -29 -19 -55 -35 -57 -35 -5 0
-42 -31 -65 -54 -25 -26 -31 -17 -17 28 14 46 97 133 192 201 l68 50 -6 47
c-5 47 -10 57 -51 102 -16 18 -19 29 -13 52 6 21 1 41 -17 79 -26 52 -46 86
-55 95 -3 3 -15 17 -26 32 l-21 27 -18 -34 -19 -33 -43 21 -44 22 3 58 c2 31
0 57 -4 57 -5 0 -8 -20 -8 -44 0 -25 -4 -48 -10 -51 -5 -3 -10 -32 -10 -64 0
-32 -7 -102 -15 -157 -8 -54 -15 -119 -15 -143 0 -39 -2 -42 -16 -30 -14 12
-16 38 -13 209 l4 195 -32 3 -33 3 0 -174 c0 -133 -3 -181 -14 -202 l-15 -28
-6 29 c-4 16 -11 45 -16 64 -5 19 -9 71 -10 115 0 84 -11 171 -23 182 -4 4
-20 -1 -37 -11 -29 -17 -31 -17 -44 1 -25 32 -18 59 21 82 19 12 42 21 50 21
8 0 13 4 9 10 -17 28 -132 -58 -197 -147 -41 -56 -47 -71 -42 -98 3 -18 2 -35
-4 -39 -5 -3 -7 6 -5 22 4 26 4 26 -11 8 -9 -11 -16 -26 -16 -33 0 -7 -4 -13
-9 -13 -5 0 -12 -18 -16 -40 -4 -22 -11 -40 -17 -40 -39 0 53 -135 164 -242
15 -15 28 -29 28 -32 0 -3 8 -15 18 -25 34 -39 42 -50 42 -66 0 -8 -7 -15 -15
-15 -8 0 -15 4 -15 9 0 4 -17 20 -38 33 -21 14 -57 44 -81 67 -23 22 -45 41
-47 41 -2 0 -12 8 -22 18 -9 9 -33 29 -51 44 l-35 26 18 64 c10 35 25 77 32
95 8 17 14 36 14 42 0 21 64 146 102 197 77 106 144 158 233 180 67 16 68 16
139 -2z m10931 -18 c128 -24 254 -45 295 -49 19 -3 60 -9 90 -15 30 -6 100
-18 155 -27 55 -9 132 -23 170 -30 39 -7 113 -21 165 -30 52 -9 127 -22 165
-30 39 -7 106 -21 150 -29 78 -15 123 -23 275 -52 41 -8 102 -19 135 -24 33
-6 73 -15 89 -20 16 -6 40 -10 54 -10 13 0 56 -7 96 -16 39 -8 103 -21 141
-29 216 -43 234 -48 240 -72 3 -13 10 -23 15 -23 14 0 12 -28 -2 -33 -7 -2
-28 0 -46 4 -18 4 -45 4 -60 0 -16 -5 -52 -2 -87 5 -163 37 -193 43 -235 50
-25 3 -53 11 -63 16 -11 6 -29 6 -45 0 -28 -9 -55 -6 -48 7 3 4 -13 12 -35 18
-32 8 -43 8 -54 -3 -7 -8 -30 -14 -49 -14 -34 0 -47 -15 -29 -34 7 -7 18 -35
58 -151 50 -142 65 -188 65 -195 0 -4 -15 -15 -33 -25 -27 -14 -38 -15 -55 -6
-11 6 -36 11 -55 11 -19 0 -49 3 -67 7 l-33 6 24 19 24 18 -25 20 c-14 11 -35
23 -47 26 -13 3 -23 10 -23 15 0 5 -10 14 -22 19 -34 15 -59 32 -87 61 -51 50
-109 89 -136 89 -14 0 -36 5 -47 11 -35 19 -68 18 -68 -1 0 -10 7 -23 15 -30
8 -7 15 -19 15 -26 0 -8 4 -14 9 -14 5 0 13 -9 16 -20 4 -11 33 -47 65 -81 54
-56 61 -60 93 -54 24 5 38 2 50 -9 8 -9 20 -16 25 -16 6 0 12 -7 16 -15 7 -20
-42 -20 -89 -1 -20 9 -35 11 -37 5 -6 -19 -93 36 -156 98 -43 43 -70 60 -39
25 10 -10 17 -23 17 -29 0 -6 7 -16 15 -23 8 -7 15 -25 15 -41 0 -42 -26 -37
-34 6 -4 19 -11 35 -16 35 -5 0 -10 6 -13 13 -2 6 -2 0 0 -14 2 -16 -1 -29
-10 -32 -17 -6 -157 1 -177 10 -8 4 -44 12 -80 19 -103 20 -163 38 -190 57
-13 9 -36 17 -50 16 l-25 0 25 -12 c14 -6 27 -14 30 -17 11 -12 82 -40 100
-40 11 0 20 -4 20 -9 0 -5 8 -12 18 -14 46 -12 -62 4 -123 18 -38 9 -106 22
-150 30 -44 8 -89 19 -100 24 -32 13 -87 29 -128 37 -43 7 -54 19 -37 39 18
22 7 41 -12 21 -19 -18 -78 -22 -78 -5 0 8 -16 10 -50 5 -29 -4 -50 -3 -50 3
0 5 -9 7 -20 4 -10 -3 -26 2 -35 11 -9 9 -22 16 -29 16 -12 0 -101 61 -180
122 -54 42 -135 131 -163 179 -10 16 -21 29 -25 29 -4 0 -8 5 -8 11 0 6 -9 22
-20 36 -15 19 -19 35 -14 58 6 32 6 32 -58 48 -35 9 -72 18 -83 20 -11 3 4 5
33 6 29 0 60 5 70 11 56 32 512 36 677 6z m-3152 -44 c36 -2 38 -3 21 -19 -15
-15 -39 -18 -156 -20 -77 -1 -145 -6 -151 -11 -7 -5 -38 -12 -71 -16 l-58 -6
28 23 c64 52 65 52 210 52 77 0 156 -2 177 -3z m1626 -271 c42 -44 81 -85 86
-93 43 -56 91 -114 98 -116 4 -2 7 -9 7 -16 0 -7 9 -21 20 -31 11 -10 20 -24
20 -31 0 -7 4 -14 8 -16 11 -4 82 -123 82 -137 0 -6 5 -11 10 -11 10 0 14 -33
5 -42 -3 -3 -24 1 -48 9 -38 13 -50 26 -117 129 -41 62 -78 114 -82 114 -5 0
-8 4 -8 9 0 13 -41 60 -146 170 -51 52 -90 100 -88 106 4 10 46 31 68 34 4 1
43 -35 85 -78z m-7730 -132 c35 -5 103 -14 150 -19 90 -9 174 -21 326 -45 50
-7 137 -21 195 -30 58 -9 125 -20 150 -25 25 -6 74 -14 110 -20 116 -17 234
-38 258 -46 21 -6 23 -11 18 -48 -3 -23 -11 -92 -18 -153 l-11 -113 -43 0
c-24 0 -45 4 -48 9 -3 5 -34 12 -68 16 -34 4 -69 11 -78 16 -8 5 -42 13 -75
19 -107 17 -190 35 -200 42 -5 3 -32 9 -60 13 -27 4 -54 11 -60 15 -5 5 -31
11 -58 15 -26 4 -50 11 -53 16 -2 5 -27 11 -55 15 -27 4 -52 10 -54 15 -3 4
-26 11 -50 15 -25 3 -48 10 -50 15 -3 4 -26 11 -50 15 -25 3 -48 10 -51 15 -3
5 -13 9 -22 9 -19 0 -147 37 -173 50 -9 5 -34 12 -54 16 -21 4 -50 13 -64 20
-14 8 -36 14 -47 14 -33 0 -84 53 -84 87 1 43 44 60 160 62 52 0 124 -4 159
-10z m13552 -99 c42 -90 70 -156 94 -220 10 -25 22 -55 28 -67 11 -24 152
-153 167 -153 5 0 14 8 19 18 8 13 10 6 11 -32 0 -43 2 -48 20 -43 15 4 20 0
20 -13 0 -10 2 -25 6 -33 3 -10 -10 -21 -43 -37 -93 -44 -136 -53 -280 -59
-141 -6 -142 -6 -148 17 -3 12 -9 22 -14 22 -5 0 -12 14 -16 30 -4 17 -11 30
-16 30 -5 0 -9 8 -9 17 0 9 -13 31 -29 48 -28 30 -46 90 -58 203 -4 33 -2 42
11 42 12 0 16 15 19 78 l3 77 2 -90 c3 -131 35 -285 75 -360 l14 -27 34 43
c18 24 36 46 39 49 4 3 10 12 13 20 4 8 16 29 27 45 40 61 51 86 46 103 -3 9
-12 51 -20 92 -27 137 -38 185 -46 195 -4 6 -11 28 -15 50 l-7 40 19 -25 c10
-14 25 -41 34 -60z m-2112 -79 c21 -14 7 -25 -66 -55 -37 -15 -76 -32 -86 -37
-28 -15 -189 -70 -227 -77 -19 -4 -45 -6 -58 -4 -19 3 -21 6 -11 18 6 8 17 14
23 14 6 0 38 14 71 30 33 16 66 30 73 30 6 0 12 5 12 10 0 6 6 10 13 10 6 0
41 16 77 34 66 35 147 47 179 27z m-10059 -45 c118 -24 173 -37 205 -46 17 -5
50 -12 75 -15 25 -4 54 -11 65 -15 11 -5 43 -14 70 -19 47 -10 101 -23 235
-57 89 -22 181 -45 235 -57 28 -7 55 -15 60 -19 6 -3 28 -9 50 -13 22 -3 49
-10 60 -15 11 -5 40 -13 65 -19 80 -17 135 -32 150 -40 9 -5 35 -12 59 -16 23
-4 55 -13 69 -21 15 -8 37 -14 49 -14 12 0 24 -4 27 -9 3 -5 21 -12 40 -15 20
-4 48 -13 63 -21 15 -8 37 -15 49 -15 11 0 24 -4 30 -8 5 -5 41 -19 79 -31 39
-12 84 -29 102 -37 17 -8 35 -14 41 -14 5 0 23 -7 38 -15 16 -8 39 -15 52 -15
12 0 22 -4 22 -9 0 -5 14 -12 30 -16 30 -7 30 -7 30 -72 l0 -66 -77 7 c-43 4
-82 11 -88 16 -5 4 -43 12 -83 15 -40 4 -75 11 -77 15 -3 5 -39 11 -80 15 -42
4 -78 11 -80 15 -3 5 -36 12 -73 15 -37 4 -71 11 -77 15 -5 4 -43 11 -83 15
-39 4 -74 11 -77 15 -3 4 -38 11 -77 15 -40 4 -78 11 -83 16 -6 4 -42 11 -80
15 -39 4 -74 10 -80 14 -5 5 -37 11 -70 15 -33 3 -69 10 -80 15 -11 5 -49 13
-85 19 -94 15 -183 32 -457 87 -43 8 -109 21 -148 27 -38 7 -75 15 -80 19 -6
3 -43 10 -83 13 -39 4 -72 12 -72 16 0 5 -8 9 -17 9 -16 0 -18 8 -15 62 2 35
8 67 13 73 5 5 9 39 9 76 0 37 3 75 6 84 7 19 15 18 144 -9z m-3545 -107 c33
-25 76 -54 95 -65 19 -10 37 -22 40 -25 5 -5 60 -32 130 -62 29 -13 65 -20
132 -26 11 -1 48 -71 47 -89 -1 -11 -4 -8 -9 8 -4 14 -8 19 -9 13 -1 -17 -21
-17 -21 0 0 16 -47 33 -115 42 -84 10 -163 38 -288 101 -37 19 -73 32 -79 28
-8 -5 -9 8 -5 47 4 30 7 63 7 74 0 11 3 15 8 10 4 -6 34 -31 67 -56z m9045 17
c88 -20 168 -53 235 -96 17 -11 36 -23 43 -26 49 -24 262 -239 262 -264 0 -5
3 -10 8 -12 11 -5 52 -66 52 -78 0 -5 4 -10 9 -10 5 0 14 -12 20 -27 5 -16 21
-48 34 -73 13 -25 32 -63 42 -85 10 -22 23 -51 30 -65 6 -14 20 -52 29 -85 10
-33 23 -68 28 -79 5 -10 13 -39 18 -65 5 -25 13 -64 18 -86 40 -169 49 -467
19 -655 -19 -121 -36 -206 -47 -235 -5 -11 -19 -54 -31 -95 -13 -41 -27 -76
-31 -78 -5 -2 -8 -9 -8 -15 0 -14 -55 -124 -71 -144 -6 -7 -17 -13 -23 -13 -8
0 -8 2 1 8 6 4 15 20 18 35 4 15 11 27 15 27 5 0 11 14 15 30 4 17 11 30 16
30 5 0 12 18 15 40 4 22 10 40 15 40 4 0 11 17 15 38 4 20 10 42 14 47 5 6 11
28 15 50 4 22 11 45 16 50 23 30 51 446 35 511 -6 22 -12 24 -64 24 -31 0 -88
-7 -127 -16 -46 -10 -144 -17 -290 -20 -120 -3 -222 -9 -225 -14 -3 -5 -12 5
-19 23 -18 40 -34 51 -43 29 -5 -14 -7 -14 -7 4 -1 36 -48 114 -68 114 -16 0
-17 -32 -1 -48 9 -9 9 -12 0 -12 -20 0 -14 -65 8 -90 28 -32 25 -34 -9 -9 -24
18 -32 19 -52 9 l-24 -13 22 24 c15 17 22 40 25 82 3 61 2 63 -25 43 -14 -11
-15 -15 -5 -20 7 -3 1 -3 -14 0 -21 5 -28 2 -28 -10 0 -9 -7 -16 -15 -16 -20
0 -20 39 0 46 8 4 13 10 10 14 -2 4 7 20 20 34 19 20 31 25 46 21 15 -5 19 -4
15 4 -4 6 -2 11 3 11 6 0 11 -4 11 -10 0 -5 7 -7 15 -4 8 3 29 -9 51 -30 32
-31 35 -38 23 -53 -12 -15 -12 -16 7 -11 17 4 24 -2 39 -37 l17 -43 57 5 c31
3 60 9 65 14 6 5 24 9 42 9 17 0 54 6 80 14 135 39 162 46 175 46 13 0 179 50
242 72 25 10 27 14 26 67 0 31 -8 81 -18 111 -17 55 -17 55 -55 53 -21 -2 -52
-9 -69 -18 -16 -8 -37 -15 -44 -15 -8 0 -27 -6 -41 -13 -15 -8 -42 -21 -60
-30 -19 -9 -38 -17 -43 -17 -5 0 -42 -16 -83 -35 -41 -19 -80 -35 -86 -35 -5
0 -10 -4 -10 -10 0 -5 -7 -10 -15 -10 -11 0 -15 12 -15 45 0 33 4 45 15 45 8
0 15 4 15 8 0 9 155 112 169 112 5 0 11 3 13 8 3 7 12 12 140 79 44 23 68 43
72 57 6 23 -4 68 -22 102 -6 10 -23 45 -38 77 -15 31 -31 57 -36 57 -5 0 -6 5
-2 11 4 8 -1 9 -15 4 -21 -6 -22 -4 -16 27 5 25 2 38 -9 47 -9 8 -16 20 -16
27 0 8 -4 14 -8 14 -4 0 -16 15 -27 33 -25 42 -170 187 -187 187 -11 0 -11 -2
0 -9 10 -6 10 -10 -3 -21 -8 -7 -15 -18 -15 -25 0 -26 -28 -22 -108 18 -86 42
-91 49 -76 105 6 20 11 22 37 16 16 -3 56 -22 89 -41 33 -19 62 -33 65 -30 2
3 -5 8 -16 12 -12 3 -21 10 -21 15 0 4 -11 11 -25 14 -14 4 -25 10 -25 15 0 5
-13 12 -30 16 -16 4 -30 11 -30 16 0 5 -13 9 -30 9 -35 0 -32 10 -55 -185 -9
-77 -23 -181 -31 -231 -8 -49 -14 -106 -14 -126 0 -39 -14 -51 -44 -36 -18 10
-19 21 -12 258 l7 247 -23 7 c-13 3 -42 6 -65 6 l-43 0 -2 -92 c-2 -51 -3
-149 -4 -218 -1 -127 -8 -179 -28 -192 -21 -14 -36 -8 -36 14 0 12 -4 35 -9
52 -10 32 -42 336 -41 395 0 31 -1 33 -27 26 -16 -4 -44 -11 -63 -15 -19 -3
-45 -13 -57 -20 -12 -8 -23 -12 -25 -10 -26 40 -35 70 -25 77 23 16 83 42 135
58 28 9 52 19 52 22 0 21 -204 -48 -230 -77 -3 -3 -21 -17 -40 -30 -65 -44
-200 -192 -200 -218 0 -6 -4 -12 -8 -14 -18 -7 -87 -141 -108 -208 -5 -17 20
-46 91 -105 46 -38 95 -80 159 -135 69 -59 156 -154 156 -169 0 -19 -20 -52
-20 -33 0 6 -5 12 -11 12 -6 0 -105 63 -220 140 -115 77 -212 140 -214 140 -9
0 -32 -56 -40 -95 -21 -113 -14 -128 75 -172 8 -4 47 -25 85 -48 95 -56 259
-135 279 -135 9 0 16 -4 16 -10 0 -5 16 -12 37 -16 20 -4 48 -13 62 -20 14 -8
36 -14 48 -14 12 0 24 -4 28 -9 3 -6 27 -13 53 -16 82 -12 112 -26 121 -60 10
-35 -5 -60 -20 -33 -15 26 -67 46 -139 53 -80 7 -165 27 -290 66 -84 27 -116
38 -195 69 -37 15 -120 51 -137 61 -31 16 -46 10 -57 -22 -13 -38 -15 -199 -2
-199 5 0 9 -48 8 -107 -1 -60 2 -144 5 -188 l7 -80 -15 75 c-50 258 -41 604
23 840 67 248 176 455 316 594 129 129 221 183 387 225 55 14 199 12 270 -3z
m-8100 -146 l0 -70 -33 0 c-17 0 -48 -5 -67 -10 -64 -20 -215 -38 -252 -32
-23 5 -44 17 -58 35 -31 39 -44 34 -37 -15 2 -24 3 -37 0 -30 -3 6 -11 12 -19
12 -10 0 -11 6 -5 23 12 31 -1 51 -29 44 -19 -5 -21 -3 -14 26 7 33 39 66 65
67 9 0 24 -11 33 -25 9 -14 23 -25 30 -25 15 0 26 -21 26 -51 0 -23 15 -24 54
-4 15 8 36 15 45 15 10 0 26 7 37 15 10 8 26 15 35 15 16 0 32 7 129 53 30 14
56 26 58 27 1 0 2 -31 2 -70z m-486 -229 l23 -22 -28 -29 c-16 -16 -29 -36
-29 -44 0 -9 -4 -16 -10 -16 -5 0 -10 -7 -10 -16 0 -9 -6 -28 -13 -42 -8 -15
-21 -42 -30 -60 -9 -19 -17 -38 -17 -44 0 -5 -7 -26 -16 -46 -9 -21 -22 -52
-30 -70 -8 -18 -14 -41 -14 -51 0 -10 -7 -32 -15 -47 -8 -16 -15 -36 -15 -45
0 -9 -7 -30 -15 -45 -8 -16 -15 -38 -15 -50 0 -11 -5 -25 -10 -30 -6 -6 -13
-33 -16 -61 -6 -44 -4 -53 17 -73 24 -22 24 -22 2 -11 -13 6 -23 15 -23 19 0
4 -14 22 -31 40 -30 32 -31 33 -15 66 9 19 16 39 16 45 0 6 4 19 10 29 12 21
40 98 47 132 3 14 10 30 15 36 5 7 14 34 21 61 11 41 11 55 -1 83 -16 39 -10
72 20 102 18 18 22 19 32 6 14 -19 19 -13 64 60 32 52 41 92 22 92 -15 0 -40
-26 -85 -85 -20 -27 -40 -52 -44 -55 -11 -9 -50 -82 -107 -200 -30 -63 -60
-124 -67 -135 -6 -11 -13 -36 -17 -55 l-5 -35 -18 40 c-10 22 -22 48 -27 57
-13 24 -13 28 4 28 13 0 46 56 46 78 0 6 3 12 8 14 4 2 20 28 35 58 16 30 37
69 48 85 28 45 39 73 39 103 0 31 54 86 76 78 8 -3 22 3 31 12 10 10 35 30 56
45 20 16 37 34 37 42 0 23 25 23 28 0 2 -13 14 -32 26 -44z m116 -66 l8 -30 1
38 c1 25 6 37 15 37 9 0 12 -7 9 -19 -3 -11 3 -42 12 -70 16 -50 11 -96 -7
-55 -6 13 -7 8 -3 -16 3 -19 11 -48 19 -65 8 -16 22 -50 32 -75 9 -25 25 -63
35 -86 11 -22 19 -46 19 -52 0 -7 5 -12 10 -12 6 0 10 -6 10 -14 0 -17 38
-104 48 -110 13 -8 28 7 40 39 6 17 11 24 11 16 1 -14 -39 -102 -50 -111 -4
-3 -10 -15 -14 -28 -6 -22 -7 -22 -21 -5 -7 10 -14 24 -14 31 0 13 -32 91 -50
124 -6 10 -10 25 -10 34 0 9 -6 28 -14 42 -24 48 -46 102 -46 116 0 8 -6 19
-13 25 -11 8 -17 5 -27 -17 -12 -25 -13 -26 -21 -7 -14 30 0 -92 16 -145 7
-25 20 -70 29 -100 35 -125 60 -196 73 -206 10 -9 8 -15 -13 -30 -14 -10 -32
-24 -39 -31 -7 -7 -24 -15 -39 -19 -14 -3 -26 -10 -26 -15 0 -5 -7 -9 -16 -9
-12 0 -8 7 12 22 16 13 31 26 32 30 2 5 11 8 19 8 12 0 14 7 8 38 -4 20 -10
42 -15 47 -4 6 -11 28 -15 50 -4 22 -10 44 -13 50 -7 11 -28 92 -48 192 -2 12
-11 28 -19 36 -17 17 -20 193 -5 297 5 36 7 73 4 83 -3 10 0 17 8 17 7 0 20
10 27 23 l14 22 10 -30 c5 -16 12 -43 17 -60z m969 -21 c2 -2 4 -29 5 -61 l1
-58 -79 4 c-55 2 -84 8 -95 19 -12 11 -13 16 -3 20 7 2 12 21 12 46 l0 41 78
-3 c42 -2 79 -6 81 -8z m161 -19 c52 -3 115 -10 140 -15 25 -6 86 -14 135 -20
102 -11 199 -26 265 -40 25 -6 74 -15 110 -20 106 -16 224 -37 240 -44 8 -3
47 -10 85 -15 39 -6 108 -17 155 -26 47 -9 119 -22 160 -29 41 -7 82 -15 90
-19 8 -3 47 -10 85 -16 131 -19 185 -32 185 -47 0 -17 -3 -17 -92 0 -167 33
-196 38 -268 46 -41 5 -95 14 -120 19 -25 6 -90 17 -145 26 -55 9 -136 23
-180 30 -44 8 -123 21 -175 29 -52 8 -126 21 -165 28 -80 15 -575 18 -575 4 0
-5 -7 -3 -15 4 -12 10 -15 10 -15 -1 -1 -30 -30 55 -30 88 0 28 3 33 18 29 9
-3 60 -8 112 -11z m440 -153 c36 -5 88 -14 115 -20 28 -6 91 -18 140 -27 50
-9 122 -22 160 -30 89 -17 218 -42 318 -61 118 -22 229 -43 315 -59 42 -8 94
-17 115 -20 21 -4 37 -9 35 -13 -2 -4 -10 -24 -17 -44 -18 -45 -27 -49 -77
-38 -55 12 -161 31 -219 39 -27 5 -79 13 -115 20 -36 7 -96 19 -135 26 -38 7
-97 18 -130 25 -109 20 -229 42 -283 50 -29 5 -74 13 -100 19 -26 5 -87 17
-137 26 -49 9 -121 22 -160 30 -106 20 -244 44 -300 51 -53 7 -79 20 -69 36 7
12 451 4 544 -10z m1355 -152 c187 -29 221 -35 230 -42 6 -3 43 -10 83 -13 39
-4 72 -11 72 -15 0 -4 36 -11 80 -15 44 -4 80 -11 80 -15 0 -4 34 -11 75 -15
41 -4 77 -11 80 -15 3 -5 41 -12 85 -16 44 -3 80 -11 80 -15 0 -5 17 -10 38
-10 22 -1 29 -3 17 -6 -20 -5 -166 17 -285 43 -36 8 -75 14 -88 14 -13 0 -51
6 -85 14 -34 8 -109 22 -167 31 -58 9 -136 23 -175 30 -38 7 -104 19 -145 27
-58 10 -76 17 -78 31 -3 15 0 16 15 8 10 -5 50 -15 88 -21z m25 -106 c41 -8
104 -21 140 -30 36 -8 75 -14 87 -14 12 0 48 -6 80 -14 32 -7 103 -21 158 -31
55 -9 126 -23 157 -31 32 -8 71 -14 86 -14 16 0 42 -4 58 -10 16 -5 56 -14 89
-19 33 -5 87 -14 120 -20 33 -7 96 -19 140 -27 44 -8 112 -21 150 -29 39 -7
97 -18 130 -25 33 -6 78 -14 100 -16 22 -3 67 -11 100 -19 33 -7 105 -21 160
-30 55 -9 120 -21 145 -27 25 -5 68 -14 95 -18 28 -4 77 -13 110 -19 33 -6 98
-18 145 -27 47 -8 106 -19 131 -25 25 -6 73 -14 105 -19 60 -9 123 -21 249
-45 39 -8 96 -19 127 -25 50 -10 57 -14 49 -29 -5 -9 -21 -23 -35 -31 -29 -15
-65 -10 -381 50 -33 6 -88 15 -122 20 -34 4 -84 13 -110 18 -26 6 -91 18 -143
27 -163 27 -272 46 -345 60 -38 7 -113 21 -165 29 -188 33 -276 48 -345 61
-38 7 -113 21 -165 29 -195 34 -277 48 -345 61 -114 22 -196 36 -255 45 -30 4
-75 12 -100 18 -25 6 -90 18 -145 27 -55 9 -131 23 -170 30 -98 19 -194 36
-235 42 -43 7 -51 18 -37 52 24 57 24 57 187 25z m13550 -191 c35 -24 42 -34
107 -163 32 -63 61 -117 64 -120 4 -3 10 -16 14 -30 4 -13 14 -30 21 -38 8 -7
14 -20 14 -28 0 -8 5 -14 12 -14 6 0 8 -3 4 -7 -3 -4 -50 38 -104 93 -105 108
-156 154 -172 154 -5 0 -10 4 -10 9 0 5 -13 12 -30 16 -16 4 -30 10 -30 15 0
5 -21 12 -47 15 -27 3 -56 10 -65 16 -22 12 -86 12 -124 0 -16 -5 -126 -11
-244 -14 -203 -3 -210 -3 -130 9 47 7 101 15 120 19 19 3 78 12 130 21 52 8
129 21 170 29 42 8 93 15 115 15 22 0 47 5 55 10 25 16 103 12 130 -7z m-8158
-410 c26 -46 65 -73 107 -73 36 1 81 28 81 49 0 6 4 11 8 11 5 0 14 10 19 23
9 19 10 16 9 -19 0 -23 6 -55 13 -70 8 -16 19 -42 26 -59 18 -42 68 -141 99
-195 14 -25 32 -58 40 -75 8 -16 33 -61 56 -100 22 -38 48 -85 57 -102 9 -18
20 -33 24 -33 4 0 10 -13 14 -30 4 -16 10 -30 13 -30 4 0 18 -25 32 -55 14
-30 28 -55 32 -55 3 0 9 -13 13 -30 4 -16 11 -30 17 -30 6 0 -1 -9 -15 -20
-26 -21 -67 -27 -67 -11 0 5 -6 16 -12 23 -7 7 -44 76 -83 153 -38 77 -73 142
-77 145 -3 3 -10 18 -13 33 -4 15 -10 27 -14 27 -3 0 -15 20 -26 45 -11 25
-23 45 -27 45 -4 0 -14 -12 -22 -28 -8 -15 -22 -35 -33 -44 -17 -16 -19 -14
-36 60 -17 71 -17 79 -3 107 17 33 22 115 6 115 -5 0 -12 23 -16 50 -4 28 -12
50 -18 50 -22 0 -36 -24 -36 -59 1 -47 24 -194 39 -251 28 -100 85 -276 93
-284 4 -6 8 -17 8 -25 0 -9 7 -29 15 -45 8 -15 15 -33 15 -38 0 -9 33 -90 50
-119 5 -9 12 -32 15 -51 6 -33 5 -35 -25 -42 -36 -7 -50 -1 -50 20 0 8 -4 14
-10 14 -5 0 -10 10 -10 23 0 12 -7 35 -15 51 -8 15 -15 33 -15 38 0 6 -6 24
-14 41 -8 18 -29 79 -46 137 -18 58 -34 111 -36 119 -3 8 -12 11 -28 7 l-23
-6 -1 241 c-1 165 -5 246 -13 255 -19 23 -65 17 -88 -12 -23 -29 -137 -262
-193 -394 -6 -14 -18 -41 -26 -60 -20 -45 -42 -97 -58 -135 -7 -16 -20 -46
-28 -67 -9 -20 -16 -41 -16 -47 0 -6 -4 -11 -10 -11 -5 0 -12 -16 -16 -35 -3
-19 -10 -35 -14 -35 -4 0 -11 -14 -16 -30 l-9 -30 -34 21 c-31 19 -33 23 -28
62 3 23 11 43 16 45 6 2 11 8 11 14 0 6 23 58 51 117 28 58 65 134 81 168 l29
61 -30 43 c-17 23 -31 50 -31 61 0 18 47 78 61 78 4 0 18 -18 30 -40 l22 -40
41 68 c22 37 43 69 48 70 4 2 8 8 8 14 0 5 11 24 25 42 31 40 32 60 3 80 -21
15 -25 12 -115 -79 -51 -52 -93 -99 -93 -105 0 -5 -4 -10 -8 -10 -8 0 -82 -95
-82 -105 0 -3 -9 -15 -20 -27 -11 -12 -26 -34 -32 -50 -7 -15 -16 -28 -21 -28
-4 0 -12 -10 -17 -22 -12 -28 -31 -57 -47 -76 -7 -7 -13 -18 -13 -23 0 -5 -13
-28 -30 -51 -16 -22 -30 -45 -30 -50 0 -10 -25 -38 -34 -38 -3 0 -23 17 -46
39 -37 35 -39 39 -20 44 11 3 27 20 35 39 15 33 36 69 45 78 14 14 50 70 50
79 0 5 4 11 9 13 12 4 81 96 81 107 0 5 4 11 8 13 5 2 26 22 47 46 34 38 38
48 36 91 -1 43 2 49 26 61 16 8 36 21 46 29 23 19 33 7 19 -24 -6 -14 -8 -25
-3 -25 5 0 11 4 13 8 3 8 96 81 170 135 14 10 31 37 39 60 12 38 14 39 19 17
3 -14 13 -39 22 -57z m-2332 31 c41 -8 107 -22 145 -29 211 -42 319 -69 380
-97 36 -16 117 -70 112 -74 -2 -2 -27 5 -55 16 -29 11 -62 20 -73 20 -12 0
-51 6 -88 14 -36 8 -111 22 -166 31 -55 9 -131 23 -170 30 -38 7 -90 16 -115
20 -56 7 -120 26 -120 35 0 16 37 50 55 50 11 0 54 -7 95 -16z m10655 -318 c0
-14 -15 -23 -60 -36 -106 -31 -178 -49 -255 -65 -41 -9 -88 -20 -105 -25 -16
-5 -70 -16 -120 -25 -49 -8 -126 -22 -170 -30 -248 -47 -502 -86 -585 -89 -52
-3 -79 -3 -60 0 19 2 76 11 125 19 50 9 133 22 185 31 127 21 241 42 490 91
41 8 98 21 126 29 28 8 61 14 73 14 12 0 31 5 42 11 11 6 41 14 67 19 74 14
150 34 158 43 4 4 16 7 26 7 10 0 21 7 25 15 8 22 38 14 38 -9z"/>
<path d="M18335 8530 l-49 -18 39 -11 c22 -6 59 -11 83 -11 23 0 42 -4 42 -10
0 -6 29 -10 66 -10 36 0 73 -4 82 -9 17 -8 102 0 133 13 14 6 18 -2 24 -53 9
-75 20 -86 87 -77 79 11 206 -3 212 -23 3 -9 4 -5 3 9 -2 21 2 25 26 25 15 -1
27 2 27 6 0 9 65 21 125 22 44 1 161 -25 174 -39 13 -13 -31 -36 -68 -36 -27
1 -41 -4 -41 -12 0 -14 50 -26 112 -26 20 0 40 -4 43 -10 3 -5 35 -10 71 -10
50 0 64 3 64 15 0 20 18 19 60 -4 25 -13 43 -16 65 -10 16 4 68 9 115 11 70 2
85 0 85 -12 0 -8 7 -16 15 -16 8 -1 21 -2 28 -3 7 0 11 -5 8 -10 -3 -5 2 -15
10 -22 15 -12 16 -10 9 20 l-7 33 93 -6 c61 -4 87 -3 74 3 -17 8 -18 10 -2 10
9 1 17 5 17 10 0 5 -34 12 -75 16 -41 4 -75 10 -75 14 0 5 -31 11 -70 15 -38
3 -80 11 -94 17 -20 9 -32 8 -58 -4 -30 -14 -42 -14 -98 -3 -82 18 -238 43
-310 51 -30 4 -59 10 -65 14 -15 12 -106 29 -346 65 -53 8 -106 19 -117 25
-11 6 -47 11 -79 11 -32 1 -85 7 -118 15 -33 8 -74 15 -92 15 -17 0 -38 7 -47
15 -20 20 -116 18 -181 -5z"/>
<path d="M23248 7613 c-5 -12 -66 -53 -78 -53 -5 0 -10 -4 -10 -9 0 -5 -8 -12
-18 -15 -32 -10 -82 -64 -76 -80 5 -13 25 -16 105 -16 86 0 106 3 149 25 27
13 60 35 74 48 19 17 34 23 52 19 19 -3 25 -1 20 7 -7 10 -28 21 -134 67 -35
15 -78 19 -84 7z"/>
<path d="M7216 10154 c-9 -8 -16 -20 -16 -25 0 -6 -11 -20 -25 -33 -14 -13
-25 -29 -25 -35 0 -6 -6 -14 -14 -17 -8 -3 -18 -19 -21 -35 -4 -16 -11 -29
-16 -29 -5 0 -11 -11 -15 -25 -3 -14 -10 -25 -14 -25 -5 0 -12 -15 -15 -32 -4
-18 -11 -35 -15 -38 -4 -3 -11 -38 -15 -79 -7 -66 -6 -73 7 -60 9 8 18 25 22
37 4 12 25 38 47 59 21 20 39 41 39 46 0 5 -15 7 -32 5 -30 -3 -33 -1 -30 22
2 14 10 32 17 40 7 8 16 25 19 38 4 12 11 22 16 22 4 0 11 11 14 25 11 44 83
121 120 131 14 3 26 10 26 15 0 15 -58 10 -74 -7z"/>
</g>
</svg>
