<?xml version="1.0" standalone="no"?>
<!DOCTYPE svg PUBLIC "-//W3C//DTD SVG 20010904//EN"
 "http://www.w3.org/TR/2001/REC-SVG-20010904/DTD/svg10.dtd">
<svg version="1.0" xmlns="http://www.w3.org/2000/svg"
 width="2880.000000pt" height="1725.000000pt" viewBox="0 0 2880.000000 1725.000000"
 preserveAspectRatio="xMidYMid meet">
<metadata>
Created by potrace 1.16, written by Peter Selinger 2001-2019
</metadata>
<g transform="translate(0.000000,1725.000000) scale(0.100000,-0.100000)"
fill="#000000" stroke="none">
<path d="M11865 12150 c160 -4 322 -13 360 -19 39 -6 95 -11 125 -11 52 0 182
-17 315 -42 33 -6 80 -14 105 -18 116 -18 389 -105 527 -166 17 -8 36 -14 42
-14 6 0 11 -4 11 -9 0 -5 14 -12 30 -16 17 -4 30 -10 30 -15 0 -5 14 -11 30
-15 17 -4 30 -11 30 -16 0 -5 5 -9 11 -9 6 0 63 -32 127 -71 64 -38 126 -76
137 -82 11 -7 22 -14 25 -17 15 -15 71 -50 80 -50 5 0 10 -4 10 -9 0 -5 22
-23 48 -39 26 -16 54 -35 62 -43 8 -8 34 -27 58 -43 23 -16 42 -33 42 -37 0
-5 6 -9 14 -9 8 0 16 -3 18 -8 2 -4 35 -32 73 -62 39 -30 75 -59 81 -65 6 -6
34 -28 62 -50 29 -21 52 -43 52 -47 0 -4 4 -8 10 -8 5 0 22 -12 38 -27 15 -16
51 -46 80 -68 29 -21 52 -43 52 -47 0 -4 5 -8 10 -8 6 0 21 -10 33 -23 12 -12
47 -43 77 -67 82 -67 101 -83 119 -100 9 -9 39 -33 66 -55 49 -39 66 -53 115
-95 14 -12 46 -38 72 -58 27 -20 48 -40 48 -44 0 -4 7 -8 15 -8 8 0 15 -4 15
-8 0 -5 29 -30 65 -56 36 -26 71 -53 78 -60 33 -30 294 -206 306 -206 5 0 14
-7 21 -15 14 -17 155 -19 375 -5 72 5 328 13 570 19 242 6 528 15 635 21 107
6 530 15 940 22 410 6 765 12 790 13 25 2 424 4 888 5 713 2 842 4 842 16 0 8
-7 14 -15 14 -8 0 -15 4 -15 9 0 5 -13 12 -30 16 -16 4 -30 10 -30 15 0 4 -18
10 -40 14 -22 3 -40 10 -40 15 0 5 -13 12 -30 16 -16 4 -30 10 -30 15 0 5 -13
11 -30 15 -16 4 -30 10 -30 15 0 5 -13 11 -30 15 -16 4 -30 10 -30 15 0 5 -13
11 -29 15 -16 3 -32 13 -35 21 -3 8 -12 14 -21 14 -8 0 -15 4 -15 9 0 5 -13
12 -30 16 -16 4 -30 10 -30 15 0 5 -13 11 -30 15 -16 4 -30 10 -30 15 0 5 -13
11 -30 15 -16 4 -30 10 -30 15 0 4 -11 11 -25 14 -14 4 -25 10 -25 15 0 5 -13
12 -30 16 -16 4 -30 10 -30 15 0 5 -13 11 -30 15 -16 4 -30 10 -30 15 0 5 -13
11 -29 15 -16 3 -32 13 -35 21 -3 8 -12 14 -21 14 -8 0 -15 4 -15 9 0 5 -13
12 -30 16 -16 4 -30 10 -30 15 0 5 -13 11 -30 15 -16 4 -30 11 -30 16 0 5 -11
11 -25 15 -14 3 -25 10 -25 14 0 5 -13 11 -30 15 -16 4 -30 10 -30 15 0 5 -13
11 -30 15 -16 4 -30 10 -30 15 0 5 -13 11 -29 15 -16 3 -32 13 -35 21 -3 8
-12 14 -21 14 -8 0 -15 4 -15 9 0 5 -13 12 -30 16 -16 4 -30 10 -30 15 0 5
-13 11 -30 15 -16 4 -30 10 -30 15 0 5 -13 11 -30 15 -16 4 -30 11 -30 16 0 5
-11 11 -25 15 -14 3 -25 10 -25 14 0 5 -13 11 -30 15 -16 4 -30 10 -30 15 0 5
-13 11 -30 15 -16 4 -30 10 -30 15 0 5 -13 11 -30 15 -16 4 -30 10 -30 15 0 5
-13 11 -30 15 -16 4 -30 10 -30 15 0 5 -13 11 -30 15 -16 4 -30 10 -30 15 0 5
-13 11 -30 15 -16 4 -30 10 -30 15 0 5 -13 11 -30 15 -16 4 -30 10 -30 15 0 5
-13 11 -30 15 -16 4 -30 10 -30 15 0 5 -13 11 -30 15 -16 4 -30 10 -30 15 0 5
-13 11 -30 15 -16 4 -30 10 -30 15 0 5 -13 11 -30 15 -16 4 -30 10 -30 15 0 4
-16 11 -35 14 -19 4 -35 11 -35 16 0 4 -13 11 -30 15 -16 4 -30 11 -30 16 0 5
-18 12 -40 15 -22 4 -40 10 -40 14 0 5 -13 11 -30 15 -16 4 -30 10 -30 15 0 4
-16 11 -35 14 -19 4 -35 11 -35 16 0 6 -18 13 -40 16 -22 4 -40 10 -40 15 0 4
-16 11 -35 15 -19 3 -35 10 -35 15 0 5 -18 12 -40 15 -22 4 -40 10 -40 15 0 4
-16 11 -35 15 -19 3 -35 10 -35 14 0 4 -18 10 -40 14 -22 3 -40 10 -40 16 0 5
-20 12 -45 16 -25 3 -45 10 -45 15 0 4 -20 11 -45 15 -25 3 -45 10 -45 15 0 4
-20 11 -45 15 -25 3 -45 10 -45 14 0 4 -22 10 -50 14 -27 4 -50 11 -50 16 0 5
-25 12 -55 15 -30 4 -55 11 -55 15 0 4 -27 11 -60 15 -33 4 -60 11 -60 15 0 4
-27 11 -60 15 -33 4 -60 11 -60 15 0 5 -36 12 -80 16 -44 3 -80 10 -80 14 0 4
-37 11 -82 15 -46 4 -85 11 -88 16 -3 4 -59 11 -125 15 -66 4 -122 10 -125 14
-5 7 -103 14 -157 11 -42 -2 -24 -21 20 -21 24 0 48 -5 54 -11 6 -6 51 -15 99
-19 49 -5 121 -15 159 -24 39 -9 84 -16 102 -16 17 0 35 -4 38 -10 3 -5 23
-10 43 -10 20 -1 55 -7 77 -15 22 -8 51 -15 65 -15 41 0 140 -34 140 -47 0 -7
11 -13 24 -13 26 0 113 -25 163 -46 17 -8 40 -14 52 -14 12 0 21 -4 21 -9 0
-5 18 -12 41 -16 22 -4 38 -9 35 -12 -7 -7 -116 19 -122 29 -3 4 -17 8 -30 8
-26 0 -115 19 -210 46 -28 8 -65 14 -82 14 -18 0 -32 5 -32 10 0 6 -9 10 -21
10 -11 0 -17 5 -14 10 4 6 -5 10 -19 10 -14 0 -45 4 -68 10 -24 5 -104 16
-178 25 -74 9 -173 22 -220 30 -130 21 -467 64 -700 90 -80 9 -179 20 -220 26
-41 5 -158 14 -260 20 -102 6 -199 14 -216 20 -36 11 -106 12 -119 2 -6 -5
-93 -6 -195 -3 -107 3 -154 7 -110 9 l75 4 -120 14 c-137 16 -1341 19 -1710 4
-115 -5 -255 -5 -310 0 -55 5 -291 10 -525 13 -385 4 -397 3 -135 -4z"/>
<path d="M11723 11933 c20 -2 37 -8 37 -14 0 -5 51 -9 118 -10 64 0 155 -5
202 -9 226 -23 285 -30 314 -39 17 -5 60 -13 96 -16 36 -4 70 -11 75 -15 6 -4
34 -11 62 -15 29 -4 55 -11 58 -15 3 -4 28 -11 55 -15 28 -4 50 -10 50 -15 0
-4 19 -10 42 -14 23 -4 47 -11 53 -15 5 -5 26 -11 45 -15 l35 -6 -32 13 c-17
6 -35 15 -39 20 -4 4 -16 7 -27 7 -10 0 -33 6 -50 14 -43 18 -132 43 -187 51
-24 4 -51 11 -60 15 -15 8 -105 24 -299 55 -52 8 -119 15 -148 15 -30 0 -84 4
-121 9 -37 6 -123 12 -192 14 -69 2 -108 2 -87 0z"/>
<path d="M11145 11855 c-185 -13 -316 -28 -438 -51 -42 -8 -87 -14 -100 -14
-20 0 -76 -11 -207 -42 -25 -6 -63 -14 -85 -19 -44 -9 -134 -31 -205 -50 -59
-16 -326 -103 -365 -119 -16 -7 -39 -16 -50 -21 -11 -4 -49 -20 -85 -35 -80
-32 -284 -133 -365 -180 -33 -19 -68 -37 -77 -41 -10 -3 -18 -9 -18 -13 0 -4
-10 -12 -22 -19 -13 -6 -36 -20 -53 -31 -16 -11 -40 -25 -52 -31 -13 -7 -23
-16 -23 -21 0 -4 -6 -8 -14 -8 -8 0 -16 -3 -18 -7 -3 -9 -64 -53 -72 -53 -2 0
-15 -9 -28 -20 -12 -11 -72 -58 -133 -106 -124 -98 -134 -107 -251 -222 -46
-46 -84 -87 -84 -92 0 -6 -4 -10 -10 -10 -5 0 -16 -13 -25 -29 -13 -26 -22
-31 -62 -34 -27 -2 35 -2 137 0 102 2 307 -2 455 -10 149 -8 326 -16 395 -16
69 -1 175 -8 235 -16 61 -7 146 -16 190 -20 143 -11 437 -43 605 -67 124 -17
279 -37 380 -48 52 -6 108 -15 124 -20 16 -6 55 -10 86 -10 31 0 70 -4 86 -10
16 -5 67 -14 114 -20 101 -11 204 -26 320 -46 47 -8 110 -14 140 -15 30 0 75
-4 100 -10 45 -9 196 -32 340 -49 41 -6 84 -12 95 -15 11 -3 65 -13 120 -21
55 -8 141 -22 190 -30 50 -7 114 -18 143 -22 39 -6 60 -16 75 -34 64 -76 163
-100 472 -117 169 -9 225 -21 258 -52 26 -24 15 -36 -18 -21 -35 16 -87 15
-121 -3 -16 -8 -41 -15 -56 -15 -16 0 -28 -4 -28 -10 0 -5 -7 -10 -15 -10 -8
0 -15 -4 -15 -10 0 -5 -7 -7 -15 -4 -9 4 -15 0 -15 -10 0 -9 4 -16 10 -16 5 0
1 -13 -8 -30 -9 -16 -20 -30 -24 -30 -5 0 -8 -7 -8 -15 0 -8 -8 -15 -19 -15
-10 0 -24 -7 -31 -15 -7 -8 -19 -15 -26 -15 -8 0 -14 -6 -14 -14 0 -8 -15 -17
-35 -20 -22 -5 -35 -13 -35 -23 0 -11 -6 -14 -25 -9 -26 7 -27 6 -29 -61 -1
-16 -5 -31 -11 -35 -5 -4 -11 -16 -11 -28 -1 -15 5 -20 22 -20 13 0 24 -6 24
-12 0 -7 23 -23 50 -36 28 -12 50 -26 50 -31 0 -5 21 -12 48 -16 26 -4 52 -10
57 -15 6 -4 31 -11 58 -14 26 -4 47 -11 47 -16 0 -5 26 -12 58 -16 31 -4 60
-12 64 -18 6 -8 8 -8 8 0 0 7 12 15 27 19 15 3 30 10 33 14 3 4 82 45 175 92
94 46 172 87 175 90 3 4 23 14 45 23 54 23 105 58 105 74 0 6 4 12 8 12 14 0
55 97 55 129 0 29 1 29 51 26 28 -1 34 0 14 2 -21 2 -38 8 -38 14 0 5 -8 9
-19 9 -25 0 -38 17 -46 64 l-8 38 99 -6 c55 -4 140 -13 189 -21 50 -8 144 -21
210 -30 66 -9 145 -20 175 -25 30 -5 98 -14 151 -20 53 -5 102 -12 110 -15 8
-2 55 -9 104 -14 50 -6 122 -17 160 -25 39 -8 72 -13 73 -11 6 5 -41 65 -50
65 -4 0 -8 5 -8 10 0 6 -10 21 -22 33 -13 12 -47 51 -77 87 -30 36 -67 77 -83
92 -15 15 -28 29 -28 31 0 8 -200 217 -360 377 -206 206 -416 403 -510 478
-25 20 -57 49 -72 64 -15 15 -32 28 -37 28 -6 0 -11 4 -11 8 0 5 -27 28 -60
52 -33 24 -60 47 -60 52 0 4 -4 8 -10 8 -12 0 -104 69 -108 81 -2 5 -9 9 -17
9 -7 0 -18 6 -24 14 -13 15 -248 174 -291 196 -14 7 -27 16 -30 19 -3 4 -77
42 -165 85 -88 43 -173 84 -188 92 -16 8 -36 14 -46 14 -9 0 -26 7 -37 15 -10
8 -27 15 -37 15 -11 0 -33 6 -50 14 -45 19 -184 54 -322 82 -344 69 -841 91
-1300 59z m2415 -1204 c89 -52 170 -145 207 -237 38 -95 51 -182 29 -190 -16
-6 -530 12 -706 26 -63 5 -151 9 -194 11 -44 1 -96 6 -115 10 -58 13 -175 13
-179 0 -2 -6 -11 -11 -19 -11 -11 0 -13 4 -5 13 5 6 13 28 17 47 16 81 105
177 220 236 162 84 393 135 590 130 92 -3 104 -5 155 -35z"/>
<path d="M14299 10782 c6 -10 29 -35 53 -54 60 -49 267 -257 423 -423 72 -76
138 -147 148 -157 9 -10 17 -20 17 -23 0 -2 21 -26 48 -52 26 -27 65 -71 87
-98 22 -27 49 -59 60 -71 56 -62 105 -129 105 -144 0 -5 4 -10 10 -10 5 0 28
-33 51 -72 23 -40 45 -75 48 -78 15 -13 41 -82 56 -150 27 -119 54 -200 90
-270 19 -36 39 -77 46 -92 6 -16 15 -28 20 -28 5 0 9 -5 9 -11 0 -6 34 -62 75
-124 41 -63 75 -117 75 -120 0 -8 44 -69 53 -73 4 -2 7 -8 7 -13 0 -11 42 -72
53 -77 4 -2 7 -8 7 -14 0 -5 7 -16 15 -24 8 -9 15 -18 15 -22 0 -4 -37 -24
-83 -45 -80 -38 -85 -39 -220 -42 -77 -2 -144 -8 -150 -13 -7 -5 -34 -13 -60
-16 -39 -6 -56 -16 -88 -48 -21 -22 -39 -43 -39 -47 0 -3 -15 -23 -33 -43 -59
-67 -77 -90 -77 -97 0 -5 -8 -17 -17 -29 -10 -11 -25 -30 -33 -41 -8 -12 -19
-21 -25 -21 -5 0 -35 28 -65 62 -30 34 -66 71 -79 82 -14 12 -42 38 -64 59
-22 20 -42 37 -46 37 -3 0 -18 10 -31 23 -14 12 -47 33 -73 47 -26 13 -47 28
-47 32 0 5 -8 8 -17 8 -10 0 -30 6 -45 14 -14 8 -55 17 -90 21 -34 4 -66 12
-70 19 -6 8 -10 7 -17 -3 -7 -11 -9 -11 -14 0 -4 12 -7 11 -16 -1 -6 -8 -11
-10 -11 -4 0 6 -30 14 -72 18 -40 4 -76 12 -81 19 -7 9 -10 9 -14 0 -6 -16
-43 -17 -43 -2 0 7 -10 9 -25 5 -14 -4 -25 -3 -25 1 0 5 -21 8 -47 8 -45 0
-48 2 -51 28 -2 15 -8 27 -13 27 -5 0 -10 30 -11 68 -2 86 -7 44 -17 -143 -7
-123 -8 -134 -10 -62 l-1 87 -50 0 c-28 0 -59 6 -70 12 -16 10 -24 10 -42 -1
-16 -10 -23 -10 -26 -2 -5 15 -49 14 -55 -1 -3 -8 -6 -6 -6 4 -1 15 -10 17
-57 15 -39 -2 -58 1 -61 10 -3 7 -12 13 -20 13 -10 0 -13 -6 -9 -16 3 -8 2
-12 -4 -9 -14 9 -50 -4 -50 -17 0 -6 7 -5 17 3 14 12 16 12 11 -1 -3 -9 -18
-15 -39 -15 -19 0 -44 -4 -55 -8 -16 -6 -23 -3 -28 9 -4 9 -4 19 -1 22 3 3 5
0 5 -6 0 -7 7 -12 15 -12 8 0 15 5 15 10 0 6 -7 10 -16 10 -14 0 -14 3 -4 15
18 22 3 18 -20 -5 -21 -21 -25 -35 -12 -43 4 -2 2 -2 -5 -1 -6 2 -17 -4 -23
-12 -10 -11 -9 -14 4 -14 9 0 16 -4 16 -10 0 -5 -9 -10 -20 -10 -11 0 -20 5
-20 10 0 6 -7 10 -15 10 -9 0 -12 6 -9 18 4 10 3 13 -3 6 -4 -6 -15 -14 -23
-17 -12 -4 -11 -6 3 -6 21 -1 22 -17 2 -37 -13 -14 -15 -14 -15 0 0 24 -51 21
-57 -2 -3 -14 -15 -19 -41 -20 -45 -2 -59 -21 -31 -44 20 -17 20 -18 3 -18
-26 0 -40 11 -48 37 -6 18 -4 22 8 17 9 -3 16 -4 16 -1 0 14 -31 14 -45 1 -8
-9 -15 -11 -15 -6 0 6 -6 12 -14 15 -10 4 -12 0 -9 -14 4 -14 0 -19 -13 -19
-19 -1 -19 -1 0 -15 11 -8 16 -21 13 -30 -8 -19 -27 -20 -27 0 0 8 -7 15 -16
15 -13 0 -14 3 -5 14 9 10 8 15 -1 19 -9 3 -14 -8 -14 -38 -2 -35 2 -44 17
-48 10 -3 19 -10 19 -16 0 -19 -15 -12 -48 20 -22 22 -37 29 -52 24 -20 -6
-29 -35 -10 -35 6 0 10 7 10 15 0 8 7 15 15 15 8 0 15 -4 15 -10 0 -5 -4 -10
-10 -10 -5 0 -10 -7 -10 -15 0 -8 -9 -15 -20 -15 -12 0 -20 7 -20 16 0 9 -5
14 -12 12 -19 -7 -17 -86 1 -91 13 -4 12 -5 -1 -6 -10 0 -18 -6 -18 -12 0 -5
5 -7 12 -3 7 4 8 3 4 -4 -15 -24 -36 -12 -36 20 0 25 -3 29 -12 20 -7 -7 -20
-12 -30 -12 -10 0 -18 -6 -18 -14 0 -9 9 -13 25 -11 14 1 25 -2 25 -6 0 -5 -3
-9 -8 -9 -4 0 -12 -10 -17 -22 -6 -13 -20 -24 -33 -26 -13 -2 -26 -11 -29 -20
-4 -9 -24 -34 -44 -54 -21 -21 -34 -40 -29 -43 18 -11 10 -35 -14 -41 -23 -5
-23 -7 -9 -35 16 -33 29 -36 53 -14 16 14 17 13 16 -13 -1 -19 -5 -28 -13 -25
-7 3 -13 -2 -13 -12 0 -9 4 -14 9 -10 5 3 13 0 17 -6 5 -9 0 -10 -15 -6 -21 5
-22 3 -19 -46 3 -33 9 -52 19 -55 11 -3 11 -2 -1 7 -8 6 -10 11 -4 11 6 0 17
-6 23 -14 13 -15 -4 -26 -42 -26 -17 0 -19 -2 -8 -9 8 -5 20 -7 28 -4 7 3 13
1 13 -5 0 -6 -5 -12 -11 -14 -16 -5 -18 -56 -3 -69 8 -6 22 -8 31 -5 15 6 15
9 3 17 -12 9 -12 10 3 5 11 -3 17 0 17 9 0 8 -9 15 -21 15 -12 0 -17 4 -14 11
4 6 13 8 21 5 8 -3 14 -1 14 4 0 6 5 10 10 10 15 0 12 -50 -5 -66 -8 -8 -13
-20 -11 -27 1 -7 1 -9 -1 -4 -13 22 -53 -10 -53 -42 0 -12 5 -21 10 -21 6 0
10 9 10 20 0 12 7 20 16 20 14 0 14 -3 4 -15 -11 -13 -8 -15 15 -15 24 0 26
-2 15 -15 -10 -12 -10 -19 -2 -27 15 -15 15 -48 1 -48 -19 0 11 -30 30 -30 14
-1 14 -2 -2 -14 -17 -13 -15 -15 22 -21 23 -4 43 -11 47 -16 3 -5 14 -9 24 -9
10 0 25 -6 32 -14 8 -7 30 -17 49 -21 19 -4 39 -11 44 -15 6 -4 23 -10 39 -14
15 -4 33 -13 40 -19 21 -23 37 -58 31 -67 -3 -5 -6 -30 -7 -55 0 -25 -5 -45
-11 -45 -34 0 -194 24 -202 30 -5 4 -41 11 -80 15 -38 4 -74 10 -80 15 -5 4
-45 11 -87 15 -43 4 -78 10 -78 15 0 4 -34 11 -75 15 -41 4 -77 10 -80 15 -2
4 -38 11 -80 15 -41 4 -77 10 -80 15 -2 4 -38 11 -80 15 -41 4 -77 10 -80 15
-2 4 -39 11 -80 15 -41 4 -75 10 -75 15 0 4 -34 11 -75 15 -41 4 -75 11 -75
16 0 5 -17 9 -37 9 -21 1 -58 5 -83 11 -78 17 -193 39 -260 50 -36 5 -72 14
-80 18 -9 5 -45 12 -80 16 -36 4 -69 11 -75 15 -5 4 -43 11 -83 15 -39 4 -74
11 -77 15 -3 5 -37 12 -75 16 -39 3 -70 10 -70 15 0 4 -12 9 -27 11 -22 2 -29
10 -34 33 l-7 30 -1 -27 c-1 -26 -4 -28 -40 -28 -22 0 -42 4 -45 9 -3 5 -34
12 -68 16 -35 4 -67 10 -73 14 -5 3 -39 11 -75 18 -156 28 -186 35 -205 43
-11 5 -40 12 -65 16 -25 3 -49 10 -55 14 -5 4 -30 11 -55 15 -25 4 -49 11 -55
15 -5 4 -31 11 -57 14 -26 4 -50 11 -53 16 -3 4 -28 11 -55 15 -28 4 -50 10
-50 15 0 4 -20 11 -45 14 -24 4 -47 11 -50 15 -2 5 -25 12 -50 15 -24 4 -47
11 -50 15 -2 5 -25 12 -50 15 -24 4 -47 11 -50 16 -3 5 -26 12 -50 16 -25 3
-45 10 -45 14 0 4 -17 11 -37 15 -21 4 -42 10 -48 15 -5 4 -22 10 -37 14 -31
7 -43 26 -57 85 -8 36 -7 42 6 37 12 -5 14 -1 10 14 -4 15 0 20 14 20 11 0 19
7 19 16 0 12 6 15 23 10 16 -4 29 1 41 15 17 20 17 21 -11 19 -43 -3 -53 -1
-53 12 0 9 3 9 11 1 13 -13 39 6 39 26 0 17 21 13 36 -6 7 -10 16 -14 21 -10
4 5 0 15 -10 22 -17 12 -17 14 0 30 16 17 17 17 23 -1 5 -13 8 -15 15 -5 6 11
9 11 17 0 6 -10 7 -6 3 11 -4 14 -7 27 -7 30 0 22 4 30 17 30 8 0 15 7 15 15
0 18 -26 20 -33 3 -4 -8 -6 -7 -6 3 -1 9 6 19 14 23 17 6 21 56 5 56 -5 0 -10
5 -10 11 0 8 5 7 15 -1 12 -10 19 -10 27 -2 16 16 45 15 51 0 5 -13 8 -6 22
37 2 8 10 15 17 15 9 0 9 -3 -2 -10 -24 -15 -7 -18 20 -3 14 7 19 13 13 13
-21 0 -15 14 9 25 28 12 36 45 13 57 -12 7 -15 17 -10 36 6 25 6 26 -13 9 -10
-9 -23 -17 -29 -17 -6 0 -14 -6 -16 -12 -3 -7 -6 1 -6 17 0 17 3 26 7 20 18
-25 29 -11 29 40 0 44 -3 51 -14 40 -7 -8 -13 -20 -13 -28 0 -8 -7 -20 -15
-27 -10 -9 -15 -9 -15 -1 0 6 5 11 10 11 6 0 10 7 10 15 0 8 -4 15 -10 15 -5
0 -10 -5 -10 -11 0 -6 -7 -4 -15 5 -8 8 -15 19 -15 25 0 15 17 14 23 -1 3 -10
7 -10 17 -2 9 9 5 14 -19 19 -17 4 -31 11 -31 16 0 5 -7 9 -15 9 -8 0 -15 7
-15 15 0 8 -6 15 -12 16 -7 1 -20 2 -28 3 -8 2 -30 3 -47 4 -26 2 -33 6 -33
22 0 19 -36 47 -48 36 -3 -3 0 -6 7 -6 7 0 9 -4 6 -10 -9 -15 -25 -12 -25 5 0
8 -7 15 -15 15 -8 0 -15 7 -15 16 0 10 -6 14 -15 10 -9 -3 -15 0 -15 10 0 25
-25 45 -39 31 -8 -8 -11 -8 -11 2 0 18 -20 3 -30 -23 -8 -20 -9 -19 -21 12 -8
17 -19 32 -26 32 -7 0 -13 7 -13 15 0 8 -4 15 -9 15 -5 0 -11 6 -14 13 -2 6
-3 5 -2 -4 5 -35 -12 -41 -36 -12 -20 23 -33 28 -73 30 -53 3 -91 23 -44 23
15 0 29 -6 31 -12 3 -7 6 -1 6 14 1 14 7 29 14 31 9 4 9 6 -1 6 -7 1 -15 -5
-18 -13 -4 -11 -10 -11 -30 -2 -13 6 -24 17 -24 24 0 6 -7 12 -15 12 -7 0 -18
6 -22 14 -11 19 -58 33 -51 15 3 -8 1 -23 -3 -34 -6 -14 -8 -7 -6 26 1 32 -2
45 -10 42 -6 -2 -13 4 -16 14 -4 17 -5 17 -6 0 -1 -17 -7 -18 -53 -12 -29 4
-56 13 -60 19 -5 7 -8 7 -8 -3 0 -10 -3 -11 -14 -2 -10 8 -16 9 -21 1 -3 -5
-16 -10 -28 -10 -12 0 -35 -7 -51 -15 -15 -8 -33 -12 -38 -8 -7 4 -9 -3 -5
-18 3 -13 9 -44 13 -69 4 -25 11 -48 17 -51 5 -4 7 -15 5 -25 -4 -16 -7 -14
-16 9 -7 16 -12 39 -12 53 0 16 -6 24 -16 24 -14 0 -16 -8 -11 -54 3 -30 3
-57 0 -60 -6 -6 -122 114 -123 126 0 4 -42 49 -93 100 -90 90 -189 168 -215
168 -6 0 -12 5 -12 10 0 6 -6 10 -12 10 -7 0 -26 7 -43 16 -38 21 -102 21
-140 0 -16 -9 -35 -16 -41 -16 -7 0 -14 -7 -18 -15 -3 -8 -12 -15 -21 -15 -8
0 -15 -4 -15 -9 0 -5 -9 -13 -21 -16 -11 -4 -55 -40 -96 -81 -42 -41 -90 -82
-107 -92 -17 -9 -35 -22 -41 -28 -5 -7 -21 -19 -35 -27 -24 -15 -28 -15 -55 3
-40 26 -55 26 -21 -1 31 -25 32 -38 5 -72 -28 -37 -80 -59 -151 -66 l-60 -6
-24 -60 c-14 -33 -29 -69 -34 -80 -5 -11 -13 -33 -17 -49 -5 -16 -18 -34 -29
-40 -10 -6 -21 -14 -24 -17 -3 -4 -44 -10 -92 -14 l-87 -7 -31 30 c-16 17 -30
40 -30 52 0 13 -5 20 -12 18 -8 -3 -14 -28 -16 -66 -2 -34 -7 -62 -12 -62 -6
0 -10 -11 -10 -25 0 -14 4 -25 8 -25 5 0 12 -86 15 -192 3 -105 10 -194 16
-197 5 -3 13 -54 17 -114 3 -59 10 -107 14 -107 4 0 10 -32 14 -72 4 -40 10
-75 15 -78 4 -3 11 -22 15 -42 4 -21 11 -38 16 -38 4 0 11 -13 15 -30 4 -17
11 -30 16 -30 5 0 9 -7 9 -15 0 -9 6 -18 14 -21 8 -3 17 -16 20 -30 4 -13 11
-24 16 -24 6 0 10 -7 10 -15 0 -9 7 -18 15 -21 8 -3 17 -15 20 -25 4 -11 39
-52 78 -91 l72 -71 3 -73 c3 -41 8 -74 12 -74 4 0 10 -39 14 -87 3 -48 10 -90
15 -93 5 -3 12 -31 16 -62 4 -32 11 -58 15 -58 4 0 11 -20 14 -45 4 -25 11
-45 15 -45 5 0 12 -20 15 -45 4 -25 11 -45 16 -45 6 0 13 -18 16 -40 4 -22 11
-40 17 -40 6 0 8 -3 4 -6 -5 -6 -41 -12 -207 -35 -41 -6 -79 -14 -85 -19 -5
-4 -34 -11 -62 -15 -29 -4 -53 -11 -53 -16 0 -5 -7 -9 -15 -9 -8 0 -30 -8 -49
-17 -39 -20 -43 -47 -12 -79 20 -19 19 -19 -55 -30 -41 -5 -81 -13 -89 -16 -8
-3 -46 -10 -85 -16 -94 -14 -165 -30 -179 -41 -6 -4 -27 -14 -47 -20 -21 -7
-39 -20 -42 -31 -6 -23 37 -65 76 -74 16 -4 39 -18 51 -31 12 -13 34 -27 49
-30 15 -4 27 -11 27 -16 0 -5 8 -9 18 -9 9 0 30 -7 45 -15 15 -8 43 -17 63
-21 19 -3 36 -10 39 -14 3 -5 23 -11 45 -15 22 -4 42 -11 45 -15 3 -5 27 -12
53 -16 26 -4 50 -11 53 -16 3 -5 30 -11 60 -15 30 -3 57 -10 60 -15 3 -5 32
-12 65 -15 32 -3 64 -10 70 -14 6 -5 39 -12 73 -15 33 -4 61 -10 61 -14 0 -5
28 -11 63 -15 34 -4 67 -11 73 -16 6 -5 40 -12 75 -15 35 -4 69 -11 75 -15 6
-5 39 -12 73 -15 33 -4 61 -10 61 -14 0 -4 29 -11 65 -15 36 -3 67 -10 70 -14
2 -5 36 -11 75 -15 38 -4 72 -11 75 -17 4 -5 21 -9 38 -9 52 0 76 -10 79 -34
2 -17 13 -23 53 -29 28 -5 58 -13 68 -18 9 -5 58 -12 107 -16 50 -3 90 -9 90
-13 0 -4 68 -10 151 -13 83 -4 156 -11 163 -16 6 -5 46 -13 89 -17 42 -4 77
-10 77 -14 0 -4 29 -11 65 -15 36 -3 67 -10 70 -15 3 -4 41 -11 85 -15 44 -4
80 -10 80 -15 0 -4 28 -10 61 -14 34 -3 67 -10 73 -15 6 -5 46 -12 89 -16 42
-4 77 -10 77 -15 0 -4 33 -11 72 -15 40 -3 75 -10 78 -15 3 -5 37 -12 75 -15
39 -4 72 -11 75 -15 3 -4 38 -11 78 -15 39 -4 72 -11 72 -15 0 -4 36 -11 80
-15 44 -4 82 -11 85 -15 3 -4 36 -11 75 -15 39 -4 72 -11 75 -15 3 -4 35 -11
72 -15 36 -4 74 -11 82 -15 9 -5 33 -12 54 -15 23 -4 37 -11 37 -20 0 -8 7
-15 15 -15 8 0 15 -4 15 -9 0 -6 21 -13 48 -17 26 -3 52 -11 59 -16 6 -5 47
-12 90 -15 43 -3 83 -9 88 -14 6 -4 80 -11 165 -15 85 -4 160 -10 165 -14 6
-4 52 -10 104 -14 52 -3 99 -10 105 -15 6 -5 45 -13 86 -17 41 -4 77 -11 80
-15 3 -5 38 -11 78 -15 40 -4 72 -10 72 -15 0 -4 34 -10 75 -14 41 -4 75 -11
75 -15 0 -4 36 -11 80 -14 44 -4 82 -11 85 -16 3 -5 41 -12 85 -16 44 -3 80
-10 80 -14 0 -5 35 -11 78 -15 42 -4 82 -11 87 -15 6 -4 39 -11 75 -16 l65 -8
-50 -7 c-27 -4 -120 -10 -205 -14 -190 -8 -345 -32 -329 -52 9 -9 8 -13 0 -13
-26 0 1 -18 36 -25 21 -4 43 -10 48 -15 14 -10 102 -23 149 -21 22 1 43 -3 47
-10 4 -8 81 -13 245 -16 155 -4 244 -9 253 -17 11 -8 15 -8 18 2 5 14 59 16
68 2 8 -13 152 -13 160 -1 7 13 88 10 97 -3 5 -8 8 -7 8 1 0 14 415 18 424 4
3 -5 36 -12 73 -16 38 -4 73 -11 79 -16 6 -5 44 -12 85 -15 41 -4 76 -10 79
-14 3 -5 38 -12 78 -15 39 -4 72 -11 72 -15 0 -4 36 -11 80 -14 44 -4 82 -11
85 -15 2 -5 34 -12 70 -16 36 -3 65 -10 65 -14 0 -5 34 -11 75 -14 41 -4 83
-11 92 -16 10 -6 47 -14 83 -20 104 -15 223 -39 253 -50 16 -6 40 -11 55 -11
15 0 45 -7 67 -15 22 -8 59 -14 82 -15 23 0 44 -4 48 -9 3 -5 31 -13 63 -17
31 -3 62 -10 68 -15 6 -5 37 -11 70 -15 32 -4 64 -10 69 -15 6 -4 35 -11 65
-15 30 -4 60 -10 65 -15 6 -4 35 -11 65 -14 30 -4 64 -10 75 -15 11 -5 72 -18
135 -29 63 -12 131 -26 150 -31 19 -5 62 -12 95 -16 33 -4 65 -10 70 -15 6 -4
42 -11 80 -15 39 -4 75 -11 81 -15 6 -5 47 -14 90 -19 73 -9 113 -15 344 -54
47 -7 88 -12 92 -10 4 3 9 0 12 -5 3 -5 45 -12 94 -16 48 -3 107 -10 132 -16
25 -5 88 -13 140 -19 52 -5 113 -12 134 -15 21 -3 93 -10 160 -15 67 -5 195
-16 286 -24 353 -32 407 -36 480 -36 41 0 90 -4 108 -9 18 -6 135 -13 260 -16
125 -4 241 -9 257 -11 123 -19 1203 -28 1455 -13 69 4 226 13 350 19 124 6
232 14 240 18 8 4 47 9 85 11 39 1 113 7 165 13 52 5 120 12 150 14 30 3 98
10 150 15 52 5 142 14 200 19 58 5 132 13 165 19 33 6 101 13 150 16 50 3 117
10 150 15 33 5 97 12 142 15 45 3 94 9 108 15 14 5 74 10 133 11 59 0 134 5
167 10 33 5 103 14 155 20 52 5 104 14 115 19 11 5 54 11 95 14 41 3 95 10
120 16 53 11 143 26 255 41 44 6 85 14 90 19 6 4 43 11 84 14 40 4 81 11 90
16 9 5 48 14 86 20 147 22 190 30 205 37 8 4 40 12 70 19 30 7 84 20 120 29
36 9 81 20 100 24 37 8 80 31 80 43 0 3 25 12 55 19 31 7 58 16 61 21 3 4 17
8 32 8 15 0 39 6 53 14 14 7 43 16 65 20 21 5 44 11 49 16 6 4 27 10 48 14 20
4 37 11 37 15 0 5 20 12 45 15 25 4 45 11 45 16 0 5 15 12 33 15 17 4 37 11
42 15 6 4 24 11 42 15 93 19 233 127 233 178 0 13 -7 30 -15 37 -8 7 -15 20
-15 30 0 30 -57 66 -120 76 -22 4 -43 11 -46 15 -3 5 -14 9 -25 9 -16 0 -17 3
-8 19 10 15 8 23 -7 44 -18 24 -99 67 -127 67 -6 0 -22 11 -35 25 -13 13 -40
27 -60 31 -20 4 -41 10 -47 14 -5 5 -32 11 -60 15 -27 4 -54 11 -60 15 -5 4
-29 11 -52 15 -24 4 -45 11 -48 15 -3 5 -30 12 -60 15 -31 4 -58 11 -60 15 -3
5 -30 12 -60 15 -30 4 -55 11 -55 15 0 5 -25 12 -55 15 -30 4 -58 11 -60 15
-3 5 -30 12 -60 15 -31 4 -58 11 -60 16 -3 4 -33 11 -66 15 -32 4 -62 10 -64
15 -3 4 -31 10 -63 14 -31 3 -66 10 -77 15 -11 5 -49 14 -85 19 -148 23 -204
34 -191 39 8 3 24 15 36 28 12 13 26 24 32 24 5 0 20 13 33 30 14 16 30 29 37
30 6 0 31 20 55 44 l44 44 107 7 c59 4 107 11 107 15 0 4 45 11 100 15 55 3
100 10 100 15 0 4 29 11 65 15 36 3 65 10 65 15 0 5 14 11 30 15 17 4 30 10
30 15 0 5 29 12 65 15 36 4 68 11 70 16 3 4 41 11 85 15 44 3 80 10 80 14 0 4
32 10 71 12 38 2 73 9 77 15 4 6 31 14 60 18 28 4 52 10 52 15 0 4 16 11 35
14 19 4 35 11 35 16 0 4 14 11 30 15 17 4 30 10 30 15 0 4 12 11 27 15 15 3
37 17 48 30 12 12 32 26 43 30 22 6 27 20 23 65 -3 35 -8 36 -35 11 -37 -35
-76 -26 -100 24 -10 22 -22 42 -27 43 -5 2 -9 8 -9 13 0 17 -294 305 -330 325
-82 43 -131 54 -245 53 -60 0 -132 -4 -160 -9 -27 -6 -90 -14 -140 -20 -49 -5
-110 -14 -135 -19 -25 -6 -85 -15 -135 -22 -230 -29 -318 -39 -415 -49 -58 -5
-132 -14 -165 -19 -57 -10 -173 -21 -405 -41 -58 -5 -139 -13 -180 -19 -41 -6
-113 -16 -160 -22 -142 -18 -195 -26 -251 -39 -92 -21 -279 -81 -285 -91 -3
-5 -11 -9 -19 -9 -16 0 -131 -55 -220 -105 -33 -19 -72 -39 -87 -46 -16 -6
-28 -15 -28 -20 0 -5 -5 -9 -11 -9 -13 0 -133 -72 -137 -82 -2 -5 -8 -8 -13
-8 -6 0 -41 -20 -79 -45 -38 -25 -74 -45 -79 -45 -6 0 -11 -4 -11 -9 0 -5 -13
-14 -30 -21 -16 -7 -30 -16 -30 -20 0 -4 -8 -11 -17 -14 -21 -7 -30 -13 -145
-89 -48 -31 -91 -57 -97 -57 -5 0 -11 -3 -13 -7 -4 -10 -65 -53 -74 -53 -3 0
-25 -12 -48 -28 -36 -24 -67 -39 -156 -74 -14 -6 -99 -14 -190 -19 -91 -5
-223 -12 -293 -15 -124 -7 -360 6 -472 26 -106 19 -160 32 -169 41 -6 5 -22 9
-36 9 -14 0 -35 7 -46 15 -10 8 -27 15 -37 15 -9 0 -25 4 -35 9 -9 5 -39 19
-67 31 -77 34 -319 152 -325 159 -3 3 -23 15 -45 26 -75 36 -173 104 -194 134
-22 31 -28 85 -11 96 6 4 13 -7 16 -25 8 -36 69 -103 135 -147 59 -41 164 -94
203 -104 44 -11 100 -33 107 -42 3 -4 22 -10 42 -14 35 -5 37 -4 37 21 0 14
-5 35 -12 46 -7 10 -10 21 -7 24 3 3 60 1 127 -5 167 -14 387 2 572 42 25 6
62 14 83 18 21 5 44 14 50 20 6 6 17 11 24 11 16 0 141 58 163 76 29 23 133
74 151 74 10 0 20 4 23 9 3 4 26 14 51 21 25 7 48 17 51 21 3 5 12 9 20 9 7 0
44 14 81 31 38 16 82 36 98 43 17 7 58 27 93 45 34 17 69 31 76 31 8 0 16 3
18 8 2 4 22 20 46 36 70 48 59 56 -77 56 -66 0 -122 4 -125 9 -10 16 23 21
139 21 64 0 137 6 167 14 29 7 109 19 178 25 69 7 188 18 265 26 77 8 167 17
200 20 33 3 92 9 130 15 65 9 154 18 535 55 187 19 375 33 575 46 88 5 178 11
200 14 22 2 96 7 165 10 140 6 467 30 635 47 61 5 153 14 205 19 52 5 151 15
220 24 69 8 149 18 177 21 40 5 62 2 90 -11 51 -24 54 -28 110 -132 77 -144
72 -139 116 -118 20 9 37 21 37 26 0 5 7 9 15 9 8 0 15 -7 15 -15 0 -8 6 -15
14 -15 10 0 13 14 12 55 -1 42 -5 55 -16 55 -13 0 -13 2 -1 9 8 5 11 16 8 25
-4 10 2 25 15 38 14 14 18 23 10 26 -17 5 -15 22 5 45 17 18 17 19 0 29 -17 9
-16 11 7 33 19 17 22 25 11 28 -14 6 -9 47 6 47 14 0 11 28 -3 34 -9 3 -8 8 5
16 9 6 17 17 17 25 0 7 6 16 13 18 7 3 5 6 -5 6 -22 1 -24 19 -4 27 9 3 17 27
22 60 3 30 10 54 15 54 4 0 11 23 15 50 4 28 10 50 15 50 4 0 11 25 14 55 4
30 11 55 16 55 5 0 9 14 9 30 0 17 -4 30 -10 30 -5 0 -12 11 -16 25 -8 31 -24
33 -24 2 0 -12 -9 -27 -19 -32 -86 -44 -131 -70 -131 -77 0 -4 -7 -8 -16 -8
-14 0 -16 8 -10 52 4 29 11 57 15 63 14 18 21 46 11 40 -6 -3 -10 -13 -10 -21
0 -8 -4 -14 -9 -14 -5 0 -12 -8 -15 -17 -11 -31 -32 -62 -58 -85 -61 -56 -133
-108 -147 -108 -5 0 -11 -3 -13 -8 -1 -4 -25 -25 -53 -47 -73 -59 -97 -78
-115 -95 -26 -24 -72 -54 -110 -72 -70 -33 -108 -48 -123 -48 -9 0 -18 -4 -21
-9 -4 -5 -24 -12 -46 -16 -22 -4 -42 -11 -45 -15 -3 -5 -27 -12 -53 -16 -26
-3 -51 -10 -57 -14 -5 -5 -37 -13 -70 -19 -54 -9 -131 -24 -265 -51 -25 -5
-64 -9 -88 -9 -23 -1 -50 -5 -60 -11 -19 -11 -184 -26 -452 -40 -96 -6 -222
-14 -280 -19 -149 -12 -631 -8 -784 8 -125 12 -130 12 -157 -8 -34 -25 -60
-28 -33 -3 10 9 24 24 31 32 10 14 7 15 -22 12 -53 -6 -169 33 -195 66 l-21
27 3 -30 4 -31 -81 27 c-153 51 -324 89 -399 89 -20 0 -36 3 -36 8 0 4 -21 18
-47 31 -27 12 -56 27 -65 32 -24 12 -92 29 -163 41 -33 5 -74 13 -90 19 -17 5
-96 13 -175 19 -80 6 -185 14 -235 19 -49 5 -142 10 -205 10 -119 1 -423 -30
-495 -49 -232 -65 -420 -176 -601 -357 -44 -44 -105 -111 -134 -149 -30 -38
-57 -71 -60 -74 -3 -3 -20 -24 -39 -47 -19 -26 -41 -43 -53 -43 -20 0 -128 99
-128 117 0 5 -11 20 -25 33 -14 13 -25 32 -25 42 0 10 -7 18 -15 18 -8 0 -15
6 -15 13 0 8 -9 22 -20 32 -11 10 -20 24 -20 32 0 7 -7 13 -15 13 -9 0 -19 8
-22 18 -8 21 -30 43 -40 41 -4 -1 -12 7 -18 17 -14 26 -32 44 -43 44 -5 0 -17
9 -27 20 -10 11 -22 20 -27 20 -16 0 -69 64 -88 105 -10 22 -26 65 -36 95 -11
30 -22 57 -26 60 -3 3 -10 18 -14 34 -4 17 -13 41 -20 55 -8 14 -14 34 -14 44
0 9 -4 17 -10 17 -5 0 -12 16 -16 35 -3 19 -10 35 -15 35 -5 0 -9 6 -9 13 -1
6 -9 30 -20 52 -11 22 -19 48 -20 58 0 9 -4 17 -9 17 -5 0 -12 12 -15 26 -4
14 -11 31 -17 37 -5 7 -18 24 -30 40 -11 15 -27 27 -35 27 -8 0 -14 5 -14 10
0 6 -6 10 -13 10 -12 0 -26 9 -74 50 -7 5 -17 10 -22 10 -5 0 -16 6 -23 13 -7
7 -24 18 -38 25 -27 13 -62 34 -70 42 -3 3 -18 12 -33 20 -16 8 -41 33 -57 56
-54 80 -75 109 -82 112 -5 2 -8 10 -8 18 0 8 -4 14 -8 14 -5 0 -23 19 -39 43
-17 23 -54 66 -82 96 -28 29 -51 57 -51 62 0 5 -3 9 -7 9 -5 0 -37 27 -73 61
-36 33 -84 75 -107 92 -23 18 -42 37 -42 42 0 9 67 43 174 89 17 7 50 22 75
34 77 35 230 83 345 109 114 25 178 27 216 8 43 -23 169 -117 169 -127 0 -5 5
-8 11 -8 5 0 24 -13 42 -30 18 -16 35 -30 38 -30 3 0 17 -9 30 -21 13 -11 52
-42 87 -67 34 -25 62 -49 62 -54 0 -4 7 -8 15 -8 8 0 15 -4 15 -8 0 -4 20 -21
45 -36 25 -16 45 -33 45 -37 0 -5 7 -9 15 -9 8 0 15 -3 15 -7 0 -5 17 -19 38
-33 20 -13 63 -44 94 -67 31 -24 59 -43 63 -43 4 0 13 -7 22 -15 21 -22 150
-105 162 -105 5 0 11 -4 13 -8 8 -21 161 -87 273 -118 53 -15 471 -37 950 -49
360 -9 492 -33 665 -120 86 -43 132 -69 175 -98 22 -15 45 -27 51 -27 7 0 14
-3 16 -7 5 -11 66 -53 77 -53 5 0 11 -3 13 -7 5 -11 66 -53 77 -53 5 0 11 -3
13 -7 5 -11 66 -53 77 -53 5 0 11 -3 13 -7 5 -11 66 -53 77 -53 5 0 11 -3 13
-7 4 -11 55 -46 228 -160 80 -52 157 -104 172 -114 15 -11 32 -19 39 -19 6 0
23 -6 37 -14 29 -15 84 -36 145 -56 77 -24 250 -34 612 -35 366 0 743 16 820
35 22 5 56 10 75 10 54 0 322 49 416 76 28 7 57 14 65 14 19 0 220 65 250 81
13 6 31 16 39 21 8 4 25 12 37 18 12 5 44 31 70 58 61 63 117 175 157 312 8
30 22 78 30 105 8 28 17 79 20 115 l5 65 -12 -53 c-7 -29 -22 -65 -34 -78 -13
-14 -23 -28 -23 -31 0 -14 -159 -160 -190 -175 -113 -54 -220 -87 -375 -115
-125 -22 -184 -26 -200 -13 -16 13 -33 76 -45 170 -5 36 -14 79 -19 95 l-9 30
-1 -40 c-1 -61 -21 -29 -31 51 -22 166 -86 394 -111 394 -4 0 -9 12 -12 28
l-5 27 17 -25 c9 -13 24 -33 34 -42 9 -10 17 -22 17 -27 0 -5 6 -13 13 -19 6
-6 27 -41 45 -79 19 -37 38 -76 43 -85 5 -10 13 -34 18 -55 6 -21 15 -58 22
-83 53 -212 55 -214 111 -205 35 6 66 22 173 88 43 26 112 83 161 132 86 86
134 187 180 377 26 103 27 108 50 102 32 -8 31 10 -2 33 -59 41 -94 76 -94 94
0 10 -4 19 -9 19 -5 0 -12 14 -16 30 -4 17 -11 30 -16 30 -5 0 -9 8 -10 18 0
13 -2 12 -9 -5 -5 -13 -13 -23 -17 -23 -13 1 -73 88 -73 105 0 8 13 40 29 70
31 57 48 146 37 190 l-7 25 -62 -50 c-34 -28 -71 -52 -82 -55 -11 -2 -60 -10
-110 -19 -81 -13 -149 -21 -490 -57 -55 -6 -163 -14 -240 -19 -77 -5 -187 -14
-245 -19 -121 -12 -400 -27 -745 -41 -132 -5 -323 -14 -425 -20 -287 -16 -743
-13 -880 5 -63 9 -167 23 -230 31 -137 18 -300 40 -430 59 -52 8 -149 21 -215
30 -66 9 -163 22 -215 30 -119 17 -280 39 -435 60 -66 8 -167 22 -225 30 -58
8 -123 15 -146 15 -22 0 -90 7 -150 16 -140 20 -800 24 -879 6 -27 -7 -77 -16
-110 -21 -56 -9 -79 -13 -195 -41 -25 -6 -65 -16 -90 -21 -25 -5 -54 -13 -65
-18 -11 -5 -49 -16 -85 -26 -36 -9 -80 -23 -98 -31 -18 -8 -40 -14 -48 -14 -9
0 -75 -29 -147 -65 -103 -52 -137 -64 -159 -60 -15 4 -28 10 -28 15 0 4 -12
11 -27 15 -15 3 -30 10 -33 14 -4 7 -81 45 -192 95 -20 9 -45 16 -55 16 -10 0
-23 4 -28 9 -6 5 -37 15 -70 21 -207 42 -316 41 -515 -4 l-65 -15 -32 37 c-18
20 -35 45 -39 55 -3 9 -10 17 -15 17 -5 0 -9 5 -9 10 0 10 -37 68 -51 80 -3 3
-9 12 -13 20 -11 23 -27 50 -78 127 -27 39 -48 76 -48 82 0 6 -4 11 -9 11 -5
0 -11 8 -15 18 -3 9 -15 31 -26 47 -11 17 -25 42 -31 58 -6 15 -15 27 -19 27
-5 0 -11 14 -15 30 -4 17 -10 30 -15 30 -4 0 -10 10 -13 23 -4 12 -17 63 -31
112 -14 50 -25 98 -26 108 0 30 -69 177 -82 177 -5 0 -8 5 -8 10 0 12 -41 73
-52 78 -5 2 -8 8 -8 13 0 10 -14 28 -72 90 -54 59 -72 109 -37 109 5 0 18 9
29 20 11 11 16 20 12 20 -5 0 -19 -9 -32 -20 -36 -31 -54 -25 -111 41 -30 33
-69 76 -86 95 -18 19 -33 37 -33 39 0 11 -631 645 -643 645 -4 0 -3 -8 2 -18z
m-6355 -2168 c33 -9 63 -19 66 -22 3 -4 18 -14 33 -21 82 -43 169 -164 248
-346 26 -61 79 -248 78 -280 0 -14 -16 -28 -57 -48 -32 -15 -82 -43 -111 -62
-29 -19 -55 -35 -57 -35 -5 0 -42 -31 -65 -54 -25 -26 -31 -17 -17 28 14 46
97 133 192 201 l68 50 -6 47 c-5 47 -10 57 -51 102 -16 18 -19 29 -13 52 6 21
1 41 -17 79 -26 52 -46 86 -55 95 -3 3 -15 17 -26 32 l-21 27 -18 -34 -19 -33
-43 21 -44 22 3 58 c2 31 0 57 -4 57 -5 0 -8 -20 -8 -44 0 -25 -4 -48 -10 -51
-5 -3 -10 -32 -10 -64 0 -32 -7 -102 -15 -157 -8 -54 -15 -119 -15 -143 0 -39
-2 -42 -16 -30 -14 12 -16 38 -13 209 l4 195 -32 3 -33 3 0 -174 c0 -133 -3
-181 -14 -202 l-15 -28 -6 29 c-4 16 -11 45 -16 64 -5 19 -9 71 -10 115 0 84
-11 171 -23 182 -4 4 -20 -1 -37 -11 -29 -17 -31 -17 -44 1 -25 32 -18 59 21
82 19 12 42 21 50 21 8 0 13 4 9 10 -17 28 -132 -58 -197 -147 -41 -56 -47
-71 -42 -98 3 -18 2 -35 -4 -39 -5 -3 -7 6 -5 22 4 26 4 26 -11 8 -9 -11 -16
-26 -16 -33 0 -7 -4 -13 -9 -13 -5 0 -12 -18 -16 -40 -4 -22 -11 -40 -17 -40
-39 0 53 -135 164 -242 15 -15 28 -29 28 -32 0 -3 8 -15 18 -25 34 -39 42 -50
42 -66 0 -8 -7 -15 -15 -15 -8 0 -15 4 -15 9 0 4 -17 20 -38 33 -21 14 -57 44
-81 67 -23 22 -45 41 -47 41 -2 0 -12 8 -22 18 -9 9 -33 29 -51 44 l-35 26 18
64 c10 35 25 77 32 95 8 17 14 36 14 42 0 21 64 146 102 197 77 106 144 158
233 180 67 16 68 16 139 -2z m10931 -18 c128 -24 254 -45 295 -49 19 -3 60 -9
90 -15 30 -6 100 -18 155 -27 55 -9 132 -23 170 -30 39 -7 113 -21 165 -30 52
-9 127 -22 165 -30 39 -7 106 -21 150 -29 78 -15 123 -23 275 -52 41 -8 102
-19 135 -24 33 -6 73 -15 89 -20 16 -6 40 -10 54 -10 13 0 56 -7 96 -16 39 -8
103 -21 141 -29 216 -43 234 -48 240 -72 3 -13 10 -23 15 -23 14 0 12 -28 -2
-33 -7 -2 -28 0 -46 4 -18 4 -45 4 -60 0 -16 -5 -52 -2 -87 5 -163 37 -193 43
-235 50 -25 3 -53 11 -63 16 -11 6 -29 6 -45 0 -28 -9 -55 -6 -48 7 3 4 -13
12 -35 18 -32 8 -43 8 -54 -3 -7 -8 -30 -14 -49 -14 -34 0 -47 -15 -29 -34 7
-7 18 -35 58 -151 50 -142 65 -188 65 -195 0 -4 -15 -15 -33 -25 -27 -14 -38
-15 -55 -6 -11 6 -36 11 -55 11 -19 0 -49 3 -67 7 l-33 6 24 19 24 18 -25 20
c-14 11 -35 23 -47 26 -13 3 -23 10 -23 15 0 5 -10 14 -22 19 -34 15 -59 32
-87 61 -51 50 -109 89 -136 89 -14 0 -36 5 -47 11 -35 19 -68 18 -68 -1 0 -10
7 -23 15 -30 8 -7 15 -19 15 -26 0 -8 4 -14 9 -14 5 0 13 -9 16 -20 4 -11 33
-47 65 -81 54 -56 61 -60 93 -54 24 5 38 2 50 -9 8 -9 20 -16 25 -16 6 0 12
-7 16 -15 7 -20 -42 -20 -89 -1 -20 9 -35 11 -37 5 -6 -19 -93 36 -156 98 -43
43 -70 60 -39 25 10 -10 17 -23 17 -29 0 -6 7 -16 15 -23 8 -7 15 -25 15 -41
0 -42 -26 -37 -34 6 -4 19 -11 35 -16 35 -5 0 -10 6 -13 13 -2 6 -2 0 0 -14 2
-16 -1 -29 -10 -32 -17 -6 -157 1 -177 10 -8 4 -44 12 -80 19 -103 20 -163 38
-190 57 -13 9 -36 17 -50 16 l-25 0 25 -12 c14 -6 27 -14 30 -17 11 -12 82
-40 100 -40 11 0 20 -4 20 -9 0 -5 8 -12 18 -14 46 -12 -62 4 -123 18 -38 9
-106 22 -150 30 -44 8 -89 19 -100 24 -32 13 -87 29 -128 37 -43 7 -54 19 -37
39 18 22 7 41 -12 21 -19 -18 -78 -22 -78 -5 0 8 -16 10 -50 5 -29 -4 -50 -3
-50 3 0 5 -9 7 -20 4 -10 -3 -26 2 -35 11 -9 9 -22 16 -29 16 -12 0 -101 61
-180 122 -54 42 -135 131 -163 179 -10 16 -21 29 -25 29 -4 0 -8 5 -8 11 0 6
-9 22 -20 36 -15 19 -19 35 -14 58 6 32 6 32 -58 48 -35 9 -72 18 -83 20 -11
3 4 5 33 6 29 0 60 5 70 11 56 32 512 36 677 6z m4296 -546 c42 -90 70 -156
94 -220 10 -25 22 -55 28 -67 11 -24 152 -153 167 -153 5 0 14 8 19 18 8 13
10 6 11 -32 0 -43 2 -48 20 -43 15 4 20 0 20 -13 0 -10 2 -25 6 -33 3 -10 -10
-21 -43 -37 -93 -44 -136 -53 -280 -59 -141 -6 -142 -6 -148 17 -3 12 -9 22
-14 22 -5 0 -12 14 -16 30 -4 17 -11 30 -16 30 -5 0 -9 8 -9 17 0 9 -13 31
-29 48 -28 30 -46 90 -58 203 -4 33 -2 42 11 42 12 0 16 15 19 78 l3 77 2 -90
c3 -131 35 -285 75 -360 l14 -27 34 43 c18 24 36 46 39 49 4 3 10 12 13 20 4
8 16 29 27 45 40 61 51 86 46 103 -3 9 -12 51 -20 92 -27 137 -38 185 -46 195
-4 6 -11 28 -15 50 l-7 40 19 -25 c10 -14 25 -41 34 -60z m-2112 -79 c21 -14
7 -25 -66 -55 -37 -15 -76 -32 -86 -37 -28 -15 -189 -70 -227 -77 -19 -4 -45
-6 -58 -4 -19 3 -21 6 -11 18 6 8 17 14 23 14 6 0 38 14 71 30 33 16 66 30 73
30 6 0 12 5 12 10 0 6 6 10 13 10 6 0 41 16 77 34 66 35 147 47 179 27z
m-13604 -152 c33 -25 76 -54 95 -65 19 -10 37 -22 40 -25 5 -5 60 -32 130 -62
29 -13 65 -20 132 -26 11 -1 48 -71 47 -89 -1 -11 -4 -8 -9 8 -4 14 -8 19 -9
13 -1 -17 -21 -17 -21 0 0 16 -47 33 -115 42 -84 10 -163 38 -288 101 -37 19
-73 32 -79 28 -8 -5 -9 8 -5 47 4 30 7 63 7 74 0 11 3 15 8 10 4 -6 34 -31 67
-56z m9045 17 c88 -20 168 -53 235 -96 17 -11 36 -23 43 -26 49 -24 262 -239
262 -264 0 -5 3 -10 8 -12 11 -5 52 -66 52 -78 0 -5 4 -10 9 -10 5 0 14 -12
20 -27 5 -16 21 -48 34 -73 13 -25 32 -63 42 -85 10 -22 23 -51 30 -65 6 -14
20 -52 29 -85 10 -33 23 -68 28 -79 5 -10 13 -39 18 -65 5 -25 13 -64 18 -86
40 -169 49 -467 19 -655 -19 -121 -36 -206 -47 -235 -5 -11 -19 -54 -31 -95
-13 -41 -27 -76 -31 -78 -5 -2 -8 -9 -8 -15 0 -14 -55 -124 -71 -144 -6 -7
-17 -13 -23 -13 -8 0 -8 2 1 8 6 4 15 20 18 35 4 15 11 27 15 27 5 0 11 14 15
30 4 17 11 30 16 30 5 0 12 18 15 40 4 22 10 40 15 40 4 0 11 17 15 38 4 20
10 42 14 47 5 6 11 28 15 50 4 22 11 45 16 50 23 30 51 446 35 511 -6 22 -12
24 -64 24 -31 0 -88 -7 -127 -16 -46 -10 -144 -17 -290 -20 -120 -3 -222 -9
-225 -14 -3 -5 -12 5 -19 23 -18 40 -34 51 -43 29 -5 -14 -7 -14 -7 4 -1 36
-48 114 -68 114 -16 0 -17 -32 -1 -48 9 -9 9 -12 0 -12 -20 0 -14 -65 8 -90
28 -32 25 -34 -9 -9 -24 18 -32 19 -52 9 l-24 -13 22 24 c15 17 22 40 25 82 3
61 2 63 -25 43 -14 -11 -15 -15 -5 -20 7 -3 1 -3 -14 0 -21 5 -28 2 -28 -10 0
-9 -7 -16 -15 -16 -20 0 -20 39 0 46 8 4 13 10 10 14 -2 4 7 20 20 34 19 20
31 25 46 21 15 -5 19 -4 15 4 -4 6 -2 11 3 11 6 0 11 -4 11 -10 0 -5 7 -7 15
-4 8 3 29 -9 51 -30 32 -31 35 -38 23 -53 -12 -15 -12 -16 7 -11 17 4 24 -2
39 -37 l17 -43 57 5 c31 3 60 9 65 14 6 5 24 9 42 9 17 0 54 6 80 14 135 39
162 46 175 46 13 0 179 50 242 72 25 10 27 14 26 67 0 31 -8 81 -18 111 -17
55 -17 55 -55 53 -21 -2 -52 -9 -69 -18 -16 -8 -37 -15 -44 -15 -8 0 -27 -6
-41 -13 -15 -8 -42 -21 -60 -30 -19 -9 -38 -17 -43 -17 -5 0 -42 -16 -83 -35
-41 -19 -80 -35 -86 -35 -5 0 -10 -4 -10 -10 0 -5 -7 -10 -15 -10 -11 0 -15
12 -15 45 0 33 4 45 15 45 8 0 15 4 15 8 0 9 155 112 169 112 5 0 11 3 13 8 3
7 12 12 140 79 44 23 68 43 72 57 6 23 -4 68 -22 102 -6 10 -23 45 -38 77 -15
31 -31 57 -36 57 -5 0 -6 5 -2 11 4 8 -1 9 -15 4 -21 -6 -22 -4 -16 27 5 25 2
38 -9 47 -9 8 -16 20 -16 27 0 8 -4 14 -8 14 -4 0 -16 15 -27 33 -25 42 -170
187 -187 187 -11 0 -11 -2 0 -9 10 -6 10 -10 -3 -21 -8 -7 -15 -18 -15 -25 0
-26 -28 -22 -108 18 -86 42 -91 49 -76 105 6 20 11 22 37 16 16 -3 56 -22 89
-41 33 -19 62 -33 65 -30 2 3 -5 8 -16 12 -12 3 -21 10 -21 15 0 4 -11 11 -25
14 -14 4 -25 10 -25 15 0 5 -13 12 -30 16 -16 4 -30 11 -30 16 0 5 -13 9 -30
9 -35 0 -32 10 -55 -185 -9 -77 -23 -181 -31 -231 -8 -49 -14 -106 -14 -126 0
-39 -14 -51 -44 -36 -18 10 -19 21 -12 258 l7 247 -23 7 c-13 3 -42 6 -65 6
l-43 0 -2 -92 c-2 -51 -3 -149 -4 -218 -1 -127 -8 -179 -28 -192 -21 -14 -36
-8 -36 14 0 12 -4 35 -9 52 -10 32 -42 336 -41 395 0 31 -1 33 -27 26 -16 -4
-44 -11 -63 -15 -19 -3 -45 -13 -57 -20 -12 -8 -23 -12 -25 -10 -26 40 -35 70
-25 77 23 16 83 42 135 58 28 9 52 19 52 22 0 21 -204 -48 -230 -77 -3 -3 -21
-17 -40 -30 -65 -44 -200 -192 -200 -218 0 -6 -4 -12 -8 -14 -18 -7 -87 -141
-108 -208 -5 -17 20 -46 91 -105 46 -38 95 -80 159 -135 69 -59 156 -154 156
-169 0 -19 -20 -52 -20 -33 0 6 -5 12 -11 12 -6 0 -105 63 -220 140 -115 77
-212 140 -214 140 -9 0 -32 -56 -40 -95 -21 -113 -14 -128 75 -172 8 -4 47
-25 85 -48 95 -56 259 -135 279 -135 9 0 16 -4 16 -10 0 -5 16 -12 37 -16 20
-4 48 -13 62 -20 14 -8 36 -14 48 -14 12 0 24 -4 28 -9 3 -6 27 -13 53 -16 82
-12 112 -26 121 -60 10 -35 -5 -60 -20 -33 -15 26 -67 46 -139 53 -80 7 -165
27 -290 66 -84 27 -116 38 -195 69 -37 15 -120 51 -137 61 -31 16 -46 10 -57
-22 -13 -38 -15 -199 -2 -199 5 0 9 -48 8 -107 -1 -60 2 -144 5 -188 l7 -80
-15 75 c-50 258 -41 604 23 840 67 248 176 455 316 594 129 129 221 183 387
225 55 14 199 12 270 -3z m-8100 -146 l0 -70 -33 0 c-17 0 -48 -5 -67 -10 -64
-20 -215 -38 -252 -32 -23 5 -44 17 -58 35 -31 39 -44 34 -37 -15 2 -24 3 -37
0 -30 -3 6 -11 12 -19 12 -10 0 -11 6 -5 23 12 31 -1 51 -29 44 -19 -5 -21 -3
-14 26 7 33 39 66 65 67 9 0 24 -11 33 -25 9 -14 23 -25 30 -25 15 0 26 -21
26 -51 0 -23 15 -24 54 -4 15 8 36 15 45 15 10 0 26 7 37 15 10 8 26 15 35 15
16 0 32 7 129 53 30 14 56 26 58 27 1 0 2 -31 2 -70z m-486 -229 l23 -22 -28
-29 c-16 -16 -29 -36 -29 -44 0 -9 -4 -16 -10 -16 -5 0 -10 -7 -10 -16 0 -9
-6 -28 -13 -42 -8 -15 -21 -42 -30 -60 -9 -19 -17 -38 -17 -44 0 -5 -7 -26
-16 -46 -9 -21 -22 -52 -30 -70 -8 -18 -14 -41 -14 -51 0 -10 -7 -32 -15 -47
-8 -16 -15 -36 -15 -45 0 -9 -7 -30 -15 -45 -8 -16 -15 -38 -15 -50 0 -11 -5
-25 -10 -30 -6 -6 -13 -33 -16 -61 -6 -44 -4 -53 17 -73 24 -22 24 -22 2 -11
-13 6 -23 15 -23 19 0 4 -14 22 -31 40 -30 32 -31 33 -15 66 9 19 16 39 16 45
0 6 4 19 10 29 12 21 40 98 47 132 3 14 10 30 15 36 5 7 14 34 21 61 11 41 11
55 -1 83 -16 39 -10 72 20 102 18 18 22 19 32 6 14 -19 19 -13 64 60 32 52 41
92 22 92 -15 0 -40 -26 -85 -85 -20 -27 -40 -52 -44 -55 -11 -9 -50 -82 -107
-200 -30 -63 -60 -124 -67 -135 -6 -11 -13 -36 -17 -55 l-5 -35 -18 40 c-10
22 -22 48 -27 57 -13 24 -13 28 4 28 13 0 46 56 46 78 0 6 3 12 8 14 4 2 20
28 35 58 16 30 37 69 48 85 28 45 39 73 39 103 0 31 54 86 76 78 8 -3 22 3 31
12 10 10 35 30 56 45 20 16 37 34 37 42 0 23 25 23 28 0 2 -13 14 -32 26 -44z
m116 -66 l8 -30 1 38 c1 25 6 37 15 37 9 0 12 -7 9 -19 -3 -11 3 -42 12 -70
16 -50 11 -96 -7 -55 -6 13 -7 8 -3 -16 3 -19 11 -48 19 -65 8 -16 22 -50 32
-75 9 -25 25 -63 35 -86 11 -22 19 -46 19 -52 0 -7 5 -12 10 -12 6 0 10 -6 10
-14 0 -17 38 -104 48 -110 13 -8 28 7 40 39 6 17 11 24 11 16 1 -14 -39 -102
-50 -111 -4 -3 -10 -15 -14 -28 -6 -22 -7 -22 -21 -5 -7 10 -14 24 -14 31 0
13 -32 91 -50 124 -6 10 -10 25 -10 34 0 9 -6 28 -14 42 -24 48 -46 102 -46
116 0 8 -6 19 -13 25 -11 8 -17 5 -27 -17 -12 -25 -13 -26 -21 -7 -14 30 0
-92 16 -145 7 -25 20 -70 29 -100 35 -125 60 -196 73 -206 10 -9 8 -15 -13
-30 -14 -10 -32 -24 -39 -31 -7 -7 -24 -15 -39 -19 -14 -3 -26 -10 -26 -15 0
-5 -7 -9 -16 -9 -12 0 -8 7 12 22 16 13 31 26 32 30 2 5 11 8 19 8 12 0 14 7
8 38 -4 20 -10 42 -15 47 -4 6 -11 28 -15 50 -4 22 -10 44 -13 50 -7 11 -28
92 -48 192 -2 12 -11 28 -19 36 -17 17 -20 193 -5 297 5 36 7 73 4 83 -3 10 0
17 8 17 7 0 20 10 27 23 l14 22 10 -30 c5 -16 12 -43 17 -60z m925 -5 c6 -4
69 -11 140 -15 72 -4 135 -11 140 -15 6 -4 59 -11 120 -15 60 -3 114 -10 120
-13 5 -4 51 -12 100 -19 50 -7 126 -17 170 -23 44 -6 87 -14 95 -19 9 -5 49
-12 90 -16 41 -4 80 -11 85 -15 6 -4 45 -11 87 -15 43 -4 80 -10 83 -15 2 -4
41 -11 85 -14 44 -4 80 -11 80 -16 0 -4 38 -11 85 -15 47 -4 85 -10 85 -14 0
-4 37 -12 83 -18 203 -28 227 -34 227 -57 0 -16 3 -18 9 -7 7 10 26 12 90 6
44 -4 81 -11 81 -15 0 -4 38 -11 85 -15 47 -4 85 -10 85 -14 0 -5 32 -11 71
-15 39 -3 77 -10 83 -14 10 -6 42 -12 231 -42 39 -6 77 -15 86 -20 8 -4 47
-11 85 -15 38 -4 74 -11 79 -15 6 -4 43 -11 83 -15 39 -4 72 -11 72 -15 0 -4
36 -11 80 -15 44 -4 82 -11 85 -15 3 -4 36 -11 75 -15 39 -4 72 -11 75 -15 3
-4 38 -11 77 -15 40 -4 78 -11 83 -15 6 -4 39 -11 75 -15 36 -4 70 -11 75 -15
6 -4 43 -11 83 -15 39 -4 72 -11 72 -15 0 -4 34 -11 75 -15 41 -4 77 -10 80
-15 3 -4 36 -11 75 -15 38 -4 70 -10 70 -15 0 -4 32 -10 72 -14 39 -3 76 -10
82 -15 6 -5 40 -12 76 -15 35 -4 69 -11 75 -14 5 -4 42 -12 80 -19 39 -6 106
-19 150 -28 44 -9 110 -21 148 -27 37 -6 67 -14 67 -18 0 -4 29 -11 65 -15 69
-7 72 -11 59 -62 -4 -16 -14 -23 -33 -24 -23 -2 -24 -2 -3 -6 29 -6 28 -11
-10 -46 -30 -27 -37 -28 -83 -22 -141 20 -206 31 -350 61 -38 8 -81 14 -94 14
-13 0 -53 6 -90 14 -36 8 -109 22 -161 31 -177 30 -275 47 -345 60 -38 7 -113
21 -165 29 -188 33 -276 48 -345 61 -38 7 -113 21 -165 29 -195 34 -277 48
-345 61 -114 22 -196 36 -255 45 -30 4 -75 12 -100 18 -25 6 -90 18 -145 27
-55 9 -131 23 -170 30 -98 19 -194 36 -235 42 -19 3 -38 10 -41 15 -8 13 14
75 33 91 10 8 13 21 7 42 l-7 30 -1 -27 c-1 -18 -7 -28 -17 -28 -8 0 -13 -4
-9 -9 7 -13 -26 -89 -41 -95 -6 -2 -29 -1 -50 4 -55 12 -161 31 -219 39 -27 5
-79 13 -115 20 -36 7 -96 19 -135 26 -38 7 -97 18 -130 25 -109 20 -229 42
-283 50 -29 5 -74 13 -100 19 -26 5 -87 17 -137 26 -49 9 -121 22 -160 30 -79
15 -235 42 -310 53 -37 5 -52 13 -59 28 -8 18 -27 24 -123 39 l-113 19 0 71 0
71 63 -4 c34 -2 67 -8 72 -12z m5077 -924 c24 -8 59 -17 78 -21 19 -4 40 -11
45 -15 6 -4 25 -11 43 -15 18 -4 45 -13 60 -21 15 -8 32 -14 38 -14 6 0 17 -7
24 -14 10 -13 1 -14 -62 -10 l-73 4 45 -13 c44 -14 112 -29 195 -46 66 -12
136 -43 204 -88 72 -48 71 -52 -7 -23 -29 11 -62 20 -73 20 -12 0 -51 6 -88
14 -36 8 -109 22 -161 31 -233 39 -279 47 -339 61 -35 8 -66 16 -69 19 -9 8
28 55 43 55 11 0 15 12 15 45 0 52 9 55 82 31z m2340 -123 c26 -46 65 -73 107
-73 36 1 81 28 81 49 0 6 4 11 8 11 5 0 14 10 19 23 9 19 10 16 9 -19 0 -23 6
-55 13 -70 8 -16 19 -42 26 -59 18 -42 68 -141 99 -195 14 -25 32 -58 40 -75
8 -16 33 -61 56 -100 22 -38 48 -85 57 -102 9 -18 20 -33 24 -33 4 0 10 -13
14 -30 4 -16 10 -30 13 -30 4 0 18 -25 32 -55 14 -30 28 -55 32 -55 3 0 9 -13
13 -30 4 -16 11 -30 17 -30 6 0 -1 -9 -15 -20 -26 -21 -67 -27 -67 -11 0 5 -6
16 -12 23 -7 7 -44 76 -83 153 -38 77 -73 142 -77 145 -3 3 -10 18 -13 33 -4
15 -10 27 -14 27 -3 0 -15 20 -26 45 -11 25 -23 45 -27 45 -4 0 -14 -12 -22
-28 -8 -15 -22 -35 -33 -44 -17 -16 -19 -14 -36 60 -17 71 -17 79 -3 107 17
33 22 115 6 115 -5 0 -12 23 -16 50 -4 28 -12 50 -18 50 -22 0 -36 -24 -36
-59 1 -47 24 -194 39 -251 28 -100 85 -276 93 -284 4 -6 8 -17 8 -25 0 -9 7
-29 15 -45 8 -15 15 -33 15 -38 0 -9 33 -90 50 -119 5 -9 12 -32 15 -51 6 -33
5 -35 -25 -42 -36 -7 -50 -1 -50 20 0 8 -4 14 -10 14 -5 0 -10 10 -10 23 0 12
-7 35 -15 51 -8 15 -15 33 -15 38 0 6 -6 24 -14 41 -8 18 -29 79 -46 137 -18
58 -34 111 -36 119 -3 8 -12 11 -28 7 l-23 -6 -1 241 c-1 165 -5 246 -13 255
-19 23 -65 17 -88 -12 -23 -29 -137 -262 -193 -394 -6 -14 -18 -41 -26 -60
-20 -45 -42 -97 -58 -135 -7 -16 -20 -46 -28 -67 -9 -20 -16 -41 -16 -47 0 -6
-4 -11 -10 -11 -5 0 -12 -16 -16 -35 -3 -19 -10 -35 -14 -35 -4 0 -11 -14 -16
-30 l-9 -30 -34 21 c-31 19 -33 23 -28 62 3 23 11 43 16 45 6 2 11 8 11 14 0
6 23 58 51 117 28 58 65 134 81 168 l29 61 -30 43 c-17 23 -31 50 -31 61 0 18
47 78 61 78 4 0 18 -18 30 -40 l22 -40 41 68 c22 37 43 69 48 70 4 2 8 8 8 14
0 5 11 24 25 42 31 40 32 60 3 80 -21 15 -25 12 -115 -79 -51 -52 -93 -99 -93
-105 0 -5 -4 -10 -8 -10 -8 0 -82 -95 -82 -105 0 -3 -9 -15 -20 -27 -11 -12
-26 -34 -32 -50 -7 -15 -16 -28 -21 -28 -4 0 -12 -10 -17 -22 -12 -28 -31 -57
-47 -76 -7 -7 -13 -18 -13 -23 0 -5 -13 -28 -30 -51 -16 -22 -30 -45 -30 -50
0 -10 -25 -38 -34 -38 -3 0 -23 17 -46 39 -37 35 -39 39 -20 44 11 3 27 20 35
39 15 33 36 69 45 78 14 14 50 70 50 79 0 5 4 11 9 13 12 4 81 96 81 107 0 5
4 11 8 13 5 2 26 22 47 46 34 38 38 48 36 91 -1 43 2 49 26 61 16 8 36 21 46
29 23 19 33 7 19 -24 -6 -14 -8 -25 -3 -25 5 0 11 4 13 8 3 8 96 81 170 135
14 10 31 37 39 60 12 38 14 39 19 17 3 -14 13 -39 22 -57z m8323 -287 c0 -14
-15 -23 -60 -36 -106 -31 -178 -49 -255 -65 -41 -9 -88 -20 -105 -25 -16 -5
-70 -16 -120 -25 -49 -8 -126 -22 -170 -30 -248 -47 -502 -86 -585 -89 -52 -3
-79 -3 -60 0 19 2 76 11 125 19 50 9 133 22 185 31 127 21 241 42 490 91 41 8
98 21 126 29 28 8 61 14 73 14 12 0 31 5 42 11 11 6 41 14 67 19 74 14 150 34
158 43 4 4 16 7 26 7 10 0 21 7 25 15 8 22 38 14 38 -9z"/>
<path d="M18335 8530 l-49 -18 39 -11 c22 -6 59 -11 83 -11 23 0 42 -4 42 -10
0 -6 29 -10 66 -10 36 0 73 -4 82 -9 17 -8 102 0 133 13 14 6 18 -2 24 -53 9
-75 20 -86 87 -77 79 11 206 -3 212 -23 3 -9 4 -5 3 9 -2 21 2 25 26 25 15 -1
27 2 27 6 0 9 65 21 125 22 44 1 161 -25 174 -39 13 -13 -31 -36 -68 -36 -27
1 -41 -4 -41 -12 0 -14 50 -26 112 -26 20 0 40 -4 43 -10 3 -5 35 -10 71 -10
50 0 64 3 64 15 0 20 18 19 60 -4 25 -13 43 -16 65 -10 16 4 68 9 115 11 70 2
85 0 85 -12 0 -8 7 -16 15 -16 8 -1 21 -2 28 -3 7 0 11 -5 8 -10 -3 -5 2 -15
10 -22 15 -12 16 -10 9 20 l-7 33 93 -6 c61 -4 87 -3 74 3 -17 8 -18 10 -2 10
9 1 17 5 17 10 0 5 -34 12 -75 16 -41 4 -75 10 -75 14 0 5 -31 11 -70 15 -38
3 -80 11 -94 17 -20 9 -32 8 -58 -4 -30 -14 -42 -14 -98 -3 -82 18 -238 43
-310 51 -30 4 -59 10 -65 14 -15 12 -106 29 -346 65 -53 8 -106 19 -117 25
-11 6 -47 11 -79 11 -32 1 -85 7 -118 15 -33 8 -74 15 -92 15 -17 0 -38 7 -47
15 -20 20 -116 18 -181 -5z"/>
<path d="M23248 7613 c-5 -12 -66 -53 -78 -53 -5 0 -10 -4 -10 -9 0 -5 -8 -12
-18 -15 -32 -10 -82 -64 -76 -80 5 -13 25 -16 105 -16 86 0 106 3 149 25 27
13 60 35 74 48 19 17 34 23 52 19 19 -3 25 -1 20 7 -7 10 -28 21 -134 67 -35
15 -78 19 -84 7z"/>
<path d="M7216 10154 c-9 -8 -16 -20 -16 -25 0 -6 -11 -20 -25 -33 -14 -13
-25 -29 -25 -35 0 -6 -6 -14 -14 -17 -8 -3 -18 -19 -21 -35 -4 -16 -11 -29
-16 -29 -5 0 -11 -11 -15 -25 -3 -14 -10 -25 -14 -25 -5 0 -12 -15 -15 -32 -4
-18 -11 -35 -15 -38 -4 -3 -11 -36 -15 -74 -8 -75 -2 -77 39 -11 11 17 28 36
38 43 10 7 23 22 29 33 10 19 8 20 -23 17 -30 -3 -33 -1 -30 22 2 14 10 32 17
40 7 8 16 25 19 38 4 12 11 22 16 22 4 0 11 11 14 25 11 44 83 121 120 131 14
3 26 10 26 15 0 15 -58 10 -74 -7z"/>
<path d="M8790 9700 c0 -7 7 -24 16 -40 23 -37 126 -69 294 -90 41 -5 94 -12
117 -16 31 -5 46 -3 57 9 27 27 18 32 -56 35 -40 2 -77 7 -82 11 -6 5 -47 12
-91 16 -44 4 -85 11 -91 16 -11 9 -58 17 -106 18 -16 1 -28 6 -28 12 0 6 -7
17 -15 25 -10 10 -15 11 -15 4z"/>
<path d="M11142 9488 c-8 -10 0 -12 39 -10 27 2 55 -1 62 -6 7 -6 44 -13 82
-17 39 -4 75 -11 80 -15 6 -4 35 -11 65 -15 30 -4 63 -14 73 -23 9 -8 20 -12
24 -9 3 4 13 -1 22 -11 9 -10 23 -21 31 -25 8 -4 39 -23 69 -43 l54 -36 -6 35
c-3 20 -14 44 -24 54 -20 20 -84 53 -103 53 -6 0 -32 6 -58 14 -46 14 -134 33
-258 55 -80 15 -139 14 -152 -1z"/>
<path d="M11130 9407 c0 -29 38 -95 64 -112 14 -9 53 -21 88 -26 35 -5 81 -13
103 -19 22 -5 59 -10 82 -10 23 0 53 -4 67 -10 15 -5 62 -12 105 -16 72 -6 80
-5 89 13 10 19 4 20 -141 36 -201 22 -326 41 -357 54 -14 5 -31 12 -39 14 -7
3 -24 25 -37 49 -13 25 -24 37 -24 27z"/>
<path d="M10817 8914 c-6 -130 -5 -193 3 -224 8 -29 12 -175 13 -439 1 -218 3
-373 5 -346 2 28 7 54 13 60 12 12 10 600 -3 770 -5 72 -12 182 -16 245 l-7
115 -8 -181z"/>
<path d="M22481 8851 c-15 -10 -8 -61 9 -61 6 0 10 -7 10 -15 0 -8 6 -15 14
-15 7 0 19 -6 25 -14 7 -8 22 -12 34 -9 15 3 18 2 9 -5 -11 -7 -11 -11 0 -18
20 -15 61 -30 78 -29 8 1 26 3 39 3 21 2 23 6 17 33 -3 17 -20 43 -37 57 -18
15 -41 35 -52 46 -10 10 -30 19 -43 20 -13 0 -24 4 -24 9 0 10 -62 9 -79 -2z"/>
</g>
</svg>
