<?xml version="1.0" standalone="no"?>
<!DOCTYPE svg PUBLIC "-//W3C//DTD SVG 20010904//EN"
 "http://www.w3.org/TR/2001/REC-SVG-20010904/DTD/svg10.dtd">
<svg version="1.0" xmlns="http://www.w3.org/2000/svg"
 width="2880.000000pt" height="1725.000000pt" viewBox="0 0 2880.000000 1725.000000"
 preserveAspectRatio="xMidYMid meet">
<metadata>
Created by potrace 1.16, written by Peter Selinger 2001-2019
</metadata>
<g transform="translate(0.000000,1725.000000) scale(0.100000,-0.100000)"
fill="#000000" stroke="none">
<path d="M12540 12910 c0 -6 -96 -11 -252 -13 -139 -1 71 -2 467 -2 396 0 602
1 458 2 -164 2 -263 7 -263 13 0 6 -77 10 -205 10 -128 0 -205 -4 -205 -10z"/>
<path d="M11155 12862 c-60 -2 -102 -7 -106 -14 -7 -10 -73 -14 -276 -17 -50
-1 -63 -4 -63 -17 0 -13 18 -14 148 -9 81 4 160 11 175 17 31 12 67 13 477 18
226 2 268 4 205 11 -88 10 -402 16 -560 11z"/>
<path d="M11575 12804 c-447 -20 -800 -46 -953 -70 -51 -8 -111 -14 -132 -14
-22 0 -61 -4 -87 -10 -26 -5 -84 -14 -128 -19 -93 -11 -187 -26 -300 -46 -44
-7 -125 -21 -180 -30 -55 -10 -127 -23 -160 -30 -33 -8 -98 -21 -145 -30 -47
-9 -106 -23 -132 -31 -26 -8 -55 -14 -65 -14 -10 0 -38 -6 -63 -14 -44 -14
-100 -29 -170 -45 -19 -5 -62 -16 -95 -26 -156 -45 -198 -58 -250 -80 -16 -7
-50 -20 -75 -30 -25 -9 -72 -30 -105 -45 -33 -16 -70 -31 -82 -35 -13 -3 -23
-11 -23 -16 0 -5 -5 -9 -11 -9 -12 0 -143 -85 -183 -120 -33 -29 -159 -155
-196 -197 -93 -103 -300 -375 -300 -392 0 -5 -4 -11 -9 -13 -12 -4 -138 -193
-146 -219 -4 -10 -10 -19 -15 -19 -4 0 -10 -8 -14 -17 -3 -10 -15 -31 -25 -48
-11 -16 -32 -52 -46 -80 -14 -27 -39 -75 -55 -105 -36 -68 -39 -121 -8 -150
12 -11 28 -20 36 -20 8 0 26 -6 40 -14 15 -8 81 -21 147 -31 202 -28 378 -56
420 -66 22 -6 67 -17 100 -25 126 -31 164 -46 152 -58 -17 -17 -74 -39 -84
-33 -21 13 -593 27 -713 17 -190 -15 -443 -66 -537 -106 -17 -8 -36 -14 -42
-14 -6 0 -11 -4 -11 -9 0 -5 -9 -11 -20 -14 -12 -3 -20 0 -20 8 0 7 -7 16 -16
19 -21 8 -83 -55 -112 -114 -29 -57 -42 -77 -70 -108 -12 -14 -25 -42 -28 -63
-6 -37 -41 -79 -67 -79 -15 0 13 -20 29 -20 6 0 45 33 86 74 l75 74 -21 -67
c-12 -36 -27 -76 -34 -88 -7 -12 -12 -31 -12 -42 0 -12 -4 -21 -10 -21 -5 0
-12 -16 -16 -35 -3 -19 -12 -39 -20 -46 -8 -6 -14 -27 -14 -47 0 -19 -2 -33
-5 -30 -3 3 -6 35 -6 72 -1 37 -5 80 -9 94 -5 17 -9 -32 -9 -126 -1 -93 -7
-177 -15 -215 -8 -34 -22 -116 -31 -182 -43 -319 -41 -311 -116 -397 -44 -48
-79 -131 -79 -183 0 -17 -4 -35 -9 -40 -11 -13 5 -280 19 -314 5 -14 14 -53
19 -86 9 -56 17 -109 42 -248 12 -67 5 -104 -16 -87 -8 7 -20 8 -26 4 -8 -4
-9 -3 -5 4 4 7 1 12 -6 12 -25 0 -48 55 -48 114 0 31 -4 56 -10 56 -6 0 -10
-52 -10 -135 0 -74 4 -135 9 -135 4 0 11 -30 14 -67 4 -37 11 -69 16 -72 5 -4
13 -19 16 -34 4 -15 11 -27 15 -27 4 0 11 -16 14 -35 4 -19 11 -35 16 -35 4 0
11 -13 15 -30 4 -16 10 -30 15 -30 4 0 11 -11 14 -25 4 -14 11 -25 16 -25 6 0
10 -7 10 -15 0 -9 7 -18 15 -21 8 -4 15 -12 15 -20 0 -8 9 -22 20 -31 11 -10
20 -21 20 -26 0 -5 14 -22 30 -39 17 -16 30 -34 30 -38 0 -5 32 -41 70 -79 39
-38 70 -72 70 -77 0 -4 20 -27 45 -51 43 -41 46 -48 52 -108 3 -36 9 -65 13
-65 4 0 11 -29 15 -65 3 -36 10 -65 15 -65 4 0 11 -27 15 -60 4 -33 11 -60 15
-60 4 0 11 -20 14 -45 4 -25 11 -45 15 -45 5 0 11 -18 15 -40 3 -22 10 -40 15
-40 5 0 12 -17 16 -37 4 -21 11 -44 17 -50 7 -9 7 -13 0 -13 -6 0 -13 -8 -15
-17 -4 -14 -5 -12 -6 5 -2 35 -21 26 -22 -10 0 -29 -1 -30 -9 -12 -5 12 -13
25 -19 28 -6 4 -7 14 -4 23 5 13 1 12 -16 -4 -22 -21 -22 -43 1 -43 7 0 6 6
-2 15 -7 9 -8 15 -2 15 14 0 22 -24 13 -39 -6 -9 -11 -8 -21 4 -16 19 -30 19
-30 -1 0 -14 -2 -14 -15 0 -17 16 -20 36 -6 36 5 0 11 9 14 19 3 13 1 18 -9
14 -7 -2 -16 -18 -19 -34 -4 -16 -11 -29 -16 -29 -5 0 -12 -12 -15 -26 -5 -19
-9 -23 -18 -13 -8 8 -8 13 2 16 16 6 16 50 -1 56 -10 4 -13 -2 -9 -19 3 -16
-2 -31 -14 -43 -18 -16 -20 -16 -38 0 -12 12 -16 24 -11 40 7 20 6 21 -7 8 -8
-8 -17 -21 -21 -29 -3 -9 -6 -10 -6 -2 -1 6 -6 12 -13 12 -9 0 -9 -3 0 -12 7
-7 12 -19 12 -27 0 -12 -3 -11 -18 2 -10 10 -22 17 -25 17 -9 0 -9 -27 1 -33
4 -2 2 -2 -5 -1 -7 2 -20 -5 -30 -14 -16 -16 -17 -16 -10 1 3 9 2 17 -4 17 -5
0 -16 15 -24 34 -8 19 -19 37 -25 41 -15 9 -12 -3 7 -36 16 -27 16 -29 -1 -42
-12 -9 -16 -19 -11 -28 4 -8 -1 -6 -11 4 -17 15 -17 19 -4 27 13 9 13 11 1 19
-20 13 -40 2 -47 -25 -5 -20 -9 -22 -21 -12 -8 6 -12 19 -10 29 3 11 0 16 -8
13 -26 -10 -28 -64 -3 -64 7 0 6 6 -2 15 -7 9 -8 15 -2 15 14 0 22 -24 13 -39
-6 -9 -11 -8 -21 4 -16 20 -27 19 -34 -2 -2 -10 -5 -4 -4 12 0 48 -1 53 -19
59 -15 6 -15 4 2 -14 10 -11 13 -20 7 -20 -7 0 -12 -12 -12 -27 0 -54 -13 -55
-60 -8 -24 25 -49 45 -55 45 -5 0 -4 -4 4 -9 7 -5 14 -27 15 -49 2 -34 -1 -39
-11 -30 -11 9 -12 13 -1 20 10 7 10 9 -2 5 -8 -2 -16 -16 -18 -30 -2 -15 -8
-25 -13 -22 -12 8 -12 55 0 55 5 0 11 7 14 14 4 10 1 13 -9 9 -8 -3 -17 -17
-21 -32 -3 -14 -11 -29 -17 -33 -8 -6 -6 -11 4 -18 11 -7 11 -10 2 -10 -7 0
-15 7 -18 15 -10 24 -22 17 -29 -15 -4 -17 -10 -30 -15 -30 -5 0 -10 -8 -13
-17 -2 -10 -3 13 -2 50 2 49 -1 72 -12 82 -21 21 -29 18 -10 -3 19 -21 22 -42
7 -42 -5 0 -10 -12 -10 -28 0 -15 -8 -35 -19 -44 -17 -15 -18 -14 -18 9 0 13
-3 27 -7 30 -11 12 -19 -6 -19 -47 0 -38 -1 -39 -11 -18 -7 13 -8 25 -4 26 5
2 3 11 -3 19 -10 12 -10 16 2 24 9 6 11 11 3 17 -6 4 -13 15 -17 25 -3 9 -12
17 -19 17 -10 0 -9 -3 1 -9 22 -14 22 -258 1 -271 -13 -9 -13 -11 0 -20 11 -7
16 -5 18 4 2 8 9 17 17 20 16 6 9 -21 -12 -42 -13 -13 -7 -42 11 -54 8 -6 8
-10 0 -15 -8 -5 -2 -17 17 -36 l29 -28 -4 56 c-2 30 -10 62 -16 70 -9 11 -9
15 -1 15 6 0 14 -13 17 -29 5 -21 12 -28 29 -28 22 0 22 0 6 28 -9 16 -19 29
-23 29 -5 0 -8 7 -8 15 0 24 17 17 24 -10 4 -14 11 -25 16 -25 6 0 10 -7 10
-15 0 -9 7 -18 15 -21 8 -4 15 -12 15 -20 0 -19 30 -5 31 15 0 13 2 13 6 1 3
-8 12 -19 19 -23 8 -4 14 -15 14 -23 0 -8 6 -14 13 -13 30 4 47 -2 47 -18 0
-14 -2 -14 -20 2 -13 12 -20 14 -20 5 0 -10 -3 -10 -15 0 -10 8 -15 9 -15 2 0
-6 8 -16 18 -21 15 -9 15 -12 2 -20 -12 -8 -10 -15 15 -41 16 -16 24 -30 18
-30 -6 0 -13 -7 -16 -14 -4 -10 -1 -13 8 -10 23 9 25 33 4 53 -14 13 -19 26
-14 40 9 30 22 26 30 -9 7 -31 25 -42 25 -15 0 8 -4 15 -10 15 -16 0 -12 27 5
34 10 4 15 -1 15 -14 0 -11 5 -20 10 -20 6 0 10 -7 10 -15 0 -8 -5 -15 -11
-15 -8 0 -8 -5 1 -15 10 -12 10 -15 0 -15 -10 0 -10 -3 -1 -14 9 -11 9 -15 0
-18 -8 -3 -7 -7 3 -15 12 -10 14 -5 12 29 -2 44 5 78 15 78 11 0 45 -71 44
-91 -1 -14 1 -16 11 -7 9 9 8 19 -6 47 -10 19 -22 39 -28 45 -5 5 -10 18 -10
27 0 9 -7 22 -15 29 -13 11 -14 8 -11 -16 2 -16 1 -22 -1 -14 -3 8 -9 20 -14
26 -6 8 -4 14 6 17 8 4 19 1 25 -6 5 -7 23 -28 40 -48 16 -20 30 -41 30 -46 0
-5 8 -16 18 -24 9 -9 22 -25 29 -35 10 -16 12 -16 12 -3 1 9 -5 22 -13 29 -15
12 -11 39 8 52 8 5 7 14 -2 28 -7 11 -8 20 -2 20 12 0 24 -45 17 -69 -3 -13 5
-29 24 -47 16 -15 29 -24 29 -20 0 4 -12 18 -26 31 -15 14 -22 25 -15 25 14 0
15 76 1 83 -6 3 -5 4 2 3 8 -1 14 -21 16 -46 2 -23 9 -49 17 -56 12 -12 13 -9
8 21 -5 29 -1 40 16 56 11 11 21 15 21 9 0 -6 -7 -13 -15 -16 -18 -7 -20 -36
-2 -33 26 3 37 -2 37 -16 0 -21 -17 -19 -23 3 -3 9 -4 2 -3 -16 3 -31 26 -72
26 -45 0 6 -4 13 -9 15 -5 2 -3 9 5 16 11 10 14 10 14 -2 0 -8 6 -17 13 -20
10 -5 10 -7 0 -12 -17 -8 -16 -32 2 -50 13 -13 14 -12 9 15 -5 22 -1 34 15 47
12 10 21 24 21 31 0 7 4 13 9 13 5 0 12 8 14 18 4 16 5 16 6 0 0 -10 6 -18 11
-18 6 0 10 -9 10 -20 0 -27 -18 -25 -23 3 l-4 22 -2 -22 c0 -13 -5 -23 -11
-23 -16 0 -12 -36 5 -50 9 -7 14 -19 11 -26 -3 -8 0 -11 10 -7 18 7 18 19 -1
27 -8 3 -15 17 -15 31 0 30 16 25 30 -9 9 -20 9 -20 8 4 -4 86 18 131 24 48 2
-32 7 -43 19 -42 9 1 16 -5 15 -14 0 -8 6 -17 14 -20 13 -5 13 -3 1 11 -10 13
-10 17 -1 17 9 0 10 3 1 14 -9 11 -6 15 14 20 25 6 35 26 13 26 -6 0 -8 3 -5
7 4 3 17 -4 30 -17 18 -20 22 -22 25 -8 2 9 9 19 17 22 16 6 9 -23 -9 -37 -8
-6 -7 -10 2 -14 17 -7 15 -30 -4 -37 -9 -3 -14 -13 -10 -21 3 -8 -1 -20 -8
-27 -11 -11 -10 -16 2 -28 14 -13 15 -12 9 3 -3 9 0 23 9 31 10 11 11 17 3 22
-8 5 -7 10 5 16 9 5 16 20 16 32 0 25 16 36 38 29 6 -3 13 -23 13 -46 2 -34 3
-37 6 -12 3 16 10 33 16 37 9 6 8 11 -3 19 -12 9 -13 10 -1 7 20 -6 22 -86 3
-97 -11 -6 -11 -9 1 -20 12 -9 15 -8 13 6 0 10 6 18 14 18 10 0 14 -9 13 -28
-2 -24 0 -25 13 -13 17 17 18 36 3 36 -8 0 -7 5 1 16 11 12 10 18 -4 32 -16
16 -17 15 -10 -13 7 -28 6 -29 -9 -13 -21 20 -22 34 -2 42 20 7 45 -20 45 -50
0 -13 5 -24 10 -24 6 0 10 11 10 24 0 14 -4 28 -10 31 -13 8 -13 25 -1 25 5 0
13 -15 16 -32 4 -18 12 -36 18 -40 6 -3 -1 -16 -16 -31 -15 -13 -27 -29 -27
-35 0 -6 -8 -16 -17 -21 -10 -6 -13 -11 -6 -11 7 0 20 12 30 26 10 14 25 33
34 41 18 17 16 86 -4 111 -6 8 -6 12 1 12 11 0 22 -23 22 -48 0 -8 8 -24 17
-35 17 -18 17 -19 0 -32 -20 -14 -22 -31 -4 -38 9 -4 8 -8 -3 -16 -8 -5 -11
-13 -7 -17 12 -12 21 5 22 38 0 36 24 50 32 19 3 -12 9 -21 14 -21 4 0 10 -10
12 -22 2 -13 3 -7 1 12 -2 19 -8 36 -14 38 -7 3 -7 8 1 18 8 10 8 14 0 14 -6
0 -11 -5 -11 -10 0 -6 -9 -3 -20 7 -13 13 -17 26 -13 41 7 29 19 28 27 -3 7
-29 26 -34 27 -7 0 13 2 14 6 2 4 -8 13 -20 21 -26 8 -6 12 -17 9 -25 -4 -10
-6 -9 -6 4 -1 21 -21 23 -21 2 0 -8 4 -15 9 -15 5 0 12 -8 14 -17 4 -17 5 -17
6 0 1 19 20 24 22 5 1 -7 2 -22 3 -32 0 -11 7 -20 14 -22 7 -1 8 0 2 3 -14 7
-13 33 2 33 6 0 4 7 -5 18 -10 10 -17 25 -17 33 0 8 -7 23 -15 33 -20 26 -19
42 0 22 8 -8 15 -19 15 -25 0 -6 14 -26 31 -46 17 -19 25 -35 18 -35 -8 0 -7
-6 5 -19 17 -18 13 -49 -8 -63 -8 -5 -7 -8 1 -8 6 0 18 13 26 29 12 24 12 29
-1 38 -9 5 -12 15 -8 21 11 18 23 14 29 -8 3 -11 11 -20 17 -20 10 0 10 3 0
15 -10 12 -10 18 0 30 9 10 9 15 1 15 -6 0 -11 -6 -11 -12 0 -9 -4 -8 -11 2
-8 11 -12 12 -15 3 -4 -9 -11 -7 -26 6 -21 21 -22 63 0 67 7 1 8 0 2 -3 -13
-6 -13 -53 0 -53 6 0 10 6 10 13 0 8 3 7 10 -3 5 -8 12 -11 17 -7 4 4 2 17 -5
27 -7 12 -8 20 -2 20 5 0 12 -11 16 -24 3 -14 12 -27 20 -30 8 -3 14 -14 14
-25 0 -11 5 -23 10 -26 6 -4 5 -12 -4 -20 -8 -8 -12 -24 -9 -35 6 -23 23 -27
23 -5 0 8 -5 15 -12 15 -6 0 1 13 16 29 17 17 28 40 28 59 1 26 3 28 15 17 7
-8 20 -12 28 -9 18 7 19 21 3 27 -10 4 -10 6 -1 6 20 2 27 -21 10 -34 -25 -18
-21 -32 8 -32 20 0 23 2 14 13 -8 10 -8 14 0 14 6 0 11 -6 12 -12 0 -7 2 -26
2 -42 1 -16 9 -31 17 -34 12 -4 13 -2 3 9 -15 16 -17 49 -3 49 6 0 10 -5 10
-12 0 -6 7 -20 17 -30 10 -11 12 -18 4 -18 -8 0 -8 -5 1 -20 11 -17 10 -22 -2
-31 -13 -9 -13 -10 0 -6 9 2 15 15 15 32 0 16 6 30 13 32 6 3 12 -3 12 -11 0
-9 7 -19 15 -22 8 -4 15 -14 16 -23 0 -11 2 -12 6 -3 3 7 -3 22 -13 34 -18 19
-18 20 10 45 18 15 25 27 19 31 -7 5 -5 12 5 22 14 13 15 12 9 -3 -4 -11 0
-24 13 -34 11 -10 20 -23 20 -29 0 -7 6 -15 13 -18 8 -3 7 -8 -5 -16 -10 -6
-18 -17 -18 -25 0 -7 -5 -15 -11 -17 -8 -3 -7 -7 2 -15 11 -9 14 -6 16 14 0
15 8 30 17 35 17 9 13 52 -5 72 -12 13 -11 26 1 26 5 0 12 -16 16 -35 3 -19
10 -35 15 -35 5 0 9 -7 9 -15 0 -8 -4 -15 -10 -15 -5 0 -10 -9 -10 -20 0 -33
17 -22 24 15 4 19 11 35 16 35 5 0 11 8 13 18 4 14 5 14 6 1 1 -11 10 -16 26
-16 25 0 25 0 9 18 -28 31 -8 22 25 -12 17 -17 31 -38 30 -47 0 -13 -2 -11 -9
4 -9 24 -30 41 -30 26 0 -5 10 -22 22 -37 19 -24 20 -29 7 -39 -13 -9 -13 -14
-1 -36 l14 -25 -6 25 c-3 15 1 31 11 42 11 13 12 18 3 18 -10 0 -10 3 0 15 8
10 9 19 3 28 -17 21 -22 56 -7 50 7 -2 14 -16 16 -31 4 -33 28 -42 29 -10 1
19 2 20 6 4 3 -11 11 -26 19 -34 8 -7 14 -24 14 -36 0 -23 28 -56 46 -56 5 0
1 5 -8 11 -10 5 -18 22 -18 37 0 15 -7 36 -15 46 -20 26 -19 42 0 22 8 -8 15
-19 15 -25 0 -6 7 -11 15 -11 8 0 15 5 15 10 0 6 -4 10 -10 10 -5 0 -10 9 -10
20 0 28 20 25 22 -2 0 -13 2 -28 2 -35 1 -6 9 -20 18 -30 9 -10 15 -30 14 -46
-3 -22 -1 -25 11 -15 10 8 11 13 3 18 -7 5 -6 11 5 20 12 10 15 10 15 -4 0 -9
4 -16 9 -16 5 0 11 -6 14 -12 2 -7 2 -2 0 12 -3 14 -8 27 -12 30 -5 3 -11 12
-14 20 -4 12 -6 11 -6 -3 -2 -33 -26 -12 -28 24 0 19 1 24 3 13 4 -15 13 -21
30 -21 18 0 22 3 14 12 -8 9 -6 14 4 18 10 4 13 1 9 -8 -3 -8 2 -17 10 -21 9
-3 18 -13 22 -22 5 -13 2 -13 -15 3 -12 11 -20 13 -20 6 0 -6 7 -14 15 -17 8
-4 15 -12 15 -19 0 -6 8 -19 18 -28 16 -14 17 -14 19 11 0 14 6 28 12 30 14 5
14 59 1 65 -6 3 -5 4 2 3 7 -1 14 -17 16 -34 2 -18 6 -32 10 -32 4 0 16 -16
27 -36 16 -30 17 -37 4 -45 -10 -6 -10 -9 -1 -9 7 0 16 8 19 18 4 9 11 20 17
24 8 5 7 14 -2 28 -10 17 -10 23 2 35 13 13 15 12 13 -11 -1 -16 4 -29 13 -32
12 -4 13 -3 2 10 -20 25 14 32 35 8 10 -11 21 -20 25 -20 16 0 7 22 -18 45
-15 14 -24 25 -19 25 12 0 55 -44 55 -58 0 -7 6 -12 13 -11 25 3 36 -1 39 -16
2 -10 7 -12 18 -5 13 9 13 11 0 20 -11 7 -11 10 -2 10 7 0 15 -7 18 -15 10
-24 24 -17 25 13 2 27 2 27 6 2 3 -14 11 -29 19 -33 8 -4 14 -14 14 -22 0 -7
5 -15 12 -17 7 -3 -7 -22 -31 -46 -24 -23 -38 -42 -32 -42 6 0 11 -7 11 -15 0
-8 -5 -15 -11 -15 -5 0 -7 -5 -3 -11 9 -16 28 17 20 36 -3 9 9 29 29 48 34 33
38 61 13 93 -5 7 -4 14 4 17 9 3 14 -6 15 -27 2 -17 7 -32 13 -34 13 -5 13
-29 1 -34 -5 -1 -11 -14 -14 -28 -2 -14 -2 -19 0 -12 3 6 8 12 13 12 5 0 11
13 15 30 10 46 25 36 26 -17 2 -33 3 -39 6 -19 6 37 -5 96 -17 96 -6 0 -10 -8
-10 -17 0 -9 -2 -14 -5 -11 -8 8 5 58 15 58 5 0 11 -14 15 -31 5 -19 12 -29
20 -25 14 5 65 -36 65 -52 0 -5 7 -15 15 -22 11 -9 12 -15 5 -20 -8 -5 -7 -10
3 -18 12 -10 14 -7 11 15 -1 15 -8 29 -13 31 -13 4 -14 29 -2 34 5 2 3 12 -5
22 -14 19 -14 19 -14 1 0 -15 -3 -16 -12 -7 -9 9 -10 15 -2 20 6 4 14 14 17
22 4 12 6 12 6 -2 1 -9 6 -18 11 -20 6 -2 12 -17 13 -33 2 -21 8 -30 19 -29 9
1 14 -4 12 -11 -3 -6 4 -23 16 -36 17 -20 19 -21 13 -4 -3 11 -10 26 -16 33
-6 8 -5 12 3 12 10 0 10 3 0 15 -10 12 -15 13 -20 4 -6 -8 -9 -8 -14 0 -4 6
-2 11 5 11 8 0 8 4 -1 15 -8 9 -8 15 -2 15 6 0 13 8 15 18 3 9 5 4 4 -12 -2
-32 19 -47 26 -19 4 17 5 17 6 1 2 -26 19 -22 24 5 l4 22 2 -22 c0 -13 6 -23
11 -23 15 0 12 -20 -7 -38 -15 -16 -16 -15 -10 13 3 17 4 24 1 17 -5 -10 -9
-10 -20 -1 -19 16 -18 6 6 -38 11 -21 20 -32 20 -25 0 8 7 21 16 30 16 15 17
14 12 -15 -3 -21 -1 -29 8 -26 6 2 14 21 18 43 3 21 12 40 19 43 10 4 12 -3 9
-24 -2 -16 -9 -29 -16 -29 -6 0 -4 -5 4 -10 13 -8 12 -11 -3 -23 -13 -9 -17
-21 -14 -38 4 -24 4 -24 6 2 0 15 8 30 17 33 9 3 14 13 10 21 -3 8 2 22 11 30
8 9 16 27 16 40 0 18 2 21 12 12 7 -7 9 -13 4 -15 -14 -5 -11 -33 4 -31 26 3
37 -2 37 -16 0 -21 -18 -19 -23 3 -4 16 -5 16 -6 0 -1 -23 -18 -23 -24 0 -2 9
-4 0 -3 -21 0 -23 -6 -42 -14 -48 -11 -6 -11 -9 -2 -9 7 0 16 8 19 18 4 9 13
23 20 30 11 11 13 8 13 -17 0 -17 5 -31 10 -31 6 0 10 13 10 30 0 17 7 33 18
39 15 9 15 12 2 22 -13 9 -13 10 0 6 19 -5 15 -85 -6 -108 -13 -14 -13 -18 1
-29 17 -14 20 -36 5 -43 -6 -3 -5 -4 2 -3 19 4 21 31 5 48 -12 11 -12 16 0 26
7 7 13 28 13 47 0 18 6 35 13 38 10 3 10 9 0 26 -15 25 -16 31 -4 31 5 0 12
-14 16 -30 4 -17 11 -30 16 -30 5 0 9 -9 9 -20 0 -27 -18 -25 -23 3 -4 21 -4
21 -6 1 0 -12 6 -27 14 -34 14 -11 14 -15 -2 -32 -15 -16 -15 -18 -1 -13 9 4
19 13 22 21 8 21 24 17 29 -8 4 -23 4 -23 6 -1 0 12 -6 28 -14 37 -16 16 -21
76 -6 76 6 0 11 -14 13 -32 3 -30 27 -54 25 -26 -1 40 3 52 15 40 10 -10 10
-15 -2 -23 -13 -8 -13 -11 3 -20 9 -5 17 -15 17 -22 0 -7 -4 -6 -10 3 -5 8
-13 11 -17 6 -4 -5 -2 -11 5 -13 14 -5 16 -43 2 -43 -5 0 -10 -5 -10 -11 0 -8
5 -8 15 1 8 7 15 20 15 30 0 10 7 23 15 30 13 11 15 7 15 -29 0 -26 4 -40 10
-36 13 8 13 75 1 75 -5 0 -12 8 -14 18 -4 16 -5 16 -6 0 -1 -21 -21 -24 -21
-4 0 8 7 16 15 20 8 3 15 12 15 21 0 8 5 15 10 15 13 0 13 -17 0 -25 -7 -4 -5
-14 5 -28 8 -12 15 -31 15 -43 0 -12 6 -24 13 -27 9 -3 9 -7 0 -17 -9 -10 -8
-16 3 -28 9 -8 13 -24 10 -35 -5 -19 -4 -19 12 -3 14 14 15 18 3 25 -9 6 -14
32 -16 77 -1 38 0 54 2 37 4 -31 23 -48 23 -20 0 7 8 20 18 28 15 13 20 13 31
2 10 -11 10 -17 1 -28 -9 -11 -9 -15 -1 -15 6 0 11 -12 11 -27 0 -34 15 -60
24 -44 4 6 2 11 -3 11 -15 0 -14 57 2 62 24 9 37 -4 43 -43 7 -39 24 -45 24
-8 0 19 1 19 16 4 13 -12 14 -19 4 -30 -9 -11 -9 -15 -1 -15 6 0 11 -11 11
-24 0 -34 10 -57 22 -50 7 4 7 9 0 13 -9 6 -15 44 -13 84 1 25 21 21 22 -5 1
-21 2 -21 6 -3 3 11 10 26 15 33 7 8 7 12 -1 12 -6 0 -11 -5 -11 -11 0 -6 -7
-4 -15 5 -19 18 -19 32 -1 39 10 4 12 0 9 -14 -6 -23 0 -24 21 -4 14 14 15 8
13 -56 -1 -52 2 -73 11 -75 7 -1 8 0 2 3 -12 6 -14 53 -1 53 4 0 11 20 14 45
5 48 12 63 24 52 4 -4 1 -13 -5 -19 -14 -14 -16 -98 -3 -98 5 0 11 -9 14 -20
3 -11 11 -20 19 -20 10 0 10 2 -1 9 -9 6 -15 31 -17 68 -1 32 0 48 2 36 3 -13
10 -23 15 -23 5 0 9 -10 9 -22 0 -24 46 -75 57 -64 3 3 2 6 -4 6 -21 0 -22 31
-3 47 11 10 20 23 20 29 0 7 6 15 13 17 9 4 8 8 -3 16 -8 6 -10 11 -5 11 20 0
48 -41 36 -53 -13 -13 -15 -47 -2 -47 5 0 12 10 14 23 l4 22 2 -22 c2 -43 21
-23 23 25 1 36 2 39 5 15 5 -41 12 -41 43 -3 14 16 29 29 34 30 5 0 3 -6 -3
-14 -7 -8 -8 -16 -3 -18 5 -1 12 -14 16 -28 5 -18 5 -21 -3 -10 -5 8 -13 11
-18 7 -4 -5 -2 -11 4 -15 6 -4 13 -23 16 -42 l4 -35 1 38 c1 20 6 37 11 37 5
0 12 11 15 25 4 14 11 25 16 25 6 0 5 -9 -2 -20 -9 -14 -10 -23 -3 -28 14 -10
45 -71 45 -88 0 -8 -4 -14 -9 -14 -6 0 -4 -10 2 -22 17 -31 49 -68 61 -68 5 0
-3 11 -18 25 -22 21 -28 36 -31 80 -2 37 0 52 8 49 18 -7 47 -62 36 -68 -5 -2
-4 -3 2 -2 7 1 13 23 14 49 3 41 1 46 -11 36 -11 -9 -12 -14 -3 -19 8 -6 8 -9
0 -14 -11 -7 -15 6 -11 33 1 13 -1 13 -14 2 -11 -9 -16 -10 -16 -2 0 11 13 15
38 12 7 -1 15 5 18 14 3 8 11 15 16 15 6 0 5 -6 -2 -15 -10 -12 -10 -15 0 -15
10 0 10 -3 0 -15 -7 -9 -8 -15 -2 -15 17 0 20 -58 3 -75 -14 -13 -14 -17 1
-32 16 -15 17 -15 12 4 -3 11 2 27 11 37 9 9 12 16 7 16 -5 0 -12 13 -14 29
-3 21 -1 28 9 24 15 -6 18 23 3 30 -6 3 -5 4 2 3 7 -2 13 -17 14 -34 0 -17 6
-38 14 -47 9 -11 10 -19 3 -26 -11 -11 12 -49 30 -49 5 0 2 7 -7 15 -15 15
-12 38 7 63 6 8 6 12 -2 12 -6 0 -11 -5 -11 -10 0 -6 -6 -5 -14 2 -9 9 -10 15
-3 20 6 4 11 22 11 41 0 30 2 33 14 20 11 -11 12 -17 3 -26 -16 -16 -14 -37 4
-37 8 0 15 5 15 11 0 6 7 17 15 25 20 20 19 5 -1 -24 -19 -27 -5 -29 19 -2 9
11 23 17 32 14 12 -5 13 -9 4 -20 -8 -9 -8 -14 -1 -14 6 0 12 -12 14 -27 2
-14 9 -28 16 -29 7 -1 8 0 2 3 -14 7 -12 60 3 66 8 4 9 8 1 14 -17 13 -25 43
-9 37 7 -3 16 -16 19 -30 4 -13 11 -24 16 -24 6 0 10 -9 10 -20 0 -23 27 -17
33 8 4 15 5 15 6 0 1 -23 18 -23 24 0 4 16 5 16 6 0 1 -21 17 -24 24 -5 2 6 4
-24 2 -68 -1 -44 0 -71 3 -60 2 11 8 24 13 29 5 6 9 21 9 35 0 25 0 25 14 5 8
-11 16 -33 18 -49 1 -16 10 -30 18 -32 11 -3 11 -2 3 4 -7 5 -14 38 -16 73 -3
36 -3 53 0 38 2 -16 8 -28 13 -28 5 0 12 -16 16 -35 7 -37 24 -48 24 -15 0 11
-4 20 -9 20 -12 0 -21 41 -14 68 6 25 23 30 23 7 0 -8 -4 -15 -10 -15 -5 0
-10 -7 -10 -15 0 -21 12 -19 33 5 9 11 23 17 32 14 12 -5 13 -9 4 -20 -9 -11
-8 -14 1 -14 9 0 10 -3 1 -14 -9 -11 -6 -13 14 -13 26 0 35 21 13 30 -10 4
-10 6 0 6 8 1 16 -8 19 -19 7 -27 21 -25 26 3 l4 22 2 -22 c0 -13 6 -23 11
-23 18 0 11 -22 -16 -46 -14 -13 -22 -24 -18 -24 4 0 18 10 31 22 26 24 33 6
9 -21 -12 -14 -12 -18 2 -31 14 -13 15 -12 9 3 -3 9 0 23 8 31 8 7 17 26 21
41 8 32 33 65 49 65 5 0 3 -5 -5 -10 -11 -7 -12 -12 -3 -18 7 -4 13 -28 15
-54 2 -38 6 -44 17 -35 9 8 10 12 2 15 -15 5 -14 59 2 65 17 6 16 -85 -2 -106
-7 -10 -9 -17 -4 -17 13 0 43 38 43 55 0 9 6 12 15 9 21 -9 19 -23 -10 -49
-21 -20 -22 -25 -9 -36 12 -10 13 -9 9 3 -3 8 3 23 15 33 11 10 20 24 20 32 0
17 17 17 23 1 6 -19 -4 -48 -15 -48 -7 0 -7 -4 0 -13 5 -6 12 -21 15 -32 2
-11 4 -1 3 23 0 26 5 46 13 51 11 7 11 10 0 14 -11 5 -10 8 4 17 9 6 17 16 17
22 0 7 -5 6 -15 -2 -12 -10 -15 -10 -15 0 0 10 -3 10 -15 0 -10 -9 -15 -9 -15
-1 0 11 13 15 37 12 6 -1 14 9 16 21 l4 23 2 -22 c0 -13 6 -23 12 -23 8 0 8
-5 -1 -15 -10 -12 -10 -18 0 -30 9 -10 9 -15 1 -15 -15 0 -14 -22 3 -55 8 -15
12 -35 8 -43 -5 -14 -4 -15 10 -2 10 10 12 17 5 22 -6 3 -11 32 -13 65 -1 32
0 50 3 41 2 -10 9 -18 14 -18 5 0 9 -9 9 -19 0 -11 5 -23 11 -26 6 -4 14 -17
19 -29 7 -16 9 -17 9 -4 1 9 -6 24 -15 32 -9 10 -17 38 -18 69 -2 28 -1 35 1
14 2 -20 8 -37 14 -37 5 0 9 -5 9 -11 0 -7 16 -27 35 -46 19 -19 35 -29 35
-24 0 6 -8 15 -17 21 -13 8 -14 13 -5 16 6 3 12 13 12 21 0 13 3 13 15 3 12
-10 15 -10 15 1 0 11 2 11 10 -1 5 -8 12 -11 17 -7 4 5 3 11 -3 15 -6 4 -14
14 -17 22 -4 12 -6 11 -6 -2 -1 -10 -5 -18 -11 -18 -14 0 -12 27 3 32 18 7 37
-2 37 -17 0 -8 7 -21 16 -30 16 -15 16 -18 0 -33 -15 -15 -16 -15 -16 1 0 9
-4 17 -10 17 -18 0 -10 -21 20 -52 17 -16 30 -25 30 -19 0 5 -8 15 -17 21 -17
10 -17 10 0 20 9 6 17 16 17 23 0 7 8 21 17 32 15 19 15 18 9 -15 -3 -18 -12
-38 -19 -42 -9 -6 -9 -8 1 -8 8 0 16 9 19 20 3 11 9 20 14 20 12 0 11 -37 -1
-45 -13 -8 -13 -45 -1 -45 13 0 22 67 16 113 -4 32 -3 36 9 25 10 -9 11 -15 2
-20 -8 -6 -7 -10 2 -17 8 -4 15 -23 16 -42 5 -57 6 -59 16 -59 6 0 10 7 10 15
0 8 -4 15 -10 15 -16 0 -12 27 5 34 8 3 15 12 15 20 0 8 6 17 13 20 10 5 10 7
0 12 -15 6 -18 34 -4 34 16 0 20 -45 6 -67 -17 -26 -20 -53 -5 -53 6 0 11 -12
11 -27 2 -28 2 -28 6 -3 3 14 8 27 12 30 5 3 11 18 15 34 6 26 5 28 -8 17 -8
-7 -17 -22 -19 -34 l-4 -22 -2 22 c-1 27 24 54 45 46 11 -4 12 -9 3 -19 -9
-11 -9 -17 0 -28 7 -8 8 -16 3 -18 -5 -1 -12 -21 -16 -43 l-7 -40 16 30 c9 17
17 46 18 65 0 19 2 27 4 18 3 -10 8 -18 13 -18 5 0 10 -17 12 -37 2 -20 9 -38
16 -39 7 -1 8 0 2 3 -13 6 -13 70 0 75 6 2 11 19 12 39 1 29 4 34 14 25 6 -6
8 -12 3 -14 -13 -5 -11 -50 3 -54 7 -3 8 -9 3 -18 -7 -11 -10 -10 -16 6 -7 17
-8 17 -8 1 -1 -10 6 -20 14 -23 13 -5 13 -9 3 -22 -11 -13 -10 -14 2 -10 8 2
16 17 17 33 1 15 8 32 15 36 7 4 9 11 5 16 -5 4 -13 1 -18 -7 -9 -12 -10 -12
-5 3 3 10 6 23 6 28 0 5 5 9 10 9 6 0 10 -7 10 -15 0 -9 6 -12 15 -9 8 4 17
-1 21 -9 3 -9 13 -18 21 -21 13 -5 14 -1 9 24 -5 26 -4 29 8 18 7 -8 16 -27
18 -44 3 -16 3 -23 1 -16 -6 17 -23 15 -23 -3 0 -8 5 -15 10 -15 6 0 10 -7 10
-15 0 -20 -12 -19 -32 4 -12 14 -13 22 -5 30 8 8 8 11 -1 11 -7 0 -12 -5 -12
-11 0 -6 -7 -3 -16 5 -20 20 -19 21 -21 -14 -1 -20 3 -33 13 -37 13 -5 13 -7
0 -22 -19 -21 -17 -74 3 -58 9 8 10 12 2 15 -16 5 -13 23 7 38 16 13 16 15 0
28 -19 14 -24 36 -10 36 18 0 52 -48 52 -73 0 -15 4 -27 9 -27 5 0 11 -8 13
-17 2 -10 4 8 3 40 0 33 5 61 12 65 6 4 13 21 16 37 l4 30 2 -32 c1 -35 17
-44 28 -15 8 20 33 47 33 35 0 -5 -7 -19 -16 -31 -8 -12 -10 -22 -5 -22 6 0
11 -7 11 -15 0 -8 -4 -15 -9 -15 -5 0 -3 -13 5 -30 9 -16 21 -30 27 -30 9 0 9
2 0 8 -12 8 -18 31 -15 65 3 29 21 19 24 -15 2 -17 9 -33 16 -34 7 -1 8 0 2 3
-14 7 -12 62 3 77 10 11 15 11 25 0 7 -7 12 -19 12 -25 0 -7 10 -23 23 -37 21
-23 21 -24 4 -37 -13 -9 -15 -15 -7 -20 9 -6 9 -10 -1 -17 -11 -8 -11 -9 1 -5
8 2 14 10 12 17 -2 7 4 20 13 30 14 16 14 18 0 23 -8 4 -15 12 -15 19 0 9 3 9
10 -2 5 -8 12 -11 17 -7 4 5 3 11 -3 15 -6 4 -14 14 -17 22 -4 12 -6 11 -6 -2
-1 -22 -21 -24 -21 -3 0 8 4 15 9 15 5 0 12 8 14 17 4 17 5 17 6 1 0 -10 5
-18 10 -18 5 0 11 -7 13 -15 2 -10 7 -12 18 -5 13 9 13 11 0 21 -13 9 -13 10
0 6 8 -2 16 -14 16 -26 1 -13 6 -26 12 -30 6 -3 12 -20 15 -36 2 -17 3 2 2 42
-2 62 -1 70 11 58 12 -12 12 -18 2 -35 -11 -17 -11 -22 1 -30 9 -5 15 -25 15
-50 1 -22 6 -44 12 -48 6 -4 14 -14 18 -22 4 -8 13 -26 21 -40 12 -21 12 -27
-2 -42 -9 -10 -13 -21 -8 -26 4 -4 10 -1 12 6 3 7 11 19 20 27 8 8 10 15 5 15
-5 0 -13 11 -16 25 -4 14 -11 25 -16 25 -6 0 -10 7 -10 15 0 7 -8 18 -17 24
-17 9 -17 11 0 39 9 17 17 46 17 66 0 20 5 36 10 36 6 0 10 -15 10 -34 0 -19
-4 -38 -10 -41 -12 -8 -13 -55 -1 -55 4 0 11 16 14 36 4 21 18 46 33 61 22 20
25 27 13 35 -12 8 -12 9 1 5 9 -2 15 -14 14 -30 -1 -15 -2 -43 -2 -62 -2 -47
-20 -45 -25 3 l-4 37 1 -40 c1 -49 29 -57 34 -10 2 16 9 33 14 37 15 9 36 -1
40 -18 2 -9 8 -11 18 -4 13 8 12 11 -4 23 -10 8 -16 20 -13 28 4 11 6 10 6 -2
1 -9 7 -19 15 -22 11 -4 14 -21 13 -63 -2 -44 2 -58 13 -61 13 -4 13 -3 0 6
-11 8 -12 13 -4 19 7 4 14 32 18 62 3 30 5 56 6 58 0 1 5 2 11 2 8 0 8 -5 -1
-15 -10 -12 -10 -15 0 -15 10 0 10 -3 0 -15 -10 -12 -10 -19 -2 -27 15 -15 16
-45 2 -51 -6 -3 -5 -4 2 -3 7 1 14 12 16 24 2 12 8 22 13 22 13 0 11 -44 -3
-58 -9 -9 -9 -12 1 -12 10 0 10 -4 3 -12 -7 -9 -6 -17 3 -25 11 -10 13 4 12
74 -2 69 1 87 13 90 13 4 13 3 0 -6 -12 -9 -13 -12 -1 -20 11 -7 11 -9 0 -14
-12 -5 -12 -7 0 -15 8 -6 14 -24 15 -41 l1 -32 17 23 c34 44 38 47 53 42 11
-4 15 1 16 17 1 21 2 21 6 4 3 -11 10 -23 15 -26 5 -3 2 -12 -7 -19 -13 -11
-14 -10 -8 6 6 17 5 18 -11 4 -11 -8 -14 -16 -7 -18 14 -5 15 -32 1 -32 -5 0
-10 -7 -10 -15 0 -27 18 -16 25 15 6 29 14 34 43 31 14 -2 17 26 3 31 -5 2 -2
9 6 17 12 11 14 11 12 0 -6 -46 16 -70 24 -26 l4 22 2 -22 c1 -26 19 -31 27
-9 3 8 13 17 22 21 14 5 13 3 -2 -14 -12 -13 -13 -20 -6 -23 8 -2 7 -8 -4 -17
-14 -12 -16 -11 -9 5 6 17 5 18 -11 4 -11 -8 -14 -16 -7 -18 15 -5 14 -35 -1
-51 -11 -11 -10 -13 2 -9 8 3 16 17 18 31 4 36 21 34 29 -3 6 -30 23 -42 23
-16 0 8 3 23 7 33 6 16 5 16 -10 4 -14 -11 -17 -11 -18 0 -2 26 3 42 17 56 19
19 18 3 -2 -25 -9 -13 -11 -22 -4 -22 6 0 13 6 16 14 3 8 13 17 22 21 14 5 14
3 -1 -13 -17 -19 -17 -19 7 -19 19 0 26 6 31 28 4 16 11 29 16 29 11 0 12 -27
0 -32 -13 -5 -22 -71 -11 -88 5 -8 13 -11 17 -6 4 5 2 11 -4 13 -15 5 -18 33
-4 33 5 0 12 11 15 25 4 14 11 25 16 25 6 0 5 -9 -2 -20 -11 -17 -10 -22 2
-30 11 -7 16 -5 18 10 2 11 7 20 12 20 5 0 10 6 13 12 2 7 2 0 -1 -16 -4 -28
-32 -69 -32 -48 0 6 -8 13 -17 16 -15 6 -15 4 2 -14 18 -19 18 -21 -1 -41 -19
-22 -19 -22 4 -10 12 6 22 19 22 27 0 9 6 14 13 11 6 -2 11 -15 9 -28 -3 -23
-2 -23 12 -4 13 18 13 21 0 28 -27 15 3 71 32 60 7 -2 14 1 17 9 2 7 2 0 -1
-17 -6 -42 -22 -56 -22 -20 0 15 -3 26 -6 22 -10 -10 7 -85 20 -90 9 -4 11 2
8 19 -3 19 -1 23 12 18 9 -3 17 -14 17 -23 1 -9 2 -20 4 -26 1 -5 3 -18 3 -27
1 -10 7 -18 12 -18 14 0 12 27 -2 33 -10 4 -9 8 2 16 10 7 11 11 3 11 -7 0
-13 7 -13 15 0 20 6 19 29 -4 14 -14 16 -22 8 -30 -8 -8 -8 -11 0 -11 19 0 23
29 5 40 -14 8 -15 11 -3 19 10 6 19 3 31 -12 17 -21 17 -47 -1 -47 -5 0 -9 -7
-9 -15 0 -24 17 -17 24 10 4 14 12 25 18 25 7 0 4 6 -7 13 -14 11 -16 21 -11
50 7 36 26 52 26 22 0 -8 -4 -15 -10 -15 -5 0 -10 -11 -10 -25 0 -14 4 -25 9
-25 5 0 12 11 15 25 4 14 12 25 18 25 9 0 9 -3 0 -12 -14 -14 -16 -38 -3 -38
5 0 12 13 16 30 4 16 11 30 16 30 12 0 11 -6 -3 -31 -10 -17 -10 -23 0 -26 15
-6 16 -39 2 -46 -6 -3 -5 -4 2 -3 7 1 15 11 17 21 2 10 9 25 17 33 8 7 14 20
14 28 0 8 5 14 10 14 14 0 12 -27 -2 -33 -10 -4 -9 -8 2 -16 8 -5 11 -13 7
-18 -5 -4 -13 -1 -18 7 -9 12 -10 11 -5 -4 4 -12 -1 -27 -15 -43 -33 -34 -16
-28 20 8 21 20 31 25 31 16 0 -9 -14 -29 -31 -46 -17 -17 -27 -31 -23 -31 17
0 75 72 78 97 2 15 1 20 -1 11 -2 -10 -9 -18 -14 -18 -16 0 -10 29 11 50 23
23 38 27 20 5 -9 -10 -9 -15 -1 -15 28 0 2 -97 -34 -122 -7 -5 -7 -8 0 -8 18
0 46 41 52 76 3 19 9 34 14 34 4 0 10 8 12 18 2 9 2 -8 -1 -38 -2 -30 -9 -60
-14 -66 -5 -7 -4 -14 4 -17 9 -3 14 9 16 42 2 25 8 49 14 52 16 10 38 0 38
-17 0 -20 -18 -17 -22 3 -2 9 -3 -13 -3 -50 0 -37 2 -61 4 -54 2 6 8 15 13 18
4 3 9 32 11 65 2 48 5 58 15 48 6 -7 12 -20 12 -28 0 -9 6 -13 13 -10 7 2 22
-4 32 -16 10 -11 13 -20 7 -20 -15 0 -16 -27 -1 -32 6 -2 12 -16 12 -30 0 -17
12 -38 33 -59 19 -18 34 -29 34 -23 0 5 -14 22 -32 38 -24 20 -28 30 -19 36
10 6 10 9 1 12 -6 2 -14 27 -16 56 -3 45 -1 53 19 62 20 10 20 10 5 -3 -22
-18 -23 -31 -2 -48 13 -11 15 -10 12 6 -1 10 4 20 12 22 12 4 12 2 2 -5 -10
-7 -10 -11 3 -22 13 -11 15 -8 15 19 0 17 5 31 10 31 15 0 12 -60 -2 -61 -7
-1 -26 -1 -41 -1 -27 1 -28 0 -13 -17 9 -10 16 -22 16 -28 0 -6 7 -13 15 -17
8 -3 15 -12 15 -21 0 -8 5 -15 10 -15 15 0 12 11 -7 32 -12 14 -14 23 -6 40
l11 23 12 -27 c7 -16 16 -28 20 -28 4 0 10 -9 13 -20 3 -11 11 -20 19 -20 8 0
9 3 3 8 -10 7 -30 36 -42 61 -3 7 0 17 8 22 10 6 10 9 2 9 -7 0 -13 7 -13 15
0 28 18 15 25 -17 4 -18 19 -46 33 -61 15 -15 27 -35 27 -44 0 -9 7 -18 15
-20 13 -4 13 -3 0 6 -12 9 -13 12 -1 20 10 6 10 10 1 13 -7 2 -13 25 -14 53
-2 28 -1 38 1 23 5 -36 19 -36 26 -1 4 19 1 32 -11 41 -8 6 -11 12 -5 12 5 0
18 -9 28 -20 10 -11 13 -20 7 -20 -7 0 -12 -7 -12 -15 0 -20 16 -19 24 1 3 9
13 14 20 11 8 -3 17 -1 19 6 2 7 8 8 13 4 5 -4 2 -12 -6 -17 -11 -7 -8 -13 13
-32 l26 -23 -31 -33 c-18 -17 -29 -32 -26 -32 4 0 20 14 37 30 30 30 32 54 7
73 -7 5 -4 7 7 3 13 -4 17 -1 15 11 -2 9 4 18 12 20 11 3 12 2 2 -4 -9 -7 -6
-15 13 -33 30 -28 34 -84 8 -112 -20 -22 -11 -24 11 -2 9 8 16 29 16 45 0 21
10 41 31 61 17 17 30 25 29 17 -4 -26 0 -37 16 -43 13 -5 15 -2 11 15 -6 21
-5 21 11 5 15 -15 15 -18 2 -27 -11 -8 -12 -12 -2 -16 6 -2 12 -10 12 -18 0
-7 7 -18 15 -25 17 -14 20 -46 5 -53 -6 -3 -5 -4 2 -3 20 4 22 55 4 62 -19 7
-21 30 -3 38 10 5 10 7 0 12 -15 7 -17 54 -3 54 6 0 10 -9 10 -19 0 -46 23
-68 33 -31 3 11 11 20 19 19 10 0 10 -2 1 -6 -18 -7 -16 -30 2 -37 10 -4 15 1
15 14 0 28 20 25 22 -2 1 -13 2 -32 3 -43 1 -11 3 -27 4 -36 0 -9 7 -19 14
-22 18 -7 13 83 -5 95 -10 7 -10 9 2 5 8 -2 16 -13 18 -25 5 -31 20 -27 25 6
2 15 3 -3 1 -40 -2 -56 -1 -66 11 -55 7 6 9 14 4 15 -12 5 -12 29 1 34 5 2 11
22 12 45 2 32 6 39 16 31 7 -7 9 -14 3 -17 -5 -3 -10 -19 -11 -36 -3 -45 -1
-55 11 -55 8 0 8 5 -1 15 -8 9 -8 15 -2 15 6 0 12 12 14 27 5 41 23 38 47 -6
21 -42 19 -67 -7 -87 -15 -11 -8 -54 9 -54 5 0 4 9 -3 21 -11 17 -10 22 5 30
9 6 17 16 17 24 0 7 6 16 13 18 9 4 9 8 0 14 -12 9 -16 25 -14 61 1 29 17 28
23 -2 4 -18 1 -23 -10 -19 -12 5 -12 3 -1 -15 13 -20 38 -20 40 2 1 6 2 17 3
25 0 8 8 16 16 18 13 4 13 3 0 -6 -13 -10 -13 -13 3 -22 9 -5 17 -15 17 -22 0
-7 -4 -6 -10 3 -5 8 -13 11 -17 6 -4 -5 -2 -11 5 -13 14 -6 16 -33 2 -33 -7 0
-7 -6 -1 -17 5 -10 12 -26 15 -35 3 -10 11 -18 18 -18 11 0 11 2 0 8 -15 10
-19 81 -5 90 6 4 13 18 16 32 4 25 4 25 6 -2 0 -16 6 -28 11 -28 6 0 10 -5 10
-10 0 -6 10 -24 21 -39 12 -16 18 -34 15 -40 -5 -7 -1 -8 9 -5 12 5 13 10 6
17 -6 6 -11 18 -11 26 0 10 7 8 25 -9 22 -21 23 -24 9 -35 -17 -12 -12 -55 7
-55 5 0 4 9 -3 20 -11 16 -10 22 6 33 11 8 16 19 12 25 -3 6 0 17 8 25 13 13
12 14 -10 15 -20 0 -22 -3 -13 -14 7 -9 8 -14 1 -14 -5 0 -13 7 -16 16 -4 9
-13 14 -22 10 -9 -3 -12 -2 -9 5 4 6 13 8 21 5 10 -4 13 0 9 17 -6 25 10 56
22 43 4 -5 2 -11 -4 -13 -18 -6 -16 -28 3 -44 13 -11 15 -10 12 6 -1 10 4 20
12 22 12 4 12 2 2 -5 -10 -7 -10 -11 3 -22 11 -9 14 -26 11 -64 -2 -28 -2 -43
1 -33 2 9 8 17 13 17 4 0 10 9 13 19 3 12 0 18 -7 17 -6 -2 -8 -1 -3 1 11 7 9
51 -3 56 -6 3 -5 4 2 3 7 -1 14 -15 16 -29 2 -15 8 -27 13 -27 8 0 14 38 10
69 -2 11 0 11 12 0 8 -8 11 -15 6 -17 -5 -2 -9 -16 -9 -30 0 -15 -6 -39 -14
-54 -11 -21 -12 -28 -1 -32 7 -2 12 1 12 7 -1 41 3 49 18 37 8 -7 15 -19 15
-26 0 -8 5 -14 11 -14 8 0 8 -5 -1 -15 -9 -10 -9 -15 -1 -15 20 0 17 46 -5 67
-19 19 -18 35 4 54 16 13 19 13 35 -1 9 -9 17 -26 17 -38 0 -12 5 -22 10 -22
6 0 10 -7 10 -15 0 -8 -4 -15 -9 -15 -11 0 -21 25 -21 56 0 13 -4 24 -10 24
-16 0 -12 -56 5 -70 8 -7 15 -19 15 -26 0 -26 18 -14 25 17 4 16 12 28 18 26
21 -7 19 -35 -2 -54 -12 -9 -21 -21 -21 -26 0 -5 14 5 31 22 24 25 29 34 20
45 -9 11 -9 15 1 19 7 2 9 8 5 13 -4 5 -12 2 -17 -6 -6 -9 -10 -10 -10 -3 0 7
6 16 14 20 7 4 16 15 19 23 4 12 6 11 6 -2 1 -10 5 -18 10 -18 17 0 51 -81 50
-118 -2 -53 0 -62 12 -62 8 0 8 5 -1 15 -10 12 -10 15 0 15 10 0 10 3 0 15 -9
10 -9 15 -1 15 15 0 14 22 -4 56 -8 16 -15 37 -15 46 0 9 -5 19 -10 21 -6 3
-5 4 2 3 7 -1 15 -11 17 -22 2 -10 17 -34 33 -53 16 -18 27 -39 24 -47 -3 -8
0 -11 9 -8 15 6 2 38 -28 69 -20 19 -19 57 1 61 7 1 8 0 2 -3 -12 -6 -14 -43
-2 -43 4 0 13 5 19 11 13 13 33 4 33 -17 0 -8 5 -14 10 -14 10 0 14 14 11 39
-2 11 0 11 12 0 11 -10 12 -16 3 -21 -8 -6 -7 -11 4 -17 10 -7 17 -6 22 2 4 6
10 8 14 5 3 -4 -1 -14 -9 -22 -11 -12 -17 -13 -20 -3 -2 6 -8 9 -12 5 -4 -4 5
-18 20 -32 32 -30 46 -35 22 -8 -13 15 -13 19 0 30 10 10 12 24 8 45 l-6 32
15 -29 c19 -33 21 -56 5 -56 -8 0 -7 -6 2 -16 8 -9 14 -24 14 -32 0 -8 7 -17
15 -19 13 -4 13 -3 0 6 -12 9 -13 12 -1 20 11 7 11 9 0 14 -11 5 -10 8 4 17 9
6 17 18 17 25 0 8 4 15 9 15 5 0 11 6 14 13 2 6 2 -1 -1 -18 -2 -16 -8 -35
-14 -42 -5 -7 -5 -12 3 -15 7 -2 12 -20 12 -39 -1 -18 2 -27 5 -19 3 8 10 18
16 22 8 6 8 8 0 8 -14 0 -25 36 -17 56 9 24 21 15 27 -21 8 -41 21 -45 30 -9
4 15 13 33 21 40 7 8 16 19 18 26 4 10 8 9 16 -2 6 -8 11 -19 11 -25 0 -5 -4
-3 -10 5 -5 8 -12 11 -17 7 -4 -5 -2 -11 4 -15 6 -4 15 -21 19 -37 7 -27 6
-29 -9 -17 -9 8 -18 23 -20 35 l-4 22 -2 -22 c0 -12 5 -28 12 -35 8 -7 16 -20
20 -28 4 -12 6 -11 6 3 1 9 6 17 11 17 6 0 10 7 10 15 0 8 -4 15 -10 15 -5 0
-10 4 -10 10 0 14 32 50 45 50 5 0 3 -5 -5 -10 -13 -9 -13 -12 3 -21 9 -5 17
-17 17 -24 0 -29 19 -14 22 17 2 17 9 33 16 34 7 1 8 0 2 -3 -16 -8 -12 -50 6
-57 11 -4 14 0 12 16 -2 11 3 22 10 24 7 1 8 0 2 -3 -7 -3 -7 -10 1 -20 10
-12 10 -16 -2 -23 -11 -8 -12 -13 -1 -30 8 -14 9 -20 1 -20 -8 0 -8 -4 -1 -13
5 -6 12 -21 15 -32 3 -11 4 6 2 37 -4 56 -4 57 15 40 11 -9 20 -22 20 -28 0
-6 7 -17 15 -24 9 -7 15 -20 14 -29 -3 -29 1 -41 12 -41 8 0 8 5 -1 15 -9 10
-9 15 -1 15 16 0 14 19 -5 37 -10 10 -13 25 -9 43 5 21 2 31 -12 39 -10 6 -13
11 -7 11 16 0 44 -34 44 -52 0 -24 11 -48 21 -48 5 0 5 7 0 18 -6 9 -13 33
-16 54 -3 20 -12 39 -20 42 -8 3 -15 10 -15 16 0 5 9 2 20 -7 11 -10 20 -22
20 -28 0 -6 6 -17 12 -23 7 -7 13 -20 13 -29 0 -9 7 -18 15 -20 13 -4 13 -3 0
6 -10 7 -12 13 -4 19 19 13 23 41 8 57 -24 24 -4 17 22 -7 13 -13 24 -33 24
-45 0 -13 5 -23 10 -23 6 0 10 -8 11 -17 0 -14 2 -15 6 -3 4 8 12 21 20 28 7
7 13 22 13 33 0 10 5 19 10 19 6 0 10 -13 10 -30 0 -16 -4 -30 -9 -30 -5 0
-11 -9 -14 -19 -6 -24 20 -17 27 7 2 10 4 2 3 -17 -1 -23 3 -35 13 -38 13 -4
13 -3 0 7 -11 9 -12 13 -2 17 14 6 16 43 2 43 -15 0 -12 19 5 37 14 14 15 13
10 -8 -5 -21 -2 -24 24 -26 27 -2 30 1 34 30 l4 32 1 -32 c2 -34 16 -44 26
-18 3 8 10 15 16 15 6 0 4 -7 -4 -16 -9 -8 -16 -22 -16 -30 0 -8 -4 -14 -10
-14 -5 0 -10 7 -10 17 0 9 -2 14 -5 11 -9 -8 6 -58 16 -58 5 0 9 6 9 13 0 19
47 60 59 52 6 -3 11 -13 11 -21 0 -8 5 -14 10 -14 16 0 12 47 -5 54 -8 3 -15
10 -15 16 0 5 9 2 20 -7 11 -10 20 -28 20 -40 0 -28 16 -30 25 -3 9 27 23 25
31 -4 6 -26 64 -87 64 -68 0 6 -7 15 -16 20 -8 5 -17 21 -18 35 -3 22 -1 25
11 15 11 -9 12 -13 1 -21 -9 -6 -8 -7 5 -3 11 3 17 0 17 -9 0 -8 5 -15 10 -15
12 0 13 27 1 32 -4 2 -12 14 -16 28 -7 22 -6 23 8 8 9 -8 19 -27 23 -42 6 -27
23 -36 25 -13 1 6 2 18 3 26 0 8 7 15 14 17 7 1 8 0 2 -3 -15 -7 -12 -20 5
-27 8 -3 21 1 29 9 13 13 14 9 12 -29 -2 -33 1 -43 11 -39 10 4 11 9 2 19 -7
9 -8 14 -1 14 6 0 13 8 16 18 3 9 3 -11 1 -46 -4 -66 1 -92 16 -92 5 0 4 9 -3
20 -11 17 -10 22 1 29 11 7 11 9 0 14 -10 4 -11 8 -2 14 6 4 14 25 18 46 8 39
25 51 25 17 0 -12 5 -17 13 -14 7 2 22 -4 32 -16 10 -11 13 -20 8 -20 -6 0
-13 7 -17 15 -3 8 -11 15 -17 15 -8 0 -6 -7 5 -19 15 -17 15 -20 1 -34 -19
-19 -19 -33 -1 -40 10 -4 13 -18 10 -47 -3 -34 -1 -38 10 -28 8 7 10 15 5 16
-13 5 -11 32 3 32 6 0 4 8 -6 19 -20 22 -15 56 9 65 11 4 15 -2 15 -23 0 -16
6 -31 13 -34 9 -3 12 5 8 31 -3 33 -2 35 12 23 9 -7 19 -21 22 -32 4 -10 10
-19 15 -19 5 0 3 12 -5 27 -13 26 -12 43 4 43 11 0 39 -69 29 -74 -5 -2 -3 -3
4 -2 14 3 13 46 0 56 -5 3 -12 14 -15 25 -7 19 -6 19 11 -2 13 -15 23 -18 33
-12 12 8 11 11 -3 20 -10 5 -18 15 -18 21 0 6 11 0 23 -14 13 -14 34 -31 45
-37 l22 -12 -26 -24 c-15 -14 -23 -25 -18 -25 5 0 20 12 34 26 22 24 23 27 7
39 -19 13 -23 35 -7 35 6 0 10 -6 10 -14 0 -7 7 -19 15 -26 11 -9 12 -15 5
-20 -16 -10 -17 -62 -2 -66 7 -1 8 0 2 3 -14 7 -13 30 2 35 7 3 12 21 11 42
l-1 38 14 -27 c11 -21 11 -31 3 -41 -8 -9 -8 -14 -1 -14 6 0 12 -8 15 -17 2
-10 3 4 3 31 -1 36 3 50 14 53 12 4 12 3 1 -5 -9 -7 -10 -12 -2 -16 6 -4 11
-15 11 -25 0 -10 9 -26 20 -36 12 -11 20 -13 20 -6 0 6 -7 14 -15 17 -17 7
-21 64 -5 64 6 0 10 -9 10 -20 0 -10 10 -28 22 -40 l22 -20 -24 -25 c-30 -32
-21 -33 13 -1 19 17 22 27 14 35 -8 8 -8 11 0 11 6 0 13 7 17 15 7 19 2 19
-16 2 -11 -12 -16 -12 -26 0 -8 7 -8 13 -2 13 14 0 13 27 -2 33 -10 4 -10 6 0
6 8 1 16 -8 19 -19 6 -21 23 -28 23 -9 0 6 7 4 15 -5 16 -16 19 -32 8 -39 -5
-2 -2 -2 5 -1 9 3 12 -6 9 -29 -2 -17 -2 -24 0 -14 2 9 8 17 13 17 4 0 11 12
14 26 4 15 13 33 21 40 8 8 11 22 8 31 -6 15 -5 16 9 3 11 -11 13 -17 4 -22
-8 -6 -8 -10 1 -16 6 -4 13 -20 15 -36 1 -16 9 -31 16 -32 7 -1 8 0 2 3 -17 8
-12 46 5 39 12 -4 14 0 9 22 l-6 27 14 -25 c8 -14 10 -26 6 -28 -11 -5 -10
-32 1 -32 5 0 12 13 16 30 6 29 25 42 25 18 0 -6 8 -20 17 -30 12 -13 13 -22
6 -29 -8 -8 -6 -16 8 -30 23 -23 37 -25 18 -3 -7 9 -14 34 -15 56 -1 23 -8 45
-16 50 -10 8 -10 9 2 5 8 -2 16 -13 18 -25 4 -26 18 -29 26 -5 3 10 4 -2 2
-27 -2 -25 -2 -37 1 -27 2 9 8 17 13 17 5 0 11 14 15 30 8 38 22 38 30 1 3
-16 13 -32 22 -35 8 -4 13 -13 9 -21 -8 -21 -3 -19 29 11 15 14 24 28 21 31
-3 4 -12 -2 -20 -12 -16 -23 -33 -13 -33 19 0 21 1 23 14 11 16 -17 40 -10 47
13 2 10 3 -8 1 -38 -1 -30 0 -47 2 -37 6 23 32 4 28 -21 -1 -9 0 -11 2 -5 3 7
9 13 14 13 6 0 3 7 -5 16 -9 8 -15 25 -15 37 2 22 2 22 6 -1 5 -27 19 -29 26
-2 3 11 11 20 19 19 10 0 10 -2 1 -6 -15 -5 -18 -53 -4 -53 6 0 12 -15 14 -33
l4 -32 1 33 c1 17 7 32 12 32 6 0 10 7 10 15 0 20 -17 19 -23 0 -3 -11 -4 -10
-3 2 1 10 9 17 19 17 9 -1 17 4 17 12 0 8 5 14 10 14 6 0 10 -4 10 -9 0 -13
43 -80 52 -81 3 0 0 14 -9 30 -8 17 -12 36 -10 43 4 8 6 6 6 -4 1 -8 12 -26
26 -39 14 -13 21 -26 16 -29 -5 -4 -2 -15 6 -26 15 -20 15 -20 10 3 -4 15 2
29 16 42 35 33 52 23 20 -12 -15 -17 -15 -18 0 -13 26 10 33 46 11 62 -10 7
-13 13 -7 13 15 0 41 -32 46 -60 3 -15 5 -9 3 13 -2 31 0 35 12 24 7 -8 14
-28 14 -44 1 -24 4 -28 14 -19 6 6 8 13 3 14 -12 5 -11 32 1 32 14 0 12 27 -2
33 -10 4 -10 6 0 6 8 1 16 -8 19 -19 6 -21 23 -28 23 -10 0 7 5 6 13 -2 10 -9
11 -16 3 -24 -8 -8 -14 -8 -24 3 -18 17 -23 17 -16 -2 4 -8 10 -15 15 -15 5 0
9 -8 10 -17 0 -14 2 -15 6 -3 4 8 12 21 20 28 7 7 13 22 13 33 0 10 5 19 10
19 6 0 10 -13 10 -30 0 -16 -5 -30 -11 -30 -8 0 -8 -4 0 -14 9 -11 9 -15 0
-18 -8 -3 -7 -8 3 -16 13 -10 15 -6 15 27 0 65 35 83 56 29 7 -21 23 -23 33
-6 4 6 0 16 -9 23 -19 13 -23 35 -7 35 6 0 10 -5 10 -12 0 -6 7 -20 16 -30 14
-14 14 -20 4 -33 -7 -9 -10 -18 -6 -22 10 -11 19 5 20 36 1 25 3 28 15 17 7
-8 13 -31 14 -52 0 -22 2 -31 4 -22 3 10 10 18 16 18 9 0 9 2 1 8 -6 4 -14 24
-17 45 -5 32 -4 35 9 23 8 -8 14 -21 14 -30 0 -8 14 -28 31 -45 34 -34 53 -43
24 -11 -10 11 -13 20 -7 20 7 0 12 7 12 15 0 8 -4 15 -10 15 -5 0 -10 -7 -10
-16 0 -14 -3 -14 -15 -4 -20 17 -19 34 1 26 12 -5 15 -2 9 11 -4 12 5 7 24
-11 23 -22 28 -32 19 -39 -10 -6 -9 -7 2 -4 20 6 15 46 -8 64 -15 13 -15 13 6
3 12 -6 22 -17 22 -24 0 -13 31 -46 44 -46 4 0 0 7 -9 16 -18 18 -17 46 3 50
7 1 8 0 2 -3 -12 -6 -14 -33 -2 -33 4 0 13 5 19 11 14 14 33 3 32 -19 -1 -15
-2 -15 -6 0 -5 22 -23 24 -23 3 0 -8 5 -15 11 -15 8 0 8 -5 -1 -15 -18 -22 -3
-18 19 4 11 11 21 30 23 42 2 12 9 24 16 25 7 1 8 0 2 -3 -5 -2 -10 -17 -10
-33 0 -16 -7 -35 -15 -44 -17 -17 -20 -36 -5 -36 6 0 10 6 10 14 0 8 6 21 14
28 7 8 17 24 20 36 9 27 26 29 26 2 0 -11 -5 -20 -11 -20 -8 0 -8 -4 0 -14 7
-8 8 -15 2 -18 -5 -1 -3 -11 5 -22 13 -18 14 -17 13 15 -2 54 0 69 11 69 6 0
10 -9 10 -19 0 -11 14 -33 31 -50 36 -36 53 -42 20 -8 -13 15 -19 30 -15 41 8
21 29 15 29 -9 0 -10 7 -20 15 -22 13 -4 13 -3 0 6 -13 10 -13 12 0 21 8 5 10
10 4 10 -7 0 -15 8 -18 17 -6 15 -4 15 14 -2 11 -10 20 -24 20 -32 0 -7 5 -13
10 -13 15 0 12 48 -2 53 -8 2 -9 8 -4 13 5 5 11 4 13 -4 3 -7 11 -19 19 -26
18 -18 18 -32 0 -39 -7 -3 -13 -17 -13 -30 0 -20 2 -23 12 -14 9 9 10 14 1 20
-7 5 -5 11 7 18 12 7 17 19 14 37 -2 15 -2 21 0 15 5 -16 23 -17 23 -2 0 6 14
-3 30 -19 30 -31 38 -52 20 -52 -5 0 -10 -7 -10 -15 0 -21 20 -19 22 3 1 9 2
26 3 37 1 11 3 26 4 33 2 20 21 14 21 -7 0 -10 7 -24 15 -31 13 -11 13 -15 3
-22 -10 -7 -10 -9 2 -5 9 2 15 17 16 38 1 19 0 26 -3 17 -5 -19 -23 -25 -23
-8 0 6 5 17 12 24 10 10 16 10 31 -5 11 -10 16 -22 13 -28 -4 -7 -1 -8 8 -5
18 7 22 24 6 24 -5 0 -10 9 -10 20 0 27 18 26 22 -2 3 -21 4 -21 21 -3 13 13
18 14 17 4 -5 -32 1 -69 10 -69 6 0 10 15 11 33 0 17 3 26 6 18 7 -18 43 -54
49 -48 2 2 -2 10 -11 17 -8 7 -15 24 -14 39 0 15 3 20 6 11 3 -8 16 -27 30
-41 20 -22 22 -27 9 -32 -9 -4 -16 -11 -16 -17 0 -26 36 28 37 55 0 17 -1 22
-4 12 -2 -9 -9 -17 -14 -17 -13 0 -11 19 4 34 18 19 35 -2 43 -54 8 -48 24
-41 27 13 2 32 3 34 19 20 9 -8 15 -20 12 -27 -3 -7 4 -21 16 -31 11 -10 20
-13 20 -7 0 6 -8 16 -17 22 -13 8 -14 13 -5 16 6 3 12 12 12 19 0 7 -6 15 -12
18 -7 2 -10 8 -5 12 10 12 18 1 26 -36 4 -18 12 -34 19 -35 7 -1 8 0 2 3 -13
6 -13 63 0 63 6 0 10 -8 10 -19 0 -10 7 -24 15 -31 13 -11 16 -8 21 19 4 17
10 31 14 31 15 0 18 -41 3 -55 -8 -8 -10 -15 -5 -15 11 0 37 30 45 53 4 9 12
17 19 17 10 0 9 -3 -1 -9 -9 -6 -16 -30 -17 -61 -3 -46 -2 -51 12 -39 10 8 12
15 5 17 -19 6 -12 37 13 61 20 19 24 20 29 7 4 -9 12 -16 19 -16 10 0 10 2 0
9 -10 6 -10 10 1 19 12 10 14 7 11 -15 -2 -18 5 -35 19 -47 16 -16 19 -17 14
-4 -3 9 0 22 8 28 10 8 14 7 18 -7 3 -12 5 -9 6 9 1 35 17 44 25 14 7 -28 -1
-56 -17 -56 -6 0 -7 -3 -4 -7 9 -8 47 27 47 44 0 7 -6 13 -12 13 -9 0 -10 3
-2 8 6 4 14 14 17 22 4 12 6 12 6 -1 1 -22 27 -31 43 -15 11 11 16 11 26 0 7
-7 12 -18 12 -24 0 -14 -18 -13 -23 3 -2 6 -2 1 0 -13 3 -14 9 -27 14 -28 6
-3 5 -10 -2 -18 -8 -10 -8 -14 0 -14 11 0 15 13 12 38 -1 8 5 23 15 33 9 11
12 19 6 19 -6 0 -9 7 -5 15 8 22 13 13 16 -27 2 -19 13 -44 25 -56 34 -34 40
-26 7 8 -28 29 -28 31 -11 48 11 9 15 11 11 4 -4 -8 1 -21 11 -32 18 -17 20
-17 50 11 l31 30 -5 -31 c-2 -16 -9 -30 -16 -30 -6 0 -4 -5 4 -10 13 -9 13
-11 0 -21 -13 -9 -13 -10 0 -6 8 2 16 18 17 37 2 19 9 40 16 47 9 10 12 6 13
-18 1 -31 10 -47 20 -36 4 4 1 13 -6 22 -15 19 -5 34 12 17 7 -7 17 -12 23
-12 5 0 4 4 -3 9 -10 6 -10 10 3 21 13 11 14 10 9 -4 -5 -12 -2 -15 12 -10 14
4 15 3 6 -3 -17 -13 -21 -95 -4 -99 7 -1 8 0 2 3 -12 6 -13 40 -1 47 5 3 12
22 15 41 8 39 26 48 26 13 0 -36 11 -66 25 -72 9 -3 11 2 8 15 -3 10 -9 19
-14 19 -16 0 -10 37 8 51 12 10 15 10 9 1 -9 -15 2 -52 16 -52 7 0 7 4 0 13
-7 8 -6 16 4 25 12 11 14 10 14 -3 0 -22 17 -18 23 6 8 31 31 18 35 -19 3 -34
22 -45 22 -14 0 11 9 27 20 37 18 17 20 17 14 2 -3 -9 -10 -17 -15 -17 -6 0
-1 -9 10 -21 18 -20 41 -19 41 1 0 14 33 50 45 50 5 0 3 -5 -5 -10 -13 -9 -13
-11 0 -21 13 -9 13 -10 -1 -6 -12 4 -15 1 -12 -12 2 -10 -3 -25 -12 -35 -9 -9
-12 -16 -7 -16 13 0 39 31 46 57 4 13 12 23 17 23 8 0 14 -55 9 -89 -1 -13 1
-13 15 -1 11 9 13 16 6 18 -15 5 -14 51 2 66 10 11 15 10 26 -1 11 -12 15 -13
22 -2 4 7 11 10 15 7 3 -4 -1 -14 -10 -23 -9 -9 -16 -12 -16 -7 0 6 -7 12 -15
16 -8 3 -15 4 -15 2 0 -7 49 -56 57 -56 4 0 2 5 -5 12 -9 9 -5 17 15 36 21 19
23 26 12 33 -8 5 -9 9 -4 9 14 0 45 -37 45 -53 0 -7 -5 -18 -12 -25 -8 -8 -8
-12 -1 -12 13 0 23 23 23 51 0 25 17 24 25 -1 3 -11 11 -20 16 -20 14 0 11
-28 -3 -33 -10 -4 -10 -6 0 -6 7 -1 16 7 19 17 4 9 11 20 17 24 6 4 7 10 3 15
-5 4 -11 2 -15 -4 -5 -8 -10 -8 -18 1 -8 9 -7 15 3 24 7 7 13 9 13 3 0 -17 30
-20 46 -4 16 16 16 15 9 -7 -4 -14 -13 -28 -19 -32 -8 -6 -8 -8 1 -8 6 0 13
-6 16 -12 2 -7 3 -5 2 4 -2 9 6 25 18 35 20 18 20 17 15 -4 -4 -15 -2 -20 8
-16 7 2 15 14 17 26 3 12 3 5 2 -16 -3 -31 -1 -36 10 -27 8 6 15 21 17 33 2
12 10 22 18 22 11 0 14 -10 13 -34 l-2 -34 30 28 c16 16 26 31 23 34 -3 3 -12
-3 -20 -13 -7 -11 -16 -17 -19 -14 -9 9 33 40 45 33 5 -3 8 -11 5 -16 -9 -13
4 -49 17 -49 6 0 5 6 -2 15 -11 13 -9 19 10 37 16 15 24 17 30 9 5 -9 11 -8
24 4 9 9 16 12 16 7 0 -18 29 -21 46 -5 16 16 16 15 9 -7 -4 -14 -12 -27 -16
-28 -14 -6 -10 -29 5 -35 9 -4 12 0 9 12 -2 9 6 25 18 36 12 11 19 14 15 7 -9
-15 2 -52 16 -52 7 0 7 4 -1 14 -13 15 13 76 32 76 9 0 9 -2 0 -8 -19 -12 -21
-54 -3 -59 11 -3 12 -2 2 4 -10 7 -8 13 7 27 22 20 42 14 40 -12 -1 -15 -2
-15 -6 0 -5 22 -23 24 -23 3 0 -8 5 -15 11 -15 8 0 8 -5 -1 -15 -7 -8 -10 -15
-6 -15 10 0 42 35 49 54 9 23 33 15 29 -10 -2 -10 -11 -27 -19 -36 -17 -19
-11 -48 9 -47 10 0 10 2 1 6 -17 6 -16 21 1 39 8 7 16 19 18 26 5 15 28 1 28
-18 0 -9 6 -21 13 -28 9 -10 12 -4 13 31 1 60 24 76 30 20 1 -12 3 -25 3 -29
1 -5 6 -8 13 -8 9 0 9 3 1 11 -9 9 -8 15 3 26 8 8 14 23 14 34 0 10 5 19 10
19 15 0 12 -57 -2 -63 -10 -4 -10 -6 0 -6 7 -1 16 7 19 17 4 9 12 22 18 28 15
16 38 -11 39 -46 1 -18 5 -26 13 -23 15 6 17 33 3 33 -5 0 -10 9 -10 20 0 26
17 26 25 0 7 -21 25 -28 25 -10 0 6 -6 10 -12 10 -9 0 -8 4 2 10 13 9 13 11 0
20 -8 5 -10 10 -5 10 12 0 45 -36 45 -49 0 -5 -4 -11 -8 -13 -5 -2 -12 -16
-16 -32 -6 -25 -5 -28 8 -17 8 7 17 30 21 52 8 45 24 52 26 12 2 -24 2 -25 6
-5 2 12 8 22 13 22 5 0 11 8 13 18 4 16 5 16 6 0 0 -10 7 -18 14 -18 9 0 8 -3
-2 -9 -8 -5 -15 -30 -16 -61 -2 -47 -1 -50 13 -36 12 11 13 18 4 29 -9 10 -7
22 5 50 10 20 21 37 25 37 8 0 12 -32 8 -60 -2 -12 3 -11 19 4 12 11 21 23 21
28 0 5 6 15 13 22 10 11 15 10 27 -2 12 -14 12 -15 0 -10 -11 4 -15 -3 -16
-26 -1 -17 1 -23 3 -14 2 10 8 18 13 18 5 0 12 9 15 20 11 33 24 23 28 -22 l4
-43 1 41 c2 51 28 81 28 32 -1 -20 5 -33 14 -35 12 -4 12 -3 1 5 -10 7 -10 11
-1 17 9 6 9 10 -1 16 -12 7 -12 9 -1 9 8 0 16 -9 19 -20 3 -11 9 -20 14 -20
13 0 11 57 -1 63 -6 3 -5 4 2 3 7 -1 14 -12 16 -24 4 -24 22 -30 22 -8 0 25
21 29 40 8 13 -13 15 -23 8 -30 -6 -6 -12 -25 -14 -42 -3 -29 -2 -31 12 -19
11 9 12 15 5 17 -9 3 -9 7 -1 18 7 7 12 28 13 45 1 18 8 34 15 35 7 1 8 0 2
-3 -13 -6 -13 -33 0 -33 6 0 11 -15 11 -32 l2 -33 4 30 c3 16 10 33 16 37 6 4
8 10 4 15 -5 4 -13 1 -18 -7 -9 -13 -10 -13 -6 0 7 26 32 17 35 -12 4 -38 20
-35 24 4 3 36 25 49 35 21 4 -10 13 -23 21 -29 8 -6 12 -16 8 -22 -12 -19 -1
-14 29 14 15 14 24 28 21 31 -3 4 -13 -2 -20 -13 -17 -23 -41 -8 -30 19 6 18
24 23 24 8 0 -5 8 -8 18 -7 13 1 17 -7 17 -30 0 -21 4 -30 12 -27 17 7 17 60
1 66 -10 4 -10 6 0 6 8 1 16 -8 19 -19 3 -11 9 -20 14 -20 13 0 11 -34 -2 -47
-7 -7 -7 -12 3 -15 9 -4 14 4 15 25 3 39 11 46 27 24 7 -9 17 -17 21 -17 5 0
0 9 -10 20 -18 20 -14 50 7 50 11 0 11 -2 0 -8 -9 -7 -8 -13 7 -26 22 -20 42
-14 40 12 -1 15 -2 15 -6 0 -5 -22 -23 -24 -23 -3 0 8 4 15 9 15 5 0 12 8 14
17 4 17 5 17 6 1 0 -10 6 -18 11 -18 14 0 13 -33 -2 -48 -8 -8 -8 -12 -1 -12
13 0 23 23 23 51 0 32 17 21 24 -16 7 -34 26 -49 26 -20 0 8 -4 15 -10 15 -5
0 -10 14 -10 30 0 17 5 30 10 30 6 0 10 -9 10 -20 0 -10 9 -28 21 -39 12 -11
18 -24 15 -30 -5 -7 -1 -8 9 -5 14 6 14 8 -1 25 -9 10 -13 22 -9 28 4 7 -1 8
-12 4 -17 -6 -17 -6 -1 10 9 9 19 22 21 29 4 10 8 9 16 -2 6 -8 11 -19 11 -25
0 -5 -4 -3 -10 5 -5 8 -12 11 -17 7 -4 -5 -3 -11 3 -15 6 -4 14 -14 17 -22 4
-12 6 -11 6 3 1 15 14 21 49 20 6 -1 12 4 12 9 0 5 7 17 16 26 15 15 16 14 9
-8 -4 -14 -12 -27 -16 -28 -12 -5 -11 -42 0 -42 5 0 11 9 13 20 2 15 7 17 18
10 12 -8 13 -13 2 -30 -8 -14 -9 -20 -1 -20 8 0 8 -5 -1 -15 -9 -10 -9 -15 -1
-15 6 0 11 3 12 8 0 4 2 17 3 29 2 13 10 31 19 41 9 10 17 26 17 35 0 9 5 17
10 17 14 0 13 -43 -2 -58 -9 -9 -9 -12 1 -12 11 0 11 -3 1 -15 -9 -10 -9 -15
-1 -15 10 0 15 14 12 33 0 4 8 24 19 45 l21 37 -4 -40 c-3 -22 -3 -32 0 -23 2
9 10 21 17 27 11 9 13 2 11 -36 -1 -27 0 -40 2 -30 3 9 9 17 14 17 5 0 9 6 9
13 0 8 9 22 20 32 11 10 20 24 20 32 0 7 5 13 10 13 6 0 10 -7 10 -15 0 -8 -4
-15 -9 -15 -12 0 -23 -48 -16 -71 4 -10 11 -19 18 -19 8 0 8 3 -1 12 -15 15
-16 48 -2 48 6 0 13 -6 16 -14 3 -8 13 -17 22 -21 14 -5 13 -3 -2 14 -13 14
-14 20 -4 24 7 2 9 8 5 13 -4 5 -12 2 -17 -6 -6 -8 -10 -10 -10 -5 0 6 9 18
20 28 11 9 20 12 20 7 0 -18 18 -10 23 10 3 11 11 20 19 19 10 0 10 -2 1 -6
-15 -6 -17 -33 -3 -33 13 0 13 -33 -1 -47 -7 -7 -7 -12 3 -15 9 -4 14 7 16 40
5 72 21 74 24 4 1 -35 4 -40 16 -30 9 8 10 14 3 16 -15 5 -14 25 5 58 15 28
16 28 10 4 -4 -21 -1 -26 14 -26 11 0 20 4 20 8 0 11 33 48 43 48 5 0 1 -7 -7
-16 -9 -8 -16 -22 -16 -30 0 -8 -4 -14 -9 -14 -5 0 -12 -8 -14 -17 -4 -17 -5
-17 -6 0 -1 21 -21 23 -21 2 0 -8 5 -15 10 -15 14 0 12 -27 -2 -33 -10 -4 -10
-6 0 -6 8 -1 16 8 19 19 3 11 9 20 14 20 5 0 9 7 9 15 0 9 6 12 15 9 17 -7 21
-54 5 -54 -5 0 -10 -7 -10 -15 0 -29 19 -15 25 19 4 19 20 47 36 62 16 15 29
34 29 41 0 7 5 13 10 13 6 0 10 -7 10 -15 0 -8 -4 -15 -9 -15 -14 0 -43 -63
-32 -69 4 -3 11 -16 15 -28 4 -13 11 -23 16 -23 5 0 2 13 -6 30 -16 32 -10 74
9 67 7 -2 12 -12 12 -22 0 -10 7 -20 15 -22 12 -4 12 -2 2 5 -10 7 -10 11 2
21 12 10 18 9 33 -8 9 -12 22 -21 27 -21 5 0 -2 10 -16 23 -14 13 -28 30 -31
38 -4 10 -6 10 -6 -3 -1 -10 -5 -18 -11 -18 -18 0 -10 21 20 52 17 16 30 25
30 19 0 -5 -7 -14 -16 -19 -14 -8 -11 -14 20 -46 36 -35 60 -50 37 -22 -9 11
-9 15 1 19 7 2 9 8 5 13 -4 5 -12 2 -17 -6 -6 -8 -10 -10 -10 -5 0 6 5 17 10
25 8 12 12 12 18 2 7 -10 14 -4 26 20 l17 33 -6 -30 c-4 -16 -11 -32 -16 -33
-13 -5 -11 -30 4 -35 9 -4 8 -8 -3 -17 -13 -10 -13 -11 0 -7 9 2 15 15 15 32
0 35 22 45 28 13 l4 -23 2 23 c0 12 5 22 10 22 16 0 20 -40 5 -54 -16 -17 -18
-36 -4 -36 6 0 10 5 10 12 0 6 7 20 17 30 9 11 11 18 5 18 -16 0 -15 27 1 33
6 2 8 8 4 13 -4 5 -12 2 -16 -5 -7 -11 -10 -11 -14 0 -4 12 -7 11 -16 -1 -6
-8 -11 -10 -11 -5 0 6 8 17 18 26 16 13 19 13 35 -1 9 -9 17 -26 17 -38 0 -12
5 -22 10 -22 13 0 13 57 0 63 -6 3 -5 4 2 3 7 -1 15 -11 17 -22 2 -10 8 -22
15 -27 8 -5 6 -11 -6 -18 -11 -6 -18 -21 -17 -37 1 -21 2 -22 6 -7 3 11 10 26
17 34 6 8 11 32 11 54 0 24 5 41 13 43 7 1 8 0 2 -3 -12 -6 -14 -53 -1 -53 5
0 11 9 14 20 3 11 11 20 19 19 10 0 10 -2 1 -6 -14 -5 -17 -29 -5 -36 4 -2 2
-3 -3 -1 -17 3 -12 -56 5 -66 13 -9 13 -11 0 -20 -9 -6 -10 -10 -3 -10 21 0
27 23 10 35 -21 15 -21 22 -2 42 8 8 12 19 9 25 -4 6 1 17 12 25 16 12 17 15
4 23 -13 8 -13 11 2 26 16 16 17 16 12 -2 -2 -10 0 -25 5 -33 7 -11 13 -9 33
11 20 22 25 24 37 11 7 -8 15 -32 18 -53 3 -21 11 -41 17 -43 13 -5 9 53 -3
63 -4 3 -1 16 7 30 l14 25 -6 -25 c-4 -21 -1 -26 14 -26 13 0 20 7 20 18 0 10
5 18 10 18 6 0 10 -9 10 -20 0 -19 -9 -24 -40 -21 -10 1 -11 -1 -4 -6 6 -4 14
-18 18 -30 4 -13 12 -23 18 -23 6 0 6 -6 -2 -15 -8 -9 -8 -15 -2 -15 17 0 20
24 5 42 -8 9 -12 22 -8 29 6 8 10 7 17 -5 5 -9 14 -16 19 -16 6 0 4 7 -5 15
-8 9 -12 23 -9 32 9 24 36 53 48 53 5 0 3 -5 -5 -10 -13 -8 -12 -11 4 -23 11
-8 16 -19 12 -25 -11 -19 -24 -14 -29 11 -4 19 -4 19 -5 2 -1 -11 2 -26 7 -34
7 -11 13 -9 31 9 18 18 20 24 9 31 -12 7 -11 11 3 25 16 16 17 16 12 -7 -5
-18 -3 -21 5 -9 5 8 14 11 18 6 4 -5 2 -11 -4 -13 -14 -5 -18 -53 -4 -53 12 0
23 74 14 97 -6 17 -6 17 10 1 20 -20 22 -44 5 -52 -10 -5 -10 -7 0 -12 17 -8
15 -31 -3 -38 -8 -3 -15 -11 -15 -17 0 -7 8 -4 21 7 13 12 18 25 15 41 -4 13
-1 25 8 30 8 4 16 19 19 33 4 25 4 25 6 -2 0 -16 6 -28 11 -28 6 0 10 -7 10
-15 0 -21 -17 -19 -24 2 -2 10 -2 2 1 -18 4 -30 0 -41 -27 -67 -17 -18 -28
-32 -23 -32 17 0 71 65 78 95 3 16 12 33 18 37 6 4 8 10 4 15 -5 4 -13 1 -18
-7 -9 -12 -10 -12 -5 3 3 10 6 25 6 33 0 23 18 16 22 -8 3 -21 4 -21 20 -5 10
11 14 25 11 34 -6 15 -5 16 9 3 11 -11 13 -17 4 -22 -8 -6 -7 -11 4 -17 10 -7
17 -6 22 2 4 6 10 8 15 4 4 -5 1 -12 -7 -18 -13 -8 -13 -11 3 -20 9 -5 17 -17
17 -24 0 -29 19 -14 26 20 3 19 10 35 14 35 5 0 11 8 13 18 4 16 5 16 6 0 0
-10 6 -18 11 -18 6 0 10 -7 10 -15 0 -21 -18 -19 -23 3 -2 9 -4 3 -4 -15 0
-18 -6 -39 -13 -48 -7 -8 -9 -15 -4 -15 10 1 54 67 54 82 0 5 6 8 13 5 7 -2
12 -20 11 -43 -1 -21 1 -28 3 -14 3 13 16 35 30 48 14 13 22 26 19 29 -3 4
-13 -2 -21 -13 -15 -19 -15 -19 -30 1 -13 16 -17 17 -24 6 -6 -9 -8 -5 -8 12
0 23 1 24 15 11 12 -13 16 -13 23 -2 8 11 10 11 18 0 7 -11 11 -11 24 2 8 9
17 21 20 28 2 7 8 9 13 5 5 -4 2 -12 -6 -18 -13 -8 -13 -10 -1 -18 10 -6 20
-3 32 12 l18 22 -6 -22 c-3 -13 -9 -23 -14 -23 -5 0 -9 -18 -9 -40 0 -22 5
-40 10 -40 6 0 10 15 10 34 0 72 27 91 33 23 3 -41 4 -40 5 10 1 35 -3 56 -14
67 -8 9 -12 16 -7 16 14 0 43 -39 43 -58 0 -30 12 -60 25 -66 9 -3 11 2 8 15
-3 10 -9 19 -14 19 -5 0 -9 7 -9 15 0 8 5 15 10 15 14 0 13 27 -1 32 -8 3 -7
7 2 15 11 9 14 6 16 -14 0 -15 8 -30 17 -35 9 -5 16 -14 16 -19 0 -6 -7 -3
-16 5 -15 16 -24 20 -24 12 0 -7 61 -66 67 -66 3 0 -2 9 -12 20 -13 14 -14 20
-5 20 9 0 8 6 -5 20 -18 19 -17 25 11 70 l16 25 -7 -28 c-4 -19 -2 -26 5 -22
5 3 14 4 20 0 11 -7 2 -35 -12 -35 -7 0 -6 5 1 14 9 11 6 14 -14 14 l-25 -1
26 -24 c22 -20 25 -27 13 -35 -12 -8 -12 -9 1 -5 8 2 15 12 15 22 0 24 21 31
29 9 4 -10 -1 -25 -10 -35 -12 -14 -13 -19 -4 -19 9 0 7 -6 -5 -20 -17 -18
-17 -20 -2 -14 9 3 18 11 18 18 1 6 2 16 3 22 0 6 9 18 19 28 9 10 17 24 17
32 0 9 6 22 14 30 8 7 17 19 19 26 4 10 7 10 14 1 6 -8 13 -9 23 -2 11 6 12
11 4 17 -9 5 -9 10 1 18 9 9 12 3 12 -27 0 -29 7 -45 26 -63 26 -24 37 -66 17
-66 -5 0 -10 -9 -10 -20 0 -36 18 -21 25 21 6 34 4 44 -15 61 -23 22 -25 79
-2 84 7 1 8 0 2 -3 -13 -6 -13 -53 0 -53 6 0 10 6 10 14 0 7 7 19 15 26 13 11
13 15 3 22 -10 7 -10 9 2 5 8 -2 15 -10 15 -18 0 -9 8 -23 17 -32 10 -10 15
-25 11 -35 -6 -16 -5 -16 14 1 11 10 20 31 21 49 0 17 7 37 14 44 11 11 13 2
12 -49 -1 -34 1 -55 4 -47 3 8 8 17 11 20 12 9 41 59 41 70 0 23 -21 8 -26
-20 -4 -16 -10 -30 -15 -30 -14 0 -10 30 5 46 8 7 17 19 19 26 4 10 8 9 16 -2
11 -15 4 -80 -9 -90 -3 -3 -9 -13 -13 -22 -4 -12 -2 -15 8 -12 8 3 17 20 21
37 7 35 31 67 48 67 6 0 3 -5 -6 -10 -13 -8 -15 -19 -11 -45 4 -26 1 -41 -12
-55 -24 -26 -11 -26 15 0 22 22 27 70 8 70 -6 0 -4 7 5 18 10 10 17 24 17 30
0 7 5 12 10 12 14 0 13 -37 -1 -46 -8 -5 -8 -9 1 -14 7 -4 13 -26 14 -49 1
-36 2 -39 15 -26 12 12 13 17 3 27 -13 13 -16 48 -4 48 4 0 15 14 24 30 10 18
13 30 6 30 -6 0 -4 8 5 18 10 10 17 24 17 30 0 7 5 12 10 12 15 0 12 -27 -3
-33 -8 -3 -14 -22 -15 -43 -1 -22 -6 -40 -12 -42 -14 -5 -13 -29 3 -35 8 -3
12 6 13 25 1 16 7 41 15 56 17 34 51 69 48 51 -5 -39 15 -56 24 -21 4 16 5 16
6 0 2 -28 19 -21 24 9 l4 28 2 -27 c0 -16 5 -28 10 -28 5 0 11 -9 14 -20 3
-11 11 -20 19 -19 10 0 10 2 1 6 -15 6 -18 33 -3 33 5 0 12 16 16 35 7 38 24
48 24 14 0 -18 3 -19 14 -9 8 6 17 19 19 28 2 9 3 4 1 -11 -2 -17 2 -30 10
-33 21 -8 27 -46 10 -65 -13 -15 -13 -17 0 -22 10 -4 13 -1 9 8 -3 8 2 18 11
21 13 5 14 10 5 20 -6 7 -7 18 -3 25 5 8 9 7 16 -5 5 -9 14 -16 19 -16 6 0 3
7 -6 16 -15 15 -15 18 1 35 9 11 13 19 8 19 -5 0 -17 -9 -27 -20 -10 -11 -23
-17 -32 -13 -14 5 -12 10 9 32 28 29 33 46 16 54 -6 3 -5 4 2 3 7 -2 12 -15
11 -28 -1 -18 3 -25 14 -24 11 1 16 -8 17 -28 1 -16 8 -32 15 -34 9 -3 4 -13
-15 -33 -15 -16 -24 -29 -20 -29 13 0 56 52 50 62 -3 5 1 20 10 33 18 27 21
45 7 45 -5 0 -12 -14 -16 -30 -4 -17 -11 -30 -16 -30 -12 0 -11 6 4 30 10 17
9 22 -3 30 -8 5 -10 10 -4 10 7 0 14 9 17 20 3 11 11 20 19 19 10 0 10 -2 1
-6 -18 -7 -16 -30 3 -37 13 -5 15 -15 11 -47 -4 -34 -3 -38 9 -28 17 14 19 76
3 81 -8 3 -7 7 2 15 11 9 15 3 17 -30 1 -23 7 -44 13 -48 6 -3 13 -25 16 -48
3 -22 10 -41 14 -41 13 0 11 58 -2 62 -6 2 -13 28 -15 58 -1 30 0 43 2 27 3
-15 9 -27 14 -27 5 0 11 -14 15 -30 7 -31 25 -42 25 -15 0 8 -4 15 -10 15 -5
0 -10 7 -10 15 0 23 13 18 40 -15 14 -16 29 -29 34 -30 6 0 -4 15 -22 33 -29
30 -32 39 -30 87 l2 55 3 -47 c2 -27 8 -48 14 -48 9 0 13 22 9 49 -1 10 3 9
16 -3 13 -14 19 -15 25 -5 4 8 11 10 16 6 4 -5 1 -12 -7 -17 -13 -8 -12 -11 4
-23 11 -8 16 -19 12 -25 -13 -21 2 -13 33 19 21 21 31 26 31 15 0 -8 -10 -24
-22 -36 -12 -11 -19 -22 -17 -25 3 -3 18 8 34 25 20 21 25 33 18 42 -6 7 -13
32 -16 55 -4 36 -3 40 9 28 8 -7 14 -25 14 -40 0 -14 7 -28 15 -31 8 -4 15
-12 15 -19 0 -7 -7 -18 -15 -25 -8 -7 -15 -20 -14 -29 0 -13 2 -13 6 -1 7 16
12 23 52 70 19 22 31 29 31 19 0 -8 -4 -19 -9 -25 -5 -5 -12 -25 -15 -44 -3
-19 -3 -28 1 -20 3 8 10 18 15 21 15 10 15 102 1 106 -15 5 -18 43 -3 43 6 0
10 -9 10 -20 0 -13 5 -17 14 -14 22 9 27 32 10 49 -9 8 -11 15 -4 15 6 0 13
-6 16 -14 11 -28 32 -25 47 6 l14 30 -1 -40 c0 -23 -4 -36 -8 -29 -6 9 -10 9
-17 -2 -7 -11 -9 -11 -13 0 -3 8 -9 10 -14 5 -5 -5 -4 -11 4 -13 6 -3 12 -14
12 -25 0 -11 -5 -18 -12 -15 -7 2 -12 11 -12 20 1 9 -4 13 -12 10 -19 -7 -18
-19 2 -27 10 -4 14 -12 10 -22 -8 -20 4 -94 15 -94 12 0 11 37 -1 45 -15 9
-12 34 5 51 8 9 15 24 15 35 0 25 16 25 23 -1 3 -11 -1 -27 -9 -34 -19 -19
-18 -23 11 -50 28 -26 32 -42 13 -49 -10 -4 -10 -6 0 -6 23 -2 25 29 3 53 -26
28 -26 38 -1 61 20 18 20 17 20 -12 0 -17 6 -33 13 -36 9 -3 12 5 9 29 -2 19
-8 34 -13 34 -12 0 -12 27 0 32 5 2 13 15 16 31 6 22 4 26 -8 21 -8 -3 -17
-23 -21 -45 -6 -37 -26 -56 -26 -24 0 8 5 15 10 15 6 0 10 11 10 25 0 13 8 29
18 34 15 9 15 12 2 21 -8 5 -10 10 -5 10 13 0 45 -36 45 -51 0 -8 6 -7 16 2
10 8 12 15 5 17 -14 5 -15 42 -1 42 9 0 15 -31 10 -55 -1 -5 7 -15 17 -23 15
-11 16 -14 3 -22 -10 -7 -11 -10 -2 -10 6 0 12 -10 12 -23 0 -12 9 -30 20 -40
11 -9 20 -13 20 -7 0 5 -6 13 -14 17 -20 11 -27 90 -10 104 8 6 14 17 14 23 0
6 5 18 10 26 8 11 12 12 18 3 5 -8 12 -9 22 -2 13 8 13 10 0 20 -13 9 -12 10
3 5 9 -3 17 -1 17 4 0 18 19 10 25 -10 3 -11 11 -20 16 -20 12 0 12 47 0 52
-5 2 -2 9 6 17 12 11 14 11 12 0 -4 -31 2 -69 10 -69 6 0 11 15 13 33 4 46 33
44 34 -3 l2 -35 -5 32 c-5 41 -23 43 -23 3 0 -16 5 -30 10 -30 13 0 13 -27 1
-32 -17 -6 -17 -61 -1 -65 12 -4 12 -3 1 5 -8 6 -9 12 -3 16 5 3 13 22 16 41
4 19 11 35 15 35 16 0 18 61 3 77 -13 13 -13 16 1 30 15 15 16 15 11 -3 -4
-20 11 -53 20 -43 4 3 7 25 9 49 1 25 7 44 15 46 7 1 8 0 2 -3 -14 -7 -13 -30
3 -36 10 -4 10 -6 0 -6 -15 -1 -18 -51 -3 -51 6 0 10 6 10 14 0 7 6 19 14 25
8 7 17 27 20 45 4 19 13 37 21 40 10 3 12 0 8 -12 -4 -9 -10 -19 -13 -22 -4
-3 -10 -18 -14 -34 -6 -26 -5 -28 8 -17 9 8 16 19 16 27 0 7 6 17 14 21 7 4
16 15 19 23 4 12 6 11 6 -2 1 -10 6 -18 11 -18 18 0 15 50 -3 62 -9 6 -8 8 1
8 8 0 16 -8 19 -19 3 -12 14 -19 30 -19 l24 0 -27 29 c-15 16 -24 29 -20 29 4
0 20 -14 36 -31 18 -20 33 -28 41 -24 8 6 10 4 4 -4 -6 -10 -3 -11 13 -2 15 8
21 8 25 -2 2 -6 8 -9 12 -5 4 4 0 17 -9 30 -15 21 -16 21 -16 3 -1 -19 -1 -19
-14 -2 -14 18 -14 18 -18 0 -4 -15 -7 -13 -18 10 -7 15 -17 27 -22 27 -4 0 -8
7 -8 15 0 8 4 15 9 15 6 0 12 17 14 37 l4 38 1 -37 c2 -44 17 -50 26 -12 5 17
2 32 -9 43 -8 10 -15 26 -15 37 0 10 -7 32 -15 48 -19 36 -12 45 15 21 11 -10
20 -13 20 -8 0 6 -7 14 -15 17 -12 4 -14 14 -9 43 4 21 11 41 16 44 15 10 38
59 28 59 -5 0 -12 -11 -16 -24 -3 -14 -12 -27 -20 -30 -8 -3 -14 -17 -14 -31
0 -14 -4 -25 -10 -25 -5 0 -10 -7 -10 -16 0 -14 -2 -14 -15 0 -17 16 -21 66
-5 66 6 0 10 7 10 15 0 8 -5 15 -11 15 -8 0 -8 5 1 15 9 10 9 15 1 15 -6 0
-11 -3 -12 -7 -4 -59 -11 -108 -14 -112 -9 -9 -17 8 -22 48 -3 23 -10 41 -16
41 -5 0 -3 8 5 17 16 19 14 43 -4 43 -7 0 -6 -5 1 -14 9 -11 9 -15 -1 -18 -8
-3 -11 -20 -10 -48 3 -38 1 -42 -12 -30 -9 7 -16 19 -16 28 0 8 -7 24 -17 34
-11 13 -12 18 -3 18 10 0 10 3 1 14 -9 11 -9 15 0 18 8 3 7 8 -3 16 -13 10
-15 6 -15 -29 0 -25 5 -43 14 -46 7 -3 13 -17 13 -32 -1 -25 -1 -25 -15 -6 -8
11 -21 28 -31 37 -9 9 -13 21 -9 27 13 22 -5 10 -39 -25 -19 -20 -40 -33 -45
-29 -6 3 -11 1 -11 -4 0 -22 -16 -10 -32 24 -8 19 -12 35 -7 35 5 0 11 -11 15
-25 3 -14 10 -25 15 -25 13 0 11 24 -3 38 -7 7 -13 20 -13 30 0 10 -7 16 -18
15 -14 -1 -17 4 -14 17 3 13 0 17 -9 13 -17 -6 -18 -30 -1 -36 9 -4 8 -8 -3
-16 -10 -7 -11 -11 -2 -11 6 0 12 -9 12 -20 0 -33 -17 -22 -24 15 -4 19 -11
35 -16 35 -16 0 -11 27 5 34 8 3 15 10 15 16 0 5 -9 2 -20 -7 -14 -13 -18 -27
-16 -57 2 -23 1 -29 -1 -13 -2 15 -8 27 -14 27 -12 0 -12 57 1 62 5 2 11 17
14 35 2 23 0 30 -11 26 -10 -4 -11 -9 -3 -18 8 -9 8 -14 -1 -17 -6 -2 -13 -25
-16 -51 -7 -60 -20 -60 -29 1 -4 26 -11 50 -17 53 -5 4 -9 18 -9 32 0 20 -3
23 -13 14 -7 -7 -9 -15 -4 -18 6 -3 12 -23 16 -45 3 -21 9 -41 13 -44 4 -3 10
-23 14 -45 l7 -40 -16 29 c-8 15 -15 34 -15 40 0 6 -9 12 -20 12 -11 0 -19 -5
-19 -11 3 -25 -2 -45 -11 -45 -13 0 -13 27 0 32 6 2 -3 17 -21 33 -31 30 -31
30 -24 5 4 -14 13 -28 19 -32 8 -5 7 -8 -2 -8 -7 0 -15 8 -19 18 -8 22 -34 52
-45 52 -11 0 -10 -27 1 -32 5 -1 3 -8 -3 -14 -19 -18 -19 56 0 77 13 15 13 17
-2 23 -12 5 -14 13 -10 32 7 25 6 25 -10 10 -15 -16 -15 -18 2 -37 17 -19 17
-22 2 -33 -9 -6 -18 -21 -21 -31 -2 -11 -3 -3 -2 17 2 29 0 35 -9 25 -7 -6
-15 -20 -19 -30 -3 -9 -12 -17 -19 -17 -10 0 -10 2 -1 8 17 11 21 74 5 80 -6
2 -12 11 -13 20 0 12 -2 13 -6 4 -3 -7 3 -22 13 -33 9 -10 12 -19 7 -19 -6 0
-13 -10 -16 -21 -4 -15 -11 -20 -21 -16 -22 9 -20 -10 2 -22 9 -6 12 -11 6
-11 -14 0 -54 43 -54 58 0 7 -5 12 -12 12 -6 0 -4 7 5 18 10 10 17 23 17 29 0
6 5 13 11 15 7 2 6 8 -4 16 -12 10 -14 8 -14 -12 0 -14 -8 -32 -16 -41 -9 -8
-14 -21 -12 -28 7 -17 -15 -46 -22 -29 -2 7 -10 18 -17 25 -7 7 -16 24 -19 38
-4 15 -14 29 -22 33 -11 4 -14 2 -9 -6 4 -6 0 -16 -8 -22 -8 -6 -17 -19 -21
-28 -3 -10 -12 -18 -19 -18 -10 0 -10 2 -1 8 7 4 15 27 18 50 4 36 3 41 -9 30
-10 -9 -11 -15 -2 -20 7 -5 4 -12 -9 -22 -24 -18 -39 -15 -41 8 -2 12 -1 13 3
1 6 -19 23 -20 23 0 0 8 -5 15 -12 15 -6 0 -3 9 7 20 28 31 10 23 -24 -10 -20
-21 -28 -36 -24 -48 6 -16 6 -16 -11 1 -21 21 -21 21 -39 3 -13 -13 -14 -12
-14 10 0 14 -8 33 -18 44 -10 11 -15 26 -12 34 4 10 1 13 -8 10 -25 -10 -29
-64 -3 -64 7 0 6 6 -2 15 -8 9 -8 15 -2 15 13 0 20 -20 14 -42 -5 -21 -22 -24
-22 -4 0 7 -7 19 -15 26 -13 11 -13 15 -3 22 10 7 10 9 -2 5 -9 -2 -14 -14
-13 -31 2 -23 0 -24 -13 -12 -18 19 -18 35 3 58 16 18 16 18 0 12 -9 -3 -17
-10 -17 -16 0 -5 -7 -2 -16 6 -18 18 -28 21 -19 6 9 -15 -43 -66 -55 -54 -11
11 -2 54 10 54 5 0 10 -8 13 -17 2 -10 4 3 4 28 0 36 -3 44 -13 35 -9 -8 -9
-13 0 -18 15 -10 -24 -39 -43 -33 -9 4 -11 0 -7 -11 5 -14 4 -15 -9 -4 -17 14
-21 50 -5 50 6 0 10 7 10 15 0 8 -4 15 -10 15 -12 0 -24 -65 -15 -82 3 -7 -3
-3 -14 10 -13 15 -19 34 -17 52 2 21 0 27 -11 23 -10 -4 -11 -9 -3 -18 8 -9 7
-15 -2 -18 -10 -4 -10 -8 2 -16 10 -7 11 -11 3 -11 -7 0 -13 -8 -14 -17 0 -13
-2 -14 -6 -4 -6 15 -40 51 -48 51 -11 0 -4 -29 8 -33 9 -4 9 -6 -1 -6 -8 -1
-16 8 -19 19 -3 11 -9 20 -13 20 -5 0 -12 -9 -15 -20 -8 -24 -21 -26 -29 -4
-9 23 -7 31 4 14 5 -8 13 -11 17 -6 4 5 2 11 -4 13 -7 3 -13 10 -13 17 0 7 -8
20 -19 30 -12 11 -17 27 -15 47 3 25 1 27 -10 17 -10 -10 -11 -15 -2 -21 8 -6
8 -10 -1 -14 -10 -3 -10 -8 1 -19 8 -7 13 -22 12 -31 -2 -10 -1 -12 1 -5 6 17
23 15 23 -3 0 -8 -4 -15 -9 -15 -5 0 -12 -8 -14 -17 -4 -16 -5 -16 -6 -2 -2
25 -28 31 -48 11 -15 -15 -16 -15 -11 -1 4 9 0 28 -7 43 -8 14 -10 26 -4 26 5
0 9 7 9 15 0 8 -4 15 -10 15 -10 0 -13 -14 -13 -60 0 -15 -2 -18 -4 -7 -6 23
-23 22 -23 -2 0 -11 -4 -22 -9 -25 -4 -3 -5 12 -1 33 5 31 4 38 -7 34 -7 -3
-13 -11 -13 -18 0 -25 -22 -28 -43 -7 -20 20 -20 22 -3 40 14 17 15 22 3 33
-8 8 -16 21 -20 29 -4 12 -6 12 -6 -1 -1 -9 6 -22 14 -29 13 -11 13 -14 -1
-27 -10 -10 -13 -27 -10 -51 3 -21 3 -28 0 -17 -4 11 -13 28 -21 37 -9 10 -13
24 -10 32 4 10 1 13 -9 9 -15 -6 -20 -33 -5 -33 5 0 12 -8 15 -17 6 -14 3 -14
-15 3 l-22 19 7 -29 c6 -26 5 -27 -9 -13 -8 9 -15 20 -15 25 0 5 -9 17 -19 26
-12 11 -17 24 -13 34 5 14 4 15 -10 2 -13 -12 -13 -17 -1 -28 7 -7 13 -21 12
-30 0 -11 -2 -12 -6 -4 -2 6 -8 12 -13 12 -5 0 -10 -6 -13 -12 -2 -7 -3 -5 -1
5 1 9 -4 24 -12 31 -17 18 -18 36 -2 36 6 0 3 9 -7 20 -10 11 -22 20 -27 20
-5 0 -3 -7 5 -15 15 -15 12 -55 -4 -55 -4 0 -10 -12 -12 -27 -2 -17 -5 -10 -6
20 -1 53 -18 64 -23 15 -4 -39 -25 -48 -37 -15 -13 33 -23 38 -41 19 -13 -14
-13 -15 1 -10 12 5 15 1 11 -18 -6 -33 -18 -30 -26 8 -4 22 -1 37 10 50 23 24
9 23 -15 -1 -11 -11 -21 -30 -24 -43 l-4 -23 -2 23 c-1 25 26 72 42 72 5 0 20
11 33 25 13 14 28 25 34 25 13 0 13 -27 0 -33 -6 -3 -5 -4 2 -3 7 2 13 12 12
22 0 11 15 34 32 52 l33 34 18 -21 c9 -12 22 -21 27 -21 5 0 -1 11 -14 25
l-23 25 36 35 c34 34 40 35 127 42 49 3 90 9 90 13 0 4 64 11 143 15 78 4 147
11 152 15 6 4 34 11 63 15 28 4 52 11 52 15 0 5 34 11 75 15 41 4 75 11 75 15
0 5 27 11 60 15 33 4 60 11 60 15 0 5 20 12 45 16 25 3 45 10 45 14 0 4 19 10
41 13 23 3 45 10 48 16 4 5 26 13 49 17 23 4 42 10 42 14 0 5 14 11 30 15 17
4 30 10 30 15 0 5 14 11 30 15 17 4 30 10 30 15 0 5 13 11 29 15 28 6 52 35
30 35 -6 0 -24 9 -39 20 -59 42 -108 52 -195 40 -44 -6 -109 -17 -145 -25 -36
-9 -76 -15 -90 -15 -14 0 -36 -7 -49 -17 -18 -12 -28 -13 -41 -5 -11 7 -31 8
-56 2 -22 -4 -84 -16 -139 -25 -55 -9 -129 -23 -165 -31 -36 -8 -81 -14 -100
-15 -19 0 -57 -7 -85 -15 l-50 -13 90 3 c50 2 110 9 135 15 43 10 119 23 240
41 30 5 70 14 88 20 18 7 36 10 39 7 9 -10 -60 -47 -97 -52 -45 -7 -181 -30
-295 -50 -90 -16 -166 -19 -345 -16 -52 1 -133 -5 -180 -13 -47 -9 -101 -16
-120 -16 -19 0 -73 -6 -120 -14 -47 -8 -134 -22 -195 -30 -83 -11 -125 -22
-170 -45 -33 -17 -71 -31 -85 -31 -14 0 -70 -6 -125 -14 -55 -9 -161 -22 -235
-30 -74 -9 -175 -20 -225 -25 -63 -7 -104 -7 -135 1 -62 14 -266 12 -391 -6
-57 -8 -131 -17 -164 -20 -130 -13 -236 -44 -370 -107 -55 -27 -121 -53 -147
-59 -87 -22 -1260 0 -1643 30 -71 6 -204 15 -295 21 -330 19 -540 51 -540 80
0 5 -4 9 -10 9 -10 0 -50 36 -50 45 0 3 -9 14 -21 26 -11 11 -19 23 -16 25 6
6 428 -15 439 -22 4 -3 146 -9 315 -14 170 -6 427 -14 573 -20 334 -12 814
-12 860 0 19 5 51 13 71 18 19 5 83 32 143 61 59 28 119 54 134 56 15 2 140 7
277 10 138 3 284 10 325 15 41 5 109 9 150 9 106 1 621 45 880 76 69 9 139 15
155 15 17 0 78 7 138 15 59 8 155 22 215 30 59 8 122 15 140 15 22 0 32 5 32
15 0 17 21 20 36 6 5 -5 33 -5 69 0 33 6 105 17 160 25 204 31 425 68 530 89
114 23 216 45 280 59 55 13 122 27 265 56 30 6 81 15 113 20 32 6 67 15 78 20
20 11 29 10 102 -12 l38 -11 -3 -56 -3 -56 -45 2 c-43 1 -44 1 -15 -10 17 -5
47 -21 67 -33 34 -22 38 -22 53 -8 13 13 15 28 9 70 -11 90 -9 152 7 180 11
21 11 28 2 31 -7 3 -13 11 -13 19 0 8 -4 14 -8 14 -7 0 -88 157 -128 245 -7
17 -27 60 -43 98 -17 37 -31 72 -31 78 0 6 -6 25 -14 42 -51 117 -62 348 -26
555 23 130 34 159 56 141 11 -9 12 -15 2 -27 -18 -21 -18 -655 0 -673 6 -7 12
-21 12 -30 0 -14 7 -17 33 -15 17 2 22 1 10 -1 -13 -2 -23 -11 -23 -20 0 -26
23 -93 32 -93 4 0 8 -6 8 -14 0 -8 7 -16 15 -20 8 -3 15 -1 15 5 0 6 7 6 19
-1 26 -13 31 -13 31 5 0 8 -4 15 -9 15 -5 0 -12 28 -16 62 -6 50 -4 64 8 73 9
6 19 34 23 63 4 29 12 53 20 56 10 4 12 14 8 30 -4 17 0 27 13 36 13 8 14 13
6 16 -15 7 -17 41 -3 46 5 2 12 33 14 70 4 56 2 67 -12 71 -15 4 -15 5 -1 6
11 1 17 10 17 27 0 15 6 31 13 36 11 7 11 11 2 15 -15 6 -17 33 -3 33 17 0 11
18 -7 23 -17 4 -17 5 0 6 19 1 24 21 5 21 -9 0 -8 3 2 10 12 7 15 33 15 125 0
63 2 110 3 105 9 -25 22 -6 22 30 0 41 -19 57 -21 18 -1 -17 -3 -18 -6 -6 -7
28 -39 30 -90 7 -26 -12 -50 -25 -53 -29 -3 -5 -19 -11 -35 -15 -26 -6 -24 -3
18 24 26 17 47 33 47 36 0 3 -12 4 -27 3 -22 -2 -29 2 -31 19 -2 13 5 29 18
40 12 10 31 26 42 35 12 10 27 18 34 18 14 0 30 -62 20 -78 -3 -6 2 -8 14 -5
11 3 20 10 20 15 0 6 7 5 15 -2 12 -10 15 -10 15 3 0 9 -7 22 -15 31 -8 8 -16
27 -16 43 -2 23 -2 24 -6 6 -4 -23 -23 -33 -23 -13 0 6 -7 10 -16 10 -14 0
-14 3 -4 15 7 8 19 15 26 15 8 0 14 7 14 15 0 8 -4 15 -10 15 -5 0 -13 18 -16
39 -4 22 -13 42 -20 45 -8 3 -14 17 -14 31 0 14 -4 25 -9 25 -5 0 -12 16 -15
35 -4 19 -11 35 -15 35 -5 0 -12 20 -15 45 -4 25 -11 45 -16 45 -6 0 -13 18
-16 40 -4 22 -10 40 -14 40 -5 0 -11 14 -15 30 -4 17 -13 30 -22 30 -11 0 -14
7 -9 23 6 27 -3 67 -15 67 -5 0 -9 -7 -9 -16 0 -14 -2 -15 -17 -3 -15 13 -16
11 -10 -21 6 -31 5 -36 -13 -36 -14 0 -21 9 -25 31 -8 34 -17 67 -41 146 -14
45 -23 58 -47 67 l-29 11 7 -67 c8 -80 8 -70 6 -107 -2 -30 -2 -30 -17 10 -8
22 -26 75 -40 118 -14 42 -30 80 -35 83 -5 3 -9 13 -9 23 0 10 -7 24 -15 31
-8 7 -15 20 -15 30 0 10 -13 30 -30 43 -16 14 -30 33 -30 41 0 9 -7 16 -15 16
-8 0 -15 5 -15 11 0 6 -7 17 -15 25 -8 9 -15 25 -15 37 0 28 -15 52 -32 52 -7
0 -17 18 -23 40 -5 22 -12 42 -16 45 -3 3 -10 16 -14 30 -4 14 -10 27 -14 30
-3 3 -11 14 -17 25 -9 16 -25 21 -90 26 -43 3 -65 6 -49 7 36 2 149 41 121 42
-10 0 -82 -9 -160 -19 -265 -36 -601 -64 -971 -81 -110 -5 -283 -14 -385 -20
-590 -33 -1760 -48 -1794 -22 -17 14 -48 23 -41 13 9 -15 -10 -16 -137 -9
-199 13 -429 37 -768 83 -58 8 -161 21 -230 30 -69 9 -170 22 -225 30 -55 8
-156 21 -225 30 -69 9 -172 22 -230 30 -276 37 -561 74 -615 79 -116 10 -400
44 -460 55 -39 7 -39 7 36 20 59 10 94 11 165 2 49 -7 145 -16 214 -21 158
-11 322 -30 650 -75 58 -8 123 -16 145 -18 22 -3 76 -9 120 -16 89 -13 239
-33 420 -56 243 -31 352 -46 420 -57 241 -38 587 -61 597 -40 2 4 134 5 293 2
l290 -5 -249 -3 c-200 -2 -247 -4 -237 -14 39 -39 2114 9 2615 61 56 6 157 15
226 22 69 6 164 15 212 19 93 8 188 29 188 41 0 4 -6 10 -12 12 -7 3 -1 6 15
6 15 1 27 6 27 11 0 6 7 10 15 10 24 0 18 18 -12 37 -16 10 -30 20 -33 24 -13
15 -258 90 -375 114 -91 19 -168 42 -205 60 -14 7 -52 13 -85 14 -33 1 -94 8
-135 16 -41 8 -106 19 -145 25 -38 6 -113 17 -165 25 -52 8 -124 18 -160 21
-36 2 -85 9 -110 14 -25 6 -101 14 -169 20 -68 6 -127 13 -132 16 -5 3 -71 10
-147 15 -75 6 -146 12 -157 13 -79 11 -132 16 -210 22 -49 3 -92 7 -96 9 -9 6
-90 14 -157 16 -34 1 -64 5 -67 8 -4 7 -102 14 -205 15 -53 1 -76 -7 -171 -60
-35 -19 -50 -14 -309 113 -118 57 -230 111 -247 119 -18 8 -49 21 -68 29 -19
9 -51 22 -70 30 -19 8 -50 21 -67 29 -18 7 -53 21 -78 31 -25 9 -59 23 -75 30
-17 7 -45 16 -62 19 -18 4 -35 12 -38 17 -4 5 -16 9 -29 9 -12 0 -31 7 -42 15
-10 8 -27 15 -37 15 -11 0 -33 6 -50 13 -18 8 -59 22 -92 32 -33 9 -78 23
-100 30 -80 24 -234 67 -305 85 -25 6 -72 18 -105 26 -33 8 -81 19 -108 24
-26 5 -62 13 -80 19 -34 10 -122 28 -197 41 -25 4 -72 12 -105 18 -229 43
-379 59 -390 42 -7 -11 42 -60 60 -60 6 0 36 -12 66 -28 30 -15 81 -36 114
-47 33 -10 67 -25 76 -32 8 -7 20 -13 26 -13 13 0 165 -55 208 -75 17 -8 70
-31 119 -51 50 -20 100 -43 113 -51 29 -19 31 -47 3 -38 -10 3 -30 1 -42 -6
-25 -14 -58 -19 -58 -10 0 3 -24 7 -53 8 -60 2 -219 18 -322 32 -115 16 -215
19 -215 6 0 -16 22 -35 41 -35 9 0 22 -7 29 -15 7 -8 22 -15 35 -15 12 0 25
-3 28 -6 7 -7 149 -58 207 -75 19 -5 44 -14 55 -18 11 -5 49 -19 85 -32 36
-12 69 -26 74 -31 6 -4 22 -8 37 -8 15 0 29 -5 31 -11 2 -5 19 -14 38 -19 36
-9 109 -34 145 -49 11 -5 38 -15 60 -24 226 -85 345 -150 345 -189 0 -11 -38
-10 -44 1 -4 5 -25 12 -48 16 -23 4 -49 11 -58 16 -8 4 -49 18 -90 30 -41 12
-113 34 -160 49 -47 15 -110 35 -140 44 -30 9 -82 25 -115 35 -115 36 -254 77
-390 116 -95 27 -146 41 -210 60 -33 9 -82 23 -110 31 -27 7 -72 20 -100 28
-48 13 -96 26 -235 61 -36 9 -87 23 -114 31 -26 8 -55 14 -64 14 -8 0 -38 6
-66 14 -28 8 -80 22 -116 31 -36 9 -87 22 -115 29 -27 8 -86 21 -130 31 -44 9
-102 23 -129 31 -26 8 -58 14 -69 14 -11 0 -43 6 -71 14 -28 8 -87 22 -131 31
-44 9 -95 21 -112 26 -18 6 -54 14 -80 19 -27 5 -79 16 -118 25 -38 8 -97 19
-130 25 -33 6 -74 15 -90 20 -17 5 -57 14 -90 19 -33 6 -89 17 -125 25 l-65
15 70 -5 c39 -3 99 -11 135 -19 36 -7 92 -16 125 -20 33 -4 65 -11 72 -17 6
-5 24 -8 40 -5 27 4 27 4 -4 6 -18 0 -33 6 -33 11 0 6 -12 10 -26 10 -26 0
-114 19 -210 46 -28 8 -63 14 -78 14 -14 0 -52 6 -84 14 -94 24 -350 64 -487
76 -96 9 -204 30 -245 49 -34 15 1585 6 1648 -9 45 -11 832 -20 832 -9 0 3
-15 5 -32 5 -64 -1 -271 13 -276 19 -3 3 127 5 288 5 161 0 291 -3 287 -6 -3
-4 -61 -10 -129 -14 -74 -4 64 -6 342 -5 256 2 490 6 520 9 30 3 100 10 156
16 55 6 290 12 522 13 232 1 422 5 422 9 0 4 78 9 173 11 159 5 324 22 240 26
-18 0 -33 5 -33 11 0 5 -18 13 -40 16 -22 4 -40 10 -40 14 0 5 -13 11 -30 15
-16 4 -30 10 -30 15 0 5 -14 12 -32 15 -17 4 -38 14 -46 21 -7 8 -20 14 -28
14 -8 0 -14 4 -14 9 0 5 -13 12 -29 16 -16 3 -32 13 -35 21 -3 8 -12 14 -21
14 -8 0 -15 4 -15 9 0 5 -13 12 -30 16 -16 4 -30 11 -30 16 0 5 -11 11 -25 15
-14 3 -25 10 -25 15 0 5 -7 9 -15 9 -9 0 -18 6 -21 14 -3 8 -19 18 -35 21 -16
4 -29 11 -29 16 0 5 -11 11 -24 15 -14 3 -27 12 -30 20 -3 8 -12 14 -21 14 -8
0 -15 4 -15 9 0 5 -11 12 -25 15 -14 4 -25 11 -25 16 0 6 -7 10 -15 10 -9 0
-18 6 -21 14 -3 8 -16 17 -30 20 -13 4 -24 10 -24 15 0 5 -13 12 -29 16 -16 3
-32 13 -35 21 -3 8 -12 14 -21 14 -8 0 -15 4 -15 10 0 5 -11 12 -24 16 -14 3
-27 12 -30 20 -3 8 -12 14 -21 14 -8 0 -15 4 -15 10 0 5 -11 12 -25 16 -14 3
-25 10 -25 15 0 5 -7 9 -15 9 -9 0 -18 6 -21 14 -3 8 -16 17 -30 20 -13 4 -24
11 -24 16 0 6 -7 10 -15 10 -9 0 -18 6 -21 14 -3 8 -16 17 -30 20 -13 4 -24
11 -24 16 0 6 -7 10 -15 10 -9 0 -18 6 -21 14 -3 8 -19 18 -35 21 -16 4 -29
11 -29 16 0 5 -11 11 -24 15 -14 3 -27 12 -30 20 -3 8 -12 14 -21 14 -8 0 -15
4 -15 9 0 5 -11 12 -25 15 -14 4 -25 11 -25 16 0 6 -7 10 -15 10 -9 0 -18 6
-21 14 -3 8 -16 17 -30 20 -13 4 -24 10 -24 15 0 5 -13 12 -29 16 -16 3 -32
13 -35 21 -3 8 -12 14 -21 14 -8 0 -15 4 -15 10 0 5 -11 12 -25 16 -14 3 -25
10 -25 15 0 5 -7 9 -15 9 -9 0 -18 6 -21 14 -3 8 -19 18 -35 21 -16 4 -29 11
-29 16 0 5 -11 11 -25 15 -14 3 -25 10 -25 15 0 5 -7 9 -15 9 -9 0 -18 6 -21
14 -3 8 -19 18 -35 21 -16 4 -29 11 -29 16 0 5 -11 11 -25 15 -14 3 -25 10
-25 14 0 5 -13 11 -29 15 -16 3 -32 13 -35 21 -3 8 -12 14 -21 14 -8 0 -15 4
-15 9 0 5 -13 12 -30 16 -16 4 -30 11 -30 16 0 5 -11 11 -25 15 -14 3 -25 10
-25 14 0 5 -13 11 -30 15 -16 4 -30 10 -30 15 0 5 -13 11 -30 15 -16 4 -30 10
-30 15 0 5 -13 11 -30 15 -16 4 -30 11 -30 16 0 5 -7 9 -15 9 -9 0 -18 7 -21
15 -4 8 -23 18 -44 21 -22 4 -41 13 -44 20 -3 8 -17 14 -31 14 -14 0 -25 4
-25 9 0 5 -13 12 -30 16 -16 4 -30 11 -30 15 0 5 -16 12 -35 16 -19 3 -35 10
-35 14 0 5 -13 11 -30 15 -16 4 -30 10 -30 15 0 4 -18 10 -40 14 -22 3 -40 10
-40 15 0 5 -16 12 -35 15 -19 4 -35 11 -35 15 0 5 -20 12 -45 15 -25 4 -45 11
-45 15 0 5 -20 12 -45 15 -25 4 -45 11 -45 15 0 5 -20 12 -45 15 -25 4 -45 11
-45 16 0 5 -25 12 -55 15 -30 4 -55 11 -55 15 0 4 -27 11 -60 15 -33 4 -60 11
-60 15 0 5 -29 12 -65 15 -36 4 -65 11 -65 15 0 4 -33 11 -72 15 -40 3 -75 10
-78 15 -3 5 -50 12 -105 16 -55 4 -103 11 -106 15 -3 5 -61 12 -130 15 -68 4
-126 10 -129 14 -3 4 -66 11 -140 14 -74 4 -137 11 -140 16 -3 5 -53 11 -110
14 -58 2 -91 3 -75 0 17 -3 39 -9 50 -14 11 -4 59 -11 108 -14 48 -4 95 -10
105 -15 9 -5 53 -15 97 -21 44 -6 103 -15 130 -20 28 -4 82 -13 120 -20 39 -6
85 -16 103 -22 18 -5 57 -12 87 -15 30 -3 55 -9 55 -14 0 -4 26 -11 58 -15 31
-3 62 -10 68 -15 13 -10 80 -25 179 -39 39 -6 86 -17 105 -24 19 -7 64 -23
100 -34 36 -12 90 -30 120 -42 30 -12 63 -24 73 -27 9 -3 17 -10 17 -15 0 -6
-10 -7 -22 -4 -13 4 -71 11 -129 15 -59 5 -111 11 -117 15 -17 10 -490 49
-797 66 -104 6 -237 15 -295 20 -310 31 -1841 47 -2347 26 -170 -7 -215 -7
-228 4 -25 20 -29 4 -5 -22 61 -67 59 -62 23 -44 -17 9 -34 20 -37 25 -4 5
-20 12 -36 16 -17 4 -30 11 -30 15 0 5 -7 7 -15 4 -8 -4 -15 -2 -15 4 0 6 -13
13 -30 17 -16 4 -30 10 -30 15 0 5 -13 11 -30 15 -16 4 -30 10 -30 15 0 5 -13
11 -30 15 -16 4 -30 10 -30 15 0 5 -13 11 -30 15 -16 4 -30 10 -30 15 0 5 -15
12 -32 15 -18 4 -42 14 -53 21 -11 8 -28 14 -38 14 -10 0 -31 6 -45 14 -25 12
-44 18 -157 47 -22 6 -59 8 -82 4 -25 -4 -43 -2 -43 3 0 5 -30 13 -67 16 -38
4 -115 13 -173 21 -205 27 -722 49 -935 39z m445 -227 c96 -8 182 -17 190 -21
8 -3 49 -10 90 -16 111 -15 316 -59 336 -72 6 -4 28 -11 50 -17 73 -18 123
-37 269 -107 55 -27 106 -54 113 -61 7 -7 20 -13 28 -13 8 0 14 -4 14 -9 0 -5
13 -14 29 -21 16 -6 37 -19 47 -28 11 -9 37 -29 60 -45 22 -15 49 -35 60 -45
10 -9 31 -27 46 -38 63 -49 171 -149 322 -301 168 -168 205 -207 321 -338 39
-44 85 -94 103 -112 17 -19 32 -38 32 -43 0 -6 4 -10 8 -10 19 0 72 -85 73
-119 1 -24 3 -28 6 -13 2 12 7 22 10 22 9 0 53 -50 53 -61 0 -5 4 -9 8 -9 4 0
26 -23 47 -52 22 -28 44 -56 50 -62 6 -6 35 -42 64 -81 30 -38 57 -71 62 -73
5 -2 9 -10 9 -18 0 -8 3 -14 8 -14 4 0 20 -20 35 -45 16 -25 33 -45 38 -45 5
0 9 -4 9 -10 0 -5 7 -18 15 -27 8 -10 37 -49 64 -88 28 -38 55 -75 61 -82 5
-7 10 -16 10 -22 0 -5 4 -11 9 -13 9 -3 158 -223 172 -253 5 -11 15 -29 21
-40 41 -64 57 -95 50 -99 -8 -5 -52 0 -277 29 -242 31 -366 46 -486 58 -73 7
-134 18 -143 26 -23 19 -20 41 7 41 22 1 22 1 -3 16 -23 13 -20 14 45 10 152
-9 558 -58 682 -82 20 -4 21 -2 12 26 -6 16 -15 30 -20 30 -5 0 -9 5 -9 10 0
12 -41 73 -52 78 -5 2 -8 8 -8 13 0 9 -32 58 -55 85 -5 6 -37 51 -70 99 -33
47 -70 99 -83 113 -12 15 -35 45 -50 67 -15 22 -32 45 -38 52 -7 7 -34 42 -60
78 -26 36 -51 65 -56 65 -4 0 -8 7 -8 15 0 8 -4 15 -8 15 -5 0 -28 27 -52 60
-24 33 -47 60 -51 60 -4 0 -11 10 -14 21 -4 12 -26 40 -49 63 -59 59 -126 137
-126 146 0 5 -4 10 -8 12 -4 2 -34 32 -66 68 -245 273 -554 583 -691 690 -38
30 -75 59 -81 65 -6 5 -20 16 -30 23 -11 7 -41 28 -68 47 -27 19 -55 35 -62
35 -7 0 -14 3 -16 8 -6 14 -276 142 -301 142 -8 0 -28 7 -43 15 -16 8 -38 15
-49 15 -12 0 -25 4 -30 9 -9 9 -30 14 -165 42 -30 6 -71 15 -90 20 -38 11
-133 24 -275 39 -394 41 -673 41 -1190 -1 -289 -23 -342 -29 -385 -38 -25 -5
-79 -12 -120 -16 -41 -3 -100 -10 -130 -15 -115 -21 -187 -32 -250 -41 -36 -5
-85 -13 -110 -18 -25 -5 -74 -15 -110 -22 -36 -6 -96 -18 -135 -26 -38 -7 -92
-18 -120 -22 -27 -5 -63 -14 -78 -20 -16 -6 -39 -11 -52 -11 -12 0 -47 -7 -76
-16 -30 -8 -76 -21 -104 -29 -104 -28 -286 -88 -291 -96 -3 -5 -12 -9 -20 -9
-20 0 -164 -72 -164 -82 0 -4 -5 -8 -11 -8 -30 0 -194 -155 -320 -302 -40 -46
-76 -84 -80 -86 -5 -2 -9 -8 -9 -12 0 -5 -14 -24 -31 -42 -82 -89 -299 -390
-299 -415 0 -22 55 -45 175 -72 22 -5 69 -16 105 -24 159 -38 213 -50 340 -76
74 -16 153 -33 175 -39 22 -6 76 -18 120 -27 44 -9 107 -22 140 -30 112 -25
210 -44 300 -60 50 -8 122 -22 160 -29 100 -20 208 -37 295 -46 82 -9 206 -25
316 -41 39 -5 113 -14 165 -18 143 -14 293 -31 406 -47 56 -8 128 -14 161 -14
32 0 83 -4 113 -10 30 -5 101 -14 159 -19 58 -6 141 -15 185 -21 252 -33 453
-58 685 -85 74 -9 180 -22 235 -30 55 -9 110 -15 123 -15 12 0 22 -5 22 -12 0
-7 15 -27 33 -46 l32 -35 -45 7 c-25 3 -106 13 -180 21 -74 8 -153 20 -175 25
-22 5 -64 10 -94 10 -30 0 -96 7 -145 15 -81 13 -249 33 -421 50 -33 3 -126
17 -207 31 -81 13 -183 24 -225 24 -43 0 -116 6 -163 14 -47 8 -159 22 -250
31 -91 9 -201 23 -246 31 -44 8 -105 14 -135 15 -30 0 -76 4 -104 9 -27 5 -72
12 -100 15 -123 14 -286 37 -355 51 -42 7 -91 14 -111 14 -19 0 -58 6 -85 14
-27 8 -92 22 -144 31 -149 26 -287 54 -315 65 -15 6 -40 10 -57 10 -17 0 -54
7 -82 15 -52 15 -192 48 -281 66 -56 12 -145 34 -220 54 -27 7 -71 16 -97 20
-26 3 -50 10 -53 14 -2 5 -29 12 -60 16 -30 3 -57 11 -60 16 -4 5 -16 9 -28 9
-24 0 -124 30 -144 43 -19 12 -16 23 15 59 16 18 32 40 35 48 8 17 30 53 37
60 3 3 17 23 32 45 15 22 39 53 53 69 14 16 25 32 25 35 0 3 14 20 30 38 17
18 30 35 30 38 0 3 10 16 23 28 13 12 32 34 43 49 59 76 301 330 401 418 52
47 111 90 122 90 6 0 11 3 11 8 0 7 96 55 175 87 134 55 414 129 664 176 30 5
58 12 62 14 14 9 472 92 554 101 22 3 81 11 130 19 125 20 241 34 370 45 61 6
130 14 155 19 25 6 122 13 215 17 94 3 190 10 215 14 67 12 580 4 780 -13z
m4785 -188 c72 -4 195 -15 275 -23 80 -8 204 -19 275 -26 145 -14 219 -32 285
-70 25 -14 90 -48 145 -75 55 -28 102 -53 105 -56 3 -3 28 -16 55 -30 28 -13
52 -27 53 -31 2 -5 8 -8 14 -8 6 0 47 -22 93 -50 46 -27 88 -50 94 -50 6 0 11
-4 11 -9 0 -5 10 -13 22 -17 12 -3 28 -13 36 -20 7 -8 20 -14 28 -14 8 0 14
-4 14 -10 0 -5 11 -12 25 -16 14 -3 25 -10 25 -15 0 -5 4 -9 9 -9 5 0 33 -16
62 -35 30 -19 57 -35 62 -35 4 0 13 -5 20 -10 48 -41 62 -50 74 -50 7 0 13 -4
13 -8 0 -4 12 -13 28 -19 30 -14 59 -32 80 -50 7 -7 18 -13 23 -13 9 0 20 -7
52 -36 7 -6 23 -15 35 -18 12 -4 22 -12 22 -17 0 -5 5 -9 10 -9 12 0 73 -41
78 -52 2 -5 8 -8 13 -8 11 0 72 -42 77 -52 2 -5 8 -8 13 -8 6 0 24 -10 42 -22
18 -13 34 -24 37 -26 2 -2 -2 -8 -10 -13 -12 -8 -10 -9 6 -5 13 4 29 -1 44
-14 13 -11 29 -20 35 -20 7 0 15 -7 19 -15 3 -8 12 -15 21 -15 8 0 15 -4 15
-9 0 -5 10 -13 22 -16 11 -4 31 -18 43 -31 12 -13 26 -24 31 -24 5 0 17 -9 27
-20 9 -11 12 -20 7 -20 -6 0 -13 7 -16 15 -4 8 -10 15 -15 15 -10 0 -63 35
-88 58 -8 8 -21 12 -30 9 -9 -2 -22 2 -29 10 -10 10 -10 13 -1 13 7 0 9 3 6 6
-4 4 -13 1 -21 -5 -11 -9 -16 -9 -21 0 -4 6 -2 15 5 19 9 5 8 9 -3 13 -7 3
-20 1 -28 -4 -10 -6 -10 -9 -1 -9 6 0 12 -5 12 -12 0 -6 -13 0 -28 15 -16 16
-39 27 -55 27 -15 0 -30 6 -33 14 -3 8 -18 18 -34 21 -16 3 -34 13 -40 21 -7
7 -16 12 -20 9 -4 -3 -10 1 -13 9 -3 7 -22 16 -41 20 -20 4 -36 10 -36 14 0
10 -82 47 -97 44 -7 -2 -13 2 -13 9 0 7 -9 9 -21 6 -16 -4 -19 -2 -15 10 5 12
1 14 -14 10 -11 -3 -18 -1 -15 3 3 5 1 11 -4 14 -5 4 -13 2 -16 -4 -4 -7 -15
-2 -30 14 -17 18 -26 21 -34 13 -8 -8 -11 -8 -11 1 0 7 -6 12 -14 12 -7 0 -19
7 -26 15 -7 8 -16 13 -20 10 -5 -3 -15 4 -23 16 -9 13 -17 16 -22 10 -3 -6 -1
-11 6 -11 7 0 9 -3 6 -7 -4 -4 -21 3 -37 15 -16 12 -36 22 -45 22 -9 0 -18 7
-21 15 -4 8 -9 13 -13 10 -4 -2 -19 2 -34 10 -14 7 -39 16 -56 20 -17 4 -31
10 -31 15 0 4 -12 11 -26 14 -22 6 -25 11 -19 34 4 15 7 31 8 36 2 9 -28 29
-109 71 -43 22 -55 25 -73 16 -11 -7 -21 -18 -21 -25 0 -8 -6 -18 -13 -24 -9
-8 -16 -6 -24 8 -8 12 -19 16 -33 13 -13 -3 -20 -1 -20 9 0 7 -23 22 -51 33
-28 11 -55 26 -61 33 -6 6 -17 12 -24 12 -8 0 -14 10 -14 25 0 14 -4 25 -10
25 -5 0 -10 -4 -10 -10 0 -5 -21 12 -48 39 -26 26 -62 54 -80 62 -17 7 -32 18
-32 23 0 4 -7 3 -15 -4 -10 -8 -15 -9 -15 -2 0 11 -35 20 -97 27 -15 2 -39 6
-53 10 -52 14 -105 23 -112 19 -5 -3 -8 -1 -8 5 0 8 -48 25 -75 26 -5 0 -13 3
-16 8 -3 4 -32 10 -65 13 -32 4 -68 13 -79 21 -20 15 -20 15 3 10 12 -3 22 -2
22 3 0 7 -52 15 -185 27 l-70 6 40 13 c22 7 31 13 20 13 -32 1 -158 32 -180
45 -11 6 -54 14 -95 17 l-75 6 75 0 c41 1 134 -3 205 -8z m70 -343 c22 -7 67
-21 100 -30 121 -33 171 -49 197 -62 14 -8 35 -14 45 -14 10 0 23 -4 29 -9 5
-5 27 -14 49 -21 22 -7 60 -22 85 -33 25 -11 65 -28 90 -39 115 -49 349 -163
415 -202 28 -16 86 -48 130 -71 76 -40 173 -94 205 -115 8 -5 35 -20 60 -32
25 -13 47 -26 50 -29 3 -4 28 -19 55 -33 28 -15 66 -37 86 -49 164 -101 212
-134 216 -147 2 -8 11 -28 18 -45 8 -16 17 -43 21 -60 4 -16 10 -34 14 -40 4
-5 11 -25 15 -43 4 -18 13 -45 21 -60 8 -15 14 -33 14 -39 0 -20 -89 -17 -112
4 -13 12 -18 13 -18 3 0 -10 -5 -9 -18 3 -10 10 -23 17 -29 17 -17 0 -73 31
-73 41 0 5 -10 9 -23 9 -12 0 -32 6 -43 14 -12 9 -26 11 -34 6 -9 -6 -20 0
-32 16 -11 13 -27 24 -36 24 -9 0 -30 7 -46 15 -15 8 -35 15 -42 15 -8 0 -14
6 -14 13 0 6 -12 13 -26 13 -14 1 -34 10 -45 20 -15 13 -19 14 -19 3 -1 -10
-5 -8 -15 5 -8 11 -15 17 -15 13 0 -4 -12 0 -26 9 -22 15 -27 15 -35 3 -7 -12
-9 -11 -9 2 0 21 -24 31 -39 16 -8 -8 -11 -7 -11 5 0 9 -7 19 -16 22 -10 4
-13 2 -9 -7 4 -6 -3 -1 -14 13 -13 16 -21 20 -21 11 0 -11 -4 -9 -15 5 -11 15
-15 16 -15 4 0 -9 -6 -5 -15 10 -9 15 -14 19 -15 10 0 -12 -2 -12 -8 -2 -5 7
-16 10 -24 7 -9 -4 -23 3 -34 17 -14 17 -27 22 -51 20 -24 -2 -33 1 -33 12 0
9 -6 13 -14 10 -8 -3 -17 -1 -21 5 -3 6 -12 11 -18 11 -7 0 -6 -4 3 -11 13 -9
13 -10 0 -6 -8 2 -15 11 -14 19 1 10 -8 14 -28 13 -19 -1 -34 5 -42 17 -12 16
-14 17 -19 3 -4 -8 -11 -15 -16 -15 -6 0 -8 7 -5 15 4 10 0 15 -14 15 -11 0
-22 7 -26 15 -3 8 -11 15 -18 15 -9 0 -9 -3 2 -10 8 -5 11 -13 6 -17 -4 -4
-13 0 -20 10 -7 9 -19 17 -26 17 -7 0 -10 6 -7 14 4 10 -3 12 -24 10 -16 -2
-29 1 -29 7 0 7 -10 9 -25 5 -18 -5 -27 -2 -31 9 -5 12 -9 13 -20 4 -10 -8
-14 -8 -14 0 0 6 -6 11 -14 11 -8 0 -16 4 -18 8 -5 14 -88 50 -88 39 0 -6 -7
-2 -15 9 -8 11 -14 14 -15 6 0 -9 -9 -6 -27 7 -16 11 -42 23 -59 26 -34 5 -95
29 -106 41 -5 4 -20 9 -34 10 -14 2 -37 10 -50 19 -14 9 -24 11 -24 5 0 -7 -7
-4 -16 5 -12 11 -25 14 -47 9 -24 -5 -29 -3 -24 9 4 11 0 13 -14 10 -11 -3
-19 0 -19 7 0 19 -44 7 -54 -16 l-9 -21 -72 27 c-52 19 -78 24 -90 18 -15 -9
-15 -7 -5 13 10 19 10 21 -3 16 -10 -4 -19 4 -27 24 -11 26 -21 34 -43 30 -4
-1 -10 6 -13 14 -8 20 -24 9 -24 -16 0 -10 -5 -19 -11 -19 -7 0 -9 -10 -5 -27
l7 -28 -18 30 c-10 17 -27 47 -38 68 -11 21 -27 37 -37 37 -15 0 -18 9 -18 49
0 28 5 53 12 57 15 9 108 33 168 43 99 17 265 80 283 109 10 16 52 15 102 -2z
m-8155 -1892 c58 -8 128 -22 156 -30 28 -8 58 -14 68 -14 41 0 105 -60 106
-97 0 -32 -21 -29 -55 7 -16 17 -34 30 -39 30 -6 0 -23 6 -37 14 -14 7 -50 16
-79 20 -30 4 -73 11 -95 16 -22 5 -76 14 -120 20 -81 11 -102 20 -91 39 10 15
64 14 186 -5z m2572 -305 c140 -20 244 -41 306 -61 52 -16 69 -28 93 -61 26
-36 28 -42 15 -56 -13 -13 -19 -11 -45 15 -41 40 -83 59 -171 77 -128 28 -247
47 -284 47 -19 0 -47 5 -61 10 -23 9 -25 13 -15 25 15 18 62 19 162 4z m11353
-310 c67 -32 98 -76 75 -104 -14 -16 -56 -20 -64 -6 -3 5 -23 12 -43 16 -56
10 -122 46 -146 79 -20 28 -20 29 -2 42 27 20 107 8 180 -27z m-4075 -284
c149 -17 328 -40 435 -55 39 -6 113 -14 166 -20 53 -5 102 -12 110 -15 8 -2
57 -9 109 -14 52 -6 129 -15 170 -20 127 -18 279 -39 405 -56 247 -32 352 -47
440 -60 50 -8 108 -16 130 -18 46 -5 176 -23 250 -36 53 -9 124 -48 125 -68 0
-18 -134 -5 -347 33 -45 7 -95 14 -112 14 -17 0 -66 6 -108 14 -43 8 -118 20
-168 26 -49 7 -139 19 -200 27 -60 8 -128 16 -150 19 -22 2 -87 11 -145 19
-155 22 -260 36 -305 41 -46 5 -224 28 -335 44 -41 6 -118 16 -170 21 -52 5
-111 14 -130 19 -19 6 -52 10 -74 10 -21 0 -84 7 -140 15 -55 8 -156 22 -223
31 -134 19 -152 32 -78 56 39 12 59 12 128 2 45 -7 143 -20 217 -29z m-270
-60 c36 -8 85 -14 109 -15 24 0 85 -6 135 -14 50 -8 154 -22 231 -31 77 -10
167 -22 200 -27 33 -6 78 -13 99 -15 22 -3 46 -12 54 -19 17 -18 2 -18 -247
-3 -102 5 -257 13 -345 17 l-161 8 -97 47 c-54 26 -98 52 -98 57 0 14 43 12
120 -5z m5886 -99 c19 -20 18 -42 -3 -51 -10 -4 -72 -10 -138 -15 -66 -4 -185
-13 -265 -19 -415 -33 -541 -41 -605 -41 -38 0 -171 -6 -295 -14 -286 -19
-646 -35 -1010 -46 -157 -5 -393 -14 -526 -21 l-241 -12 -37 29 c-20 16 -36
32 -36 35 0 3 96 9 213 12 431 14 1003 37 1407 58 113 6 264 13 335 16 72 2
208 11 303 19 95 8 207 14 250 14 42 0 124 5 182 10 450 43 448 43 466 26z
m-4719 -50 c43 -8 119 -20 168 -26 50 -6 135 -18 190 -26 55 -8 125 -18 155
-21 30 -3 61 -13 70 -21 13 -14 -11 -15 -231 -9 -303 9 -339 14 -476 73 -17 8
-36 14 -42 14 -6 0 -11 7 -11 15 0 20 72 20 177 1z m-653 -37 c30 -14 42 -70
33 -154 -9 -87 -17 -95 -92 -95 -37 0 -65 4 -65 10 0 6 -20 30 -46 54 -45 43
-45 44 -38 95 4 28 10 51 15 51 5 0 9 6 9 13 0 8 10 19 23 25 30 14 130 15
161 1z m1499 -84 c43 -8 100 -15 125 -15 26 0 63 -5 82 -10 19 -6 64 -15 100
-19 61 -8 128 -28 119 -35 -2 -1 -98 0 -214 3 -205 6 -211 7 -270 35 -72 35
-69 32 -60 45 8 14 25 14 118 -4z m-525 -37 c7 -7 12 -38 12 -69 0 -84 -15
-97 -120 -105 -80 -5 -86 -4 -98 16 -19 31 2 157 26 163 38 10 168 7 180 -5z
m3503 -152 c52 -23 139 -95 139 -116 0 -5 4 -10 9 -10 5 0 14 -13 21 -30 7
-16 16 -30 21 -30 5 0 9 -8 9 -18 0 -10 6 -26 13 -37 23 -35 47 -110 46 -145
0 -19 -3 -28 -6 -20 -2 8 -8 24 -13 35 -5 11 -18 46 -30 79 -29 82 -103 181
-165 222 -46 31 -59 35 -122 35 -105 1 -160 -33 -214 -131 -34 -62 -68 -214
-69 -302 0 -43 -16 -50 -30 -13 -13 33 14 247 37 290 5 11 19 38 29 60 24 49
77 104 129 132 55 30 128 29 196 -1z m-87 -78 c9 -17 16 -38 16 -46 0 -7 6
-28 14 -45 27 -65 39 -125 46 -232 3 -60 7 -104 8 -97 3 20 36 14 57 -10 25
-29 65 -87 65 -95 0 -3 -11 2 -25 11 -14 9 -25 14 -25 11 0 -9 110 -115 120
-115 10 0 24 -39 16 -47 -3 -3 -17 3 -32 13 -15 11 -34 24 -42 29 -9 6 -22 16
-30 23 -7 6 -17 12 -22 12 -5 0 -26 11 -46 25 -26 18 -40 22 -45 14 -4 -6 -12
-9 -18 -5 -5 4 -19 -2 -31 -14 -11 -11 -23 -20 -26 -20 -3 0 -23 -13 -44 -30
-21 -16 -42 -30 -48 -30 -6 0 -12 -3 -14 -7 -5 -12 -66 -53 -78 -53 -15 0 -12
-36 5 -50 8 -7 15 -16 15 -21 0 -24 96 -120 142 -143 41 -21 122 -22 168 -3
19 9 51 30 71 49 41 36 99 139 99 172 0 12 6 30 14 41 7 11 16 58 19 104 3 46
10 88 17 95 9 8 10 -11 7 -79 -5 -95 -25 -200 -49 -250 -22 -48 -52 -95 -60
-95 -5 0 -8 -6 -8 -12 -1 -22 -78 -69 -133 -82 -105 -25 -203 22 -289 136 -59
79 -118 220 -118 283 0 25 2 27 13 15 7 -8 21 -41 32 -72 10 -32 23 -58 29
-58 10 1 47 45 109 132 15 22 36 48 46 59 10 11 24 32 32 47 8 15 18 30 22 33
12 9 12 33 -2 159 -7 63 -16 149 -20 190 -11 98 -4 114 23 58z m-15556 -28 c9
-5 34 -17 54 -26 82 -36 204 -182 266 -319 13 -27 27 -58 33 -67 5 -10 9 -23
9 -30 0 -7 6 -25 14 -39 7 -14 16 -43 21 -65 4 -21 10 -43 13 -49 10 -15 29
-111 52 -263 40 -257 10 -703 -56 -849 -8 -17 -14 -38 -14 -47 0 -9 -4 -24 -9
-34 -5 -9 -27 -53 -48 -97 -45 -95 -141 -199 -220 -239 -43 -21 -66 -26 -127
-26 -95 0 -169 33 -246 108 -27 27 -22 25 62 -30 68 -45 134 -62 209 -53 71 7
159 52 159 80 0 3 -17 43 -39 88 -58 124 -75 183 -116 407 -21 118 -20 249 3
289 9 17 20 31 24 31 14 0 19 -22 8 -35 -7 -8 -8 -15 -3 -15 5 0 14 -28 20
-62 6 -35 18 -88 27 -118 9 -30 21 -73 27 -95 6 -22 14 -44 20 -50 5 -5 9 -15
9 -22 0 -20 72 -163 82 -163 4 0 8 -6 8 -13 0 -16 52 -67 68 -67 6 0 14 11 18
25 3 14 10 25 15 25 5 0 9 6 9 13 1 6 9 30 20 52 11 22 19 50 20 62 0 12 4 24
9 27 5 4 12 30 16 59 4 28 11 57 16 63 5 6 12 48 16 93 3 44 10 81 14 81 5 0
9 87 9 194 0 187 -1 195 -20 201 -45 14 -178 -22 -309 -83 -53 -24 -67 -21
-75 20 -17 85 -10 106 59 174 35 35 69 64 75 64 5 0 10 4 10 8 0 10 124 92
139 92 6 0 11 5 11 10 0 6 6 10 13 10 20 0 41 50 27 64 -5 5 -10 19 -10 31 0
11 -7 33 -15 49 -8 15 -15 33 -15 40 -1 6 -9 29 -20 51 -11 22 -19 46 -20 53
0 6 -4 12 -9 12 -5 0 -12 14 -16 30 -4 17 -11 30 -16 30 -5 0 -9 6 -9 14 0 8
-27 50 -60 94 -62 83 -155 162 -189 162 -23 0 -41 -28 -52 -80 -4 -19 -13 -55
-19 -80 -14 -53 -7 -395 9 -450 5 -19 11 -64 13 -100 2 -36 7 -68 12 -71 16
-12 -2 -39 -21 -32 -41 14 -56 47 -89 193 -44 201 -67 489 -44 577 7 32 8 49
1 56 -15 15 -108 -34 -159 -84 -23 -22 -42 -35 -42 -30 0 18 100 109 138 126
21 9 44 20 52 25 20 12 156 12 178 0z m-437 -696 c19 -18 68 -57 109 -88 99
-74 91 -68 130 -90 69 -38 97 -96 70 -147 -13 -24 -65 -25 -117 -2 -115 50
-283 139 -312 164 l-33 28 12 108 c7 59 17 118 22 131 8 23 9 22 47 -25 21
-26 54 -62 72 -79z m9139 -94 c93 -26 237 -97 290 -142 11 -10 23 -18 27 -18
13 0 208 -205 238 -250 17 -25 33 -46 38 -48 4 -2 7 -7 7 -12 0 -5 16 -32 35
-61 19 -30 35 -59 35 -65 0 -7 3 -14 8 -16 27 -12 148 -332 166 -440 4 -21 11
-38 16 -38 6 0 10 -24 10 -52 0 -29 7 -84 16 -123 23 -105 23 -500 0 -620 -27
-146 -47 -228 -62 -262 -8 -17 -14 -40 -14 -51 0 -12 -4 -23 -9 -26 -5 -3 -12
-17 -15 -31 -8 -30 -65 -150 -103 -215 -86 -148 -230 -289 -366 -358 -96 -49
-148 -62 -262 -68 -143 -7 -241 8 -327 52 -14 8 -33 14 -42 14 -9 0 -16 4 -16
9 0 5 -9 13 -20 16 -26 8 -124 74 -128 86 -2 5 -8 9 -13 9 -12 0 -179 169
-179 182 0 5 -12 22 -27 38 -34 34 -42 44 -73 95 -13 22 -27 42 -31 45 -3 3
-10 16 -14 30 -6 20 -5 23 6 13 23 -23 39 -14 60 35 33 75 38 85 59 117 11 17
25 40 31 53 7 12 16 22 21 22 4 0 8 5 8 11 0 6 14 28 30 49 17 21 30 42 30 48
0 6 4 12 9 14 9 3 81 95 81 103 0 3 8 13 18 23 9 10 42 49 72 87 76 93 130
145 154 145 33 0 86 -59 86 -96 0 -28 -30 -96 -50 -114 -3 -3 -10 -14 -17 -25
-125 -205 -177 -297 -217 -380 -27 -55 -55 -112 -62 -127 -8 -14 -14 -35 -14
-46 0 -12 -4 -23 -9 -26 -10 -7 -42 -135 -43 -177 -1 -22 8 -38 31 -60 18 -16
36 -29 41 -29 4 0 10 -6 13 -13 2 -7 22 -21 43 -32 22 -11 41 -23 44 -26 4 -5
24 -15 113 -61 69 -35 156 -51 277 -51 126 1 172 10 262 51 68 32 68 31 -39
237 -6 11 -20 43 -32 70 -12 28 -26 58 -32 67 -5 10 -9 25 -9 34 0 9 -6 28
-14 42 -7 15 -21 54 -31 87 -9 33 -23 78 -30 100 -8 22 -17 56 -21 75 -3 19
-10 41 -14 50 -7 14 -20 72 -40 180 -5 25 -9 69 -9 99 -1 47 3 57 33 87 60 60
66 53 126 -136 18 -58 39 -116 46 -130 7 -14 20 -43 30 -65 67 -161 164 -336
244 -442 53 -69 84 -95 107 -86 38 15 203 325 203 382 0 9 4 21 9 27 9 9 24
66 42 159 5 28 15 73 21 100 6 28 13 147 16 265 6 299 7 297 -168 264 -220
-42 -273 -53 -444 -94 -118 -29 -128 -25 -149 50 -9 33 -17 70 -17 82 1 24 31
68 48 68 5 0 28 14 50 30 23 17 46 30 51 30 5 0 16 6 23 13 7 7 103 57 213
111 295 145 275 132 275 174 0 22 -6 40 -45 127 -46 104 -113 228 -127 233 -4
2 -8 8 -8 13 0 9 -23 45 -65 98 -39 51 -210 220 -222 221 -7 0 -13 3 -13 8 0
8 -38 31 -129 79 -42 22 -75 33 -95 31 -28 -3 -33 -9 -49 -58 -18 -54 -27 -99
-47 -230 -12 -83 -12 -414 0 -505 20 -149 31 -267 25 -286 -7 -21 -38 -25 -78
-10 -39 15 -79 113 -103 256 -3 17 -11 59 -19 95 -37 171 -58 431 -50 623 7
159 10 151 -50 147 -58 -4 -245 -90 -245 -112 0 -5 -4 -8 -10 -8 -5 0 -18 -8
-28 -17 -10 -10 -32 -30 -48 -44 -43 -38 -124 -129 -124 -139 0 -4 -3 -10 -7
-12 -12 -5 -53 -66 -53 -78 0 -5 -4 -10 -9 -10 -5 0 -14 -12 -20 -27 -6 -16
-15 -35 -21 -43 -24 -36 -70 -151 -70 -175 0 -21 21 -48 90 -116 49 -49 97
-89 105 -89 8 0 15 -4 15 -8 0 -8 242 -172 254 -172 2 0 37 -19 78 -43 40 -24
80 -46 88 -50 62 -28 89 -63 90 -114 0 -51 -17 -91 -42 -99 -24 -7 -92 4 -126
22 -15 8 -35 14 -44 14 -9 0 -19 4 -23 9 -3 5 -20 13 -38 17 -17 3 -48 13 -67
22 -19 8 -51 22 -70 30 -19 9 -50 22 -67 29 -79 33 -102 43 -168 75 -38 18
-72 35 -75 38 -3 3 -19 15 -36 27 -29 20 -32 20 -48 5 -16 -16 -17 -13 -11 58
4 41 13 94 21 118 8 23 14 56 14 72 0 16 4 39 9 52 5 13 20 57 32 98 13 41 27
77 30 80 4 3 10 22 14 43 4 20 11 37 15 37 5 0 11 14 15 30 4 17 10 30 15 30
4 0 13 12 19 28 6 15 20 41 31 57 11 17 23 36 26 43 24 49 199 224 270 269 46
30 153 77 213 93 77 21 256 21 331 0z m-8682 -154 c39 -50 34 -257 -5 -242 -8
3 -12 2 -9 -3 3 -5 -3 -11 -13 -14 -23 -6 -58 24 -72 60 -12 33 -12 143 1 143
6 0 10 8 10 19 0 41 75 25 93 -19 4 -12 6 -12 6 1 1 9 -12 31 -28 48 -17 18
-23 31 -16 31 8 0 22 -11 33 -24z m-122 -254 c25 -16 33 -49 23 -88 -6 -21
-16 -45 -22 -53 -14 -16 -25 -35 -57 -98 -14 -26 -28 -49 -32 -51 -5 -2 -8 -8
-8 -13 0 -6 -16 -44 -35 -85 -19 -41 -35 -82 -35 -92 0 -10 -4 -22 -9 -28 -12
-12 -39 -122 -47 -189 -7 -59 -28 -66 -39 -14 -4 16 -10 29 -14 29 -5 0 -23
28 -41 62 -25 46 -30 65 -23 77 6 9 14 32 17 51 8 37 26 81 58 140 11 19 25
47 31 63 6 15 15 27 19 27 4 0 8 5 8 12 0 16 115 185 153 226 33 34 36 36 53
24z m1329 -10 c28 -6 95 -18 150 -27 55 -9 134 -22 175 -30 41 -8 120 -21 175
-30 55 -9 132 -23 170 -30 39 -8 112 -21 163 -29 210 -36 280 -48 347 -61 39
-8 112 -21 163 -29 50 -9 134 -23 185 -32 50 -8 124 -21 162 -29 39 -7 97 -18
130 -24 72 -13 86 -28 74 -79 -14 -59 -12 -62 28 -62 21 0 74 -7 118 -16 44
-8 114 -21 155 -29 41 -7 104 -19 140 -26 36 -7 88 -15 115 -19 28 -4 79 -12
115 -19 130 -25 217 -40 310 -56 52 -9 127 -23 165 -31 39 -8 80 -14 93 -14
13 0 51 -6 85 -14 34 -8 107 -21 162 -31 55 -9 132 -23 170 -31 39 -8 78 -14
89 -14 10 0 48 -6 85 -14 36 -8 111 -22 166 -31 55 -9 128 -23 162 -31 34 -8
74 -14 89 -14 14 0 56 -6 93 -14 36 -8 111 -22 166 -31 55 -9 120 -21 145 -27
46 -10 178 -32 285 -48 33 -5 75 -14 94 -19 24 -8 38 -7 48 0 18 16 16 28 -4
27 -10 -1 -49 4 -88 11 -38 7 -110 19 -160 27 -91 16 -191 34 -300 55 -33 6
-82 15 -110 19 -27 4 -79 12 -115 19 -193 38 -350 67 -455 86 -49 9 -121 22
-160 30 -106 20 -182 34 -270 50 -44 8 -116 22 -160 31 -44 9 -105 19 -135 24
-30 4 -75 13 -100 19 -55 13 -147 31 -218 41 -52 8 -94 17 -222 46 -36 8 -76
14 -89 14 -14 0 -50 6 -80 14 -56 14 -141 31 -236 46 -27 4 -76 14 -107 21
l-56 13 15 29 c13 26 19 29 46 24 18 -4 82 -16 142 -27 61 -12 143 -25 183
-31 40 -5 84 -14 98 -19 14 -6 39 -10 56 -10 18 0 57 -6 87 -14 55 -14 141
-30 251 -46 30 -4 75 -13 100 -18 25 -6 90 -18 145 -27 55 -9 132 -23 170 -30
80 -15 218 -40 490 -90 50 -9 124 -22 165 -30 41 -7 116 -20 165 -29 50 -9
122 -23 160 -31 95 -19 189 -35 255 -45 30 -4 73 -12 95 -18 22 -6 83 -18 135
-27 317 -55 341 -61 363 -88 17 -22 18 -22 32 -3 14 18 19 18 72 7 116 -26
243 -79 243 -102 0 -5 6 -9 13 -9 16 0 73 -57 65 -65 -10 -10 -108 7 -108 19
-1 38 -286 120 -311 89 -8 -9 -8 -14 2 -17 8 -2 29 -9 48 -15 19 -6 50 -11 70
-12 20 0 59 -9 86 -19 l50 -19 -70 5 c-38 3 -82 10 -96 15 -14 6 -30 9 -35 8
-5 -1 -27 1 -49 5 -22 3 -83 13 -135 22 -52 9 -126 22 -165 29 -38 7 -113 20
-165 29 -52 9 -131 23 -175 31 -44 7 -123 21 -175 30 -52 9 -131 22 -175 30
-44 8 -123 21 -175 30 -52 9 -129 23 -170 30 -72 13 -149 26 -350 60 -52 9
-126 23 -165 31 -38 8 -79 14 -90 14 -11 0 -51 6 -90 14 -38 8 -115 22 -170
31 -55 9 -122 21 -148 27 -26 5 -76 14 -110 18 -34 5 -89 14 -122 20 -110 21
-209 39 -310 55 -155 26 -255 48 -255 57 0 4 -7 8 -15 8 -8 0 -15 -4 -15 -9 0
-4 -30 -3 -67 4 -38 7 -111 20 -163 29 -52 9 -120 22 -150 28 -30 6 -80 14
-110 18 -30 4 -82 13 -115 19 -33 6 -103 18 -155 27 -52 8 -129 22 -170 29
-41 8 -118 21 -170 30 -52 9 -131 22 -175 30 -44 8 -125 21 -180 30 -55 9
-130 23 -166 31 -37 8 -79 14 -95 14 -33 0 -130 29 -165 50 -14 8 -39 30 -55
49 l-28 34 30 -16 c16 -8 48 -18 69 -22 22 -3 65 -12 95 -20 30 -7 89 -20 130
-28 41 -9 109 -22 150 -31 102 -20 243 -47 450 -87 36 -6 85 -15 110 -19 25
-4 74 -12 110 -19 93 -18 202 -38 303 -55 169 -31 263 -47 337 -61 152 -28
160 -28 169 -3 8 21 5 24 -33 35 -51 14 -143 33 -216 43 -30 4 -75 13 -100 18
-48 11 -142 31 -280 57 -47 9 -114 23 -150 30 -36 7 -103 21 -150 30 -47 9
-103 21 -125 26 -22 5 -62 14 -90 19 -27 4 -95 18 -150 30 -170 38 -363 76
-450 90 -33 6 -73 15 -89 20 -16 6 -46 10 -67 10 -22 0 -39 4 -39 9 0 5 -10
12 -22 15 -41 9 56 -2 107 -12z m14951 -334 c1 -40 7 -136 14 -213 15 -179 10
-461 -10 -492 -11 -16 -33 -25 -99 -36 -78 -14 -130 -22 -396 -57 -44 -6 -123
-15 -175 -20 -52 -5 -119 -14 -149 -19 -29 -6 -82 -11 -116 -11 -61 0 -63 1
-78 33 -10 21 -17 81 -21 182 -5 141 -8 192 -21 423 -6 105 10 159 49 166 57
11 288 36 332 36 27 0 103 7 169 16 66 8 170 22 230 30 61 8 143 16 183 18 41
3 76 7 80 10 3 3 6 6 6 6 1 0 2 -33 2 -72z m-7481 -506 c29 -24 65 -89 65
-116 0 -35 -20 -49 -42 -29 -10 9 -18 21 -18 28 0 17 -47 58 -71 62 -31 5 -68
-28 -74 -67 -4 -19 -10 -45 -15 -57 -15 -35 25 -42 55 -9 32 35 47 33 79 -9
28 -37 46 -38 46 -4 0 14 7 19 26 19 26 0 26 -1 20 -51 -10 -75 -54 -138 -68
-99 -9 23 -28 27 -28 5 0 -8 5 -15 10 -15 6 0 10 -7 10 -15 0 -11 -11 -15 -36
-15 -42 0 -65 19 -57 49 3 11 1 21 -5 21 -6 0 -12 -8 -14 -17 -3 -14 -10 -8
-30 22 -30 47 -51 174 -27 159 11 -6 12 -5 2 7 -7 8 -9 26 -6 38 6 22 7 23 19
7 11 -16 13 -16 19 3 3 12 4 25 1 30 -8 12 72 21 99 11 12 -5 37 -28 55 -52
l32 -43 -7 40 c-9 54 -62 103 -119 108 -39 3 -39 4 9 5 34 1 56 -4 70 -16z"/>
<path d="M7525 8366 c-12 -94 26 -476 47 -476 4 0 8 -12 8 -26 0 -16 4 -23 11
-18 12 7 5 121 -12 185 -5 20 -13 108 -17 196 -10 177 -25 236 -37 139z"/>
<path d="M7850 7768 c-25 -17 -46 -34 -48 -39 -2 -5 -9 -9 -16 -9 -7 0 -21 -8
-30 -19 -16 -18 -15 -19 38 -25 54 -7 126 0 126 13 0 3 14 21 30 40 34 38 35
42 18 59 -21 21 -71 13 -118 -20z"/>
<path d="M7167 7852 c-12 -13 -13 -21 -4 -37 14 -26 28 -40 50 -48 9 -3 17
-11 17 -16 0 -5 11 -12 25 -15 14 -4 25 -11 25 -16 0 -6 5 -10 11 -10 7 0 33
-13 58 -28 25 -15 65 -36 89 -47 49 -21 62 -14 62 35 0 21 -10 31 -52 53 -58
31 -60 31 -168 99 -41 27 -80 48 -86 48 -6 0 -18 -8 -27 -18z"/>
<path d="M16155 7502 c-20 -67 -17 -204 9 -417 16 -134 62 -363 65 -326 0 7
14 30 30 50 l29 37 -12 64 c-8 36 -19 144 -26 240 -22 326 -27 371 -46 391 -9
10 -20 19 -24 19 -4 0 -15 -26 -25 -58z"/>
<path d="M15499 6856 c10 -12 8 -19 -6 -33 -24 -24 -19 -40 23 -78 52 -47 59
-52 85 -60 13 -4 26 -10 29 -14 8 -10 216 -111 228 -111 7 0 12 -4 12 -10 0
-5 8 -10 18 -10 10 0 27 -7 38 -15 10 -8 26 -15 34 -15 8 0 27 -7 43 -14 23
-13 27 -13 27 0 0 8 5 14 10 14 6 0 10 11 10 24 0 14 5 28 10 31 23 14 3 28
-132 95 -79 39 -157 79 -174 89 -148 89 -288 147 -255 107z"/>
<path d="M16820 6694 c-82 -27 -299 -125 -300 -136 0 -4 16 -10 35 -14 19 -3
35 -12 35 -19 0 -7 10 -15 21 -18 15 -4 20 -11 15 -22 -5 -13 0 -15 32 -9 20
3 50 12 66 20 16 8 36 14 45 14 9 0 29 7 45 15 15 8 36 15 46 15 9 0 41 22 69
49 82 75 65 108 -54 109 -22 0 -47 -2 -55 -4z"/>
<path d="M16078 6166 c-16 -14 -28 -30 -28 -36 0 -5 -4 -10 -9 -10 -4 0 -21
-19 -37 -42 -16 -24 -34 -48 -40 -55 -22 -23 -164 -241 -164 -251 0 -6 -3 -12
-7 -14 -12 -5 -50 -89 -56 -123 -3 -16 -8 -37 -12 -46 -5 -14 0 -16 39 -14 25
2 51 9 58 16 19 20 78 117 78 129 0 6 4 10 8 10 5 0 14 12 21 27 17 37 178
278 196 293 8 7 15 17 15 22 0 5 7 17 16 26 12 12 13 17 4 20 -19 7 -48 38
-52 57 -3 15 -7 13 -30 -9z"/>
<path d="M16380 6042 c0 -12 4 -22 9 -22 4 0 12 -31 15 -70 4 -38 11 -70 15
-70 5 0 11 -23 15 -51 5 -40 10 -50 22 -45 9 3 12 2 9 -4 -11 -17 6 -92 18
-87 8 3 12 -10 13 -35 0 -22 5 -43 12 -46 6 -4 14 -27 18 -50 4 -23 10 -42 14
-42 4 0 11 -12 14 -26 7 -27 11 -33 61 -88 23 -26 34 -31 46 -23 13 8 14 16 1
71 -15 62 -36 126 -53 159 -5 9 -19 43 -30 75 -11 31 -25 66 -31 77 -6 11 -15
33 -19 50 -11 43 -63 188 -72 203 -5 6 -15 12 -24 12 -9 0 -25 7 -35 17 -17
15 -18 15 -18 -5z"/>
<path d="M7499 7368 c-14 -13 -28 -30 -32 -38 -13 -26 -32 -57 -44 -71 -6 -8
-32 -54 -58 -104 -38 -73 -48 -102 -51 -153 -3 -47 0 -62 8 -60 7 3 44 67 83
144 38 76 76 145 82 152 7 7 13 17 13 22 0 5 6 15 13 22 31 35 38 58 24 84
l-13 25 -25 -23z"/>
<path d="M12849 12766 c7 -8 35 -19 62 -22 27 -4 49 -10 49 -15 0 -5 10 -9 23
-9 13 0 32 -7 43 -15 10 -8 26 -15 34 -15 8 0 27 -6 41 -14 14 -7 42 -16 62
-20 21 -4 37 -10 37 -14 0 -4 27 -16 60 -25 49 -15 67 -16 94 -7 48 16 399 39
786 51 297 10 805 8 1440 -5 172 -3 182 -3 85 5 -60 5 -175 13 -255 17 -80 5
-129 10 -110 12 44 4 -75 15 -305 29 -93 5 -231 14 -305 20 -164 13 -669 21
-620 10 55 -12 -449 3 -570 17 -19 2 -177 7 -350 10 -288 6 -313 5 -301 -10z"/>
<path d="M21665 10306 c17 -8 68 -28 115 -46 47 -17 98 -38 113 -46 16 -8 34
-14 42 -14 7 0 39 -12 71 -26 33 -15 73 -30 89 -34 17 -5 55 -18 85 -30 30
-12 66 -24 80 -27 14 -3 30 -9 35 -14 6 -4 44 -19 85 -33 41 -13 98 -33 125
-44 105 -41 161 -63 193 -77 31 -14 50 -23 137 -60 22 -9 58 -26 81 -36 22
-10 46 -19 52 -19 7 0 12 -4 12 -10 0 -5 7 -10 16 -10 9 0 28 -6 42 -13 15 -8
45 -22 67 -32 22 -9 48 -22 58 -27 11 -5 22 -6 25 -2 4 4 2 9 -5 11 -6 2 -21
13 -34 24 -12 10 -28 19 -36 19 -7 0 -13 5 -13 10 0 6 -6 10 -14 10 -8 0 -21
6 -28 13 -17 15 -104 65 -140 78 -16 6 -28 15 -28 19 0 5 -13 11 -30 15 -16 4
-30 11 -30 16 0 5 -5 9 -11 9 -10 0 -38 12 -154 65 -46 21 -112 50 -175 77
-14 5 -38 16 -55 24 -16 7 -42 16 -57 20 -16 3 -28 10 -28 15 0 5 -9 9 -21 9
-12 0 -35 6 -52 14 -18 8 -63 24 -102 36 -38 12 -77 25 -85 30 -9 4 -31 11
-50 15 -19 4 -41 11 -50 15 -17 8 -79 26 -155 43 -27 6 -52 14 -55 17 -3 3
-36 6 -75 8 -67 2 -69 1 -40 -12z"/>
<path d="M6002 6378 c-1 -27 -6 -48 -12 -48 -5 0 -10 -20 -10 -45 0 -25 5 -45
10 -45 6 0 10 -5 10 -11 0 -8 -5 -8 -15 1 -9 8 -15 30 -15 56 0 24 -4 44 -9
44 -5 0 -12 13 -16 29 -3 16 -12 32 -19 34 -10 4 -12 -1 -9 -14 4 -13 1 -18
-8 -16 -8 2 -11 2 -6 0 11 -7 9 -33 -3 -33 -6 0 -13 7 -16 15 -4 8 -11 15 -17
15 -5 0 -3 -8 6 -18 10 -10 17 -28 17 -39 0 -12 5 -23 11 -25 5 -2 13 -22 16
-46 3 -23 10 -42 14 -42 15 0 10 49 -7 75 -8 13 -14 34 -11 47 4 20 4 20 6 -4
1 -35 21 -37 21 -3 0 14 -4 25 -10 25 -5 0 -10 7 -10 15 0 26 18 16 23 -12 6
-37 7 -193 0 -170 -6 21 -23 23 -23 2 0 -8 4 -15 9 -15 5 0 12 -12 14 -27 l4
-28 2 28 c0 15 6 27 11 27 6 0 11 17 11 38 1 27 3 30 6 12 5 -26 22 -52 24
-34 3 43 10 69 19 72 7 3 7 9 -2 20 -10 12 -10 16 0 19 14 5 16 55 3 69 -5 5
-11 25 -14 44 -3 30 -4 28 -5 -12z"/>
<path d="M25561 4972 c-1 -7 -8 -20 -17 -29 -10 -10 -13 -25 -9 -43 5 -21 1
-31 -12 -40 -13 -8 -14 -13 -5 -16 6 -3 12 -19 12 -35 0 -17 6 -32 15 -35 16
-7 21 -34 6 -34 -12 0 -22 -45 -15 -64 12 -30 23 -16 29 39 7 55 25 77 25 30
0 -14 7 -28 15 -31 8 -4 15 -10 15 -16 0 -5 -7 -16 -15 -24 -13 -14 -15 -13
-15 10 0 14 -4 26 -10 26 -12 0 -13 -47 -1 -52 4 -1 11 -13 15 -25 5 -16 1
-27 -13 -40 -24 -20 -28 -66 -7 -85 12 -11 12 -16 -2 -31 -15 -16 -15 -17 0
-12 23 9 29 31 12 45 -22 19 -17 54 11 80 18 17 25 19 25 9 0 -8 -6 -21 -12
-27 -10 -10 -10 -15 2 -22 13 -9 13 -11 0 -21 -13 -9 -13 -10 0 -7 20 6 22 77
3 107 -13 21 -13 25 1 39 15 15 16 15 16 -3 0 -11 6 -28 14 -37 10 -14 12 -4
9 61 -2 68 0 81 17 96 11 10 20 25 19 34 0 14 -1 14 -6 1 -3 -8 -17 -25 -30
-37 -13 -12 -23 -34 -23 -49 0 -22 -2 -25 -15 -14 -22 18 -19 38 10 64 19 18
27 38 31 77 3 30 11 58 18 62 7 6 6 7 -4 4 -8 -2 -16 -18 -18 -35 -2 -18 -8
-32 -14 -32 -6 0 -6 -6 2 -15 9 -10 9 -15 1 -15 -6 0 -11 -7 -11 -16 0 -14 -2
-14 -16 -3 -11 9 -12 15 -5 17 9 3 9 7 0 18 -9 11 -9 14 1 14 9 0 9 4 2 13 -5
6 -12 23 -15 37 -3 14 -4 -5 -3 -42 3 -103 -17 -120 -28 -24 -3 27 -11 55 -17
63 -9 10 -8 18 6 33 9 10 15 25 12 32 -4 11 -6 11 -6 0z"/>
</g>
</svg>
