<?xml version="1.0" standalone="no"?>
<!DOCTYPE svg PUBLIC "-//W3C//DTD SVG 20010904//EN"
 "http://www.w3.org/TR/2001/REC-SVG-20010904/DTD/svg10.dtd">
<svg version="1.0" xmlns="http://www.w3.org/2000/svg"
 width="2880.000000pt" height="1725.000000pt" viewBox="0 0 2880.000000 1725.000000"
 preserveAspectRatio="xMidYMid meet">
<metadata>
Created by potrace 1.16, written by Peter Selinger 2001-2019
</metadata>
<g transform="translate(0.000000,1725.000000) scale(0.100000,-0.100000)"
fill="#000000" stroke="none">
<path d="M14000 12190 c-25 -4 -355 -7 -735 -8 -703 0 -905 -6 -905 -25 0 -10
-61 -8 -295 13 -144 12 -757 13 -843 1 -37 -6 -134 -15 -217 -21 -82 -6 -175
-15 -205 -20 -30 -5 -89 -14 -130 -21 -149 -23 -266 -46 -350 -68 -19 -5 -64
-17 -100 -26 -67 -17 -134 -35 -230 -63 -47 -13 -257 -83 -370 -123 -19 -6
-47 -18 -62 -25 -14 -8 -31 -14 -36 -14 -6 0 -41 -14 -79 -31 -37 -17 -81 -36
-98 -44 -187 -84 -496 -247 -604 -317 -14 -10 -32 -21 -40 -24 -28 -14 -285
-189 -308 -211 -7 -6 -35 -26 -63 -44 -27 -18 -50 -36 -50 -41 0 -4 -7 -8 -15
-8 -8 0 -15 -4 -15 -8 0 -5 -27 -28 -60 -52 -33 -24 -60 -47 -60 -52 0 -4 -6
-8 -14 -8 -8 0 -16 -3 -18 -8 -1 -4 -28 -28 -58 -52 -30 -25 -65 -55 -77 -67
-12 -13 -25 -23 -28 -23 -3 0 -20 -15 -38 -32 -18 -18 -45 -39 -60 -47 -15 -8
-27 -21 -27 -28 0 -8 -4 -11 -10 -8 -5 3 -10 1 -10 -4 0 -6 -3 -10 -7 -9 -5 1
-27 -10 -50 -25 -41 -26 -111 -63 -204 -105 -25 -12 -54 -31 -64 -42 -26 -28
-8 -44 80 -71 46 -14 76 -29 77 -39 4 -18 -51 -40 -102 -40 -19 0 -82 -7 -140
-16 -289 -43 -363 -65 -388 -117 -12 -24 -11 -33 7 -71 12 -23 21 -48 21 -54
0 -7 7 -12 15 -12 8 0 15 -6 15 -14 0 -8 14 -26 32 -41 25 -21 32 -34 30 -58
-2 -17 -7 -34 -12 -37 -14 -8 -25 -90 -12 -90 6 0 13 17 17 38 3 20 12 45 20
56 13 18 14 18 33 0 20 -20 103 -187 119 -239 9 -28 6 -34 -23 -63 -29 -29
-38 -32 -91 -32 -51 0 -61 3 -78 26 -12 16 -22 50 -26 83 l-6 56 -1 -67 c-2
-57 1 -71 22 -95 22 -25 29 -27 95 -27 40 0 75 5 79 10 4 6 17 16 28 22 20 11
22 8 27 -44 3 -31 8 -59 12 -62 3 -3 38 5 78 18 93 31 262 33 347 6 94 -31
223 -107 317 -186 17 -14 23 -13 23 5 0 8 5 15 10 15 6 0 10 5 10 11 0 6 20
32 45 57 25 25 45 53 45 62 0 17 18 40 32 40 4 0 8 -11 8 -24 0 -14 4 -27 9
-30 4 -3 11 -37 15 -76 4 -38 11 -70 15 -70 5 0 11 -26 15 -57 4 -31 11 -62
16 -67 4 -6 12 -38 15 -71 6 -53 5 -62 -14 -79 -18 -16 -22 -17 -36 -3 -8 9
-15 18 -15 22 0 6 -40 65 -50 75 -3 3 -16 19 -28 35 -75 100 -92 118 -152 166
-73 58 -141 74 -310 73 -109 0 -161 -4 -210 -18 -102 -29 -185 -66 -241 -108
-20 -16 -40 -28 -43 -28 -3 0 -39 -34 -79 -75 -41 -41 -82 -75 -92 -75 -10 0
-30 10 -43 23 -22 20 -24 20 -14 2 6 -11 20 -27 31 -35 29 -20 27 -25 -16 -50
-37 -21 -64 -63 -78 -122 -4 -16 -11 -28 -15 -28 -5 0 -11 -13 -15 -30 -4 -16
-11 -32 -16 -35 -5 -4 -9 -15 -9 -26 0 -11 -9 -29 -19 -40 -18 -20 -21 -20
-53 -6 -18 9 -43 18 -55 22 -13 3 -23 10 -23 15 0 4 -12 11 -27 15 -15 3 -30
10 -33 13 -3 4 -27 22 -55 41 -27 19 -67 52 -87 73 -21 21 -42 38 -48 38 -6 0
-10 -31 -10 -80 0 -44 4 -80 9 -80 4 0 11 -59 15 -132 4 -73 11 -135 15 -138
5 -3 12 -47 16 -97 4 -51 11 -93 15 -93 5 0 11 -38 15 -85 4 -47 11 -85 15
-85 5 0 11 -47 15 -105 4 -58 11 -105 16 -105 4 0 11 -20 15 -45 3 -25 10 -45
14 -45 4 0 11 -16 14 -35 4 -19 11 -35 16 -35 4 0 11 -13 15 -30 4 -16 10 -30
15 -30 4 0 11 -11 14 -25 4 -14 10 -25 15 -25 5 0 12 -13 16 -29 3 -16 13 -32
21 -35 8 -3 14 -12 14 -21 0 -8 4 -15 9 -15 5 0 13 -10 16 -22 4 -11 18 -31
31 -43 13 -12 24 -26 24 -32 0 -5 13 -20 30 -33 16 -14 29 -30 30 -37 0 -6 20
-32 45 -56 42 -43 45 -49 51 -116 4 -39 10 -71 14 -71 5 0 11 -27 15 -60 4
-33 10 -60 15 -60 4 0 10 -22 14 -50 4 -27 11 -50 15 -50 5 0 12 -20 15 -45 4
-25 11 -45 15 -45 5 0 11 -18 15 -40 3 -22 10 -40 15 -40 5 0 12 -15 15 -34 4
-19 11 -36 16 -38 5 -2 12 -17 16 -34 6 -30 4 -32 -27 -37 -155 -23 -279 -54
-279 -69 0 -4 -7 -8 -15 -8 -8 0 -15 -6 -15 -14 0 -8 -10 -18 -22 -22 -13 -4
-25 -10 -28 -14 -3 -3 -41 -11 -85 -17 -123 -17 -199 -33 -209 -44 -6 -5 -21
-9 -35 -9 -56 0 -246 -74 -300 -117 -8 -6 52 -63 66 -63 7 0 13 -4 13 -10 0
-5 7 -10 15 -10 8 0 15 -7 15 -15 0 -8 5 -15 11 -15 6 0 22 -9 36 -20 14 -11
36 -20 49 -20 13 0 24 -4 24 -9 0 -5 15 -13 33 -16 17 -4 37 -11 42 -15 6 -4
25 -11 43 -15 17 -3 32 -10 32 -15 0 -5 20 -12 45 -16 25 -3 45 -10 45 -14 0
-5 14 -11 30 -15 17 -4 30 -10 30 -14 0 -5 19 -11 42 -14 24 -3 44 -10 46 -16
2 -6 26 -13 53 -17 27 -4 52 -10 55 -15 2 -5 27 -11 54 -15 28 -4 50 -10 50
-14 0 -4 29 -11 65 -15 36 -3 67 -10 70 -15 2 -4 34 -11 70 -15 36 -3 65 -10
65 -15 0 -5 34 -11 75 -15 41 -4 75 -11 75 -15 0 -5 34 -11 75 -15 41 -4 75
-11 75 -15 0 -5 34 -11 75 -15 41 -4 75 -11 75 -15 0 -5 28 -11 63 -15 34 -4
67 -11 72 -15 6 -4 40 -11 77 -15 37 -3 70 -10 73 -15 2 -4 35 -11 72 -15 38
-4 73 -11 79 -16 6 -5 39 -12 73 -15 33 -4 61 -10 61 -15 0 -4 29 -11 65 -14
36 -4 68 -11 70 -16 3 -4 41 -11 85 -15 44 -3 80 -10 80 -15 0 -4 36 -11 80
-15 44 -3 83 -10 85 -15 3 -4 41 -11 85 -15 44 -3 80 -10 80 -14 0 -5 34 -11
75 -15 41 -4 75 -11 75 -15 0 -4 33 -11 73 -15 39 -4 74 -11 77 -16 3 -5 38
-11 78 -15 40 -4 72 -10 72 -14 0 -4 34 -11 75 -15 41 -4 75 -10 75 -14 0 -5
28 -11 61 -15 34 -3 67 -10 73 -15 6 -5 40 -12 76 -16 36 -4 70 -11 75 -15 6
-4 45 -11 88 -15 42 -4 77 -10 77 -15 0 -4 33 -11 73 -15 39 -3 77 -11 83 -16
6 -5 40 -12 75 -15 35 -4 69 -10 74 -14 6 -5 40 -11 78 -15 37 -4 69 -11 72
-15 3 -4 41 -11 85 -15 44 -4 80 -11 80 -15 0 -5 34 -11 75 -15 41 -4 75 -11
75 -15 0 -4 33 -11 73 -15 39 -4 75 -12 78 -17 3 -5 32 -12 65 -15 32 -3 64
-9 69 -13 6 -5 40 -11 78 -15 37 -4 70 -11 72 -16 3 -4 41 -11 85 -15 44 -3
80 -10 80 -14 0 -4 41 -11 90 -15 50 -4 90 -11 90 -15 0 -5 35 -11 78 -15 42
-4 82 -11 87 -15 6 -5 40 -11 78 -15 37 -4 70 -11 72 -16 3 -4 41 -11 85 -15
44 -3 80 -10 80 -14 0 -4 36 -11 80 -14 44 -4 82 -11 85 -15 2 -5 35 -12 72
-16 38 -4 73 -10 78 -15 6 -4 40 -11 77 -15 37 -3 70 -10 73 -15 3 -4 41 -11
85 -15 44 -4 80 -11 80 -15 0 -5 35 -11 78 -15 42 -4 82 -11 88 -16 7 -5 41
-12 78 -16 44 -4 66 -10 66 -19 0 -16 -44 -22 -225 -29 -194 -7 -309 -16 -315
-24 -3 -4 -13 -10 -22 -14 -26 -9 -22 -37 5 -39 36 -2 41 -3 53 -11 7 -4 52
-10 100 -13 49 -4 92 -12 96 -18 5 -8 188 -11 628 -11 468 0 623 -3 628 -12 4
-6 43 -15 87 -18 44 -4 99 -13 123 -21 23 -8 59 -14 78 -14 19 0 43 -4 53 -9
9 -5 46 -14 82 -20 90 -14 173 -30 250 -47 37 -8 82 -14 101 -14 19 0 38 -4
43 -9 6 -5 42 -14 80 -20 148 -22 425 -79 585 -121 77 -20 124 -32 245 -60
132 -31 187 -43 240 -55 33 -7 80 -17 105 -23 66 -16 182 -39 285 -57 50 -9
115 -23 145 -31 30 -7 75 -16 100 -18 25 -3 65 -9 90 -15 54 -12 211 -39 260
-45 19 -2 64 -9 100 -15 143 -26 189 -33 270 -41 47 -5 123 -13 170 -19 47 -5
157 -17 245 -26 88 -8 205 -20 260 -26 55 -6 132 -13 170 -15 115 -7 208 -14
240 -19 17 -3 120 -10 230 -15 110 -6 214 -13 230 -16 17 -3 190 -8 385 -12
575 -12 1465 -2 1645 19 44 5 123 9 175 9 52 1 131 5 175 11 44 5 168 13 275
18 181 8 258 14 560 42 63 6 171 14 240 20 69 5 132 11 140 15 8 3 67 10 130
15 63 5 139 13 170 19 30 5 100 14 155 21 55 6 143 17 195 25 52 7 158 20 235
28 197 21 282 33 294 40 5 4 47 11 93 17 45 5 87 14 93 18 5 4 30 9 55 10 25
1 63 7 85 12 22 6 61 14 87 18 25 4 52 12 60 18 7 6 31 14 53 18 22 4 45 10
50 14 6 3 33 11 60 18 28 6 79 18 115 27 36 9 82 20 103 25 21 5 44 14 50 20
6 6 21 11 33 11 41 0 265 80 348 124 27 14 58 26 70 26 12 0 34 7 50 15 15 8
35 15 43 15 8 0 35 9 61 21 26 11 56 24 67 28 63 26 175 84 175 91 0 5 8 11
18 14 29 10 92 74 92 95 0 28 -37 66 -92 94 -26 14 -59 34 -75 45 -15 11 -44
23 -63 27 -49 11 -53 24 -19 62 16 19 29 37 29 42 0 30 -101 95 -168 107 -19
4 -47 13 -61 20 -14 8 -36 14 -47 14 -12 0 -35 7 -50 15 -16 8 -36 15 -45 15
-9 0 -30 7 -45 15 -16 8 -41 15 -56 15 -16 0 -28 4 -28 8 0 4 -24 13 -52 20
-91 20 -142 34 -159 42 -9 5 -38 12 -65 15 -27 4 -53 11 -59 15 -5 5 -32 11
-60 15 -27 4 -54 11 -60 15 -5 4 -30 11 -55 15 -25 4 -70 13 -100 21 -30 8
-70 14 -90 14 -20 0 -40 4 -45 9 -6 5 -44 14 -85 19 -134 19 -214 32 -260 43
-24 5 -76 14 -115 20 -166 24 -214 34 -207 45 4 6 18 15 32 19 13 4 30 14 38
21 7 8 19 14 27 14 7 0 15 7 19 15 4 11 20 15 55 15 27 0 52 4 55 9 3 5 44 12
91 16 47 4 87 11 91 16 7 12 44 12 44 -1 0 -5 20 -10 45 -10 25 0 45 4 45 9 0
5 25 12 55 16 30 3 55 10 55 15 0 5 16 12 35 16 19 3 35 10 35 14 0 4 34 11
75 15 41 4 75 11 75 15 0 5 32 12 70 16 39 3 70 10 70 14 0 5 29 12 65 15 36
4 65 11 65 16 0 15 58 10 64 -6 3 -8 12 -15 21 -15 8 0 15 -4 15 -10 0 -14 37
-13 42 1 2 6 28 14 58 17 30 2 60 8 65 12 6 4 40 11 78 15 37 3 67 10 67 15 0
4 23 10 50 14 28 4 50 11 50 16 0 5 9 12 20 15 26 8 160 143 160 160 0 7 6 15
13 18 14 4 13 157 -2 166 -4 3 -12 21 -16 39 -3 17 -11 32 -16 32 -5 0 -12 18
-15 40 -4 22 -10 40 -14 40 -5 0 -12 15 -15 33 -4 17 -13 35 -19 39 -8 6 -8 8
0 8 7 0 15 25 19 55 3 30 10 55 14 55 5 0 11 23 15 50 4 28 11 50 15 50 5 0
12 26 16 58 4 31 12 60 18 64 12 7 23 337 13 392 -8 40 -26 49 -26 13 0 -18
-10 -26 -47 -39 -46 -16 -141 -34 -115 -22 6 3 12 10 12 15 0 21 36 89 47 89
7 0 13 5 13 10 0 6 14 10 30 10 17 0 30 -4 30 -10 0 -5 7 -10 15 -10 9 0 15 9
15 25 0 14 5 25 10 25 6 0 10 7 10 15 0 8 -4 15 -9 15 -5 0 -12 13 -16 30 -4
16 -10 30 -15 30 -5 0 -11 14 -15 30 -4 17 -10 30 -15 30 -4 0 -10 18 -14 40
-3 22 -10 40 -15 40 -5 0 -12 13 -16 30 -4 17 -10 30 -15 30 -4 0 -11 16 -14
35 -4 19 -11 35 -16 35 -6 0 -13 18 -16 40 -4 22 -10 40 -14 40 -5 0 -11 14
-15 30 -4 17 -10 30 -15 30 -4 0 -11 16 -14 35 -4 19 -11 35 -16 35 -4 0 -11
14 -15 30 -4 17 -10 30 -15 30 -5 0 -11 14 -15 30 -4 17 -10 30 -15 30 -5 0
-11 13 -15 30 -4 16 -10 30 -15 30 -5 0 -11 14 -15 30 -4 17 -10 30 -15 30 -5
0 -11 14 -15 30 -4 17 -11 30 -16 30 -5 0 -11 11 -15 24 -3 14 -12 27 -20 30
-8 3 -14 12 -14 21 0 8 -4 15 -9 15 -5 0 -13 10 -17 22 -4 12 -20 33 -35 47
-16 14 -29 31 -29 38 0 7 -4 13 -10 13 -5 0 -10 8 -10 17 0 13 -3 14 -12 5 -9
-9 -21 -2 -51 28 -21 22 -41 40 -43 40 -8 0 23 -54 43 -75 19 -21 47 -62 72
-105 8 -14 17 -54 21 -90 4 -36 8 -69 9 -75 7 -22 0 -139 -7 -129 -4 7 -7 -28
-7 -77 0 -56 -5 -93 -13 -101 -6 -6 -12 -23 -12 -36 0 -65 -117 -221 -181
-244 -16 -5 -29 -16 -29 -23 0 -8 -9 -10 -25 -7 -17 3 -33 -2 -46 -14 -12 -11
-23 -18 -25 -16 -2 1 -15 2 -29 2 -19 0 -25 -5 -25 -22 0 -20 -1 -20 -12 -5
-19 24 -70 9 -79 -24 -7 -23 -7 -23 -8 -1 -1 26 -11 27 -94 8 -126 -30 -213
-46 -244 -46 -31 0 -33 2 -33 35 0 26 -4 33 -14 29 -8 -3 -17 -13 -19 -22 -3
-10 -5 0 -6 21 -1 35 -2 37 -22 26 -12 -6 -24 -20 -27 -31 -3 -13 -7 -16 -12
-8 -5 8 -11 7 -23 -4 -8 -9 -20 -16 -25 -16 -5 0 -26 -18 -45 -39 -42 -47 -52
-41 -59 38 -8 80 -2 93 36 85 l31 -6 -22 21 c-12 11 -33 23 -47 27 -14 3 -26
10 -26 15 0 30 -127 -38 -190 -101 -28 -28 -26 -42 6 -30 42 16 96 -3 113 -40
7 -17 11 -33 8 -36 -2 -3 -24 2 -48 11 -68 23 -149 31 -149 14 -1 -8 -14 18
-31 56 -16 39 -37 75 -45 82 -21 16 -41 85 -49 178 -7 70 -6 77 9 72 13 -5 16
2 17 46 1 35 7 8 19 -88 20 -153 39 -245 52 -245 4 0 8 -7 8 -15 0 -8 9 -15
20 -15 11 0 20 7 20 15 0 8 4 15 9 15 4 0 21 19 37 43 16 23 32 44 35 47 3 3
9 12 12 20 4 8 15 28 25 44 15 25 17 40 10 90 -13 88 -38 214 -54 265 -33 105
-2 87 46 -27 17 -42 36 -85 41 -94 5 -10 18 -46 30 -80 26 -81 43 -111 85
-154 53 -52 61 -49 101 41 12 27 22 42 23 33 0 -10 5 -18 10 -18 6 0 10 -10
10 -21 0 -19 2 -20 16 -8 13 11 15 25 9 81 -7 78 -24 124 -69 187 -40 57 -104
121 -122 121 -8 0 -14 4 -14 10 0 5 -12 13 -27 16 -16 4 -31 11 -34 17 -9 12
-138 14 -147 1 -4 -5 -16 -14 -26 -20 -11 -6 -24 -19 -30 -29 -6 -11 -21 -37
-34 -58 -13 -21 -27 -57 -32 -80 -9 -40 -9 -40 -4 11 8 86 67 168 138 192 46
15 136 6 186 -20 41 -21 160 -132 160 -149 0 -6 5 -11 10 -11 6 0 15 -10 20
-22 6 -13 20 -39 32 -58 16 -27 88 -211 88 -226 0 -5 56 14 80 28 14 7 49 29
78 47 46 29 52 37 52 67 0 38 15 45 26 12 6 -20 9 -18 50 28 41 46 69 100 62
120 -2 5 8 20 20 32 15 15 22 31 19 43 -3 10 0 19 6 19 6 0 3 6 -8 13 -11 9
-15 19 -10 27 6 10 9 10 15 0 9 -15 23 7 34 52 5 22 3 25 -12 21 -13 -3 -18 2
-19 17 -2 18 1 19 13 9 8 -6 16 -10 19 -8 2 3 8 41 12 86 8 71 7 83 -6 87 -9
3 17 4 56 1 74 -4 117 -21 158 -60 11 -11 29 -27 39 -35 18 -14 19 -14 8 5
-12 23 -43 57 -69 77 -10 7 -36 49 -57 93 -22 44 -43 82 -48 83 -4 2 -8 10 -8
17 0 8 -9 19 -20 25 -16 9 -22 8 -27 -5 -4 -13 -8 -14 -13 -4 -6 9 -31 9 -117
-4 -206 -31 -1025 -107 -1143 -107 -36 0 -182 -6 -325 -15 -669 -38 -981 -47
-1735 -46 -63 0 -144 4 -180 10 -36 5 -126 15 -200 21 -203 17 -499 54 -560
71 -19 5 -69 14 -110 19 -41 5 -115 16 -165 25 -49 8 -130 21 -180 29 -49 8
-121 19 -160 25 -38 7 -88 16 -111 21 -23 5 -72 12 -110 15 -38 4 -78 10 -89
15 -11 5 -58 13 -105 19 -102 12 -209 28 -270 41 -25 6 -81 14 -125 20 -44 5
-102 14 -130 19 -27 6 -69 10 -92 10 -24 1 -43 5 -43 10 0 6 -21 12 -47 14
-27 3 11 3 82 1 133 -4 295 -16 490 -36 223 -23 289 -32 475 -64 47 -8 100
-14 119 -14 18 0 72 -7 120 -14 182 -31 227 -38 261 -42 39 -5 183 -28 305
-50 44 -8 91 -14 105 -14 14 0 63 -6 110 -14 154 -27 460 -56 615 -59 65 -1
1021 26 1026 29 4 2 146 8 315 14 170 5 372 14 449 19 77 6 219 16 315 22 328
21 699 53 747 63 16 4 71 11 123 16 163 16 305 39 308 50 2 5 10 10 18 10 7 0
16 11 19 25 3 14 7 36 10 50 12 56 -12 97 -109 193 -52 50 -97 92 -101 92 -4
0 -24 13 -44 28 -20 16 -43 32 -51 35 -8 4 -28 16 -45 26 -16 11 -79 45 -140
76 -138 71 -209 109 -215 115 -12 12 -273 140 -286 140 -8 0 -14 5 -14 10 0 6
-5 10 -11 10 -7 0 -33 10 -58 21 -25 12 -62 29 -81 37 -19 8 -47 21 -62 29
-14 7 -33 13 -42 13 -9 0 -16 4 -16 9 0 5 -13 12 -30 16 -16 4 -30 10 -30 15
0 5 -13 11 -30 15 -16 4 -30 10 -30 15 0 5 -20 12 -45 16 -25 3 -45 10 -45 14
0 4 -16 11 -35 14 -19 4 -35 11 -35 15 0 5 -20 12 -45 15 -25 4 -45 11 -45 15
0 5 -20 12 -45 15 -25 4 -45 11 -45 15 0 5 -25 12 -55 16 -30 3 -55 10 -55 15
0 5 -20 12 -45 16 -25 3 -45 10 -45 15 0 4 -22 11 -50 15 -27 4 -50 10 -50 14
0 4 -19 10 -42 14 -23 4 -45 12 -49 18 -4 6 -30 13 -58 16 -28 2 -51 8 -51 12
0 4 -22 10 -50 14 -27 4 -50 11 -50 16 0 5 -25 12 -55 15 -30 4 -55 11 -55 16
0 4 -21 11 -47 15 -27 4 -50 10 -53 14 -3 4 -24 10 -47 13 -36 6 -41 5 -36
-11 2 -10 16 -23 31 -29 15 -6 52 -20 82 -32 30 -12 64 -26 75 -30 19 -8 47
-19 140 -54 103 -38 207 -78 250 -96 11 -5 40 -16 65 -26 25 -9 58 -23 73 -31
16 -8 35 -14 42 -14 7 0 26 -7 42 -15 25 -13 48 -23 128 -55 27 -11 113 -48
150 -65 17 -7 57 -25 90 -40 103 -46 328 -158 370 -185 65 -40 79 -49 94 -56
18 -9 61 -50 61 -58 0 -11 -95 -5 -135 9 -22 8 -49 15 -60 15 -11 0 -40 6 -65
14 -25 8 -74 22 -110 31 -36 9 -92 23 -125 32 -33 8 -82 21 -110 28 -132 33
-153 38 -195 45 -25 5 -88 18 -140 30 -52 12 -115 25 -140 30 -25 4 -76 15
-115 23 -126 27 -179 38 -255 53 -41 8 -95 20 -120 26 -25 5 -70 14 -100 18
-30 5 -77 14 -105 20 -63 14 -165 34 -275 55 -47 9 -116 23 -155 31 -92 20
-182 39 -280 59 -44 9 -103 23 -131 31 -28 7 -61 14 -74 14 -13 0 -46 6 -74
14 -28 8 -89 22 -136 31 -47 9 -110 22 -140 30 -72 17 -163 35 -225 45 -27 4
-106 19 -175 33 -69 14 -170 33 -225 42 -55 9 -122 23 -149 31 -26 8 -60 14
-75 14 -14 0 -69 9 -121 21 -52 11 -130 26 -173 34 -43 8 -83 18 -89 21 -6 4
-38 10 -72 15 -89 11 -446 84 -482 99 -12 4 -48 11 -80 16 -32 4 -75 12 -94
19 l-35 13 45 5 c88 12 696 20 1543 21 647 1 857 4 857 13 0 6 -13 14 -30 18
-16 4 -30 10 -30 15 0 5 -13 11 -30 15 -16 4 -30 10 -30 15 0 4 -16 11 -35 14
-19 4 -35 11 -35 16 0 4 -13 11 -30 15 -16 4 -30 10 -30 15 0 5 -13 11 -30 15
-16 4 -30 10 -30 15 0 4 -11 11 -25 14 -14 4 -25 10 -25 15 0 5 -13 12 -30 16
-16 4 -30 10 -30 15 0 5 -13 11 -30 15 -16 4 -30 10 -30 15 0 5 -13 11 -30 15
-16 4 -30 11 -30 16 0 5 -7 9 -15 9 -9 0 -18 6 -21 14 -3 8 -19 18 -35 21 -16
4 -29 10 -29 15 0 5 -13 11 -30 15 -16 4 -30 10 -30 15 0 4 -11 11 -25 14 -14
4 -25 10 -25 15 0 5 -13 12 -30 16 -16 4 -30 10 -30 15 0 5 -13 11 -30 15 -16
4 -30 11 -30 16 0 5 -7 9 -15 9 -9 0 -18 6 -21 14 -3 8 -19 18 -35 21 -16 4
-29 10 -29 15 0 5 -13 11 -30 15 -16 4 -30 10 -30 15 0 4 -11 11 -25 14 -14 4
-25 10 -25 15 0 5 -13 12 -30 16 -16 4 -30 10 -30 15 0 5 -13 11 -30 15 -16 4
-30 10 -30 15 0 5 -13 11 -30 15 -16 4 -30 11 -30 16 0 5 -7 9 -15 9 -9 0 -18
6 -21 14 -3 8 -19 18 -35 21 -16 4 -29 10 -29 15 0 5 -13 11 -30 15 -16 4 -30
10 -30 15 0 5 -13 11 -30 15 -16 4 -30 10 -30 15 0 5 -13 11 -30 15 -16 4 -30
10 -30 15 0 5 -13 11 -30 15 -16 4 -30 11 -30 16 0 5 -11 11 -25 15 -14 3 -25
10 -25 14 0 5 -13 11 -30 15 -16 4 -30 10 -30 15 0 5 -13 11 -30 15 -16 4 -30
10 -30 15 0 5 -13 11 -30 15 -16 4 -30 10 -30 15 0 5 -13 11 -30 15 -16 4 -30
10 -30 15 0 5 -13 11 -30 15 -16 4 -30 10 -30 15 0 5 -13 11 -30 15 -16 4 -30
10 -30 15 0 4 -16 11 -35 14 -19 4 -35 11 -35 16 0 4 -13 11 -30 15 -16 4 -30
10 -30 15 0 5 -13 11 -30 15 -16 4 -30 10 -30 15 0 5 -13 11 -30 15 -16 4 -30
10 -30 15 0 4 -18 10 -40 14 -22 3 -40 10 -40 15 0 5 -13 12 -30 16 -16 4 -30
10 -30 15 0 4 -16 11 -35 14 -19 4 -35 11 -35 16 0 6 -18 13 -40 16 -22 4 -40
10 -40 14 0 5 -13 11 -30 15 -16 4 -30 10 -30 15 0 4 -16 11 -35 14 -19 4 -35
11 -35 15 0 5 -18 11 -40 15 -22 3 -40 10 -40 15 0 5 -16 12 -35 15 -19 4 -35
11 -35 15 0 5 -20 12 -45 15 -25 4 -45 11 -45 15 0 5 -20 12 -45 15 -25 4 -45
11 -45 15 0 5 -20 12 -45 15 -25 4 -45 11 -45 15 0 5 -20 12 -45 15 -25 4 -45
11 -45 16 0 5 -25 12 -55 15 -30 4 -55 11 -55 15 0 4 -22 10 -50 14 -27 4 -50
11 -50 16 0 5 -31 12 -70 16 -38 3 -70 10 -70 14 0 5 -29 12 -65 15 -36 4 -65
11 -65 15 0 5 -38 11 -85 15 -47 4 -85 11 -85 15 0 4 -36 11 -80 14 -44 4 -80
11 -80 15 0 5 -47 12 -105 16 -58 4 -105 11 -105 16 0 5 -11 9 -25 9 -14 0
-25 -4 -25 -9 0 -6 -15 -12 -32 -14 -32 -4 -32 -4 5 -5 20 -1 37 -6 37 -12 0
-5 21 -10 48 -11 26 0 70 -4 97 -9 28 -5 88 -16 135 -24 47 -8 119 -22 160
-31 41 -8 93 -19 115 -24 72 -14 130 -35 149 -53 11 -10 29 -18 40 -18 22 0
74 -15 124 -36 18 -8 41 -14 51 -14 10 0 32 -7 47 -15 16 -8 37 -15 47 -15 10
0 16 -4 13 -9 -4 -5 -20 -6 -39 -1 -38 10 -132 32 -242 55 -44 10 -103 24
-132 31 -28 8 -65 14 -82 14 -17 0 -31 5 -31 10 0 6 -15 11 -32 11 l-33 1 30
7 30 7 -40 6 c-22 4 -74 11 -115 17 -159 21 -287 40 -335 50 -48 10 -137 24
-352 55 -54 8 -145 22 -203 31 -58 8 -122 15 -143 15 -21 0 -46 4 -56 10 -10
5 -69 12 -132 15 -329 15 -526 28 -589 38 -64 10 -243 28 -430 42 -113 9 -249
20 -303 25 -109 11 -151 11 -217 0z m-2280 -280 c107 -4 238 -14 290 -20 247
-28 428 -58 526 -86 28 -8 58 -14 66 -14 9 0 40 -7 69 -16 30 -8 79 -22 109
-31 30 -8 70 -21 88 -29 18 -8 37 -14 43 -14 6 0 25 -6 42 -14 18 -8 59 -24
92 -37 33 -13 62 -27 65 -31 3 -3 18 -10 33 -13 15 -4 27 -11 27 -15 0 -4 12
-11 27 -15 15 -3 30 -10 33 -13 3 -4 25 -17 50 -30 54 -27 56 -28 189 -117
120 -79 166 -112 195 -137 11 -10 38 -30 60 -45 23 -15 51 -38 63 -50 12 -13
25 -23 28 -23 3 0 16 -9 28 -21 12 -12 38 -33 57 -47 19 -15 49 -40 66 -57 17
-16 44 -41 61 -55 137 -113 680 -648 818 -805 39 -44 82 -92 98 -107 15 -15
27 -30 27 -32 0 -3 12 -18 28 -34 15 -15 45 -51 67 -80 21 -29 43 -52 47 -52
4 0 8 -7 8 -15 0 -8 4 -15 8 -15 5 0 28 -27 52 -60 24 -33 47 -60 52 -60 4 0
8 -7 8 -15 0 -8 4 -15 9 -15 5 0 13 -9 16 -21 4 -12 18 -37 31 -57 15 -21 20
-38 14 -42 -10 -6 -87 1 -210 20 -99 15 -240 36 -375 55 -182 26 -305 45 -395
60 -47 8 -137 21 -200 30 -63 9 -137 21 -165 25 -27 5 -67 12 -87 15 -33 5
-39 10 -48 43 -15 54 -13 62 15 62 44 0 229 -21 275 -31 25 -5 61 -11 80 -13
19 -1 71 -8 115 -15 161 -24 273 -40 390 -56 66 -9 158 -23 205 -31 47 -8 97
-14 111 -14 15 0 43 -7 62 -15 56 -23 61 -18 26 30 -18 25 -36 45 -41 45 -4 0
-8 5 -8 10 0 6 -10 21 -23 33 -12 12 -39 42 -59 67 -20 25 -50 60 -67 78 -17
18 -31 35 -31 38 0 3 -10 15 -23 27 -13 12 -66 69 -118 127 -162 179 -455 469
-683 675 -114 104 -101 92 -181 159 -38 32 -71 63 -73 67 -2 5 -8 9 -13 9 -6
0 -22 12 -37 26 -15 14 -44 37 -64 51 -21 14 -38 30 -38 34 0 5 -7 9 -15 9 -8
0 -15 3 -15 8 0 4 -20 20 -45 35 -25 16 -45 33 -45 38 0 5 -5 9 -10 9 -12 0
-73 41 -78 53 -2 4 -8 7 -13 7 -11 0 -72 42 -77 53 -2 4 -8 7 -14 7 -6 0 -29
12 -52 28 -23 15 -64 38 -91 52 -28 14 -52 28 -55 32 -3 3 -18 10 -33 13 -15
4 -27 11 -27 16 0 5 -7 9 -16 9 -9 0 -29 7 -45 15 -72 37 -86 43 -116 50 -18
3 -35 11 -38 16 -4 5 -16 9 -28 9 -13 0 -31 6 -42 14 -11 7 -33 16 -50 18 -16
3 -43 10 -60 16 -88 30 -318 82 -440 98 -16 3 -77 11 -135 19 -348 48 -940 62
-1275 30 -283 -28 -569 -73 -757 -120 -32 -8 -86 -22 -120 -31 -105 -26 -321
-92 -400 -123 -153 -59 -167 -65 -288 -119 -64 -29 -228 -109 -275 -136 -22
-12 -67 -37 -100 -55 -33 -19 -79 -47 -103 -62 -24 -16 -46 -29 -49 -29 -20 0
-462 -313 -489 -346 -6 -8 -14 -14 -18 -14 -3 0 -14 -8 -24 -17 -10 -10 -36
-34 -58 -54 -21 -20 -49 -48 -61 -62 l-21 -26 31 -5 c18 -3 39 -5 47 -4 45 2
357 -14 430 -23 47 -5 139 -14 205 -19 317 -24 494 -41 538 -50 26 -6 65 -10
85 -10 20 0 69 -6 107 -14 39 -8 133 -22 210 -31 77 -9 183 -23 235 -30 52 -8
147 -21 210 -30 238 -33 327 -46 385 -56 33 -5 92 -14 130 -18 121 -15 237
-32 318 -47 42 -8 92 -14 110 -14 17 0 48 -5 68 -10 20 -6 72 -14 115 -20 254
-29 334 -40 379 -49 52 -11 162 -27 280 -41 39 -5 93 -13 120 -19 70 -14 178
-32 255 -41 36 -5 90 -13 120 -18 30 -6 83 -14 118 -17 34 -4 65 -11 68 -16 3
-5 14 -9 24 -9 10 0 23 -6 27 -13 14 -23 94 -36 280 -47 98 -5 194 -14 213
-20 19 -5 48 -10 65 -10 35 0 70 -33 81 -75 l7 -28 -64 7 c-79 8 -332 46 -535
81 -50 8 -102 15 -115 15 -13 0 -62 6 -109 14 -47 9 -132 22 -190 31 -58 9
-142 23 -187 31 -45 7 -94 14 -108 14 -26 0 -56 5 -276 44 -48 9 -99 16 -114
16 -15 0 -65 7 -111 15 -46 8 -122 22 -168 30 -46 8 -96 15 -111 15 -15 0 -64
7 -109 15 -187 34 -256 45 -284 45 -17 0 -63 6 -103 14 -41 8 -128 22 -194 31
-66 9 -156 23 -200 30 -44 8 -100 16 -125 19 -25 2 -79 9 -120 16 -41 6 -118
18 -170 25 -52 8 -129 19 -170 25 -41 6 -113 15 -160 20 -47 5 -106 14 -130
19 -25 6 -63 11 -85 11 -21 0 -82 6 -135 14 -310 47 -943 104 -1278 115 -36 1
-37 27 -2 94 23 45 49 77 96 115 35 28 68 52 74 52 5 0 10 3 10 8 0 4 17 18
38 32 20 14 41 30 45 37 4 7 15 13 22 13 8 0 15 4 15 8 0 4 19 20 43 35 23 15
55 38 71 52 16 14 35 25 41 25 7 0 15 7 19 15 3 8 12 15 21 15 8 0 15 4 15 9
0 5 10 13 23 17 12 4 24 10 27 14 3 4 38 27 78 51 98 59 97 58 177 104 38 22
79 45 90 51 108 62 396 196 535 249 25 10 59 24 77 31 17 8 37 14 45 14 8 0
18 4 24 8 13 12 273 95 389 125 178 46 175 45 410 91 44 9 96 17 115 20 33 3
116 14 280 37 41 5 176 14 300 20 124 5 232 11 240 14 8 2 62 2 120 -1 58 -2
193 -9 300 -14z m2665 -1900 c-3 -5 -19 -10 -35 -10 -27 0 -48 -15 -37 -27 3
-2 24 -7 46 -10 33 -5 41 -3 41 10 0 23 51 48 73 36 25 -15 21 -66 -8 -105
-22 -29 -28 -32 -45 -22 -11 7 -22 25 -25 40 -6 25 -11 28 -46 28 -48 0 -55
-27 -9 -36 16 -4 27 -10 24 -15 -6 -10 -53 -1 -71 14 -18 14 -16 54 5 82 13
18 27 24 55 25 23 0 36 -4 32 -10z m-5665 -241 c25 -6 65 -14 90 -18 142 -25
241 -68 268 -116 9 -17 21 -33 26 -36 12 -9 -2 -29 -19 -29 -8 0 -18 6 -22 14
-4 7 -28 27 -53 44 -54 36 -139 52 -270 52 -108 0 -130 11 -130 67 0 31 2 33
33 33 17 -1 52 -5 77 -11z m8918 -95 c23 -8 50 -14 59 -14 9 0 39 -6 67 -14
28 -8 78 -21 111 -30 186 -46 255 -64 345 -90 30 -8 82 -23 115 -31 115 -31
187 -52 360 -105 55 -16 106 -30 112 -30 6 0 24 -7 39 -15 26 -13 27 -15 7
-15 -12 0 -37 6 -55 14 -33 14 -80 27 -168 48 -25 5 -49 14 -55 19 -5 5 -18 9
-29 9 -10 0 -44 7 -75 16 -31 8 -81 22 -111 30 -30 9 -75 21 -100 29 -25 7
-74 20 -110 29 -36 9 -86 23 -111 31 -26 8 -53 15 -62 15 -8 0 -37 7 -63 14
-51 16 -114 33 -224 61 -36 9 -87 23 -115 30 -27 8 -59 16 -70 19 -11 3 5 3
35 0 30 -3 74 -12 98 -20z m-9192 -74 c8 0 14 3 14 8 0 13 119 14 155 1 19 -7
35 -16 35 -20 0 -4 26 -10 58 -14 31 -3 71 -10 89 -16 38 -12 241 -27 283 -21
18 2 30 10 30 19 0 12 17 13 108 8 59 -4 109 -10 112 -14 3 -3 32 -7 65 -9 33
-2 125 -15 205 -29 80 -14 174 -29 210 -33 61 -7 354 -57 465 -79 28 -5 95
-17 150 -27 55 -9 130 -22 167 -30 37 -8 82 -14 100 -14 49 0 58 -15 58 -95
l0 -71 -67 8 c-38 4 -117 15 -178 23 -60 7 -171 21 -245 29 -74 9 -191 22
-260 31 -69 8 -138 15 -155 15 -16 0 -86 6 -155 14 -367 44 -450 50 -735 50
-254 1 -298 -1 -350 -17 -33 -10 -67 -23 -75 -28 -8 -5 -27 -14 -42 -20 -16
-6 -28 -15 -28 -20 0 -5 -7 -9 -15 -9 -8 0 -15 -4 -15 -9 0 -6 -13 -25 -30
-43 -16 -18 -30 -39 -30 -46 0 -11 -3 -11 -14 1 -8 7 -17 39 -21 70 -4 32 -11
57 -15 57 -4 0 -11 34 -15 75 -4 41 -11 75 -16 75 -5 0 -9 33 -9 74 0 66 3 77
22 90 12 9 41 16 65 16 23 0 45 5 49 12 6 9 9 9 12 0 2 -7 10 -12 18 -12z
m2854 -162 c257 -47 317 -67 368 -119 32 -33 43 -79 19 -79 -8 0 -27 11 -43
25 -71 62 -189 88 -378 83 -58 -1 -109 1 -112 5 -4 4 0 7 10 7 9 0 14 5 11 10
-9 14 -45 13 -45 -2 0 -6 -7 -3 -15 8 -15 20 -20 66 -8 78 8 8 110 0 193 -16z
m-430 -142 c30 -3 105 -15 165 -27 114 -22 164 -31 275 -48 101 -16 248 -41
325 -56 122 -24 188 -34 260 -41 39 -4 76 -11 83 -17 8 -6 12 -5 12 4 0 11 2
12 9 1 4 -8 30 -14 58 -16 27 -1 53 -5 59 -8 5 -3 32 -10 59 -16 46 -10 91
-18 320 -57 44 -8 109 -19 145 -26 36 -6 81 -13 100 -14 35 -3 114 -19 158
-31 14 -4 22 -2 22 6 0 6 8 9 18 6 29 -9 182 -37 257 -46 39 -5 120 -18 180
-30 61 -11 139 -25 175 -30 36 -5 81 -14 100 -20 19 -5 48 -10 65 -10 16 0 65
-8 108 -17 l77 -18 0 -45 0 -46 -52 7 c-29 4 -96 15 -148 23 -52 8 -131 20
-175 26 -44 7 -96 16 -115 21 -19 5 -69 14 -110 19 -126 16 -264 38 -280 44
-8 3 -51 10 -95 16 -128 15 -227 30 -277 41 -26 6 -80 15 -120 19 -40 5 -118
16 -173 25 -132 20 -280 41 -385 55 -47 6 -105 15 -130 20 -25 6 -81 14 -125
20 -95 11 -207 27 -290 41 -33 6 -94 14 -135 19 -170 20 -259 32 -333 46 -42
8 -95 14 -116 14 -65 0 -71 6 -71 67 0 59 13 95 33 88 6 -2 37 -6 67 -9z
m3188 -547 c2 -5 8 -9 13 -9 6 0 7 5 3 12 -5 8 3 9 32 4 21 -5 53 -10 69 -13
17 -3 38 -12 48 -21 11 -9 17 -11 17 -4 0 7 7 12 15 12 8 0 14 -3 14 -7 -3
-19 2 -27 10 -15 9 15 81 7 81 -9 0 -5 7 -6 15 -3 8 4 15 1 15 -5 0 -6 5 -11
11 -11 5 0 7 5 3 11 -10 16 57 0 79 -19 9 -8 20 -12 24 -9 3 4 12 2 20 -4 9
-9 13 -8 13 0 0 6 7 11 15 11 8 0 15 -5 15 -11 0 -5 4 -8 9 -4 5 3 16 -2 24
-10 9 -8 23 -12 32 -8 11 4 21 0 27 -10 5 -10 14 -17 21 -17 7 0 6 4 -3 10 -9
6 -10 10 -3 10 7 0 16 -6 20 -13 9 -15 53 -30 53 -17 0 4 11 5 25 2 14 -2 22
-8 19 -13 -3 -5 2 -9 10 -9 9 0 16 -4 16 -10 0 -11 47 -26 69 -21 7 1 10 -2 7
-8 -4 -5 3 -12 14 -16 11 -3 20 -10 20 -15 0 -5 14 -11 30 -15 17 -4 30 -10
30 -15 0 -5 14 -11 30 -15 17 -4 30 -10 30 -15 0 -10 57 -40 76 -40 7 0 14 -4
16 -10 2 -5 20 5 40 24 34 32 96 62 106 51 3 -2 12 0 21 5 10 5 53 12 96 15
l80 7 -39 -33 c-21 -19 -54 -49 -73 -66 -24 -23 -44 -33 -66 -33 -18 0 -45 -7
-61 -15 -15 -8 -36 -15 -45 -15 -30 0 -111 -34 -111 -47 0 -7 -4 -13 -9 -13
-9 0 -81 -107 -81 -121 0 -21 -19 -6 -37 29 -48 92 -66 122 -74 122 -5 0 -9 6
-9 13 -1 22 -105 121 -150 141 -8 3 -30 15 -49 26 -18 12 -61 30 -95 41 -33
11 -68 24 -77 29 -9 5 -34 12 -55 16 -22 3 -43 10 -49 14 -5 5 -32 11 -60 15
-27 4 -55 11 -60 15 -6 5 -39 12 -75 16 -36 3 -69 10 -75 14 -5 5 -41 11 -80
15 -104 10 -105 11 -105 55 0 21 6 41 13 44 17 7 91 -4 95 -15z m-6438 -134
c0 -89 -2 -104 -15 -99 -10 4 -15 21 -15 53 l-1 46 -17 -47 c-17 -49 -45 -88
-61 -88 -8 0 -31 105 -31 143 0 45 -77 -5 -144 -92 -38 -49 -77 -118 -116
-203 -15 -31 -7 -71 18 -96 48 -49 49 -113 1 -137 -38 -20 -52 -19 -77 8 -23
24 -24 16 24 172 21 65 100 229 128 262 106 128 177 172 294 182 9 1 12 -26
12 -104z m138 63 c23 -11 42 -24 42 -29 0 -5 4 -9 10 -9 5 0 32 -23 60 -50 27
-28 50 -55 50 -60 0 -6 4 -10 9 -10 15 0 141 -228 141 -256 0 -3 6 -20 13 -37
13 -30 33 -96 55 -177 8 -31 6 -38 -14 -53 -29 -22 -45 -21 -93 4 -66 34 -62
84 11 149 18 16 28 34 28 52 0 24 -83 213 -99 228 -3 3 -19 24 -34 46 -44 66
-116 136 -135 132 -18 -4 -29 -39 -31 -104 0 -24 -7 -44 -14 -47 -17 -6 -42
13 -50 38 -3 11 -12 37 -20 59 l-14 39 -8 -49 c-6 -39 -9 -45 -16 -29 -10 25
-12 179 -2 189 10 10 60 -2 111 -26z m10946 -53 c50 -8 132 -22 181 -30 50 -8
131 -21 180 -29 50 -8 137 -22 195 -31 58 -9 146 -22 195 -30 50 -8 135 -22
190 -30 55 -8 144 -22 198 -30 154 -24 283 -43 397 -59 58 -8 139 -20 180 -26
41 -6 113 -15 160 -20 47 -4 115 -14 153 -20 56 -10 67 -15 67 -32 0 -18 -5
-19 -77 -14 -87 7 -253 29 -384 51 -47 8 -98 15 -114 15 -16 0 -67 7 -114 15
-47 8 -133 21 -191 30 -171 26 -290 45 -376 60 -45 8 -94 15 -110 15 -16 0
-62 7 -104 14 -41 8 -120 22 -175 31 -55 9 -134 23 -175 31 -42 8 -87 14 -100
14 -14 0 -56 6 -95 14 -135 28 -243 46 -276 47 l-34 1 35 13 c47 18 84 18 194
0z m5421 -132 c17 -25 17 -27 0 -39 -9 -7 -47 -16 -83 -19 -37 -4 -99 -13
-139 -21 -40 -8 -94 -14 -120 -14 -26 0 -67 -5 -90 -10 -23 -5 -95 -14 -160
-20 -65 -5 -165 -14 -223 -19 -385 -37 -1285 -82 -1915 -97 l-230 -5 -34 29
-34 29 269 6 c376 8 806 25 1094 42 135 9 270 15 300 15 122 -1 1043 87 1090
104 8 3 47 10 85 15 39 5 86 14 105 19 56 16 67 14 85 -15z m-5640 -23 c4 -11
18 -28 31 -37 16 -10 24 -23 22 -37 -3 -20 -8 -21 -92 -19 -49 1 -94 7 -99 12
-18 18 5 31 56 32 l52 1 -45 10 c-53 12 -71 24 -63 44 4 10 23 14 68 14 55 0
65 -3 70 -20z m-1140 -127 c28 -31 65 -73 83 -93 17 -21 32 -42 32 -48 0 -6 4
-12 9 -14 12 -4 81 -96 81 -108 0 -6 5 -10 10 -10 6 0 10 -5 10 -10 0 -9 36
-66 50 -80 3 -3 11 -16 18 -30 7 -14 23 -43 37 -65 27 -45 34 -105 11 -105
-34 0 -82 37 -104 80 -6 14 -35 59 -62 100 -28 41 -53 83 -56 93 -4 9 -10 17
-14 17 -5 0 -21 20 -37 45 -15 25 -31 45 -35 45 -5 0 -8 5 -8 10 0 6 -8 18
-17 28 -10 11 -32 36 -50 58 -18 21 -46 54 -63 73 -16 18 -30 37 -30 40 0 16
26 31 55 31 24 0 40 -11 80 -57z m1609 41 c32 -31 40 -60 40 -136 0 -55 -5
-83 -16 -95 -8 -10 -18 -26 -21 -35 -8 -22 -27 -23 -74 -3 -19 8 -44 15 -54
15 -12 0 -21 10 -25 26 -10 38 3 203 16 219 10 13 37 19 97 23 12 1 29 -5 37
-14z m431 -10 c50 -5 75 -12 89 -26 18 -19 18 -20 -10 -50 -40 -42 -64 -54
-75 -37 -8 12 -10 12 -18 0 -9 -14 -59 -10 -133 11 -36 11 -38 13 -38 53 0 55
14 68 70 61 25 -3 77 -8 115 -12z m-9845 -49 c164 -20 334 -43 440 -60 47 -7
132 -21 190 -30 58 -9 139 -22 180 -30 41 -8 116 -22 165 -30 50 -9 118 -23
152 -31 34 -8 72 -14 83 -14 24 0 24 14 -2 -208 l-12 -104 -55 7 c-31 4 -61
11 -66 15 -6 5 -38 12 -73 16 -34 3 -65 10 -67 15 -3 4 -34 11 -70 14 -36 4
-68 11 -70 15 -3 5 -34 12 -70 15 -36 4 -65 11 -65 15 0 4 -30 12 -67 18 -90
15 -194 37 -213 45 -8 4 -40 11 -70 16 -92 17 -174 36 -185 42 -5 4 -35 10
-65 14 -30 4 -59 11 -65 15 -5 4 -37 13 -70 19 -33 5 -89 17 -125 26 -36 9
-90 22 -120 28 -30 7 -59 15 -65 18 -5 4 -24 10 -41 13 -17 4 -50 26 -73 50
-39 40 -41 43 -24 58 16 13 59 27 128 42 49 10 281 5 395 -9z m10541 -116 c13
-21 10 -122 -5 -141 -17 -24 -144 -37 -157 -17 -20 33 -5 165 20 173 33 10
133 0 142 -15z m-9194 -109 c95 -16 205 -40 214 -46 5 -3 30 -9 57 -14 52 -10
142 -31 242 -56 36 -9 88 -21 115 -28 28 -7 57 -15 65 -19 8 -3 35 -10 60 -16
25 -5 70 -17 100 -25 30 -8 75 -20 100 -26 25 -6 52 -15 60 -19 9 -5 31 -12
50 -15 19 -4 46 -11 60 -16 14 -4 59 -18 100 -30 41 -13 89 -29 107 -36 17 -8
43 -14 57 -14 14 0 26 -4 26 -10 0 -5 16 -12 37 -16 20 -4 48 -13 62 -20 14
-8 31 -14 37 -14 7 0 25 -7 40 -15 16 -8 37 -15 46 -15 9 0 19 -4 23 -9 3 -5
20 -13 37 -17 18 -3 39 -10 48 -15 36 -20 110 -49 124 -49 8 0 17 -4 20 -9 3
-5 18 -12 33 -16 15 -3 30 -10 33 -15 3 -4 50 -38 105 -75 55 -37 111 -77 125
-87 l25 -20 -50 7 c-27 3 -61 10 -75 15 -23 8 -48 13 -225 43 -38 7 -75 15
-80 19 -6 3 -43 10 -83 13 -39 4 -72 11 -72 15 0 5 -34 11 -75 15 -41 4 -75
11 -75 15 0 5 -34 11 -75 15 -41 4 -75 11 -75 16 0 4 -32 11 -70 15 -39 4 -73
10 -75 15 -3 4 -37 11 -75 15 -39 4 -73 10 -75 15 -3 4 -37 11 -75 15 -39 3
-70 10 -70 14 0 5 -32 11 -70 15 -39 4 -72 11 -75 15 -3 4 -36 11 -75 15 -38
4 -70 11 -70 15 0 4 -32 11 -70 15 -39 4 -72 11 -75 15 -3 5 -37 12 -75 16
-39 3 -70 10 -70 14 0 4 -30 11 -67 15 -36 4 -74 11 -82 16 -9 5 -45 13 -81
19 -36 6 -93 16 -128 22 l-64 12 6 65 c3 36 8 98 11 136 8 104 12 117 35 110
10 -3 41 -10 67 -15z m13859 -34 c3 -14 10 -26 15 -26 5 0 9 -6 9 -12 0 -7 6
-24 13 -38 7 -14 24 -54 37 -90 13 -36 30 -76 37 -90 7 -14 13 -33 13 -42 0
-9 4 -19 9 -23 5 -3 12 -19 16 -35 4 -17 10 -30 15 -30 5 0 11 -13 15 -30 4
-16 10 -30 15 -30 5 0 11 -13 15 -30 4 -16 10 -30 15 -30 5 0 11 -13 15 -30 4
-16 10 -30 15 -30 4 0 11 -12 15 -27 3 -15 11 -30 16 -34 5 -3 11 -18 12 -33
2 -25 -4 -30 -48 -47 -27 -11 -59 -23 -70 -28 -47 -19 -124 -40 -172 -45 -29
-4 -70 -13 -92 -21 -37 -13 -39 -12 -34 3 4 9 10 19 13 22 12 9 47 92 65 155
9 33 21 74 27 90 6 17 13 119 15 227 4 159 2 208 -10 250 -9 29 -19 66 -22 82
-5 25 -4 27 9 13 8 -8 18 -26 22 -41z m-8441 -218 c-8 -136 -14 -170 -28 -165
-14 4 -25 40 -26 89 -1 39 -21 65 -21 27 0 -12 -11 -42 -25 -68 -21 -38 -34
-49 -72 -63 -26 -9 -48 -16 -50 -15 -1 2 -10 49 -20 105 -16 95 -19 102 -40
102 -57 0 -220 -113 -300 -207 -26 -32 -51 -59 -55 -61 -5 -2 -8 -10 -8 -18 0
-8 -4 -14 -8 -14 -5 0 -14 -10 -20 -22 -7 -13 -23 -41 -37 -63 -13 -23 -24
-56 -25 -77 0 -30 8 -45 51 -89 42 -44 49 -56 44 -78 -11 -45 -38 -93 -54 -98
-9 -3 -26 -9 -38 -15 -21 -10 -60 5 -105 42 -19 15 -25 65 -9 75 5 3 13 20 17
37 3 18 10 39 15 48 4 8 30 61 58 118 48 97 112 192 173 256 15 17 28 33 28
38 0 4 5 8 10 8 6 0 21 10 33 23 29 31 140 107 155 107 7 0 12 4 12 9 0 5 10
11 23 14 12 3 54 17 92 31 52 18 92 25 153 25 l84 1 -7 -102z m180 71 c36 -10
120 -49 183 -84 56 -31 189 -144 240 -205 30 -36 59 -66 63 -68 5 -2 9 -10 9
-17 0 -7 4 -15 9 -17 5 -1 27 -32 50 -68 22 -36 44 -70 48 -75 9 -12 65 -125
86 -175 78 -182 94 -250 60 -250 -10 0 -31 -7 -47 -15 -15 -8 -34 -15 -41 -15
-15 0 -73 29 -90 45 -14 13 -55 109 -55 129 0 8 18 27 41 43 55 38 89 71 89
87 0 7 -11 33 -25 57 -14 24 -28 51 -32 59 -4 8 -20 34 -35 56 -15 23 -28 47
-28 53 0 6 -4 11 -10 11 -5 0 -16 12 -24 28 -8 15 -30 44 -50 65 -20 21 -36
40 -36 43 0 14 -131 127 -204 175 -57 38 -83 33 -91 -19 -10 -66 -28 -143 -35
-147 -11 -7 -100 40 -100 53 0 6 -4 12 -8 12 -4 0 -16 24 -26 54 -15 42 -17
68 -11 125 8 77 8 77 70 60z m-9338 -14 c8 -9 27 -39 42 -68 20 -40 36 -57 71
-74 25 -13 52 -23 61 -23 8 0 19 -4 25 -9 5 -4 43 -19 84 -32 41 -12 81 -27
88 -33 20 -15 123 -10 133 6 7 10 9 9 9 -4 0 -9 5 -18 12 -20 6 -2 8 -10 4
-16 -10 -17 -26 -15 -26 4 0 11 -8 14 -27 12 -24 -3 -29 -8 -31 -37 -6 -55 5
-81 33 -81 14 0 25 5 25 11 0 6 7 17 15 25 13 14 15 13 15 -4 0 -28 34 -62 62
-62 25 0 50 21 61 50 4 10 6 9 6 -6 1 -11 -8 -29 -19 -39 -24 -21 -27 -65 -5
-65 10 0 15 -10 15 -27 0 -22 2 -25 10 -13 5 8 10 26 11 40 2 25 4 11 29 -135
6 -38 18 -104 26 -145 8 -42 14 -89 14 -106 0 -17 9 -60 20 -94 25 -79 25
-106 -1 -57 -11 20 -22 37 -24 37 -3 0 -2 -28 0 -62 5 -54 4 -59 -6 -38 -13
27 -34 164 -49 325 -6 55 -15 108 -20 117 -6 10 -10 36 -10 58 0 29 -4 40 -15
40 -19 0 -19 -30 0 -185 8 -65 15 -147 15 -182 0 -65 14 -148 32 -197 10 -25
9 -31 -11 -48 -22 -17 -24 -17 -37 -1 -7 10 -14 25 -14 34 0 12 -8 14 -31 11
l-32 -5 7 69 c4 38 11 107 16 154 5 47 9 127 9 178 1 76 -2 94 -15 99 -13 5
-13 8 -2 15 10 8 10 9 -2 5 -8 -2 -14 -12 -14 -21 1 -9 -5 -16 -13 -16 -10 0
-14 -7 -10 -20 3 -12 1 -18 -5 -14 -7 5 -9 -4 -6 -24 3 -21 1 -29 -8 -25 -8 3
-15 -8 -20 -31 -3 -20 -10 -36 -14 -36 -5 0 -11 -13 -15 -30 -4 -16 -11 -30
-15 -30 -5 0 -12 -17 -16 -37 -4 -21 -10 -40 -15 -43 -4 -3 -11 -19 -14 -35
-7 -29 -7 -29 8 -10 9 11 17 25 17 30 0 6 9 28 20 50 11 22 19 48 20 58 0 9 4
17 9 17 5 0 14 17 20 38 l10 37 -6 -45 c-3 -25 -9 -47 -13 -50 -5 -3 -11 -26
-15 -53 -4 -26 -11 -50 -15 -52 -5 -3 -12 -31 -16 -63 -8 -73 -18 -92 -44 -85
-11 3 -20 9 -20 14 0 5 -7 9 -15 9 -8 0 -15 -7 -15 -16 0 -8 -6 -22 -14 -29
-11 -12 -18 -9 -44 18 -30 31 -31 33 -12 44 25 16 250 470 250 506 0 31 -15
28 -31 -6 -5 -12 -18 -35 -29 -52 -11 -16 -23 -37 -27 -45 -16 -31 -77 -135
-82 -140 -4 -3 -15 -23 -26 -45 -11 -22 -23 -42 -26 -45 -12 -9 -49 -89 -49
-105 0 -8 -4 -15 -9 -15 -5 0 -12 -8 -14 -17 -3 -11 -5 -8 -6 9 0 15 4 39 11
53 9 19 9 28 0 37 -9 9 -12 9 -12 0 0 -7 -9 -22 -20 -34 -40 -44 -22 14 30 94
28 43 50 82 50 88 0 5 4 10 8 10 5 0 14 10 21 23 6 12 20 36 31 52 11 17 23
37 27 45 4 8 19 33 35 54 15 21 28 45 28 53 0 7 4 13 9 13 5 0 15 16 21 35 14
43 35 59 28 21 -6 -28 6 -44 18 -25 5 8 9 7 15 -2 14 -24 23 40 9 67 -17 31
-21 30 -65 -8 -39 -35 -245 -300 -245 -317 0 -5 -3 -11 -7 -13 -17 -7 -53 -68
-53 -88 0 -12 -7 -28 -15 -36 -13 -14 -15 -14 -15 0 0 9 -6 16 -14 16 -30 0
-28 39 5 105 30 61 31 68 20 106 -15 49 -11 54 75 111 35 22 64 45 64 49 0 5
5 9 10 9 12 0 73 41 78 53 2 4 8 7 14 7 17 0 37 32 38 59 0 30 -35 61 -71 61
-15 0 -30 4 -34 9 -3 5 -30 13 -60 16 -31 4 -58 11 -60 15 -3 5 -30 12 -60 15
-31 4 -58 11 -60 16 -3 4 -26 11 -50 15 -25 3 -45 11 -45 16 0 6 -6 5 -15 -2
-13 -11 -15 0 -15 94 0 108 6 122 37 91z m625 -137 c14 -18 33 -56 42 -85 15
-46 21 -53 51 -59 33 -6 149 28 161 47 3 5 12 9 20 9 20 0 53 39 54 63 0 17
54 57 76 57 15 0 25 -152 15 -205 -5 -22 -9 -32 -10 -22 -1 13 -10 17 -38 17
-47 -1 -208 -18 -246 -26 -24 -6 -28 -3 -33 25 -4 20 -12 31 -23 31 -22 0 -41
19 -41 42 0 10 -6 18 -14 18 -8 0 -17 11 -20 25 -12 49 -28 27 -24 -34 3 -55
2 -58 -13 -45 -14 12 -15 21 -6 49 14 46 3 69 -29 62 -19 -3 -24 -1 -20 10 3
8 6 17 6 19 0 2 7 4 15 4 8 0 15 7 15 15 0 26 37 16 62 -17z m124 -368 c14
-47 31 -110 40 -140 25 -92 46 -164 56 -190 26 -63 26 -78 7 -99 -10 -11 -19
-26 -20 -33 -2 -27 -39 114 -73 277 -10 44 -24 103 -32 131 -8 28 -14 58 -14
67 0 9 -9 31 -20 49 -25 41 -25 47 0 41 14 -4 20 0 21 13 1 12 3 10 6 -6 2
-14 15 -63 29 -110z m15167 -77 c6 -9 0 -13 -22 -13 -27 0 -31 -4 -32 -27 0
-17 -3 -22 -6 -13 -3 8 -10 18 -15 21 -15 10 -152 -3 -160 -15 -5 -7 -8 -6 -8
3 0 11 -13 12 -67 6 -38 -4 -97 -9 -133 -10 -36 -2 -128 -8 -205 -15 -77 -6
-168 -9 -203 -6 -50 4 -64 2 -69 -9 -4 -12 -25 -15 -95 -15 -75 0 -93 -3 -104
-17 -13 -17 -13 -17 -14 1 0 17 -5 18 -52 12 -72 -10 -598 -7 -616 3 -18 10
167 20 493 26 235 5 305 10 305 22 0 2 -7 11 -15 20 -8 8 -12 19 -9 25 7 10
22 -4 42 -39 5 -7 24 -9 55 -6 37 4 47 10 47 24 0 10 5 21 10 24 6 3 10 -3 10
-14 0 -19 6 -21 60 -21 46 0 61 4 69 18 9 14 12 14 19 4 8 -11 27 -12 103 -3
52 6 168 18 259 26 91 9 176 19 190 22 14 4 35 5 48 4 36 -4 92 19 93 37 1 9
4 -1 8 -23 4 -22 10 -46 14 -52z m-14263 -19 c30 -8 66 -14 80 -14 21 0 28 -8
42 -46 l16 -46 -31 5 c-143 21 -198 30 -234 40 -39 10 -43 14 -43 43 0 17 3
34 7 37 8 9 91 -1 163 -19z m229 -28 c52 -13 114 -25 249 -46 29 -5 74 -13
100 -19 73 -15 299 -57 390 -71 29 -5 74 -13 100 -19 26 -5 88 -17 137 -26 50
-9 124 -22 165 -30 41 -8 118 -22 170 -31 52 -9 123 -22 157 -30 34 -8 72 -14
84 -14 11 0 53 -8 91 -17 l70 -17 -7 -34 c-13 -72 -26 -79 -112 -62 -26 5 -88
16 -138 25 -49 9 -124 22 -165 30 -41 7 -118 21 -170 30 -93 16 -169 30 -300
56 -36 7 -87 15 -115 19 -27 4 -77 13 -110 19 -150 29 -212 41 -240 45 -106
14 -255 52 -312 78 -70 32 -153 128 -111 128 6 0 37 -6 67 -14z m476 -46 c68
-13 205 -36 290 -49 39 -7 91 -16 117 -22 26 -6 71 -14 100 -19 82 -13 230
-40 478 -85 41 -8 116 -21 165 -29 50 -8 91 -15 93 -16 1 0 2 -5 2 -11 0 -11
-10 -10 -100 10 -25 6 -62 10 -82 11 -21 0 -38 4 -38 9 0 4 -35 13 -77 19
-124 18 -237 38 -253 44 -8 4 -49 12 -90 18 -41 6 -113 17 -160 26 -47 8 -121
22 -165 30 -44 8 -114 20 -155 27 -41 8 -82 16 -90 20 -8 3 -46 10 -85 15 -38
5 -54 10 -35 10 19 0 58 -4 85 -8z m-135 -190 c8 -4 42 -11 75 -15 33 -4 74
-13 90 -20 17 -8 55 -17 85 -21 30 -3 61 -10 70 -14 8 -5 47 -13 85 -18 39 -6
108 -18 155 -27 47 -8 110 -19 142 -24 31 -5 60 -11 66 -15 5 -3 38 -10 73
-16 35 -6 98 -17 139 -25 41 -9 109 -22 150 -29 189 -35 316 -61 407 -82 34
-8 75 -14 93 -14 17 0 39 -4 49 -9 9 -5 46 -14 82 -20 106 -17 182 -32 214
-41 17 -5 57 -14 90 -19 109 -18 180 -32 210 -41 17 -5 57 -14 90 -19 103 -17
179 -32 215 -43 19 -5 60 -13 90 -18 44 -7 37 -8 -35 -3 -49 3 -97 9 -105 13
-8 4 -46 11 -85 15 -38 3 -79 10 -90 15 -11 5 -54 14 -95 19 -41 6 -115 18
-165 26 -120 22 -245 42 -330 55 -38 6 -83 15 -100 20 -16 5 -61 12 -100 16
-38 4 -74 10 -80 14 -5 5 -46 11 -90 15 -44 4 -82 11 -85 15 -3 4 -41 12 -85
18 -189 27 -251 37 -261 44 -5 4 -45 10 -87 14 -43 4 -80 10 -82 15 -3 4 -41
11 -85 15 -44 3 -83 10 -85 15 -3 4 -41 11 -85 15 -44 3 -83 10 -85 14 -3 5
-40 12 -83 15 -42 4 -79 11 -82 15 -3 3 -40 12 -82 18 -199 30 -228 36 -228
43 0 5 -12 15 -27 23 -16 8 -41 26 -58 41 l-30 26 60 -7 c33 -3 67 -10 75 -14z
m1535 -61 c22 -5 67 -14 100 -19 33 -5 96 -16 140 -24 44 -8 121 -22 170 -31
50 -9 126 -23 170 -31 44 -9 114 -21 155 -27 41 -7 80 -15 85 -18 6 -4 42 -10
80 -14 39 -4 75 -10 80 -14 10 -6 83 -19 235 -42 41 -6 82 -14 91 -19 8 -4 47
-11 85 -15 38 -4 71 -11 74 -15 3 -4 41 -12 85 -18 l80 -10 -85 5 c-47 3 -87
9 -90 13 -3 4 -41 12 -85 18 -177 25 -231 34 -245 42 -9 4 -45 11 -80 14 -36
4 -76 11 -90 16 -14 6 -56 14 -95 20 -119 17 -229 36 -245 43 -8 3 -46 11 -85
16 -67 10 -142 23 -325 56 -47 9 -120 21 -162 28 -42 7 -80 15 -84 20 -4 4
-22 7 -41 7 -18 0 -33 4 -33 9 0 10 49 6 115 -10z m-3 -47 c37 -6 89 -15 115
-21 71 -16 162 -33 218 -41 58 -8 153 -26 245 -46 36 -8 75 -14 88 -14 13 0
51 -6 85 -14 71 -16 170 -35 242 -45 28 -5 79 -13 115 -20 36 -7 97 -19 135
-26 39 -7 97 -18 130 -25 33 -6 89 -15 125 -21 36 -5 78 -14 94 -19 16 -6 42
-10 58 -10 16 0 57 -6 91 -14 34 -8 103 -22 152 -31 50 -8 124 -22 165 -30 41
-8 116 -21 165 -30 50 -8 122 -22 160 -29 123 -25 188 -37 255 -47 36 -5 78
-14 94 -19 16 -6 40 -10 54 -10 39 0 142 -31 142 -43 0 -6 -11 -23 -25 -37
-24 -25 -29 -26 -78 -18 -122 20 -387 65 -497 84 -187 32 -249 43 -345 59 -55
9 -134 22 -175 30 -41 7 -120 21 -175 30 -55 9 -131 23 -170 30 -38 7 -115 21
-170 30 -94 15 -163 27 -315 56 -92 17 -225 39 -291 48 -31 5 -79 13 -105 19
-82 18 -166 33 -231 42 -34 4 -84 13 -110 18 -26 6 -93 18 -148 27 -55 10
-128 23 -162 31 -34 8 -75 14 -90 15 -15 0 -22 3 -15 6 6 2 12 10 12 18 0 7 7
29 16 50 14 34 18 37 47 32 18 -3 62 -10 99 -15z m4538 -44 c28 -16 47 -39 66
-77 30 -63 75 -107 116 -117 16 -3 41 -12 56 -20 15 -8 37 -14 49 -14 12 0 24
-4 28 -9 3 -6 26 -13 50 -17 25 -3 45 -10 45 -14 0 -4 20 -11 45 -14 24 -4 47
-11 50 -16 3 -4 23 -11 46 -15 22 -4 53 -13 67 -21 16 -8 59 -14 102 -15 41 0
68 -3 60 -6 -47 -19 -59 -94 -25 -147 26 -39 79 -37 100 4 8 16 15 39 16 52 1
18 3 16 9 -8 16 -69 75 -124 134 -124 26 0 42 8 68 35 18 20 36 43 40 53 5 14
7 13 7 -6 1 -34 28 -80 52 -87 13 -4 27 -1 40 11 25 22 27 124 3 148 -14 15
-14 16 0 16 9 0 16 -4 16 -10 0 -13 133 -13 146 0 5 5 62 10 127 12 l117 2 45
45 c25 24 45 49 45 54 0 6 11 25 24 42 19 24 36 34 67 39 24 4 48 11 55 17 8
7 15 -3 23 -33 14 -53 17 -125 11 -288 -3 -96 -5 -109 -7 -55 -6 107 -3 105
-212 105 -189 0 -398 -16 -418 -32 -7 -6 -13 -28 -13 -50 0 -39 21 -89 131
-312 21 -43 39 -85 39 -92 0 -8 4 -14 9 -14 5 0 12 -13 16 -30 4 -16 10 -30
15 -30 5 0 11 -13 15 -30 4 -16 11 -30 16 -30 5 0 9 -6 9 -13 0 -7 9 -29 20
-50 26 -47 25 -67 -2 -111 -25 -39 -48 -47 -48 -17 0 11 -11 41 -24 68 -13 26
-34 75 -45 108 -12 33 -25 69 -30 80 -5 11 -16 40 -26 65 -16 44 -26 66 -59
142 -9 20 -16 42 -16 50 -1 25 -65 136 -102 177 -43 46 -59 50 -89 20 -24 -24
-24 -84 1 -84 18 0 39 -32 40 -60 1 -17 3 -15 16 9 11 19 14 40 9 65 l-6 36
20 -37 c12 -21 21 -45 21 -53 0 -8 6 -29 14 -47 14 -35 24 -65 75 -238 17 -58
36 -118 42 -135 6 -16 15 -46 19 -65 15 -66 54 -161 78 -191 10 -13 10 -18 -1
-28 -12 -9 -18 -6 -31 13 -9 14 -16 30 -16 35 0 5 -9 12 -19 16 -10 3 -22 16
-26 28 -6 20 -8 20 -12 3 -3 -10 -1 -21 4 -25 13 -8 36 -118 28 -131 -9 -15
-34 18 -35 45 0 10 -6 37 -14 60 -8 22 -22 69 -31 105 -10 36 -23 85 -30 110
-8 25 -21 74 -30 110 -9 36 -20 72 -25 80 -4 9 -11 36 -15 60 -4 24 -17 65
-28 90 -11 25 -21 50 -21 55 -1 10 -9 15 -26 15 -13 0 -13 -45 1 -112 5 -29
17 -87 25 -128 9 -41 22 -108 30 -147 31 -156 47 -230 60 -272 8 -25 14 -54
14 -67 0 -12 7 -27 15 -34 24 -20 17 -35 -25 -54 -46 -20 -53 -18 -70 26 -8
18 -14 34 -15 36 -1 1 -21 -5 -45 -13 -52 -18 -58 -12 -50 52 5 43 8 48 38 55
30 8 32 11 32 57 0 26 -3 51 -7 55 -5 4 -13 55 -20 114 -34 299 -42 342 -65
342 -5 0 -6 5 -2 11 8 14 -13 28 -35 22 -15 -4 -91 -148 -91 -172 0 -6 -4 -11
-9 -11 -5 0 -12 -13 -16 -30 -4 -16 -10 -30 -15 -30 -5 0 -11 -13 -15 -30 -4
-16 -11 -30 -16 -30 -5 0 -9 -5 -9 -12 0 -7 -21 -55 -46 -108 -47 -99 -72
-153 -95 -207 -8 -18 -17 -33 -21 -33 -5 0 -8 -7 -8 -15 0 -12 -7 -11 -32 7
-18 13 -41 31 -53 41 -18 16 -18 20 -4 30 8 7 18 19 22 27 4 8 13 24 19 35 7
10 24 37 38 60 13 22 30 49 37 60 7 11 16 27 20 35 4 8 33 59 65 113 32 54 58
100 58 102 0 2 20 38 45 79 25 42 46 91 48 109 1 18 6 35 12 39 5 4 10 22 10
41 1 18 9 48 18 67 16 31 16 35 1 59 -10 14 -24 33 -33 42 -15 15 -18 14 -44
-7 -16 -13 -35 -24 -42 -24 -16 0 -107 -88 -190 -184 -33 -38 -67 -76 -76 -85
-8 -9 -46 -52 -84 -96 -38 -44 -72 -81 -77 -83 -4 -2 -8 -8 -8 -12 0 -5 -11
-21 -25 -36 -14 -15 -29 -40 -33 -55 -9 -36 -20 -28 -55 40 l-27 54 35 45 c24
31 33 51 28 62 -4 8 -8 41 -8 73 0 65 6 72 93 118 26 13 49 26 52 29 7 7 46
29 100 56 25 12 55 32 68 44 13 12 39 24 59 25 42 4 62 28 62 75 0 63 -20 76
-164 103 -33 7 -65 15 -71 19 -5 4 -35 10 -65 14 -30 4 -59 10 -64 15 -6 4
-35 11 -65 15 -30 4 -59 10 -65 14 -5 4 -34 11 -62 15 -29 4 -55 11 -58 15 -3
5 -26 12 -50 16 -25 3 -48 10 -51 15 -9 15 -54 10 -54 -6 0 -8 -4 -15 -9 -15
-5 0 -12 -8 -15 -17 -3 -10 -3 14 0 52 15 219 19 255 30 255 3 0 23 -10 44
-22z m9580 -88 c0 -9 -163 -110 -179 -110 -5 0 -22 -6 -38 -14 -71 -37 -144
-66 -213 -86 -41 -13 -95 -29 -120 -36 -72 -21 -149 -41 -235 -59 -44 -9 -106
-23 -137 -31 -32 -8 -69 -14 -83 -14 -14 0 -51 -6 -83 -14 -31 -8 -100 -21
-152 -30 -52 -8 -135 -22 -185 -30 -184 -31 -758 -86 -1105 -106 -85 -5 -213
-14 -285 -19 -204 -17 -520 -31 -905 -41 -195 -5 -452 -14 -571 -20 -119 -5
-400 -10 -625 -9 -347 1 -404 3 -379 14 35 15 380 31 983 45 216 5 397 12 402
15 5 3 152 10 326 15 174 5 385 14 468 19 147 10 346 23 671 41 88 5 194 14
235 19 41 6 136 15 210 21 297 23 357 29 405 39 28 5 86 15 130 21 82 11 202
30 335 55 146 27 182 34 214 44 17 5 51 12 76 15 25 4 59 11 75 15 17 5 55 16
85 25 30 8 78 22 105 30 28 8 59 16 70 19 11 3 57 19 103 35 54 20 94 29 115
26 25 -4 56 7 147 54 117 61 140 70 140 52z m-8556 -111 c-3 -5 2 -6 10 -3 11
4 16 0 16 -10 0 -9 4 -16 8 -16 27 0 77 -77 88 -137 5 -27 12 -33 33 -34 l26
-2 -27 -4 c-15 -2 -29 -12 -31 -21 -3 -10 -5 -6 -6 10 0 15 -5 30 -11 33 -5 3
-10 17 -10 31 0 14 -6 27 -14 30 -8 3 -17 12 -20 20 -3 8 -1 12 4 9 6 -3 7 1
4 10 -5 12 -9 13 -20 4 -11 -9 -18 -7 -34 11 -10 12 -24 19 -29 15 -17 -10
-14 -121 4 -139 24 -24 18 -27 -18 -9 l-33 17 14 54 c17 67 12 85 -21 73 -18
-7 -31 -5 -46 5 -19 14 -19 17 -6 30 26 27 63 41 94 36 17 -2 28 -8 25 -13z
m-2500 -320 c84 -15 198 -37 281 -54 39 -8 85 -17 102 -19 37 -6 166 -64 171
-77 2 -5 11 -9 20 -9 11 0 13 -3 5 -11 -7 -7 -31 -7 -79 1 -235 36 -354 56
-530 87 l-101 17 19 38 c22 42 25 43 112 27z m2254 -185 c-98 -145 -122 -178
-130 -182 -5 -2 -8 -8 -8 -12 0 -8 -108 -159 -140 -197 -5 -7 -10 -16 -10 -21
0 -5 -9 -17 -20 -27 -11 -10 -20 -22 -20 -27 0 -5 -6 -15 -12 -22 -7 -8 -24
-26 -37 -41 -18 -22 -25 -25 -32 -14 -13 20 -11 27 10 48 10 10 67 83 127 162
59 79 110 146 113 149 14 12 51 70 51 80 0 5 4 10 9 10 5 0 19 16 31 35 12 20
27 41 34 48 7 6 15 19 19 27 12 24 30 53 57 90 18 25 26 30 28 19 2 -9 -30
-66 -70 -125z m122 51 c0 -7 -3 -15 -7 -17 -5 -1 -26 -30 -48 -63 -22 -33 -43
-61 -47 -63 -5 -2 -8 -8 -8 -14 0 -6 -13 -27 -30 -48 -16 -21 -30 -42 -30 -48
0 -6 -3 -12 -7 -14 -20 -8 -250 -358 -258 -390 -4 -16 -13 -28 -21 -28 -19 0
-18 50 1 77 9 12 13 33 10 45 -7 30 42 89 56 67 7 -11 9 -11 9 4 0 9 9 25 20
34 11 10 20 23 20 30 0 7 3 13 8 13 4 0 18 17 32 38 14 20 29 42 35 48 5 6 16
20 23 30 29 43 112 160 122 172 8 9 7 12 -5 12 -15 0 -15 1 -1 16 9 8 16 22
16 30 0 8 5 14 10 14 6 0 10 6 10 13 0 7 7 22 15 33 12 16 16 17 24 5 7 -11
11 -10 22 7 14 22 29 20 29 -3z m8300 -265 c0 -13 -24 -24 -100 -44 -36 -9
-80 -22 -97 -27 -18 -6 -54 -14 -80 -19 -27 -5 -82 -17 -123 -25 -73 -16 -154
-32 -295 -60 -38 -7 -101 -18 -140 -25 -38 -6 -90 -15 -115 -21 -25 -5 -74
-13 -110 -18 -75 -11 -182 -26 -290 -42 -41 -6 -113 -15 -160 -19 -98 -10
-238 -25 -362 -41 -88 -11 -163 -18 -408 -39 -74 -6 -164 -15 -200 -21 -36 -5
-130 -14 -210 -20 -80 -5 -190 -14 -245 -19 -105 -9 -251 -12 -225 -3 8 2 24
8 35 13 29 13 144 29 275 40 63 5 149 14 190 19 41 6 134 15 205 21 294 23
372 31 418 40 26 6 69 10 95 10 26 0 99 6 162 14 163 21 281 35 385 46 50 5
113 13 140 19 48 10 125 22 268 41 37 5 82 13 100 19 30 9 73 17 235 41 35 5
68 12 74 16 6 4 46 13 87 20 42 8 108 21 146 29 39 9 93 20 122 25 28 4 57 11
64 16 6 4 37 10 68 14 83 11 91 11 91 0z"/>
<path d="M16397 6282 c-25 -28 -23 -116 3 -142 26 -26 36 -25 65 5 17 17 25
35 25 60 0 78 -53 122 -93 77z"/>
<path d="M6783 10153 c-4 -10 -13 -24 -20 -31 -7 -7 -13 -20 -13 -28 0 -8 -4
-14 -10 -14 -5 0 -10 -13 -10 -30 0 -16 5 -30 10 -30 6 0 10 9 10 20 0 21 33
60 51 60 5 0 7 5 4 10 -11 18 6 50 26 50 10 0 19 -4 19 -10 0 -5 10 -10 23
-10 12 0 29 -6 38 -13 20 -16 43 -120 35 -160 -8 -45 8 -67 22 -30 20 51 24
83 17 138 -5 44 -11 55 -28 61 -12 4 -24 10 -27 14 -3 4 -35 11 -73 14 -60 7
-68 6 -74 -11z"/>
<path d="M28748 2388 c0 -18 0 -43 1 -55 1 -16 -4 -23 -16 -23 -12 0 -14 3 -6
11 9 9 7 17 -8 32 -10 11 -22 17 -26 14 -3 -4 -1 -7 5 -7 7 0 12 -7 12 -15 0
-19 -9 -19 -31 1 -11 10 -25 14 -36 10 -11 -4 -13 -10 -7 -14 6 -4 13 -15 17
-24 6 -17 -16 -33 -40 -29 -7 1 -13 -5 -13 -14 0 -12 -14 -15 -79 -15 -54 0
-81 4 -84 13 -4 9 -7 9 -14 0 -5 -7 -40 -14 -83 -16 -41 -1 45 -4 193 -5 l267
-2 0 24 c0 13 -6 26 -12 29 -10 4 -10 7 0 18 14 16 16 39 2 39 -5 0 -10 -7
-10 -15 0 -9 -6 -12 -16 -8 -14 5 -15 8 -3 17 15 12 14 66 -2 66 -5 0 -10 -15
-11 -32z"/>
</g>
</svg>
