<?xml version="1.0" standalone="no"?>
<!DOCTYPE svg PUBLIC "-//W3C//DTD SVG 20010904//EN"
 "http://www.w3.org/TR/2001/REC-SVG-20010904/DTD/svg10.dtd">
<svg version="1.0" xmlns="http://www.w3.org/2000/svg"
 width="2880.000000pt" height="1725.000000pt" viewBox="0 0 2880.000000 1725.000000"
 preserveAspectRatio="xMidYMid meet">
<metadata>
Created by potrace 1.16, written by Peter Selinger 2001-2019
</metadata>
<g transform="translate(0.000000,1725.000000) scale(0.100000,-0.100000)"
fill="#000000" stroke="none">
<path d="M12230 11060 c-41 -4 -149 -13 -240 -19 -91 -6 -210 -16 -265 -21
-98 -10 -249 -24 -390 -34 -144 -11 -423 -37 -500 -47 -44 -5 -116 -12 -160
-15 -44 -3 -114 -10 -155 -16 -41 -5 -109 -12 -150 -15 -41 -2 -109 -9 -150
-14 -41 -5 -109 -12 -150 -15 -73 -5 -178 -17 -250 -27 -19 -3 -80 -8 -135
-11 -55 -4 -120 -11 -145 -16 -25 -5 -106 -14 -180 -20 -145 -12 -386 -36
-435 -44 -16 -3 -86 -8 -155 -12 -69 -4 -128 -11 -131 -16 -4 -6 -83 -10 -178
-11 -150 -2 -169 -4 -144 -15 25 -11 16 -12 -67 -8 -58 3 -87 1 -75 -4 17 -7
15 -9 -13 -9 -22 -1 -31 3 -26 10 3 6 -5 3 -20 -6 -21 -14 -37 -16 -79 -11
-59 8 -117 33 -117 50 0 16 35 44 65 52 27 7 34 24 10 24 -8 0 -15 -4 -15 -9
0 -5 -13 -12 -30 -16 -16 -4 -30 -11 -30 -17 0 -5 -7 -17 -16 -25 -20 -20 -11
-60 22 -90 25 -23 31 -43 14 -43 -5 0 -10 -11 -10 -25 0 -14 5 -25 10 -25 6 0
10 10 10 23 0 44 14 53 57 37 45 -17 237 -17 378 0 50 6 144 15 210 20 66 5
154 14 195 19 86 12 249 27 430 41 69 5 147 14 173 20 26 5 71 10 100 10 l52
0 -35 -17 c-31 -15 -71 -51 -106 -95 -7 -8 -15 -30 -18 -49 -6 -32 -5 -31 17
14 28 54 62 89 103 104 40 15 156 31 294 43 63 5 158 14 210 19 150 16 316 32
435 41 61 5 163 14 227 20 104 10 120 10 152 -5 20 -10 36 -24 36 -33 0 -8 2
-13 5 -10 4 3 3 17 -1 32 -5 20 -16 28 -53 39 l-46 13 125 13 c69 6 150 14
180 17 l55 6 -30 -17 c-31 -16 -85 -68 -85 -81 0 -4 10 2 23 13 32 30 82 53
114 53 15 0 89 7 163 15 132 14 369 34 660 55 80 6 168 13 197 15 98 9 187
-40 226 -126 26 -56 57 -152 57 -176 0 -12 4 -24 9 -28 5 -3 13 -30 16 -60 4
-31 11 -58 16 -60 4 -3 11 -27 15 -53 3 -26 10 -51 14 -57 5 -5 11 -28 15 -50
4 -22 14 -65 22 -95 31 -115 42 -157 58 -220 9 -36 23 -90 32 -120 8 -30 21
-77 28 -105 8 -27 21 -75 29 -105 8 -30 22 -84 31 -120 10 -36 23 -85 30 -110
7 -25 16 -61 20 -80 3 -19 10 -44 15 -55 11 -26 34 -171 32 -210 -5 -172 -40
-397 -64 -415 -3 -3 -10 -18 -13 -33 -6 -23 -4 -27 15 -27 16 0 20 -4 16 -16
-3 -9 -6 -22 -6 -30 0 -8 -9 -14 -20 -14 -14 0 -21 -9 -26 -36 -7 -39 10 -84
33 -84 8 0 13 -12 13 -30 0 -25 -4 -30 -25 -30 -28 0 -32 -9 -12 -28 9 -10 13
-119 17 -450 3 -298 9 -443 16 -456 9 -14 10 92 6 423 -4 372 -3 444 9 452 10
6 16 44 21 136 4 70 8 133 8 138 0 6 -4 33 -9 60 -7 37 -6 58 4 80 8 17 19 73
24 125 6 52 15 122 21 155 5 33 8 89 5 125 l-4 65 10 -50 c6 -27 14 -54 18
-60 5 -5 12 -30 16 -55 4 -24 11 -51 16 -60 9 -17 26 -82 42 -157 5 -29 14
-53 19 -53 4 0 8 -6 8 -14 0 -11 11 -13 53 -10 72 7 734 -18 1207 -46 102 -6
273 -15 380 -20 233 -10 498 -26 670 -41 69 -5 194 -14 278 -18 174 -9 201
-19 129 -50 -26 -11 -47 -24 -47 -29 0 -12 79 -42 109 -42 14 0 47 -7 75 -15
175 -49 228 -52 491 -24 153 17 187 32 153 68 -11 10 10 11 112 6 69 -4 141
-11 160 -16 19 -5 108 -12 198 -16 89 -3 160 -9 156 -12 -3 -3 -31 -9 -62 -12
-40 -4 -18 -7 78 -8 74 -1 207 -8 295 -16 91 -8 279 -15 435 -15 151 0 406 -4
565 -10 258 -8 1178 -14 1295 -8 39 2 193 -15 255 -28 11 -2 42 -8 69 -14 28
-6 52 -14 56 -19 3 -5 18 -13 33 -16 15 -4 27 -11 27 -16 0 -5 9 -1 20 8 11
10 20 21 20 26 0 5 -8 1 -17 -8 -15 -16 -17 -16 -29 -1 -6 9 -28 20 -48 23
-20 3 -36 9 -36 14 0 4 -14 10 -30 14 -20 4 -32 14 -36 30 -3 13 -12 26 -20
29 -8 3 -14 19 -14 36 0 16 -4 30 -10 30 -5 0 -10 11 -10 25 0 14 -6 28 -14
31 -8 3 -17 16 -20 30 -10 37 -38 64 -66 63 -15 0 -19 -3 -10 -6 26 -10 50
-36 50 -55 0 -10 -5 -18 -11 -18 -5 0 -7 -4 -4 -10 3 -5 15 -10 26 -10 14 0
19 -7 19 -25 0 -16 -6 -25 -15 -25 -8 0 -15 5 -15 10 0 6 -20 10 -45 10 -34 0
-47 5 -55 20 -8 16 -8 20 4 20 8 0 20 -8 25 -17 9 -16 10 -16 11 5 0 18 -5 22
-31 22 -17 0 -39 5 -49 10 -13 7 -21 7 -25 0 -4 -6 -10 -8 -15 -5 -13 8 -31
-21 -24 -39 9 -22 45 -36 95 -36 22 0 48 -5 58 -12 16 -10 17 -13 5 -26 -10
-10 -26 -12 -52 -8 -113 20 -108 20 -107 -11 0 -18 -5 -28 -15 -28 -8 0 -157
4 -330 8 -173 4 -633 12 -1022 17 -713 10 -923 18 -1165 45 -324 37 -570 63
-678 74 -63 6 -69 10 -177 114 -10 9 -28 17 -40 16 -22 -1 -22 -1 2 -9 30 -10
24 -11 -57 -14 -35 -2 -63 1 -63 6 0 4 -9 8 -20 8 -13 0 -18 -5 -14 -15 4 -10
20 -15 50 -15 34 0 44 -4 44 -16 0 -14 3 -14 15 -4 13 10 15 9 15 -11 0 -18 3
-20 12 -11 16 16 38 15 38 -1 0 -7 29 -21 64 -31 48 -13 66 -23 70 -39 3 -12
3 -24 0 -27 -3 -2 -57 -7 -120 -9 -97 -3 -115 -1 -120 13 -9 25 -60 21 -67 -5
-5 -19 -10 -20 -64 -14 -32 4 -83 13 -114 21 -31 8 -76 14 -100 14 -61 0 -76
11 -53 39 22 25 85 28 124 6 35 -20 146 -20 154 0 3 8 17 15 31 15 14 0 25 6
25 13 0 20 -22 37 -47 37 -13 0 -23 5 -23 11 0 6 9 8 22 4 17 -6 20 -4 15 9
-4 9 -2 16 3 16 5 0 7 7 4 15 -5 11 -21 15 -60 15 -59 0 -109 -19 -167 -64
l-38 -29 -112 6 c-62 3 -170 10 -242 16 -71 6 -238 18 -370 26 -132 8 -352 22
-490 30 -137 9 -286 15 -330 15 -44 0 -179 7 -300 15 -121 8 -267 15 -325 15
-58 0 -210 5 -337 12 -230 11 -233 12 -233 33 0 13 -7 42 -15 65 -8 23 -15 61
-15 84 0 23 -4 46 -9 52 -5 5 -14 29 -19 54 -6 25 -18 70 -26 100 -8 30 -20
75 -26 100 -6 25 -15 53 -20 62 -6 9 -13 36 -16 60 -4 24 -10 48 -15 53 -4 6
-11 31 -15 55 -4 25 -10 50 -14 55 -4 6 -11 30 -15 55 -4 25 -11 50 -15 55 -7
9 -14 33 -43 160 -7 28 -15 55 -19 61 -4 6 -10 31 -14 55 -4 24 -10 49 -14 54
-5 6 -13 33 -19 60 -14 70 -32 137 -41 156 -5 9 -12 38 -15 65 -4 27 -11 54
-15 59 -4 6 -13 33 -20 60 -6 28 -18 75 -25 105 -8 30 -21 81 -29 112 -7 31
-17 61 -20 67 -4 5 -11 46 -17 91 -19 158 22 210 169 210 113 0 564 -20 797
-36 121 -8 247 -14 280 -14 33 0 159 -7 280 -15 121 -9 319 -22 440 -31 941
-63 1596 -124 1655 -152 37 -18 100 -76 100 -92 0 -6 4 -10 9 -10 5 0 14 -12
20 -27 6 -16 20 -41 30 -58 11 -16 30 -50 43 -75 13 -25 26 -47 30 -50 4 -3
12 -17 18 -30 5 -14 24 -47 40 -75 17 -27 42 -75 57 -105 15 -30 30 -57 33
-60 3 -3 18 -27 32 -55 14 -27 35 -66 46 -85 12 -19 38 -69 59 -110 21 -41 40
-77 43 -80 3 -3 25 -43 49 -90 25 -47 59 -112 77 -145 18 -33 57 -107 86 -165
29 -58 56 -107 59 -110 4 -3 10 -16 14 -30 4 -14 11 -27 14 -30 16 -12 120
-234 114 -241 -5 -4 -98 -3 -208 1 -110 5 -230 9 -267 10 -59 0 -68 2 -68 19
0 15 -10 19 -52 25 -82 9 -98 8 -98 -10 0 -15 -22 -16 -230 -12 -156 3 -235 9
-242 16 -16 16 -98 16 -98 1 0 -8 -18 -10 -62 -5 -63 7 -480 28 -528 27 -86
-3 -326 2 -332 6 -4 2 1 14 12 25 11 12 20 26 20 30 0 10 49 87 67 106 11 11
13 11 13 0 0 -10 29 -13 132 -13 245 0 992 -25 1057 -36 50 -8 66 -7 72 3 6
10 22 10 81 0 71 -12 107 -30 81 -39 -7 -3 -13 -16 -13 -29 0 -16 -6 -24 -17
-25 -29 -2 68 -17 115 -18 35 -1 44 3 53 22 5 12 20 36 32 52 l22 30 103 -3
c65 -2 102 1 102 8 0 5 -19 10 -42 11 -44 1 -43 3 3 13 17 4 31 16 39 35 10
25 9 36 -10 77 -11 27 -24 51 -28 54 -4 3 -17 25 -29 50 -20 40 -23 42 -23 18
0 -15 -11 -40 -24 -55 l-24 -28 -151 -3 c-132 -2 -248 4 -446 24 -27 3 -59 9
-70 14 -11 5 -67 14 -125 20 -58 6 -139 15 -180 20 -127 15 -256 12 -274 -5
-17 -17 -76 -21 -76 -5 0 6 -6 10 -12 9 -7 -1 -55 -1 -106 0 -86 1 -94 3 -99
21 -3 12 -11 19 -17 17 -6 -3 -18 2 -27 9 -9 8 -40 17 -69 20 -29 3 -83 12
-119 19 l-66 13 106 1 c76 1 111 5 125 16 31 23 165 20 206 -5 34 -21 128 -29
128 -11 0 15 -82 81 -120 97 -64 28 -160 40 -233 30 -37 -4 -70 -7 -72 -4 -2
2 -9 42 -14 88 -13 100 -35 259 -50 350 -12 71 -14 192 -5 227 11 42 28 44
509 73 105 6 234 16 289 22 108 13 121 9 146 -38 8 -15 21 -34 28 -42 10 -11
12 -10 12 8 0 12 -7 28 -15 36 -8 9 -15 33 -15 54 0 21 7 45 15 54 16 16 19
45 7 61 -10 14 -73 35 -108 35 -16 0 -50 7 -76 14 -25 8 -48 13 -50 11 -2 -2
-9 5 -16 15 -12 19 -9 20 78 20 92 0 121 14 53 25 -45 7 -69 12 -148 30 -59
14 -58 14 80 11 77 -2 112 -1 78 1 -35 2 -63 8 -63 12 0 4 -66 11 -147 15 -82
3 -168 10 -193 16 -42 9 -165 18 -535 40 -82 5 -193 14 -245 19 -100 11 -344
27 -615 41 -88 4 -225 13 -305 19 -209 16 -561 33 -815 38 -197 5 -223 3 -252
-13 -37 -19 -47 -45 -41 -101 5 -36 10 -61 45 -198 56 -217 72 -277 131 -480
16 -55 37 -129 47 -165 9 -36 23 -80 31 -98 8 -18 14 -40 14 -50 0 -9 12 -48
26 -87 14 -38 29 -83 33 -100 5 -16 14 -43 21 -60 7 -16 19 -46 27 -65 26 -64
48 -102 61 -107 6 -3 12 -11 12 -19 0 -8 5 -14 11 -14 6 0 17 -6 25 -14 45
-46 214 -62 794 -76 206 -5 395 -12 420 -15 25 -2 137 -7 250 -10 208 -6 270
-11 270 -22 0 -16 -25 -73 -32 -73 -4 0 -8 -5 -8 -11 0 -5 4 -8 9 -5 5 3 25
-7 45 -23 l37 -30 -48 2 c-26 1 -66 0 -88 0 -22 -1 -166 0 -320 3 -154 2 -286
4 -292 4 -7 0 -13 6 -13 14 0 11 -19 15 -80 18 -68 3 -80 1 -80 -13 0 -13 -18
-17 -97 -23 -174 -13 -192 -24 -43 -25 74 -1 232 -3 350 -4 118 -2 170 -1 115
2 l-100 6 99 9 c66 6 143 5 225 -3 69 -6 209 -11 311 -11 102 0 277 -5 390
-11 113 -6 318 -14 455 -19 138 -5 351 -14 475 -20 124 -6 324 -13 445 -15
121 -2 270 -8 330 -14 61 -6 181 -11 268 -11 87 0 200 -5 250 -10 51 -6 173
-15 272 -20 310 -16 623 -44 810 -71 39 -6 113 -17 165 -24 52 -8 128 -19 169
-25 40 -6 76 -8 79 -5 3 3 -7 5 -21 5 -15 0 -27 4 -27 9 0 5 -34 12 -75 16
-41 4 -75 11 -75 15 0 4 -40 11 -90 15 -49 4 -90 11 -90 15 0 4 -48 11 -107
15 -60 4 -110 11 -113 15 -3 5 -65 12 -138 16 -72 4 -132 10 -132 14 0 5 -94
11 -210 15 -115 4 -210 11 -210 15 0 4 -94 11 -210 15 -169 6 -210 10 -210 21
0 8 -6 14 -12 14 -9 0 -9 3 1 9 12 7 14 33 13 118 -2 59 -7 110 -12 111 -6 2
-10 9 -10 16 0 16 -45 66 -60 66 -5 0 -10 -4 -10 -10 0 -5 6 -10 14 -10 20 0
56 -61 56 -94 0 -15 -5 -37 -11 -49 -9 -16 -9 -22 0 -25 6 -2 11 -12 11 -23 0
-14 -7 -19 -30 -19 -19 0 -30 5 -30 13 0 8 -12 32 -27 54 -39 55 -48 70 -83
137 -33 65 -36 82 -18 88 8 3 5 11 -10 23 -12 11 -22 25 -22 32 0 7 -4 13 -9
13 -5 0 -12 14 -16 30 -4 17 -10 30 -15 30 -5 0 -11 14 -15 30 -4 17 -10 30
-15 30 -5 0 -11 14 -15 30 -4 17 -11 30 -16 30 -5 0 -11 11 -15 25 -3 14 -10
25 -14 25 -5 0 -11 14 -15 30 -4 17 -10 30 -15 30 -5 0 -11 13 -15 29 -3 16
-13 32 -21 35 -8 3 -14 12 -14 21 0 8 -4 15 -9 15 -5 0 -12 11 -15 25 -4 14
-10 25 -15 25 -5 0 -12 14 -16 30 -4 17 -10 30 -15 30 -5 0 -11 14 -15 30 -4
17 -11 30 -16 30 -5 0 -9 7 -9 15 0 9 -6 18 -14 21 -8 3 -18 19 -21 35 -4 16
-10 29 -15 29 -5 0 -11 14 -15 30 -4 17 -11 30 -16 30 -5 0 -11 11 -15 25 -3
14 -10 25 -14 25 -5 0 -11 13 -15 29 -3 16 -13 32 -21 35 -8 3 -14 12 -14 21
0 8 -4 15 -9 15 -5 0 -12 14 -16 30 -4 17 -10 30 -15 30 -4 0 -11 11 -14 25
-4 14 -10 25 -15 25 -5 0 -12 13 -16 29 -3 16 -13 32 -21 35 -8 3 -14 16 -14
30 0 13 -7 26 -15 30 -8 3 -15 12 -15 21 0 8 -4 15 -9 15 -5 0 -12 14 -16 30
-4 17 -10 30 -15 30 -5 0 -11 14 -15 30 -4 17 -11 30 -16 30 -5 0 -11 11 -15
25 -3 14 -10 25 -14 25 -4 0 -10 9 -13 20 -3 11 -12 20 -21 20 -9 0 -16 4 -16
9 0 15 -74 19 -95 5 -15 -10 -40 -11 -105 -4 -47 5 -141 14 -210 19 -69 6
-154 15 -190 21 -67 10 -223 22 -510 40 -91 5 -187 14 -215 20 -27 5 -117 12
-200 15 -82 3 -181 10 -220 15 -74 10 -306 25 -615 40 -102 5 -228 13 -280 19
-262 29 -1190 50 -1380 31z"/>
<path d="M11910 10771 c-69 -3 -131 -10 -138 -14 -7 -5 -47 -11 -90 -14 -42
-2 -115 -9 -162 -14 -47 -6 -120 -14 -163 -19 -126 -13 -189 -54 -234 -151
-26 -55 -53 -173 -53 -230 0 -24 -7 -96 -15 -159 -8 -63 -21 -196 -29 -295 -9
-99 -23 -261 -31 -360 -27 -321 -19 -405 47 -467 39 -37 74 -42 272 -35 391
14 1099 27 1105 21 3 -3 -2 -11 -13 -18 -56 -33 -65 -50 -73 -137 -12 -125
-12 -125 54 -132 31 -3 61 -11 66 -16 20 -20 128 -13 177 10 25 12 56 27 68
33 32 15 47 45 70 148 17 71 20 113 17 221 -2 80 -10 151 -18 177 -9 25 -18
60 -22 78 -8 39 -78 112 -107 112 -10 0 -21 -7 -24 -15 -14 -35 -21 -9 -20 73
0 48 -5 110 -12 137 -7 28 -20 77 -28 110 -20 81 -48 183 -87 325 -15 52 -30
110 -64 245 -66 262 -89 322 -142 369 -18 16 -39 20 -124 22 -56 1 -158 -1
-227 -5z m469 -1161 c33 -10 76 -29 94 -42 60 -41 127 -105 127 -121 0 -9 5
-19 10 -22 13 -8 13 -66 -2 -122 l-11 -46 -226 8 c-124 3 -260 11 -301 16 -41
5 -157 12 -257 16 l-183 6 0 27 0 27 264 -3 c146 -1 268 -4 273 -7 4 -2 17 -1
28 4 13 5 -6 8 -55 9 -67 1 -72 3 -48 13 21 10 -15 13 -199 15 -238 2 -269 7
-238 42 8 9 15 26 15 37 0 60 107 109 290 134 41 6 98 14 125 18 98 16 229 12
294 -9z"/>
<path d="M10455 10639 c-365 -24 -434 -30 -475 -38 -25 -6 -93 -13 -152 -17
-60 -3 -108 -10 -108 -15 0 -5 -15 -9 -33 -9 -36 0 -104 -32 -127 -61 -40 -48
-50 -64 -50 -79 0 -9 -4 -20 -9 -26 -10 -11 -51 -207 -51 -247 0 -16 -6 -65
-14 -110 -16 -90 -43 -279 -50 -342 -8 -83 -27 -232 -37 -295 -6 -36 -13 -122
-16 -193 -5 -112 -4 -132 13 -164 46 -89 73 -98 272 -89 86 3 294 11 462 16
314 10 357 16 396 55 32 32 71 133 84 220 14 92 31 209 46 325 21 159 42 312
55 395 5 39 14 110 19 158 5 48 15 107 21 130 6 23 12 103 13 179 l1 136 -31
39 c-36 44 -43 45 -229 32z"/>
<path d="M8810 10505 c-266 -21 -412 -35 -485 -45 -38 -5 -96 -13 -127 -16
-42 -5 -66 -14 -92 -36 -20 -16 -36 -36 -36 -44 0 -8 -4 -14 -8 -14 -18 0
-112 -262 -112 -312 0 -11 -4 -27 -10 -37 -5 -10 -14 -43 -19 -72 -6 -30 -18
-83 -26 -119 -48 -192 -82 -354 -120 -575 -20 -113 -15 -250 10 -292 l18 -30
206 -5 c180 -5 506 3 712 16 140 9 170 30 203 141 30 99 35 118 41 160 4 22
13 72 21 110 36 182 58 296 68 360 6 39 15 75 19 82 4 7 10 43 13 80 3 37 10
77 14 88 18 39 57 262 66 372 9 97 -8 159 -50 184 -36 22 -74 22 -306 4z"/>
<path d="M7890 10370 c0 -16 -4 -30 -9 -30 -4 0 -11 -19 -14 -41 -3 -23 -10
-45 -15 -48 -6 -3 -13 -32 -17 -63 -4 -32 -11 -58 -16 -58 -4 0 -11 -31 -15
-70 -3 -38 -10 -70 -14 -70 -5 0 -11 -27 -15 -60 -4 -33 -11 -60 -15 -60 -5 0
-11 -34 -15 -75 -4 -41 -11 -75 -15 -75 -5 0 -12 -29 -15 -65 -4 -36 -11 -65
-16 -65 -4 0 -11 -31 -15 -70 -3 -38 -10 -70 -14 -70 -5 0 -11 -34 -15 -75 -4
-41 -11 -75 -15 -75 -4 0 -11 -33 -15 -72 -4 -40 -12 -76 -17 -79 -5 -3 -12
-64 -14 -135 -3 -70 -9 -131 -13 -134 -5 -3 -12 -44 -16 -92 -4 -49 -11 -88
-16 -88 -5 0 -9 -16 -9 -35 0 -42 17 -47 26 -7 3 15 10 43 15 62 5 19 9 49 9
67 0 18 7 66 17 108 13 60 20 75 34 75 24 0 39 29 39 74 0 19 4 37 9 40 5 3
12 34 16 68 3 35 10 72 15 83 5 11 14 47 19 80 6 33 17 92 25 130 8 39 21 104
29 145 17 86 33 153 53 224 8 26 14 57 14 67 0 11 7 47 16 82 8 34 22 87 29
117 8 30 21 82 29 116 20 77 20 120 1 128 -8 3 -15 1 -15 -4 0 -6 -7 -10 -15
-10 -12 0 -13 9 -8 45 3 25 3 45 -1 45 -3 0 -6 -13 -6 -30z"/>
<path d="M10762 9893 c-22 -188 -31 -256 -41 -318 -12 -73 -30 -211 -41 -320
-7 -77 -14 -129 -46 -370 -8 -60 -13 -132 -12 -160 1 -47 2 -48 5 -10 3 22 9
44 14 50 5 5 9 31 9 58 0 26 7 94 15 150 8 56 19 149 25 207 6 58 17 159 25
225 8 66 19 165 25 220 5 55 14 116 19 135 10 38 26 240 19 240 -2 0 -10 -48
-16 -107z"/>
<path d="M13046 8655 c4 -22 10 -42 14 -45 4 -3 11 -24 15 -47 4 -24 11 -43
15 -43 5 0 12 -20 16 -45 3 -25 10 -45 15 -45 4 0 11 -20 15 -45 3 -25 10 -45
14 -45 4 0 11 -16 14 -35 4 -19 13 -47 21 -62 8 -15 15 -36 15 -45 0 -9 5 -20
10 -23 6 -3 10 -14 10 -23 0 -9 7 -30 15 -45 8 -15 17 -43 21 -62 3 -19 10
-35 14 -35 4 0 11 -16 15 -36 3 -20 10 -44 15 -53 23 -41 50 -112 50 -130 0
-12 4 -21 9 -21 5 0 12 -14 16 -31 4 -17 13 -42 21 -57 16 -31 18 -58 5 -67
-6 -3 -26 -40 -46 -83 -20 -42 -43 -89 -51 -104 -7 -14 -14 -31 -14 -36 0 -6
-13 -40 -30 -75 -16 -36 -30 -72 -30 -80 0 -8 -7 -28 -15 -43 -8 -16 -15 -36
-15 -45 0 -9 -7 -30 -15 -47 -9 -17 -18 -55 -20 -84 l-4 -53 11 53 c6 28 14
52 19 52 4 0 10 18 14 40 4 22 11 42 16 46 5 3 9 13 9 22 0 9 6 29 14 43 7 14
16 42 20 62 4 21 11 37 16 37 4 0 11 14 15 31 4 17 13 42 21 57 8 15 14 33 14
40 0 6 5 12 10 12 6 0 10 7 10 15 0 8 9 32 20 52 11 21 20 43 20 50 0 6 3 13
8 15 7 3 52 82 52 92 0 2 -9 2 -20 -1 -13 -3 -20 0 -20 8 0 8 -6 26 -14 41 -8
15 -17 40 -21 57 -4 17 -11 31 -16 31 -5 0 -9 8 -9 18 0 9 -7 30 -15 45 -8 15
-17 43 -21 62 -3 19 -10 35 -15 35 -5 0 -9 8 -9 18 0 9 -7 30 -15 46 -8 15
-15 33 -15 40 0 6 -7 24 -15 39 -8 15 -17 43 -21 62 -3 19 -10 35 -15 35 -5 0
-9 10 -9 23 0 12 -7 35 -15 51 -8 15 -15 33 -15 38 0 6 -6 24 -14 41 -8 18
-35 95 -61 172 -50 149 -61 174 -49 110z"/>
<path d="M12145 8670 c-121 -3 -225 -8 -232 -13 -6 -4 -30 -8 -52 -9 -23 -1
-45 -6 -50 -12 -16 -20 -81 -149 -81 -161 0 -7 -7 -18 -15 -25 -8 -7 -17 -27
-21 -46 -3 -19 -9 -34 -13 -34 -9 0 -32 -110 -25 -121 6 -10 315 -12 363 -3
17 4 31 11 31 18 0 6 17 27 38 46 20 20 55 58 77 85 38 45 59 68 195 209 44
46 52 59 40 66 -8 5 -19 9 -25 8 -5 -1 -109 -5 -230 -8z"/>
<path d="M10578 8612 c-14 -32 -15 -39 -2 -48 23 -19 17 -53 -11 -60 -21 -5
-25 -12 -25 -44 0 -36 20 -70 41 -70 5 0 9 -11 9 -25 0 -19 -5 -25 -21 -25
-18 0 -20 -4 -13 -22 4 -13 9 -203 11 -423 3 -401 5 -451 23 -440 6 4 7 136 3
358 -5 311 -4 363 11 439 13 65 17 125 14 232 -3 158 -13 189 -40 128z"/>
<path d="M7530 8596 c0 -8 -6 -16 -12 -18 -10 -4 -14 -60 -17 -224 -1 -120 -6
-221 -11 -224 -4 -3 -9 -117 -11 -254 -3 -188 -1 -250 8 -253 9 -3 13 36 16
149 10 371 28 785 36 811 6 16 6 27 0 27 -5 0 -9 -6 -9 -14z"/>
<path d="M8645 8465 c-4 -69 -11 -125 -16 -125 -5 0 -9 -6 -9 -13 0 -8 -8 -21
-18 -30 -16 -14 -47 -17 -190 -20 -161 -2 -172 -1 -187 18 l-15 20 7 -20 c14
-40 32 -44 200 -45 167 0 209 7 220 37 4 10 11 21 16 24 13 9 23 279 10 279
-6 0 -14 -51 -18 -125z"/>
<path d="M9017 8570 c-5 -14 -11 -146 -14 -295 -5 -236 -4 -275 11 -309 9 -21
16 -46 16 -55 0 -9 7 -29 15 -45 8 -15 15 -37 15 -47 0 -11 3 -19 8 -19 4 0
21 -42 37 -92 16 -51 32 -95 36 -98 3 -3 9 -22 13 -42 4 -21 11 -38 16 -38 5
0 12 -16 16 -35 3 -19 10 -35 14 -35 4 0 11 -17 15 -37 4 -21 11 -40 16 -43 5
-4 11 -22 14 -40 3 -23 2 -28 -3 -15 -12 31 -33 77 -48 107 -8 14 -14 36 -14
47 0 12 -4 21 -10 21 -5 0 -10 6 -10 13 -1 6 -9 30 -20 52 -11 22 -19 46 -20
53 0 7 -4 20 -9 30 -41 77 -81 167 -81 183 0 11 -4 27 -9 37 -5 9 -23 48 -41
85 -18 38 -34 66 -38 63 -14 -15 -32 21 -32 65 0 32 -4 49 -12 50 -61 4 -1194
-3 -1265 -7 -83 -6 -92 -9 -95 -28 -2 -11 -2 -32 2 -45 l5 -23 303 1 c244 2
306 -1 322 -12 17 -12 -8 -15 -198 -20 -119 -4 -257 -7 -306 -7 -87 0 -88 0
-82 -22 3 -13 9 -60 12 -105 4 -46 10 -83 14 -83 16 0 18 -41 3 -56 -12 -11
-13 -18 -4 -27 6 -6 11 -18 11 -26 0 -11 -4 -10 -14 5 -14 18 -15 17 -14 -16
1 -46 16 -66 33 -44 18 25 35 8 35 -36 0 -57 -8 -70 -44 -70 -52 0 -74 -11
-83 -39 -12 -35 -6 -61 13 -54 8 3 14 -1 14 -10 0 -8 -6 -17 -14 -20 -10 -4
-14 -20 -13 -51 1 -26 -1 -47 -5 -49 -20 -7 -4 -87 18 -87 8 0 14 -7 14 -16 0
-24 -26 -44 -58 -44 -26 0 -31 5 -37 33 -4 17 -12 37 -17 44 -6 7 -8 74 -6
161 2 114 0 148 -9 145 -7 -3 -15 -15 -19 -26 -4 -12 -12 -25 -17 -29 -15 -10
-14 -221 1 -226 6 -2 14 -19 18 -38 3 -19 10 -34 15 -34 5 0 9 -9 9 -20 0 -17
-7 -20 -40 -20 -22 0 -40 -4 -40 -10 0 -5 -10 -10 -22 -10 -34 0 -68 -11 -68
-21 0 -12 27 -12 32 0 5 13 142 28 169 19 13 -5 52 -6 86 -2 50 5 63 3 64 -7
2 -31 -3 -78 -16 -144 -18 -93 -39 -344 -32 -394 7 -59 61 -165 107 -212 22
-23 40 -44 40 -46 0 -3 -17 -3 -37 0 -21 3 -30 3 -20 1 9 -3 17 -10 17 -15 0
-5 9 -9 20 -9 19 0 20 -7 20 -155 0 -85 4 -155 9 -155 4 0 11 -44 15 -97 4
-54 11 -100 15 -103 5 -3 12 -31 16 -62 4 -32 11 -58 15 -58 4 0 10 -19 13
-41 3 -23 10 -45 16 -48 5 -4 13 -25 17 -48 3 -23 13 -44 20 -47 8 -3 14 -17
14 -31 0 -14 4 -25 9 -25 5 0 12 -12 16 -27 3 -15 10 -30 15 -33 5 -3 11 -19
15 -35 5 -22 4 -26 -4 -15 -5 8 -13 11 -17 8 -4 -4 -15 -3 -25 3 -11 6 -19 6
-19 0 0 -11 -70 -9 -87 2 -17 11 -36 -1 -29 -19 6 -15 -24 -7 -37 10 -5 7 -11
5 -18 -6 -13 -23 -24 -23 -49 2 l-20 20 0 -20 c0 -24 -8 -25 -39 -4 -23 16
-23 16 -16 -7 3 -13 3 -19 -2 -13 -9 13 -55 13 -64 0 -11 -14 -29 3 -22 22 7
16 6 16 -10 0 -10 -9 -24 -15 -32 -12 -10 4 -15 0 -15 -12 0 -16 -2 -17 -10
-4 -9 13 -11 13 -20 0 -8 -13 -10 -12 -10 3 0 9 -4 17 -10 17 -5 0 -10 -8 -10
-17 0 -15 -2 -16 -10 -3 -8 12 -13 13 -30 3 -26 -17 -33 -16 -27 1 4 10 1 13
-8 10 -7 -3 -16 -12 -19 -20 -7 -19 -26 -18 -26 3 0 14 -2 14 -20 -2 -18 -16
-20 -16 -20 -2 0 22 -9 22 -25 0 -14 -18 -39 -8 -31 13 3 8 0 11 -9 8 -7 -3
-15 -14 -18 -26 -4 -15 -11 -18 -28 -13 -14 5 -25 2 -31 -6 -6 -9 -7 -4 -3 16
3 17 2 23 -2 15 -13 -30 -28 -38 -42 -23 -11 13 -15 13 -22 1 -7 -11 -11 -10
-20 2 -9 12 -10 10 -6 -8 5 -22 4 -23 -11 -9 -14 13 -20 13 -34 3 -29 -21 -22
-46 12 -46 17 0 30 -5 30 -12 0 -9 4 -8 10 2 8 12 12 12 18 2 8 -12 108 -24
185 -23 15 0 27 -4 27 -9 0 -6 -4 -10 -10 -10 -5 0 -10 -7 -10 -15 0 -24 17
-17 24 10 4 14 11 25 16 25 16 0 11 -19 -11 -43 -19 -21 -21 -21 -33 -4 -7 9
-16 17 -20 17 -11 0 -6 -28 7 -33 9 -4 9 -6 0 -6 -6 -1 -15 3 -18 9 -10 17
-25 11 -25 -10 0 -11 5 -20 10 -20 6 0 10 -7 10 -15 0 -8 -4 -15 -9 -15 -10 0
-21 34 -21 68 0 47 -19 19 -26 -38 -7 -64 -24 -82 -24 -26 0 19 6 36 13 39 6
2 8 8 4 13 -16 17 -27 -22 -23 -76 3 -30 5 -61 5 -67 1 -7 6 -13 11 -13 12 0
14 36 3 43 -5 2 -2 2 5 1 7 -2 12 8 12 26 0 17 5 30 10 30 6 0 10 -13 10 -30
0 -16 -5 -30 -12 -30 -6 0 -4 -8 6 -19 9 -10 16 -24 14 -31 -2 -7 4 -15 12
-17 10 -3 11 -2 3 4 -8 6 -3 18 18 41 24 27 29 29 29 13 0 -11 -7 -27 -16 -35
-8 -9 -12 -16 -7 -16 10 0 38 31 46 51 3 8 6 -1 6 -18 1 -18 5 -33 10 -33 5 0
12 -13 16 -30 4 -16 11 -30 16 -30 12 0 11 28 -1 32 -6 2 -12 17 -13 33 -2 25
2 30 23 31 14 1 34 -7 45 -19 18 -19 20 -20 23 -4 4 17 22 24 22 8 0 -5 3 -18
6 -28 5 -15 4 -15 -5 -3 -5 8 -14 11 -18 6 -4 -5 -2 -11 5 -13 6 -3 12 -10 12
-17 0 -6 9 -19 20 -29 24 -21 26 -11 3 15 -11 13 -14 22 -7 26 6 4 14 14 17
22 4 12 6 11 6 -2 1 -10 8 -18 16 -18 8 0 15 -7 15 -16 0 -8 6 -21 13 -28 10
-11 15 -10 25 1 7 7 20 13 28 13 14 0 14 -2 0 -16 -25 -25 -19 -30 7 -6 13 12
26 22 30 22 12 0 8 -38 -4 -42 -7 -2 -6 -8 4 -16 12 -11 15 -10 13 5 -2 32 30
26 47 -9 9 -18 17 -26 17 -17 0 27 25 42 39 25 7 -8 19 -12 27 -9 9 3 14 -1
14 -12 0 -15 1 -15 18 1 16 17 17 17 20 -4 4 -25 22 -30 22 -6 0 13 3 14 15 4
13 -11 13 -14 0 -27 -25 -25 -16 -28 10 -3 18 17 28 20 38 12 7 -6 23 -9 35
-5 21 5 32 -11 13 -19 -5 -1 -2 -10 7 -18 14 -13 15 -12 9 3 -5 15 0 16 50 12
57 -4 75 -16 66 -44 -4 -13 -3 -13 5 -2 5 7 32 14 62 16 44 1 54 -1 58 -17 5
-22 22 -24 22 -3 0 14 3 14 23 1 12 -7 38 -12 57 -11 19 2 41 -2 49 -8 11 -9
15 -9 18 0 3 8 12 9 26 4 12 -5 33 -8 47 -7 14 1 31 -2 38 -8 7 -5 48 -11 90
-13 114 -4 168 -9 178 -16 10 -6 92 -12 283 -22 51 -3 96 -7 100 -9 7 -5 64
-10 206 -21 43 -4 82 -8 86 -11 6 -3 124 -13 229 -18 19 -1 40 -5 45 -8 11 -7
111 -16 254 -23 51 -3 97 -8 102 -11 11 -6 55 -11 193 -19 55 -3 103 -8 108
-11 8 -5 86 -11 238 -18 31 -1 60 -5 65 -8 10 -5 137 -16 283 -23 40 -3 76 -6
81 -9 4 -3 52 -8 107 -11 104 -6 179 -13 229 -20 30 -4 101 -10 254 -20 46 -3
87 -7 90 -9 5 -4 91 -9 331 -22 41 -3 93 -6 115 -8 96 -9 261 -17 398 -20 81
-2 150 -6 153 -9 4 -3 28 -3 54 0 27 3 57 2 67 -2 10 -5 23 -7 28 -6 32 8 115
6 120 -3 3 -7 7 -7 11 2 3 6 10 9 15 6 6 -3 53 -6 105 -7 52 0 89 -4 82 -9 -9
-5 -10 -8 -1 -8 6 0 14 4 17 9 6 9 111 10 119 1 3 -3 46 -4 96 -3 79 1 89 -1
84 -15 -4 -14 -3 -14 5 -3 12 17 130 18 160 2 10 -5 24 -6 31 -2 7 5 25 6 39
4 15 -2 82 -4 149 -5 67 -1 117 -6 110 -10 -7 -5 -8 -8 -1 -8 6 0 14 3 18 8
11 11 90 9 99 -3 4 -7 10 -7 15 0 6 9 26 10 97 4 6 0 27 2 48 5 26 4 37 2 37
-7 0 -8 2 -9 8 -1 8 13 54 13 64 0 4 -6 13 -5 22 3 17 14 36 7 36 -15 0 -8 5
-14 10 -14 6 0 10 6 10 14 0 18 28 25 58 14 13 -4 28 -6 33 -2 5 3 9 -2 9 -10
0 -23 17 -20 23 4 7 26 24 26 32 0 3 -11 11 -20 16 -20 13 0 11 18 -3 23 -7 2
7 4 30 4 28 0 46 -5 49 -14 3 -7 10 -13 15 -13 6 0 5 6 -2 15 -11 13 -8 15 18
12 17 -2 39 -10 48 -18 15 -12 17 -12 12 1 -4 11 2 15 23 16 19 1 29 -5 32
-17 3 -11 11 -19 19 -19 10 0 11 2 0 9 -10 6 -10 10 3 21 12 10 15 10 15 -4 0
-9 5 -16 10 -16 6 0 10 6 10 13 0 17 64 15 86 -4 16 -12 17 -12 12 2 -5 13 -2
16 13 12 12 -3 18 -11 15 -19 -3 -8 0 -11 9 -8 8 3 16 13 18 22 4 15 5 15 6 0
1 -19 21 -25 21 -7 0 6 7 4 15 -5 16 -15 45 -12 45 5 0 13 -18 11 -23 -3 -4
-10 -6 -10 -6 -1 -2 22 22 26 36 7 12 -16 15 -17 23 -4 5 8 10 10 10 4 0 -22
30 -23 49 -3 19 21 42 19 40 -4 0 -9 -2 -9 -6 1 -5 14 -23 16 -23 3 0 -16 29
-20 44 -6 11 11 16 12 19 2 4 -9 8 -8 16 3 9 13 11 12 11 -3 0 -11 5 -17 13
-14 6 2 20 -3 30 -12 18 -15 18 -14 12 14 -5 23 -4 26 4 15 10 -13 12 -13 21
0 8 13 10 12 10 -2 0 -21 11 -23 28 -6 10 10 14 10 21 0 6 -11 11 -10 25 3 14
15 16 15 16 1 0 -19 11 -21 28 -4 13 13 22 6 36 -27 4 -9 21 8 29 30 3 6 17
-1 32 -15 16 -14 26 -19 23 -10 -4 12 4 15 41 14 55 0 80 -11 60 -26 -11 -8
-11 -9 1 -5 8 2 15 12 15 22 0 10 6 20 13 23 6 2 12 0 12 -5 0 -5 9 -9 20 -9
11 0 20 4 20 9 0 4 6 5 13 0 6 -4 20 -6 29 -5 13 2 16 -2 12 -15 -5 -14 -4
-15 4 -4 14 19 53 20 76 2 17 -14 19 -14 14 -1 -5 13 7 15 72 15 50 0 83 -5
93 -14 15 -11 17 -11 17 1 0 12 15 15 75 14 53 -1 75 -5 75 -13 0 -18 17 -16
24 2 8 21 22 19 48 -7 19 -19 21 -20 16 -2 -4 15 1 19 24 20 18 1 28 -4 28
-14 0 -12 3 -12 16 -1 21 17 54 19 54 2 0 -7 5 -13 10 -13 6 0 10 7 10 15 0
16 29 10 43 -9 5 -8 10 -7 16 3 7 11 9 11 14 0 5 -11 8 -10 17 3 15 25 30 22
30 -4 l0 -22 16 22 c15 22 17 22 35 6 16 -15 19 -15 19 -2 0 10 9 16 25 16 16
0 25 -6 25 -16 0 -13 2 -13 18 1 17 15 19 15 35 0 16 -16 17 -16 17 0 0 23 12
21 44 -4 15 -12 30 -19 33 -15 4 3 2 6 -4 6 -6 0 -13 6 -16 13 -6 17 26 16 47
-2 13 -11 16 -11 16 1 0 12 17 15 78 16 42 1 84 2 92 2 32 2 70 -7 86 -21 15
-12 17 -12 12 1 -4 11 2 15 28 15 21 0 34 -5 34 -12 0 -7 5 -13 10 -13 6 0 10
6 10 13 0 7 14 12 35 12 21 0 35 -5 35 -12 0 -7 5 -13 10 -13 6 0 10 6 10 13
0 7 9 13 20 13 11 0 20 -6 20 -13 0 -7 5 -13 10 -13 6 0 10 6 10 14 0 22 15
27 44 16 18 -6 26 -6 26 1 0 6 6 9 13 6 6 -2 11 -12 9 -22 -3 -17 -2 -17 13
-2 20 20 133 16 146 -5 7 -11 11 -11 18 1 5 8 14 10 21 6 7 -4 56 -9 109 -11
366 -11 525 -16 586 -20 59 -3 349 -15 380 -15 6 0 37 0 70 0 33 0 69 0 80 0
112 1 145 4 145 14 0 8 3 9 8 1 10 -14 82 -15 82 -1 0 9 2 9 8 1 9 -14 75 -14
84 0 5 7 8 7 8 1 0 -13 199 -13 219 0 8 4 17 2 22 -6 8 -12 10 -12 18 0 7 11
9 11 14 0 4 -10 8 -11 14 -3 14 19 43 25 43 9 0 -18 17 -20 23 -2 3 9 7 9 20
-2 15 -11 17 -11 17 1 0 10 10 15 29 14 21 -1 27 -5 23 -16 -5 -12 -3 -13 9
-4 22 17 58 24 53 10 -6 -16 23 -14 53 2 12 7 29 9 37 6 9 -4 23 -1 31 6 16
14 35 5 35 -16 0 -21 18 -17 25 6 8 27 25 26 25 -2 0 -20 1 -21 20 -3 11 10
20 24 20 32 0 25 18 13 25 -17 8 -35 21 -39 30 -10 8 27 23 25 28 -2 l4 -23 2
23 c1 30 19 28 27 -3 7 -27 24 -34 24 -10 0 8 -4 15 -10 15 -5 0 -2 9 7 20 10
11 22 20 28 20 5 0 4 -4 -4 -9 -11 -7 -9 -13 8 -30 11 -11 23 -21 26 -21 9 0
5 28 -5 33 -6 3 -5 4 2 2 7 -1 28 12 46 29 19 17 30 24 27 14 -4 -9 -13 -19
-21 -22 -8 -3 -14 -10 -14 -16 0 -16 27 -12 34 5 3 8 11 15 18 15 9 0 9 -3 -2
-10 -13 -9 -13 -11 0 -21 13 -9 13 -10 -2 -5 -12 3 -15 1 -11 -10 7 -20 21
-17 28 6 8 26 23 25 27 -2 2 -12 9 -23 16 -24 7 -1 8 0 2 3 -13 6 -13 73 0 73
6 0 10 -9 10 -19 0 -27 10 -51 22 -51 6 0 5 7 -2 16 -11 12 -10 18 5 32 10 9
15 11 11 4 -9 -14 40 -69 51 -59 3 4 2 7 -4 7 -25 0 -19 29 12 59 28 27 33 29
28 12 -4 -17 -2 -20 11 -15 9 3 16 10 16 16 0 5 7 3 15 -6 18 -18 19 -38 3
-54 -6 -6 -9 -15 -5 -19 12 -11 19 4 24 52 6 49 23 62 23 17 0 -15 9 -35 20
-45 11 -9 20 -12 20 -7 0 6 -7 13 -15 16 -22 9 -18 22 16 56 17 17 30 25 29
17 -5 -36 12 -56 23 -26 2 6 3 -1 1 -17 -3 -24 -2 -27 11 -16 8 7 16 27 16 44
2 30 2 30 6 4 2 -16 9 -28 14 -28 5 0 10 -10 10 -22 1 -21 2 -21 6 -3 3 11 10
23 16 27 6 4 8 10 4 15 -5 4 -12 2 -16 -5 -5 -8 -8 -1 -8 20 -1 18 2 26 5 18
8 -22 25 -31 34 -17 6 9 10 8 18 -3 8 -12 10 -11 10 8 0 12 5 22 10 22 6 0 10
-9 10 -20 0 -25 26 -16 33 11 3 10 11 19 19 18 10 0 10 -2 1 -6 -15 -6 -17
-33 -3 -33 16 0 12 -27 -5 -34 -8 -3 -15 -11 -15 -17 0 -7 8 -5 20 6 11 10 20
26 20 37 0 10 4 18 9 18 11 0 21 -25 21 -51 0 -10 5 -19 10 -19 6 0 10 9 10
19 0 11 -4 23 -10 26 -14 9 -13 34 3 49 10 10 17 8 39 -14 20 -21 24 -30 15
-39 -9 -9 -8 -14 3 -21 11 -7 12 -12 4 -17 -9 -6 -8 -12 2 -21 12 -11 13 -6 9
27 -4 31 -1 42 12 50 12 6 17 21 16 48 0 24 1 28 4 11 5 -32 33 -47 33 -18 0
11 5 20 10 20 6 0 10 -9 10 -20 0 -13 5 -18 15 -14 17 7 20 50 5 57 -6 3 -5 4
2 3 7 -1 14 -13 16 -25 3 -22 35 -61 49 -61 4 0 2 5 -4 11 -9 9 -8 15 2 26 8
7 11 21 8 30 -6 15 -5 16 9 3 9 -8 12 -16 7 -18 -13 -5 -11 -30 4 -36 8 -3 7
-8 -5 -16 -10 -6 -18 -16 -18 -22 0 -6 9 -3 20 7 13 12 18 25 14 40 -3 13 2
30 14 44 l18 24 -2 -39 c-2 -22 0 -29 2 -16 3 12 10 22 15 22 18 0 21 -29 5
-61 -18 -37 -19 -39 -8 -39 4 0 15 19 26 41 15 34 16 43 5 50 -7 4 -10 12 -5
16 5 4 11 2 13 -5 3 -7 10 -18 17 -25 7 -7 16 -25 20 -40 3 -15 12 -27 18 -27
9 0 9 3 0 12 -14 14 -16 48 -3 48 5 0 12 14 16 30 4 17 10 30 15 30 4 0 10 9
13 20 3 11 11 20 19 19 10 0 10 -2 1 -6 -18 -7 -16 -30 3 -37 9 -3 14 -13 11
-20 -5 -14 34 -66 49 -66 4 0 -1 9 -12 21 -18 20 -18 22 -1 34 9 6 17 21 17
32 0 12 9 31 19 44 l20 24 -6 -22 c-3 -13 -9 -23 -14 -23 -5 0 -9 -7 -9 -15 0
-33 41 -1 54 42 4 13 11 23 16 23 12 0 23 -37 15 -50 -7 -12 3 -50 13 -50 8 0
35 51 46 84 4 11 12 16 21 12 10 -4 15 1 15 14 0 27 18 25 22 -2 4 -25 28 -37
28 -14 0 9 -6 16 -12 16 -10 0 -10 2 -2 8 7 4 14 18 17 32 3 14 3 -11 1 -54
-3 -69 -2 -76 11 -60 8 12 10 21 3 25 -7 4 -6 9 1 13 6 4 11 15 11 25 0 10 7
24 15 31 12 10 15 10 15 0 0 -10 3 -10 15 0 10 9 15 9 15 1 0 -6 -4 -11 -10
-11 -5 0 -10 -7 -10 -15 0 -8 5 -15 11 -15 8 0 8 -5 -1 -15 -9 -10 -9 -15 -1
-15 11 0 15 13 12 38 -1 8 5 23 15 33 9 11 14 22 10 26 -4 4 -11 1 -15 -6 -7
-11 -11 -10 -22 2 -11 12 -15 12 -27 0 -12 -12 -16 -11 -27 3 -9 12 -29 18
-73 20 -33 1 -66 5 -72 9 -6 4 -18 1 -27 -7 -10 -8 -14 -8 -10 -1 4 6 2 15 -4
19 -10 6 -132 17 -189 16 -14 0 -28 5 -32 11 -4 7 -11 7 -20 1 -15 -11 -38
-12 -54 -2 -6 4 -40 8 -75 9 -51 2 -67 6 -81 23 l-17 21 6 -23 c4 -17 2 -21
-10 -16 -8 3 -17 15 -20 26 -4 13 -11 19 -20 15 -8 -3 -18 -2 -23 3 -14 13
-268 53 -351 54 -18 1 -33 4 -33 8 0 4 -8 7 -17 7 -10 -1 -38 2 -63 6 -25 4
-69 8 -98 8 -34 1 -56 7 -63 17 -8 11 -12 12 -15 3 -4 -8 -13 -9 -30 -3 -13 5
-31 7 -39 4 -8 -4 -22 0 -31 7 -13 10 -17 10 -24 0 -6 -10 -12 -9 -29 8 -24
24 -40 29 -22 7 10 -12 5 -14 -29 -13 -24 1 -45 8 -50 17 -9 13 -11 13 -20 0
-8 -12 -14 -10 -39 14 -16 15 -31 27 -33 25 -1 -1 -25 5 -53 14 -27 9 -77 17
-110 18 -33 1 -65 6 -70 10 -6 4 -44 11 -85 14 -82 7 -99 9 -210 26 -72 10
-102 19 -67 19 10 0 17 4 17 9 0 5 13 12 29 16 16 3 32 13 35 21 3 8 12 14 21
14 8 0 15 4 15 9 0 5 9 13 20 16 26 8 207 189 215 214 3 11 12 22 20 25 8 3
15 12 15 21 0 8 4 15 10 15 5 0 12 11 16 25 3 14 10 25 14 25 5 0 11 13 15 29
3 16 13 32 21 35 8 3 14 12 14 21 0 8 4 15 9 15 5 0 11 18 15 40 3 22 10 40
16 40 5 0 12 16 16 35 3 19 10 35 14 35 5 0 12 25 15 55 4 30 11 55 15 55 5 0
12 29 15 65 4 36 11 65 16 65 5 0 9 17 9 39 0 37 1 39 41 44 22 3 44 8 47 12
4 4 8 50 9 102 l1 95 -50 -6 c-27 -4 -57 -11 -66 -16 -55 -29 -132 -37 -237
-25 -50 6 -50 5 -108 -50 -31 -30 -62 -55 -67 -55 -6 0 -10 -4 -10 -9 0 -11
-13 -18 -122 -72 -85 -43 -146 -59 -220 -59 -29 0 -69 -5 -88 -10 -119 -32
-154 -38 -190 -33 -33 5 -38 8 -29 19 6 8 16 14 21 14 11 0 73 45 108 78 22
21 17 20 -35 -8 -77 -42 -121 -53 -225 -55 -49 0 -109 -8 -141 -18 -63 -20
-137 -12 -130 14 2 8 6 22 8 32 7 22 -30 23 -82 2 -23 -10 -41 -13 -48 -7 -23
18 -136 25 -160 10 -22 -14 -34 -14 -98 -3 -37 7 -38 7 -169 -61 -14 -7 -38
-16 -55 -20 -27 -6 -25 -3 22 34 64 51 69 60 49 80 -23 23 -196 31 -196 9 0
-21 -22 -27 -107 -27 -67 0 -80 -3 -120 -30 -24 -16 -48 -30 -54 -30 -5 0 -9
-4 -9 -9 0 -5 -13 -14 -30 -21 -16 -7 -30 -15 -30 -19 0 -4 -13 -12 -30 -18
-25 -9 -30 -9 -30 3 0 8 4 14 8 14 5 0 14 10 19 23 12 23 54 75 114 138 l36
38 204 11 c112 6 294 15 404 20 110 5 220 11 245 15 25 3 128 11 230 16 102 5
217 12 257 15 70 6 71 6 52 25 -10 10 -23 19 -29 19 -5 0 -10 7 -10 15 0 8 -7
15 -15 15 -8 0 -12 6 -9 14 3 9 -3 17 -15 21 -12 3 -21 10 -21 16 0 10 -295 5
-670 -11 -129 -6 -273 -11 -320 -13 -47 -2 -94 -8 -105 -14 -11 -6 -42 -21
-70 -33 -27 -13 -64 -33 -82 -46 -17 -13 -36 -24 -42 -24 -5 0 -17 -7 -26 -16
-24 -24 -128 -27 -610 -15 -429 10 -668 23 -757 41 -34 7 -77 5 -150 -6 -106
-16 -147 -14 -174 8 -44 35 -144 142 -144 153 0 7 -42 68 -52 75 -3 3 -10 18
-13 33 -4 15 -11 27 -16 27 -5 0 -9 4 -9 10 0 18 -44 110 -52 110 -4 0 -8 7
-8 15 0 8 -13 41 -29 72 -16 32 -42 87 -59 123 -16 36 -52 113 -81 171 -28 58
-51 111 -51 117 0 7 -4 12 -9 12 -5 0 -12 14 -16 30 -4 17 -10 30 -15 30 -5 0
-11 14 -15 30 -4 17 -11 30 -16 30 -5 0 -9 14 -9 30 0 30 0 30 59 30 33 0 63
-5 66 -10 4 -7 79 -10 198 -10 106 0 296 -4 422 -8 219 -8 232 -10 280 -34 28
-14 78 -29 114 -33 36 -4 274 -4 530 1 528 10 508 18 -73 29 -214 5 -381 11
-370 15 29 10 1076 -9 1096 -20 10 -6 40 -10 67 -10 28 0 53 -4 56 -10 7 -12
10 -11 -78 -15 -37 -2 -73 -7 -80 -13 -7 -5 -124 -12 -262 -16 -137 -3 -281
-7 -320 -8 -83 -2 38 -9 450 -27 264 -11 288 -14 420 -55 37 -12 40 -15 37
-44 -3 -27 1 -34 24 -42 30 -12 59 -6 49 10 -10 16 41 30 109 30 l63 0 6 41
c3 22 7 43 10 45 3 3 103 7 223 10 221 4 690 17 1124 31 322 10 362 9 464 -14
90 -20 116 -37 116 -75 0 -32 54 -46 140 -38 l75 7 -63 2 c-55 1 -63 3 -60 19
3 14 15 17 76 17 l72 0 0 93 c0 73 3 92 14 92 8 0 16 -4 18 -9 2 -4 21 -11 43
-14 22 -3 32 -3 23 -1 -10 3 -18 9 -18 13 0 5 -18 11 -39 15 -42 6 -51 19 -51
71 0 35 21 65 46 65 8 0 14 5 14 10 0 6 7 10 15 10 9 0 18 7 21 15 4 8 12 15
19 15 6 0 25 12 41 27 25 23 29 35 32 95 3 37 8 68 13 68 5 0 9 65 9 145 0 81
-4 145 -9 145 -5 0 -11 119 -13 280 -2 192 -7 283 -14 288 -6 4 -15 18 -19 32
-11 36 -31 51 -75 57 -22 3 -40 10 -40 14 0 5 -20 9 -45 9 -53 0 -59 -12 -12
-25 29 -9 32 -13 29 -45 -2 -19 -10 -46 -17 -60 -7 -14 -22 -47 -33 -75 -17
-42 -26 -51 -52 -56 -50 -11 -61 -29 -17 -29 52 0 45 -38 -10 -52 -19 -5 -23
-2 -23 18 0 20 -5 24 -30 24 -29 0 -30 -1 -30 -49 0 -28 4 -52 9 -55 5 -3 12
-63 16 -133 4 -71 11 -132 15 -138 5 -5 11 -80 15 -165 4 -85 11 -162 15 -170
4 -8 10 -116 13 -240 5 -199 4 -220 -8 -185 -7 22 -14 72 -14 111 l-1 71 -82
12 c-108 15 -192 16 -303 3 -49 -6 -256 -11 -460 -12 -203 -1 -557 -5 -785 -9
-228 -4 -418 -5 -422 -2 -3 3 -8 17 -10 31 l-3 25 275 5 275 5 -276 3 -277 2
-6 23 c-3 12 -3 33 1 45 5 21 10 22 112 21 l106 -2 -89 -8 c-150 -15 -111 -21
89 -15 105 3 388 8 630 11 406 5 575 15 575 34 0 5 46 11 103 14 58 3 118 12
139 21 39 17 78 63 78 93 0 11 7 28 15 39 13 18 14 17 15 -16 0 -63 -70 -140
-129 -140 -11 0 -23 -4 -26 -10 -3 -5 -32 -11 -63 -12 -31 -1 62 -5 208 -8
146 -3 272 -8 280 -10 10 -3 14 1 13 15 -1 11 -7 76 -12 145 -15 182 -29 318
-47 466 -15 125 -17 130 -43 141 -18 7 -298 11 -876 12 -467 0 -929 4 -1026 7
-134 5 -178 4 -184 -6 -4 -6 -3 -16 2 -21 14 -14 595 -24 621 -10 18 10 21 9
16 -4 -4 -8 -18 -18 -32 -22 -14 -3 -155 -3 -314 1 l-288 6 6 -47 c3 -27 12
-78 20 -115 8 -37 14 -82 15 -100 0 -18 3 -27 6 -20 5 13 242 16 391 4 45 -4
89 -4 97 1 17 9 20 53 5 62 -6 3 -117 9 -248 11 -140 3 -241 9 -247 15 -7 7
78 10 262 8 257 -3 272 -4 277 -22 3 -11 -1 -36 -7 -56 l-12 -36 -259 -3 -258
-2 6 -25 c3 -13 9 -53 12 -87 4 -35 12 -69 18 -77 5 -7 9 -28 7 -47 l-3 -34
246 -2 c135 -1 254 -2 263 -2 24 -1 25 15 4 43 -18 24 -21 24 -255 31 -130 4
-239 10 -243 13 -3 4 96 7 220 7 145 0 227 -4 227 -10 0 -5 8 -10 19 -10 10 0
30 -9 44 -20 14 -11 30 -20 36 -20 6 0 11 -7 11 -15 0 -8 -4 -15 -10 -15 -5 0
-10 -7 -10 -17 0 -15 -19 -16 -217 -9 -120 3 -241 9 -270 13 l-53 6 0 -42 c0
-37 -2 -41 -24 -41 -19 0 -26 -7 -30 -30 -3 -16 -9 -43 -12 -60 -3 -16 -10
-30 -15 -30 -5 0 -10 -48 -10 -107 l-1 -108 -12 65 c-8 43 -14 59 -18 48 -6
-15 -21 -18 -97 -18 -55 0 -92 4 -97 11 -4 7 -21 9 -43 5 -50 -8 -347 12 -806
55 -60 5 -170 12 -245 15 -142 6 -209 21 -270 59 -45 29 -90 71 -90 85 0 5 -4
10 -8 10 -10 0 -56 109 -49 116 3 3 45 -33 93 -80 48 -48 89 -84 92 -82 2 3
-10 21 -28 40 -19 19 -40 53 -47 76 -14 40 -13 42 12 62 l27 21 -7 216 c-4
119 -10 254 -14 301 -6 67 -4 90 8 111 15 26 16 27 118 23 68 -2 105 0 109 8
4 6 3 8 -4 4 -5 -3 -12 -1 -14 5 -2 7 -35 22 -73 35 -39 13 -62 23 -52 24 9 0
17 5 17 11 0 16 195 8 212 -9 10 -10 8 -14 -10 -18 -12 -4 -22 -10 -22 -15 0
-5 -8 -9 -17 -10 -10 0 -13 -3 -6 -5 6 -3 28 2 48 10 72 30 203 17 294 -30 45
-23 121 -102 145 -150 10 -22 22 -46 27 -56 4 -9 11 -40 15 -68 5 -39 3 -54
-7 -60 -11 -7 -11 -13 1 -35 12 -23 12 -33 -5 -83 -22 -65 -53 -122 -66 -122
-5 0 -9 -5 -9 -11 0 -18 -73 -79 -130 -107 -49 -24 -66 -27 -161 -27 l-105 0
39 -17 c53 -24 175 -24 242 -1 58 21 59 22 135 91 58 53 116 150 130 217 l6
30 134 3 c78 1 139 7 147 14 9 7 13 36 13 85 0 66 2 74 15 63 11 -9 15 -33 15
-84 0 -50 5 -79 16 -95 14 -19 16 -39 10 -115 -3 -50 -9 -104 -12 -121 -13
-73 -15 -177 -4 -190 22 -27 -1 -35 -98 -37 l-97 -2 100 -8 c55 -5 171 -11
258 -13 127 -2 157 0 157 10 0 8 -4 17 -10 20 -5 3 -9 27 -8 53 1 50 -13 183
-31 292 -6 36 -15 101 -21 145 -5 44 -12 92 -16 108 -6 26 -5 27 32 27 64 0
84 9 84 37 0 22 -3 24 -22 19 -51 -15 -86 -18 -92 -7 -4 6 4 33 17 60 14 30
20 55 15 63 -5 9 -8 6 -8 -9 0 -22 -4 -23 -65 -23 -73 0 -149 22 -265 77 -41
19 -86 40 -100 45 -51 22 -86 36 -123 52 -52 22 -261 36 -546 36 -162 0 -246
-4 -270 -12 -34 -12 -101 -69 -101 -87 0 -4 -10 -16 -22 -27 -21 -19 -21 -19
-15 6 4 14 7 32 7 41 0 8 16 34 36 57 19 23 31 42 26 42 -21 0 -76 -66 -101
-120 -23 -50 -25 -53 -31 -30 -4 15 -12 23 -21 21 -8 -2 -20 -4 -27 -4 -30 -1
-34 -42 -22 -228 6 -101 15 -255 19 -342 5 -94 13 -163 20 -170 6 -6 11 -19
11 -28 0 -50 121 -177 177 -186 18 -3 33 -9 33 -14 0 -4 12 -9 28 -11 26 -3
26 -4 -6 -9 -24 -4 -40 0 -57 13 -25 19 -60 24 -69 9 -3 -5 -20 -12 -38 -15
-22 -4 -39 -16 -50 -36 -12 -20 -25 -30 -41 -30 -14 0 -30 -6 -36 -14 -19 -22
-110 -32 -128 -13 -22 21 -33 216 -39 676 -2 212 -7 387 -10 390 -8 8 3 -974
12 -1026 l6 -43 -140 0 c-119 0 -142 2 -150 16 -8 14 -10 14 -15 1 -5 -12 -27
-14 -134 -12 -70 2 -174 7 -230 11 l-103 6 -22 47 c-13 25 -26 48 -29 51 -3 3
-9 17 -13 33 -3 15 -11 27 -16 27 -6 0 -10 7 -10 16 0 17 -41 97 -52 102 -5 2
-8 9 -8 15 0 38 -163 227 -196 227 -8 0 -14 3 -14 8 0 21 -130 52 -300 72 -94
11 -611 12 -705 0 -108 -12 -199 -30 -210 -41 -5 -5 -16 -9 -25 -9 -22 0 -104
-74 -137 -123 -36 -53 -123 -230 -123 -249 0 -8 -4 -18 -9 -24 -11 -10 -21
-38 -90 -244 -75 -222 -103 -312 -111 -350 -5 -19 -13 -48 -19 -65 -26 -73
-71 -228 -71 -246 0 -16 -7 -19 -45 -19 -45 0 -45 0 -45 35 0 31 -2 35 -18 26
-12 -6 -113 -7 -283 -1 -699 24 -873 31 -989 40 -69 5 -233 12 -365 15 -132 3
-296 10 -365 16 -69 5 -262 14 -430 20 -168 6 -417 16 -555 22 l-250 12 -30
29 -30 28 90 -5 c602 -33 799 -34 829 -5 30 31 45 101 36 176 -5 37 -12 128
-16 203 -6 116 -4 142 10 169 21 44 20 82 -5 176 -12 44 -23 93 -26 111 -5 35
-33 36 -33 2 0 -10 -4 -19 -10 -19 -15 0 -12 -26 5 -40 25 -21 18 -50 -14 -56
-24 -5 -30 -12 -35 -44 -8 -48 0 -68 27 -72 16 -2 23 -11 25 -30 2 -16 -2 -28
-7 -28 -6 0 0 -18 14 -40 20 -31 25 -53 25 -102 0 -35 7 -108 15 -163 13 -90
13 -105 -2 -152 -26 -82 -39 -86 -273 -80 -283 7 -623 28 -637 39 -7 6 -12 13
-11 16 3 9 -21 81 -37 112 -7 14 -21 45 -30 70 -9 25 -21 53 -26 62 -10 19
-35 85 -49 131 -8 24 -6 29 12 36 18 6 19 9 5 14 -13 5 -16 22 -16 92 1 47 5
85 10 85 6 0 6 7 1 18 -5 9 -7 22 -5 29 2 6 -5 14 -17 18 -13 4 -23 18 -27 36
-3 16 -9 29 -14 29 -4 0 -9 12 -11 28 -3 24 -8 28 -53 34 -27 4 -68 10 -89 14
l-39 7 33 13 c18 8 51 14 74 14 29 0 37 3 26 10 -8 5 -15 21 -16 37 -1 20 -6
27 -18 25 -9 -2 -16 2 -16 8 0 5 8 10 18 10 14 0 15 2 2 10 -13 9 -13 11 0 20
8 5 11 10 6 10 -5 0 -18 -7 -28 -17 -17 -15 -18 -14 -18 17 0 24 4 31 15 26
19 -7 20 20 1 31 -7 4 -16 19 -20 33 -3 14 -3 19 0 13 8 -17 31 -16 37 1 4 10
0 12 -14 9 -15 -4 -18 -2 -13 13 4 13 0 11 -12 -6 -10 -14 -23 -28 -28 -32 -7
-5 -6 -8 2 -8 7 0 10 -4 7 -10 -4 -6 -11 -5 -20 3 -11 10 -11 15 2 29 10 11
13 26 8 47 -8 35 -3 38 20 15 13 -13 16 -14 15 -3 -4 27 0 49 9 49 5 0 12 -8
14 -17 4 -17 5 -17 6 0 1 21 21 23 21 2 0 -8 4 -15 9 -15 16 0 29 24 33 60 3
24 11 38 26 45 15 7 22 19 23 40 2 64 10 99 22 107 6 4 134 9 282 10 149 1
277 2 285 4 8 1 97 2 198 3 l182 1 0 56 0 56 -477 -7 c-263 -4 -486 -11 -495
-16 -22 -12 -28 -11 -28 2 0 17 -32 38 -58 39 -12 0 -26 8 -29 18 -16 42 -40
55 -90 49 -26 -3 -49 -10 -51 -16 -2 -6 -10 -11 -17 -11 -7 0 -15 -8 -17 -17
-2 -13 -17 -17 -68 -20 -36 -2 -66 -8 -68 -13 -2 -6 -11 -10 -21 -10 -14 0
-16 -10 -16 -67 1 -42 5 -68 13 -71 7 -2 12 -19 12 -39 0 -21 9 -47 25 -67 14
-18 25 -38 25 -44 0 -7 4 -12 8 -12 5 0 15 -19 21 -42 7 -24 17 -48 21 -53 5
-6 14 -51 20 -100 6 -50 15 -91 21 -93 5 -2 8 -13 8 -25 -1 -17 -2 -18 -6 -4
-2 9 -9 17 -14 17 -5 0 -9 10 -9 23 -1 12 -9 40 -20 62 -11 22 -19 46 -20 53
0 6 -4 12 -10 12 -5 0 -10 10 -10 23 -1 12 -9 40 -20 62 -11 22 -19 48 -20 57
0 9 -4 19 -9 22 -5 4 -12 24 -16 46 -4 22 -10 40 -15 40 -4 0 -11 15 -14 33
-8 38 -9 318 -1 350 9 36 1 256 -8 227z m11433 -340 c6 -11 10 -51 8 -88 -3
-60 -5 -67 -24 -70 -35 -5 -57 25 -51 70 7 55 -1 81 -26 74 -17 -4 -47 13 -47
28 0 3 29 6 65 6 54 0 66 -3 75 -20z m-3123 -54 c15 -8 46 -22 68 -31 22 -9
54 -23 70 -30 17 -8 49 -22 73 -32 32 -14 41 -23 40 -38 -2 -15 -9 -19 -28
-17 -188 23 -235 10 -309 -88 l-19 -24 -7 33 c-8 36 -16 52 -64 129 -18 28
-37 52 -42 52 -5 0 -9 7 -9 15 0 11 13 15 48 17 57 1 60 2 92 16 35 15 54 14
87 -2z m2992 -368 c0 -91 5 -148 11 -148 6 0 10 -45 10 -115 0 -70 -4 -115
-10 -115 -5 0 -10 -11 -10 -25 0 -15 -7 -28 -17 -32 -10 -4 -24 -13 -31 -20
-7 -7 -18 -13 -23 -13 -5 0 -9 147 -9 365 0 316 2 366 15 371 8 4 18 24 21 45
4 21 10 39 15 39 5 0 10 8 11 18 3 35 15 -228 17 -370z m-1629 222 c0 -5 -6
-13 -12 -17 -29 -18 -78 -143 -78 -196 0 -17 -6 -46 -12 -65 -10 -28 -10 -36
0 -39 7 -3 12 -21 12 -42 0 -20 6 -45 13 -55 12 -16 21 -9 107 76 l95 93 4
128 c3 117 5 127 22 127 11 0 19 -7 19 -17 1 -41 29 -240 36 -258 4 -11 23
-39 43 -61 55 -64 81 -95 81 -100 0 -6 -134 88 -146 102 -8 11 -18 8 -50 -13
-21 -15 -41 -29 -44 -33 -3 -4 -12 -10 -20 -13 -8 -4 -28 -16 -45 -27 -16 -11
-40 -24 -53 -30 -35 -15 -36 -35 -3 -83 66 -97 179 -125 259 -67 50 36 102
105 102 134 0 12 6 30 14 41 28 41 37 166 18 245 -12 51 -33 99 -64 149 -20
31 -20 33 -2 29 11 -2 24 -20 33 -43 8 -22 19 -41 23 -43 4 -2 8 -16 8 -30 0
-15 9 -45 19 -67 15 -35 17 -55 11 -136 -4 -53 -12 -105 -19 -117 -6 -11 -11
-32 -11 -46 0 -25 2 -26 63 -26 34 0 139 5 232 12 121 8 184 8 220 1 47 -10
42 -11 -70 -13 -66 -1 -194 -7 -285 -13 l-164 -12 -16 -29 c-8 -16 -24 -38
-34 -49 -19 -20 -19 -20 -14 1 4 15 2 19 -8 15 -8 -3 -14 -9 -14 -13 0 -4 -18
-17 -40 -29 -76 -39 -168 -20 -237 49 -43 44 -52 56 -59 84 -3 14 -9 26 -13
26 -4 0 -15 42 -25 93 -19 103 -19 277 0 277 14 0 28 46 19 61 -4 5 -3 18 0
29 5 16 15 20 46 20 21 0 39 -4 39 -10z m-9960 -90 c183 -35 225 -72 326 -280
36 -74 72 -147 80 -162 8 -14 14 -33 14 -42 0 -9 5 -16 10 -16 6 0 10 -5 10
-11 0 -7 9 -30 19 -53 10 -23 27 -61 36 -86 10 -25 24 -60 32 -77 7 -18 20
-47 27 -65 8 -18 19 -44 24 -58 6 -14 21 -50 33 -80 26 -66 46 -115 64 -155 7
-16 21 -50 31 -75 9 -25 30 -73 46 -108 15 -34 28 -68 28 -75 0 -6 7 -21 15
-31 29 -39 5 -65 -28 -31 -13 12 -15 12 -20 -4 -3 -15 -19 -19 -83 -25 -178
-16 -206 -8 -219 62 -3 17 -10 32 -15 32 -6 0 -10 9 -10 21 0 11 -9 41 -21 67
-11 26 -25 58 -31 72 -5 14 -16 39 -24 55 -7 17 -16 42 -20 58 -3 15 -10 27
-14 27 -5 0 -12 14 -15 32 -4 18 -11 39 -16 48 -17 30 -49 109 -49 119 0 6 -4
11 -10 11 -5 0 -10 7 -10 16 0 9 -6 30 -14 47 -41 91 -56 127 -56 136 0 6 -4
11 -10 11 -5 0 -10 9 -10 19 0 11 -6 26 -14 33 -7 8 -17 25 -20 38 -10 35 -39
90 -47 90 -4 0 -10 14 -14 30 -4 17 -11 30 -16 30 -5 0 -9 6 -9 14 0 19 -73
93 -102 101 -12 4 -25 11 -28 16 -12 18 -165 32 -380 36 -133 2 -233 0 -245
-6 -11 -5 -36 -12 -56 -15 -81 -14 -191 -173 -236 -341 -3 -11 -11 -34 -19
-52 -8 -17 -14 -39 -14 -50 -1 -10 -7 -29 -15 -43 -8 -14 -14 -37 -15 -52 0
-30 -35 -58 -43 -35 -2 6 -1 19 4 27 4 8 17 59 29 113 13 54 27 100 31 103 5
3 9 16 9 29 0 14 6 42 14 62 7 21 21 63 31 93 9 30 30 82 46 115 15 33 33 73
39 88 5 16 19 31 30 34 11 3 20 9 20 13 0 4 12 11 27 15 15 3 30 11 34 16 3 5
29 12 58 16 31 3 50 10 48 17 -2 6 1 16 7 22 10 10 91 37 141 47 39 9 541 6
585 -3z m11738 -422 c13 -13 16 -126 4 -144 -4 -6 -23 -15 -42 -19 -19 -4 -37
-10 -40 -14 -3 -3 -23 -16 -45 -27 -22 -12 -40 -29 -40 -38 0 -27 -22 -41 -40
-26 -22 18 -20 60 4 60 29 0 71 39 71 65 0 14 9 29 20 35 16 8 20 20 18 47 -1
22 3 38 10 41 7 2 12 10 12 18 0 17 51 19 68 2z m-543 -488 c4 -6 -33 -11
-102 -12 -97 -1 -101 -2 -41 -7 36 -3 69 -9 72 -12 4 -3 -107 -9 -246 -13
-139 -3 -395 -11 -568 -16 -479 -14 -910 -13 -910 3 1 43 32 44 930 52 376 3
686 8 689 10 9 10 170 5 176 -5z m-11451 -99 c49 -26 150 -126 167 -165 5 -12
20 -40 33 -64 14 -23 27 -57 31 -75 4 -21 -6 -7 -31 43 -21 41 -44 81 -52 89
-7 8 -20 24 -29 37 -24 37 -36 29 -56 -34 -27 -86 -38 -163 -44 -295 l-5 -118
28 7 c15 4 37 17 48 28 31 32 112 96 121 96 17 0 45 34 46 54 0 14 2 16 6 6 2
-8 8 -24 12 -35 14 -33 34 -137 37 -190 3 -48 3 -49 -8 -17 -6 17 -15 32 -19
32 -8 0 -99 -53 -128 -75 -7 -5 -35 -32 -62 -58 -33 -33 -49 -43 -49 -32 0 21
-24 14 -28 -9 -5 -25 6 -66 18 -66 6 0 10 8 10 18 0 12 9 18 29 19 24 2 36 -7
67 -44 20 -25 62 -65 93 -89 l56 -44 12 27 c12 27 12 27 13 -17 0 -25 -7 -72
-15 -103 -8 -32 -15 -66 -15 -75 0 -9 -7 -30 -15 -46 -8 -15 -15 -34 -15 -41
0 -19 -89 -188 -105 -201 -8 -6 -15 -14 -15 -18 0 -16 -80 -79 -136 -106 -71
-35 -131 -39 -196 -13 -58 23 -121 67 -153 106 -15 17 -33 40 -41 50 -8 9 -14
19 -14 22 0 2 -13 26 -29 53 -16 27 -32 63 -36 81 -3 17 -11 31 -16 31 -5 0
-9 9 -9 21 0 29 17 15 25 -21 4 -17 11 -30 16 -30 5 0 9 -6 9 -13 0 -17 38
-53 46 -44 4 3 -1 28 -11 54 -9 26 -19 60 -22 76 -9 45 19 24 40 -31 11 -26
26 -61 35 -79 l16 -32 18 37 c9 20 17 40 18 44 0 4 12 33 26 65 45 103 52 117
68 155 29 70 -5 88 -85 43 -24 -13 -58 -31 -76 -40 -17 -9 -58 -36 -90 -60
-32 -24 -59 -41 -59 -37 -1 4 -10 43 -19 86 -17 76 -17 79 0 93 11 7 25 13 32
13 7 0 13 4 13 8 0 5 54 35 120 68 65 32 122 65 125 72 11 28 -8 60 -48 82
-67 37 -210 131 -230 152 -16 16 -17 25 -7 81 17 94 25 107 60 107 21 0 40 -9
58 -28 35 -37 107 -92 120 -92 5 0 12 -6 15 -13 6 -15 74 -54 81 -46 6 5 -36
114 -48 126 -3 3 -6 14 -6 24 0 9 -6 30 -14 46 -18 37 -36 90 -45 133 -4 19
-14 48 -22 63 -14 25 -17 27 -28 13 -8 -9 -19 -16 -25 -16 -6 0 -17 -12 -23
-27 -7 -16 -24 -48 -38 -73 -23 -39 -26 -41 -20 -15 4 16 10 32 15 35 5 3 12
18 15 33 4 15 11 27 15 27 5 0 12 10 16 22 9 30 121 139 164 160 71 34 168 30
244 -11z m6110 -142 c150 -28 292 -104 406 -217 63 -63 130 -143 130 -155 0
-3 14 -26 30 -50 17 -25 30 -48 30 -52 0 -4 6 -21 14 -38 60 -139 106 -344
106 -471 0 -110 -36 -302 -77 -411 -35 -91 -136 -265 -154 -265 -5 0 -9 -4 -9
-10 0 -9 -96 -110 -105 -110 -2 0 -15 -10 -28 -23 -21 -19 -69 -45 -201 -110
-36 -17 -150 -38 -221 -40 -74 -2 -174 15 -240 40 -54 21 -129 55 -135 62 -3
4 -22 15 -44 26 -21 11 -40 26 -43 33 -3 6 -9 12 -14 12 -19 0 -158 153 -189
208 -8 15 -18 29 -22 32 -9 7 -78 147 -78 159 0 6 -6 25 -14 43 -51 122 -74
330 -55 515 7 68 16 123 21 123 4 0 8 11 8 25 0 45 55 186 107 275 61 104 127
182 208 246 28 21 52 42 55 45 9 10 154 77 190 88 107 31 223 39 324 20z
m-4849 -539 c331 -17 614 -31 829 -40 115 -5 284 -13 375 -19 207 -13 529 -29
816 -41 121 -5 290 -13 375 -19 85 -6 257 -15 383 -21 125 -6 240 -13 256 -16
l28 -6 -21 -40 -21 -40 -70 6 c-38 3 -169 10 -290 16 -121 5 -294 14 -385 20
-294 18 -551 32 -757 40 -112 5 -278 13 -370 19 -270 17 -532 31 -778 41 -126
5 -245 12 -263 15 -18 4 -132 10 -253 14 l-220 8 -29 28 c-24 23 -27 31 -17
43 9 12 31 13 117 8 58 -3 191 -10 295 -16z m-20 -140 c66 -6 217 -14 335 -20
118 -5 285 -14 370 -19 334 -22 523 -33 715 -41 110 -4 270 -13 355 -19 161
-12 404 -25 765 -41 116 -6 248 -15 295 -20 47 -5 109 -10 138 -10 51 0 53 -1
46 -22 -9 -31 -12 -34 -26 -20 -7 7 -47 12 -103 12 -49 0 -162 7 -250 15 -88
8 -194 15 -235 15 -41 0 -174 6 -295 15 -353 23 -562 35 -855 45 -151 6 -297
15 -323 20 -26 6 -87 10 -135 10 -95 0 -103 -4 -137 -70 -10 -19 -23 -30 -36
-30 -19 0 -20 2 -8 18 7 9 18 22 24 27 5 6 18 22 27 37 l17 26 -72 7 c-40 3
-184 10 -322 15 -137 5 -317 14 -399 20 -117 8 -152 7 -158 -2 -6 -10 -10 -10
-20 0 -6 6 -24 12 -39 12 -15 0 -29 7 -33 15 -5 13 12 15 117 15 67 0 176 -5
242 -10z m575 -209 c0 -5 26 -12 58 -16 31 -4 60 -12 64 -18 3 -5 54 -12 112
-15 58 -3 106 -9 106 -13 0 -5 11 -9 25 -9 14 0 25 4 25 9 0 5 46 11 102 13
70 2 103 7 106 16 4 14 242 18 242 3 0 -5 108 -12 240 -16 132 -4 240 -11 240
-16 0 -5 23 -9 50 -9 43 0 50 -3 50 -20 0 -11 4 -20 9 -20 5 0 11 -18 15 -40
3 -22 10 -40 15 -40 5 0 12 -16 15 -35 4 -19 11 -35 16 -35 4 0 11 -13 15 -30
4 -16 10 -30 15 -30 4 0 11 -11 14 -25 4 -14 11 -25 16 -25 6 0 10 -7 10 -15
0 -9 7 -18 15 -21 8 -4 15 -12 15 -19 0 -8 29 -43 65 -78 60 -59 63 -65 43
-70 -13 -4 -26 -1 -30 6 -5 8 -11 8 -15 2 -10 -12 -36 -13 -44 -1 -4 4 -17 3
-29 -4 -18 -10 -24 -9 -32 1 -7 11 -11 11 -15 2 -3 -8 -11 -10 -21 -5 -9 4
-96 7 -192 6 -114 0 -180 3 -189 10 -9 7 -15 7 -18 1 -4 -14 -917 -5 -1028 11
-22 3 -234 6 -472 7 l-431 2 5 30 c4 17 10 32 14 35 4 3 11 18 14 33 4 15 11
27 15 27 5 0 12 20 16 45 3 25 10 45 15 45 4 0 11 20 15 45 3 25 10 45 14 45
5 0 12 29 15 65 4 36 11 65 16 65 5 0 9 11 9 25 0 14 6 25 13 25 7 0 20 9 30
20 10 12 29 20 47 20 16 0 30 5 30 10 0 6 98 10 275 10 153 0 275 -4 275 -9z
m7158 -320 c8 -4 16 -27 19 -50 3 -22 9 -41 14 -41 4 0 10 -13 14 -30 4 -16
10 -30 15 -30 5 0 11 -13 15 -30 4 -16 10 -30 15 -30 5 0 11 -13 15 -30 4 -16
11 -30 16 -30 5 0 11 -11 15 -25 3 -14 10 -25 15 -25 5 0 9 -7 9 -15 0 -9 7
-18 15 -21 8 -4 15 -12 15 -20 0 -8 9 -22 20 -31 11 -10 20 -21 20 -26 0 -5
27 -36 60 -69 33 -33 60 -61 60 -63 0 -4 -80 1 -115 8 -30 6 -127 14 -285 23
-47 2 -98 7 -115 9 -36 7 -134 14 -236 18 -41 2 -80 7 -87 10 -10 7 -47 9
-289 21 -45 3 -87 7 -92 11 -6 3 -41 8 -78 10 -158 9 -226 16 -242 24 -9 4
-32 9 -51 10 -19 2 -42 4 -52 4 -9 1 -28 15 -43 31 -14 15 -37 29 -51 30 -21
1 -24 5 -19 26 4 14 10 27 15 30 4 3 11 30 15 60 4 30 11 58 16 61 5 3 12 30
16 60 3 30 11 57 17 62 17 11 310 -4 318 -17 9 -13 258 -11 267 2 3 5 35 12
71 16 36 4 67 12 71 17 3 5 86 12 185 15 98 3 188 10 199 15 35 15 193 23 213
10z m-4094 -113 c4 -35 11 -65 16 -68 4 -3 11 -25 15 -49 l7 -44 -112 7 c-118
6 -162 18 -121 31 24 7 101 81 101 97 0 5 10 19 23 31 13 12 26 30 30 40 3 9
13 17 20 17 10 0 17 -19 21 -62z m4971 -43 c17 -16 59 -48 93 -70 45 -29 62
-46 62 -62 0 -12 4 -33 10 -47 11 -31 14 -31 -60 -6 -129 43 -156 72 -166 175
-8 78 -10 78 61 10z"/>
<path d="M8240 6915 c0 -4 11 -18 25 -31 21 -19 25 -32 25 -79 0 -30 -4 -55
-10 -55 -18 0 -11 -47 21 -137 16 -48 33 -97 36 -108 4 -11 14 -28 23 -37 16
-17 17 -17 28 7 7 14 12 42 12 61 0 64 31 258 47 296 24 56 15 66 -69 71 -40
3 -88 8 -105 12 -18 4 -33 4 -33 0z"/>
<path d="M8487 5943 c-14 -14 -7 -52 12 -58 15 -5 19 -20 24 -103 10 -138 9
-164 -4 -156 -14 8 -1 -98 17 -143 17 -39 30 -36 64 15 24 35 31 45 55 75 15
19 45 77 45 87 0 5 -8 11 -17 13 -14 4 -14 5 3 6 15 1 23 9 27 27 4 22 -10 41
-94 126 -55 55 -99 105 -99 109 0 11 -24 12 -33 2z"/>
<path d="M8358 5858 c-10 -10 -20 -29 -24 -43 -3 -14 -10 -28 -15 -31 -5 -3
-9 -12 -9 -21 0 -8 -6 -29 -14 -46 -32 -71 -64 -188 -73 -264 l-5 -41 69 -1
c37 -1 86 -3 108 -4 l40 -2 -3 40 c-2 22 -9 72 -17 112 -8 40 -15 115 -15 166
0 54 -5 107 -12 124 -12 27 -14 28 -30 11z"/>
<path d="M14308 6753 c-28 -4 -40 -33 -15 -33 24 0 44 -34 51 -85 3 -27 11
-54 16 -59 6 -6 10 -21 10 -35 0 -15 7 -39 15 -54 8 -15 17 -43 21 -62 3 -19
10 -35 15 -35 5 0 9 -4 9 -10 0 -5 -9 -10 -19 -10 -21 0 -20 -20 5 -77 8 -17
14 -38 14 -46 0 -23 28 -42 43 -29 18 15 49 -10 41 -34 -4 -14 -1 -13 15 6 11
14 21 34 21 44 0 27 48 198 87 311 14 39 29 86 35 105 5 19 14 39 19 45 15 15
10 35 -9 35 -10 0 -23 5 -30 12 -12 12 -289 21 -344 11z"/>
<path d="M14045 6624 c-22 -19 -53 -48 -70 -63 -35 -33 -106 -116 -119 -140
-5 -9 -12 -18 -16 -21 -3 -3 -9 -12 -13 -20 -4 -8 -14 -26 -24 -39 l-17 -23
42 7 c32 5 42 4 42 -7 0 -7 9 -18 19 -23 134 -68 177 -91 181 -96 4 -5 199
-103 232 -117 4 -2 8 6 8 17 0 20 -7 38 -60 156 -49 107 -89 208 -122 308 -18
53 -35 97 -38 97 -3 0 -23 -16 -45 -36z"/>
<path d="M14862 6618 c-7 -7 -12 -16 -12 -21 0 -8 -34 -90 -50 -118 -5 -9 -12
-33 -15 -53 -4 -20 -11 -36 -15 -36 -4 0 -11 -20 -14 -45 -4 -24 -11 -47 -15
-50 -5 -2 -11 -24 -15 -47 -4 -23 -11 -47 -16 -53 -5 -5 -12 -38 -16 -73 -7
-66 0 -76 32 -45 17 17 17 16 10 -10 -8 -32 4 -34 51 -9 36 20 291 146 343
171 19 9 38 20 41 25 7 9 -20 68 -33 74 -5 2 -8 10 -8 17 0 13 -114 169 -148
202 -22 22 -98 83 -104 83 -2 0 -9 -5 -16 -12z"/>
<path d="M13697 6047 c-21 -89 -24 -343 -4 -397 16 -47 22 -46 150 16 27 13
53 24 59 24 5 0 24 6 41 14 18 8 71 26 119 41 92 28 151 61 156 86 4 20 -55
79 -79 79 -6 0 -23 6 -37 14 -15 8 -54 27 -87 41 -79 36 -155 74 -236 118
l-65 37 -17 -73z"/>
<path d="M15208 6032 c-16 -2 -28 -7 -28 -12 0 -5 -14 -11 -31 -15 -17 -4 -42
-13 -57 -21 -15 -8 -35 -14 -44 -14 -10 0 -18 -4 -18 -10 0 -5 -5 -10 -11 -10
-12 0 -36 -10 -161 -70 -60 -29 -77 -46 -78 -82 0 -5 14 -8 30 -8 19 0 30 -5
30 -14 0 -7 21 -23 48 -35 26 -12 61 -30 77 -41 17 -10 50 -29 75 -42 25 -13
47 -26 50 -30 3 -3 18 -10 33 -13 15 -4 27 -11 27 -16 0 -4 15 -11 33 -14 25
-5 36 -14 43 -33 9 -25 11 -21 27 43 29 119 21 406 -12 435 -3 3 -18 4 -33 2z"/>
<path d="M14220 5601 c0 -5 -14 -12 -31 -16 -17 -4 -42 -13 -57 -21 -15 -8
-35 -14 -44 -14 -10 0 -18 -4 -18 -9 0 -5 -12 -12 -26 -15 -43 -11 -262 -114
-270 -127 -6 -11 30 -29 58 -29 17 0 31 -13 53 -47 16 -27 32 -52 34 -58 2 -5
7 -12 10 -15 3 -3 24 -27 45 -55 22 -27 52 -62 68 -77 15 -15 28 -35 28 -45 0
-19 12 3 45 87 10 25 56 122 102 215 45 94 83 177 83 185 -1 26 -26 50 -54 50
-14 0 -26 -4 -26 -9z"/>
<path d="M14682 5559 c-15 -23 -8 -35 23 -41 14 -2 21 -12 23 -33 1 -17 9 -52
16 -80 26 -95 37 -140 47 -190 6 -27 14 -54 19 -60 14 -17 23 -97 12 -104 -6
-3 -8 -19 -5 -34 4 -22 8 -25 19 -16 8 6 14 18 14 25 0 8 5 14 10 14 7 0 7 -6
0 -19 -12 -24 -13 -41 -1 -41 34 0 271 254 271 290 0 5 5 10 10 10 6 0 10 9
10 19 0 13 -19 30 -57 52 -32 18 -60 36 -63 39 -3 4 -12 9 -20 12 -8 3 -73 45
-144 92 -71 47 -138 86 -150 86 -12 0 -27 -10 -34 -21z"/>
<path d="M14458 5462 c-27 -28 -48 -65 -93 -167 -14 -33 -35 -80 -46 -105 -11
-25 -24 -53 -30 -62 -5 -10 -9 -26 -9 -35 0 -10 -6 -30 -14 -44 -7 -14 -16
-43 -20 -63 -4 -21 -10 -44 -13 -52 -7 -19 27 -19 53 0 14 11 22 12 33 3 8 -7
69 -13 155 -15 110 -3 145 -8 159 -20 29 -26 30 -7 3 75 -44 131 -46 137 -57
189 -5 27 -16 83 -24 124 -21 118 -36 168 -54 184 -16 15 -20 13 -43 -12z"/>
<path d="M10693 8573 c-10 -4 -13 -124 -13 -556 1 -386 4 -547 11 -534 7 11
11 206 12 557 1 297 2 540 2 539 0 0 -6 -3 -12 -6z"/>
<path d="M10960 8260 c0 -5 -6 -10 -14 -10 -8 0 -23 -13 -33 -30 -18 -31 -28
-37 -38 -20 -4 6 -15 6 -31 0 -14 -6 -42 -10 -62 -10 -20 0 -43 -4 -51 -9 -19
-12 -22 -131 -3 -138 7 -3 12 -24 12 -53 0 -44 2 -49 31 -60 17 -8 37 -13 45
-13 8 0 14 -4 14 -9 0 -5 5 -6 11 -3 5 4 19 -3 30 -16 17 -20 21 -21 37 -7 20
18 81 16 93 -4 7 -10 9 -9 9 5 0 9 4 17 10 17 5 0 7 -7 4 -15 -4 -8 -1 -15 5
-15 6 0 11 7 11 15 0 9 9 15 25 15 14 0 25 5 25 10 0 6 13 10 28 10 16 0 37 7
48 15 10 8 30 15 43 15 20 0 23 4 19 30 -3 17 -1 30 3 30 5 0 6 7 3 15 -3 8 0
17 7 19 16 5 373 13 974 22 237 4 432 8 433 10 2 1 6 20 9 41 4 29 1 42 -14
55 -16 15 -43 15 -283 8 -146 -5 -441 -9 -656 -10 -215 0 -412 -3 -438 -6 -41
-6 -46 -10 -47 -33 -1 -28 -3 -25 -24 36 -5 17 -16 23 -48 25 -33 2 -43 7 -45
23 -7 37 -38 55 -92 55 -27 0 -50 -4 -50 -10z"/>
<path d="M17683 8237 c-13 -6 -23 -14 -23 -18 0 -17 2370 -38 2418 -21 23 8
32 8 35 -1 6 -16 14 -7 22 25 7 26 6 26 -37 21 -40 -4 -69 -13 -110 -34 -21
-11 -132 -12 -142 -2 -32 33 -85 35 -1116 38 -777 3 -1030 1 -1047 -8z"/>
<path d="M13850 8190 c-305 -3 -556 -6 -557 -8 -2 -1 -3 -17 -3 -35 0 -21 8
-39 23 -52 20 -19 43 -20 312 -27 260 -5 445 -21 445 -38 0 -3 -82 -7 -182 -8
-100 -2 -184 -5 -187 -7 -2 -3 30 -5 72 -5 45 0 77 -4 77 -10 0 -14 27 -12 33
3 3 6 6 2 6 -11 1 -19 5 -22 24 -17 12 4 32 13 44 21 19 12 114 14 550 14 532
-1 588 1 607 20 5 5 55 10 110 11 56 0 151 4 211 9 61 5 162 12 225 16 129 7
150 17 150 69 0 62 32 60 -719 60 -377 1 -936 -1 -1241 -5z"/>
<path d="M12835 8174 c-11 -11 -15 -30 -13 -58 l3 -41 125 -3 c147 -2 159 2
140 50 -26 64 -33 68 -141 68 -77 0 -101 -3 -114 -16z"/>
<path d="M16772 8133 c-38 -8 -24 -37 18 -37 36 -1 40 -8 26 -52 -6 -19 -2
-22 31 -28 72 -11 133 -7 133 9 0 8 5 15 10 15 21 0 -10 40 -50 65 -39 25
-121 39 -168 28z"/>
<path d="M18670 8118 c371 -4 831 -11 1023 -15 258 -6 347 -5 347 3 0 7 -7 15
-16 18 -9 3 -469 5 -1022 4 l-1007 -1 675 -9z"/>
<path d="M9567 7997 c-3 -7 8 -24 24 -36 29 -23 37 -41 19 -41 -5 0 -10 7 -10
15 0 8 -7 15 -15 15 -20 0 -19 -6 5 -30 23 -23 40 -25 59 -7 12 10 13 8 7 -8
-6 -19 -5 -19 12 1 9 11 23 19 30 16 6 -2 12 5 13 15 0 10 3 13 6 6 7 -18 21
-16 26 5 4 16 5 16 6 -1 1 -20 31 -56 31 -38 0 6 11 11 25 11 14 0 28 7 31 15
8 21 54 20 54 -2 0 -14 3 -13 23 5 13 12 35 22 49 22 15 0 28 5 30 11 3 8 10
6 20 -5 21 -21 38 -21 38 0 0 14 3 14 15 4 10 -9 15 -9 15 -1 0 14 27 14 32 0
6 -17 88 -18 88 -1 0 11 3 10 16 -2 20 -20 33 -20 40 -1 5 12 10 13 20 4 11
-9 14 -8 14 1 0 10 3 10 14 1 10 -8 15 -8 18 -1 2 6 31 12 65 13 35 2 68 8 75
15 9 9 -87 12 -439 12 -362 0 -452 -3 -456 -13z"/>
<path d="M16798 7969 c-2 -6 -15 -13 -28 -14 -40 -4 -41 -5 -36 -14 3 -4 18
-11 33 -14 48 -10 69 -113 34 -172 -10 -16 -28 -35 -40 -41 -22 -11 -21 -12
19 -19 23 -4 44 -4 47 -1 4 3 14 28 23 54 14 41 20 47 48 50 l32 3 -1 62 c-1
34 -4 53 -6 42 -12 -48 -63 -65 -63 -21 0 13 -3 32 -7 42 -6 15 0 16 59 10 40
-5 68 -4 72 2 10 16 -21 22 -84 15 -52 -5 -60 -4 -60 11 0 18 -36 23 -42 5z"/>
<path d="M16870 7630 c-8 -5 -10 -10 -4 -10 16 0 25 -40 13 -61 -9 -17 -11
-17 -29 -2 -11 10 -20 28 -20 40 0 18 -6 23 -25 23 -30 0 -30 3 -5 -48 11 -22
20 -48 20 -56 0 -13 6 -13 48 1 26 9 53 23 60 30 7 7 20 13 28 13 8 0 29 15
45 33 l30 32 -43 7 c-62 10 -101 9 -118 -2z"/>
<path d="M10666 7395 c-3 -8 -1 -15 3 -15 5 0 11 -75 14 -167 6 -176 26 -363
50 -473 15 -69 45 -140 59 -140 4 0 8 -7 8 -15 0 -8 7 -15 15 -15 8 0 15 -4
15 -10 0 -24 116 -42 323 -50 473 -19 724 -30 954 -41 133 -7 330 -12 437 -13
182 -1 196 0 223 20 48 36 57 67 57 194 0 63 -4 169 -9 236 -6 102 -5 125 9
152 20 39 21 143 2 180 -7 15 -17 46 -21 70 -4 23 -11 42 -15 42 -5 0 -10 14
-12 31 l-3 32 -23 -44 -23 -44 20 -16 c28 -22 27 -56 -1 -65 -19 -6 -19 -7 -5
-16 11 -6 17 -22 17 -48 0 -35 -3 -40 -22 -41 l-23 0 23 -9 c23 -10 31 -53 12
-65 -11 -7 -2 -36 15 -50 13 -11 35 -261 35 -391 0 -62 -3 -75 -25 -98 -13
-14 -31 -26 -40 -26 -8 0 -15 -4 -15 -10 0 -13 -210 -13 -354 0 -61 6 -264 15
-451 20 -556 18 -977 38 -1030 51 -53 12 -85 33 -85 56 0 7 -4 13 -9 13 -5 0
-16 23 -25 51 -29 86 -47 233 -66 537 -12 178 -19 215 -34 177z"/>
<path d="M19666 7223 c-4 -4 -206 -11 -449 -14 -398 -5 -374 -6 234 -5 559 1
679 -1 692 -13 18 -14 22 -5 11 23 -5 14 -36 16 -243 16 -131 0 -241 -3 -245
-7z"/>
<path d="M20430 7001 c0 -5 5 -11 12 -13 6 -2 13 -31 15 -69 3 -35 9 -75 14
-89 6 -16 6 -40 0 -65 l-9 -40 -1 56 c-1 54 -2 56 -26 51 -14 -2 -28 -8 -31
-13 -3 -5 -17 -9 -32 -9 -46 0 -51 -10 -58 -125 -4 -61 -10 -114 -14 -120 -5
-5 -11 -47 -15 -92 -9 -94 -7 -96 64 -65 45 20 81 60 81 89 0 10 4 23 9 29 5
5 12 20 15 34 3 14 3 -11 0 -55 -2 -43 -9 -84 -14 -89 -6 -6 -10 -20 -10 -33
0 -13 -4 -23 -10 -23 -5 0 -7 -7 -4 -15 4 -11 -1 -15 -17 -15 -13 0 -36 -6
-50 -14 -14 -7 -41 -16 -60 -20 -26 -5 -43 -19 -73 -61 -22 -30 -43 -55 -48
-55 -4 0 -8 -7 -8 -15 0 -8 -5 -15 -12 -15 -9 0 -9 -3 -1 -11 7 -7 32 0 84 25
75 36 118 67 137 102 11 19 11 19 18 0 5 -12 3 -21 -4 -24 -14 -4 -16 -32 -3
-32 5 0 12 14 16 30 4 17 10 30 15 30 4 0 11 12 15 27 3 15 11 31 17 34 6 4
13 33 16 66 3 32 9 61 13 64 5 3 10 118 12 255 2 246 2 249 -20 272 -25 24
-33 27 -33 13z"/>
<path d="M19530 6770 c-118 -4 -456 -12 -750 -18 -617 -14 -868 -26 -884 -42
-6 -6 -14 -55 -18 -108 -3 -53 -11 -142 -17 -197 -15 -131 -18 -129 149 -121
69 4 316 11 550 16 234 5 493 14 575 19 83 6 267 13 411 16 143 3 290 10 325
15 35 5 108 10 162 10 90 0 100 2 122 24 15 15 26 40 30 72 3 27 12 84 20 127
8 42 15 104 15 137 l0 60 -237 -2 c-131 -1 -335 -5 -453 -8z"/>
<path d="M16365 6723 c-50 -13 -56 -39 -45 -183 9 -117 24 -154 75 -188 50
-35 243 -50 730 -58 417 -7 431 -6 454 13 23 19 24 22 25 214 l1 194 -95 6
c-111 8 -1115 9 -1145 2z"/>
<path d="M18136 6240 c-270 -4 -315 -7 -295 -18 20 -11 79 -11 324 -1 165 7
395 15 510 18 l210 7 -215 0 c-118 0 -359 -3 -534 -6z"/>
<path d="M16370 6188 c-9 -7 -22 -32 -29 -55 -16 -50 -8 -66 42 -82 54 -18
1038 -53 1069 -39 19 9 92 114 102 146 6 18 -5 19 -296 25 -844 19 -872 19
-888 5z"/>
</g>
</svg>
