<?xml version="1.0" standalone="no"?>
<!DOCTYPE svg PUBLIC "-//W3C//DTD SVG 20010904//EN"
 "http://www.w3.org/TR/2001/REC-SVG-20010904/DTD/svg10.dtd">
<svg version="1.0" xmlns="http://www.w3.org/2000/svg"
 width="2880.000000pt" height="1725.000000pt" viewBox="0 0 2880.000000 1725.000000"
 preserveAspectRatio="xMidYMid meet">
<metadata>
Created by potrace 1.16, written by Peter Selinger 2001-2019
</metadata>
<g transform="translate(0.000000,1725.000000) scale(0.100000,-0.100000)"
fill="#000000" stroke="none">
<path d="M12600 11110 c0 -6 -77 -11 -197 -13 -109 -1 68 -2 392 -2 325 0 506
1 403 2 -114 2 -188 7 -188 13 0 6 -78 10 -205 10 -127 0 -205 -4 -205 -10z"/>
<path d="M11430 11063 c-41 -2 -77 -9 -81 -14 -3 -6 -83 -13 -195 -16 -117 -3
-192 -9 -196 -16 -4 -6 -54 -12 -120 -14 -62 -3 -115 -9 -119 -14 -3 -5 -53
-12 -110 -15 -57 -3 -107 -10 -110 -16 -3 -5 -48 -12 -100 -15 -52 -2 -97 -9
-100 -15 -4 -6 -40 -12 -80 -15 -41 -3 -77 -10 -80 -15 -4 -6 -37 -12 -75 -15
-70 -4 -103 -23 -61 -34 12 -3 27 -3 32 1 9 6 85 19 140 24 11 0 25 4 30 8 6
3 48 9 95 11 47 3 74 4 60 1 -136 -23 -398 -79 -522 -110 -32 -8 -86 -21 -120
-30 -111 -27 -261 -72 -306 -90 -18 -8 -43 -14 -55 -14 -12 0 -31 -7 -41 -15
-11 -8 -29 -15 -41 -15 -12 0 -25 -4 -31 -8 -5 -5 -38 -19 -74 -31 -36 -13
-85 -32 -110 -43 -25 -11 -54 -24 -65 -28 -98 -40 -287 -132 -303 -147 -7 -7
-17 -13 -22 -13 -5 0 -44 -20 -86 -45 -41 -25 -78 -45 -80 -45 -3 0 -36 -20
-74 -45 -38 -25 -73 -45 -79 -45 -5 0 -11 -3 -13 -7 -4 -10 -65 -53 -73 -53
-4 0 -12 -6 -20 -12 -7 -7 -43 -33 -79 -58 -56 -38 -580 -426 -611 -452 -5 -5
-68 -51 -140 -103 -71 -52 -138 -101 -147 -110 -10 -8 -21 -15 -24 -15 -3 0
-46 -27 -96 -60 -49 -33 -93 -60 -98 -60 -5 0 -15 -6 -22 -13 -7 -7 -44 -28
-83 -47 -38 -19 -72 -38 -75 -42 -3 -3 -18 -10 -33 -13 -15 -4 -27 -11 -27
-15 0 -4 -12 -13 -27 -19 -16 -5 -55 -26 -88 -45 -33 -19 -78 -44 -100 -56
-22 -12 -59 -35 -83 -51 -24 -16 -47 -29 -53 -29 -5 0 -9 -3 -9 -7 0 -5 -17
-19 -38 -33 -20 -13 -53 -36 -72 -51 -19 -15 -44 -29 -55 -32 -11 -3 9 -3 45
0 36 3 74 10 85 16 11 6 63 11 115 11 52 1 82 3 65 7 l-30 6 40 9 c22 5 87 9
145 8 69 -1 88 1 55 5 l-50 6 48 8 c32 6 53 5 62 -3 7 -6 35 -9 62 -7 l48 3
-52 2 c-29 1 -53 6 -53 11 0 7 162 26 200 22 124 -10 163 -11 151 -3 -8 6 -20
8 -28 5 -7 -3 -21 -2 -30 2 -23 10 115 31 297 45 74 6 155 13 180 16 193 20
420 33 442 25 15 -5 -20 -11 -112 -16 -74 -4 -160 -9 -190 -12 -30 -2 -100 -8
-155 -13 -55 -4 -138 -13 -185 -18 -47 -6 -114 -11 -150 -12 -36 0 -60 -4 -53
-8 13 -8 210 3 323 19 41 5 149 14 240 20 91 5 195 12 233 16 53 4 67 2 67 -8
0 -11 2 -11 10 1 7 12 41 16 152 21 79 3 260 11 403 17 143 7 370 17 505 23
381 17 1603 22 2035 10 209 -7 517 -16 685 -21 355 -10 739 -30 1365 -70 88
-6 241 -15 340 -20 99 -6 189 -12 200 -15 11 -3 67 -8 125 -11 58 -3 148 -9
200 -15 52 -5 166 -14 254 -20 87 -5 162 -11 166 -14 5 -3 72 -9 150 -15 78
-5 185 -14 238 -20 53 -5 169 -17 257 -25 148 -14 265 -27 520 -56 55 -6 138
-15 185 -19 79 -7 119 -12 335 -40 44 -6 117 -15 163 -20 46 -4 113 -13 150
-19 37 -6 119 -18 182 -27 63 -9 146 -22 184 -30 38 -8 80 -14 93 -14 14 0 55
-7 92 -15 71 -15 141 -29 236 -46 33 -5 67 -14 75 -18 9 -5 39 -12 68 -16 29
-4 52 -11 52 -16 0 -5 10 -9 23 -9 25 0 137 -37 150 -50 9 -8 -6 -12 -108 -30
-99 -16 -248 -56 -315 -83 -14 -5 -38 -13 -55 -18 -16 -4 -46 -14 -66 -21 -29
-11 -34 -16 -23 -26 7 -6 18 -12 24 -12 5 0 10 -4 10 -10 0 -10 36 -50 45 -50
3 0 24 -19 48 -43 23 -24 78 -74 122 -112 44 -38 82 -72 83 -77 2 -4 8 -8 12
-8 5 0 26 -16 47 -35 21 -20 50 -43 66 -53 15 -9 27 -20 27 -24 0 -4 6 -8 14
-8 8 0 16 -4 18 -8 5 -12 147 -104 193 -125 22 -10 51 -24 65 -31 14 -7 52
-20 85 -30 33 -10 75 -22 92 -28 34 -10 116 -22 268 -40 50 -5 99 -14 110 -18
11 -5 72 -14 135 -19 270 -25 337 -32 379 -42 70 -16 356 -22 456 -10 303 37
513 76 575 107 44 22 59 38 96 94 42 66 51 80 76 129 20 39 82 111 95 111 3 0
17 9 31 21 l26 20 -54 -5 c-30 -4 -49 -3 -42 0 22 10 13 38 -21 63 l-32 23 30
-6 c17 -3 57 -11 90 -17 33 -6 78 -16 100 -21 l40 -11 0 -136 c0 -110 3 -144
18 -176 10 -22 22 -49 26 -60 30 -74 150 -299 185 -345 l18 -25 -7 25 c-4 13
-14 30 -21 38 -8 7 -14 19 -14 27 0 7 -3 15 -7 17 -5 2 -21 28 -36 58 -16 30
-32 62 -37 70 -31 50 -93 200 -83 200 24 0 68 -44 90 -90 14 -30 42 -80 63
-110 20 -31 39 -62 43 -70 4 -8 16 -28 27 -45 11 -16 23 -37 27 -45 4 -8 20
-34 35 -56 15 -23 28 -46 28 -52 0 -6 3 -12 8 -14 10 -5 52 -66 52 -77 0 -5 3
-11 8 -13 4 -1 20 -22 36 -45 16 -24 33 -43 37 -43 5 0 9 -5 9 -10 0 -24 172
-200 196 -200 7 0 14 -4 14 -8 0 -10 69 -41 119 -54 37 -10 240 -50 346 -69
33 -6 94 -15 135 -19 188 -22 271 -31 345 -41 44 -6 159 -13 256 -16 139 -4
192 -2 256 11 44 9 90 16 103 16 12 0 54 7 94 15 39 9 100 22 136 30 36 7 83
17 105 20 22 4 45 10 50 15 6 4 24 10 40 12 54 9 160 40 169 49 6 5 18 9 27 9
33 0 105 39 140 77 37 39 79 113 79 138 0 8 4 15 8 15 10 0 43 110 53 175 19
128 30 206 36 275 l8 75 35 -3 c29 -2 38 2 52 25 10 15 18 22 18 16 0 -28 20
-11 20 17 0 17 -4 30 -10 30 -5 0 -10 17 -10 39 0 67 -13 161 -21 161 -12 0
-11 -77 1 -85 6 -3 10 -37 10 -75 0 -38 -4 -72 -10 -75 -5 -3 -10 2 -10 12 0
20 -25 132 -46 207 -8 26 -14 57 -14 67 0 11 -4 19 -8 19 -5 0 -33 38 -63 85
-52 82 -79 109 -79 81 0 -8 4 -16 8 -18 11 -4 52 -85 52 -102 0 -8 3 -16 8
-18 13 -6 54 -117 49 -135 -4 -17 -5 -17 -6 0 0 9 -5 17 -11 17 -5 0 -10 8
-10 18 0 17 -47 115 -88 183 -36 58 -80 70 -332 90 -69 5 -165 14 -215 19 -49
5 -163 12 -252 16 -145 5 -163 4 -163 -10 0 -14 -32 -16 -304 -16 -258 0 -305
2 -316 15 -19 23 -342 18 -908 -14 -215 -13 -345 -33 -370 -58 -24 -23 -52
-85 -52 -113 0 -13 -5 -20 -12 -17 -14 4 -15 21 -5 120 l6 67 -27 0 c-43 0
-66 22 -58 54 9 35 69 62 162 71 38 4 74 11 79 15 6 4 64 10 130 14 66 4 140
11 165 17 50 11 286 26 610 39 256 10 884 5 902 -7 7 -4 81 -13 163 -20 195
-15 549 -61 585 -75 8 -4 33 -9 54 -13 35 -6 37 -5 23 9 -8 9 -23 16 -31 16
-9 0 -16 3 -16 8 0 11 -86 48 -152 66 -32 9 -82 23 -111 31 -30 8 -62 15 -73
15 -10 0 -50 6 -89 14 -129 27 -385 73 -445 80 -19 2 19 2 85 -1 66 -3 122 -9
125 -14 3 -4 51 -11 108 -15 56 -4 102 -11 102 -16 0 -5 16 -8 34 -7 19 2 38
0 42 -4 4 -4 26 -6 48 -6 26 1 32 3 16 6 -14 2 -34 8 -45 13 -11 4 -46 11 -78
14 -32 4 -77 10 -100 16 -23 5 -91 16 -152 24 -271 37 -355 46 -655 70 -96 8
-191 19 -210 24 -19 6 -55 16 -80 23 -25 6 -39 14 -32 16 25 9 11 31 -33 49
-34 14 -45 23 -45 40 0 12 -6 25 -12 27 -9 4 -7 6 3 6 17 1 58 41 42 41 -6 0
-21 -9 -35 -20 -21 -16 -28 -17 -44 -6 -27 18 -56 28 -49 16 3 -6 13 -10 21
-10 8 0 14 -4 14 -10 0 -5 7 -10 15 -10 18 0 20 -40 3 -41 -7 0 -32 -1 -55 -1
-50 0 -60 -10 -36 -34 16 -16 13 -17 -67 -10 -47 4 -107 12 -134 17 -27 5 -81
9 -120 9 -39 0 -109 4 -156 10 -109 12 -186 18 -335 25 -66 4 -133 8 -150 10
-16 3 -86 7 -155 10 -124 6 -199 10 -381 21 -147 8 -279 11 -279 4 0 -3 -21
-6 -47 -7 -88 -2 -168 -15 -185 -31 -23 -19 -22 -23 2 -50 31 -33 26 -52 -13
-52 -18 0 -37 4 -43 9 -5 5 -36 14 -69 20 -83 14 -193 38 -235 49 -19 5 -71
17 -115 27 -44 9 -107 23 -140 31 -76 17 -176 38 -285 59 -47 9 -114 23 -150
30 -36 8 -108 21 -160 30 -52 9 -126 23 -165 30 -132 26 -200 37 -260 45 -33
4 -85 12 -115 18 -50 10 -106 20 -300 52 -36 6 -100 15 -143 20 -43 5 -82 12
-87 15 -12 7 -341 57 -500 75 -47 5 -101 14 -120 19 -19 5 -75 14 -125 21
-179 22 -228 29 -278 39 -29 5 -97 17 -152 26 -55 10 -113 23 -130 30 -25 12
69 14 615 15 355 0 706 2 780 5 284 10 558 12 630 5 75 -7 75 -7 -40 -9 -63
-1 -124 -4 -135 -6 -11 -2 -149 -5 -306 -6 -158 0 -293 -5 -300 -10 -8 -5 252
-9 614 -9 491 0 651 -3 730 -14 170 -24 278 -38 362 -46 44 -4 109 -13 145
-19 36 -5 112 -17 170 -25 251 -36 328 -48 380 -58 30 -6 82 -14 115 -19 33
-4 119 -17 190 -29 72 -12 157 -26 190 -31 33 -5 73 -14 89 -19 16 -6 41 -10
55 -10 15 0 51 -6 81 -14 30 -8 84 -17 120 -20 l65 -6 -70 20 c-38 11 -82 20
-97 20 -15 0 -29 4 -32 9 -3 5 -34 12 -68 16 -35 4 -70 11 -79 15 -8 5 -44 13
-80 19 -126 20 -204 36 -215 43 -5 4 -45 10 -87 14 -42 4 -77 10 -77 14 0 4
-40 11 -90 15 -49 4 -90 11 -90 15 0 4 -42 11 -92 14 -51 4 -102 11 -113 16
-19 9 -52 13 -310 40 -55 6 -116 15 -135 20 -19 6 -87 14 -150 20 -63 6 -142
15 -175 19 -33 5 -90 10 -127 10 -37 1 -70 6 -73 11 -3 6 -36 11 -73 12 l-67
2 55 4 c30 2 98 -1 150 -8 52 -6 142 -15 200 -20 135 -10 353 -37 407 -50 23
-6 58 -10 77 -10 20 0 71 -6 113 -14 100 -18 211 -36 293 -46 36 -5 92 -14
125 -20 78 -15 187 -35 300 -55 50 -9 119 -23 155 -30 36 -8 101 -21 145 -30
44 -9 105 -23 135 -30 30 -8 87 -21 125 -30 112 -26 264 -64 360 -90 28 -8 79
-21 115 -31 36 -9 83 -22 105 -29 22 -7 69 -20 105 -30 36 -9 85 -23 110 -31
25 -8 55 -14 66 -14 12 0 35 -7 50 -15 38 -20 104 -20 104 0 0 9 -24 22 -64
34 -36 11 -73 24 -83 29 -10 6 -38 18 -63 27 -25 9 -57 23 -72 31 -14 8 -35
14 -45 14 -10 0 -23 4 -29 9 -5 4 -43 18 -84 31 -41 12 -83 26 -93 31 -10 6
-37 14 -60 19 -68 15 -131 32 -148 40 -9 5 -34 12 -55 15 -22 4 -50 11 -64 16
-14 5 -48 14 -75 19 -28 5 -84 17 -125 25 -145 31 -226 47 -295 57 -38 5 -77
13 -85 18 -9 4 -54 11 -100 14 -47 4 -96 11 -110 16 -14 5 -68 14 -120 19
-263 27 -313 33 -415 46 -60 9 -130 15 -155 15 -61 0 -324 32 -330 41 -3 4
-86 10 -185 14 -99 3 -251 13 -338 21 -86 8 -204 14 -262 14 -58 0 -107 4
-110 10 -3 6 -48 10 -98 11 -51 0 -86 3 -78 6 25 10 -62 33 -126 33 l-63 0 0
31 0 31 218 -7 c119 -4 224 -11 232 -15 8 -4 72 -10 142 -14 104 -5 135 -10
169 -29 23 -12 40 -26 38 -32 -2 -5 -30 -10 -61 -10 -31 0 -59 -3 -62 -6 -6
-5 223 -18 372 -21 34 -1 62 -5 62 -9 0 -4 26 -8 58 -8 31 0 102 -7 157 -15
55 -9 132 -16 170 -16 39 0 86 -4 105 -9 19 -5 116 -15 215 -21 99 -7 185 -16
190 -20 6 -4 60 -10 120 -12 61 -3 86 -3 58 -1 -29 2 -53 8 -53 12 0 5 -54 12
-120 16 -66 4 -120 11 -120 15 0 4 -28 10 -61 13 -34 3 -65 10 -68 15 -3 5
-23 12 -43 16 -21 4 -38 11 -38 16 0 4 -13 11 -30 15 -16 4 -30 10 -30 15 0 5
-13 11 -30 15 -16 4 -30 10 -30 15 0 5 -13 11 -30 15 -16 4 -30 11 -30 16 0 5
-7 9 -15 9 -9 0 -18 6 -21 14 -3 8 -17 17 -32 21 -14 3 -37 18 -49 32 -13 14
-36 26 -51 27 -15 1 -80 37 -144 79 -64 42 -121 77 -126 77 -6 0 -12 7 -16 15
-4 12 0 14 22 9 15 -4 29 -10 32 -13 3 -3 26 -17 53 -31 26 -13 47 -28 47 -32
0 -5 6 -8 14 -8 8 0 28 -13 44 -30 17 -16 35 -30 41 -30 5 0 14 -8 20 -17 5
-10 12 -15 16 -11 8 7 -30 48 -44 48 -5 0 -22 13 -38 28 -15 16 -36 31 -45 35
-10 3 -18 11 -18 16 0 5 -13 12 -30 16 -16 4 -30 10 -30 15 0 5 -13 11 -30 15
-16 4 -30 10 -30 15 0 4 -20 11 -45 14 -25 4 -45 11 -45 16 0 5 -13 11 -30 15
-16 4 -30 11 -30 16 0 5 -11 11 -24 15 -14 3 -27 12 -30 20 -3 8 -12 14 -21
14 -8 0 -15 4 -15 9 0 5 -11 12 -25 15 -14 4 -25 11 -25 16 0 6 -7 10 -15 10
-9 0 -18 6 -21 14 -3 8 -19 18 -35 21 -16 4 -29 11 -29 16 0 5 -11 11 -25 15
-14 3 -25 10 -25 15 0 5 -7 9 -15 9 -9 0 -18 6 -21 14 -3 8 -16 17 -30 20 -13
4 -24 10 -24 15 0 5 -13 12 -30 16 -16 4 -30 11 -30 16 0 5 -7 9 -15 9 -9 0
-18 6 -21 14 -3 8 -16 17 -30 20 -13 4 -24 10 -24 15 0 5 -13 12 -30 16 -16 4
-30 11 -30 16 0 5 -7 9 -15 9 -9 0 -18 6 -21 14 -3 8 -19 18 -35 21 -16 4 -29
10 -29 15 0 5 -13 11 -30 15 -16 4 -30 10 -30 15 0 4 -11 11 -25 14 -14 4 -25
10 -25 15 0 5 -13 12 -29 16 -16 3 -32 13 -35 21 -3 8 -12 14 -21 14 -8 0 -15
4 -15 9 0 5 -13 12 -30 16 -16 4 -30 10 -30 15 0 5 -13 11 -30 15 -16 4 -30
10 -30 15 0 5 -13 11 -30 15 -16 4 -30 10 -30 15 0 4 -11 11 -25 14 -14 4 -25
11 -25 16 0 5 -16 12 -35 16 -19 3 -35 10 -35 14 0 5 -13 11 -30 15 -16 4 -30
10 -30 15 0 5 -13 11 -30 15 -16 4 -30 10 -30 15 0 5 -13 11 -30 15 -16 4 -30
11 -30 16 0 5 -18 12 -40 15 -22 4 -40 10 -40 14 0 5 -13 11 -30 15 -16 4 -30
10 -30 15 0 4 -16 11 -35 14 -19 4 -35 11 -35 16 0 6 -18 13 -40 16 -22 4 -40
10 -40 15 0 4 -16 11 -35 15 -19 3 -35 10 -35 14 0 4 -19 10 -42 14 -23 4 -45
12 -49 17 -3 6 -25 13 -48 16 -22 3 -41 9 -41 14 0 4 -25 11 -55 14 -30 4 -55
11 -55 16 0 4 -22 11 -50 15 -27 4 -50 10 -50 14 0 4 -31 11 -70 14 -38 4 -70
11 -70 16 0 4 -35 11 -77 15 -43 4 -82 11 -88 15 -5 4 -30 10 -54 11 -59 5
-66 -16 -9 -25 24 -4 57 -11 73 -16 17 -5 71 -19 120 -31 127 -31 168 -43 181
-51 6 -4 30 -10 52 -14 23 -4 39 -10 36 -15 -6 -11 -48 -12 -58 -1 -7 7 -73
19 -224 42 -35 5 -80 14 -100 20 -20 5 -50 10 -67 10 -16 0 -68 6 -115 15
-136 23 -311 45 -358 45 -24 0 -62 4 -85 10 -23 5 -96 14 -162 19 -131 10
-365 37 -405 47 -14 3 -74 10 -135 14 -60 5 -153 14 -205 19 -220 24 -537 41
-870 47 -195 4 -364 10 -375 15 -12 5 17 8 75 9 52 0 90 4 83 8 -17 11 -188 7
-388 -8 -209 -16 -235 -17 -295 -5 -50 9 -48 -3 3 -22 31 -12 31 -12 -13 -6
-25 3 -56 10 -70 15 -14 6 -47 14 -75 18 -27 5 -68 13 -90 18 -123 31 -367 57
-635 68 -91 4 -167 10 -170 15 -7 11 -117 17 -210 12z m665 -247 c146 -27 238
-47 273 -62 18 -8 39 -14 47 -14 9 0 23 -4 33 -9 9 -5 53 -27 97 -48 44 -21
86 -43 93 -50 6 -6 21 -15 32 -18 11 -3 20 -11 20 -16 0 -5 6 -9 14 -9 8 0 16
-3 18 -7 2 -5 26 -26 53 -48 122 -97 304 -282 465 -474 25 -30 52 -61 60 -70
9 -9 33 -38 55 -66 22 -27 43 -51 47 -53 5 -2 8 -8 8 -14 0 -6 6 -16 14 -22
20 -17 166 -214 166 -224 0 -6 6 -12 13 -15 6 -3 21 -22 32 -43 11 -22 22 -41
25 -44 15 -15 50 -73 80 -135 19 -38 38 -72 41 -75 14 -11 59 -161 59 -197 l0
-39 -77 8 c-43 3 -121 10 -173 14 -67 5 -87 10 -68 15 14 4 32 11 40 15 28 19
85 34 126 34 23 0 42 1 42 3 -1 7 -27 75 -36 92 -6 11 -19 47 -29 80 -10 33
-24 67 -31 76 -8 8 -14 19 -14 23 0 11 -89 127 -122 158 -15 15 -28 29 -28 32
0 3 -16 22 -36 43 -19 21 -49 57 -66 81 -17 23 -35 42 -40 42 -4 0 -8 6 -8 14
0 8 -4 16 -9 18 -8 3 -46 46 -126 142 -22 27 -53 63 -70 81 -16 18 -55 61 -85
96 -78 90 -256 268 -315 315 -27 21 -60 48 -73 59 -48 41 -198 120 -294 154
-183 66 -377 94 -745 108 l-161 6 -21 -43 c-12 -24 -21 -51 -21 -59 0 -9 -7
-25 -15 -35 -8 -11 -15 -29 -15 -41 0 -12 -4 -25 -9 -30 -4 -6 -18 -44 -31
-85 -12 -41 -28 -90 -36 -108 -8 -18 -14 -40 -14 -48 0 -9 -7 -39 -16 -68 -28
-89 -41 -139 -59 -221 -9 -44 -23 -103 -31 -131 -8 -28 -14 -64 -14 -80 0 -16
-5 -45 -10 -64 -12 -39 -37 -205 -50 -321 -4 -43 -11 -99 -15 -126 l-6 -50 58
-1 c32 -1 103 -5 158 -10 55 -5 222 -10 372 -11 149 -1 345 -6 435 -12 89 -5
278 -14 418 -19 140 -5 302 -14 360 -19 58 -6 147 -10 198 -11 75 0 92 -3 92
-15 0 -12 -15 -15 -77 -15 -73 -1 -77 -2 -58 -16 19 -15 16 -16 -40 -11 -33 3
-170 10 -305 16 -135 6 -339 16 -455 22 -735 36 -2510 41 -3125 8 -102 -5
-288 -14 -415 -19 -257 -11 -715 -36 -815 -46 -83 -7 -140 13 -140 51 0 22 34
102 50 115 3 3 14 22 25 44 11 21 26 40 33 43 6 3 12 9 12 14 0 9 45 70 90
123 90 105 128 145 249 266 75 75 167 162 204 195 38 33 79 70 92 81 13 12 44
37 69 55 25 18 46 36 46 41 0 4 5 8 10 8 6 0 16 5 23 10 32 27 106 78 137 96
19 10 37 22 40 25 5 5 253 127 315 154 46 20 193 71 260 90 33 10 78 23 100
30 140 44 409 104 670 150 50 8 115 20 145 26 30 5 93 14 139 19 47 6 101 15
120 20 20 5 54 10 76 10 21 0 82 7 135 14 267 41 509 55 900 51 243 -3 348 -7
415 -19z m3479 -85 c3 -4 49 -11 103 -15 126 -8 338 -38 558 -76 33 -6 86 -15
118 -20 32 -6 67 -14 77 -20 10 -5 28 -10 40 -10 12 0 51 -13 87 -30 35 -16
71 -30 79 -30 8 0 14 -4 14 -10 0 -5 5 -10 12 -10 13 0 220 -101 228 -112 3
-3 18 -10 33 -13 15 -4 27 -11 27 -15 0 -4 12 -13 28 -19 15 -6 41 -20 57 -30
17 -11 50 -30 75 -43 25 -13 47 -26 50 -29 3 -3 38 -26 78 -50 40 -24 85 -52
100 -62 15 -9 35 -20 45 -23 9 -4 17 -10 17 -14 0 -4 11 -12 24 -18 14 -6 63
-36 110 -66 47 -31 89 -56 95 -56 5 0 11 -3 13 -7 5 -11 66 -53 77 -53 5 0 11
-3 13 -7 4 -9 65 -53 73 -53 9 0 306 -199 331 -221 11 -11 25 -19 31 -19 6 0
13 -3 15 -7 5 -12 66 -53 78 -53 5 0 10 -4 10 -9 0 -5 22 -23 48 -39 26 -16
54 -35 62 -43 8 -8 33 -26 55 -41 22 -15 54 -39 70 -53 40 -33 44 -36 87 -65
61 -41 57 -50 -21 -50 -44 0 -71 4 -73 12 -2 6 -13 12 -24 13 -11 0 -31 9 -44
18 -14 9 -28 17 -32 17 -5 0 -17 8 -27 18 -36 31 -50 42 -59 42 -5 0 -28 14
-51 30 -23 17 -57 38 -76 47 -19 9 -35 20 -35 24 0 4 -13 10 -30 14 -16 4 -30
10 -30 13 0 4 -21 18 -47 32 -27 13 -64 37 -84 52 -20 15 -42 28 -48 28 -12 0
-69 31 -120 66 -20 13 -41 24 -48 24 -7 0 -13 4 -13 10 0 5 -12 13 -27 16 -28
7 -85 42 -91 57 -2 4 -12 7 -22 7 -9 0 -23 7 -30 15 -7 8 -19 15 -26 15 -8 0
-14 4 -14 9 0 5 -8 11 -17 15 -10 3 -25 10 -33 16 -8 5 -26 15 -40 20 -14 6
-38 19 -55 30 -16 11 -39 24 -50 30 -11 6 -33 19 -50 30 -16 11 -39 24 -51 29
-11 5 -51 28 -88 50 -36 23 -70 41 -76 41 -5 0 -24 14 -42 31 -27 25 -39 29
-68 25 -19 -2 -27 -2 -17 0 23 7 22 24 -1 24 -10 0 -34 14 -52 30 -19 17 -45
33 -57 36 -13 4 -23 12 -23 20 0 8 -9 14 -19 14 -11 0 -21 4 -23 9 -5 13 -106
74 -158 95 -41 17 -102 43 -155 67 -11 4 -48 18 -83 29 -35 11 -71 24 -80 29
-31 16 -127 40 -222 56 -52 9 -129 23 -170 31 -42 8 -96 14 -120 15 -25 0 -61
7 -80 14 -32 12 -23 13 85 8 66 -3 124 -9 129 -14 6 -5 24 -9 40 -9 l31 1 -25
14 c-14 8 -33 14 -42 15 -10 0 -57 12 -105 26 -49 14 -104 30 -123 34 -44 9
-121 29 -180 45 l-45 13 57 1 c31 1 59 -3 62 -8z m138 -701 c4 0 8 -7 8 -15 0
-9 6 -18 14 -21 8 -3 18 -19 21 -35 4 -16 11 -29 16 -29 5 0 11 -11 15 -25 3
-14 10 -25 15 -25 5 0 9 -7 9 -15 0 -9 6 -18 14 -21 8 -3 18 -19 21 -35 4 -16
10 -29 15 -29 4 0 11 -11 14 -25 4 -14 10 -25 15 -25 5 0 12 -13 16 -30 4 -16
10 -30 15 -30 5 0 11 -13 15 -30 4 -16 10 -30 15 -30 5 0 11 -13 15 -30 4 -16
10 -30 15 -30 5 0 11 -13 15 -30 4 -16 10 -30 15 -30 5 0 11 -13 15 -30 4 -16
10 -30 15 -30 5 0 11 -13 15 -30 4 -16 10 -30 15 -30 4 0 10 -9 13 -20 4 -14
0 -20 -11 -20 -12 0 -46 59 -112 193 -52 105 -113 224 -135 262 -23 39 -44 77
-48 85 -4 8 -17 31 -28 50 -46 74 -69 124 -68 144 1 18 3 17 12 -6 6 -16 14
-28 19 -28z m-152 -30 c10 -9 31 -45 43 -72 6 -16 15 -28 19 -28 4 0 8 -6 8
-14 0 -8 6 -21 13 -28 6 -7 22 -33 35 -58 13 -25 48 -92 77 -149 30 -58 57
-117 60 -133 4 -15 11 -28 16 -28 5 0 9 -6 9 -12 1 -7 9 -31 20 -53 11 -22 19
-46 20 -52 0 -7 5 -13 10 -13 6 0 10 -9 10 -20 0 -16 -7 -20 -30 -20 -18 0
-30 5 -30 13 0 15 -155 326 -170 341 -6 6 -10 18 -10 28 0 10 -4 18 -8 18 -5
0 -16 15 -25 33 -9 17 -30 55 -46 82 -65 108 -72 124 -61 144 5 11 10 32 11
48 l0 28 12 -25 c6 -14 14 -27 17 -30z m-7910 -668 c0 -102 -9 -120 -75 -151
-56 -26 -63 -26 -98 2 -21 16 -26 27 -21 41 7 19 8 19 16 0 6 -14 7 -12 3 9
-6 31 12 61 85 139 28 30 53 48 67 48 22 0 23 -3 23 -88z m9500 -81 c217 -6
409 -12 425 -14 17 -2 -127 -4 -320 -5 -341 0 -764 11 -995 27 -161 11 384 6
890 -8z m-5585 -201 c127 -6 365 -14 530 -19 165 -6 381 -14 480 -20 99 -6
295 -18 435 -26 140 -8 325 -20 410 -26 85 -6 206 -13 267 -16 80 -4 116 -10
124 -20 10 -12 2 -13 -57 -8 -38 3 -87 8 -109 11 -22 3 -112 9 -200 14 -88 5
-223 13 -300 19 -183 14 -489 29 -800 41 -137 5 -347 14 -465 20 -442 21
-1457 31 -2113 20 -348 -5 -723 -15 -835 -21 -111 -5 -223 -7 -247 -3 -27 4
-45 2 -45 -3 0 -6 -71 -13 -172 -16 -95 -4 -206 -9 -245 -13 -45 -4 -73 -3
-73 3 0 10 269 27 715 44 143 5 341 13 440 18 262 12 1990 12 2260 1z m2563
-140 c131 -9 240 -18 472 -41 63 -6 167 -15 230 -19 63 -4 160 -13 215 -19 55
-5 170 -17 255 -26 203 -20 404 -43 510 -56 47 -6 123 -15 170 -19 47 -5 117
-13 155 -19 39 -5 124 -17 190 -26 66 -9 159 -22 206 -30 47 -8 103 -15 124
-15 27 0 36 -3 29 -10 -7 -7 -34 -7 -85 0 -210 31 -275 40 -394 54 -491 58
-806 93 -910 102 -52 4 -271 26 -460 44 -60 6 -139 13 -175 16 -36 2 -141 11
-235 19 -215 19 -418 35 -517 42 -43 3 -78 10 -78 16 0 6 29 8 83 3 45 -4 142
-11 215 -16z m3887 -650 c33 -5 112 -14 175 -20 63 -6 162 -18 220 -25 58 -8
141 -19 185 -25 44 -5 87 -13 95 -16 15 -6 144 -26 275 -44 39 -5 86 -13 105
-19 19 -5 69 -15 110 -21 41 -6 111 -18 155 -26 44 -8 107 -19 140 -24 33 -6
67 -13 75 -16 15 -6 107 -26 210 -44 30 -6 62 -13 70 -17 13 -6 45 -14 150
-40 36 -8 60 -37 60 -72 0 -35 -64 -162 -101 -202 -31 -33 -50 -36 -75 -12
-15 16 -17 16 -29 0 -10 -14 -32 -17 -144 -17 -124 0 -131 1 -131 20 0 18 7
20 88 20 75 0 91 3 114 23 28 23 88 127 88 152 0 18 -52 42 -110 50 -25 4 -67
13 -94 21 -27 8 -63 14 -80 15 l-31 1 35 12 35 13 -63 8 c-35 4 -66 4 -69 1
-4 -3 11 -6 32 -6 21 0 36 -3 33 -6 -4 -3 -38 -2 -76 2 -57 5 -71 10 -75 25
-4 13 -14 19 -36 19 -17 0 -31 4 -31 9 0 4 -33 12 -72 16 -40 3 -77 10 -83 13
-12 8 -126 28 -260 45 -55 6 -104 15 -110 18 -5 4 -46 10 -90 14 -44 4 -87 11
-95 15 -8 4 -51 10 -95 13 -52 3 -73 2 -60 -4 14 -6 3 -8 -35 -4 -30 3 -73 5
-95 6 -23 1 -31 4 -17 6 41 8 23 21 -35 25 -33 2 -61 -1 -65 -7 -5 -6 -11 -6
-20 3 -6 6 -31 12 -54 12 -24 0 -45 4 -48 8 -3 5 -56 12 -118 16 -120 7 -218
24 -218 38 0 4 5 8 12 8 6 0 8 3 5 6 -3 4 -22 -1 -41 -10 -38 -18 -82 -21 -91
-6 -3 6 -21 11 -38 11 -28 1 -26 2 13 10 25 5 63 13 85 18 44 10 227 5 320 -9z
m-382 -123 c86 -6 157 -15 157 -19 0 -4 14 -8 30 -8 27 0 30 -3 30 -33 0 -18
-7 -42 -15 -53 -8 -10 -15 -27 -15 -38 0 -15 -6 -17 -32 -13 -20 3 -39 -1 -48
-8 -12 -11 -29 -11 -90 0 -41 8 -97 14 -123 14 -44 1 -52 5 -97 51 -126 128
-123 129 203 107z m867 -137 c0 -5 9 -10 19 -10 11 0 22 -4 25 -8 9 -15 -6
-89 -24 -112 -16 -21 -20 -22 -34 -11 -12 10 -22 11 -39 4 -32 -15 -179 -2
-185 15 -2 7 5 16 17 19 12 3 21 13 21 25 0 11 5 28 10 38 7 13 7 21 0 25 -28
17 -1 25 90 25 60 0 100 -4 100 -10z m3804 -58 c10 -26 24 -60 31 -77 26 -65
54 -176 84 -330 10 -53 3 -72 -23 -62 -11 5 -16 20 -16 50 0 24 -7 66 -15 93
-8 27 -15 59 -15 71 0 12 -6 42 -14 65 -7 24 -24 78 -37 121 -13 42 -27 77
-31 77 -4 0 -8 9 -8 20 0 36 25 21 44 -28z m-3147 -72 c-3 -11 -1 -20 4 -20 5
0 9 5 9 10 0 6 14 10 30 10 27 0 30 -3 30 -30 0 -38 -31 -99 -50 -100 -9 0
-21 5 -28 12 -9 9 -15 9 -24 0 -17 -17 -142 -16 -157 2 -7 8 -8 17 -3 20 5 3
12 24 16 47 6 36 9 41 29 35 12 -3 33 -6 46 -6 21 0 23 -3 17 -32 -5 -31 -5
-32 9 -14 18 24 20 56 3 56 -8 0 -8 3 -2 9 8 8 25 13 68 20 4 0 6 -8 3 -19z
m3272 -467 c6 -32 14 -159 17 -283 l5 -225 -19 70 c-11 40 -22 123 -25 195 -4
69 -11 141 -17 160 -5 19 -10 59 -10 87 0 45 3 53 19 53 14 0 21 -12 30 -57z"/>
<path d="M11065 10743 c-260 -15 -847 -100 -1161 -168 -40 -8 -80 -15 -90 -15
-9 0 -40 -6 -68 -14 -28 -8 -78 -21 -111 -30 -134 -33 -191 -49 -215 -58 -14
-6 -41 -14 -60 -18 -43 -10 -97 -28 -132 -46 -14 -8 -35 -14 -45 -14 -10 0
-23 -4 -29 -9 -5 -5 -27 -14 -49 -21 -22 -7 -75 -30 -119 -51 -43 -22 -84 -39
-92 -39 -7 0 -28 -13 -46 -30 -18 -16 -38 -30 -44 -30 -7 0 -14 -3 -16 -7 -5
-11 -66 -53 -77 -53 -5 0 -11 -4 -13 -9 -1 -5 -27 -27 -57 -49 -157 -118 -380
-340 -504 -502 -27 -36 -53 -66 -58 -68 -5 -2 -9 -8 -9 -14 0 -6 -12 -27 -27
-47 -42 -55 -93 -147 -93 -167 0 -4 -10 -15 -22 -25 -20 -18 -20 -20 -5 -37
10 -10 17 -24 17 -30 0 -28 40 -33 183 -23 429 31 1230 67 1707 76 151 3 336
10 410 15 74 5 180 12 235 15 141 9 145 10 145 44 0 27 13 78 45 182 8 26 15
55 15 65 0 11 7 32 15 48 8 15 15 35 15 44 0 18 96 310 110 334 6 10 10 23 10
29 0 6 14 40 30 76 17 35 30 69 30 74 0 5 4 17 9 27 26 48 51 104 51 112 0 13
52 127 135 293 67 133 72 147 52 145 -12 -1 -44 -3 -72 -5z"/>
<path d="M9533 10763 c-13 -2 -23 -8 -23 -13 0 -5 -25 -12 -55 -15 -30 -4 -55
-11 -55 -16 0 -4 -20 -11 -45 -15 -25 -3 -45 -10 -45 -15 0 -4 -20 -11 -45
-15 -25 -3 -45 -10 -45 -14 0 -4 -16 -11 -35 -14 -19 -4 -35 -11 -35 -15 0 -5
-18 -11 -40 -15 -22 -3 -40 -10 -40 -15 0 -5 -16 -12 -35 -15 -19 -4 -35 -11
-35 -16 0 -6 -18 -13 -40 -16 -22 -4 -40 -10 -40 -14 0 -5 -13 -11 -30 -15
-16 -4 -30 -10 -30 -15 0 -5 -13 -11 -30 -15 -16 -4 -30 -10 -30 -15 0 -5 -13
-11 -30 -15 -16 -4 -30 -10 -30 -15 0 -5 -13 -11 -30 -15 -16 -4 -30 -10 -30
-15 0 -5 -13 -11 -30 -15 -16 -4 -30 -11 -30 -16 0 -5 -7 -9 -15 -9 -9 0 -18
-6 -21 -14 -3 -8 -17 -17 -31 -21 -14 -3 -33 -13 -41 -22 -15 -14 -14 -15 8
-8 14 4 27 12 28 16 2 5 10 9 17 9 8 0 20 6 27 13 7 7 36 24 63 38 28 13 52
27 55 31 3 3 18 10 33 13 15 4 27 11 27 15 0 5 14 11 30 15 17 4 30 11 30 16
0 5 6 9 13 9 6 1 30 9 52 20 22 11 48 19 58 20 9 0 17 5 17 10 0 6 6 10 13 10
6 1 30 9 52 20 22 11 48 19 58 20 9 0 17 4 17 9 0 6 21 13 47 17 26 4 53 13
61 20 7 8 21 14 31 14 9 0 21 4 27 9 5 6 27 14 49 20 109 28 152 40 178 50 16
6 42 11 58 11 31 0 39 14 13 24 -9 3 -16 5 -17 5 -1 -1 -12 -4 -24 -6z"/>
<path d="M20063 9053 c20 -2 37 -8 37 -12 0 -5 32 -11 72 -15 40 -4 75 -10 78
-15 3 -5 61 -13 130 -19 216 -20 365 -37 375 -43 6 -4 60 -9 120 -11 61 -3 86
-3 58 -1 -29 2 -53 8 -53 12 0 5 -54 12 -120 16 -66 4 -120 11 -120 15 0 4
-56 11 -125 15 -69 4 -125 11 -125 15 0 4 -44 10 -97 14 -54 4 -100 11 -103
15 -3 5 -41 11 -85 13 -44 3 -63 3 -42 1z"/>
<path d="M21480 9010 c0 -5 -6 -10 -14 -10 -25 0 -66 -49 -76 -92 -12 -53 -12
-67 -1 -49 6 10 13 -3 21 -42 11 -47 18 -58 40 -66 23 -8 32 -5 60 19 18 15
30 32 26 38 -7 12 26 19 65 14 30 -4 59 -46 43 -62 -7 -7 -18 -3 -32 10 -35
33 -26 8 13 -36 l35 -39 0 62 0 61 43 -5 c23 -4 44 -9 47 -13 3 -4 38 -11 78
-15 39 -4 72 -11 72 -16 0 -5 18 -9 40 -9 68 0 44 17 -35 25 -41 4 -75 10 -75
15 0 4 -32 11 -71 14 -76 8 -94 18 -104 59 -7 27 -30 42 -41 26 -3 -6 -16 1
-30 17 -14 14 -28 23 -32 19 -4 -3 1 -11 11 -16 9 -6 17 -17 17 -24 0 -8 4
-15 9 -15 5 0 11 -9 14 -20 4 -17 2 -20 -16 -14 -29 9 -42 24 -51 57 -3 15
-11 27 -16 27 -6 0 -10 5 -10 10 0 6 6 10 14 10 8 0 16 4 18 10 6 18 48 -2 54
-26 6 -23 24 -34 24 -14 0 13 -32 50 -43 50 -5 0 -15 7 -23 15 -9 8 -24 15
-35 15 -10 0 -19 5 -19 10 0 6 -4 10 -10 10 -5 0 -10 -4 -10 -10z"/>
<path d="M6160 8641 c0 -5 -12 -11 -27 -15 -21 -4 -34 -18 -52 -57 -27 -59
-42 -54 -43 14 -1 46 -14 48 -31 5 -3 -10 -11 -18 -16 -18 -5 0 -12 -13 -16
-30 -4 -16 -10 -30 -15 -30 -5 0 -11 -13 -15 -30 -4 -16 -10 -30 -15 -30 -5 0
-11 -13 -15 -30 -4 -16 -10 -30 -15 -30 -4 0 -11 -20 -14 -45 -4 -25 -11 -45
-16 -45 -5 0 -12 -20 -16 -45 -3 -25 -10 -45 -15 -45 -5 0 -9 -11 -9 -25 0
-14 5 -25 10 -25 6 0 10 9 10 21 0 11 9 39 20 63 17 39 32 55 111 121 28 24
143 95 154 95 3 0 14 7 23 16 15 15 17 15 24 -2 6 -13 7 -8 3 15 -3 18 -5 62
-5 97 0 36 -4 64 -10 64 -5 0 -10 -4 -10 -9z"/>
<path d="M15760 8071 c-36 -4 -81 -12 -100 -18 -117 -37 -152 -50 -215 -80
-38 -18 -83 -42 -100 -53 -16 -11 -40 -25 -52 -31 -13 -7 -23 -16 -23 -21 0
-4 -4 -8 -9 -8 -27 0 -261 -233 -261 -260 0 -5 -3 -10 -7 -12 -11 -5 -53 -66
-53 -77 0 -5 -3 -11 -8 -13 -14 -6 -77 -122 -111 -203 -18 -44 -38 -93 -45
-110 -39 -92 -93 -310 -123 -495 -25 -160 -25 -728 0 -864 9 -49 15 -91 13
-93 -3 -4 -87 5 -342 37 -45 6 -155 15 -245 21 -90 5 -188 14 -218 19 -30 6
-80 10 -110 10 -31 0 -126 7 -211 15 -85 8 -238 21 -340 30 -102 9 -257 22
-345 30 -88 8 -241 21 -340 30 -99 9 -254 22 -345 30 -91 8 -244 22 -340 30
-562 49 -844 75 -960 86 -58 6 -143 13 -190 16 -47 2 -92 7 -100 10 -8 4 -19
5 -24 4 -5 -1 -61 3 -125 9 -64 5 -195 17 -291 25 -96 9 -247 22 -335 30 -88
8 -236 22 -330 30 -93 8 -219 20 -280 26 -60 6 -164 15 -230 19 -66 4 -154 13
-195 19 -41 6 -115 13 -165 15 -49 2 -97 7 -105 10 -24 8 -164 25 -169 20 -2
-2 1 -4 8 -4 7 0 27 -6 44 -14 83 -36 376 -72 867 -106 63 -4 160 -13 215 -19
117 -13 298 -29 475 -41 69 -5 163 -14 210 -19 88 -11 267 -26 475 -41 66 -5
161 -13 210 -19 100 -12 266 -26 485 -41 80 -6 167 -15 193 -20 26 -6 78 -10
115 -10 37 -1 101 -5 142 -11 41 -5 134 -13 206 -18 71 -5 175 -14 230 -20
121 -14 295 -29 470 -41 73 -5 160 -14 195 -20 35 -5 87 -10 114 -10 46 0 126
-7 520 -45 83 -9 177 -17 210 -19 87 -5 314 -25 430 -37 55 -5 165 -14 245
-19 80 -5 159 -11 175 -14 17 -3 46 -8 66 -11 30 -4 38 -11 42 -33 26 -127 40
-181 71 -270 l35 -103 -62 6 c-34 4 -75 11 -92 16 -16 4 -64 13 -105 19 -41 5
-104 14 -140 20 -36 5 -99 15 -140 21 -41 6 -111 15 -155 20 -44 4 -129 15
-190 23 -135 19 -151 21 -245 30 -41 4 -129 13 -195 21 -66 8 -190 21 -275 30
-85 9 -191 20 -235 25 -44 6 -135 14 -203 20 -68 5 -133 12 -145 15 -12 2 -80
9 -152 15 -71 6 -143 12 -160 15 -16 3 -75 7 -130 10 -55 3 -127 10 -160 15
-33 5 -100 11 -150 15 -49 3 -160 12 -245 20 -148 13 -459 39 -620 50 -41 3
-100 8 -130 10 -30 3 -122 10 -205 15 -82 5 -204 14 -271 19 -66 6 -158 11
-205 12 -46 1 -109 5 -139 10 -30 5 -152 14 -270 20 -118 5 -228 12 -245 13
-16 2 -97 6 -180 10 -191 8 -342 17 -378 21 -27 3 -168 9 -512 21 -198 7 -204
8 -232 74 -49 117 -129 417 -120 451 3 10 -1 23 -9 30 -8 6 -14 21 -14 32 0
11 -6 46 -14 76 -8 31 -22 92 -31 136 -10 44 -22 94 -27 110 -5 17 -13 50 -18
75 -16 83 -83 315 -106 368 -8 18 -14 39 -14 46 0 12 -12 44 -57 146 -27 61
-105 215 -111 220 -4 3 -16 22 -27 44 -11 21 -26 40 -32 43 -7 3 -13 11 -13
18 0 7 -3 15 -7 17 -5 2 -34 33 -65 69 -59 68 -194 169 -226 169 -10 0 -22 4
-28 10 -9 9 -66 24 -147 37 -70 11 -220 -30 -312 -85 -62 -38 -178 -149 -207
-198 -155 -269 -208 -470 -223 -849 -8 -180 14 -381 65 -610 5 -22 12 -68 16
-102 5 -54 4 -63 -10 -63 -20 0 -21 -16 -1 -24 10 -4 15 -20 15 -51 0 -25 4
-45 9 -45 5 0 12 -25 16 -55 3 -30 10 -55 14 -55 5 0 11 -22 15 -50 4 -27 11
-50 16 -50 5 0 13 -18 16 -40 4 -22 10 -40 14 -40 5 0 11 -13 15 -30 4 -16 10
-30 15 -30 5 0 11 -13 15 -30 4 -17 12 -30 18 -30 8 0 8 -3 -1 -9 -8 -4 -25
-7 -40 -5 -15 1 -30 -3 -34 -9 -5 -8 -8 -6 -8 6 0 9 -4 17 -10 17 -5 0 -10 -8
-10 -17 0 -15 -2 -16 -10 -3 -8 12 -11 13 -19 1 -7 -11 -9 -11 -14 0 -4 12 -7
11 -16 -1 -9 -13 -11 -13 -11 3 0 9 -4 17 -10 17 -5 0 -10 -7 -10 -15 0 -18
-12 -19 -28 -3 -9 9 -12 9 -12 0 0 -16 -27 -15 -33 1 -4 9 -8 8 -16 -3 -10
-13 -13 -12 -27 5 -16 20 -16 20 -12 -1 5 -18 2 -21 -16 -16 -11 3 -27 9 -33
15 -9 7 -13 5 -13 -5 0 -10 -10 -15 -30 -14 -17 1 -30 7 -30 14 0 16 -17 15
-23 -2 -8 -21 -54 -17 -60 5 -3 11 -11 19 -19 18 -10 0 -10 -2 0 -6 6 -2 12
-10 12 -17 0 -18 -80 -17 -87 1 -3 7 -10 13 -15 13 -7 0 -6 -5 1 -14 9 -11 3
-14 -36 -13 -27 0 -59 -3 -73 -7 -19 -6 -22 -5 -10 4 12 8 9 9 -13 4 -20 -5
-34 -1 -49 12 -20 19 -21 19 -14 -1 5 -17 1 -20 -22 -20 -15 -1 -30 4 -34 10
-5 7 -8 6 -8 -1 0 -14 -68 -13 -89 0 -9 6 -18 4 -26 -7 -14 -20 -31 -22 -38
-4 -4 9 -8 9 -15 -2 -8 -11 -10 -11 -15 0 -3 11 -9 9 -21 -6 -16 -20 -16 -20
-31 -1 -15 20 -15 20 -30 0 -14 -18 -16 -18 -29 -1 -16 20 -26 22 -26 5 0 -8
-14 -13 -35 -13 -21 0 -35 5 -35 13 0 6 -4 12 -10 12 -5 0 -10 -6 -10 -13 0
-10 -16 -14 -60 -13 -33 1 -60 -1 -60 -5 0 -4 -9 -5 -20 -2 -11 3 -20 0 -20
-6 0 -8 -6 -7 -20 1 -17 11 -22 10 -30 -2 -8 -12 -10 -12 -10 -1 0 7 -6 11
-15 7 -8 -3 -15 -1 -15 4 0 6 -4 10 -10 10 -5 0 -10 -7 -10 -15 0 -18 -12 -19
-28 -3 -9 9 -12 9 -12 0 0 -7 -7 -12 -15 -12 -8 0 -15 5 -15 12 0 6 -9 3 -20
-7 -20 -18 -21 -18 -41 3 -24 27 -29 27 -23 5 4 -15 -2 -18 -40 -19 -34 -1
-46 2 -49 15 -3 11 -5 9 -6 -6 -1 -25 -11 -29 -29 -11 -8 8 -15 8 -27 -2 -12
-10 -18 -10 -31 1 -14 11 -18 11 -29 -4 -8 -12 -15 -14 -20 -8 -4 7 -12 5 -23
-6 -15 -15 -17 -15 -20 -1 -2 9 -10 19 -18 22 -9 4 -12 2 -8 -5 4 -6 0 -15 -7
-20 -20 -13 -27 -11 -32 9 -4 14 -5 14 -6 1 -1 -11 -10 -16 -28 -16 -15 0 -33
7 -40 16 -11 14 -12 12 -13 -13 0 -23 -3 -26 -14 -17 -11 9 -15 9 -19 -1 -4
-8 -6 -7 -6 5 -1 25 -21 21 -21 -5 -1 -20 -2 -21 -11 -6 -9 16 -11 16 -28 -1
-10 -10 -21 -25 -24 -32 -4 -10 -6 -10 -6 3 -1 9 -4 18 -8 21 -5 2 -3 3 2 1 6
-1 11 6 11 16 0 25 -21 14 -36 -18 -12 -26 -12 -26 -20 -6 -10 24 -30 41 -30
25 0 -6 5 -11 10 -11 6 0 10 -9 10 -20 0 -25 -17 -26 -23 -2 -4 16 -5 16 -6 0
-2 -26 -19 -22 -24 5 l-4 22 -2 -22 c-1 -27 -16 -30 -30 -6 -5 10 -12 15 -16
11 -4 -3 3 -16 15 -28 17 -17 24 -19 30 -10 6 9 9 9 14 -1 5 -11 7 -11 12 -2
4 10 9 9 21 -2 13 -13 13 -18 1 -32 -11 -15 -11 -16 5 -10 12 5 17 1 17 -13 0
-37 20 -20 21 18 1 20 4 27 6 16 5 -27 53 -31 53 -5 0 9 8 1 17 -18 14 -28 18
-31 23 -16 5 16 8 16 16 4 4 -8 9 -20 9 -28 0 -8 7 -16 15 -18 13 -4 13 -3 0
6 -13 10 -13 12 0 21 8 5 21 10 28 10 6 0 12 5 12 11 0 6 6 4 14 -4 10 -9 32
-13 65 -12 39 2 51 -1 51 -13 0 -11 3 -12 14 -3 11 10 15 8 19 -6 4 -14 5 -13
6 5 1 23 21 32 21 9 0 -7 7 -22 16 -33 15 -18 15 -18 10 11 -3 17 -3 24 0 17
5 -10 9 -10 20 -1 11 9 14 8 14 -4 0 -23 26 -41 33 -23 4 11 1 13 -11 9 -14
-6 -15 -5 -2 9 8 9 17 12 18 7 2 -5 11 -9 19 -9 10 0 14 -6 10 -19 -3 -14 -1
-18 10 -14 10 4 13 14 9 32 -5 21 -4 23 4 9 7 -12 20 -16 39 -14 19 2 32 -3
40 -15 7 -13 8 -19 0 -19 -5 0 -7 -5 -4 -11 9 -14 17 -4 19 22 1 28 23 36 29
12 4 -17 5 -17 6 0 2 31 21 18 22 -15 2 -28 2 -29 6 -8 3 14 10 28 16 32 13 8
37 -1 37 -14 0 -6 -6 -5 -15 2 -8 7 -15 8 -15 3 0 -5 8 -16 18 -24 17 -15 20
-14 38 7 22 27 34 30 34 9 0 -8 -4 -15 -10 -15 -15 0 -12 -20 7 -38 16 -16 16
-16 10 1 -8 21 2 77 14 77 5 0 10 -17 10 -37 1 -21 4 -29 6 -19 3 11 11 26 19
34 12 11 14 11 14 -6 0 -11 6 -25 14 -31 11 -9 14 -9 13 1 -2 54 18 67 25 17
3 -19 -1 -36 -10 -46 -13 -13 -13 -16 1 -30 15 -15 16 -14 11 5 -4 13 1 27 15
38 12 10 21 29 21 41 0 30 16 30 24 1 3 -15 0 -27 -9 -34 -19 -14 -19 -22 0
-40 8 -8 11 -22 8 -31 -6 -15 -5 -16 9 -3 15 14 15 17 1 32 -9 10 -13 24 -10
33 8 18 27 20 27 2 0 -7 9 -21 21 -31 12 -10 19 -25 16 -36 -3 -13 0 -17 9
-13 21 8 17 24 -13 55 -18 19 -24 31 -17 36 6 4 14 14 17 22 3 9 6 5 6 -11 1
-24 51 -85 51 -62 0 6 -7 13 -15 17 -9 3 -15 17 -14 33 1 15 3 21 6 12 2 -10
14 -16 29 -16 24 0 24 0 8 18 -20 23 -12 26 10 4 19 -20 10 -51 -10 -34 -9 8
-14 8 -14 1 0 -21 22 -24 40 -4 12 13 15 23 9 29 -7 7 -5 12 5 16 10 4 13 1 9
-8 -3 -8 2 -18 11 -21 19 -7 22 -50 4 -57 -10 -4 -10 -6 0 -6 15 -1 16 -31 1
-31 -5 0 -7 -5 -3 -11 8 -13 26 13 23 33 -4 37 2 98 11 98 6 0 11 -21 12 -47
1 -44 2 -45 5 -10 2 20 8 37 12 37 12 0 20 -49 15 -88 -3 -27 -1 -30 10 -20
10 9 11 17 4 26 -7 8 -7 12 1 12 6 0 11 7 11 16 0 14 2 14 16 3 11 -9 12 -15
4 -17 -13 -5 16 -42 33 -42 6 0 4 6 -5 13 -20 15 -18 54 2 67 11 7 12 12 4 18
-9 5 -7 11 4 22 14 13 15 12 9 -3 -3 -9 1 -23 9 -32 22 -22 28 -94 9 -101 -17
-7 -21 -34 -5 -34 6 0 10 5 10 12 0 6 7 20 17 30 11 13 12 18 3 18 -10 0 -10
3 0 15 10 12 10 19 2 27 -16 16 -15 45 1 51 10 4 13 -2 9 -20 -3 -18 1 -30 14
-40 16 -12 17 -15 4 -23 -8 -5 -10 -10 -5 -10 6 0 18 9 27 19 14 16 14 22 3
31 -10 8 -14 8 -17 -2 -3 -9 -6 -9 -12 0 -4 7 -2 12 3 12 6 0 11 8 12 18 0 13
2 14 6 2 4 -8 12 -21 20 -28 17 -18 17 -41 -2 -48 -8 -4 -15 -17 -15 -30 0
-12 -7 -27 -16 -32 -14 -8 -14 -10 1 -22 13 -11 15 -10 10 2 -3 8 1 21 10 28
8 7 15 20 15 30 0 10 7 23 15 30 17 14 20 46 5 53 -6 3 -5 4 2 3 8 -2 13 -20
13 -48 0 -25 6 -52 13 -60 10 -13 10 -17 0 -21 -9 -4 -9 -6 -1 -6 20 -2 24 16
8 32 -17 18 -20 37 -5 37 14 0 12 64 -2 78 -9 9 -9 12 0 12 6 0 14 -12 18 -27
3 -16 9 -37 14 -48 4 -11 11 -28 14 -37 3 -10 11 -18 18 -17 10 0 10 2 1 6
-15 5 -18 43 -4 43 5 0 11 -9 14 -20 3 -11 11 -20 17 -20 10 0 10 4 0 15 -10
13 -10 19 4 33 9 10 16 24 16 30 0 24 19 11 25 -18 8 -35 22 -39 28 -7 l4 22
2 -22 c0 -13 5 -23 10 -23 16 0 19 40 4 55 -8 8 -11 15 -6 15 5 0 16 -9 26
-20 9 -11 12 -20 7 -20 -6 0 -10 -7 -10 -16 0 -11 5 -14 16 -10 13 5 15 1 9
-21 -3 -15 -11 -31 -17 -34 -6 -4 -5 -9 3 -12 11 -5 10 -8 -3 -17 -10 -6 -18
-15 -18 -21 0 -5 9 -1 21 10 12 11 19 24 16 28 -3 5 1 22 9 38 11 21 11 31 3
41 -8 10 -8 14 0 14 14 0 25 -44 18 -71 -4 -16 -3 -18 9 -8 16 13 19 75 4 82
-6 3 -5 4 2 3 7 -1 14 -17 16 -34 2 -18 7 -32 12 -32 5 0 10 -6 13 -12 2 -7 2
-2 0 11 -2 14 3 30 15 42 19 17 19 17 19 -9 0 -15 -2 -21 -4 -14 -3 6 -9 12
-15 12 -6 0 -6 -6 2 -15 6 -8 12 -29 13 -46 1 -18 8 -34 15 -35 7 -1 8 0 2 3
-14 6 -13 33 1 33 8 0 7 5 -2 16 -8 10 -9 18 -2 22 5 4 13 14 16 22 4 12 6 12
6 -1 1 -9 8 -19 16 -23 8 -3 15 -10 15 -16 0 -6 -7 -4 -16 4 -22 23 -30 20 -9
-4 9 -10 18 -33 20 -49 1 -17 7 -37 14 -45 9 -11 9 -15 -1 -19 -9 -4 -9 -6 -1
-6 19 -1 24 16 9 32 -11 10 -12 17 -4 25 8 8 8 15 -2 27 -11 13 -10 18 4 33 9
10 16 24 16 30 0 7 5 12 10 12 15 0 12 -47 -2 -53 -10 -3 -9 -9 4 -22 16 -17
17 -17 11 3 -6 25 0 28 20 8 12 -13 14 -10 14 17 1 24 -1 27 -6 13 -6 -15 -10
-16 -16 -7 -4 7 -3 16 2 20 6 3 13 13 16 21 4 12 6 12 6 -2 1 -9 6 -18 11 -20
6 -2 11 -17 13 -35 2 -29 3 -30 20 -16 9 9 16 23 16 32 -1 13 -2 13 -6 -1 -5
-22 -23 -24 -23 -3 0 8 5 15 11 15 8 0 8 5 -1 15 -7 9 -8 15 -2 15 5 0 13 -7
16 -16 3 -9 12 -14 20 -11 19 8 12 -44 -8 -55 -9 -5 -16 -17 -15 -26 0 -13 2
-14 6 -3 3 8 16 24 28 35 12 12 25 28 29 36 3 8 4 -4 1 -27 -4 -33 -1 -44 12
-52 15 -9 15 -12 4 -20 -11 -7 -11 -9 0 -14 10 -4 11 -8 3 -14 -9 -6 -8 -11 1
-20 18 -17 15 58 -4 80 -9 12 -10 21 -3 30 5 6 12 23 15 37 3 16 5 10 6 -17 1
-47 18 -59 23 -16 l3 27 15 -28 c12 -24 12 -28 0 -36 -9 -6 -10 -10 -3 -10 6
0 13 -8 16 -17 2 -10 4 -3 4 15 0 18 3 35 6 38 11 11 28 -8 22 -23 -5 -13 -3
-14 10 -3 15 12 15 14 1 22 -9 5 -16 21 -15 36 0 16 3 21 6 12 3 -8 17 -25 30
-37 24 -23 30 -43 13 -43 -5 0 -10 -7 -10 -15 0 -27 18 -16 25 15 4 17 11 30
17 30 6 0 6 6 -2 15 -13 16 -4 20 29 15 13 -1 13 1 2 14 -9 11 -10 16 -2 16
11 0 15 -13 12 -37 -1 -7 5 -13 14 -13 14 0 21 -36 16 -79 -2 -11 0 -11 12 0
8 8 12 19 7 24 -13 18 -20 74 -9 81 11 6 49 -28 49 -45 0 -6 8 -15 18 -20 15
-9 15 -12 2 -20 -8 -6 -11 -13 -7 -18 10 -10 28 18 22 34 -2 7 2 18 9 25 7 8
16 20 19 28 3 8 5 -7 4 -34 -1 -37 2 -50 13 -53 12 -4 12 -3 1 5 -10 7 -10 11
-1 17 8 5 9 10 2 14 -7 4 -5 13 4 25 14 19 14 19 14 -2 0 -12 4 -22 9 -22 5 0
11 -9 14 -20 3 -11 11 -20 19 -19 10 0 10 2 1 6 -18 7 -16 30 2 37 10 4 15 -1
15 -14 0 -11 5 -20 10 -20 13 0 13 -27 0 -33 -6 -3 -5 -4 2 -3 15 4 13 63 -3
82 -15 18 18 26 36 8 8 -9 15 -23 14 -32 0 -13 -2 -12 -9 4 -9 24 -30 41 -30
26 0 -6 8 -20 18 -32 16 -20 19 -21 31 -6 11 13 11 19 1 31 -10 11 -9 18 3 30
14 14 16 13 14 -11 -2 -32 18 -43 26 -14 7 26 27 26 34 0 3 -11 10 -20 17 -19
24 3 36 -2 36 -14 0 -15 41 -57 55 -57 5 0 2 6 -7 13 -11 8 -14 23 -11 50 3
20 9 37 14 37 8 0 14 -37 10 -67 -3 -23 21 -25 42 -2 15 16 22 19 25 9 3 -7
-3 -19 -14 -27 -10 -7 -13 -13 -7 -13 5 0 18 9 28 20 14 16 15 22 5 35 -10 11
-9 17 2 29 13 12 15 7 14 -37 -1 -29 -6 -52 -13 -54 -13 -5 15 -43 31 -43 5 0
1 8 -8 19 -15 16 -15 20 -2 33 8 8 16 28 18 43 2 16 9 30 16 31 7 1 8 0 2 -3
-15 -7 -12 -52 5 -69 13 -13 14 -11 8 18 l-6 33 22 -27 c13 -16 19 -33 15 -40
-5 -9 -2 -9 9 1 16 13 16 14 0 27 -16 13 -17 15 -2 27 9 6 18 19 22 27 4 12 6
12 6 1 1 -8 9 -20 19 -27 15 -13 16 -15 1 -27 -9 -6 -20 -23 -24 -37 -7 -22
-6 -23 9 -8 9 9 16 20 16 24 0 4 7 16 16 26 14 14 14 20 4 33 -7 8 -8 15 -2
15 15 0 22 -27 18 -68 -2 -20 -1 -27 1 -14 2 12 9 22 14 22 5 0 9 6 9 13 0 7
9 20 20 30 11 9 20 12 20 7 0 -6 -7 -13 -15 -16 -18 -7 -20 -37 -3 -32 19 7
49 -37 41 -58 -4 -11 1 -22 13 -31 16 -12 17 -15 4 -23 -9 -6 -10 -10 -3 -10
21 0 25 21 8 40 -15 16 -15 22 -5 35 10 12 10 15 0 15 -10 0 -10 3 0 15 10 12
10 19 2 27 -14 14 -16 28 -3 28 5 0 11 -9 14 -20 7 -27 27 -25 28 3 1 19 2 19
6 3 9 -34 53 -64 53 -36 0 6 -4 10 -10 10 -5 0 -10 7 -10 15 0 8 5 15 10 15 6
0 10 -6 10 -13 0 -7 9 -13 20 -13 13 0 20 7 20 18 0 29 17 20 24 -12 6 -33 22
-40 29 -12 4 15 5 15 6 1 1 -21 31 -34 31 -15 0 16 19 25 38 19 14 -5 17 -53
2 -53 -5 0 -10 -9 -10 -20 0 -38 19 -20 25 24 10 61 30 67 30 8 0 -31 5 -47
15 -50 12 -4 13 -2 3 9 -18 18 -16 47 3 67 15 15 16 14 9 -6 -4 -15 -1 -32 9
-47 12 -18 12 -25 3 -28 -9 -4 -9 -6 0 -6 14 -1 53 47 52 63 0 6 -3 6 -6 -2
-4 -10 -8 -10 -20 -1 -12 11 -13 8 -8 -17 l7 -29 -14 25 c-15 27 -6 42 21 32
13 -5 14 -3 3 10 -10 13 -10 17 2 21 10 4 13 1 9 -8 -3 -8 2 -18 11 -21 19 -7
22 -50 4 -57 -7 -2 -9 -8 -5 -13 13 -13 27 17 27 59 0 45 19 50 22 5 0 -18 2
-39 2 -47 1 -8 7 -16 14 -17 7 -1 8 0 2 3 -8 3 -7 9 1 19 8 10 8 14 0 14 -16
0 -14 27 3 33 10 4 12 0 9 -14 -4 -15 -2 -18 11 -13 16 6 20 17 16 43 -2 18
54 -38 63 -63 4 -10 13 -16 21 -13 9 4 12 -2 10 -21 -1 -15 -7 -28 -13 -30
-11 -4 18 -42 33 -42 5 0 1 8 -8 19 -15 16 -15 20 -2 33 11 12 12 18 3 27 -8
8 -8 11 2 11 11 0 11 3 1 15 -8 9 -8 15 -2 15 6 0 13 8 15 18 4 16 5 16 6 -1
0 -10 7 -17 14 -16 28 3 37 -2 37 -25 0 -26 35 -76 53 -76 6 0 3 6 -7 13 -13
9 -16 20 -11 40 4 15 11 27 15 27 5 0 11 12 13 28 l4 27 2 -27 c1 -32 9 -35
27 -10 12 16 14 16 34 -5 11 -13 16 -23 11 -23 -5 0 -12 -8 -14 -17 -4 -17 -5
-17 -6 0 0 9 -5 17 -11 17 -14 0 -12 -19 3 -34 19 -20 42 10 42 54 0 30 2 34
12 24 15 -14 18 -74 4 -74 -5 0 -12 -8 -15 -17 -6 -15 -4 -15 14 2 11 10 20
31 20 47 0 15 5 28 10 28 9 0 14 -33 11 -71 -1 -9 5 -22 14 -29 13 -11 13 -15
3 -21 -9 -6 -9 -9 -1 -9 20 0 24 17 8 33 -18 18 -20 37 -4 37 8 0 8 4 0 14 -9
10 -8 15 2 19 8 3 18 2 23 -1 17 -12 44 -60 36 -64 -5 -2 -2 -14 5 -28 12 -23
13 -22 8 18 -3 24 -12 53 -20 65 -19 28 -19 43 0 23 8 -8 15 -18 15 -23 0 -5
9 -16 20 -26 12 -10 17 -23 13 -33 -5 -14 -3 -14 15 2 12 10 22 25 21 34 0 11
-2 11 -8 -3 -6 -16 -8 -16 -30 6 -22 24 -22 26 -5 46 10 12 22 21 27 21 5 0 1
-7 -7 -16 -9 -8 -16 -22 -16 -30 0 -20 28 -17 33 4 4 16 5 16 6 0 1 -19 21
-26 21 -8 0 5 9 2 20 -7 11 -10 20 -22 20 -28 0 -5 -5 -3 -10 5 -9 13 -11 13
-20 0 -5 -8 -9 -22 -9 -30 1 -10 3 -9 6 3 7 29 28 13 27 -21 0 -26 2 -29 14
-19 10 8 11 12 3 15 -9 3 -9 7 0 18 9 11 9 14 -1 14 -10 0 -10 3 0 15 10 13 9
19 -6 36 -16 18 -16 19 -1 13 10 -3 20 -18 24 -33 3 -14 11 -29 17 -33 8 -6 6
-11 -4 -18 -8 -5 -10 -10 -5 -10 15 0 45 38 45 58 1 16 1 16 11 -1 10 -18 11
-18 25 0 13 17 15 17 28 0 7 -9 16 -17 20 -17 12 0 6 24 -11 42 -16 18 -16 18
0 12 10 -3 20 -17 23 -30 8 -30 9 -30 39 2 14 15 25 22 25 16 0 -6 -8 -16 -17
-22 -17 -10 -17 -10 0 -20 9 -6 17 -16 17 -21 0 -6 -7 -3 -16 5 -21 22 -31 20
-11 -1 8 -10 17 -31 19 -47 1 -16 10 -31 18 -34 12 -4 13 -2 3 9 -18 18 -16
54 2 69 12 10 15 9 15 -8 0 -11 7 -25 15 -32 10 -8 14 -24 12 -39 -2 -14 -2
-20 0 -13 3 6 9 12 14 12 15 0 10 27 -6 34 -8 3 -15 17 -15 31 0 14 -4 25 -10
25 -5 0 -10 9 -10 20 0 27 18 26 22 -2 3 -21 4 -21 20 -5 10 11 14 25 11 34
-6 15 -5 16 9 3 10 -9 12 -17 6 -21 -6 -4 -1 -16 12 -29 25 -25 40 -18 22 10
-7 12 -8 20 -2 20 5 0 12 -11 16 -25 3 -14 10 -25 15 -25 12 0 12 -27 0 -32
-5 -1 -3 -8 4 -15 10 -9 13 -6 13 12 0 14 13 38 31 55 17 17 31 27 31 21 0 -5
-6 -14 -14 -18 -8 -4 -16 -19 -19 -33 -2 -14 -2 -20 0 -13 2 6 11 14 20 17 13
5 14 1 9 -24 -5 -28 -4 -30 10 -15 10 10 14 24 10 40 -3 13 -1 27 4 30 16 10
60 -37 60 -63 0 -13 6 -30 14 -38 13 -12 14 -9 9 23 -3 21 -10 40 -15 41 -11
5 -10 62 1 62 6 0 11 -15 13 -32 l3 -33 20 23 c11 12 24 22 30 22 5 0 3 -5 -5
-10 -13 -9 -13 -12 3 -21 9 -5 17 -15 17 -22 0 -7 -4 -6 -10 3 -8 12 -11 13
-19 1 -7 -11 -9 -11 -13 0 -3 8 -9 10 -14 6 -5 -4 -3 -11 3 -15 6 -4 13 -16
16 -27 4 -18 5 -18 6 3 1 28 9 28 38 0 24 -23 33 -19 9 4 -11 12 -11 17 0 33
13 17 14 17 14 1 0 -9 7 -24 15 -33 14 -14 14 -17 -1 -34 -10 -11 -14 -22 -9
-27 4 -4 10 -1 13 7 2 7 13 21 23 29 11 9 19 20 19 25 0 5 -7 4 -15 -3 -12
-10 -15 -7 -20 13 -9 33 -3 60 13 63 7 1 8 0 2 -3 -13 -6 -13 -63 0 -63 6 0
10 6 10 13 0 7 8 20 18 28 18 15 19 14 20 -20 1 -19 -5 -44 -12 -56 -11 -17
-11 -22 2 -35 14 -13 15 -12 10 2 -4 9 2 32 13 52 11 21 17 41 14 46 -3 6 1 7
10 4 12 -5 13 -10 6 -17 -13 -13 -15 -77 -2 -77 4 0 11 20 13 44 3 25 13 52
22 61 20 20 21 7 1 -22 -13 -18 -13 -24 1 -52 8 -17 21 -31 27 -31 9 0 9 2 0
8 -6 4 -15 20 -18 35 -6 22 -4 26 8 22 9 -4 16 1 20 14 3 12 11 21 19 20 10 0
10 -2 1 -6 -16 -6 -17 -33 -3 -33 6 0 13 7 16 15 4 8 11 15 16 15 6 0 5 -6 -2
-15 -10 -12 -10 -15 1 -15 10 0 10 -3 2 -11 -9 -9 -8 -15 3 -26 8 -8 14 -23
14 -34 0 -10 5 -19 10 -19 15 0 12 29 -5 46 -14 15 -10 40 10 60 13 13 35 -6
35 -31 0 -22 -18 -18 -23 5 -4 18 -5 18 -3 -2 1 -29 26 -36 33 -9 3 12 9 21
14 21 5 0 9 8 10 18 0 13 2 14 6 2 3 -8 9 -17 14 -20 13 -9 14 -88 0 -104 -8
-9 -10 -20 -6 -24 4 -4 10 -1 12 6 3 7 11 19 20 27 8 8 10 15 4 15 -15 0 -14
57 2 63 9 4 8 8 -3 16 -11 8 -11 11 -2 11 7 0 15 -7 18 -15 8 -20 21 -19 27 3
4 15 5 15 6 1 1 -22 31 -34 31 -13 0 8 6 21 13 28 10 10 12 5 12 -26 0 -22 -1
-35 -3 -29 -2 6 -8 11 -14 11 -6 0 -6 -6 2 -15 10 -12 10 -15 0 -15 -9 0 -8
-5 3 -18 10 -10 17 -24 17 -30 0 -7 4 -12 9 -12 5 0 12 -8 14 -17 2 -10 3 -5
1 11 -2 16 -12 35 -21 42 -16 11 -17 14 -1 31 9 10 18 27 21 38 4 18 5 18 6 2
0 -10 7 -17 14 -14 6 2 11 11 11 20 -1 9 4 13 12 10 11 -4 12 -9 3 -19 -9 -11
-9 -14 0 -14 7 0 9 -5 5 -11 -5 -8 -8 -8 -13 0 -5 8 -13 5 -26 -9 -10 -11 -15
-23 -12 -27 4 -3 7 -1 7 5 0 7 5 12 10 12 6 0 10 -6 10 -13 0 -8 9 -22 20 -32
18 -17 20 -17 14 -2 -3 9 -10 17 -15 17 -15 0 -10 27 6 34 10 4 15 -1 15 -14
0 -11 5 -20 10 -20 12 0 14 56 3 63 -5 2 -2 2 5 1 6 -2 12 3 12 11 0 8 4 15 9
15 10 0 23 -41 16 -49 -3 -2 -5 1 -5 7 0 7 -5 12 -12 12 -9 0 -9 -3 0 -12 15
-15 16 -45 1 -50 -8 -3 -7 -7 2 -15 11 -9 14 -5 16 20 1 17 8 34 14 37 6 4 12
19 12 32 1 16 7 24 15 21 9 -4 10 -9 1 -19 -6 -7 -13 -32 -15 -54 -3 -34 -1
-38 10 -28 8 7 10 15 5 16 -5 2 -9 8 -9 13 0 13 33 49 45 49 5 0 3 -5 -5 -10
-13 -9 -13 -11 0 -20 11 -7 16 -5 18 4 6 28 27 24 28 -6 1 -20 -2 -25 -7 -16
-7 11 -11 10 -19 -2 -5 -8 -10 -10 -10 -4 0 7 -8 15 -17 18 -15 6 -16 5 -1
-11 8 -10 18 -25 21 -33 4 -12 6 -11 6 3 1 19 16 23 27 5 4 -6 -1 -17 -11 -25
-11 -7 -14 -13 -8 -13 5 0 18 9 28 20 12 13 14 20 5 20 -9 0 -9 4 -2 13 5 6
12 21 15 32 3 13 5 9 6 -12 0 -18 6 -33 11 -33 9 0 14 22 13 57 0 6 6 9 14 6
10 -4 11 -9 4 -16 -14 -14 -14 -47 -1 -47 6 0 10 10 10 22 0 21 0 21 14 2 8
-10 10 -20 5 -22 -12 -5 -12 -42 1 -42 10 0 13 19 12 73 -1 24 1 25 14 12 8
-8 21 -12 29 -9 17 7 20 20 5 27 -6 3 -5 4 2 3 7 -1 14 -16 15 -32 2 -22 0
-25 -7 -14 -8 13 -11 13 -19 1 -7 -11 -9 -11 -13 0 -3 8 -9 10 -14 5 -5 -5 -4
-11 4 -13 15 -6 16 -45 0 -61 -10 -10 -8 -16 5 -29 15 -15 16 -15 15 8 -3 46
2 79 12 79 6 0 10 -7 10 -15 0 -9 7 -18 15 -21 11 -5 13 -10 5 -19 -8 -9 -7
-14 3 -18 9 -3 13 2 12 16 -1 11 -7 23 -13 25 -14 4 -16 32 -3 32 5 0 12 8 14
18 4 15 5 15 6 1 0 -9 8 -19 16 -23 11 -4 15 2 15 24 0 17 5 30 10 30 15 0 12
-58 -2 -63 -7 -2 -9 -8 -5 -13 4 -5 12 -2 17 6 6 9 10 10 10 3 0 -23 -22 -25
-41 -4 -11 12 -23 21 -26 21 -4 0 3 -10 15 -23 12 -13 22 -28 22 -34 0 -6 6
-13 14 -16 9 -4 12 0 9 12 -3 12 7 28 28 45 26 22 30 29 18 37 -8 5 -9 9 -4 9
14 0 45 -37 45 -54 0 -8 -5 -16 -11 -18 -7 -2 -6 -8 4 -16 12 -10 15 -8 15 14
0 28 17 45 38 37 7 -2 14 4 17 14 4 16 5 16 6 1 0 -10 6 -18 11 -18 6 0 10 -7
10 -15 0 -21 -20 -19 -21 3 0 11 -2 12 -6 4 -3 -7 3 -22 12 -32 15 -16 15 -22
5 -35 -8 -10 -9 -15 -1 -15 6 0 13 11 17 25 3 14 11 25 18 25 7 0 6 4 -3 9
-10 6 -10 10 -1 16 8 5 8 10 2 14 -6 4 -5 10 3 18 10 9 13 6 13 -14 0 -14 5
-29 12 -33 9 -5 9 -9 1 -14 -14 -9 -15 -46 -1 -46 9 0 12 18 12 78 0 20 1 20
5 2 2 -11 9 -20 14 -20 5 0 9 -6 9 -13 0 -8 9 -22 20 -32 12 -11 20 -13 20 -6
0 6 -7 14 -15 17 -8 4 -15 12 -15 20 0 8 7 14 15 14 8 0 15 -6 15 -14 0 -16
19 -25 38 -19 14 5 16 33 2 33 -5 0 -10 9 -10 20 0 11 5 20 10 20 6 0 10 -9
10 -20 0 -27 28 -15 36 16 7 26 24 33 24 9 0 -8 -4 -15 -10 -15 -17 0 -11 -14
11 -29 18 -11 23 -11 31 1 7 9 8 1 5 -23 -4 -29 -1 -41 17 -58 12 -12 26 -21
31 -21 4 0 -5 12 -20 26 -20 18 -25 28 -16 33 7 5 13 24 14 43 1 24 6 34 15
31 6 -3 12 -11 12 -19 0 -8 6 -11 16 -7 10 4 17 -1 21 -16 3 -11 9 -21 14 -21
9 0 12 11 10 45 0 14 1 16 6 5 9 -23 25 -30 45 -19 10 5 18 6 17 2 -1 -4 -1
-16 0 -25 2 -25 19 -22 23 4 4 28 26 35 34 11 3 -10 10 -26 15 -35 6 -12 6
-18 -2 -18 -8 0 -8 -4 0 -14 9 -11 9 -15 0 -18 -7 -2 -6 -8 4 -17 14 -11 16
-7 12 45 l-4 58 29 -57 c16 -31 31 -65 33 -74 3 -12 5 -10 6 7 0 14 -6 35 -14
47 -8 12 -17 38 -20 58 l-4 36 19 -23 c16 -19 19 -20 20 -5 0 19 20 24 20 5 0
-6 7 -20 17 -30 9 -11 11 -18 5 -18 -7 0 -12 -9 -12 -20 0 -11 5 -20 10 -20 9
0 11 9 14 69 1 13 8 26 16 28 13 4 13 3 0 -6 -11 -8 -12 -15 -3 -33 6 -13 14
-31 17 -41 9 -28 31 -15 34 21 4 39 18 42 25 5 3 -17 0 -34 -9 -44 -16 -18
-18 -29 -4 -29 6 0 10 7 10 15 0 9 7 18 15 21 12 5 13 9 4 20 -20 24 0 29 23
6 13 -12 17 -22 10 -22 -17 0 -15 -27 2 -33 10 -4 13 -1 10 8 -3 8 -1 22 4 32
9 15 11 15 16 3 12 -40 15 -43 13 -15 -1 21 -7 30 -19 29 -17 -2 -14 20 6 42
15 16 46 -15 46 -47 0 -15 6 -32 13 -38 11 -9 14 -3 13 31 -1 26 4 42 12 44 7
1 8 0 2 -3 -12 -6 -14 -53 -1 -53 5 0 11 9 14 20 7 26 27 26 34 0 6 -24 19
-26 27 -5 3 8 -2 21 -10 30 -9 8 -12 15 -7 15 5 0 17 -10 27 -21 15 -18 20
-19 28 -8 7 11 11 11 15 1 2 -7 11 -19 19 -26 8 -8 14 -19 14 -24 0 -5 9 -17
20 -27 12 -11 20 -13 20 -6 0 6 -7 14 -15 17 -22 9 -18 22 17 57 18 18 29 24
25 15 -3 -10 0 -23 7 -30 11 -11 11 -16 -1 -26 -7 -7 -13 -9 -13 -3 0 5 -7 11
-14 14 -10 4 -13 1 -10 -8 15 -37 71 -12 61 27 -5 16 -3 17 9 7 22 -18 16 -42
-16 -69 -17 -13 -30 -28 -30 -33 0 -4 16 7 35 26 19 19 35 44 35 56 0 12 6 29
14 36 12 12 13 8 9 -28 -3 -23 -9 -46 -14 -51 -12 -13 -12 -46 0 -46 5 0 11
18 15 41 8 50 26 72 44 53 14 -16 16 -34 3 -34 -5 0 -11 8 -14 18 -2 9 -4 2
-4 -15 0 -19 8 -40 19 -49 10 -10 18 -12 18 -6 0 6 -8 16 -17 21 -16 9 -16 12
-3 21 11 7 16 5 18 -5 4 -20 22 -19 22 0 0 8 -4 15 -9 15 -5 0 -11 14 -13 32
l-5 32 18 -25 c11 -13 23 -29 29 -36 13 -16 13 -33 -1 -33 -8 0 -8 -4 -1 -12
5 -7 12 -22 15 -33 2 -11 4 0 4 23 0 24 4 47 10 50 5 4 13 14 16 22 3 8 5 -1
3 -22 -2 -27 0 -35 11 -31 10 4 11 9 2 19 -8 9 -8 14 -1 14 6 0 13 12 15 28 4
27 4 27 6 -3 0 -17 6 -36 13 -43 9 -9 9 -12 0 -12 -15 0 -16 -36 -1 -46 8 -4
7 -9 -2 -16 -11 -8 -11 -9 1 -5 10 3 14 14 12 34 -2 19 4 37 15 49 16 16 16
17 1 11 -13 -4 -15 -2 -11 11 4 9 12 22 19 29 9 10 12 2 11 -36 0 -40 5 -53
26 -73 20 -19 24 -27 15 -36 -8 -8 -9 -12 -1 -12 24 0 20 29 -8 56 -18 18 -25
30 -18 35 6 3 12 18 12 32 2 23 4 24 18 11 9 -8 19 -11 22 -7 12 11 56 -38 49
-55 -4 -12 -1 -12 15 4 14 12 21 29 19 47 -3 23 -1 25 11 15 11 -8 12 -13 4
-16 -9 -3 -9 -8 0 -19 10 -11 8 -19 -13 -40 -25 -25 -25 -26 -7 -44 25 -25 37
-24 14 1 -18 20 -18 21 3 41 12 11 22 31 22 44 0 14 5 25 10 25 14 0 12 -74
-2 -88 -8 -8 -8 -12 -1 -12 13 0 23 24 23 57 0 13 6 30 13 37 11 11 13 7 13
-21 0 -19 5 -37 11 -41 5 -4 13 -14 17 -22 3 -8 3 -2 0 15 -3 16 -11 34 -17
38 -8 6 -5 7 7 3 14 -5 17 -2 12 10 -5 14 -4 15 9 4 9 -8 12 -16 6 -19 -5 -3
4 -21 20 -39 17 -19 29 -26 29 -18 0 8 -8 20 -17 25 -16 9 -16 12 -3 20 10 7
16 7 19 -2 9 -28 51 -29 51 -1 0 20 -18 17 -23 -3 -4 -17 -5 -17 -6 0 0 9 -5
17 -11 17 -16 0 -11 19 11 43 l21 22 -11 -22 c-14 -27 -14 -46 0 -38 5 4 19
-1 30 -10 17 -16 17 -19 3 -30 -9 -6 -14 -18 -11 -26 4 -11 6 -10 6 2 1 9 8
19 16 23 11 4 14 14 9 33 l-6 28 16 -29 c12 -22 13 -32 5 -42 -9 -11 -8 -14 1
-14 9 0 10 -3 1 -14 -9 -10 -8 -15 1 -19 9 -3 13 7 14 35 0 22 7 44 15 50 11
8 11 9 -3 4 -13 -4 -15 -1 -11 12 15 38 29 40 29 4 0 -20 6 -38 12 -40 10 -3
10 -7 1 -18 -8 -10 -8 -14 0 -14 6 0 11 6 12 13 0 6 2 25 2 41 1 16 8 30 15
32 7 1 8 0 2 -3 -13 -6 -13 -53 0 -53 6 0 10 -7 10 -15 0 -8 -4 -15 -10 -15
-5 0 -10 -7 -10 -15 0 -25 17 -17 24 11 8 32 41 68 54 60 6 -3 13 0 16 6 4 8
8 9 11 3 23 -45 36 -45 39 -2 1 20 4 23 15 14 9 -8 10 -12 2 -15 -13 -4 -15
-32 -2 -32 5 0 11 7 15 15 3 8 11 15 18 15 9 0 9 -3 -2 -10 -12 -8 -13 -11 -1
-19 11 -7 11 -9 0 -14 -12 -5 -12 -7 0 -15 9 -7 10 -12 2 -16 -14 -9 -15 -46
-1 -46 6 0 11 12 11 28 1 15 2 32 4 37 1 6 3 16 3 23 3 23 20 12 25 -18 4 -16
16 -39 27 -50 25 -25 39 -27 16 -1 -17 19 -14 71 4 71 5 0 11 8 13 18 4 16 5
16 6 0 1 -21 17 -24 24 -5 2 6 4 -1 4 -16 0 -16 8 -36 17 -45 15 -16 16 -15
13 13 -3 17 -2 22 0 13 7 -30 23 -20 24 15 2 30 2 30 6 5 2 -16 9 -28 15 -28
6 0 3 -9 -7 -20 -17 -18 -17 -20 -2 -14 9 3 17 11 18 18 1 6 2 20 3 30 0 11 7
20 14 22 7 1 8 0 2 -3 -13 -6 -13 -33 0 -33 15 0 12 -36 -4 -49 -14 -12 -10
-51 5 -51 12 0 11 17 -1 25 -6 4 -4 12 5 21 8 9 15 24 15 35 0 10 3 19 8 19 9
0 39 -33 45 -52 2 -7 3 -2 1 12 -4 33 10 55 27 45 9 -6 11 -3 5 10 -6 16 -4
16 10 4 9 -8 24 -14 33 -14 10 0 16 -8 15 -21 -1 -31 24 -19 28 14 4 37 24 38
42 1 16 -32 16 -33 -11 -61 -15 -15 -23 -28 -19 -28 16 0 56 54 56 76 0 13 5
24 10 24 9 0 12 -11 13 -70 0 -22 1 -22 4 -3 4 21 33 41 33 23 0 -11 36 -50
47 -50 3 0 -2 9 -12 20 -9 10 -15 26 -12 35 8 20 25 19 30 -2 2 -10 3 0 0 22
l-4 40 21 -38 c11 -21 18 -42 15 -47 -3 -6 1 -7 10 -4 10 4 12 11 7 18 -5 6
-12 20 -16 31 -6 16 -1 14 23 -9 l30 -28 -26 -24 c-14 -13 -22 -24 -17 -24 21
1 53 47 47 68 -3 12 -9 22 -14 22 -5 0 -9 5 -9 10 0 21 20 9 26 -15 8 -31 21
-32 27 -2 3 12 5 2 5 -23 -1 -67 1 -80 12 -80 14 0 12 27 -2 34 -10 5 -10 7 0
12 6 3 13 20 13 37 2 31 2 31 6 5 2 -16 8 -28 13 -28 5 0 10 -8 13 -17 2 -10
3 1 2 25 0 26 -7 47 -16 53 -7 5 -9 9 -3 9 6 0 19 -9 28 -19 10 -11 24 -17 31
-15 16 6 58 -45 51 -62 -3 -8 0 -11 9 -8 11 5 11 10 0 31 -15 28 -12 43 8 43
9 0 8 -3 -1 -8 -9 -7 -8 -13 8 -27 11 -10 23 -15 27 -12 3 4 1 7 -5 7 -16 0
-15 17 0 34 18 19 69 -34 72 -77 4 -45 5 -47 16 -47 6 0 5 8 -2 20 -11 17 -10
22 2 30 10 6 11 10 3 10 -7 0 -13 5 -13 10 0 16 39 55 47 47 3 -4 1 -7 -5 -7
-7 0 -12 -4 -12 -10 0 -5 13 -8 30 -7 25 2 28 5 24 27 l-6 25 14 -25 c15 -27
6 -42 -21 -32 -14 5 -14 4 -2 -12 11 -13 16 -14 22 -4 5 8 11 4 20 -15 7 -15
16 -27 21 -27 4 0 3 9 -4 20 -11 17 -10 22 2 30 10 6 11 10 3 10 -7 0 -13 7
-13 15 0 29 19 14 26 -20 8 -44 22 -45 26 -3 2 17 9 33 16 34 7 1 8 0 2 -3
-14 -6 -13 -53 1 -53 8 0 8 -5 -1 -15 -9 -10 -9 -15 -1 -15 11 0 15 12 12 42
-3 27 20 32 42 9 12 -11 16 -21 10 -21 -6 0 -13 7 -17 15 -3 8 -11 15 -17 15
-8 0 -6 -7 4 -18 22 -24 21 -31 -5 -59 -29 -31 -18 -29 16 2 24 22 33 45 35
93 1 17 21 15 21 -3 0 -8 -5 -15 -11 -15 -5 0 -3 -10 5 -22 9 -12 16 -32 16
-44 0 -12 6 -24 13 -27 10 -4 13 2 9 19 -2 13 -8 27 -13 30 -14 8 -10 34 7 52
15 15 16 14 9 -7 -5 -17 -1 -29 16 -47 12 -13 27 -24 33 -24 6 0 4 5 -4 11
-11 8 -12 12 -2 16 6 2 13 19 13 36 2 31 2 31 6 5 2 -16 9 -28 15 -28 6 0 6
-6 -2 -15 -9 -11 -9 -15 -1 -15 6 0 14 14 18 30 3 17 9 30 14 30 13 0 11 -57
-1 -63 -6 -3 -5 -4 2 -3 7 1 14 12 16 24 2 12 7 22 12 22 13 0 21 -35 13 -56
-6 -18 -6 -18 10 -2 9 9 17 21 17 27 0 5 6 14 14 18 7 4 16 15 19 23 4 12 6
11 6 -3 1 -13 8 -17 29 -15 25 3 27 0 27 -33 -1 -27 3 -35 13 -32 9 4 10 9 3
16 -6 6 -5 14 4 24 8 7 11 21 8 31 -6 16 -6 16 10 0 20 -19 22 -38 5 -38 -6 0
-3 -9 7 -20 10 -11 22 -20 27 -20 5 0 3 6 -5 14 -8 9 -12 26 -10 40 7 34 23
33 24 -1 2 -24 2 -25 6 -5 5 23 22 31 24 10 0 -7 2 -24 3 -36 2 -13 -3 -30
-10 -37 -11 -11 -11 -15 3 -27 15 -11 16 -11 10 4 -3 10 0 24 8 32 11 11 12
16 2 19 -9 4 -9 8 2 15 7 5 9 12 5 14 -5 3 -3 3 4 2 17 -5 15 15 -2 22 -8 3
-17 13 -21 22 -3 10 7 4 25 -13 17 -16 26 -31 20 -33 -12 -4 -14 -32 -1 -32
13 0 22 45 14 67 -7 17 -6 17 11 0 11 -10 18 -34 19 -59 1 -24 7 -42 15 -44 7
-1 8 0 2 3 -14 7 -13 33 2 33 9 0 9 3 0 12 -15 15 -16 48 -2 48 6 0 10 -5 10
-11 0 -6 9 -22 20 -36 14 -18 20 -21 20 -10 0 9 -8 21 -17 26 -10 6 -13 11 -6
11 6 0 15 -4 18 -10 10 -15 23 -12 28 8 3 11 5 8 6 -9 2 -49 44 -46 56 4 4 15
11 27 16 27 12 0 12 -27 0 -32 -5 -1 -3 -12 6 -23 14 -20 15 -19 11 4 -5 37
18 36 26 0 4 -23 1 -38 -10 -51 -23 -24 -9 -23 16 2 21 21 25 36 12 42 -4 2
-2 14 5 28 l13 25 0 -26 c0 -27 15 -40 38 -32 6 3 12 17 12 31 l0 27 13 -25
c11 -21 11 -27 -1 -36 -15 -11 -8 -54 9 -54 5 0 4 9 -3 20 -11 16 -10 22 6 33
12 9 16 19 11 28 -5 8 0 7 10 -3 15 -14 16 -20 5 -32 -7 -10 -8 -16 -2 -16 15
0 25 36 16 62 -6 20 -5 21 9 6 9 -8 19 -27 23 -42 7 -28 24 -36 24 -11 0 8 -4
15 -10 15 -5 0 -10 7 -10 15 0 8 3 15 8 15 14 -1 53 -50 47 -60 -3 -6 0 -7 9
-4 8 3 18 15 21 25 10 31 29 17 29 -21 1 -18 7 -34 14 -36 7 -1 8 0 2 3 -15 7
-12 50 5 57 9 3 15 0 15 -8 0 -8 6 -16 14 -19 10 -4 12 0 9 14 -3 10 -9 19
-14 19 -5 0 -9 7 -9 15 0 8 5 15 10 15 6 0 10 -6 10 -13 0 -8 9 -22 21 -33 20
-18 20 -18 14 8 -9 34 11 46 35 20 17 -18 17 -20 2 -36 -16 -16 -16 -17 0 -11
10 4 20 15 23 26 4 10 11 19 16 19 13 0 11 -44 -3 -58 -7 -7 -8 -12 -2 -12 6
0 20 19 33 43 l23 42 -5 -65 c-2 -36 -2 -57 0 -47 3 9 9 17 14 17 5 0 9 17 10
38 0 20 3 31 6 23 6 -15 52 -61 61 -61 3 0 -3 9 -12 19 -12 13 -13 20 -6 23 7
2 13 16 13 31 l2 27 29 -30 c25 -24 27 -31 16 -44 -8 -11 -9 -16 -1 -16 6 0
14 12 17 27 4 15 13 33 19 40 9 9 12 1 10 -32 -1 -31 2 -42 12 -38 12 5 17 21
15 53 0 10 6 7 19 -9 14 -17 18 -33 14 -49 -5 -22 -5 -23 10 -9 8 9 18 30 21
46 7 33 23 42 25 14 3 -42 5 -46 19 -50 13 -4 13 -3 0 6 -12 9 -13 12 -1 20
11 7 11 9 0 14 -12 4 -12 6 -1 6 8 1 16 -8 19 -19 7 -28 23 -25 23 5 0 14 -5
25 -12 25 -6 0 -8 3 -5 7 8 7 42 -26 50 -48 2 -8 3 -1 1 14 l-4 28 31 -30 c31
-31 46 -40 34 -20 -4 6 1 18 11 28 16 15 20 15 36 2 11 -10 16 -24 13 -40 -3
-15 -2 -19 1 -11 4 8 12 18 18 23 8 5 8 9 0 15 -6 4 -14 16 -17 27 -6 18 -5
18 12 -3 13 -15 21 -18 24 -10 2 8 8 9 13 4 5 -5 4 -11 -3 -13 -15 -5 -18 -33
-4 -33 5 0 11 9 14 20 7 26 23 26 30 0 6 -25 25 -26 34 -2 4 9 12 23 19 30 10
10 12 5 7 -25 -3 -21 -10 -39 -15 -41 -11 -5 -10 -32 2 -32 5 0 12 16 16 35 7
40 34 70 34 38 0 -11 8 -27 18 -36 24 -22 39 -22 18 -1 -9 8 -15 30 -15 47 2
29 2 30 6 5 2 -14 10 -29 17 -31 16 -7 43 9 33 20 -5 4 -13 1 -18 -7 -9 -13
-10 -13 -6 0 7 27 32 17 30 -13 -1 -23 0 -25 12 -14 7 8 15 27 18 43 l4 29 2
-27 c0 -16 6 -28 11 -28 14 0 12 -27 -2 -33 -10 -4 -10 -6 0 -6 8 -1 16 8 19
20 3 12 11 18 19 15 8 -3 23 4 34 16 l20 22 19 -21 c14 -15 17 -23 8 -32 -8
-8 -8 -11 1 -11 7 0 15 14 19 30 3 17 9 30 13 30 4 0 10 -13 14 -30 3 -16 11
-30 17 -30 8 0 8 4 -1 15 -24 29 2 30 27 1 l24 -29 -4 34 c-2 19 -2 26 0 17 6
-23 20 -23 26 0 3 10 5 6 6 -10 0 -16 5 -28 10 -28 5 0 11 -6 14 -12 2 -7 2
-1 0 14 -5 29 13 46 30 29 6 -6 15 -11 19 -11 12 0 10 27 -2 33 -6 3 -5 4 2 3
7 -2 14 -16 15 -32 0 -16 2 -34 2 -40 1 -7 9 -15 18 -18 15 -6 15 -4 -2 14
-10 11 -13 20 -7 20 7 0 12 6 12 14 0 8 5 18 11 21 12 8 59 -33 59 -52 0 -7 5
-13 10 -13 15 0 12 19 -5 36 -8 9 -14 23 -14 32 1 15 2 15 6 0 5 -21 14 -23
31 -6 10 10 17 7 34 -10 15 -14 18 -22 9 -22 -10 0 -11 -3 -2 -14 8 -10 9 -16
1 -19 -6 -3 -5 -4 2 -3 7 2 13 16 12 34 l0 32 22 -21 c23 -22 44 -19 44 7 0
16 16 19 25 3 4 -5 0 -18 -9 -28 -15 -17 -15 -19 -1 -25 10 -4 14 -2 9 6 -4 6
0 16 8 22 8 6 17 19 21 29 3 9 12 17 19 16 10 0 10 -2 1 -6 -15 -6 -17 -33 -3
-33 6 0 10 -8 11 -17 0 -14 2 -15 6 -3 3 8 11 18 17 22 6 4 7 10 3 15 -5 4
-13 1 -18 -7 -9 -13 -10 -13 -6 0 5 22 49 21 70 -1 16 -18 47 -16 47 2 0 12
-17 11 -23 -1 -3 -6 -4 -5 -3 2 5 27 31 13 31 -16 0 -18 6 -31 15 -33 13 -4
13 -3 0 7 -11 9 -12 13 -2 17 6 2 13 14 13 26 1 17 2 18 6 5 2 -10 8 -18 13
-18 5 0 11 -8 13 -17 4 -16 5 -16 6 1 1 12 6 16 16 12 8 -3 21 2 30 10 13 14
15 14 15 0 0 -9 -9 -24 -20 -33 -11 -10 -20 -21 -20 -26 0 -4 16 8 36 27 23
22 33 40 28 48 -4 7 1 6 12 -3 10 -9 24 -14 31 -12 6 2 14 -5 18 -16 3 -12 11
-21 18 -21 8 0 8 3 -1 12 -14 14 -16 48 -3 48 5 0 11 -9 14 -20 3 -11 11 -20
19 -20 10 0 9 3 -2 11 -13 9 -13 10 0 6 8 -2 15 -13 14 -25 -1 -29 24 -16 28
16 4 32 27 41 35 13 6 -24 14 -26 31 -9 17 17 28 2 12 -17 -7 -8 -9 -15 -4
-15 5 1 18 11 28 24 l20 24 29 -29 c28 -28 44 -38 33 -21 -3 5 -1 22 3 38 l8
29 11 -35 c5 -19 11 -28 11 -19 2 30 43 31 73 2 15 -15 31 -23 35 -20 3 4 1 7
-5 7 -7 0 -12 9 -12 20 0 11 5 20 10 20 6 0 10 -4 10 -8 0 -4 9 -8 20 -8 11 0
20 4 20 8 0 4 5 8 10 8 14 0 12 -37 -2 -43 -10 -4 -10 -6 0 -6 8 -1 16 8 19
20 3 12 11 18 19 15 7 -3 20 2 29 10 8 9 15 11 15 6 0 -18 29 -21 46 -5 16 16
16 15 9 -7 -4 -14 -13 -28 -19 -32 -6 -4 -7 -8 -2 -8 6 0 20 10 33 22 18 17
23 18 23 6 0 -33 40 -30 53 5 3 9 12 17 19 16 10 0 10 -2 0 -6 -10 -4 -10 -8
-1 -19 8 -10 8 -14 0 -14 -6 0 -11 -7 -11 -15 0 -27 18 -16 25 15 7 30 25 42
25 17 0 -15 41 -57 55 -57 4 0 -4 11 -19 25 -27 25 -34 45 -16 45 6 0 13 -7
16 -15 8 -20 21 -19 27 3 4 13 5 11 6 -5 1 -29 19 -30 23 -1 2 12 9 23 16 24
7 1 8 0 2 -3 -12 -6 -13 -33 -1 -33 5 0 11 7 15 15 3 8 10 15 16 15 16 0 12
-27 -5 -34 -8 -3 -15 -10 -15 -16 0 -6 10 -2 22 10 12 11 25 20 29 20 10 0 20
-30 14 -41 -4 -5 1 -6 10 -3 10 4 12 11 7 18 -5 6 -12 20 -16 30 -7 19 -6 19
14 1 19 -17 20 -17 20 -1 0 10 6 16 13 13 6 -2 11 -11 11 -20 -2 -17 22 -12
29 6 2 7 3 -1 1 -16 -3 -23 -1 -26 9 -15 7 7 16 21 20 31 8 21 29 18 35 -4 3
-12 2 -12 -7 1 -5 8 -13 12 -16 8 -7 -7 30 -48 42 -48 4 0 2 5 -4 11 -9 9 -7
17 7 32 18 19 21 19 44 3 25 -16 27 -46 3 -46 -6 0 -7 -3 -4 -7 8 -8 40 24 50
50 10 26 24 21 30 -12 3 -16 14 -31 23 -35 17 -6 17 -6 1 12 -25 28 -22 50 4
26 19 -18 22 -18 33 -2 15 21 38 4 28 -21 -3 -9 7 -3 22 14 l28 30 -4 -47 c-4
-35 -1 -45 9 -41 16 6 17 20 1 26 -10 4 -10 6 0 6 7 1 13 15 13 34 1 17 3 25
6 15 7 -27 31 -29 54 -5 20 22 20 22 35 2 13 -17 16 -18 24 -5 7 10 10 11 10
3 0 -19 18 -16 23 5 4 13 5 11 6 -5 1 -25 21 -32 21 -8 0 13 2 14 14 3 12 -11
12 -16 -2 -31 -15 -16 -15 -17 1 -11 17 6 21 16 18 44 -2 13 -1 13 8 0 9 -13
12 -12 25 5 14 20 15 20 37 -4 14 -15 24 -20 27 -13 6 20 20 14 25 -10 l4 -23
2 23 c0 12 4 22 9 22 12 -1 38 -24 45 -40 4 -8 5 -4 3 8 -4 20 -1 23 15 19 11
-3 26 1 34 10 8 8 15 10 15 4 0 -7 15 -9 40 -6 22 3 40 1 40 -5 0 -15 28 0 34
18 2 10 3 -1 1 -23 -2 -22 -2 -31 1 -21 8 24 34 52 34 36 0 -6 8 -19 17 -28
16 -16 16 -16 10 0 -8 22 12 36 24 17 6 -10 9 -11 9 -1 0 22 20 13 21 -10 0
-15 3 -18 6 -8 4 8 12 21 20 28 11 11 13 11 13 -2 0 -22 17 -20 23 2 3 9 3 -3
1 -27 -4 -39 -3 -42 12 -30 11 9 12 15 4 17 -7 3 -6 10 6 23 22 25 32 24 37
-3 l4 -23 2 23 c1 23 17 30 23 11 3 -8 10 -6 21 5 14 15 17 15 17 2 0 -8 -7
-22 -16 -30 -8 -9 -11 -16 -6 -16 4 0 19 11 31 24 23 24 60 31 72 13 3 -5 13
-1 23 8 9 9 16 12 16 8 0 -5 25 -9 55 -9 32 0 55 4 55 10 0 6 5 4 10 -4 8 -12
11 -13 19 -1 7 11 9 11 14 0 4 -12 7 -11 16 1 9 13 11 13 11 -2 0 -20 15 -24
25 -8 4 6 16 8 27 4 13 -4 24 -1 29 7 6 10 9 11 9 2 0 -19 18 -16 23 5 4 16 5
16 6 0 1 -21 17 -24 24 -5 3 6 6 0 6 -15 1 -32 16 -37 24 -8 7 28 25 25 33 -5
6 -26 24 -35 24 -12 0 7 9 20 20 30 19 16 20 16 20 -8 0 -37 20 -30 21 8 1 23
3 26 6 10 5 -26 23 -31 23 -8 0 13 2 14 14 3 10 -9 11 -17 4 -25 -7 -9 -7 -13
0 -13 6 0 14 9 17 21 4 11 12 18 18 16 7 -2 20 3 30 11 16 15 17 14 11 -1 -5
-13 -2 -16 12 -11 16 5 16 4 4 -5 -8 -6 -10 -11 -4 -11 5 0 15 5 22 12 17 17
28 2 12 -17 -8 -9 -8 -15 -2 -15 6 0 13 9 17 19 3 11 12 24 19 30 10 8 12 3
11 -23 0 -24 3 -32 12 -29 7 3 13 16 13 30 0 22 2 23 15 9 9 -8 22 -13 30 -10
11 4 15 -1 16 -17 1 -20 2 -21 6 -5 6 24 33 53 33 36 0 -6 7 -18 15 -26 13
-13 14 -12 11 13 -2 15 -1 23 1 16 10 -27 44 -23 56 7 4 10 6 8 6 -7 1 -12 -6
-29 -15 -37 -8 -9 -11 -16 -6 -16 13 0 42 34 42 49 0 7 14 -1 31 -18 32 -33
53 -43 26 -13 -13 15 -13 19 -1 30 12 11 14 10 14 -3 0 -24 20 -17 21 8 1 16
2 18 6 5 2 -10 9 -18 15 -18 6 0 6 -6 -2 -15 -9 -10 -9 -15 -1 -15 12 0 15 12
11 45 -2 20 -2 20 19 1 19 -17 21 -17 21 -3 0 10 5 17 10 17 6 0 10 -13 10
-30 0 -16 -4 -30 -10 -30 -5 0 -10 -7 -10 -15 0 -29 19 -14 26 20 6 36 33 70
30 39 0 -9 6 -19 14 -21 12 -4 13 -3 1 5 -11 8 -8 13 15 25 29 15 30 14 31 -6
2 -17 0 -18 -7 -7 -5 8 -13 11 -17 6 -4 -5 -2 -11 5 -13 10 -4 10 -8 1 -19 -6
-8 -9 -14 -5 -14 9 0 46 39 46 48 0 4 8 8 18 8 14 0 17 -7 15 -31 -1 -17 0
-22 3 -10 7 25 34 55 48 55 6 0 3 -5 -6 -11 -10 -5 -18 -15 -18 -20 0 -6 5 -7
11 -3 6 3 15 0 20 -7 6 -10 9 -8 9 9 0 15 5 22 13 19 6 -2 12 -17 12 -32 0
-16 6 -29 13 -31 7 -1 8 0 3 2 -5 3 -2 18 6 34 15 31 33 40 33 17 0 -7 9 -20
20 -30 11 -9 20 -12 20 -7 0 6 -7 13 -15 16 -18 7 -19 21 -2 38 10 11 15 11
25 0 13 -14 42 -9 42 8 0 5 14 -4 31 -21 31 -31 46 -40 34 -20 -4 6 1 18 12
28 17 16 19 16 37 0 13 -12 16 -24 10 -41 -6 -20 -5 -21 9 -10 8 7 18 23 21
36 4 17 13 23 31 23 14 1 28 -3 31 -8 8 -14 24 -10 24 6 0 8 -5 15 -12 15 -6
0 -8 3 -4 7 4 5 14 -1 22 -12 13 -17 16 -18 24 -5 7 10 10 11 10 3 0 -19 18
-16 23 5 4 13 5 12 6 -5 0 -12 -6 -29 -15 -37 -8 -9 -11 -16 -6 -16 13 0 42
34 42 49 0 16 23 -6 33 -31 3 -10 12 -18 19 -17 10 0 10 2 1 6 -7 2 -13 12
-13 20 0 9 6 13 13 10 17 -7 44 9 34 20 -5 4 -13 1 -18 -7 -9 -13 -10 -13 -6
0 7 28 32 17 30 -13 -2 -24 0 -27 13 -17 7 7 15 27 15 44 2 30 2 30 6 4 2 -16
9 -28 14 -28 12 0 12 -27 -1 -33 -6 -3 -5 -4 2 -3 8 2 12 16 10 37 l-3 33 28
-24 c15 -14 32 -31 36 -37 4 -7 13 -13 18 -13 6 0 4 6 -4 14 -8 9 -12 26 -10
40 6 32 20 34 25 4 2 -12 10 -23 18 -25 11 -4 12 -2 2 4 -10 7 -8 13 7 27 22
20 42 14 40 -12 -1 -15 -2 -15 -6 1 -5 21 -23 23 -23 2 0 -8 5 -15 11 -15 8 0
8 -5 -1 -15 -18 -22 -3 -18 20 5 11 11 21 30 21 43 1 18 2 18 6 4 3 -11 11
-16 19 -13 9 3 12 1 9 -4 -9 -14 4 -50 17 -50 7 0 7 5 -1 14 -8 10 -8 20 3 40
9 19 16 23 20 14 5 -10 7 -10 12 -1 6 14 26 0 37 -27 3 -10 6 -7 6 8 1 30 19
28 27 -3 8 -32 20 -32 28 0 8 30 26 33 33 5 3 -11 9 -20 13 -20 5 0 11 -8 14
-17 2 -10 2 0 -1 22 -3 22 -11 43 -17 47 -7 5 -7 8 2 8 8 0 16 -9 19 -20 7
-26 21 -26 25 2 2 12 9 23 16 24 7 1 8 0 2 -3 -14 -6 -13 -33 1 -33 8 0 8 -5
-1 -15 -19 -22 -3 -18 21 6 11 11 18 24 14 27 -3 4 -11 0 -16 -8 -9 -13 -10
-13 -6 0 2 8 14 16 26 16 13 1 27 8 33 15 6 10 7 6 2 -11 -4 -14 -11 -26 -15
-28 -12 -5 -11 -32 1 -32 6 0 10 6 10 13 0 8 8 21 18 30 16 14 17 13 18 -14 1
-31 10 -47 20 -36 4 4 2 13 -5 20 -9 11 -8 21 4 43 l16 29 -3 -29 c-2 -19 2
-30 12 -33 11 -3 12 -2 2 4 -10 7 -8 14 8 28 16 14 23 16 32 7 17 -17 26 -15
31 6 4 16 5 16 6 0 0 -10 -8 -26 -20 -37 -21 -19 -19 -41 4 -41 9 0 9 2 -1 8
-9 6 -4 16 18 37 16 16 30 35 30 42 0 7 5 13 10 13 15 0 12 -36 -5 -50 -8 -7
-14 -20 -14 -29 1 -13 2 -13 6 2 2 9 8 17 13 17 5 0 12 9 15 20 8 26 25 26 25
0 0 -10 8 -24 18 -30 12 -8 13 -13 5 -16 -15 -6 -18 -34 -4 -34 17 0 21 45 6
56 -16 12 -21 64 -6 64 5 0 12 -13 16 -30 8 -38 23 -39 27 -2 2 20 9 27 27 28
13 1 27 7 31 14 5 7 8 2 8 -15 0 -18 -3 -23 -9 -14 -4 7 -11 10 -16 6 -10 -11
17 -27 33 -20 7 2 15 12 17 21 4 13 5 13 6 -3 0 -11 -5 -32 -13 -47 -12 -23
-12 -27 0 -32 8 -3 13 -2 10 3 -7 10 35 101 47 101 4 0 8 -17 9 -37 1 -37 1
-37 5 -5 4 30 23 47 23 19 0 -7 10 -21 22 -31 16 -14 20 -15 15 -3 -3 9 3 23
15 34 21 18 21 18 16 -4 -4 -16 -2 -20 8 -16 14 5 18 16 15 40 -5 36 45 14 62
-27 3 -8 6 0 6 18 1 17 6 32 11 32 6 0 10 -5 10 -12 0 -6 8 -19 18 -29 16 -16
19 -15 49 14 28 26 31 27 26 9 -3 -12 -11 -26 -18 -32 -15 -13 -9 -40 8 -40 8
0 8 3 0 11 -9 9 -8 15 2 25 7 8 15 19 17 26 6 17 28 0 28 -23 0 -10 5 -19 10
-19 6 0 10 8 10 18 0 11 8 26 18 35 18 16 18 15 16 -16 -2 -17 -1 -24 2 -14 3
10 12 30 21 45 l15 27 -4 -31 c-3 -23 -1 -31 9 -27 7 3 13 11 13 18 0 18 19
30 31 18 5 -5 3 -20 -6 -36 -7 -15 -10 -27 -6 -27 8 0 30 38 42 75 4 11 6 -16
4 -60 -1 -44 -1 -71 2 -60 3 11 9 24 14 30 12 12 11 43 -1 47 -6 2 3 17 20 33
20 19 29 23 25 12 -6 -13 -3 -16 9 -11 11 4 16 0 16 -14 0 -11 -4 -22 -9 -24
-5 -1 -3 -8 3 -14 10 -9 13 -6 14 18 0 16 6 35 12 43 8 9 8 15 0 18 -6 3 -5 4
2 2 7 -1 12 -8 10 -15 -5 -21 8 -48 25 -55 14 -5 14 -3 -2 15 -21 23 -13 39 9
21 19 -16 36 -6 36 20 0 10 5 19 10 19 14 0 13 -43 -2 -58 -7 -7 -8 -12 -2
-12 11 0 31 35 45 75 5 13 7 3 8 -27 1 -53 21 -67 22 -15 0 17 3 25 6 17 3 -8
12 -19 20 -23 7 -4 11 -18 10 -30 -2 -12 -2 -16 0 -10 3 7 9 13 15 13 6 0 4 8
-5 18 -10 10 -16 29 -16 43 1 17 3 19 6 7 6 -24 24 -23 30 2 6 23 23 27 23 5
0 -8 6 -12 13 -10 14 5 41 -13 50 -35 5 -9 6 -6 3 7 -2 13 4 29 14 38 17 16
18 16 14 -3 -3 -10 1 -26 10 -34 11 -11 12 -18 3 -27 -8 -8 -8 -11 0 -11 19 0
21 24 5 43 -18 21 -9 35 12 18 8 -7 20 -10 26 -6 5 3 10 1 10 -4 0 -12 36 -51
47 -51 3 0 -2 8 -11 19 -9 10 -15 29 -13 42 2 13 2 18 0 11 -5 -15 -23 -16
-23 -1 0 6 6 16 13 23 17 18 37 -3 38 -41 1 -21 3 -23 6 -8 3 11 9 25 14 32 6
7 6 12 -2 15 -8 3 -7 7 2 15 11 9 14 6 16 -14 0 -14 5 -28 11 -32 5 -3 12 -15
15 -26 3 -11 4 3 1 30 -2 28 -1 43 3 35 3 -8 12 -21 19 -28 11 -11 13 -8 9 20
-3 18 -2 26 1 18 4 -8 12 -18 18 -22 6 -4 12 -13 12 -20 1 -7 2 -18 3 -24 0
-7 9 -15 19 -18 16 -7 16 -6 0 10 -10 11 -13 21 -7 28 5 6 18 22 29 36 19 24
19 25 20 3 0 -12 -7 -29 -16 -37 -8 -9 -11 -16 -6 -16 16 0 40 35 45 65 4 30
4 30 6 3 0 -16 6 -28 12 -28 5 0 3 -10 -5 -22 -20 -28 -21 -44 -1 -28 8 7 15
18 15 26 0 36 46 17 63 -26 4 -12 6 -12 6 1 1 9 -8 24 -19 34 -11 10 -20 24
-20 32 0 19 -18 16 -23 -5 -4 -15 -5 -15 -6 0 -1 22 18 33 32 19 16 -16 24
-14 30 9 3 11 11 20 19 20 9 0 9 -3 2 -8 -6 -4 -15 -18 -19 -32 l-7 -25 27 25
c15 14 31 34 36 45 8 16 8 15 4 -7 -4 -23 -2 -27 12 -22 14 5 15 4 4 -4 -11
-8 -11 -10 0 -15 12 -5 11 -8 -1 -17 -13 -10 -13 -11 0 -7 8 2 16 16 17 31 4
57 25 47 27 -13 1 -47 20 -39 32 12 5 25 44 77 57 77 2 0 4 -14 5 -31 1 -18
13 -40 29 -55 34 -31 43 -31 13 0 -13 15 -20 32 -17 40 9 23 25 19 30 -7 4
-18 4 -17 6 6 0 16 8 35 16 43 13 13 14 12 9 -15 -8 -37 2 -81 18 -81 9 0 9 3
0 12 -15 15 -16 48 -1 48 6 0 13 -9 16 -20 8 -30 16 -24 40 28 l22 47 -4 -58
c-4 -51 -2 -57 11 -46 10 8 11 15 4 19 -6 4 2 18 20 35 24 23 30 35 25 54 -5
21 -4 22 10 8 17 -18 20 -34 6 -39 -5 -1 -11 -14 -14 -28 -2 -14 -2 -19 0 -12
3 6 9 12 14 12 5 0 9 7 9 15 0 26 30 4 31 -24 1 -20 2 -22 6 -6 3 11 17 32 31
47 14 16 20 28 14 28 -7 0 -15 -7 -18 -15 -4 -8 -11 -15 -17 -15 -5 0 -3 8 6
18 10 10 17 26 17 35 0 29 17 18 24 -15 4 -21 2 -37 -8 -46 -12 -12 -11 -17 5
-33 26 -26 37 -24 13 2 -18 20 -18 22 -1 34 19 14 22 32 7 37 -6 2 3 16 20 33
31 30 43 30 13 -1 -21 -21 -27 -100 -6 -82 7 6 13 22 13 37 0 18 10 35 30 51
16 14 29 29 30 34 0 5 7 18 17 28 9 10 11 18 6 18 -6 0 -13 9 -16 19 -3 13 -1
18 8 15 19 -8 25 -42 11 -57 -7 -6 -15 -20 -19 -29 -3 -10 -11 -18 -17 -18
-15 0 -12 -17 4 -23 8 -3 19 5 27 21 7 15 21 35 31 45 17 17 15 47 -3 47 -5 0
-9 18 -9 39 0 23 -7 46 -16 55 -20 20 -19 21 -21 -14 -1 -17 -9 -37 -17 -46
-15 -15 -11 -43 8 -56 7 -5 6 -8 -2 -8 -8 0 -16 9 -19 20 -3 11 -10 20 -17 20
-6 0 -4 5 4 11 11 8 12 12 3 16 -15 5 -18 33 -4 33 5 0 11 -8 14 -17 2 -10 4
3 4 30 -1 33 -6 52 -19 64 -10 9 -18 11 -18 5 0 -6 8 -16 18 -21 14 -9 14 -12
3 -20 -11 -7 -11 -9 0 -14 12 -4 11 -7 -1 -16 -11 -8 -16 -7 -18 4 -2 8 -7 15
-12 15 -4 0 -10 9 -13 20 -3 11 -11 20 -19 19 -10 0 -10 -2 0 -6 14 -6 16 -33
2 -33 -5 0 -10 -7 -10 -15 0 -21 18 -19 23 3 4 16 5 16 6 0 0 -10 6 -18 11
-18 6 0 10 -9 10 -20 0 -11 -4 -20 -10 -20 -5 0 -10 8 -10 18 0 14 -8 18 -32
18 -31 -1 -33 1 -34 34 l-2 35 5 -32 c5 -41 23 -43 23 -3 0 17 -5 30 -12 30
-6 0 1 13 17 30 40 42 23 38 -19 -5 -19 -19 -36 -44 -38 -56 -2 -12 -10 -24
-18 -26 -10 -3 -11 -2 -4 4 19 13 22 113 4 113 -14 0 -12 -27 3 -34 10 -5 10
-7 0 -12 -7 -3 -13 -14 -13 -24 0 -44 -53 -24 -64 24 -2 11 -4 5 -2 -15 1 -27
-2 -35 -11 -32 -12 5 -17 24 -16 60 0 6 -6 9 -13 6 -17 -6 -18 -23 -1 -23 8 0
9 -3 1 -8 -6 -4 -14 -14 -17 -22 -4 -12 -6 -11 -6 3 -1 18 -21 25 -21 7 0 -5
-9 -2 -20 7 -11 10 -20 22 -20 28 0 5 4 3 10 -5 5 -8 13 -11 17 -6 4 5 2 11
-5 13 -9 4 -10 9 -2 18 8 9 7 14 -4 18 -8 3 -13 -1 -12 -10 2 -23 -21 -28 -27
-6 -3 10 -4 3 -4 -16 1 -20 -3 -35 -11 -37 -7 -1 -8 0 -2 3 15 7 12 24 -7 39
-17 12 -17 14 6 37 13 14 21 32 18 39 -4 10 -6 10 -6 -1 -1 -7 -13 -25 -28
-38 -21 -20 -23 -27 -12 -33 7 -5 10 -12 6 -17 -5 -4 -13 -1 -18 7 -8 12 -9 9
-5 -10 5 -25 5 -25 -12 -5 -9 11 -23 20 -31 20 -8 0 -16 7 -18 15 -4 13 -3 13
6 0 5 -8 13 -11 17 -8 3 4 -6 18 -21 32 -33 31 -46 34 -20 6 10 -11 13 -20 7
-20 -15 0 -16 -26 -2 -33 6 -3 5 -4 -2 -3 -7 1 -14 12 -16 24 -2 11 -9 26 -17
32 -11 9 -14 7 -12 -16 1 -16 -4 -28 -13 -31 -13 -4 -13 -3 0 6 13 9 13 14 2
32 -11 18 -11 24 4 40 16 18 16 19 1 14 -17 -7 -30 -34 -25 -56 5 -20 -52 -21
-59 -2 -7 18 -40 53 -50 53 -3 0 2 -8 11 -19 12 -13 15 -27 10 -45 -7 -28 -24
-36 -24 -11 0 8 5 15 12 15 6 0 -1 13 -16 29 -22 23 -25 29 -12 34 9 4 16 11
16 17 0 6 -10 1 -22 -10 -22 -20 -22 -22 -5 -34 18 -14 23 -36 8 -36 -5 0 -11
9 -14 20 -7 27 -27 25 -28 -2 -1 -17 -2 -19 -6 -5 -2 9 -9 17 -14 17 -13 0
-11 28 2 32 7 2 5 9 -5 17 -14 12 -15 9 -12 -28 3 -35 2 -38 -10 -26 -8 7 -14
18 -14 23 0 5 -6 15 -14 22 -8 6 -17 21 -19 33 -3 18 -5 17 -6 -6 0 -16 5 -30
14 -33 17 -7 21 -64 5 -64 -5 0 -10 9 -10 19 0 40 -51 62 -63 28 -2 -7 -3 1
-1 16 3 24 2 26 -10 14 -8 -7 -16 -25 -19 -38 -4 -24 -4 -23 -6 2 0 15 -8 32
-17 40 -13 11 -14 9 -9 -13 9 -36 -12 -45 -38 -17 -13 14 -16 21 -6 17 10 -4
15 0 15 12 0 23 -23 15 -31 -11 -4 -10 -11 -19 -16 -19 -12 0 -12 47 1 55 13
8 13 25 1 25 -5 0 -13 -14 -16 -32 -12 -52 -26 -59 -58 -27 -27 27 -51 30 -60
6 -2 -7 -3 1 -1 16 3 23 1 26 -9 15 -7 -7 -16 -21 -20 -31 -8 -21 -29 -18 -35
4 -3 12 -2 12 7 -1 5 -8 14 -11 18 -6 4 5 2 11 -4 13 -16 6 -17 30 -2 35 7 2
6 8 -4 16 -12 10 -14 8 -14 -12 0 -14 -7 -31 -15 -39 -12 -12 -16 -12 -28 1
-13 14 -12 15 2 9 12 -4 15 -2 12 8 -12 30 -31 23 -29 -11 1 -28 -2 -32 -12
-21 -7 7 -14 28 -16 47 -1 19 -9 35 -17 37 -13 4 -13 3 0 -6 13 -10 13 -13 -2
-22 -10 -5 -18 -17 -18 -25 0 -26 -25 -9 -28 19 -2 15 -8 27 -13 27 -14 0 -11
-48 4 -53 6 -2 8 -8 4 -13 -4 -5 -11 -4 -15 1 -4 6 -13 10 -21 10 -8 0 -16 7
-18 15 -4 13 -3 13 6 0 5 -8 13 -12 16 -8 4 3 -3 16 -14 27 -24 24 -40 28 -21
6 8 -9 8 -15 2 -15 -6 0 -13 -12 -15 -27 -4 -26 -4 -26 -6 5 -1 31 -21 47 -21
18 0 -38 -45 -20 -63 24 -4 12 -6 12 -6 -2 -1 -9 -7 -18 -13 -21 -7 -2 -9 -8
-5 -13 4 -5 12 -2 17 6 6 9 10 10 10 3 0 -21 -23 -27 -36 -8 -8 11 -19 15 -30
11 -21 -8 -63 28 -59 52 1 9 0 11 -2 5 -3 -7 -10 -13 -16 -13 -9 0 -9 -2 -1
-8 6 -4 14 -18 18 -32 5 -17 4 -21 -2 -11 -6 7 -20 14 -33 15 -12 0 -24 8 -26
16 -4 13 -3 13 6 0 5 -8 13 -11 18 -7 4 5 3 11 -3 15 -6 4 -14 14 -17 22 -4
12 -6 11 -6 -2 -1 -10 -5 -18 -11 -18 -13 0 -13 -27 0 -33 6 -3 5 -4 -2 -3 -7
1 -14 12 -16 24 -2 11 -9 26 -17 32 -11 9 -14 6 -12 -17 2 -30 -23 -41 -30
-13 -4 13 -3 13 6 0 5 -8 13 -11 18 -7 10 11 -17 27 -34 20 -7 -3 -13 2 -13
11 0 9 5 16 10 16 6 0 10 7 10 15 0 8 -4 15 -9 15 -10 0 -21 -34 -21 -67 0
-36 -17 -27 -24 12 -4 19 -11 35 -16 35 -14 0 -12 -14 2 -28 23 -23 -3 -25
-28 -1 l-26 24 7 -25 c4 -14 13 -28 19 -32 8 -6 8 -8 -1 -8 -6 0 -18 13 -26
29 -14 27 -13 30 9 40 13 5 30 22 40 36 9 14 23 25 30 25 8 0 14 5 14 10 0 6
7 10 15 10 8 0 15 4 15 10 0 5 25 34 55 64 30 29 55 58 55 63 0 5 9 16 20 26
22 19 106 24 112 7 2 -6 60 -13 136 -17 72 -3 132 -10 132 -15 0 -4 14 -8 30
-8 17 0 30 3 30 8 0 4 10 12 23 17 17 8 23 20 25 53 l3 42 45 0 c24 0 44 4 44
9 0 5 14 12 30 16 17 4 30 10 30 15 0 5 13 11 29 15 16 3 32 13 35 21 4 9 20
14 51 14 25 0 45 4 45 9 0 5 20 12 45 15 25 4 45 11 45 16 0 5 8 11 18 14 9 2
-1 2 -23 -1 -22 -3 -41 -10 -43 -14 -6 -16 -118 -10 -132 6 -13 16 -6 35 15
35 24 0 99 37 133 65 32 27 32 28 16 53 -26 39 -75 81 -114 99 -28 12 -62 14
-180 9 -319 -12 -548 -25 -644 -35 -56 -6 -202 -16 -326 -22 -124 -6 -344 -17
-490 -24 -146 -8 -371 -19 -500 -24 -129 -6 -264 -15 -300 -20 -36 -6 -96 -13
-135 -16 -38 -3 -74 -10 -80 -14 -5 -5 -22 -11 -38 -15 -15 -4 -49 -20 -76
-36 -26 -17 -53 -30 -59 -30 -6 0 -12 -3 -14 -7 -5 -12 -88 -50 -133 -62 -165
-42 -137 -41 -1002 -42 -757 -1 -888 -2 -888 -9 0 -1 -20 -3 -45 -5 -25 -1
-45 -3 -45 -4 0 -5 -44 -11 -114 -15 -41 -3 -77 -9 -80 -14 -3 -4 -52 -8 -108
-8 -55 1 -97 -2 -91 -5 5 -3 -7 -9 -28 -12 -25 -4 -41 -2 -46 6 -6 9 -10 8
-18 -3 -6 -9 -29 -16 -62 -17 -97 -6 -163 -11 -168 -13 -3 -2 -18 -4 -35 -5
-16 -2 -46 -5 -65 -8 -19 -3 -68 -8 -109 -12 -67 -5 -76 -4 -97 16 -13 12 -24
28 -24 36 0 7 -4 13 -10 13 -5 0 -10 9 -10 20 0 12 -7 35 -17 53 -12 25 -17
66 -19 182 -6 347 -60 761 -130 997 -8 26 -14 54 -14 62 0 8 -6 30 -14 48 -7
18 -21 60 -31 93 -10 33 -23 74 -30 90 -7 17 -21 50 -30 75 -33 89 -111 253
-155 325 -16 28 -33 57 -37 65 -21 44 -164 240 -175 240 -4 0 -8 4 -8 9 0 13
-188 201 -201 201 -5 0 -9 4 -9 8 0 4 -34 33 -76 63 -42 29 -85 62 -95 72 -10
9 -23 17 -29 17 -5 0 -43 16 -83 35 -90 41 -149 64 -202 75 -22 5 -55 14 -74
19 -46 14 -279 22 -361 12z m-8498 -558 c65 -25 141 -86 192 -152 51 -66 116
-185 115 -210 0 -13 -1 -14 -6 -1 -10 28 -105 170 -114 170 -5 0 -9 7 -9 15 0
8 -7 15 -15 15 -8 0 -15 4 -15 9 0 5 -16 19 -36 31 l-35 22 -20 -20 c-12 -14
-19 -36 -20 -64 0 -33 -2 -38 -9 -23 -7 15 -9 16 -9 4 -2 -31 31 -94 68 -130
53 -52 91 -97 91 -109 0 -6 7 -13 15 -16 8 -4 15 -12 15 -19 0 -8 6 -20 13
-27 19 -21 47 -78 47 -95 0 -13 8 -15 41 -10 23 3 45 11 50 18 18 29 25 -6 55
-263 7 -56 6 -58 -17 -58 -30 -1 -71 -34 -64 -52 10 -24 -59 -409 -84 -471 -6
-16 -11 -39 -11 -52 0 -14 -11 -31 -26 -42 l-26 -20 18 -53 c21 -60 48 -84 65
-60 8 11 9 6 5 -20 -4 -19 -11 -36 -16 -38 -6 -2 -10 -9 -10 -16 0 -20 -97
-147 -149 -193 -25 -23 -71 -55 -101 -70 -48 -24 -66 -28 -140 -27 -72 1 -93
5 -138 28 -30 15 -73 47 -96 69 -50 50 -106 121 -106 135 0 6 -4 12 -9 14 -11
4 -74 139 -95 203 -40 124 -46 147 -46 173 -1 15 -7 54 -15 87 -21 87 -20 456
1 573 22 121 64 279 91 342 33 76 88 180 95 180 5 0 8 6 8 13 0 20 107 135
154 165 23 15 59 35 81 44 53 22 162 23 217 1z m8893 -121 c74 -25 121 -47
160 -72 17 -11 36 -23 43 -26 37 -18 166 -142 219 -209 43 -55 103 -145 103
-155 0 -5 6 -15 13 -22 19 -21 64 -119 107 -233 54 -147 76 -254 97 -472 15
-157 15 -185 0 -340 -25 -271 -70 -433 -174 -637 -32 -63 -47 -90 -53 -96 -10
-10 -50 -69 -50 -74 0 -2 -17 -24 -37 -47 -130 -149 -245 -228 -408 -280 -83
-26 -255 -26 -346 0 -72 20 -199 80 -199 93 0 4 -5 8 -11 8 -38 0 -205 167
-285 287 -64 95 -147 258 -159 310 -3 18 -11 35 -16 38 -5 4 -9 16 -9 28 0 12
-6 34 -14 48 -7 14 -17 48 -21 75 -4 27 -10 54 -13 59 -35 53 -54 554 -27 715
22 131 56 261 92 355 45 114 72 174 91 193 6 7 12 18 12 23 0 37 236 308 290
332 8 4 29 16 45 27 55 36 162 79 225 91 80 14 259 4 325 -19z m-7335 -1671
c0 -5 47 -11 105 -13 80 -2 108 -7 116 -18 8 -11 12 -12 16 -2 2 6 20 12 39
12 21 0 34 -5 34 -12 0 -19 -152 -17 -176 2 -16 13 -17 13 -12 0 5 -13 -9 -15
-86 -17 -50 -1 -117 -3 -148 -6 -32 -2 -58 0 -58 5 0 5 -5 6 -11 2 -17 -10
-52 -11 -71 -2 -11 5 -22 2 -33 -8 -12 -13 -19 -14 -30 -4 -12 10 -15 10 -15
0 0 -8 -2 -11 -5 -8 -4 3 -3 17 1 32 6 26 6 26 110 26 63 0 104 4 104 10 0 6
27 10 60 10 33 0 60 -4 60 -9z m14765 -124 c-10 -25 -109 -39 -300 -42 -104
-2 -287 -10 -405 -19 -118 -9 -336 -23 -485 -31 -148 -9 -346 -20 -440 -26
-93 -5 -282 -14 -420 -19 -137 -5 -297 -14 -355 -20 -135 -13 -325 -13 -292 1
13 5 166 13 340 19 175 5 369 14 432 20 106 9 272 18 725 39 94 5 229 13 300
20 72 6 200 16 285 21 85 6 227 15 315 21 88 5 183 14 210 18 77 13 95 13 90
-2z"/>
<path d="M7012 7330 c-29 -27 -52 -54 -52 -60 0 -5 -4 -10 -10 -10 -11 0 -96
-141 -131 -217 -18 -39 -31 -55 -54 -63 l-30 -11 25 -19 c40 -30 58 -31 85 -2
28 30 28 31 16 51 -28 43 102 278 190 343 28 21 38 38 21 38 -4 0 -31 -22 -60
-50z"/>
<path d="M6726 6578 c-3 -13 -6 -76 -6 -140 0 -109 -2 -118 -22 -132 -21 -15
-21 -18 -11 -103 10 -78 23 -136 48 -210 6 -17 14 -22 40 -21 23 1 35 7 38 19
5 19 -3 89 -22 194 -30 171 -41 256 -41 332 0 80 -11 108 -24 61z"/>
<path d="M6972 5807 c-6 -6 -14 -25 -17 -40 -4 -15 -11 -30 -16 -33 -17 -10
-9 -33 14 -37 l22 -4 -22 -8 c-28 -9 -31 -45 -5 -45 11 0 32 -12 48 -26 71
-63 192 -83 264 -44 34 19 35 19 8 20 -15 0 -30 5 -33 10 -3 6 -19 10 -35 10
-16 0 -32 5 -35 11 -4 5 -19 8 -33 4 -20 -4 -35 2 -57 20 l-30 24 26 1 c14 0
48 -12 75 -26 38 -20 62 -26 116 -26 37 0 72 3 78 7 17 10 11 46 -18 105 l-27
55 -90 7 c-49 4 -108 11 -130 17 -54 14 -90 14 -103 -2z"/>
<path d="M15775 7280 c-22 -11 -46 -19 -52 -20 -7 0 -13 -4 -13 -10 0 -5 -11
-12 -25 -16 -14 -3 -25 -12 -25 -19 0 -7 -7 -15 -15 -19 -8 -3 -15 -10 -15
-16 0 -21 -217 -300 -250 -322 -19 -13 -39 -33 -45 -45 -6 -11 -16 -27 -21
-34 -17 -22 -24 -59 -11 -59 7 -1 -3 -7 -21 -15 -19 -8 -32 -20 -30 -27 11
-33 168 -87 168 -58 0 6 7 10 15 10 8 0 15 4 15 9 0 14 62 83 217 241 78 80
149 154 157 165 18 23 22 125 6 125 -12 0 -73 -41 -78 -52 -2 -5 -8 -8 -13 -8
-4 0 -33 -23 -64 -52 -78 -72 -168 -196 -218 -298 -12 -26 -26 -40 -40 -40
-20 0 20 108 63 175 11 17 23 37 27 45 21 43 206 230 229 230 8 0 14 3 14 8 0
4 23 18 50 31 51 24 54 29 44 69 -8 27 -17 27 -69 2z"/>
<path d="M16196 7266 c5 -20 2 -26 -10 -26 -9 0 -16 5 -16 10 0 6 -7 10 -15
10 -12 0 -15 -16 -15 -85 0 -67 -3 -87 -15 -91 -27 -11 -17 -54 20 -90 20 -19
41 -32 47 -28 6 4 8 3 5 -3 -7 -12 36 -63 52 -63 16 0 51 -33 51 -47 0 -7 7
-13 16 -13 9 0 14 -5 12 -12 -2 -6 13 -28 34 -49 21 -20 38 -41 38 -47 0 -6 6
-15 13 -19 8 -4 24 -24 38 -42 13 -19 35 -48 48 -63 22 -25 26 -26 41 -13 14
13 18 12 33 -5 20 -24 70 -26 111 -5 15 8 32 15 37 15 15 0 49 39 49 56 0 15
-85 199 -102 219 -5 5 -17 21 -28 34 l-20 24 0 -27 c0 -15 -7 -29 -16 -33 -9
-3 -14 -13 -11 -24 6 -22 -6 -32 -54 -49 -31 -11 -38 -11 -59 6 -43 35 -100
91 -100 99 0 5 -20 28 -45 52 -25 23 -45 47 -45 52 0 27 234 27 266 0 15 -12
16 -11 10 9 -10 29 -57 76 -137 137 -35 27 -68 53 -74 59 -11 12 -107 60 -143
71 -21 6 -22 4 -16 -19z"/>
<path d="M16099 6253 l-37 -14 18 -52 c10 -29 21 -69 25 -89 4 -29 11 -38 25
-38 12 0 17 -5 14 -14 -3 -7 2 -16 10 -19 13 -5 16 1 16 28 0 26 -4 35 -17 36
-15 0 -15 2 2 8 22 9 38 4 30 -9 -3 -5 0 -18 6 -29 10 -16 15 -17 26 -6 7 8
13 19 13 25 0 7 8 10 20 7 14 -4 20 0 20 12 0 10 -9 26 -20 36 -11 10 -20 23
-20 29 0 18 -60 86 -75 86 -7 0 -15 4 -17 9 -1 5 -19 2 -39 -6z"/>
<path d="M15226 6218 c-3 -13 -6 -44 -6 -70 0 -26 -4 -49 -9 -52 -5 -3 -7 -16
-4 -29 4 -21 4 -22 -11 -3 -9 11 -16 23 -16 28 0 4 -7 8 -15 8 -13 0 -15 -20
-15 -121 0 -117 17 -240 46 -341 8 -26 14 -55 14 -65 0 -10 7 -31 15 -47 8
-15 15 -33 15 -38 0 -5 22 -56 50 -113 34 -70 57 -106 71 -110 25 -8 21 -12
58 59 27 50 31 68 31 136 0 43 -5 91 -10 105 -6 15 -17 57 -25 94 -25 110 -74
347 -82 399 -8 48 -23 39 -24 -15 -1 -27 -4 -39 -6 -28 -3 11 -11 24 -19 28
-10 6 -14 31 -14 96 0 72 -3 90 -16 95 -22 8 -21 9 -28 -16z"/>
<path d="M16790 6180 c-25 -11 -53 -22 -62 -26 -20 -7 -29 -44 -32 -123 -3
-63 -44 -308 -56 -332 -5 -9 -12 -38 -15 -65 -4 -27 -11 -53 -15 -59 -4 -5
-11 -28 -14 -49 -8 -41 -22 -68 -69 -127 -39 -50 -44 -95 -18 -152 12 -25 21
-48 21 -51 0 -3 7 -14 15 -24 23 -27 81 -17 103 17 9 14 19 28 22 31 38 36
117 228 161 387 52 191 72 541 33 580 -16 16 -19 16 -74 -7z"/>
<path d="M15703 5173 c-7 -3 -13 -11 -13 -18 0 -13 -30 -76 -41 -85 -9 -8 -30
-73 -24 -78 3 -3 0 -11 -6 -19 -9 -10 -6 -18 11 -33 13 -11 27 -20 31 -20 4 0
14 -6 21 -13 7 -6 40 -25 73 -42 143 -70 312 -85 445 -39 41 14 84 28 95 31
11 4 22 9 25 13 3 4 14 12 25 18 l20 11 -20 0 c-11 0 -38 -7 -60 -15 -22 -8
-68 -17 -103 -21 -51 -5 -65 -3 -75 10 -7 9 -28 18 -47 20 -19 2 6 5 56 5 124
3 234 27 234 53 0 30 -58 129 -94 162 -22 19 -20 19 -101 19 -33 0 -132 9
-220 19 -224 27 -219 26 -232 22z"/>
<path d="M16626 7925 c-30 -28 -31 -28 39 -80 59 -44 226 -213 265 -267 18
-27 37 -48 42 -48 4 0 8 -6 8 -13 0 -16 72 -42 94 -34 20 8 6 50 -32 94 -15
17 -35 42 -44 55 -52 71 -232 258 -249 258 -4 0 -21 14 -37 30 -37 37 -51 37
-86 5z"/>
<path d="M24026 6809 l6 -35 -59 -14 c-32 -7 -83 -25 -114 -40 -55 -27 -129
-89 -129 -108 0 -5 -6 -12 -12 -15 -7 -3 -22 -22 -33 -43 -11 -22 -28 -48 -37
-58 -10 -11 -18 -26 -18 -33 0 -7 -4 -13 -9 -13 -5 0 -12 -8 -15 -17 -7 -19
-30 -60 -38 -68 -16 -16 -530 -46 -1113 -65 -148 -5 -353 -13 -455 -19 -185
-11 -910 -33 -1135 -35 -110 -1 -120 1 -130 19 -49 91 -177 245 -205 245 -5 0
-10 3 -10 8 0 11 -85 48 -150 66 -248 68 -1017 81 -1250 21 -71 -18 -190 -72
-190 -86 0 -5 -6 -9 -14 -9 -26 0 -178 -160 -245 -258 -14 -20 -29 -38 -33
-40 -5 -2 -8 -8 -8 -13 0 -9 -38 -68 -51 -79 -3 -3 -15 -25 -28 -50 -12 -25
-26 -52 -30 -60 -25 -47 -32 -64 -51 -117 -26 -75 -26 -141 1 -193 22 -41 104
-120 127 -120 6 0 12 -4 12 -10 0 -5 6 -10 13 -10 6 0 25 -7 40 -15 15 -8 45
-17 65 -20 20 -4 48 -11 62 -16 14 -5 59 -13 100 -18 41 -5 86 -11 98 -15 28
-6 308 -18 442 -18 58 0 98 -4 102 -11 4 -7 86 -10 258 -9 138 1 261 -2 273
-7 28 -9 357 6 377 18 9 5 44 12 78 16 34 4 62 10 62 14 0 4 27 13 60 20 33 8
60 17 60 22 0 5 6 9 14 9 8 0 30 9 50 20 23 14 36 17 41 10 5 -8 11 -6 18 4 7
9 26 17 42 19 17 2 37 6 45 10 30 12 339 33 765 51 72 3 141 8 155 10 14 2
115 7 225 10 110 4 250 11 310 17 61 5 196 14 300 20 418 22 583 35 596 46 9
7 60 11 137 11 103 0 131 -3 170 -20 26 -12 49 -24 52 -28 17 -25 87 -60 119
-60 62 0 174 42 201 76 11 13 10 13 -14 4 -15 -5 -31 -8 -36 -5 -4 2 -22 -3
-40 -11 -51 -26 -147 -23 -195 6 -22 14 -46 30 -53 37 -19 19 -96 28 -229 27
-107 0 -145 6 -114 18 4 2 11 20 15 41 6 31 4 37 -11 37 -13 0 -10 7 15 33 53
54 72 78 139 182 36 55 74 112 84 127 11 15 19 30 19 33 0 3 26 45 57 93 71
107 72 109 102 166 14 25 28 46 32 46 4 0 11 9 14 20 3 11 12 20 18 20 7 0 23
10 37 23 14 13 48 34 75 46 88 41 110 53 122 69 8 10 22 13 43 9 29 -6 30 -5
30 28 0 19 -4 35 -9 35 -5 0 -12 8 -15 18 -2 9 -2 1 0 -19z m-4266 -212 c22
-2 40 0 40 3 0 3 35 6 78 7 60 0 70 -1 42 -8 -22 -5 20 -7 110 -4 102 2 135 1
113 -6 -18 -5 -33 -11 -33 -13 0 -1 56 -2 125 -2 83 1 128 -3 133 -10 4 -6 26
-15 50 -19 23 -4 42 -10 42 -15 0 -4 12 -11 26 -14 69 -18 215 -216 336 -457
39 -79 76 -145 80 -147 4 -2 8 -8 8 -13 0 -18 74 -109 88 -109 11 0 12 -3 3
-14 -6 -7 -39 -16 -74 -20 -97 -11 -157 -33 -157 -59 0 -37 50 -52 125 -38 34
6 100 10 146 9 l84 -2 -70 -3 c-38 -2 -79 -7 -90 -12 -11 -5 -45 -12 -75 -16
-30 -3 -59 -10 -65 -14 -5 -4 -39 -18 -75 -31 -36 -13 -68 -29 -72 -34 -5 -7
-8 -5 -8 4 0 8 14 21 32 29 28 13 30 15 12 22 -10 4 -29 5 -41 2 -16 -3 -23
-1 -23 9 0 10 -14 15 -43 17 -44 2 -57 -6 -71 -43 -5 -14 -3 -17 10 -12 13 5
15 2 11 -14 -5 -18 0 -20 36 -20 l42 0 -30 -20 c-16 -11 -38 -18 -48 -16 -9 2
-24 -2 -31 -10 -9 -9 -50 -16 -115 -20 -56 -4 -101 -11 -101 -16 0 -4 -57 -8
-126 -8 -112 0 -125 2 -120 16 6 14 -7 16 -114 13 -66 -2 -121 -1 -123 3 -3 9
-62 15 -281 28 -104 6 -192 13 -196 15 -3 2 -73 7 -156 11 -82 3 -157 10 -166
15 -9 5 -36 9 -60 9 -28 0 -38 3 -30 9 20 12 194 3 203 -10 4 -7 19 -9 40 -5
19 3 39 6 44 5 6 0 96 -4 200 -7 105 -4 195 -10 201 -14 15 -10 289 -23 469
-23 196 1 231 11 273 75 18 27 32 53 32 58 0 6 7 12 15 16 8 3 15 12 15 21 0
8 5 15 10 15 6 0 10 7 10 15 0 13 10 14 58 9 31 -4 59 -8 61 -10 2 -2 22 12
45 30 36 30 51 35 120 41 145 14 134 22 -34 27 -94 3 -179 11 -198 18 -31 11
-32 15 -31 59 2 48 -14 137 -30 168 -5 10 -20 43 -35 73 -14 30 -34 71 -45 90
-11 19 -28 53 -37 75 -36 81 -108 161 -154 171 -14 2 -39 9 -56 14 -17 6 -51
10 -76 10 -40 0 -45 2 -41 19 6 25 -9 30 -156 42 -149 13 -444 6 -582 -15
-127 -19 -184 -38 -264 -91 -58 -39 -155 -129 -155 -145 0 -5 -4 -10 -8 -10
-11 0 -134 -168 -178 -245 -71 -121 -109 -250 -74 -250 8 0 16 10 18 23 4 26
27 29 36 5 8 -19 -17 -43 -44 -43 -31 0 -42 -40 -26 -92 7 -26 20 -53 27 -60
21 -20 72 -52 94 -60 19 -6 19 -6 1 -7 -35 -2 -122 47 -163 92 -29 32 -42 55
-47 88 -7 45 6 134 23 166 5 10 19 38 31 63 12 25 30 59 41 75 10 17 22 37 26
45 10 23 47 75 56 78 4 2 7 8 7 13 0 5 6 17 14 26 8 10 31 38 51 62 33 40 139
127 175 144 8 4 38 21 65 38 149 90 247 113 554 129 95 5 176 11 179 14 2 3 9
3 13 0 5 -3 27 -6 49 -7z"/>
<path d="M23975 6688 c-44 -15 -58 -23 -62 -35 -4 -12 50 -25 57 -13 3 4 10 3
16 -4 11 -12 -2 -90 -31 -186 -13 -45 -13 -45 -14 57 -1 56 -5 104 -10 107
-19 12 -126 -24 -153 -52 -26 -26 -113 -167 -153 -247 -11 -22 -23 -42 -26
-45 -3 -3 -13 -18 -22 -35 -80 -156 -107 -216 -107 -248 0 -19 -35 -36 -92
-44 -47 -7 -39 -23 11 -23 56 0 101 -11 101 -24 0 -14 54 -65 87 -83 27 -16
69 -17 78 -3 3 6 13 10 22 10 8 0 32 14 53 30 21 17 43 30 49 30 5 0 26 7 45
16 31 15 33 19 24 40 -14 29 -2 94 17 94 8 0 15 -7 15 -15 0 -8 5 -15 10 -15
6 0 10 -6 9 -12 -3 -22 13 -78 22 -78 5 0 9 -5 9 -11 0 -6 6 -25 14 -42 8 -18
16 -40 20 -49 7 -22 26 -24 26 -3 0 8 -4 15 -10 15 -5 0 -13 18 -16 40 -4 22
-10 40 -15 40 -4 0 -11 20 -15 45 -3 25 -10 45 -15 45 -5 0 -9 9 -9 20 0 11 4
20 9 20 5 0 12 34 16 75 4 41 11 75 15 75 4 0 11 29 15 65 3 36 10 65 15 65 4
0 11 27 15 60 4 33 11 60 15 60 4 0 11 27 15 60 4 33 11 60 16 60 5 0 9 18 9
40 0 22 -4 40 -10 40 -5 0 -10 16 -10 35 0 37 -5 40 -55 23z"/>
<path d="M10625 6138 c22 -5 96 -13 165 -18 69 -5 155 -14 190 -19 36 -6 85
-11 110 -11 42 0 115 -7 470 -45 74 -8 153 -15 175 -15 22 0 96 -6 165 -14
128 -15 288 -30 490 -46 63 -5 156 -14 205 -19 108 -13 299 -30 450 -41 61 -4
158 -13 215 -19 191 -20 325 -29 339 -21 19 10 -58 20 -464 55 -99 9 -247 22
-330 30 -237 23 -381 36 -504 45 -63 5 -160 13 -215 19 -167 18 -324 32 -456
41 -69 5 -163 14 -210 20 -80 9 -165 16 -490 40 -74 6 -151 15 -171 20 -20 6
-67 9 -105 9 -66 -1 -67 -2 -29 -11z"/>
</g>
</svg>
