<?xml version="1.0" standalone="no"?>
<!DOCTYPE svg PUBLIC "-//W3C//DTD SVG 20010904//EN"
 "http://www.w3.org/TR/2001/REC-SVG-20010904/DTD/svg10.dtd">
<svg version="1.0" xmlns="http://www.w3.org/2000/svg"
 width="2880.000000pt" height="1725.000000pt" viewBox="0 0 2880.000000 1725.000000"
 preserveAspectRatio="xMidYMid meet">
<metadata>
Created by potrace 1.16, written by Peter Selinger 2001-2019
</metadata>
<g transform="translate(0.000000,1725.000000) scale(0.100000,-0.100000)"
fill="#000000" stroke="none">
<path d="M12448 10988 c-19 -5 -17 -6 11 -7 36 -1 125 -25 178 -47 17 -8 43
-14 57 -14 14 0 26 -4 26 -10 0 -5 8 -10 17 -10 9 0 14 -3 11 -6 -4 -3 -30 1
-60 10 -113 32 -175 46 -204 45 -21 -1 -23 -3 -9 -6 11 -3 24 -9 30 -14 5 -5
20 -9 35 -9 14 0 37 -6 52 -14 14 -8 51 -23 80 -34 30 -11 70 -30 89 -41 19
-11 41 -24 49 -28 8 -3 41 -26 73 -50 31 -24 59 -43 62 -43 2 0 19 -15 38 -32
18 -18 58 -53 88 -78 49 -41 101 -95 282 -290 31 -34 57 -65 57 -67 0 -3 24
-29 53 -60 28 -30 56 -62 61 -71 5 -9 23 -31 40 -48 17 -17 56 -62 86 -99 30
-38 70 -84 88 -102 17 -19 32 -36 32 -39 0 -3 18 -25 41 -49 22 -24 50 -56 62
-72 12 -16 46 -54 74 -84 29 -29 76 -79 104 -109 l50 -55 -38 -6 c-107 -18
-238 -54 -259 -70 -11 -9 -24 2 -38 31 -3 8 -15 29 -26 45 -11 17 -26 42 -32
58 -7 15 -16 27 -20 27 -4 0 -8 5 -8 11 0 6 -13 28 -30 49 -16 21 -30 43 -30
49 0 6 -4 11 -9 11 -5 0 -21 20 -35 45 -15 25 -31 45 -36 45 -6 0 -10 6 -10
14 0 8 -3 16 -8 18 -4 2 -32 35 -62 73 -30 39 -68 86 -85 106 -16 19 -48 57
-70 84 -22 26 -44 53 -50 59 -5 6 -37 43 -70 81 -93 109 -323 336 -395 390
-36 27 -67 52 -70 55 -14 16 -162 97 -209 114 -132 48 -165 56 -361 96 -165
34 -754 36 -1060 5 -225 -23 -399 -46 -472 -61 -37 -8 -80 -14 -95 -14 -15 0
-57 -6 -93 -15 -36 -8 -101 -22 -145 -31 -217 -44 -490 -126 -680 -204 -53
-21 -365 -177 -400 -199 -61 -39 -79 -50 -95 -57 -31 -16 -165 -108 -168 -116
-2 -4 -10 -8 -17 -8 -7 0 -15 -7 -19 -15 -3 -8 -10 -15 -16 -15 -6 0 -16 -5
-23 -10 -7 -6 -27 -22 -46 -35 -23 -17 -29 -25 -18 -25 10 0 25 9 34 20 10 11
23 20 30 20 7 0 13 3 13 8 0 4 17 18 38 32 20 14 42 29 49 35 7 5 18 15 26 21
7 6 23 15 35 18 12 4 22 11 22 16 0 4 12 13 28 19 15 6 41 20 57 31 17 11 39
24 50 30 11 6 43 24 70 40 53 33 208 108 305 148 14 6 46 20 72 31 26 12 53
21 60 21 8 0 18 4 24 8 9 9 202 71 299 97 28 8 70 19 95 26 25 7 63 16 85 20
22 4 63 13 90 19 186 42 410 76 765 117 230 26 890 26 1040 0 182 -32 274 -56
370 -94 59 -25 164 -77 178 -90 6 -6 21 -15 32 -18 11 -3 20 -11 20 -16 0 -5
6 -9 14 -9 8 0 16 -3 18 -7 2 -5 26 -26 53 -48 122 -97 304 -282 465 -474 25
-30 52 -61 60 -70 9 -9 33 -38 55 -66 22 -27 43 -51 47 -53 5 -2 8 -8 8 -14 0
-6 6 -16 14 -22 20 -17 166 -214 166 -224 0 -6 6 -12 13 -15 6 -3 21 -22 32
-43 11 -22 22 -41 25 -44 15 -15 50 -73 80 -135 19 -38 38 -72 41 -75 3 -3 16
-34 28 -70 13 -36 28 -75 33 -87 6 -12 8 -36 5 -52 -4 -20 -2 -31 5 -31 14 0
6 163 -9 182 -6 7 -14 30 -18 51 -4 20 -11 37 -16 37 -5 0 -9 6 -9 13 0 15
256 97 304 97 9 0 43 -16 74 -37 71 -45 178 -98 216 -107 38 -9 52 -25 61 -67
11 -50 50 -133 77 -161 27 -29 121 -72 140 -65 7 3 3 6 -9 6 -13 1 -23 6 -23
11 0 6 -5 10 -12 10 -41 0 -123 119 -142 206 l-7 31 113 6 c448 22 2965 -11
3238 -43 47 -6 191 -13 320 -15 129 -3 278 -11 330 -18 l95 -12 -215 -7 c-504
-17 -453 -23 205 -26 682 -2 795 -5 804 -21 3 -5 52 -12 109 -16 56 -4 102
-11 102 -15 0 -4 47 -11 105 -15 58 -4 107 -10 110 -15 3 -4 52 -11 110 -15
58 -4 105 -11 105 -15 0 -4 53 -11 118 -15 64 -4 122 -10 127 -14 9 -6 87 -15
370 -44 66 -6 125 -15 130 -18 6 -4 60 -9 120 -11 61 -3 86 -3 58 -1 -29 2
-53 8 -53 12 0 5 -54 12 -120 16 -66 4 -120 11 -120 15 0 4 -56 11 -125 15
-69 4 -125 11 -125 15 0 5 -58 11 -130 15 -71 4 -130 11 -130 15 0 5 -47 11
-105 15 -58 4 -105 11 -105 15 0 5 -49 12 -110 15 -60 4 -110 11 -110 15 0 4
-47 11 -105 15 -58 4 -105 10 -105 15 0 4 -32 10 -71 12 -39 3 -74 10 -78 16
-3 5 -25 13 -48 17 -24 4 -43 10 -43 15 0 4 -18 10 -40 14 -22 3 -40 11 -40
16 0 6 -9 10 -19 10 -11 0 -26 7 -34 15 -8 7 -26 17 -41 21 -14 3 -26 10 -26
14 0 5 -13 11 -30 15 -16 4 -30 11 -30 16 0 5 -7 9 -15 9 -9 0 -18 6 -21 14
-3 8 -17 17 -31 21 -15 3 -50 31 -80 61 -29 30 -57 54 -62 54 -5 0 -22 13 -38
28 -15 16 -36 31 -45 35 -10 3 -18 11 -18 16 0 5 -13 12 -30 16 -16 4 -30 10
-30 15 0 5 -13 11 -30 15 -16 4 -30 10 -30 15 0 4 -20 11 -45 14 -25 4 -45 11
-45 16 0 5 -13 11 -30 15 -16 4 -30 11 -30 16 0 5 -11 11 -24 15 -14 3 -27 12
-30 20 -3 8 -12 14 -21 14 -8 0 -15 4 -15 9 0 5 -11 12 -25 15 -14 4 -25 11
-25 16 0 6 -7 10 -15 10 -9 0 -18 6 -21 14 -3 8 -19 18 -35 21 -16 4 -29 11
-29 16 0 5 -11 11 -24 15 -14 3 -27 12 -30 20 -3 8 -12 14 -21 14 -8 0 -15 4
-15 9 0 5 -11 12 -25 15 -14 4 -25 10 -25 15 0 5 -13 12 -30 16 -16 4 -30 11
-30 16 0 5 -7 9 -15 9 -9 0 -18 6 -21 14 -3 8 -16 17 -30 20 -13 4 -24 10 -24
15 0 5 -13 12 -30 16 -16 4 -30 11 -30 16 0 5 -7 9 -15 9 -9 0 -18 6 -21 14
-3 8 -19 18 -35 21 -16 4 -29 10 -29 15 0 5 -13 11 -30 15 -16 4 -30 10 -30
15 0 4 -11 11 -25 14 -14 4 -25 10 -25 15 0 5 -13 12 -29 16 -16 3 -32 13 -35
21 -3 8 -12 14 -21 14 -8 0 -15 4 -15 9 0 5 -13 12 -30 16 -16 4 -30 10 -30
15 0 5 -13 11 -30 15 -16 4 -30 10 -30 15 0 5 -13 11 -30 15 -16 4 -30 10 -30
15 0 4 -11 11 -25 14 -14 4 -25 11 -25 16 0 5 -16 12 -35 16 -19 3 -35 10 -35
14 0 5 -13 11 -30 15 -16 4 -30 10 -30 15 0 5 -13 11 -30 15 -16 4 -30 10 -30
15 0 5 -13 11 -30 15 -16 4 -30 11 -30 16 0 5 -18 12 -40 15 -22 4 -40 10 -40
14 0 5 -13 11 -30 15 -16 4 -30 10 -30 15 0 4 -16 11 -35 14 -19 4 -35 11 -35
16 0 6 -18 13 -40 16 -22 4 -40 10 -40 14 0 4 -16 11 -35 14 -19 4 -35 11 -35
15 0 5 -20 12 -45 15 -25 4 -45 11 -45 15 0 5 -20 12 -45 15 -25 4 -45 11 -45
16 0 4 -27 11 -60 15 -33 4 -60 11 -60 15 0 4 -27 11 -60 15 -33 4 -60 10 -60
15 0 4 -34 11 -75 15 -41 4 -75 10 -75 15 0 4 -34 11 -75 15 -41 4 -75 11 -75
16 0 5 -4 9 -10 9 -5 0 -10 -7 -10 -15 0 -8 7 -15 15 -15 8 0 15 -4 15 -9 0
-5 21 -11 48 -14 26 -3 79 -15 117 -27 39 -11 86 -23 105 -27 19 -3 40 -9 45
-13 6 -5 27 -11 48 -15 41 -8 39 -20 -3 -28 -18 -3 -13 -5 15 -6 22 -1 58 -8
80 -16 22 -8 48 -15 58 -15 10 0 48 -13 84 -30 35 -16 71 -30 79 -30 8 0 14
-4 14 -10 0 -5 5 -10 12 -10 13 0 220 -101 228 -112 3 -3 18 -10 33 -13 15 -4
27 -10 27 -14 0 -4 24 -19 53 -34 28 -15 61 -33 72 -40 10 -7 37 -23 60 -37
22 -13 49 -30 60 -37 11 -7 28 -16 38 -19 9 -3 17 -10 17 -15 0 -5 6 -9 13 -9
6 0 34 -16 61 -35 27 -19 55 -35 63 -35 7 0 13 -3 13 -7 0 -8 26 -25 98 -65
18 -10 51 -32 74 -48 23 -17 47 -30 55 -30 7 0 13 -5 13 -10 0 -6 10 -15 23
-20 23 -10 58 -31 67 -40 14 -14 70 -50 79 -50 5 0 11 -3 13 -7 5 -11 66 -53
77 -53 5 0 11 -3 13 -7 5 -11 66 -53 77 -53 5 0 11 -3 13 -7 5 -11 66 -53 77
-53 5 0 11 -3 13 -7 5 -11 66 -53 77 -53 5 0 11 -3 13 -7 5 -12 66 -53 78 -53
5 0 10 -4 10 -9 0 -5 21 -23 48 -39 26 -16 57 -38 69 -48 11 -11 31 -26 43
-34 19 -13 49 -34 85 -62 6 -5 28 -24 50 -43 22 -19 43 -35 48 -35 4 0 17 -10
28 -21 l21 -21 -70 4 c-48 2 -77 9 -90 21 -10 9 -26 17 -35 17 -9 0 -17 5 -17
10 0 6 -10 15 -22 21 -24 10 -39 19 -103 60 -22 14 -56 34 -75 45 -19 10 -41
25 -48 32 -7 6 -22 12 -33 12 -10 0 -19 6 -19 13 0 6 -33 27 -73 46 -39 19
-74 37 -77 40 -9 11 -64 44 -119 73 -30 15 -61 34 -70 41 -9 8 -43 28 -76 44
-144 73 -229 123 -245 143 -3 4 -18 10 -35 14 -16 4 -32 11 -35 15 -9 12 -63
45 -115 70 -27 13 -52 27 -55 30 -3 3 -30 18 -60 33 -61 31 -119 65 -203 121
-32 21 -61 35 -66 32 -5 -3 -23 8 -39 24 -16 17 -41 33 -56 37 -14 3 -26 12
-26 20 0 8 -9 14 -19 14 -11 0 -21 4 -23 9 -5 13 -106 74 -158 95 -46 20 -99
42 -160 69 -19 8 -61 23 -92 33 -32 10 -58 21 -58 26 0 4 -11 8 -24 8 -13 0
-43 7 -66 15 -23 8 -58 15 -77 15 -19 0 -43 5 -53 10 -11 6 -50 15 -87 20 -38
6 -86 14 -108 19 -38 8 -36 9 30 10 66 2 69 3 45 16 -14 8 -33 14 -42 15 -10
0 -57 12 -105 26 -49 14 -104 30 -123 34 -44 9 -121 29 -180 45 l-45 13 57 1
c31 1 59 -3 62 -8 3 -4 49 -11 103 -15 92 -6 198 -19 373 -47 41 -6 98 -13
125 -15 l50 -3 -40 10 c-22 5 -69 14 -105 19 -36 5 -83 14 -105 19 -22 6 -65
13 -95 16 -30 3 -77 10 -105 15 -27 5 -113 16 -190 25 -77 9 -176 21 -220 26
-44 5 -129 14 -190 19 -111 9 -203 18 -440 44 -217 25 -459 45 -681 57 -293
16 -279 16 -664 19 -358 3 -375 12 -55 28 l140 7 -94 8 c-52 4 -173 7 -270 8
-97 0 -216 5 -266 11 -100 13 -361 17 -397 6z"/>
<path d="M11190 10779 c-47 -5 -135 -16 -196 -24 -61 -8 -130 -15 -154 -15
-24 0 -82 -7 -129 -15 -47 -8 -131 -22 -186 -30 -198 -32 -406 -77 -560 -121
-101 -29 -330 -107 -363 -123 -9 -4 -33 -15 -52 -23 -19 -9 -77 -36 -128 -62
-51 -25 -98 -46 -103 -46 -6 0 -41 -20 -79 -45 -38 -25 -73 -45 -79 -45 -5 0
-11 -3 -13 -7 -4 -9 -65 -53 -73 -53 -3 0 -11 -5 -18 -10 -7 -6 -55 -42 -107
-81 -52 -38 -96 -74 -98 -79 -2 -6 -7 -10 -11 -10 -19 0 -322 -294 -392 -380
-20 -25 -48 -58 -62 -75 -74 -90 -189 -288 -202 -346 l-7 -31 68 5 c38 3 155
11 259 16 105 6 201 13 215 16 14 3 122 10 240 15 118 5 292 14 385 19 221 13
1004 26 1405 25 443 -2 1395 -23 1515 -34 55 -5 163 -9 240 -10 77 0 219 -7
315 -15 96 -8 214 -15 263 -15 71 0 87 -3 87 -15 0 -12 -14 -15 -70 -15 -63 0
-90 -11 -57 -23 16 -6 -320 2 -353 9 -47 9 -786 35 -1355 47 -313 7 -576 16
-582 20 -7 5 -13 4 -13 -1 0 -5 -314 -11 -752 -15 -446 -3 -786 -10 -833 -17
-44 -6 -188 -15 -320 -20 -270 -10 -496 -26 -600 -40 -38 -6 -118 -13 -178
-17 -95 -5 -107 -4 -102 10 4 8 19 20 34 27 20 8 36 30 61 83 29 63 70 129
161 258 13 18 40 50 60 70 31 31 56 69 44 69 -3 0 -106 -117 -150 -171 -29
-36 -59 -79 -132 -188 -36 -53 -69 -97 -74 -99 -5 -2 -9 -7 -9 -12 0 -5 -16
-26 -36 -47 -20 -21 -42 -50 -50 -65 -8 -16 -18 -28 -23 -28 -5 0 -12 -16 -16
-36 -3 -20 -10 -44 -14 -53 -30 -59 -43 -102 -46 -146 -1 -27 -1 -39 2 -25 3
14 8 30 13 35 4 6 11 25 15 43 3 17 10 32 14 32 5 0 14 26 20 58 9 46 20 67
57 107 l45 50 82 8 c45 4 163 13 262 20 99 7 187 16 195 19 17 8 376 24 830
38 173 5 380 14 460 20 80 6 331 10 558 10 l414 0 -35 -47 c-28 -40 -35 -60
-41 -118 -4 -38 -13 -88 -20 -110 -84 -245 -112 -460 -103 -790 3 -128 11
-262 16 -297 38 -237 53 -753 26 -938 -9 -63 -21 -136 -26 -162 -7 -32 -7 -58
-1 -80 6 -18 13 -73 17 -123 3 -49 10 -103 15 -120 5 -16 11 -75 15 -130 l6
-100 -113 7 c-62 5 -165 12 -228 17 -63 5 -121 5 -128 1 -8 -4 39 -10 105 -14
65 -4 138 -11 163 -16 25 -5 74 -9 110 -10 36 0 94 -7 130 -15 36 -8 94 -15
130 -15 36 0 115 -7 175 -15 61 -8 130 -15 155 -15 25 0 101 -6 170 -14 69 -8
206 -22 305 -31 99 -9 221 -21 270 -26 50 -5 146 -14 215 -19 69 -5 166 -14
215 -20 111 -12 282 -28 440 -40 66 -5 161 -14 210 -19 86 -10 201 -21 460
-42 66 -5 156 -10 200 -10 44 -1 85 -4 90 -9 10 -9 163 -25 376 -40 69 -4 161
-13 205 -19 43 -6 100 -13 127 -17 26 -3 47 -9 47 -15 0 -12 -57 -12 -117 1
-26 6 -113 14 -193 20 -80 5 -165 12 -190 15 -25 3 -99 9 -165 14 -338 27
-411 33 -535 47 -74 8 -160 14 -190 14 -30 0 -82 5 -115 10 -33 5 -123 14
-200 19 -138 10 -228 18 -535 46 -85 8 -238 21 -340 30 -102 9 -230 21 -285
26 -55 6 -154 15 -220 19 -134 10 -290 24 -500 46 -77 8 -162 14 -190 14 -28
1 -59 7 -69 15 -11 8 -22 11 -25 6 -6 -8 -86 -3 -381 24 -85 8 -236 21 -335
30 -99 9 -250 22 -335 30 -137 13 -378 35 -540 49 -100 9 -274 37 -303 49 -15
7 -30 22 -33 34 -3 12 -14 25 -24 28 -21 7 -26 18 -35 92 -4 29 -11 55 -16 59
-5 3 -9 23 -9 44 0 22 -6 59 -14 82 -8 24 -18 66 -22 93 -3 28 -10 55 -14 60
-4 6 -11 34 -15 62 -4 29 -11 55 -16 59 -5 3 -9 22 -9 42 0 20 -6 49 -14 64
-8 14 -17 46 -21 70 -4 24 -11 48 -15 53 -4 6 -11 29 -15 53 -4 23 -11 42 -16
42 -5 0 -9 12 -9 28 0 15 -7 40 -15 55 -8 15 -17 43 -21 62 -3 19 -10 35 -15
35 -5 0 -9 8 -9 18 0 9 -6 29 -14 44 -8 15 -17 40 -21 57 -4 17 -11 31 -16 31
-5 0 -9 6 -9 14 0 13 -128 274 -140 286 -3 3 -14 23 -25 45 -11 22 -22 42 -25
45 -10 9 -80 131 -80 140 0 5 -3 10 -8 12 -8 3 -66 100 -97 163 -11 22 -23 42
-27 43 -5 2 -8 9 -8 15 0 7 -7 26 -16 42 -23 45 -54 136 -54 162 0 12 -4 25
-10 28 -5 3 -11 39 -12 78 l-2 72 -4 -60 c-4 -62 20 -188 45 -235 7 -14 13
-30 13 -36 0 -11 22 -54 98 -194 50 -92 55 -100 83 -145 14 -22 29 -47 32 -55
4 -8 17 -31 29 -50 40 -66 177 -343 183 -372 4 -15 11 -28 16 -28 5 0 9 -8 9
-17 0 -10 6 -30 14 -45 8 -15 17 -40 21 -57 4 -17 11 -33 16 -36 5 -4 9 -14 9
-23 0 -9 7 -30 15 -46 8 -15 15 -35 15 -43 0 -8 6 -29 14 -46 13 -31 26 -77
47 -162 5 -22 13 -49 18 -60 5 -11 14 -45 20 -75 6 -30 18 -84 27 -120 8 -36
19 -86 24 -113 5 -26 13 -62 19 -80 9 -30 21 -87 40 -183 4 -22 5 -46 3 -52
-5 -15 -38 -16 -47 -2 -3 6 -14 10 -24 10 -15 0 -20 11 -26 65 -3 36 -10 65
-15 65 -4 0 -11 28 -15 63 -4 34 -11 67 -15 72 -4 6 -11 33 -15 60 -4 28 -10
55 -15 60 -4 6 -10 32 -14 59 -3 27 -10 54 -15 60 -5 6 -12 35 -16 63 -4 29
-11 55 -15 58 -5 3 -11 24 -15 48 -4 23 -11 47 -15 52 -4 6 -11 29 -15 53 -4
23 -11 42 -16 42 -5 0 -9 10 -9 23 -1 12 -9 40 -20 62 -11 22 -19 44 -20 48 0
4 -13 37 -30 72 -16 35 -30 69 -30 75 0 5 -4 10 -9 10 -5 0 -12 12 -16 27 -3
15 -10 30 -13 33 -4 3 -18 26 -32 53 -13 26 -28 47 -32 47 -5 0 -8 7 -8 15 0
8 -9 23 -20 32 -11 10 -20 21 -20 25 0 5 -15 25 -34 46 -19 20 -51 56 -71 80
-21 23 -42 42 -47 42 -5 0 -19 11 -31 24 -13 14 -35 28 -50 31 -15 4 -27 11
-27 15 0 5 -13 11 -30 15 -16 4 -30 11 -30 15 0 5 -17 12 -37 15 -21 3 -46 11
-56 16 -24 13 -217 13 -231 -1 -5 -5 -19 -10 -31 -10 -11 -1 -38 -9 -60 -20
-22 -11 -46 -19 -52 -20 -7 0 -13 -4 -13 -9 0 -5 -11 -12 -25 -15 -14 -4 -25
-11 -25 -16 0 -6 -5 -10 -11 -10 -6 0 -40 -29 -75 -64 -63 -64 -84 -72 -119
-45 -5 4 -31 10 -57 14 -27 4 -48 11 -48 16 0 5 -18 12 -40 15 -22 4 -45 13
-51 20 -6 8 -16 14 -22 14 -15 0 -67 61 -73 87 -4 13 -10 23 -14 23 -4 0 -11
16 -15 36 -3 20 -10 44 -15 53 -19 35 -54 164 -67 241 -3 19 -10 40 -15 47 -5
6 -9 38 -9 70 1 103 -10 218 -22 225 -20 13 -25 9 -20 -12 5 -17 0 -20 -29
-20 -31 0 -35 -3 -31 -22 2 -15 -7 -36 -27 -58 l-29 -35 -1 28 c0 15 -5 27
-11 27 -5 0 -3 10 5 22 9 12 16 32 15 43 0 14 -2 16 -6 5 -4 -8 -12 -21 -20
-28 -7 -7 -13 -19 -13 -27 0 -7 -7 -15 -15 -19 -8 -3 -15 -12 -15 -21 0 -8 -4
-15 -9 -15 -5 0 -12 -13 -16 -30 -4 -16 -10 -30 -15 -30 -5 0 -11 -13 -15 -30
-4 -16 -10 -30 -15 -30 -4 0 -10 -18 -14 -40 -3 -22 -10 -40 -16 -40 -5 0 -12
-20 -16 -45 -3 -25 -10 -45 -14 -45 -4 0 -10 -22 -14 -50 -4 -27 -11 -50 -15
-50 -5 0 -12 -27 -16 -60 -4 -33 -11 -60 -15 -60 -4 0 -11 -27 -15 -60 -4 -33
-11 -60 -15 -60 -4 0 -11 -26 -15 -57 -4 -32 -11 -60 -15 -63 -4 -3 -10 -23
-12 -45 -3 -22 -3 -32 -1 -22 2 9 8 17 13 17 5 0 12 25 15 55 4 30 11 55 15
55 4 0 11 27 15 60 4 33 11 60 15 60 4 0 11 27 15 60 4 33 11 60 15 60 4 0 11
23 15 50 4 28 11 50 16 50 5 0 9 7 9 15 0 27 38 92 69 116 85 69 113 88 224
148 l37 21 1 -53 c0 -28 4 -72 9 -97 4 -25 13 -74 20 -110 6 -35 15 -69 19
-75 5 -5 12 -29 16 -52 4 -24 10 -45 15 -48 4 -3 11 -21 14 -40 4 -19 11 -35
15 -35 5 0 12 -12 15 -26 13 -49 107 -124 156 -124 11 0 20 -4 20 -9 0 -6 20
-13 45 -17 25 -3 45 -10 45 -15 0 -5 10 -9 23 -9 33 0 70 -12 60 -19 -14 -10
-53 -70 -53 -81 0 -5 -4 -10 -10 -10 -5 0 -12 -11 -16 -25 -3 -14 -10 -25 -14
-25 -5 0 -11 -13 -15 -30 -4 -16 -10 -30 -15 -30 -4 0 -11 -18 -15 -40 -4 -22
-11 -40 -15 -40 -5 0 -12 -20 -16 -45 -3 -25 -10 -45 -14 -45 -5 0 -11 -24
-15 -52 -4 -29 -11 -60 -16 -69 -28 -54 -48 -554 -28 -694 29 -199 49 -287 85
-373 8 -18 18 -51 23 -73 9 -38 8 -39 -12 -33 -12 4 -23 11 -25 15 -5 12 -22
11 -22 -1 0 -5 11 -12 25 -16 15 -4 28 -16 31 -30 3 -13 10 -24 14 -24 4 0 11
-29 15 -65 3 -36 10 -65 15 -65 4 0 11 -25 15 -55 3 -30 10 -55 15 -55 5 0 12
-20 16 -45 3 -25 10 -45 14 -45 5 0 11 -13 15 -30 4 -16 11 -30 16 -30 5 0 9
-9 9 -19 0 -11 7 -27 16 -36 14 -13 14 -18 2 -32 -11 -15 -11 -16 7 -10 17 6
17 4 -4 -13 -30 -26 -40 -25 -51 4 -13 35 -29 41 -27 10 1 -15 -4 -29 -10 -31
-7 -3 -13 3 -13 12 0 9 -5 13 -11 9 -6 -3 -16 0 -21 7 -7 11 -9 9 -5 -6 3 -15
-1 -21 -14 -21 -11 0 -19 6 -19 13 0 7 -4 13 -10 13 -5 0 -10 -10 -10 -22 0
-17 -3 -19 -9 -9 -5 7 -14 10 -20 7 -7 -5 -11 1 -11 13 0 12 -4 21 -10 21 -5
0 -10 -9 -10 -20 0 -13 -5 -17 -14 -14 -8 3 -16 -2 -19 -13 -3 -12 -5 -9 -6
10 -1 31 -16 36 -24 7 -7 -25 -24 -26 -32 -1 -3 11 -13 22 -22 26 -14 5 -14 3
2 -15 21 -23 13 -39 -10 -20 -12 10 -18 10 -30 0 -16 -14 -35 -6 -35 16 0 8
-4 14 -10 14 -5 0 -10 -6 -10 -14 0 -21 -19 -30 -35 -16 -16 14 -35 5 -35 -15
0 -18 -52 -14 -77 6 -15 12 -16 12 -10 -4 4 -12 3 -16 -4 -11 -6 4 -15 0 -20
-7 -6 -10 -9 -6 -9 14 0 32 -17 37 -22 5 -4 -29 -25 -34 -33 -9 -7 24 -20 27
-28 7 -4 -11 -1 -13 11 -9 14 6 15 5 2 -9 -11 -11 -17 -13 -22 -4 -6 8 -11 7
-18 -4 -8 -13 -10 -12 -10 3 0 23 -16 22 -23 -3 -3 -11 -10 -20 -17 -20 -7 0
-14 9 -17 20 -7 27 -23 25 -24 -2 -1 -17 -2 -19 -6 -5 -6 22 -9 21 -33 -3 -16
-16 -25 -18 -40 -10 -14 7 -23 6 -34 -6 -9 -8 -16 -11 -16 -5 0 6 -7 11 -15
11 -10 0 -12 6 -8 18 7 16 6 16 -10 0 -10 -9 -24 -15 -33 -11 -10 4 -17 -2
-21 -16 -7 -27 -19 -27 -26 0 -6 24 -33 21 -31 -4 1 -9 -4 -13 -11 -10 -7 2
-15 -4 -18 -14 -3 -10 -5 -5 -6 13 0 17 -8 38 -17 45 -15 12 -16 11 -10 -7 3
-12 2 -32 -3 -45 -9 -25 -10 -25 -26 26 -2 8 -10 15 -17 14 -10 0 -10 -2 0 -6
16 -6 15 -21 -3 -39 -13 -13 -15 -13 -15 -1 0 8 -7 20 -15 27 -13 11 -14 8
-11 -16 2 -16 1 -24 -1 -17 -13 35 -65 7 -89 -46 -7 -17 -13 -21 -18 -13 -4 7
-2 12 3 12 6 0 11 7 11 15 0 8 -4 15 -9 15 -5 0 -11 9 -14 20 -3 11 -11 20
-19 20 -11 0 -11 -2 0 -9 8 -4 12 -19 10 -32 l-4 -24 -14 28 c-7 15 -18 27
-23 27 -6 0 -6 -5 0 -12 6 -7 13 -22 17 -33 6 -17 4 -17 -18 4 -14 14 -29 21
-33 18 -3 -4 -2 -7 4 -7 16 0 24 -28 17 -57 -6 -23 -8 -24 -19 -10 -8 11 -15
13 -26 6 -11 -8 -11 -12 -1 -16 14 -6 16 -43 2 -43 -5 0 -10 -7 -10 -15 0 -8
3 -15 8 -15 4 0 15 -14 24 -30 9 -17 13 -30 8 -30 -15 0 -12 -27 3 -33 9 -4 8
-8 -3 -16 -12 -8 -12 -13 -2 -23 9 -9 12 -9 13 3 3 73 5 158 1 136 -2 -15 -8
-25 -13 -22 -12 8 -12 45 0 45 5 0 11 9 14 20 3 11 11 20 19 19 10 0 10 -2 1
-6 -15 -6 -17 -30 -4 -35 6 -1 11 -27 13 -57 2 -38 8 -56 18 -59 12 -3 12 -2
3 8 -9 10 -6 18 13 35 21 20 22 24 9 35 -13 11 -15 8 -15 -14 0 -16 -4 -25
-10 -21 -13 8 -13 45 0 45 14 0 13 33 -2 48 -9 9 -9 12 0 12 6 0 15 -12 18
-27 4 -15 13 -34 20 -41 13 -13 8 -42 -9 -53 -5 -4 -5 -9 2 -13 6 -4 13 4 17
19 3 14 10 25 15 25 14 0 11 28 -3 33 -10 4 -10 6 0 6 8 1 16 -8 19 -20 3 -12
11 -18 19 -15 22 8 45 -23 42 -57 -2 -20 2 -32 12 -35 13 -5 13 -3 1 11 -9 11
-10 17 -2 17 14 0 15 37 1 45 -13 8 -13 25 0 25 5 0 13 -18 16 -40 4 -22 10
-40 15 -40 13 0 11 44 -3 58 -9 9 -9 12 1 12 11 0 11 3 1 15 -19 23 -3 18 22
-7 16 -16 17 -20 5 -15 -21 8 -21 2 0 -34 16 -26 16 -31 3 -39 -11 -7 -12 -10
-2 -10 8 0 16 9 19 20 6 22 18 26 29 8 4 -6 1 -16 -7 -22 -13 -9 -13 -15 -1
-36 l14 -25 -6 25 c-3 15 1 31 11 42 11 13 12 18 3 18 -10 0 -10 3 0 15 9 10
9 15 1 15 -6 0 -11 -6 -11 -12 0 -9 -4 -8 -10 2 -9 13 -11 13 -20 0 -6 -9 -10
-10 -10 -3 0 7 6 16 14 20 7 4 16 15 19 23 4 12 6 12 6 -1 1 -9 8 -19 16 -23
9 -3 15 -18 15 -36 0 -17 4 -38 9 -48 5 -9 12 -25 15 -34 3 -10 11 -18 18 -18
10 0 10 2 0 9 -8 5 -15 33 -17 72 -2 35 -2 54 1 41 3 -13 11 -21 18 -19 8 3
12 -4 10 -22 -1 -19 0 -20 3 -3 2 12 9 22 16 22 6 0 -2 13 -18 30 -16 17 -25
30 -19 30 5 -1 20 -14 34 -30 30 -37 37 -37 45 0 7 31 25 42 25 15 0 -8 -4
-15 -10 -15 -5 0 -10 -7 -10 -15 0 -8 5 -15 10 -15 6 0 10 -5 10 -11 0 -8 -5
-8 -15 1 -10 8 -15 9 -15 2 0 -6 8 -16 18 -21 15 -9 15 -12 2 -22 -13 -9 -13
-10 0 -6 15 4 17 9 19 60 2 40 18 33 24 -10 3 -25 0 -42 -9 -49 -12 -10 -12
-13 1 -24 13 -11 14 -10 10 2 -3 8 4 23 16 34 l22 19 -7 -29 c-6 -25 -5 -27 8
-13 8 8 17 25 19 38 2 13 2 18 0 12 -6 -18 -23 -16 -23 2 0 8 5 15 12 15 6 0
3 9 -7 20 -25 28 -13 25 19 -5 18 -17 26 -35 27 -62 2 -34 2 -35 6 -8 3 16 10
33 16 37 9 6 8 11 -3 18 -8 5 -10 10 -5 10 12 0 45 -36 45 -50 0 -5 8 -14 18
-19 11 -7 13 -13 6 -18 -6 -5 -14 -17 -17 -27 -6 -16 -5 -17 7 -7 9 7 18 21
21 32 9 27 23 23 27 -8 2 -14 10 -29 18 -31 13 -4 13 -3 2 11 -7 8 -14 30 -14
47 -1 17 -4 26 -8 20 -5 -8 -10 -9 -14 -2 -7 12 17 23 32 13 6 -3 14 -19 17
-34 4 -15 11 -27 15 -27 18 0 18 -32 0 -47 -11 -10 -20 -21 -20 -26 0 -4 13 4
29 20 25 24 27 30 15 44 -8 8 -14 21 -14 27 0 7 -6 12 -12 12 -9 0 -8 4 2 10
13 9 13 11 0 20 -11 7 -11 10 -2 10 7 0 15 -7 18 -15 8 -20 22 -19 27 3 2 9 4
1 4 -18 0 -19 -2 -29 -4 -22 -3 6 -10 12 -16 12 -6 0 1 -12 15 -28 14 -15 28
-36 30 -46 1 -11 9 -21 16 -22 7 -1 8 0 2 3 -5 2 -10 13 -10 23 0 10 -6 25
-14 32 -11 12 -11 17 0 33 13 17 14 17 14 1 0 -9 5 -23 12 -30 10 -10 16 -9
32 5 11 11 16 22 13 26 -4 3 -7 2 -7 -4 0 -6 -7 -13 -15 -17 -12 -4 -15 3 -13
38 1 34 4 41 14 32 6 -6 8 -12 3 -14 -14 -5 -11 -33 4 -31 26 3 37 -2 37 -16
0 -8 -4 -15 -9 -15 -5 0 -13 -10 -17 -22 -4 -15 -1 -26 12 -35 13 -9 15 -16 8
-21 -9 -5 -8 -10 1 -19 11 -10 14 -8 13 10 -1 12 -8 30 -16 40 -13 15 -13 19
1 35 10 10 17 26 17 35 0 9 5 17 10 17 6 0 10 -13 10 -30 0 -17 -5 -30 -12
-30 -9 0 -10 -3 -2 -8 6 -4 13 -14 16 -22 3 -8 6 0 5 18 0 19 6 38 14 43 11 7
12 12 1 29 -7 11 -8 20 -2 20 5 0 12 -11 16 -25 3 -14 10 -25 15 -25 5 0 9 -6
9 -13 0 -7 8 -20 18 -28 15 -13 20 -13 30 -3 14 16 16 34 3 34 -5 0 -11 6 -14
12 -2 7 -2 0 1 -17 4 -26 3 -28 -12 -16 -19 16 -21 47 -3 53 18 7 37 -2 37
-17 0 -7 7 -18 15 -25 13 -11 12 -15 -10 -35 -22 -21 -23 -24 -8 -37 14 -11
15 -11 9 0 -8 13 28 62 46 62 12 0 10 -38 -3 -42 -7 -2 -6 -8 3 -16 13 -10 15
-6 13 33 -1 26 -9 53 -19 64 -10 11 -16 26 -13 33 4 8 6 7 6 -4 1 -10 5 -18
11 -18 5 0 12 -11 16 -25 10 -41 30 -29 25 14 -2 11 0 11 12 0 10 -10 11 -16
4 -21 -7 -4 -1 -15 16 -28 28 -22 35 -44 17 -53 -6 -3 -5 -4 2 -3 8 2 13 20
14 47 0 24 -1 36 -3 27 -5 -21 -23 -24 -23 -4 0 16 22 27 37 18 6 -4 14 -26
17 -48 6 -32 3 -45 -9 -58 -9 -9 -13 -16 -8 -16 16 0 41 38 47 71 4 22 3 27
-2 15 -7 -15 -10 -17 -17 -7 -4 8 -2 17 6 22 11 7 12 12 1 29 -7 11 -8 20 -3
20 5 0 13 -10 17 -22 4 -13 11 -26 17 -29 15 -10 12 -90 -4 -101 -12 -8 -11
-9 1 -5 8 2 16 13 18 25 2 11 10 26 18 32 8 7 14 19 14 26 0 8 5 14 10 14 14
0 12 27 -2 33 -10 4 -10 6 0 6 8 1 16 -8 19 -20 3 -12 11 -18 19 -15 8 3 18 0
23 -7 32 -41 80 -89 76 -76 -3 9 1 22 10 29 8 7 15 22 16 34 0 15 2 16 6 6 3
-8 11 -18 17 -23 8 -5 6 -10 -4 -17 -13 -8 -13 -11 1 -25 14 -14 15 -11 14 37
-1 29 0 43 2 30 3 -14 10 -22 17 -19 20 8 38 -8 39 -36 2 -24 3 -25 21 -9 18
16 19 16 13 -9 -5 -18 -1 -30 13 -42 24 -20 26 -11 3 15 -9 11 -11 18 -5 18 7
0 12 7 12 15 0 8 -4 15 -10 15 -5 0 -10 16 -10 35 0 19 5 35 10 35 6 0 10 -14
10 -30 0 -18 6 -33 15 -36 18 -7 20 -30 3 -37 -10 -4 -10 -6 0 -6 8 -1 16 8
19 19 3 11 9 20 13 20 5 0 11 8 13 18 3 9 5 1 6 -19 0 -20 7 -41 14 -47 9 -8
12 1 11 41 -1 32 0 39 3 18 2 -19 11 -40 19 -48 12 -12 13 -10 7 19 l-6 33 23
-28 22 -28 -21 -20 c-11 -11 -21 -26 -21 -34 0 -8 -4 -15 -10 -15 -5 0 -10 -9
-10 -20 0 -32 17 -23 24 12 3 18 18 45 33 60 16 17 21 28 13 28 -10 0 -10 4 2
18 9 9 13 24 10 32 -3 10 1 8 14 -5 19 -18 19 -18 22 3 5 33 19 26 26 -13 8
-39 25 -47 27 -12 1 20 2 20 6 2 8 -35 34 -85 44 -85 5 0 3 10 -6 23 -8 12
-14 39 -13 59 l1 36 29 -29 c16 -16 28 -35 25 -42 -2 -7 -10 0 -17 16 -7 15
-17 27 -21 27 -5 0 2 -20 15 -45 13 -24 19 -46 14 -47 -6 -2 -4 -9 5 -16 12
-10 14 -7 10 22 -2 21 2 40 11 49 11 10 12 17 4 25 -8 8 -6 15 4 26 14 13 15
9 13 -42 -2 -31 -1 -45 2 -29 2 15 8 27 13 27 5 0 11 10 13 22 l4 23 2 -23 c0
-13 7 -22 14 -21 24 3 37 -1 37 -12 0 -8 -5 -8 -15 1 -13 11 -14 8 -11 -19 4
-34 12 -48 22 -38 4 4 2 13 -5 21 -9 11 -8 15 3 19 8 3 17 1 19 -6 2 -7 8 -9
12 -5 4 4 2 14 -5 23 -7 9 -10 18 -6 22 12 12 21 -9 21 -52 0 -33 3 -41 13
-33 14 12 16 54 2 63 -5 3 -10 17 -10 31 0 13 5 24 10 24 6 0 10 -14 10 -30 0
-18 6 -33 15 -36 17 -7 21 -60 5 -67 -6 -3 -5 -4 2 -3 7 1 14 17 16 34 2 18 8
32 14 32 6 0 5 6 -2 15 -10 12 -15 13 -20 4 -5 -7 -10 -8 -14 -1 -12 20 25 21
41 2 22 -25 29 -25 36 0 6 25 26 26 33 3 3 -10 10 -26 15 -35 6 -12 6 -18 -2
-18 -8 0 -8 -5 1 -15 9 -10 9 -15 1 -15 -6 0 -11 -7 -11 -15 0 -8 5 -15 10
-15 10 0 13 12 12 70 0 19 2 27 5 18 2 -10 9 -18 14 -18 5 0 9 -6 9 -14 0 -8
9 -24 20 -37 17 -21 19 -21 13 -4 -3 11 -11 26 -16 33 -14 18 0 27 18 12 9 -7
18 -10 22 -6 3 3 1 6 -7 6 -10 0 -10 3 0 15 9 10 9 15 1 15 -6 0 -11 -6 -11
-12 0 -9 -4 -8 -10 2 -9 13 -11 13 -20 0 -5 -8 -10 -10 -10 -5 0 6 8 17 18 26
16 13 19 13 35 -1 9 -9 17 -22 17 -28 0 -7 5 -12 10 -12 13 0 13 57 0 63 -6 3
-5 4 2 3 7 -1 14 -16 16 -33 3 -25 8 -30 28 -30 24 0 24 0 7 19 -16 17 -16 18
0 12 9 -3 18 -11 18 -18 1 -6 2 -16 3 -22 0 -6 8 -17 16 -26 20 -20 39 -1 41
39 1 21 3 23 6 8 3 -11 9 -24 13 -29 5 -5 -4 -22 -21 -38 -16 -16 -29 -32 -29
-36 0 -3 15 9 34 27 18 18 33 40 31 49 -1 10 0 11 2 5 3 -7 9 -13 14 -13 5 0
9 -7 9 -15 0 -8 -4 -15 -9 -15 -5 0 -11 -9 -14 -20 -3 -11 -1 -17 4 -14 14 8
49 84 39 84 -5 0 -11 -5 -13 -10 -3 -6 -4 -5 -3 2 2 7 11 12 20 12 9 -1 16 4
16 11 0 7 6 15 13 18 8 3 13 -2 13 -12 1 -53 5 -81 14 -81 6 0 11 21 12 48 1
36 2 39 5 15 2 -18 8 -33 14 -33 5 0 9 -7 9 -15 0 -8 -4 -15 -9 -15 -5 0 -12
-12 -16 -27 -3 -15 -12 -31 -18 -35 -9 -6 -9 -8 1 -8 7 0 16 8 19 18 4 9 11
20 17 24 5 3 10 26 10 50 1 30 5 43 15 43 8 0 15 -6 17 -13 1 -7 0 -8 -3 -2
-2 5 -9 10 -15 10 -7 0 -6 -5 1 -14 7 -8 15 -43 18 -78 2 -35 10 -68 16 -75
15 -16 10 76 -5 95 -7 8 -7 12 2 12 10 0 10 3 0 15 -19 23 -3 31 20 10 16 -14
17 -20 8 -27 -8 -4 -9 -8 -2 -8 6 0 19 9 29 20 10 11 13 20 7 20 -7 0 -12 -5
-12 -12 0 -6 -3 -8 -7 -4 -5 4 -1 13 8 19 9 7 18 19 21 27 3 8 6 -2 6 -23 0
-21 -6 -44 -14 -51 -11 -12 -11 -19 2 -45 9 -17 20 -31 25 -31 6 0 3 10 -5 22
-20 28 -20 43 -2 61 8 8 17 27 19 43 3 17 5 10 4 -18 -1 -45 21 -88 45 -88 5
0 -3 11 -17 24 -16 15 -22 27 -15 31 5 3 11 18 11 33 2 24 2 24 6 5 2 -13 8
-23 13 -23 4 0 10 -9 13 -20 3 -11 11 -20 19 -20 10 0 10 2 0 8 -7 5 -14 22
-15 38 -2 22 2 29 16 28 10 -1 17 5 17 17 0 10 5 19 10 19 6 0 10 -9 10 -19 0
-11 7 -26 15 -35 17 -17 20 -42 5 -49 -6 -3 -5 -4 2 -3 8 2 13 18 12 42 -1 21
0 31 3 21 2 -9 8 -17 13 -17 15 0 18 -41 3 -55 -8 -9 -10 -15 -3 -15 6 0 13 6
16 14 8 22 32 27 47 11 13 -12 15 -10 15 12 0 14 4 28 9 32 6 3 13 13 16 21 4
12 6 12 6 -1 1 -9 8 -19 16 -23 22 -8 20 -82 -2 -95 -10 -6 -13 -11 -7 -11 35
-1 60 90 32 118 -9 9 -9 12 0 12 7 0 15 -14 19 -31 3 -17 11 -28 17 -26 20 8
13 -73 -7 -84 -9 -6 -17 -15 -17 -20 0 -6 14 3 30 19 30 31 38 52 20 52 -5 0
-10 7 -10 15 0 8 5 15 12 15 6 0 4 7 -5 18 -10 10 -17 23 -17 29 0 6 -6 14
-12 16 -10 4 -10 6 0 6 8 1 16 -8 19 -19 3 -11 9 -20 12 -20 16 0 53 -92 49
-120 -4 -24 -2 -27 9 -19 15 13 17 55 3 64 -16 10 -12 28 4 22 16 -6 12 16 -6
39 -16 21 22 25 39 4 21 -24 33 -26 33 -5 0 8 -4 15 -10 15 -5 0 -10 7 -10 15
0 27 18 16 25 -15 4 -16 11 -30 16 -30 5 0 9 -7 9 -15 0 -8 -5 -15 -12 -15 -6
0 -3 -9 7 -20 10 -11 23 -20 29 -20 6 0 4 5 -5 10 -19 11 -20 92 -1 96 7 1 8
0 2 -3 -20 -10 -10 -30 15 -30 20 0 23 2 14 13 -8 10 -8 14 0 14 12 0 12 0 15
-52 1 -21 7 -43 14 -50 9 -9 12 -9 12 0 0 7 -6 12 -12 12 -9 0 -8 4 2 11 11 8
12 12 3 16 -15 6 -17 33 -3 33 6 0 13 -13 17 -30 3 -16 9 -30 14 -30 14 0 10
29 -7 55 -9 13 -14 30 -11 37 4 8 6 6 6 -4 1 -10 6 -18 11 -18 6 0 10 -7 10
-15 0 -9 7 -18 15 -21 18 -7 20 -31 3 -36 -9 -3 -9 -6 0 -12 7 -4 14 3 18 19
3 14 10 25 15 25 5 0 9 9 9 20 0 11 5 20 10 20 14 0 12 -37 -2 -44 -10 -5 -10
-7 0 -12 9 -4 7 -11 -9 -25 -12 -10 -17 -19 -12 -19 17 0 36 29 39 57 2 14 7
29 12 32 5 3 11 13 14 21 3 8 4 -14 3 -49 -2 -60 -1 -63 14 -44 18 21 41 20
41 -2 0 -7 -6 -16 -12 -18 -10 -4 -10 -6 0 -6 21 -1 27 31 9 44 -10 7 -17 18
-17 26 0 8 -6 6 -15 -7 -8 -10 -15 -13 -15 -7 0 16 31 53 45 53 5 0 4 -4 -4
-9 -12 -8 -9 -15 17 -37 18 -16 32 -36 32 -46 0 -27 17 -22 22 7 3 14 1 22 -4
19 -11 -7 -48 29 -48 46 0 5 5 10 10 10 6 0 10 -7 10 -15 0 -19 27 -8 34 13 4
13 5 12 4 -3 -1 -51 15 -64 26 -20 4 14 11 25 16 25 6 0 5 -8 -2 -20 -16 -26
-2 -39 16 -14 8 10 18 16 22 11 4 -4 2 -7 -4 -7 -7 0 -12 -4 -12 -10 0 -5 7
-10 15 -10 10 0 15 10 15 30 0 17 5 30 10 30 15 0 12 -34 -5 -66 -8 -16 -14
-38 -14 -49 l1 -20 7 20 c14 40 34 75 45 75 6 0 5 -5 -2 -12 -15 -15 -16 -48
-2 -48 14 0 12 -27 -2 -33 -10 -4 -10 -6 0 -6 8 -1 16 8 19 18 3 11 11 22 19
25 8 3 14 11 14 17 0 7 -9 4 -22 -7 l-21 -19 6 33 c4 18 14 40 22 48 19 20 19
5 0 -23 -13 -19 -13 -20 10 -20 18 0 25 5 26 21 1 19 2 19 6 2 3 -11 11 -25
17 -32 7 -7 12 -28 11 -48 -1 -32 1 -34 15 -21 13 14 13 17 0 26 -13 8 -13 11
3 20 9 5 17 16 17 24 0 7 6 16 13 18 9 4 8 8 -3 16 -8 6 -10 11 -5 11 20 0 48
-41 36 -53 -8 -8 -11 -6 -11 8 0 18 -1 17 -16 -3 -15 -21 -15 -25 0 -41 9 -10
15 -28 14 -41 -2 -13 3 -25 12 -27 13 -4 13 -3 0 7 -11 9 -12 13 -2 17 17 7
15 24 -4 38 -9 6 -15 18 -12 25 3 10 10 7 25 -9 26 -28 43 -20 42 17 -1 21 -2
22 -6 7 -7 -29 -19 -39 -26 -21 -8 19 19 47 37 40 21 -8 28 -47 11 -60 -17
-13 -20 -44 -5 -44 6 0 10 8 10 17 0 9 7 25 17 35 9 11 11 18 5 18 -7 0 -12 9
-12 20 0 11 4 20 9 20 5 0 12 8 15 18 2 9 2 0 -1 -21 -4 -31 -3 -36 10 -31 9
3 18 13 20 22 4 15 5 15 6 0 1 -21 17 -24 24 -5 2 6 4 -1 4 -18 0 -16 -2 -24
-4 -17 -3 6 -9 12 -13 12 -5 0 -2 -12 6 -27 18 -37 18 -50 -3 -62 -10 -6 -13
-11 -7 -11 6 0 19 9 30 21 15 17 16 22 4 29 -13 8 -12 13 2 38 9 16 16 37 14
48 -2 10 -1 13 1 7 3 -7 9 -13 15 -13 7 0 7 -5 -1 -14 -9 -11 -6 -13 14 -13
18 0 25 5 26 21 1 18 2 18 6 3 3 -10 -3 -28 -14 -39 -14 -16 -15 -20 -3 -18
28 4 41 0 34 -11 -4 -8 -9 -7 -16 2 -8 11 -9 11 -5 -1 7 -25 32 -18 29 9 -1
14 6 32 19 44 13 12 20 14 18 6 -3 -25 1 -39 11 -39 6 0 10 8 11 18 0 13 2 14
6 2 3 -8 11 -18 16 -22 7 -4 6 -12 -3 -23 -12 -14 -9 -20 18 -48 18 -17 32
-26 32 -20 0 7 -8 17 -18 22 -15 8 -19 21 -18 67 1 38 5 58 14 60 7 1 8 0 2
-3 -13 -6 -13 -53 0 -53 6 0 10 5 10 11 0 25 33 -25 35 -54 1 -17 8 -32 14
-33 7 -2 8 -1 1 3 -7 3 -7 10 1 20 9 10 9 17 2 21 -19 12 -20 82 -2 82 8 0 8
-5 -1 -15 -9 -10 -9 -15 -1 -15 6 0 11 -5 11 -12 0 -6 7 -20 16 -30 14 -14 14
-20 4 -33 -10 -11 -10 -15 0 -15 6 0 14 9 17 20 7 26 23 26 30 0 6 -23 23 -27
23 -5 0 8 -5 15 -11 15 -8 0 -8 5 1 15 9 10 9 15 1 15 -6 0 -11 -6 -11 -12 0
-9 -4 -8 -10 2 -9 13 -11 13 -20 0 -5 -8 -10 -10 -10 -5 0 6 8 17 18 26 16 13
19 13 35 -1 9 -9 17 -20 17 -23 0 -12 34 -47 45 -47 5 0 3 5 -5 10 -10 7 -12
12 -4 17 6 5 14 20 18 36 3 15 12 27 18 27 9 0 9 -3 0 -12 -7 -7 -12 -29 -12
-49 0 -21 -7 -45 -16 -53 -8 -9 -12 -16 -7 -16 17 0 42 39 45 71 2 18 9 34 16
35 7 1 8 0 2 -3 -13 -6 -13 -33 -1 -33 6 0 12 -17 14 -37 l4 -38 1 38 c1 20 4
37 7 37 9 0 41 -36 48 -53 3 -9 12 -17 19 -17 10 0 10 2 -1 9 -7 5 -13 21 -13
35 0 21 -3 24 -14 15 -8 -6 -14 -8 -15 -3 0 5 -2 22 -3 37 -1 16 -8 32 -16 37
-8 6 -10 10 -5 10 6 0 19 -9 28 -21 13 -15 15 -24 7 -34 -8 -10 -5 -12 14 -12
17 -1 26 6 30 21 2 11 4 4 3 -16 -1 -21 5 -44 15 -55 8 -10 13 -24 10 -32 -4
-12 -3 -12 10 0 14 12 13 16 -6 34 -20 19 -21 22 -6 48 8 15 19 27 24 27 6 0
5 -5 -2 -12 -15 -15 -16 -48 -2 -48 6 0 10 7 10 15 0 7 8 19 18 24 15 9 15 12
2 21 -8 5 -11 10 -7 10 5 0 24 -14 42 -32 l34 -31 -30 -26 c-16 -14 -29 -29
-29 -34 0 -5 15 6 32 24 20 19 32 41 31 53 -2 14 0 16 4 6 3 -8 11 -18 16 -22
7 -4 7 -11 0 -20 -6 -7 -13 -29 -17 -48 -3 -19 -3 -28 1 -20 3 8 9 17 14 20 4
3 10 26 14 51 5 36 3 49 -10 62 -9 10 -13 17 -8 17 21 0 44 -45 46 -90 1 -34
6 -46 15 -43 9 4 10 9 1 19 -9 11 -8 14 2 14 10 0 10 3 1 12 -17 17 -15 35 8
58 23 23 38 27 20 5 -8 -9 -8 -15 -2 -15 6 0 12 -7 14 -15 2 -10 7 -12 18 -5
13 9 13 11 0 21 -13 9 -13 10 0 6 8 -2 15 -12 15 -22 0 -29 24 -29 31 -1 3 14
10 26 15 26 12 0 11 -17 -1 -25 -15 -9 -12 -42 3 -48 21 -8 35 5 40 38 3 17 4
2 2 -32 -3 -51 -1 -60 10 -50 9 9 10 14 1 19 -8 6 -8 10 1 16 6 4 14 24 18 45
8 39 25 51 25 17 0 -12 5 -17 14 -14 18 7 56 -42 56 -72 0 -13 5 -24 10 -24
12 0 13 33 1 45 -5 6 -12 21 -16 35 -6 20 0 16 29 -19 20 -24 35 -50 32 -57
-3 -8 0 -11 9 -8 11 5 12 10 2 25 -9 15 -8 21 7 32 10 8 16 20 13 28 -4 10 -6
9 -6 -3 -1 -21 -21 -25 -21 -4 0 16 19 25 38 19 14 -6 16 -39 2 -48 -5 -3 -10
-10 -10 -16 0 -5 5 -9 10 -9 6 0 10 7 10 15 0 9 7 18 15 21 8 4 15 11 15 18 0
6 9 19 20 29 11 9 20 12 20 7 0 -6 -7 -13 -15 -16 -17 -7 -21 -34 -5 -34 6 0
10 -7 10 -15 0 -21 -18 -19 -23 3 -4 14 -5 14 -6 1 0 -9 6 -22 14 -29 8 -7 15
-20 15 -30 0 -9 9 -25 20 -35 12 -11 20 -13 20 -6 0 6 -7 14 -15 17 -18 7 -20
50 -2 57 10 4 10 6 0 6 -7 1 -13 7 -13 15 0 8 6 16 13 19 6 2 8 8 4 13 -4 5
-12 2 -17 -6 -6 -9 -10 -10 -10 -3 0 24 22 25 43 2 l22 -24 3 22 c6 43 27 32
29 -16 1 -25 7 -47 13 -49 13 -5 13 -29 1 -34 -5 -1 -3 -12 5 -23 13 -18 14
-14 9 42 -5 52 -3 63 12 72 16 9 16 12 3 22 -13 9 -13 10 0 6 11 -3 14 -16 13
-48 -1 -24 1 -36 3 -26 3 9 9 17 14 17 5 0 11 8 13 18 4 16 5 16 6 0 2 -31 20
-20 24 15 l4 32 1 -32 c2 -37 17 -44 25 -13 3 11 11 20 19 19 10 0 10 -2 1 -6
-7 -2 -13 -13 -13 -23 0 -10 -7 -26 -16 -34 -8 -9 -12 -16 -7 -16 11 0 37 31
46 54 11 27 32 14 35 -22 4 -37 21 -43 24 -9 0 12 2 28 2 36 1 8 7 16 14 17 7
1 8 0 2 -3 -17 -8 9 -33 28 -26 13 3 14 2 4 -4 -10 -8 -10 -12 3 -23 8 -7 15
-18 15 -25 0 -7 6 -15 13 -18 8 -3 12 7 13 32 1 20 -1 28 -3 19 -3 -10 -9 -18
-14 -18 -13 0 -11 19 4 34 16 17 34 0 40 -40 3 -16 4 -8 4 18 -2 38 0 45 10
35 7 -7 14 -29 15 -48 2 -25 7 -35 16 -31 10 3 10 8 3 15 -6 6 -11 17 -11 24
0 15 31 53 43 53 5 0 1 -7 -7 -16 -21 -20 -20 -31 4 -61 14 -17 20 -21 20 -10
0 8 7 18 16 21 14 5 15 0 11 -31 -3 -21 -3 -30 -1 -20 3 9 10 17 15 17 5 0 9
10 9 21 0 18 3 19 14 9 8 -6 16 -21 18 -32 2 -12 10 -23 18 -25 10 -3 11 -2 4
4 -16 11 -22 65 -8 70 7 2 15 -12 18 -32 7 -34 26 -50 26 -20 0 8 -5 15 -10
15 -6 0 -5 8 2 20 11 17 10 22 -2 31 -13 9 -13 10 0 6 8 -2 16 -14 18 -26 2
-12 12 -31 23 -42 22 -22 37 -26 19 -4 -7 8 -8 15 -2 15 5 0 12 9 15 21 7 26
31 20 35 -9 5 -36 22 -25 24 16 1 36 1 36 5 5 2 -18 9 -33 15 -33 6 0 6 -6 -2
-15 -10 -13 -10 -19 5 -35 10 -11 22 -20 27 -20 5 0 3 7 -6 15 -18 19 -17 87
2 91 7 1 8 0 2 -3 -13 -6 -13 -33 0 -33 6 0 10 -6 10 -13 0 -8 9 -22 20 -32
12 -11 20 -13 20 -6 0 6 -7 14 -15 17 -18 7 -20 31 -2 37 6 2 8 8 4 13 -4 5
-13 2 -18 -6 -9 -13 -10 -13 -6 0 6 24 32 17 33 -9 3 -46 47 -49 59 -4 3 14
13 33 22 41 14 15 15 14 8 -8 -4 -14 -12 -28 -17 -31 -6 -4 -6 -9 2 -14 8 -5
6 -11 -7 -20 -10 -7 -16 -15 -13 -18 3 -3 19 9 35 26 23 24 25 29 10 23 -15
-5 -17 -4 -8 5 19 19 36 0 29 -33 -5 -25 -4 -27 8 -15 8 8 16 27 18 43 4 38
32 39 36 1 2 -15 7 -27 12 -27 5 0 11 -14 15 -30 7 -31 25 -42 25 -15 0 8 -4
15 -9 15 -11 0 -21 38 -14 56 9 24 20 15 27 -20 4 -19 13 -36 20 -39 10 -4 12
0 9 14 -3 10 -9 19 -14 19 -5 0 -9 7 -9 15 0 8 5 15 10 15 6 0 10 -7 10 -15 0
-9 6 -12 18 -9 12 4 13 3 4 -3 -10 -8 -10 -12 2 -22 13 -11 15 -9 13 14 -1 14
-9 30 -17 35 -9 6 -10 10 -3 10 17 0 55 -51 49 -66 -3 -8 0 -11 9 -8 7 3 16
12 19 20 3 8 10 14 16 14 14 0 13 -27 -2 -33 -8 -2 -13 -24 -13 -59 0 -46 2
-53 13 -41 11 11 11 17 2 28 -9 11 -9 15 -1 15 8 0 7 6 -1 21 -11 17 -10 22 5
30 9 6 17 17 17 24 0 8 5 15 10 15 14 0 12 27 -2 33 -10 4 -10 6 0 6 8 1 16
-8 19 -19 6 -21 23 -28 23 -10 0 6 6 5 14 -2 8 -7 10 -14 5 -16 -13 -5 -11
-52 2 -52 8 0 7 -5 -1 -15 -7 -9 -10 -18 -6 -22 12 -12 18 6 19 65 2 47 5 58
15 50 6 -6 12 -21 12 -34 0 -12 6 -29 13 -36 7 -7 16 -21 20 -30 3 -10 12 -18
19 -17 10 0 10 2 1 6 -7 2 -13 10 -13 18 0 7 -7 18 -15 25 -18 15 -20 46 -2
54 8 3 7 8 -5 16 -10 6 -18 16 -18 21 0 6 14 -3 30 -19 30 -30 39 -52 21 -52
-5 0 -12 8 -14 18 -4 14 -5 14 -6 1 0 -9 9 -24 21 -35 19 -17 21 -17 15 -2 -3
10 -2 20 4 24 14 8 22 -1 25 -29 1 -12 3 -25 3 -29 1 -5 6 -8 13 -8 9 0 9 3 1
11 -9 9 -8 16 3 27 17 16 11 61 -9 74 -9 6 -9 8 0 8 13 0 37 -48 47 -92 4 -16
12 -28 18 -28 9 0 9 3 0 12 -16 16 -15 66 1 82 10 11 15 11 25 0 7 -7 12 -18
12 -24 0 -6 5 -8 11 -5 5 4 19 -1 30 -11 15 -14 17 -20 7 -27 -10 -6 -9 -7 2
-4 19 5 15 48 -5 60 -8 4 -15 13 -15 18 0 14 31 -18 47 -48 6 -12 8 -23 2 -23
-14 0 -11 -36 5 -49 11 -9 13 0 10 51 -1 35 0 56 3 48 2 -8 8 -24 13 -35 4
-11 11 -28 14 -37 3 -10 11 -18 18 -18 9 0 10 2 2 8 -19 11 -22 67 -4 67 10 0
16 -12 18 -32 2 -18 7 -33 13 -33 8 0 14 38 9 69 -1 10 3 9 16 -4 12 -11 19
-14 22 -6 6 17 20 13 27 -9 8 -26 21 -26 28 1 10 39 32 15 30 -34 -1 -38 1
-44 12 -34 9 9 10 14 1 19 -8 6 -8 10 0 15 6 5 14 18 18 31 7 22 26 31 26 12
0 -5 -4 -10 -10 -10 -5 0 -10 -11 -10 -25 0 -14 4 -25 9 -25 5 0 12 -8 14 -18
3 -9 4 -1 4 18 -2 28 2 35 16 33 13 -1 17 4 12 14 -5 13 -3 14 10 3 21 -17 67
-22 76 -8 4 5 7 -2 7 -16 0 -51 21 -49 25 2 2 24 5 28 16 19 7 -7 21 -12 30
-12 8 0 17 -9 18 -20 1 -16 1 -16 -3 -3 -7 22 -24 24 -24 3 0 -8 5 -15 10 -15
6 0 10 -8 11 -17 0 -14 2 -15 6 -3 4 8 12 21 20 28 7 7 13 22 13 33 0 10 5 19
10 19 6 0 10 -7 10 -16 0 -21 41 -104 51 -104 4 0 1 14 -7 30 -17 34 -15 62 4
66 7 1 8 0 2 -3 -13 -6 -13 -43 0 -43 6 0 10 6 10 14 0 39 45 20 63 -27 9 -24
31 -17 35 11 4 26 17 29 26 6 4 -9 0 -24 -9 -34 -17 -19 -19 -30 -5 -30 6 0
10 7 10 15 0 7 8 19 18 24 12 7 14 13 6 18 -9 6 -8 12 2 21 8 7 14 9 14 4 0
-5 12 -14 27 -21 22 -10 24 -14 12 -22 -9 -5 -9 -9 -2 -9 23 0 25 22 4 41 -12
11 -21 23 -21 27 0 4 14 -8 32 -25 27 -27 29 -34 18 -47 -8 -11 -9 -16 -1 -16
6 0 11 -7 11 -15 0 -8 -4 -15 -10 -15 -5 0 -10 -7 -10 -15 0 -23 17 -18 23 8
3 12 4 45 2 72 -2 34 -1 43 5 29 5 -12 13 -25 19 -28 6 -4 7 -14 4 -24 -6 -16
-6 -16 11 0 23 23 30 23 23 -2 -3 -14 4 -30 25 -50 16 -17 32 -30 36 -30 3 0
-9 16 -28 35 -19 19 -29 35 -23 35 6 0 13 9 16 20 7 29 25 25 30 -7 3 -18 4
-14 4 11 -1 25 3 40 11 42 7 1 8 0 3 -2 -11 -6 19 -62 37 -69 8 -3 10 0 6 7
-4 6 0 16 8 22 8 6 17 19 21 29 3 9 12 17 19 17 10 0 10 -2 0 -9 -15 -9 -21
-75 -9 -87 12 -13 21 6 21 44 -1 20 1 29 3 19 6 -23 29 -16 27 7 -2 16 -1 16
17 0 10 -9 19 -25 19 -36 0 -31 19 -20 22 14 2 17 9 33 16 34 7 1 8 0 2 -3
-14 -6 -13 -53 1 -53 8 0 7 -5 -1 -15 -7 -9 -10 -18 -6 -22 10 -10 16 1 20 36
7 65 27 55 29 -17 1 -35 6 -48 15 -45 6 3 12 11 12 18 0 7 -6 16 -12 18 -10 4
-9 8 2 16 11 7 20 5 34 -7 18 -16 19 -16 13 0 -8 22 12 36 24 17 4 -8 6 -25 4
-39 -3 -14 -2 -19 1 -11 10 20 37 51 46 51 13 0 9 -28 -4 -33 -10 -4 -10 -6 0
-6 8 -1 16 8 19 19 3 11 9 20 13 20 5 0 11 8 13 18 3 9 5 0 6 -20 1 -41 18
-52 23 -15 2 14 9 21 21 21 22 -2 22 12 0 25 -10 6 -13 11 -7 11 6 0 21 -11
34 -25 29 -31 37 -31 43 -2 3 16 5 14 6 -9 0 -17 -6 -37 -14 -44 -17 -14 -20
-30 -5 -30 6 0 10 7 10 15 0 7 6 18 14 22 8 4 16 19 19 33 3 17 5 11 6 -16 0
-24 7 -44 14 -47 9 -3 12 5 8 31 -3 33 -2 35 12 23 9 -7 19 -21 22 -32 4 -10
11 -19 17 -19 7 0 7 4 1 13 -6 6 -13 25 -17 41 -6 26 -5 27 9 13 8 -9 15 -20
15 -26 0 -17 20 -23 35 -11 8 6 20 8 26 4 9 -5 10 -2 5 11 -5 15 -4 16 9 5 17
-14 20 -46 5 -53 -6 -3 -5 -4 2 -3 9 2 12 18 11 47 l-2 44 22 -45 c27 -57 26
-55 34 -46 4 3 1 12 -5 18 -15 15 -16 48 -2 48 6 0 10 -6 10 -13 0 -8 9 -22
19 -31 12 -11 17 -24 13 -34 -5 -14 -4 -15 10 -2 11 11 13 17 4 22 -8 6 -7 11
4 19 13 9 13 10 -1 6 -9 -3 -22 -1 -30 5 -11 8 -10 9 4 4 13 -4 17 -1 15 11
-2 9 4 18 12 20 12 4 12 2 2 -5 -10 -7 -10 -11 3 -22 8 -7 15 -19 15 -26 0
-30 20 -12 21 19 1 21 3 25 6 12 3 -11 10 -26 15 -32 7 -9 7 -13 -1 -13 -6 0
-11 -7 -11 -15 0 -8 5 -15 10 -15 11 0 14 20 11 60 -2 21 1 20 19 -13 l20 -37
-22 -33 c-13 -17 -27 -35 -33 -39 -7 -5 -7 -8 0 -8 12 0 45 36 45 50 0 5 7 13
16 18 11 6 13 11 5 16 -17 11 -13 30 9 43 24 16 70 1 70 -22 0 -8 5 -15 10
-15 14 0 12 37 -2 43 -8 3 -8 6 -2 6 6 1 19 -8 29 -19 15 -16 15 -22 5 -35 -8
-9 -8 -15 -2 -15 25 0 24 65 -2 82 -8 5 -7 8 1 8 6 0 22 -20 34 -45 12 -25 27
-45 33 -45 6 0 5 5 -2 12 -15 15 -16 48 -2 48 6 0 10 -5 10 -11 0 -6 9 -22 20
-36 14 -17 20 -21 20 -10 0 8 7 18 16 21 10 4 14 12 10 22 -5 14 -4 15 8 5 8
-7 17 -29 19 -49 l4 -37 1 38 c2 39 17 50 27 18 3 -11 13 -22 22 -26 15 -5 15
-4 0 13 -9 10 -17 24 -17 30 0 6 -8 16 -17 21 -10 6 -14 11 -8 11 5 0 27 -17
48 -38 36 -34 39 -35 32 -12 -4 14 -13 28 -19 32 -8 6 -8 8 1 8 7 0 20 -16 29
-35 20 -42 27 -45 21 -8 -2 16 -2 22 0 15 7 -19 28 -8 26 13 -1 13 8 9 33 -16
19 -18 34 -39 34 -46 0 -20 17 -15 23 7 3 11 4 32 2 45 -2 21 0 23 12 13 11
-9 11 -13 1 -19 -10 -7 -9 -9 4 -9 9 0 23 7 31 15 10 9 17 11 19 4 2 -6 16
-12 31 -13 30 -4 87 -51 87 -73 0 -7 5 -13 10 -13 14 0 12 19 -4 36 -14 13
-11 54 4 54 4 0 10 -13 14 -30 3 -16 11 -30 17 -30 8 0 8 4 -1 15 -16 19 -5
34 12 17 17 -17 25 -15 31 8 8 30 24 24 43 -15 21 -45 26 -44 19 3 -3 20 -2
31 1 23 4 -8 17 -24 30 -36 18 -17 21 -24 12 -33 -9 -9 -9 -12 0 -12 7 0 13 6
13 13 1 6 2 17 4 22 1 6 3 20 3 33 3 34 22 26 23 -10 1 -24 3 -27 6 -10 5 23
22 30 25 10 0 -7 2 -17 3 -23 2 -5 3 -16 4 -22 0 -7 6 -13 12 -13 8 0 8 4 0
14 -9 11 -9 15 1 20 10 4 10 7 1 12 -13 6 14 44 32 44 5 0 3 -5 -5 -10 -13 -9
-13 -11 0 -20 10 -6 11 -10 3 -10 -18 0 -16 -17 1 -23 9 -4 13 -1 11 6 -6 15
11 44 20 35 3 -3 7 -20 7 -38 1 -17 4 -28 7 -23 3 4 19 19 35 33 26 23 28 24
26 5 -5 -42 0 -85 10 -85 14 0 13 43 -2 58 -9 9 -9 12 -1 12 7 0 14 12 16 28
4 25 4 25 6 -5 1 -36 16 -44 24 -14 5 21 57 27 57 6 0 -6 9 -20 19 -30 19 -17
20 -16 18 9 -1 15 -9 31 -17 36 -9 6 -10 10 -3 10 14 0 53 -48 53 -66 0 -8 5
-14 10 -14 6 0 10 4 10 9 0 6 -4 13 -10 16 -12 8 -13 45 -1 45 5 0 11 -9 14
-20 3 -11 11 -20 19 -20 10 0 10 3 -2 11 -12 9 -12 10 4 5 14 -5 17 -2 12 11
-6 16 -6 16 12 0 20 -18 42 -22 42 -8 0 5 -6 11 -12 14 -7 2 -9 8 -5 13 7 8
20 -5 31 -31 2 -5 10 -1 18 9 16 20 38 15 38 -9 0 -7 -7 -21 -16 -29 -8 -9
-12 -16 -7 -16 10 0 38 31 46 51 3 8 6 2 6 -12 1 -15 7 -29 14 -32 9 -3 12 5
12 29 -1 28 1 32 12 22 22 -18 70 -20 77 -3 3 8 11 15 18 15 9 0 9 -3 -2 -10
-10 -7 -12 -12 -4 -17 6 -5 14 -20 18 -35 3 -16 11 -28 17 -28 8 0 8 4 0 14
-8 10 -8 19 2 38 12 24 13 24 31 6 11 -10 16 -21 13 -25 -4 -3 -7 -1 -7 6 0 7
-5 9 -11 5 -8 -4 -7 -9 2 -14 20 -13 39 0 39 29 l0 26 13 -25 c7 -14 10 -27 7
-30 -4 -3 -9 -13 -13 -22 -4 -12 -2 -15 9 -11 7 3 15 13 16 22 0 9 2 21 2 28
2 20 15 26 30 14 8 -7 20 -10 26 -6 5 3 10 0 10 -8 0 -8 6 -17 13 -20 17 -7
44 9 34 20 -5 4 -12 1 -16 -6 -6 -9 -8 -5 -8 12 0 22 1 24 14 12 7 -8 20 -12
28 -9 9 4 15 0 15 -10 0 -9 -4 -16 -10 -16 -5 0 -10 -7 -10 -15 0 -22 17 -18
23 6 7 26 31 20 35 -9 4 -25 22 -30 22 -6 0 9 -11 27 -26 40 -14 13 -21 24
-15 24 5 0 13 -5 16 -10 4 -6 18 -9 32 -8 16 2 28 -3 30 -12 4 -13 3 -13 -6 0
-5 8 -13 12 -16 8 -4 -3 3 -16 14 -27 24 -24 40 -28 21 -6 -8 9 -8 15 -2 15 6
0 13 8 15 18 4 13 5 11 6 -5 1 -31 17 -29 25 2 6 24 26 36 26 16 0 -5 7 -16
15 -25 12 -12 22 -13 41 -6 37 14 38 13 8 -15 -15 -14 -23 -25 -18 -25 18 1
56 49 48 62 -6 10 -4 10 8 0 9 -8 18 -23 20 -34 2 -12 9 -23 16 -24 7 -1 8 0
2 3 -12 6 -13 43 -1 43 5 0 12 -6 14 -12 3 -7 6 -3 6 10 1 12 6 22 11 22 10 0
14 -21 10 -49 -1 -11 2 -11 14 2 9 8 16 22 16 29 0 7 6 2 13 -12 11 -21 11
-26 0 -33 -7 -4 -13 -12 -13 -17 0 -6 9 -2 19 7 13 10 19 26 17 42 -2 14 -1
20 1 14 5 -15 20 -17 25 -4 2 5 10 2 18 -7 13 -14 12 -15 -2 -9 -12 4 -15 2
-12 -8 3 -7 12 -16 20 -19 8 -3 13 -2 9 3 -7 12 4 41 16 41 5 0 9 -10 10 -22
0 -16 2 -18 6 -8 3 8 11 18 17 23 8 5 6 10 -4 17 -9 6 -10 10 -3 10 15 0 44
-57 32 -64 -5 -2 -4 -3 3 -2 7 2 13 11 13 22 0 26 29 24 33 -3 2 -12 9 -27 17
-33 11 -9 12 -3 9 32 -3 33 -2 38 5 22 12 -27 38 -46 28 -21 -3 9 -1 19 5 23
12 8 30 -16 23 -33 -2 -7 2 -10 10 -7 7 3 16 12 19 19 3 10 0 12 -12 8 -14 -6
-15 -5 -2 9 16 16 30 8 43 -24 3 -10 12 -18 19 -17 10 0 10 2 1 6 -17 6 -16
21 2 39 8 9 15 11 15 6 0 -5 12 -14 27 -21 24 -11 26 -14 10 -22 -9 -6 -17
-14 -17 -19 0 -6 9 -2 20 7 13 11 18 25 15 42 -3 15 -2 19 1 11 9 -22 36 -50
46 -50 5 0 2 7 -6 16 -18 18 -21 28 -6 19 6 -4 18 -1 26 6 11 9 18 8 34 -6 16
-14 18 -21 8 -28 -10 -6 -9 -7 2 -4 8 2 14 12 13 22 -1 13 8 9 33 -16 19 -18
34 -29 34 -23 0 5 -9 17 -20 27 -11 9 -19 25 -19 34 1 17 2 17 6 0 5 -19 52
-21 65 -2 4 5 11 6 15 1 4 -5 2 -11 -4 -13 -15 -5 -18 -33 -4 -33 5 0 11 9 14
20 11 41 34 17 28 -29 -2 -11 0 -11 12 0 8 8 11 17 5 20 -5 3 -2 12 7 19 12
10 15 10 15 -3 0 -8 7 -17 15 -21 20 -7 46 21 38 42 -6 16 -6 16 10 0 9 -9 17
-25 17 -35 0 -14 2 -15 9 -4 5 8 14 10 22 6 8 -6 11 -4 7 6 -4 10 1 15 13 15
23 0 25 -19 4 -36 -9 -7 -13 -15 -11 -18 3 -2 18 10 34 28 25 27 33 30 50 21
11 -6 23 -16 26 -23 4 -7 4 -2 2 10 -4 23 -4 23 15 6 17 -16 19 -16 19 -1 0
10 5 17 10 17 14 0 13 -33 -2 -48 -9 -9 -8 -16 6 -30 16 -16 17 -16 12 8 -4
14 -2 32 3 40 8 12 14 11 34 -8 l25 -23 0 26 c0 14 2 28 5 31 10 10 29 -7 23
-22 -3 -8 0 -11 9 -8 8 3 16 13 18 22 3 10 5 2 6 -15 1 -39 21 -45 21 -7 0 23
1 24 16 9 15 -15 18 -15 36 2 20 18 20 17 16 -12 -3 -16 -3 -24 -1 -18 3 7 9
13 14 13 5 0 9 10 9 23 1 18 4 16 17 -13 l16 -35 10 33 c11 37 27 43 27 10 0
-21 1 -21 13 -4 13 17 14 17 20 2 4 -10 -1 -23 -13 -33 -11 -10 -20 -22 -20
-27 0 -6 20 10 45 34 l45 44 1 -29 c1 -21 3 -24 6 -10 6 25 23 44 23 25 0 -9
6 -8 22 6 12 10 18 13 14 6 -9 -14 1 -52 14 -52 5 0 12 9 15 21 4 11 12 18 18
16 7 -2 19 2 28 10 15 12 16 11 11 -14 -3 -15 -10 -32 -16 -36 -7 -6 -6 -7 4
-4 8 2 16 13 18 25 4 27 12 28 39 2 22 -20 33 -15 46 23 8 21 29 18 35 -4 3
-12 2 -12 -7 1 -5 8 -13 11 -18 7 -4 -5 -3 -11 3 -15 6 -4 14 -14 17 -22 4
-12 6 -11 6 3 1 9 7 18 14 18 78 8 97 6 102 -12 4 -11 11 -19 17 -19 7 0 6 5
-1 14 -9 11 -9 15 1 19 10 4 10 8 -2 16 -11 8 -12 11 -2 11 8 0 16 -9 19 -20
6 -24 23 -27 23 -5 0 13 2 14 14 3 10 -9 11 -17 4 -25 -7 -9 -7 -13 0 -13 6 0
14 9 17 20 12 38 35 15 35 -36 0 -13 5 -24 10 -24 14 0 13 43 -2 58 -6 6 -9
15 -5 19 4 4 13 1 19 -5 16 -16 28 -15 28 2 0 27 21 28 46 2 14 -14 23 -30 19
-35 -3 -7 0 -8 10 -5 12 5 13 9 4 20 -15 18 -3 32 13 16 7 -7 17 -12 23 -12 5
0 3 5 -5 11 -13 9 -13 10 0 6 8 -2 16 -13 18 -25 5 -34 22 -26 22 9 l0 32 26
-28 c21 -23 28 -25 35 -14 5 8 9 18 9 22 0 17 25 -1 26 -19 1 -10 2 -25 3 -31
1 -7 6 -13 12 -13 8 0 8 5 -1 15 -9 10 -9 15 -1 15 6 0 11 11 11 24 0 35 18
42 43 15 13 -14 22 -18 25 -11 6 20 20 14 25 -10 l4 -23 2 23 c1 23 15 29 26
12 10 -15 23 -12 28 8 4 16 5 16 6 -1 0 -9 -8 -25 -19 -34 -11 -10 -20 -22
-20 -27 0 -6 17 7 38 27 44 43 49 45 54 15 2 -12 9 -23 16 -24 7 -1 8 0 2 3
-13 6 -13 43 0 43 6 0 10 -5 10 -11 0 -6 9 -1 19 12 l19 24 -4 -34 c-3 -29 -2
-32 11 -21 8 7 15 20 16 29 0 13 2 14 6 1 3 -8 11 -18 17 -22 8 -6 6 -11 -4
-19 -13 -9 -13 -10 0 -6 8 2 15 12 15 22 0 10 6 20 13 23 6 2 12 -2 12 -10 0
-10 3 -9 10 2 14 22 23 5 24 -44 1 -34 4 -42 14 -34 14 12 16 48 2 48 -15 0
-12 19 5 36 13 14 15 13 15 -10 0 -14 5 -26 10 -26 6 0 10 11 10 25 0 24 1 24
20 8 11 -10 20 -23 20 -30 0 -23 18 -14 24 12 6 22 10 24 45 20 32 -4 40 -2
44 12 4 17 5 17 6 1 1 -20 21 -25 21 -5 0 8 4 7 10 -3 9 -13 11 -13 20 0 8 12
10 9 10 -13 0 -16 6 -34 13 -42 11 -11 13 -6 13 27 -1 28 4 42 14 45 12 4 12
3 1 -5 -11 -8 -9 -14 10 -33 14 -14 24 -18 27 -11 2 6 13 22 24 34 11 13 16
17 13 10 -4 -8 2 -22 15 -34 19 -18 21 -18 18 -3 -2 10 3 20 10 22 6 3 12 -1
12 -7 0 -7 9 -2 19 11 l19 24 -4 -34 c-2 -19 -9 -40 -15 -47 -6 -8 -8 -14 -3
-14 10 1 54 66 54 81 0 22 18 6 24 -21 3 -16 11 -30 17 -30 8 0 8 4 -1 15 -17
20 -5 32 15 15 12 -10 19 -10 27 -2 18 18 26 15 31 -10 3 -17 5 -14 6 10 1 31
21 48 21 18 0 -22 19 -30 35 -16 12 10 18 10 30 0 9 -7 18 -10 22 -6 3 3 1 6
-5 6 -7 0 -12 7 -12 15 0 8 3 15 8 15 9 0 37 -32 45 -51 4 -10 6 -11 6 -1 2
37 61 65 61 29 0 -7 -4 -6 -10 3 -5 8 -12 12 -15 8 -4 -3 3 -16 14 -27 24 -24
40 -28 21 -6 -9 10 -9 15 -1 15 6 0 11 7 11 15 0 8 -5 15 -12 15 -6 0 -8 3 -5
6 4 4 13 1 21 -5 8 -7 20 -10 25 -6 7 3 8 0 5 -9 -3 -9 -11 -16 -17 -16 -6 0
-7 -3 -4 -7 4 -3 18 4 32 17 l25 23 0 -30 c0 -17 6 -33 13 -36 8 -3 11 8 10
39 -2 39 0 42 13 30 8 -9 21 -13 29 -10 9 4 15 0 15 -9 0 -8 -6 -18 -12 -20
-10 -4 -10 -6 0 -6 7 -1 16 7 19 17 12 31 27 40 41 26 7 -7 18 -11 26 -8 15 6
31 -39 21 -56 -3 -6 1 -7 9 -4 18 7 22 34 6 34 -5 0 -10 9 -10 20 0 26 17 26
25 0 7 -23 21 -26 28 -6 4 11 1 13 -11 9 -14 -6 -15 -5 -2 9 13 13 16 13 33
-3 11 -10 16 -22 12 -28 -12 -20 3 -11 34 20 17 17 31 26 31 20 0 -6 6 -11 14
-11 8 0 21 -7 29 -15 13 -13 17 -12 29 2 11 14 11 16 -3 11 -25 -10 -43 6 -24
22 13 11 15 10 10 -2 -5 -12 0 -15 24 -12 33 4 40 -6 17 -26 -16 -12 -11 -40
7 -40 8 0 8 3 0 11 -14 14 19 55 35 45 6 -3 18 1 27 11 16 16 17 15 10 -18 -7
-32 -6 -33 9 -14 8 11 16 29 17 40 1 17 2 17 6 3 2 -10 9 -18 14 -18 5 0 9 -8
10 -17 0 -14 2 -15 6 -3 3 8 11 18 17 22 6 4 7 10 3 15 -5 4 -13 1 -18 -7 -9
-13 -10 -13 -7 -1 7 24 29 25 35 2 7 -28 23 -27 24 2 1 16 2 18 6 5 2 -10 9
-18 15 -18 6 0 6 -6 -2 -15 -9 -10 -9 -15 -1 -15 6 0 12 6 12 13 1 6 2 18 3
26 2 20 26 26 26 6 0 -21 19 -10 30 19 7 16 8 12 6 -19 -2 -22 -2 -32 1 -23 2
9 11 22 19 28 11 10 14 9 14 -9 0 -11 5 -21 10 -21 6 0 10 8 10 18 0 11 8 26
18 35 17 16 18 15 18 -15 -1 -20 5 -33 14 -35 10 -3 11 -2 3 4 -8 6 -4 16 13
36 16 19 24 23 24 13 0 -9 6 -13 14 -10 24 9 28 -14 6 -33 -11 -10 -20 -22
-20 -27 0 -14 51 36 60 59 7 17 9 14 9 -12 1 -42 19 -43 23 -1 2 17 9 33 16
34 7 1 8 0 2 -3 -15 -7 -12 -22 7 -41 16 -16 16 -16 10 0 -3 10 -1 20 5 24 12
8 30 -16 23 -33 -2 -7 2 -10 10 -7 8 3 17 15 20 25 11 34 30 15 28 -26 -3 -36
-2 -37 12 -19 8 10 15 26 15 35 0 9 10 24 22 35 12 10 18 13 14 6 -10 -17 2
-49 21 -57 15 -5 15 -4 0 13 -31 35 -15 45 20 13 20 -19 21 -19 21 4 0 13 7
31 16 40 14 15 15 14 12 -14 -2 -21 1 -28 10 -24 7 2 15 12 17 21 4 15 5 15 6
0 0 -10 6 -18 12 -18 8 0 7 -5 -1 -15 -7 -9 -10 -18 -6 -22 12 -12 19 7 19 49
0 24 1 35 4 26 5 -21 14 -23 30 -7 13 13 33 4 33 -17 0 -21 17 -17 23 5 7 30
61 24 65 -7 5 -33 22 -27 22 8 0 17 -5 30 -12 30 -6 0 -8 3 -5 7 8 7 41 -24
50 -47 4 -11 6 -10 6 4 1 12 6 16 16 12 8 -3 24 4 35 16 l20 22 19 -21 c14
-14 16 -24 9 -31 -8 -8 -5 -16 7 -28 17 -17 17 -17 10 5 -5 16 -1 28 13 41 11
11 22 25 25 32 4 9 8 10 14 3 11 -14 53 -11 63 6 5 7 7 -6 4 -31 l-4 -43 26
24 c14 13 30 33 34 44 7 15 9 10 9 -22 1 -24 6 -43 11 -43 6 0 10 13 10 28 0
16 8 36 18 45 16 15 18 15 18 -2 0 -13 -5 -17 -15 -13 -14 5 -14 4 -1 -10 17
-18 28 -14 41 16 8 19 9 18 8 -9 -2 -60 1 -85 11 -85 14 0 13 33 -2 48 -9 9
-9 12 -1 12 7 0 13 12 15 27 3 30 28 39 35 13 4 -13 3 -13 -6 0 -5 8 -13 11
-18 7 -4 -5 -2 -11 4 -15 6 -4 13 -16 16 -27 4 -17 5 -17 6 4 1 16 6 21 15 18
8 -3 17 -1 19 6 3 8 8 9 15 2 8 -8 8 -18 -3 -38 -19 -37 -4 -34 17 3 9 17 13
30 8 30 -6 0 -10 9 -10 20 0 26 17 26 25 0 3 -11 10 -20 15 -20 5 0 11 -8 13
-17 4 -17 5 -17 6 0 0 9 5 17 10 17 5 0 12 8 14 18 4 16 5 16 6 -1 0 -10 7
-25 15 -32 12 -12 13 -9 10 26 -3 34 -2 38 10 26 8 -7 16 -22 19 -33 3 -14 5
-12 6 9 1 32 17 36 26 7 3 -11 11 -20 17 -20 6 0 3 -9 -7 -20 -25 -28 -13 -25
18 4 15 14 22 28 17 31 -6 3 -10 1 -10 -5 0 -7 -5 -6 -14 2 -10 9 -11 15 -2
21 8 5 7 10 -4 17 -11 7 -11 10 -2 10 7 0 15 -6 18 -14 3 -8 16 -17 29 -20 16
-4 25 -14 27 -33 2 -14 9 -28 16 -29 7 -1 8 0 2 3 -14 7 -13 36 3 52 10 11 9
13 -4 8 -26 -9 -43 7 -24 23 13 11 15 10 10 -1 -4 -10 1 -15 15 -15 11 0 20 6
20 13 0 7 5 13 10 13 6 0 10 -7 10 -15 0 -8 -4 -15 -10 -15 -15 0 -12 -27 4
-33 10 -4 13 -1 9 9 -3 8 1 22 9 32 9 9 18 24 22 32 3 8 4 2 1 -15 -3 -16 0
-37 5 -45 9 -13 11 -13 20 0 5 8 10 23 10 33 0 24 16 22 23 -3 3 -11 -1 -27
-10 -35 -8 -8 -11 -15 -7 -15 5 0 31 23 60 51 52 51 51 51 45 -3 -1 -5 -6 -8
-12 -8 -8 0 -7 6 2 17 12 14 12 16 -1 11 -9 -3 -15 -17 -15 -33 0 -17 6 -30
15 -32 11 -4 12 -2 2 4 -10 7 -8 14 9 29 12 10 25 28 30 39 7 17 9 15 8 -10
-2 -47 0 -55 12 -55 8 0 8 5 -1 15 -8 9 -8 15 -2 15 6 0 13 13 17 30 9 42 25
37 26 -7 2 -31 3 -33 6 -11 5 32 19 37 28 9 3 -11 12 -22 20 -25 9 -3 12 0 9
8 -3 7 3 23 13 35 l18 22 2 -28 c0 -15 6 -29 12 -31 14 -5 14 -29 1 -35 -6 -3
-5 -4 2 -3 8 2 12 15 11 32 -1 15 5 36 14 46 10 11 12 18 4 18 -6 0 -14 -7
-17 -15 -4 -8 -11 -15 -17 -15 -5 0 -2 9 8 20 25 28 40 20 38 -21 -1 -19 1
-26 3 -16 3 10 12 30 20 45 l14 27 0 -32 c0 -17 6 -34 13 -36 9 -4 9 -8 1 -14
-9 -6 -8 -11 1 -20 11 -10 13 -4 12 34 -2 52 9 62 40 34 20 -19 22 -19 35 -4
11 15 11 16 -7 9 -15 -5 -17 -4 -8 5 15 15 36 1 30 -21 -3 -13 0 -17 9 -13 17
6 18 50 2 56 -10 4 -10 6 0 6 7 1 16 -7 19 -16 4 -10 11 -21 17 -25 8 -5 7
-14 -2 -28 -7 -11 -8 -20 -3 -20 14 0 20 24 16 66 -1 22 -1 29 2 17 2 -12 10
-24 17 -26 10 -4 12 1 9 14 -4 14 -1 18 10 13 10 -3 17 1 20 13 3 10 3 0 2
-22 -3 -29 1 -44 15 -58 11 -10 20 -13 20 -7 0 6 -7 13 -16 17 -13 5 -10 11
12 34 15 16 22 29 16 29 -7 0 -15 -7 -18 -15 -4 -8 -11 -15 -17 -15 -6 0 -2
10 10 21 27 28 47 16 39 -23 -5 -26 -4 -29 9 -18 18 15 20 66 3 73 -10 4 -10
6 0 6 8 1 16 -8 19 -19 7 -27 20 -25 27 5 6 23 26 36 26 16 0 -5 7 -8 16 -7 9
0 19 -6 21 -14 4 -13 3 -13 -6 0 -5 8 -14 11 -18 6 -4 -5 -2 -11 5 -13 9 -4
10 -9 2 -18 -8 -9 -6 -14 6 -19 9 -3 14 -13 11 -21 -4 -9 -1 -12 9 -8 13 5 12
8 -3 25 -17 19 -17 20 0 33 20 14 22 31 5 38 -10 4 -10 6 -1 6 6 1 15 -3 18
-9 10 -15 23 -12 28 8 4 15 5 15 6 0 0 -9 -6 -23 -14 -32 -17 -17 -20 -36 -5
-36 6 0 10 6 10 13 0 19 47 60 59 52 6 -3 11 1 11 9 0 9 5 16 10 16 6 0 10 -7
10 -15 0 -8 -4 -15 -10 -15 -5 0 -10 -9 -10 -20 0 -11 5 -20 10 -20 6 0 10 8
10 19 0 10 7 24 15 31 13 11 13 15 3 22 -10 8 -10 9 1 6 9 -3 15 -17 15 -38 1
-18 7 -34 14 -36 7 -1 8 0 2 3 -19 9 -10 39 20 68 17 16 30 26 30 22 0 -3 -9
-15 -21 -26 -21 -20 -19 -61 3 -61 6 0 6 6 -2 15 -16 20 -5 32 14 16 18 -15
36 -6 35 17 -1 15 -2 15 -6 -1 -5 -18 -23 -24 -23 -7 0 6 5 17 12 24 10 10 16
9 32 -5 19 -18 19 -19 1 -39 -10 -11 -15 -20 -11 -20 16 0 56 55 56 76 0 13 5
24 10 24 13 0 13 -67 1 -72 -5 -1 -11 -14 -14 -28 -2 -14 -2 -19 0 -12 3 6 8
12 13 12 5 0 12 15 16 34 7 38 37 72 54 61 5 -3 8 -11 4 -16 -6 -10 35 -59 50
-59 5 0 -2 10 -16 23 -20 18 -22 26 -14 40 8 13 7 20 -4 27 -13 8 -13 11 1 25
14 15 16 14 16 -2 -1 -74 18 -103 26 -40 l4 32 1 -33 c1 -18 8 -39 15 -46 11
-11 13 -4 10 41 -2 49 -1 52 14 38 13 -13 18 -14 24 -4 4 8 11 10 16 6 4 -5 1
-12 -6 -17 -11 -6 -8 -14 14 -34 32 -30 46 -35 21 -7 -14 15 -14 20 -4 25 10
5 10 7 1 12 -15 7 -17 54 -3 54 6 0 10 -11 10 -25 0 -18 4 -23 15 -19 18 7 20
51 3 57 -7 2 -9 8 -5 13 11 11 27 -15 27 -43 0 -13 5 -23 10 -23 14 0 13 -33
-2 -48 -9 -9 -9 -12 2 -12 8 0 3 -12 -15 -30 -16 -17 -25 -30 -21 -30 4 0 17
11 30 25 18 20 23 35 21 72 -2 42 2 53 29 82 17 19 24 31 15 28 -26 -9 -43 7
-24 23 13 11 14 10 8 -6 -6 -17 -5 -17 10 -5 13 10 17 10 17 1 0 -10 3 -10 15
0 12 10 15 10 15 0 0 -10 3 -10 15 0 9 7 15 8 15 2 0 -5 -7 -12 -15 -16 -10
-3 -14 -15 -11 -35 2 -20 -1 -28 -9 -24 -23 8 -27 -18 -6 -38 12 -11 21 -26
21 -34 0 -8 5 -15 10 -15 15 0 12 19 -5 37 -14 14 -14 17 0 33 11 12 13 19 5
22 -8 2 -7 8 4 17 14 11 16 11 16 -3 0 -9 5 -16 12 -16 6 0 3 -9 -7 -20 -25
-28 -13 -25 19 5 27 25 34 45 16 45 -5 0 -10 7 -10 15 0 21 12 19 33 -5 22
-27 21 -31 -13 -60 -17 -13 -30 -29 -30 -34 0 -5 16 5 35 24 19 19 35 38 35
44 0 6 -14 25 -32 43 -18 19 -33 45 -35 64 -2 18 -8 38 -13 44 -8 9 -6 14 5
19 8 3 15 10 15 16 0 5 -9 2 -20 -7 -20 -18 -18 -59 4 -76 8 -6 7 -10 -2 -14
-10 -4 -10 -8 2 -17 10 -7 14 -19 10 -34 -10 -37 -30 -25 -25 16 1 7 -5 15
-14 18 -12 5 -13 9 -4 20 7 9 8 14 1 14 -5 0 -12 -7 -16 -15 -3 -8 -10 -15
-16 -15 -16 0 -12 27 5 34 8 3 15 10 15 16 0 6 -7 4 -16 -5 -16 -15 -19 -14
-50 16 -19 18 -34 39 -34 46 0 7 -5 13 -11 13 -8 0 -7 5 1 15 12 15 7 35 -6
22 -16 -16 -4 -58 24 -86 41 -41 33 -78 -15 -72 -18 3 -16 -26 2 -33 8 -3 15
-13 14 -23 0 -14 -2 -15 -6 -3 -3 8 -12 19 -19 23 -8 4 -14 15 -14 22 0 8 -4
15 -10 15 -5 0 -10 10 -10 23 0 18 -2 19 -10 7 -8 -12 -12 -13 -19 -2 -7 12
-11 12 -22 0 -11 -12 -15 -12 -31 1 -10 8 -18 27 -18 42 0 15 -6 32 -14 39 -8
6 -12 18 -9 27 5 12 2 12 -15 -2 -13 -12 -20 -28 -18 -44 2 -14 1 -18 -1 -8
-5 21 -23 23 -23 3 0 -8 -4 -17 -9 -20 -14 -9 0 47 17 66 8 10 16 31 17 47 2
27 1 28 -13 15 -11 -11 -12 -18 -4 -26 8 -8 5 -17 -12 -33 -13 -12 -26 -31
-29 -41 -4 -10 -5 0 -4 22 3 49 -20 51 -25 1 -2 -17 -10 -32 -18 -34 -10 -3
-11 -2 -4 4 19 13 22 95 4 100 -13 4 -13 3 0 -7 11 -9 12 -13 3 -17 -7 -2 -13
-18 -13 -33 0 -16 -5 -32 -11 -35 -11 -7 -49 27 -49 43 0 5 -10 17 -22 28 -19
17 -21 17 -15 2 3 -10 1 -20 -5 -24 -12 -8 -30 16 -23 33 2 7 -2 10 -11 6 -7
-3 -14 -9 -14 -14 0 -6 -6 -4 -14 3 -10 9 -11 17 -4 26 7 8 7 12 -1 12 -6 0
-12 -6 -12 -12 -1 -7 -2 -17 -3 -23 -2 -15 -39 -55 -51 -55 -5 0 -3 5 5 11 11
8 12 12 3 16 -15 5 -18 33 -4 33 5 0 11 -8 14 -17 2 -10 4 -2 3 18 -1 46 -23
41 -32 -7 -12 -65 -30 -34 -26 46 1 15 -1 19 -5 10 -3 -8 -13 -21 -20 -29 -8
-8 -12 -23 -9 -33 4 -18 3 -19 -13 -4 -13 11 -17 29 -16 63 1 27 0 40 -2 30
-2 -9 -9 -17 -14 -17 -5 0 -4 -9 3 -20 11 -17 10 -22 -2 -30 -10 -6 -11 -10
-2 -10 6 0 12 -9 12 -20 0 -33 -17 -23 -24 14 -4 19 -13 36 -20 39 -15 6 -58
-28 -69 -54 -4 -9 -6 -6 -4 6 2 11 -4 25 -12 31 -13 10 -13 14 -2 28 7 9 10
16 5 16 -5 -1 -20 -14 -34 -30 -30 -37 -35 -37 -53 -1 -13 25 -13 31 -1 35 8
3 14 13 13 23 0 14 -2 15 -6 3 -3 -8 -11 -18 -17 -22 -6 -4 -11 -19 -11 -34 0
-16 -6 -29 -15 -31 -13 -4 -13 -3 0 6 12 9 13 14 2 28 -7 10 -15 26 -18 35 -3
9 -12 19 -19 22 -17 6 -8 -22 12 -42 14 -14 9 -32 -8 -32 -5 0 -13 8 -16 17
-7 18 -39 53 -49 53 -4 0 -1 -6 5 -14 9 -11 9 -15 -1 -19 -7 -2 -9 -8 -5 -13
4 -5 12 -2 16 5 6 9 9 5 9 -12 0 -23 -2 -24 -15 -11 -8 8 -19 11 -25 8 -5 -3
-18 3 -28 14 -17 18 -17 20 -2 36 16 16 16 17 0 10 -10 -3 -18 -9 -19 -13 0
-3 -2 -16 -3 -28 -3 -27 -13 -39 -23 -29 -4 4 -1 11 7 17 11 6 12 11 3 17 -6
4 -13 21 -16 37 -4 27 -4 27 -6 -7 0 -21 -5 -38 -11 -38 -5 0 -10 4 -10 9 0
10 -46 61 -56 61 -3 0 -1 -7 6 -15 8 -9 8 -15 2 -15 -6 0 -14 -9 -17 -20 -3
-11 -11 -20 -16 -20 -14 0 -11 38 4 43 9 4 9 6 -1 6 -8 1 -16 -8 -19 -19 -3
-11 -9 -20 -14 -20 -9 0 -12 15 -11 55 1 15 0 16 -4 3 -8 -25 -30 -29 -50 -7
-9 10 -22 19 -27 19 -5 0 2 -11 16 -24 22 -21 24 -26 12 -36 -11 -9 -15 -9
-15 -1 0 6 -10 21 -21 32 -17 17 -23 19 -30 8 -5 -8 -9 -17 -9 -21 0 -5 -4 -8
-10 -8 -14 0 -13 43 2 58 9 9 9 12 0 12 -6 0 -15 -12 -18 -27 -10 -39 -26 -53
-41 -37 -10 10 -10 14 0 17 9 3 9 9 0 25 -8 13 -9 22 -2 26 5 2 4 3 -3 2 -8
-2 -13 -19 -13 -49 0 -34 -3 -43 -12 -36 -6 6 -13 20 -15 31 -4 28 -26 35 -35
11 -4 -10 -13 -24 -20 -32 -12 -11 -13 -9 -7 15 4 16 11 33 15 39 12 12 11 25
0 25 -5 0 -12 -11 -15 -25 -7 -29 -24 -33 -33 -8 -7 18 -39 53 -50 53 -3 0 2
-8 11 -19 17 -19 14 -71 -5 -71 -13 0 -11 28 2 32 7 2 5 9 -6 18 -15 12 -16
12 -13 -5 5 -28 -20 -29 -28 -1 -6 27 -24 36 -24 14 0 -7 -12 -24 -26 -37
l-25 -24 -20 22 c-24 25 -23 25 -45 4 -16 -16 -17 -16 -12 -1 4 9 1 19 -7 22
-7 2 -15 13 -18 23 -2 10 -3 6 -2 -10 l2 -27 -23 21 c-28 26 -48 16 -39 -18 5
-23 4 -24 -10 -10 -18 19 -19 39 -3 55 8 8 8 12 1 12 -6 0 -13 -7 -17 -15 -3
-8 -10 -15 -16 -15 -14 0 -13 33 2 48 9 9 9 12 0 12 -6 0 -15 -12 -18 -28 -4
-15 -12 -30 -18 -34 -6 -4 -7 -10 -3 -15 5 -4 12 -1 17 7 6 9 10 10 10 3 0
-22 -23 -26 -37 -7 -13 18 -15 18 -24 2 -6 -10 -15 -18 -22 -18 -7 0 -6 4 3
10 10 7 12 12 4 17 -6 5 -14 15 -17 23 -4 10 -6 8 -6 -7 -1 -13 -5 -23 -11
-23 -15 0 -12 39 4 55 12 12 16 11 31 -5 9 -10 15 -23 12 -27 -3 -5 3 -9 13
-9 10 0 16 6 13 13 -3 7 -9 13 -14 13 -5 0 -12 7 -15 15 -4 10 31 51 100 121
58 58 106 112 106 120 0 16 5 17 70 14 25 -1 48 -6 51 -11 3 -5 65 -12 137
-16 73 -3 132 -10 132 -15 0 -4 14 -8 30 -8 17 0 30 3 30 8 0 4 10 12 23 17
17 8 23 20 25 53 l3 42 45 0 c24 0 44 4 44 9 0 5 14 12 30 16 17 4 30 10 30
15 0 5 13 11 29 15 16 3 32 13 35 21 3 8 17 14 31 14 14 0 25 4 25 9 0 4 19
11 41 14 23 3 45 10 48 15 3 5 13 12 21 15 8 4 -3 4 -25 0 -22 -3 -43 -10 -46
-16 -4 -5 -15 -7 -25 -2 -16 6 -16 8 -4 12 13 5 60 24 125 53 11 5 39 16 63
26 23 10 42 24 42 31 0 7 -3 13 -7 13 -5 0 -33 23 -63 51 -37 34 -48 49 -32
44 15 -4 22 -2 22 7 0 7 20 24 45 38 25 14 45 28 45 32 0 5 5 8 10 8 13 0 45
32 53 53 5 13 2 14 -23 5 -53 -18 -54 -3 -1 22 28 14 51 28 51 31 0 4 7 9 15
13 12 4 14 0 10 -17 -6 -25 10 -56 22 -44 4 5 1 12 -6 17 -12 7 -11 11 2 25
10 9 17 25 17 36 0 10 4 19 9 19 5 0 13 25 16 55 4 30 11 55 16 55 5 0 9 11 9
25 0 14 -4 25 -10 25 -5 0 -10 -11 -10 -25 0 -16 -6 -25 -15 -25 -17 0 -20 11
-6 25 5 6 14 26 19 45 l9 35 12 -25 c10 -21 11 -17 7 30 -2 30 -2 47 1 38 15
-55 37 41 30 130 -3 26 -2 35 0 20 6 -40 23 -34 23 7 0 19 -4 35 -10 35 -6 0
-10 45 -10 114 0 63 -3 121 -6 130 -4 11 -19 16 -51 16 -44 0 -54 19 -10 21
19 1 19 2 3 6 -18 5 -74 -9 -186 -47 l-55 -19 45 6 c25 3 53 10 63 15 10 5 24
5 33 0 12 -7 3 -11 -36 -16 -28 -4 -59 -11 -68 -16 -40 -21 -212 -47 -212 -32
0 14 61 48 101 57 19 4 39 11 44 15 6 4 29 11 53 15 23 4 42 11 42 16 0 5 11
9 25 9 15 0 40 7 57 16 18 9 55 17 82 18 62 1 93 -24 102 -84 7 -40 24 -56 24
-22 0 39 -60 129 -78 118 -4 -2 -8 37 -8 86 -1 50 -6 93 -12 97 -5 3 -13 34
-17 69 -4 34 -11 62 -15 62 -4 0 -11 27 -15 60 -4 33 -11 60 -15 60 -4 0 -11
25 -15 55 -3 30 -10 55 -15 55 -4 0 -11 16 -14 35 -4 19 -11 35 -16 35 -13 0
-13 -27 -1 -34 5 -4 12 -24 16 -46 4 -22 11 -42 15 -45 5 -3 12 -30 15 -60 4
-30 11 -55 15 -55 4 0 12 -30 18 -67 26 -153 37 -203 44 -203 4 0 8 -20 8 -45
0 -25 -4 -45 -10 -45 -5 0 -10 7 -10 16 0 15 -9 16 -67 11 -37 -4 -71 -11 -77
-17 -5 -5 -20 -10 -32 -10 -12 0 -46 -7 -75 -16 -30 -9 -75 -22 -100 -30 -25
-7 -64 -16 -86 -20 l-41 -6 10 43 c20 86 74 270 88 304 5 11 14 61 19 110 6
50 15 110 20 135 6 25 11 95 12 155 1 61 4 99 6 87 4 -20 9 -23 31 -17 15 4
29 8 31 11 5 5 -35 201 -55 268 -8 26 -14 57 -14 67 0 11 -7 19 -15 19 -8 0
-15 5 -15 11 0 14 -71 133 -82 137 -4 2 -8 8 -8 13 0 5 -9 18 -20 29 -11 11
-20 17 -20 14 0 -7 22 -48 29 -54 10 -8 71 -134 71 -146 0 -7 7 -25 15 -40 8
-16 15 -39 15 -52 0 -21 -2 -22 -15 -8 -8 8 -15 21 -15 29 0 14 -16 51 -42 97
-4 8 -12 24 -17 35 -5 11 -27 39 -50 61 -43 44 -74 54 -167 54 -28 0 -64 4
-80 10 -130 44 -2255 44 -2413 0 -20 -5 -56 -10 -80 -10 -48 0 -102 -29 -120
-65 -6 -11 -15 -27 -20 -35 -27 -43 -40 -93 -43 -158 -2 -39 -7 -72 -13 -72
-6 0 -5 -3 1 -8 6 -4 13 -29 16 -57 3 -27 4 -42 1 -32 -2 9 -10 17 -18 17 -7
0 -15 10 -19 23 -8 30 2 166 19 252 18 91 24 186 12 178 -16 -10 5 41 22 54
17 13 22 14 181 38 301 44 1350 87 1619 66 86 -7 219 -16 296 -21 199 -13 467
-37 485 -44 8 -3 51 -10 95 -15 44 -6 90 -13 103 -17 12 -3 22 -2 22 3 0 11
-124 43 -167 43 -17 0 -43 4 -59 10 -16 5 -85 14 -154 20 -69 6 -170 15 -225
20 -55 6 -135 10 -177 11 -51 1 -78 5 -81 13 -3 8 -28 14 -64 15 -63 1 -135 8
-225 20 -44 6 -60 4 -72 -7 -12 -12 -15 -11 -21 9 -9 29 -72 87 -94 88 -9 0
-30 3 -47 7 -23 4 -33 2 -37 -10 -4 -10 -1 -16 9 -16 9 0 12 -5 8 -11 -3 -6
-1 -15 6 -19 31 -19 -11 -26 -167 -28 -168 -2 -327 -9 -393 -18 -19 -2 -93 -8
-165 -14 -71 -5 -141 -12 -155 -15 -14 -3 -56 -8 -95 -11 -38 -3 -106 -11
-150 -19 -44 -8 -99 -16 -123 -19 -24 -3 -47 -8 -52 -11 -18 -11 -170 -35
-260 -41 -52 -3 -141 -12 -196 -20 -56 -8 -107 -14 -113 -14 -6 0 -11 -7 -11
-15 0 -8 -4 -15 -10 -15 -5 0 -10 7 -10 15 0 8 5 15 10 15 6 0 10 6 10 13 0
22 41 91 71 119 43 39 142 63 329 78 69 6 148 15 175 19 28 5 117 12 199 15
81 4 178 11 215 16 36 6 214 14 395 20 181 5 331 12 334 15 9 9 -488 5 -613
-5 -66 -6 -185 -14 -265 -19 -249 -15 -573 -50 -670 -72 -25 -6 -57 -13 -72
-16 -25 -5 -49 -26 -115 -106 -13 -15 -23 -31 -23 -36 0 -5 -21 -11 -47 -14
-50 -7 -432 1 -444 9 -4 2 -42 9 -85 14 -84 11 -230 35 -304 51 -25 5 -76 14
-115 19 -104 14 -204 30 -256 41 -25 6 -81 14 -125 19 -43 5 -108 13 -144 19
-83 13 -256 35 -435 57 -79 10 -147 23 -156 31 -8 7 -21 13 -27 13 -6 0 -17 6
-24 13 -7 6 -35 22 -63 35 -27 13 -57 27 -66 32 -9 5 -34 11 -55 14 l-39 6 33
-11 c38 -11 128 -59 181 -95 l36 -24 -159 0 c-155 0 -220 -8 -352 -46 -28 -8
-56 -14 -63 -14 -7 0 -27 -6 -44 -14 -18 -8 -49 -17 -69 -21 -21 -3 -38 -10
-38 -15 0 -6 -8 -10 -17 -10 -21 0 -145 -40 -158 -52 -5 -4 -16 -8 -25 -8 -8
0 -28 -7 -44 -15 -15 -8 -33 -15 -40 -15 -6 0 -22 -6 -36 -13 -14 -7 -54 -24
-90 -37 -36 -12 -69 -27 -75 -32 -5 -4 -16 -8 -25 -8 -10 0 -35 -12 -56 -28
-21 -15 -57 -36 -79 -47 -22 -11 -46 -26 -53 -32 -33 -32 -72 -25 -177 30 -61
32 -203 69 -316 82 -113 14 -140 14 -248 1 -67 -9 -130 -20 -141 -26 -10 -5
-29 -10 -42 -10 -13 0 -33 -7 -44 -15 -10 -8 -25 -15 -33 -15 -17 0 -140 -60
-186 -91 -16 -10 -38 -22 -47 -25 -10 -4 -18 -10 -18 -15 0 -5 -12 -15 -28
-23 -32 -17 -174 -154 -217 -210 -17 -21 -36 -45 -42 -52 -7 -7 -13 -17 -13
-22 0 -6 -3 -12 -7 -14 -11 -4 -45 -56 -68 -103 -11 -22 -23 -42 -27 -45 -3
-3 -10 -18 -13 -33 -4 -15 -11 -27 -16 -27 -5 0 -9 -5 -9 -11 0 -7 -9 -30 -19
-53 -38 -81 -51 -114 -51 -128 0 -8 -4 -18 -9 -23 -10 -10 -20 -46 -44 -150
-7 -27 -15 -55 -19 -61 -4 -5 -10 -35 -13 -65 -4 -30 -11 -65 -16 -79 -10 -28
-26 -176 -39 -360 -10 -135 -3 -416 10 -465 5 -16 11 -71 14 -120 l6 -90 -77
3 c-47 2 -92 10 -113 21 -73 36 -242 68 -455 86 -38 4 -122 12 -185 18 l-115
12 -8 190 c-5 105 -9 206 -9 225 -1 39 17 161 34 230 18 77 21 458 7 855 -20
544 -12 863 27 1065 23 123 45 222 60 274 8 26 14 90 14 141 0 64 5 102 16
123 8 18 14 40 12 50 -8 39 -48 -77 -49 -140 0 -66 -8 -120 -33 -228 -66 -295
-92 -609 -82 -985 3 -126 9 -412 12 -635 6 -410 5 -426 -32 -645 -4 -22 -8
-146 -10 -275 l-3 -235 -43 1 c-75 2 -521 39 -648 55 -47 5 -140 14 -205 19
-156 11 -347 28 -460 41 -49 6 -144 14 -210 19 -66 5 -172 13 -235 19 -168 16
-420 38 -625 56 -651 57 -592 48 -604 93 -5 20 -15 84 -21 142 -6 58 -16 143
-21 190 -19 152 -15 222 22 460 13 88 6 510 -10 580 -34 147 -53 874 -26 1020
20 105 42 195 61 238 8 18 14 40 14 50 0 9 7 35 15 57 8 22 14 66 15 98 0 31
4 57 8 57 5 0 23 21 41 46 l33 47 231 -7 c960 -27 1332 -38 1462 -45 83 -5
210 -9 283 -10 80 -1 132 -5 132 -11 0 -5 8 -10 17 -10 10 0 -2 -11 -27 -24
-24 -13 -46 -28 -48 -34 -2 -6 18 -13 45 -17 26 -3 62 -10 78 -15 17 -5 109
-10 205 -11 293 -5 269 -7 325 31 l49 34 136 -1 c126 -1 130 0 60 8 -41 5
-106 13 -145 18 -38 4 -61 9 -50 10 11 0 29 7 40 15 28 18 70 28 140 31 33 1
59 5 58 9 -2 3 -6 18 -9 33 -19 75 -211 413 -235 413 -5 0 -9 5 -9 11 0 12
-97 132 -111 137 -5 2 -9 10 -9 18 0 8 -3 14 -8 14 -4 0 -27 27 -51 60 -24 33
-48 60 -52 60 -5 0 -9 6 -9 14 0 8 -4 16 -9 18 -4 2 -35 35 -67 73 -32 39 -68
80 -81 92 -13 12 -23 25 -23 29 0 3 -75 81 -167 173 -157 157 -277 261 -302
261 -6 0 -11 4 -11 8 0 11 -176 99 -237 118 -139 44 -272 70 -428 84 -154 13
-650 19 -745 9z m1716 -935 c30 -8 54 -20 54 -25 0 -5 7 -9 15 -9 13 0 93 -74
120 -111 23 -31 39 -100 29 -127 l-9 -27 -375 -3 c-368 -2 -375 -3 -391 -23
-14 -19 -29 -22 -152 -27 l-137 -5 0 31 c0 17 7 37 15 46 8 8 15 18 15 23 0
20 122 121 180 150 195 95 501 147 636 107z m5112 -1585 c13 -5 49 -9 80 -9
31 0 91 -5 132 -11 73 -10 203 -28 365 -49 44 -5 87 -13 95 -16 17 -6 160 -29
285 -44 44 -6 89 -14 100 -19 11 -5 56 -14 100 -20 44 -7 109 -17 145 -22 36
-5 74 -14 85 -18 11 -5 44 -12 73 -15 29 -3 68 -10 85 -15 34 -10 106 -25 197
-41 30 -6 64 -14 75 -20 11 -5 43 -14 70 -20 28 -6 61 -14 75 -17 36 -8 60
-37 60 -72 0 -35 -64 -162 -101 -202 -31 -33 -50 -36 -75 -12 -15 16 -17 16
-29 0 -10 -14 -31 -17 -139 -17 -116 0 -127 2 -124 18 3 14 16 17 82 20 97 4
119 17 164 102 37 71 41 100 13 100 -11 0 -23 5 -26 10 -3 6 -18 11 -33 11
l-27 1 30 8 c23 6 25 8 8 9 -12 0 -24 5 -27 10 -3 5 -35 12 -71 16 -36 3 -65
11 -65 16 0 5 -15 9 -32 9 -18 0 -51 5 -73 11 -48 12 -160 35 -270 55 -44 8
-118 21 -165 30 -47 8 -128 20 -180 27 -52 7 -99 15 -105 18 -5 4 -46 10 -90
14 -44 4 -87 11 -95 15 -8 4 -51 10 -95 13 -50 3 -73 2 -60 -4 12 -5 -15 -6
-70 -3 -49 4 -92 8 -94 10 -2 2 7 8 20 14 19 8 6 9 -53 7 -43 -2 -78 -1 -78 3
0 9 -49 16 -205 30 -128 11 -225 29 -225 41 0 5 5 9 12 9 6 0 8 3 5 6 -3 4
-23 -1 -43 -11 -36 -17 -64 -16 -134 3 l-35 10 30 2 c17 1 50 8 75 15 49 14
315 10 358 -6z m-808 -141 c116 -111 210 -197 252 -231 24 -19 45 -50 63 -95
51 -126 69 -167 92 -202 13 -19 23 -40 23 -47 0 -7 7 -13 15 -13 8 0 15 -7 15
-15 0 -8 4 -15 8 -15 15 0 37 -52 34 -80 -2 -15 1 -31 7 -35 6 -3 11 -33 11
-65 0 -37 4 -60 12 -62 10 -4 10 -10 1 -31 -7 -15 -8 -27 -3 -27 5 0 7 -9 5
-21 -2 -11 0 -31 5 -45 8 -19 6 -24 -6 -24 -11 0 -14 -12 -13 -55 1 -30 6 -55
11 -55 5 0 6 -5 2 -12 -4 -6 -9 -45 -10 -85 -2 -41 -6 -79 -9 -84 -4 -5 1 -9
9 -9 9 0 13 -6 10 -14 -3 -9 3 -17 15 -21 12 -3 21 -11 21 -17 0 -6 9 -8 20
-5 11 3 20 1 20 -4 0 -5 10 -19 21 -30 17 -17 23 -19 30 -8 6 10 9 4 9 -18 0
-23 5 -33 15 -33 8 0 15 -7 15 -15 0 -9 9 -15 21 -15 15 0 19 -5 15 -15 -3 -8
-1 -15 5 -15 6 0 17 -7 25 -15 11 -11 12 -15 3 -15 -10 0 -10 -3 -1 -12 10
-10 17 -10 34 1 19 12 20 11 14 -13 -5 -19 -2 -26 8 -26 8 0 18 -9 21 -20 3
-11 11 -20 16 -20 5 0 9 -8 10 -17 0 -15 2 -15 9 2 8 18 10 17 21 -12 8 -18
19 -33 26 -33 7 0 13 -5 13 -11 0 -5 5 -7 12 -3 9 6 9 9 0 12 -7 2 -12 11 -12
20 0 25 23 -2 25 -30 1 -19 7 -23 33 -22 27 1 32 -2 32 -21 0 -15 8 -25 21
-28 15 -4 20 -11 15 -23 -5 -13 -2 -15 19 -10 21 5 32 0 60 -30 30 -32 34 -41
30 -78 -2 -22 -1 -35 1 -28 3 6 12 12 20 12 10 0 12 -8 8 -29 -5 -22 -1 -34
15 -47 12 -10 21 -25 21 -32 0 -8 15 4 33 26 19 22 46 51 60 65 15 13 27 30
27 36 0 6 8 15 18 18 9 4 36 26 60 50 24 24 48 41 53 38 5 -4 21 3 35 14 37
29 51 26 20 -3 -15 -13 -26 -27 -26 -32 0 -5 -13 -21 -29 -35 -15 -14 -31 -35
-35 -47 -4 -12 -12 -22 -17 -22 -5 0 -9 -7 -9 -15 0 -9 -6 -18 -14 -21 -8 -3
-17 -16 -20 -30 -4 -13 -10 -24 -15 -24 -5 0 -12 -13 -16 -30 -4 -16 -10 -30
-15 -30 -5 0 -11 -13 -15 -30 -4 -16 -11 -30 -16 -30 -5 0 -9 -6 -9 -12 0 -7
-7 -26 -15 -42 -9 -16 -18 -57 -22 -90 -5 -56 -24 -96 -45 -96 -4 0 -17 -8
-27 -17 -35 -32 -46 -38 -71 -40 -14 -2 -63 -7 -110 -13 -47 -6 -132 -13 -190
-16 -58 -3 -125 -11 -150 -19 -25 -7 -74 -22 -110 -33 -35 -11 -66 -25 -68
-32 -3 -9 1 -11 11 -7 9 3 23 0 31 -8 8 -8 19 -15 24 -15 6 0 12 -7 16 -15 3
-8 18 -16 33 -16 17 -1 21 -3 11 -6 -10 -2 -18 -11 -18 -18 0 -9 19 -16 58
-20 31 -3 81 -10 111 -15 30 -6 100 -11 155 -12 56 -1 -11 -5 -149 -9 -185 -4
-268 -10 -320 -23 -127 -31 -128 -31 -143 3 -10 22 -12 53 -7 103 13 156 -2
512 -25 563 -5 11 -12 55 -15 98 -4 42 -10 77 -14 77 -5 0 -11 32 -14 71 -3
39 -10 76 -15 82 -6 7 -13 37 -17 67 -4 30 -11 60 -15 65 -4 6 -11 31 -14 58
-4 26 -11 47 -17 47 -5 0 -9 10 -9 23 0 25 -68 227 -81 242 -5 5 -9 16 -9 25
0 8 -6 27 -14 41 -7 14 -16 37 -20 52 -3 15 -11 27 -16 27 -6 0 -10 6 -10 14
0 14 -68 156 -79 166 -3 3 -17 26 -31 53 -13 26 -28 47 -32 47 -5 0 -8 5 -8
10 0 12 -41 73 -52 78 -5 2 -8 8 -8 13 0 8 -36 59 -90 124 -50 61 -245 254
-257 255 -7 0 -13 4 -13 9 0 5 -34 30 -75 57 -41 27 -75 54 -75 59 0 15 183
115 212 115 7 1 31 9 53 20 22 11 46 19 53 20 7 0 20 4 30 10 36 20 112 50
126 50 8 0 17 4 20 9 3 5 22 12 41 15 19 4 35 11 35 16 0 5 10 11 23 13 12 2
24 5 26 6 3 0 44 -36 91 -81z m415 21 c83 -6 158 -15 167 -20 10 -5 27 -9 38
-9 26 0 27 -38 3 -98 -18 -42 -19 -43 -55 -38 -26 4 -38 2 -38 -5 0 -12 -48
-9 -210 10 -53 6 -100 27 -100 44 0 4 -11 18 -23 30 -35 32 -60 75 -52 87 8
13 65 13 270 -1z m4669 -146 c24 -69 46 -144 53 -175 3 -15 10 -32 17 -37 13
-11 982 -16 1063 -5 65 8 123 -2 123 -21 0 -13 -80 -15 -590 -15 -520 0 -589
-2 -584 -15 5 -13 65 -15 443 -17 l436 -3 -437 -2 c-340 -3 -438 -6 -438 -16
0 -6 7 -47 15 -91 8 -43 15 -90 14 -105 0 -14 6 -48 13 -76 l14 -50 125 0
c189 1 686 24 759 36 36 5 95 17 132 25 51 12 71 13 87 4 46 -24 22 -31 -204
-55 -150 -16 -151 -16 -597 -42 -239 -13 -298 -19 -298 -31 0 -10 12 -12 53
-8 120 12 303 16 317 6 10 -7 -23 -10 -110 -11 -69 -1 -154 -4 -190 -8 l-65
-6 1 -35 c10 -224 12 -340 6 -344 -12 -7 -41 150 -47 259 -3 58 -11 105 -18
112 -8 8 -133 13 -425 18 -227 4 -410 11 -405 15 4 4 190 3 412 -3 331 -7 405
-7 412 4 4 7 7 15 5 16 -1 1 -101 3 -222 4 -120 0 -313 5 -429 10 -115 5 -338
14 -495 20 -524 20 -489 17 -482 41 5 20 9 21 145 14 77 -4 160 -11 186 -16
51 -9 593 -27 1018 -34 l272 -4 -1 81 c0 45 -7 106 -14 135 -8 29 -14 66 -14
81 0 16 -6 34 -13 40 -10 8 -200 12 -648 14 l-634 2 638 3 c558 2 637 4 637
17 0 13 -101 15 -845 15 -744 0 -845 2 -845 15 0 13 25 15 163 15 89 0 181 -5
205 -10 29 -7 138 -7 325 0 155 5 438 10 629 11 197 0 350 5 353 10 6 9 -11
76 -50 192 -21 62 -22 67 -5 67 12 0 23 -15 34 -47z m-3789 7 c3 -5 15 -10 27
-10 19 0 20 -4 13 -47 -3 -27 -13 -58 -21 -70 -15 -23 -48 -31 -59 -13 -4 6
-15 5 -30 -2 -15 -7 -51 -8 -99 -3 -65 6 -76 9 -76 25 0 10 5 22 10 25 6 3 7
18 3 33 -6 25 -5 26 12 12 17 -14 18 -13 11 23 l-7 37 105 0 c59 0 108 -4 111
-10z m665 -121 c0 -5 14 -9 30 -9 27 0 30 -3 30 -31 0 -58 -32 -107 -65 -99
-5 1 -51 2 -102 1 -83 -2 -93 0 -103 18 -7 14 -7 21 0 21 5 0 10 13 10 29 0
17 5 33 10 36 6 3 10 15 10 26 0 18 7 19 90 18 50 -1 90 -6 90 -10z m-11495
-438 c25 -17 48 -31 51 -31 2 0 23 -19 45 -42 64 -66 139 -192 154 -256 3 -18
11 -32 16 -32 5 0 9 -9 9 -20 0 -10 6 -39 14 -62 8 -24 17 -65 21 -93 6 -46 5
-48 -8 -30 -15 19 -16 19 -59 -15 -23 -19 -52 -46 -63 -60 -11 -13 -28 -33
-37 -42 -10 -10 -18 -20 -18 -22 0 -12 -57 -66 -70 -66 -9 0 -25 -6 -36 -14
-11 -8 -42 -17 -69 -21 -62 -9 -84 -20 -95 -48 -7 -17 -9 -18 -9 -5 -1 10 6
33 15 51 14 30 20 34 50 30 28 -3 36 1 51 24 20 31 24 36 53 72 11 13 20 27
20 31 0 3 13 19 28 36 15 16 45 53 67 82 21 28 43 52 47 52 4 0 8 4 8 9 0 6
14 25 30 43 36 39 37 69 5 123 -14 22 -31 51 -37 65 -44 87 -178 192 -178 139
0 -10 -4 -20 -9 -23 -5 -4 -12 -30 -16 -59 -3 -28 -10 -65 -15 -82 -5 -16 -14
-75 -20 -130 -6 -55 -14 -122 -19 -150 l-7 -50 -9 60 c-4 33 -5 160 -2 283 l7
223 -71 -2 -70 -2 4 -96 c5 -98 19 -204 36 -276 23 -98 32 -156 26 -175 -10
-33 -22 -15 -50 78 -15 48 -33 105 -40 127 -7 22 -16 52 -19 68 -7 30 -40 38
-50 12 -3 -8 -10 -15 -15 -15 -13 0 4 48 26 72 11 13 13 29 8 67 -4 28 -11 54
-16 57 -10 6 -72 -56 -97 -98 -9 -15 -20 -28 -24 -28 -4 0 -8 -4 -8 -9 0 -5
-15 -35 -32 -65 -23 -40 -38 -55 -50 -52 -9 2 -19 -2 -22 -10 -3 -8 -1 -14 4
-14 6 0 10 -5 10 -11 0 -13 152 -213 187 -246 13 -12 23 -27 23 -33 0 -5 3
-10 8 -10 4 0 19 -15 33 -33 l26 -32 -46 4 c-25 2 -48 6 -51 10 -12 17 -104
81 -116 81 -8 0 -14 5 -14 10 0 6 -16 28 -36 48 -34 35 -36 36 -49 18 -8 -10
-17 -39 -20 -65 -7 -50 -29 -106 -46 -117 -13 -8 28 -30 73 -39 18 -4 53 -13
78 -20 25 -8 57 -16 73 -20 35 -7 107 -72 107 -96 0 -11 6 -19 14 -19 16 0 31
-18 23 -26 -3 -3 -22 -1 -43 5 -22 6 -99 15 -173 21 -175 14 -168 20 -152
-137 12 -119 35 -245 53 -295 9 -23 13 -26 29 -17 11 5 19 16 19 24 0 7 3 15
8 17 20 9 52 71 53 105 1 21 3 30 6 21 8 -30 27 -20 66 30 20 27 47 60 59 73
26 29 66 78 77 97 4 7 14 10 22 7 23 -9 14 -69 -15 -108 -13 -17 -29 -50 -35
-72 -6 -22 -24 -56 -41 -75 -17 -19 -38 -47 -48 -62 -9 -16 -20 -28 -24 -28
-4 0 -8 -7 -8 -15 0 -8 -4 -15 -9 -15 -14 0 -111 -158 -111 -180 0 -5 6 -7 13
-4 8 3 29 -20 52 -56 21 -33 44 -59 50 -57 5 2 16 23 24 48 8 24 18 53 22 64
4 11 18 45 30 75 48 124 80 190 103 213 18 19 19 19 12 -19 -4 -22 -14 -61
-22 -89 -8 -27 -22 -75 -30 -105 -9 -30 -22 -75 -30 -100 -8 -25 -14 -55 -14
-68 0 -13 -4 -31 -9 -40 -4 -9 -11 -36 -14 -59 -5 -43 -5 -43 27 -43 17 0 40
-6 51 -14 28 -19 104 -28 164 -20 45 6 51 9 51 30 0 13 -5 24 -10 24 -6 0 -8
11 -4 25 3 14 2 31 -4 38 -12 14 -15 81 -13 312 1 155 2 168 17 153 17 -17 27
-78 44 -268 6 -68 15 -131 19 -140 5 -8 12 -36 15 -62 4 -27 10 -48 14 -48 15
0 64 38 97 76 41 45 44 77 15 131 -11 21 -20 43 -20 50 0 7 -4 13 -9 13 -5 0
-12 13 -16 30 -4 16 -11 32 -16 35 -5 4 -9 15 -9 27 0 11 -6 34 -14 51 -24 57
-40 121 -41 172 -1 28 1 42 3 33 2 -10 7 -18 12 -18 5 0 11 -13 15 -30 4 -16
11 -30 16 -30 5 0 9 -5 9 -11 0 -14 71 -133 82 -137 4 -2 8 -9 8 -16 0 -11 10
-26 50 -73 15 -18 38 -16 44 5 3 9 3 0 0 -20 -3 -20 -11 -50 -19 -65 -8 -15
-15 -31 -15 -35 0 -22 -107 -176 -151 -218 -67 -62 -182 -119 -242 -120 -15 0
-99 23 -132 36 -42 17 -195 165 -195 189 0 8 -3 15 -8 15 -9 0 -49 84 -58 123
-3 15 -10 27 -15 27 -5 0 -9 9 -9 19 0 11 -5 32 -12 48 -41 100 -78 312 -78
454 0 66 4 109 10 109 6 0 10 45 9 118 0 64 4 140 9 167 21 105 36 165 43 165
4 0 11 20 15 45 3 25 10 45 15 45 5 0 9 8 9 17 0 16 62 148 93 198 26 42 165
174 190 180 15 4 27 11 27 15 0 13 48 19 137 15 72 -2 87 -6 128 -34z m12926
-31 c4 0 10 -13 14 -30 4 -16 10 -30 15 -30 4 0 11 -12 15 -27 3 -15 10 -30
14 -33 9 -6 71 -99 71 -106 0 -5 40 -64 50 -74 3 -3 14 -22 25 -44 11 -21 26
-40 33 -43 6 -3 12 -11 12 -19 0 -8 4 -14 9 -14 5 0 12 -8 15 -18 17 -52 210
-217 296 -252 14 -6 34 -14 45 -19 35 -15 131 -41 151 -41 10 0 51 -6 89 -14
120 -26 420 -69 555 -81 36 -3 99 -10 140 -15 120 -15 404 -12 485 5 38 8 81
15 94 15 13 0 53 7 90 15 36 8 102 21 146 30 160 32 372 94 441 130 45 22 100
76 109 105 4 14 13 32 20 40 7 8 15 22 18 30 3 8 4 0 4 -17 -1 -18 -5 -33 -9
-33 -3 0 -4 -9 -1 -20 3 -10 -4 -32 -16 -48 -11 -16 -18 -32 -15 -34 3 -3 -4
-23 -14 -44 -11 -22 -25 -53 -33 -69 -33 -72 -93 -135 -174 -182 -37 -22 -107
-53 -119 -53 -6 0 -23 -7 -39 -15 -37 -19 -101 -21 -227 -6 -60 8 -177 12
-275 10 -498 -10 -1016 12 -1260 52 -33 5 -129 13 -213 18 -84 5 -156 12 -160
15 -3 4 -6 48 -7 99 0 76 -3 97 -20 119 -24 32 -75 56 -139 64 -25 4 -49 11
-52 15 -8 13 -76 11 -107 -3 -17 -8 -31 -25 -35 -43 l-8 -30 -27 42 c-15 24
-27 48 -27 56 0 7 -6 21 -14 32 -7 11 -17 36 -21 55 -4 19 -11 40 -16 46 -12
15 -20 224 -9 224 5 0 7 6 4 13 -6 16 23 16 46 2 8 -5 22 -8 31 -7 9 2 19 -4
22 -13 4 -8 16 -15 27 -15 11 0 20 -7 20 -15 0 -8 6 -15 14 -15 15 0 74 -64
114 -126 7 -10 15 -27 18 -36 3 -9 12 -19 20 -22 8 -3 14 -12 14 -20 0 -7 7
-16 15 -20 8 -3 15 -1 15 4 0 6 -4 10 -9 10 -5 0 -14 14 -22 31 -7 18 -23 43
-36 57 -13 14 -23 31 -23 38 0 8 -4 14 -9 14 -5 0 -14 12 -20 28 -6 15 -20 41
-30 57 -34 52 -161 311 -160 326 1 8 6 -1 11 -18 6 -18 14 -33 19 -33z m-4516
-54 c84 -17 134 -34 200 -71 134 -75 281 -220 358 -355 132 -230 203 -454 227
-710 18 -204 4 -440 -34 -595 -9 -33 -21 -82 -28 -110 -6 -27 -15 -52 -18 -55
-7 -5 -38 -89 -47 -127 -3 -13 -9 -23 -13 -23 -5 0 -11 -13 -15 -30 -4 -16
-10 -30 -15 -30 -5 0 -12 -9 -15 -20 -12 -39 -107 -169 -171 -234 -54 -56
-207 -166 -230 -166 -4 0 -20 -6 -37 -14 -67 -29 -159 -46 -246 -46 -50 0 -92
4 -95 9 -3 4 -25 11 -50 14 -24 4 -76 21 -114 40 -72 34 -202 124 -202 139 0
4 -7 8 -15 8 -8 0 -15 3 -15 8 0 4 -21 30 -45 57 -85 94 -213 309 -230 385 -4
16 -11 30 -16 30 -5 0 -9 9 -9 21 0 12 -6 35 -14 52 -67 151 -103 527 -76 782
19 174 63 344 125 479 14 30 25 60 25 65 0 6 5 11 10 11 6 0 10 6 10 13 0 7
16 36 35 66 19 29 35 57 35 62 0 5 4 9 9 9 4 0 20 17 34 38 36 52 84 102 142
148 28 21 52 42 53 47 2 4 8 7 13 7 5 0 27 11 49 25 114 72 281 100 425 71z
m7412 -323 c2 -6 -11 -14 -29 -18 -18 -4 -39 -11 -48 -15 -34 -17 -236 -50
-425 -70 -49 -5 -115 -14 -145 -19 -30 -6 -104 -13 -165 -16 -60 -3 -134 -8
-162 -11 -43 -5 -53 -3 -53 9 0 15 2 16 305 36 82 6 181 15 220 21 38 5 106
14 150 20 149 19 197 28 214 44 10 9 29 16 44 16 14 0 29 5 32 11 9 13 57 8
62 -8z m-2258 -59 c25 -8 58 -14 75 -14 17 0 47 -4 66 -10 35 -9 245 -21 760
-40 145 -6 266 -13 269 -15 2 -3 1 -8 -2 -12 -10 -9 -693 15 -782 28 -38 5
-135 14 -215 19 -366 24 -440 32 -440 51 0 16 10 17 113 12 61 -2 132 -11 156
-19z m-389 -234 c3 -4 18 -10 35 -14 16 -4 36 -13 43 -19 32 -26 55 -128 32
-142 -5 -3 -10 -20 -10 -37 l0 -31 -52 7 c-28 4 -60 12 -71 18 -10 5 -49 13
-86 16 l-66 7 -3 99 c-2 73 1 102 10 108 15 10 160 0 168 -12z m-308 -46 c51
-9 108 -62 108 -102 l0 -31 -112 5 c-62 3 -122 9 -133 14 -11 5 -94 14 -185
19 -239 16 -402 30 -408 36 -3 3 0 11 6 17 9 9 12 9 12 0 0 -15 27 -16 32 0 3
8 57 9 214 2 115 -5 229 -6 254 -3 25 3 39 7 32 7 -10 2 -10 7 -2 22 9 17 21
20 78 20 37 0 84 -3 104 -6z m-12522 -153 l0 -98 -182 4 c-110 3 -189 0 -197
-5 -8 -6 -14 -25 -14 -42 0 -17 6 -36 14 -41 11 -7 11 -9 -3 -9 -11 0 -18 -8
-18 -20 0 -11 -7 -20 -15 -20 -8 0 -15 5 -15 11 0 7 -9 9 -21 6 -19 -5 -21 -3
-16 28 5 31 4 33 -21 32 -25 -2 -27 1 -30 46 -2 26 -8 47 -14 47 -7 0 -6 5 2
15 21 25 29 17 27 -27 -2 -37 1 -43 30 -60 37 -22 73 -11 73 22 0 11 5 20 10
20 6 0 10 8 10 18 0 14 2 14 9 3 6 -9 15 -11 27 -6 11 5 42 8 69 7 39 -1 44 1
20 6 -16 4 -30 13 -30 20 0 16 1 16 63 7 62 -8 72 -3 47 25 -18 20 -18 21 0
14 15 -6 17 -4 13 14 -5 17 -2 22 13 22 10 0 19 4 19 9 0 5 22 11 49 15 27 3
54 13 61 21 7 8 14 15 16 15 2 0 4 -44 4 -99z m12375 -52 c104 -6 208 -17 230
-24 40 -13 40 -13 -38 -14 -43 -1 -97 4 -120 9 -61 15 -446 32 -712 33 -221 0
-329 -9 -371 -31 -10 -5 -43 -20 -71 -33 -29 -12 -53 -26 -53 -31 0 -4 -5 -8
-11 -8 -14 0 -169 -154 -169 -168 0 -6 -4 -12 -8 -14 -7 -2 -110 -150 -149
-214 -50 -80 -83 -170 -83 -224 0 -72 47 -116 140 -131 25 -4 -7 -5 -70 -3
-120 6 -201 25 -235 56 -14 14 -19 32 -19 72 0 72 16 99 88 147 33 22 70 54
82 72 13 18 27 37 31 42 4 6 17 26 27 45 28 50 103 151 164 221 42 47 133 119
177 138 49 21 137 48 200 61 33 7 65 14 70 16 20 8 715 -5 900 -17z m-11772
-183 c71 -55 303 -108 542 -126 259 -19 404 -31 490 -41 50 -6 146 -14 215
-19 69 -5 179 -14 245 -20 229 -20 451 -40 630 -55 99 -9 223 -20 275 -25 52
-6 131 -12 175 -15 44 -3 150 -12 235 -20 219 -20 495 -44 560 -49 30 -2 107
-9 170 -15 142 -14 437 -40 505 -45 111 -8 325 -27 405 -37 47 -5 140 -14 205
-19 234 -17 391 -31 465 -41 41 -5 138 -14 215 -20 308 -22 441 -35 454 -43 7
-5 52 -8 100 -7 47 0 102 -3 121 -7 34 -8 35 -9 43 -72 4 -35 12 -69 16 -75 5
-5 12 -34 16 -63 7 -50 6 -53 -11 -44 -115 60 -148 72 -193 72 -27 0 -83 5
-123 10 -40 6 -118 14 -173 19 -111 11 -229 26 -320 42 -33 6 -94 14 -135 18
-132 15 -253 31 -318 42 -35 6 -100 15 -145 19 -45 4 -125 13 -177 19 -289 34
-582 64 -835 86 -99 9 -239 22 -310 30 -72 8 -155 15 -185 15 -30 0 -125 7
-210 15 -85 8 -256 21 -380 30 -124 8 -286 20 -360 25 -74 6 -178 12 -230 15
-52 3 -214 12 -360 20 -610 34 -1125 44 -1350 25 -63 -5 -158 -10 -210 -12
l-94 -3 -11 35 c-5 19 -13 40 -16 45 -4 6 -10 31 -13 58 -4 26 -11 47 -15 47
-5 0 -12 26 -16 58 -4 31 -10 59 -15 62 -4 3 -10 26 -14 51 l-7 46 56 -3 c40
-2 64 -10 88 -28z m13701 -535 c3 -5 -106 -12 -252 -15 -141 -4 -282 -11 -312
-16 -30 -5 -228 -12 -440 -15 -212 -4 -389 -11 -395 -15 -5 -4 -80 -9 -165
-12 -97 -3 -131 -2 -90 3 153 18 341 29 565 34 132 3 326 9 430 15 105 6 282
14 395 19 113 4 217 8 232 9 15 1 29 -2 32 -7z m-13468 -76 c5 -12 26 -15 105
-15 59 0 99 4 99 10 0 13 157 13 162 1 2 -5 114 -13 251 -17 253 -7 272 -11
230 -45 -13 -11 -17 -11 -20 -1 -7 17 -21 15 -25 -5 -3 -15 -4 -15 -19 0 -12
12 -19 13 -28 4 -8 -8 -11 -7 -11 6 0 15 -2 15 -20 -3 -24 -24 -40 -26 -40 -4
0 14 -2 14 -22 0 -22 -15 -61 -13 -85 6 -7 6 -12 3 -15 -8 -3 -17 -4 -17 -20
0 -14 14 -18 14 -18 3 0 -9 -10 -14 -29 -13 -21 1 -27 5 -23 16 4 11 0 11 -15
-3 -19 -17 -22 -17 -37 -2 -13 14 -16 14 -16 2 0 -9 -10 -14 -25 -14 -16 0
-25 5 -25 15 0 13 -2 13 -17 0 -25 -21 -63 -21 -64 0 -1 15 -2 15 -6 1 -5 -20
-52 -22 -60 -2 -5 12 -8 12 -22 0 -24 -20 -61 -19 -62 1 -1 15 -2 15 -6 1 -5
-19 -52 -26 -118 -17 -16 3 -38 1 -47 -4 -15 -7 -18 -4 -18 17 0 14 4 25 9 25
5 0 12 14 16 30 7 32 32 41 41 15z"/>
<path d="M16622 7931 c-12 -10 -22 -23 -22 -29 0 -5 21 -27 48 -48 60 -48 246
-235 292 -293 19 -24 44 -53 55 -63 36 -34 97 -38 103 -6 3 17 -95 158 -110
158 -5 0 -8 5 -8 11 0 13 -199 213 -256 257 -48 37 -72 40 -102 13z"/>
<path d="M20996 6745 c4 -8 12 -15 19 -15 6 0 20 -9 30 -20 10 -11 24 -20 32
-20 7 0 13 -4 13 -9 0 -5 14 -12 30 -16 17 -4 30 -10 30 -15 0 -5 20 -12 45
-16 25 -3 45 -10 45 -14 0 -5 29 -12 65 -15 36 -4 68 -11 70 -16 3 -4 41 -11
85 -15 44 -3 83 -10 85 -14 3 -5 44 -11 93 -15 48 -4 101 -11 117 -16 53 -16
327 -40 510 -44 116 -2 117 -2 35 6 -47 4 -150 12 -230 18 -80 6 -163 15 -185
20 -22 6 -76 13 -120 16 -44 3 -93 10 -110 15 -16 5 -64 13 -105 19 -41 5
-109 16 -150 25 -41 8 -99 20 -129 25 -30 6 -59 15 -65 21 -5 5 -18 10 -28 10
-20 0 -101 40 -106 52 -2 4 -9 8 -16 8 -6 0 -19 9 -29 20 -20 23 -39 27 -31 5z"/>
<path d="M15866 7170 c2 -69 11 -154 19 -190 7 -36 19 -87 25 -115 6 -27 18
-81 26 -120 9 -38 18 -100 21 -136 4 -54 2 -67 -11 -72 -9 -4 -16 -1 -16 5 0
9 -55 154 -104 273 -7 17 -21 57 -32 90 -10 33 -22 62 -25 65 -4 3 -9 15 -13
28 -4 12 -13 22 -20 22 -7 0 -41 -29 -75 -65 -35 -36 -67 -65 -72 -65 -21 0
18 64 77 124 42 44 63 73 60 83 -3 8 -6 27 -6 43 0 15 -7 30 -15 34 -20 7
-156 -102 -202 -164 -20 -27 -41 -50 -45 -50 -4 0 -8 -5 -8 -10 0 -6 -5 -16
-10 -23 -6 -7 -25 -31 -42 -55 -27 -39 -34 -42 -60 -37 -29 7 -29 6 -17 -17
17 -33 147 -167 346 -358 60 -58 78 -81 78 -103 0 -26 -2 -27 -47 -27 -28 0
-53 6 -62 15 -8 8 -17 15 -21 15 -3 0 -11 5 -18 10 -48 41 -62 50 -74 50 -7 0
-13 4 -13 9 0 15 -65 51 -93 51 -16 0 -27 -7 -30 -17 -3 -10 -5 -1 -4 20 1 21
-3 41 -9 45 -6 4 -27 20 -47 36 -21 16 -41 26 -44 22 -10 -10 -43 -118 -43
-141 0 -26 -31 -105 -41 -106 -5 -1 -13 -3 -19 -4 -5 -1 -15 -3 -21 -4 -25 -3
21 -28 81 -45 36 -9 79 -21 96 -27 16 -5 50 -13 75 -18 195 -42 208 -47 258
-93 33 -29 41 -42 32 -48 -26 -15 -4 -35 49 -45 83 -16 72 -31 -17 -24 -87 6
-266 25 -389 39 -102 13 -144 13 -144 0 0 -5 -14 -10 -31 -10 l-32 0 7 -107
c3 -60 13 -137 22 -173 23 -97 76 -253 91 -268 7 -7 13 -20 13 -27 0 -15 27
-45 41 -45 5 0 28 21 51 47 64 70 218 231 351 367 89 90 121 116 127 106 6 -9
3 -18 -7 -26 -14 -10 -15 -16 -4 -42 11 -27 10 -33 -8 -51 -22 -22 -71 -120
-71 -143 0 -7 -23 -40 -51 -73 -77 -90 -152 -176 -170 -194 -19 -19 -98 -126
-122 -163 -22 -34 -22 -59 -2 -51 11 4 40 -20 91 -76 42 -44 80 -81 85 -81 9
0 49 81 49 100 0 6 14 41 31 78 17 37 37 81 44 97 7 17 27 59 44 95 17 36 31
70 31 75 0 17 65 105 78 105 6 0 12 4 12 8 0 5 11 15 25 22 14 7 25 20 26 29
0 11 2 12 6 3 3 -7 -2 -28 -11 -46 -9 -19 -16 -41 -16 -49 0 -8 -7 -28 -15
-43 -8 -16 -15 -37 -15 -47 0 -9 -4 -25 -9 -35 -5 -9 -19 -51 -32 -92 -12 -41
-28 -92 -35 -113 -8 -20 -14 -48 -14 -62 0 -13 -4 -26 -9 -30 -6 -3 -13 -27
-16 -53 -4 -26 -13 -66 -21 -90 -18 -55 -19 -121 -2 -104 16 16 69 15 93 -1
74 -50 375 -46 375 5 0 14 -8 18 -34 18 -19 0 -38 5 -41 10 -3 6 -19 10 -35
10 -21 0 -28 4 -24 14 4 11 18 13 60 9 44 -5 55 -3 60 11 4 10 2 22 -5 29 -6
6 -11 33 -11 60 0 26 -4 56 -10 66 -9 18 -32 472 -24 481 3 2 16 -8 29 -22 23
-25 39 -78 64 -218 21 -112 80 -331 110 -402 l15 -37 37 37 c20 20 66 65 103
99 36 35 66 66 66 69 0 4 -6 1 -14 -5 -23 -19 -112 -26 -122 -10 -22 34 -52
183 -46 226 4 25 32 21 33 -6 0 -9 3 -11 5 -4 5 12 -58 148 -97 208 -31 49
-41 77 -47 129 -5 47 -4 48 18 41 21 -7 20 -4 -11 41 -19 27 -37 51 -40 54 -4
3 -9 16 -13 30 -6 23 -6 24 5 5 7 -11 17 -25 23 -32 29 -33 36 -43 36 -53 0
-5 3 -10 8 -10 4 0 20 -20 35 -45 16 -25 33 -45 38 -45 5 0 9 -4 9 -10 0 -9
64 -99 79 -110 4 -3 31 -36 61 -75 30 -38 71 -87 92 -107 21 -21 38 -42 38
-48 0 -5 7 -10 15 -10 8 0 15 6 15 14 0 7 14 38 30 69 17 31 30 65 30 76 0 11
5 21 10 23 6 2 13 21 17 43 3 22 9 42 13 45 9 7 29 97 41 185 5 39 14 103 20
144 9 62 8 76 -4 88 -13 13 -59 14 -330 8 l-315 -8 -11 -24 c-10 -21 -8 -31
10 -59 12 -19 19 -37 16 -40 -3 -3 -8 4 -12 15 -11 36 -45 26 -62 -19 -13 -31
-19 -38 -29 -29 -8 6 -32 9 -54 7 -33 -3 -40 -1 -40 15 0 10 -7 31 -15 47 -19
37 -11 87 12 69 9 -8 12 -22 8 -43 -7 -31 -7 -31 10 -8 22 30 85 32 85 2 0
-11 5 -20 10 -20 13 0 13 6 0 30 -7 13 -7 25 0 37 5 10 16 35 24 56 11 26 21
37 35 37 13 0 21 7 21 17 0 16 1 16 17 0 16 -15 16 -18 -2 -37 -18 -20 -18
-20 24 -20 36 0 48 6 91 49 28 27 50 54 50 58 0 12 95 38 190 53 41 6 102 16
135 21 33 5 75 15 93 21 l34 13 -7 55 c-3 30 -10 66 -15 80 -5 14 -11 46 -15
72 -3 26 -10 50 -16 53 -5 4 -9 17 -9 29 0 35 -23 50 -52 35 -28 -15 -139 -92
-170 -118 -95 -79 -126 -106 -149 -126 -25 -22 -45 -26 -177 -40 -24 -2 -55
-11 -69 -21 l-26 -17 24 -18 c13 -10 30 -19 37 -19 8 0 12 -16 11 -47 -1 -27
-3 -40 -6 -30 -2 9 -9 17 -14 17 -5 0 -9 6 -9 13 0 18 -60 73 -87 82 -27 8
-93 -14 -93 -31 0 -7 -5 -14 -11 -16 -6 -2 -15 -22 -19 -43 -8 -40 -8 -40 -9
-7 0 18 -5 41 -10 51 -8 14 -4 21 18 34 16 9 34 31 41 48 13 30 14 30 21 10
10 -27 63 -29 78 -3 6 9 11 11 11 5 0 -29 33 -7 131 90 58 56 173 168 256 248
83 81 154 152 158 158 6 10 -37 97 -54 111 -4 3 -17 18 -29 34 -29 38 -28 14
2 -49 28 -57 24 -66 -34 -85 -44 -15 -63 -9 -126 37 -17 13 -38 23 -46 23 -16
0 -21 31 -6 41 5 3 2 13 -6 22 -17 16 -20 46 -10 85 6 19 13 22 60 22 29 0 65
-5 79 -10 l27 -10 -24 29 c-13 15 -38 39 -56 51 -18 13 -47 36 -65 52 -18 15
-50 37 -72 48 l-40 20 -11 -27 c-13 -32 -33 -108 -45 -173 -31 -165 -41 -225
-50 -300 -6 -47 -15 -99 -20 -116 -5 -17 -9 -46 -9 -64 l0 -34 -22 39 c-22 39
-23 46 -21 325 0 157 4 311 8 343 l6 58 -98 -1 c-128 -2 -121 -3 -127 18 -3 9
-3 -39 0 -108z"/>
<path d="M21570 8980 c0 -5 -10 -10 -23 -10 -12 0 -30 -9 -39 -20 -23 -26 -42
-98 -30 -113 5 -7 15 -33 22 -59 17 -64 29 -61 16 3 -8 41 -8 52 4 59 10 7 11
10 3 10 -18 0 -16 27 2 34 8 3 15 12 15 21 0 8 6 15 14 15 17 0 30 -51 21 -80
-5 -16 -2 -20 14 -20 12 0 21 -6 21 -14 0 -8 6 -16 14 -19 10 -4 12 0 9 14 -5
19 -2 20 33 13 55 -10 56 -10 53 -68 -2 -28 0 -50 4 -48 4 1 12 2 17 2 13 0
13 46 -1 72 -11 21 -10 21 72 14 46 -4 86 -11 87 -16 5 -12 82 -13 82 -1 0 5
-34 12 -75 16 -41 4 -75 11 -75 16 0 5 -18 9 -41 9 -32 0 -42 4 -46 20 -3 11
-9 20 -13 20 -4 0 -11 11 -14 25 -6 24 -26 36 -26 15 0 -5 5 -10 10 -10 7 0 7
-7 0 -20 -6 -11 -8 -25 -5 -30 3 -6 1 -10 -4 -10 -6 0 -11 5 -11 10 0 6 -11
10 -25 10 -18 0 -25 5 -25 19 0 11 -7 26 -15 35 -18 18 -19 26 -2 26 14 0 47
-35 47 -50 0 -6 5 -10 10 -10 17 0 11 16 -17 44 -22 23 -25 29 -13 37 13 8 13
10 0 19 -8 5 -23 10 -32 10 -10 0 -18 5 -18 10 0 6 -4 10 -10 10 -5 0 -10 -4
-10 -10z"/>
<path d="M6353 7995 c-7 -8 -13 -19 -13 -25 0 -7 -6 -8 -17 -2 -20 11 -48 -11
-37 -29 4 -8 9 -7 15 2 7 11 9 10 9 -3 0 -9 -7 -24 -16 -33 -13 -12 -14 -19
-4 -30 8 -10 9 -15 2 -15 -6 0 -15 8 -21 18 -7 12 -8 5 -4 -25 4 -29 2 -43 -6
-43 -18 0 -13 -17 11 -40 17 -15 24 -17 31 -8 5 8 6 2 3 -17 -5 -22 -4 -26 4
-15 8 13 11 13 19 1 5 -8 7 -21 4 -30 -3 -10 -2 -12 4 -5 14 18 45 25 60 13
11 -10 11 -14 1 -20 -9 -6 -6 -9 10 -9 13 0 22 6 22 15 0 8 5 15 10 15 6 0 10
-7 10 -15 0 -8 7 -15 15 -15 8 0 15 -7 15 -15 0 -8 5 -15 11 -15 6 0 9 -7 5
-15 -3 -8 0 -15 5 -15 7 0 9 -9 6 -21 -3 -12 -3 -18 0 -15 9 9 33 -63 33 -99
0 -56 -49 -64 -165 -28 -27 9 -65 22 -83 30 -18 8 -41 16 -52 18 -10 2 -28 8
-39 14 -11 6 -34 11 -51 11 l-30 0 3 -61 c2 -34 10 -66 18 -74 8 -8 47 -30 87
-50 47 -23 77 -44 84 -60 12 -26 34 -33 40 -14 4 12 51 -7 103 -41 17 -11 36
-23 44 -26 12 -6 30 -24 117 -121 l21 -23 11 23 c6 12 13 34 16 48 3 14 17 42
31 63 14 20 25 41 25 46 0 6 9 27 20 47 11 21 20 43 20 50 0 7 4 13 8 13 8 0
32 87 35 130 1 14 4 27 7 30 3 3 4 35 2 73 -4 78 -20 88 -47 27 -14 -32 -21
-38 -32 -29 -7 6 -13 18 -13 25 0 8 -4 14 -8 14 -4 0 -8 15 -8 33 1 24 -3 31
-15 29 -11 -1 -18 7 -22 28 -6 30 -15 33 -82 33 -5 0 -11 11 -11 24 -2 32 -13
41 -25 23 -9 -13 -10 -13 -8 0 3 29 -1 40 -16 40 -8 0 -15 -5 -15 -11 0 -5 -5
-7 -11 -3 -7 4 -7 9 -2 13 16 10 22 37 11 52 -8 11 -9 11 -5 -3 4 -12 0 -16
-13 -15 -15 1 -16 5 -9 25 5 14 7 27 4 30 -3 3 -5 0 -5 -6 0 -7 -7 -12 -16
-12 -10 0 -14 6 -11 14 3 8 -1 13 -11 12 -10 0 -17 6 -16 15 1 11 -5 15 -17
12 -14 -4 -16 -1 -12 16 6 25 0 27 -22 5 -15 -15 -15 -14 -9 10 7 29 4 31 -13
11z"/>
<path d="M23714 7293 c-23 -4 -23 -3 -43 -142 -6 -41 -15 -88 -20 -105 -28
-89 -40 -136 -46 -186 l-7 -55 32 45 c61 84 123 112 127 57 1 -12 9 -26 17
-32 8 -6 18 -23 21 -38 4 -15 11 -27 16 -27 5 0 6 -7 3 -15 -8 -20 16 -19 77
2 48 17 58 29 41 49 -8 8 -22 49 -70 204 -9 30 -22 64 -28 75 -6 11 -17 39
-24 62 -17 54 -68 111 -96 106z"/>
</g>
</svg>
